G04*
G04 #@! TF.GenerationSoftware,Altium Limited,Altium Designer,18.1.6 (161)*
G04*
G04 Layer_Color=32768*
%FSTAX24Y24*%
%MOIN*%
G70*
G01*
G75*
%ADD11C,0.0059*%
%ADD14C,0.0079*%
%ADD19C,0.0039*%
%ADD21C,0.0020*%
D11*
X055098Y037618D02*
X056594D01*
X055098Y038878D02*
X056594D01*
X055098Y037618D02*
Y038878D01*
X056594Y037618D02*
Y038878D01*
X029852Y038415D02*
X031112D01*
X029852Y036919D02*
X031112D01*
X029852D02*
Y038415D01*
X031112Y036919D02*
Y038415D01*
D14*
X054439Y021339D02*
X055305D01*
X054439Y019488D02*
X055305D01*
X054439D02*
Y021339D01*
X055305Y019488D02*
Y021339D01*
X056368Y019508D02*
Y021319D01*
X055502Y019508D02*
Y021319D01*
Y019508D02*
X056368D01*
X055502Y021319D02*
X056368D01*
X063358Y028374D02*
Y035461D01*
X056862D02*
X063358D01*
X056862Y028374D02*
Y035461D01*
Y028374D02*
X063358D01*
X044762Y0164D02*
X045628D01*
X044762Y01825D02*
X045628D01*
Y0164D02*
Y01825D01*
X044762Y0164D02*
Y01825D01*
X045825Y016419D02*
Y01823D01*
X046691Y016419D02*
Y01823D01*
X045825D02*
X046691D01*
X045825Y016419D02*
X046691D01*
X035Y025079D02*
Y025945D01*
X036811Y025079D02*
Y025945D01*
X035Y025079D02*
X036811D01*
X035Y025945D02*
X036811D01*
X035Y026181D02*
Y027047D01*
X036811Y026181D02*
Y027047D01*
X035Y026181D02*
X036811D01*
X035Y027047D02*
X036811D01*
X035Y023937D02*
Y024803D01*
X036811Y023937D02*
Y024803D01*
X035Y023937D02*
X036811D01*
X035Y024803D02*
X036811D01*
X039961Y01937D02*
Y020236D01*
X03815Y01937D02*
Y020236D01*
X039961D01*
X03815Y01937D02*
X039961D01*
X031693Y019213D02*
Y020079D01*
X033504Y019213D02*
Y020079D01*
X031693Y019213D02*
X033504D01*
X031693Y020079D02*
X033504D01*
X031742Y023524D02*
Y02439D01*
X033553Y023524D02*
Y02439D01*
X031742Y023524D02*
X033553D01*
X031742Y02439D02*
X033553D01*
X058282Y040163D02*
Y041974D01*
X059149Y040163D02*
Y041974D01*
X058282D02*
X059149D01*
X058282Y040163D02*
X059149D01*
X059542D02*
Y041974D01*
X060408Y040163D02*
Y041974D01*
X059542D02*
X060408D01*
X059542Y040163D02*
X060408D01*
D19*
X032815Y03378D02*
X033563D01*
Y033465D02*
Y03378D01*
X032825Y033465D02*
X033563D01*
X032815Y033474D02*
Y03378D01*
Y033474D02*
X032825Y033465D01*
X028484Y032307D02*
X029232D01*
X028484Y031992D02*
Y032307D01*
Y031992D02*
X029222D01*
X029232Y032002D02*
Y032307D01*
X029222Y031992D02*
X029232Y032002D01*
X030226Y030984D02*
X030236Y030994D01*
Y031299D01*
X029488Y030984D02*
X030226D01*
X029488D02*
Y031299D01*
X030236D01*
X029222Y030984D02*
X029232Y030994D01*
Y031299D01*
X028484Y030984D02*
X029222D01*
X028484D02*
Y031299D01*
X029232D01*
X029488Y032307D02*
X030236D01*
X029488Y031992D02*
Y032307D01*
Y031992D02*
X030226D01*
X030236Y032002D02*
Y032307D01*
X030226Y031992D02*
X030236Y032002D01*
X034043Y032636D02*
X035008D01*
X034043D02*
Y033039D01*
X035008D01*
Y032636D02*
Y033039D01*
X033681Y034352D02*
X035295D01*
X033681Y033524D02*
Y034352D01*
Y033524D02*
X035295D01*
Y034352D01*
X032815Y034409D02*
X033563D01*
Y034094D02*
Y034409D01*
X032825Y034094D02*
X033563D01*
X032815Y034104D02*
Y034409D01*
Y034104D02*
X032825Y034094D01*
X049579Y042596D02*
X050543D01*
Y043D01*
X049579D02*
X050543D01*
X049579Y042596D02*
Y043D01*
X057852Y030706D02*
Y03111D01*
X056888Y030706D02*
X057852D01*
X055472Y027106D02*
X05626D01*
X055472D02*
Y02813D01*
X05626D01*
Y027106D02*
Y02813D01*
X056909Y0275D02*
Y029862D01*
X059272D01*
Y027579D02*
Y029862D01*
Y0275D02*
Y027579D01*
X056909Y0275D02*
X059272D01*
X058179Y031831D02*
X059045D01*
X058179Y031122D02*
Y031831D01*
Y031122D02*
X059045D01*
Y031831D01*
X056888Y03111D02*
X057852D01*
X056888Y031661D02*
X057852D01*
X056888D02*
Y032065D01*
X057852D01*
Y031661D02*
Y032065D01*
X055118Y027047D02*
Y027913D01*
X054409D02*
X055118D01*
X054409Y027047D02*
Y027913D01*
Y027047D02*
X055118D01*
X056888Y031189D02*
X057852D01*
X056888D02*
Y031592D01*
X057852D01*
Y031189D02*
Y031592D01*
X056888Y030706D02*
Y03111D01*
X056142Y030689D02*
X056152Y030699D01*
Y031004D01*
X055404Y030689D02*
X056142D01*
X055404D02*
Y031004D01*
X056152D01*
X056152Y031181D02*
X056161Y031191D01*
Y031496D01*
X055413Y031181D02*
X056152D01*
X055413D02*
Y031496D01*
X056161D01*
X056142Y031673D02*
X056152Y031683D01*
Y031988D01*
X055404Y031673D02*
X056142D01*
X055404D02*
Y031988D01*
X056152D01*
X056142Y03313D02*
X056152Y03314D01*
Y033445D01*
X055404Y03313D02*
X056142D01*
X055404D02*
Y033445D01*
X056152D01*
X056142Y033602D02*
X056152Y033612D01*
Y033917D01*
X055404Y033602D02*
X056142D01*
X055404D02*
Y033917D01*
X056152D01*
X056142Y034075D02*
X056152Y034085D01*
Y03439D01*
X055404Y034075D02*
X056142D01*
X055404D02*
Y03439D01*
X056152D01*
X056142Y034547D02*
X056152Y034557D01*
Y034862D01*
X055404Y034547D02*
X056142D01*
X055404D02*
Y034862D01*
X056152D01*
X043502Y021341D02*
X045864D01*
Y021419D01*
Y023703D01*
X043502D02*
X045864D01*
X043502Y021341D02*
Y023703D01*
X045805Y024362D02*
Y025071D01*
X046671D01*
Y024362D02*
Y025071D01*
X045805Y024362D02*
X046671D01*
X047018Y02402D02*
Y024423D01*
Y02402D02*
X047982D01*
Y024423D01*
X047018D02*
X047982D01*
X04702Y024953D02*
Y025357D01*
Y024953D02*
X047984D01*
Y025357D01*
X04702D02*
X047984D01*
X04702Y02449D02*
Y024894D01*
Y02449D02*
X047984D01*
Y024894D01*
X04702D02*
X047984D01*
X041051Y021075D02*
X04176D01*
X041051D02*
Y021941D01*
X04176D01*
Y021075D02*
Y021941D01*
X042872Y020947D02*
Y02197D01*
X042085D02*
X042872D01*
X042085Y020947D02*
Y02197D01*
Y020947D02*
X042872D01*
X032579Y017028D02*
Y017776D01*
X032894D01*
Y017037D02*
Y017776D01*
X032579Y017028D02*
X032884D01*
X032894Y017037D01*
X033012Y017028D02*
Y017776D01*
X033327D01*
Y017037D02*
Y017776D01*
X033012Y017028D02*
X033317D01*
X033327Y017037D01*
X038303Y02165D02*
X03872D01*
X039965Y020476D02*
Y02165D01*
X039547Y020476D02*
X039965D01*
X039547Y02165D02*
X039965D01*
X03872Y020476D02*
X039547D01*
X038303D02*
Y02165D01*
Y020476D02*
X03872D01*
Y02165D02*
X039547D01*
X035276Y028937D02*
Y029803D01*
Y028937D02*
X035945D01*
Y029803D01*
X035276D02*
X035945D01*
X037815Y019067D02*
X043445D01*
Y018189D02*
Y019067D01*
Y018189D02*
X043961D01*
Y016693D02*
Y018189D01*
X043445Y016693D02*
X043961D01*
X043445Y013295D02*
Y016693D01*
X037815Y013295D02*
X043445D01*
X037815D02*
Y016693D01*
X037299D02*
X037815D01*
X037299D02*
Y018189D01*
X037815D01*
Y019067D01*
X035217Y031516D02*
X036004D01*
Y030492D02*
Y031516D01*
X035217Y030492D02*
X036004D01*
X035217D02*
Y031516D01*
X032648Y018199D02*
X033248D01*
Y017067D02*
Y018199D01*
X032648Y017067D02*
X033248D01*
X032648D02*
Y018199D01*
X040325Y0194D02*
Y020531D01*
X040925D01*
Y0194D02*
Y020531D01*
X040325Y0194D02*
X040925D01*
X052665Y035002D02*
X05363D01*
X052665Y034599D02*
Y035002D01*
Y034599D02*
X05363D01*
Y035002D01*
X05363Y034126D02*
Y03453D01*
X052665Y034126D02*
X05363D01*
X052665D02*
Y03453D01*
X05363D01*
X053148Y032327D02*
X053974D01*
X05273Y0335D02*
X053148D01*
X05273Y032327D02*
Y0335D01*
X053148D02*
X053974D01*
Y032327D02*
X054392D01*
X053974Y0335D02*
X054392D01*
Y032327D02*
Y0335D01*
X05273Y032327D02*
X053148D01*
X033301Y042191D02*
Y043323D01*
X032701Y042191D02*
X033301D01*
X032701D02*
Y043323D01*
X033301D01*
X052441Y046762D02*
X052451Y046752D01*
X052756D01*
X052441Y046762D02*
Y0475D01*
X052756D01*
Y046752D02*
Y0475D01*
X053307Y046762D02*
X053317Y046752D01*
X053622D01*
X053307Y046762D02*
Y0475D01*
X053622D01*
Y046752D02*
Y0475D01*
X052874Y046762D02*
X052884Y046752D01*
X053189D01*
X052874Y046762D02*
Y0475D01*
X053189D01*
Y046752D02*
Y0475D01*
X052008Y046762D02*
X052018Y046752D01*
X052323D01*
X052008Y046762D02*
Y0475D01*
X052323D01*
Y046752D02*
Y0475D01*
X05374Y046762D02*
X05375Y046752D01*
X054055D01*
X05374Y046762D02*
Y0475D01*
X054055D01*
Y046752D02*
Y0475D01*
X046457Y046841D02*
X046467Y046831D01*
X046772D01*
X046457Y046841D02*
Y047579D01*
X046772D01*
Y046831D02*
Y047579D01*
X046024Y046841D02*
X046033Y046831D01*
X046339D01*
X046024Y046841D02*
Y047579D01*
X046339D01*
Y046831D02*
Y047579D01*
X045591Y046841D02*
X0456Y046831D01*
X045906D01*
X045591Y046841D02*
Y047579D01*
X045906D01*
Y046831D02*
Y047579D01*
X045157Y046841D02*
X045167Y046831D01*
X045472D01*
X045157Y046841D02*
Y047579D01*
X045472D01*
Y046831D02*
Y047579D01*
X041102Y046959D02*
X041112Y046949D01*
X041417D01*
X041102Y046959D02*
Y047697D01*
X041417D01*
Y046949D02*
Y047697D01*
X04063Y046959D02*
X04064Y046949D01*
X040945D01*
X04063Y046959D02*
Y047697D01*
X040945D01*
Y046949D02*
Y047697D01*
X045689Y045453D02*
X050295D01*
X045689Y040256D02*
Y045453D01*
Y040256D02*
X050295D01*
Y045453D01*
X049579Y042124D02*
Y042527D01*
X050543D01*
Y042124D02*
Y042527D01*
X049579Y042124D02*
X050543D01*
X049579Y041632D02*
X050543D01*
Y042035D01*
X049579D02*
X050543D01*
X049579Y041632D02*
Y042035D01*
X031813Y036664D02*
X036227D01*
X031813Y041077D02*
X036227D01*
X031813Y036664D02*
Y041077D01*
X036227Y036664D02*
Y041077D01*
X033449Y043323D02*
X034049D01*
X033449Y042191D02*
Y043323D01*
Y042191D02*
X034049D01*
Y043323D01*
X034945D02*
X035545D01*
X034945Y042191D02*
Y043323D01*
Y042191D02*
X035545D01*
Y043323D01*
X034197D02*
X034797D01*
X034197Y042191D02*
Y043323D01*
Y042191D02*
X034797D01*
Y043323D01*
X037841Y034799D02*
X038245D01*
X037841Y033835D02*
Y034799D01*
Y033835D02*
X038245D01*
Y034799D01*
X036896Y034799D02*
X0373D01*
X036896Y033835D02*
Y034799D01*
Y033835D02*
X0373D01*
Y034799D01*
X037772Y033835D02*
Y034799D01*
X037369Y033835D02*
X037772D01*
X037369D02*
Y034799D01*
X037772D01*
X037183Y041104D02*
Y042069D01*
X037586D01*
Y041104D02*
Y042069D01*
X037183Y041104D02*
X037586D01*
X03711Y043412D02*
X037642D01*
Y04224D02*
Y043412D01*
X03711Y04224D02*
X037642D01*
X03711D02*
Y043412D01*
X033465Y033484D02*
X033307D01*
X033386D01*
Y03372D01*
X033228D02*
Y033484D01*
X03311D01*
X033071Y033524D01*
Y033602D01*
X03311Y033642D01*
X033228D01*
X032992Y033484D02*
Y03372D01*
X032874D01*
X032835Y033681D01*
Y033524D01*
X032874Y033484D01*
X032992D01*
X032756Y03372D02*
X032677D01*
X032717D01*
Y033484D01*
X032756Y033524D01*
X032402Y033484D02*
X032559D01*
Y03372D01*
X032402D01*
X032559Y033602D02*
X032481D01*
X032323Y03372D02*
X032244D01*
X032284D01*
Y033484D01*
X032323Y033524D01*
X032126Y033484D02*
Y03372D01*
X032008D01*
X031969Y033681D01*
Y033642D01*
X032008Y033602D01*
X032126D01*
X032008D01*
X031969Y033563D01*
Y033524D01*
X032008Y033484D01*
X032126D01*
X03189Y033524D02*
X031851Y033484D01*
X031772D01*
X031733Y033524D01*
Y033681D01*
X031772Y03372D01*
X031851D01*
X03189Y033681D01*
Y033524D01*
X031536Y03372D02*
Y033484D01*
X031654Y033602D01*
X031497D01*
X031418Y033484D02*
Y03372D01*
X0313D01*
X031261Y033681D01*
Y033524D01*
X0313Y033484D01*
X031418D01*
X031182Y03372D02*
Y033484D01*
X031064D01*
X031024Y033524D01*
Y033602D01*
X031064Y033642D01*
X031182D01*
X030946Y033484D02*
Y033524D01*
X030867Y033602D01*
X030788Y033524D01*
Y033484D01*
X030867Y033602D02*
Y03372D01*
X03071D02*
Y033484D01*
X030591D01*
X030552Y033524D01*
Y033602D01*
X030591Y033642D01*
X03071D01*
X030631D02*
X030552Y03372D01*
X028583Y032012D02*
X02874D01*
X028661D01*
Y032248D01*
X028819D02*
Y032012D01*
X028937D01*
X028976Y032051D01*
Y03213D01*
X028937Y032169D01*
X028819D01*
X029055Y032012D02*
Y032248D01*
X029173D01*
X029212Y032209D01*
Y032051D01*
X029173Y032012D01*
X029055D01*
X029291Y032248D02*
X02937D01*
X02933D01*
Y032012D01*
X029291Y032051D01*
X029645Y032012D02*
X029488D01*
Y032248D01*
X029645D01*
X029488Y03213D02*
X029567D01*
X029724Y032248D02*
X029803D01*
X029763D01*
Y032012D01*
X029724Y032051D01*
X029921Y032012D02*
Y032248D01*
X030039D01*
X030078Y032209D01*
Y032169D01*
X030039Y03213D01*
X029921D01*
X030039D01*
X030078Y032091D01*
Y032051D01*
X030039Y032012D01*
X029921D01*
X030157Y032051D02*
X030196Y032012D01*
X030275D01*
X030314Y032051D01*
Y032209D01*
X030275Y032248D01*
X030196D01*
X030157Y032209D01*
Y032051D01*
X030511Y032248D02*
Y032012D01*
X030393Y03213D01*
X030551D01*
X030629Y032012D02*
Y032248D01*
X030747D01*
X030787Y032209D01*
Y032051D01*
X030747Y032012D01*
X030629D01*
X030865Y032248D02*
Y032012D01*
X030983D01*
X031023Y032051D01*
Y03213D01*
X030983Y032169D01*
X030865D01*
X031102Y032012D02*
Y032051D01*
X03118Y03213D01*
X031259Y032051D01*
Y032012D01*
X03118Y03213D02*
Y032248D01*
X031338D02*
Y032012D01*
X031456D01*
X031495Y032051D01*
Y03213D01*
X031456Y032169D01*
X031338D01*
X031416D02*
X031495Y032248D01*
X029587Y031004D02*
X029744D01*
X029665D01*
Y03124D01*
X029823D02*
Y031004D01*
X029941D01*
X02998Y031043D01*
Y031122D01*
X029941Y031161D01*
X029823D01*
X030059Y031004D02*
Y03124D01*
X030177D01*
X030216Y031201D01*
Y031043D01*
X030177Y031004D01*
X030059D01*
X030295Y03124D02*
X030374D01*
X030334D01*
Y031004D01*
X030295Y031043D01*
X030649Y031004D02*
X030492D01*
Y03124D01*
X030649D01*
X030492Y031122D02*
X030571D01*
X030728Y03124D02*
X030807D01*
X030767D01*
Y031004D01*
X030728Y031043D01*
X030925Y031004D02*
Y03124D01*
X031043D01*
X031082Y031201D01*
Y031161D01*
X031043Y031122D01*
X030925D01*
X031043D01*
X031082Y031083D01*
Y031043D01*
X031043Y031004D01*
X030925D01*
X031161Y031043D02*
X0312Y031004D01*
X031279D01*
X031318Y031043D01*
Y031201D01*
X031279Y03124D01*
X0312D01*
X031161Y031201D01*
Y031043D01*
X031515Y03124D02*
Y031004D01*
X031397Y031122D01*
X031554D01*
X031633Y031004D02*
Y03124D01*
X031751D01*
X031791Y031201D01*
Y031043D01*
X031751Y031004D01*
X031633D01*
X031869Y03124D02*
Y031004D01*
X031987D01*
X032027Y031043D01*
Y031122D01*
X031987Y031161D01*
X031869D01*
X032105Y031004D02*
Y031043D01*
X032184Y031122D01*
X032263Y031043D01*
Y031004D01*
X032184Y031122D02*
Y03124D01*
X032342D02*
Y031004D01*
X03246D01*
X032499Y031043D01*
Y031122D01*
X03246Y031161D01*
X032342D01*
X03242D02*
X032499Y03124D01*
X028583Y031004D02*
X02874D01*
X028661D01*
Y03124D01*
X028819D02*
Y031004D01*
X028937D01*
X028976Y031043D01*
Y031122D01*
X028937Y031161D01*
X028819D01*
X029055Y031004D02*
Y03124D01*
X029173D01*
X029212Y031201D01*
Y031043D01*
X029173Y031004D01*
X029055D01*
X029291Y03124D02*
X02937D01*
X02933D01*
Y031004D01*
X029291Y031043D01*
X029645Y031004D02*
X029488D01*
Y03124D01*
X029645D01*
X029488Y031122D02*
X029567D01*
X029724Y03124D02*
X029803D01*
X029763D01*
Y031004D01*
X029724Y031043D01*
X029921Y031004D02*
Y03124D01*
X030039D01*
X030078Y031201D01*
Y031161D01*
X030039Y031122D01*
X029921D01*
X030039D01*
X030078Y031083D01*
Y031043D01*
X030039Y031004D01*
X029921D01*
X030157Y031043D02*
X030196Y031004D01*
X030275D01*
X030314Y031043D01*
Y031201D01*
X030275Y03124D01*
X030196D01*
X030157Y031201D01*
Y031043D01*
X030511Y03124D02*
Y031004D01*
X030393Y031122D01*
X030551D01*
X030629Y031004D02*
Y03124D01*
X030747D01*
X030787Y031201D01*
Y031043D01*
X030747Y031004D01*
X030629D01*
X030865Y03124D02*
Y031004D01*
X030983D01*
X031023Y031043D01*
Y031122D01*
X030983Y031161D01*
X030865D01*
X031102Y031004D02*
Y031043D01*
X03118Y031122D01*
X031259Y031043D01*
Y031004D01*
X03118Y031122D02*
Y03124D01*
X031338D02*
Y031004D01*
X031456D01*
X031495Y031043D01*
Y031122D01*
X031456Y031161D01*
X031338D01*
X031416D02*
X031495Y03124D01*
X029587Y032012D02*
X029744D01*
X029665D01*
Y032248D01*
X029823D02*
Y032012D01*
X029941D01*
X02998Y032051D01*
Y03213D01*
X029941Y032169D01*
X029823D01*
X030059Y032012D02*
Y032248D01*
X030177D01*
X030216Y032209D01*
Y032051D01*
X030177Y032012D01*
X030059D01*
X030295Y032248D02*
X030374D01*
X030334D01*
Y032012D01*
X030295Y032051D01*
X030649Y032012D02*
X030492D01*
Y032248D01*
X030649D01*
X030492Y03213D02*
X030571D01*
X030728Y032248D02*
X030807D01*
X030767D01*
Y032012D01*
X030728Y032051D01*
X030925Y032012D02*
Y032248D01*
X031043D01*
X031082Y032209D01*
Y032169D01*
X031043Y03213D01*
X030925D01*
X031043D01*
X031082Y032091D01*
Y032051D01*
X031043Y032012D01*
X030925D01*
X031161Y032051D02*
X0312Y032012D01*
X031279D01*
X031318Y032051D01*
Y032209D01*
X031279Y032248D01*
X0312D01*
X031161Y032209D01*
Y032051D01*
X031515Y032248D02*
Y032012D01*
X031397Y03213D01*
X031554D01*
X031633Y032012D02*
Y032248D01*
X031751D01*
X031791Y032209D01*
Y032051D01*
X031751Y032012D01*
X031633D01*
X031869Y032248D02*
Y032012D01*
X031987D01*
X032027Y032051D01*
Y03213D01*
X031987Y032169D01*
X031869D01*
X032105Y032012D02*
Y032051D01*
X032184Y03213D01*
X032263Y032051D01*
Y032012D01*
X032184Y03213D02*
Y032248D01*
X032342D02*
Y032012D01*
X03246D01*
X032499Y032051D01*
Y03213D01*
X03246Y032169D01*
X032342D01*
X03242D02*
X032499Y032248D01*
X034213Y034104D02*
X034173Y034144D01*
X034094D01*
X034055Y034104D01*
Y034065D01*
X034094Y034026D01*
X034173D01*
X034213Y033986D01*
Y033947D01*
X034173Y033907D01*
X034094D01*
X034055Y033947D01*
X034291Y033907D02*
Y034144D01*
X034449Y033907D01*
Y034144D01*
X034527D02*
X034685D01*
Y034104D01*
X034527Y033947D01*
Y033907D01*
X034882D02*
Y034144D01*
X034764Y034026D01*
X034921D01*
X035Y034144D02*
Y033907D01*
X035157D01*
X035236Y034144D02*
Y033986D01*
X035315Y033907D01*
X035393Y033986D01*
Y034144D01*
X035629Y034104D02*
X03559Y034144D01*
X035511D01*
X035472Y034104D01*
Y033947D01*
X035511Y033907D01*
X03559D01*
X035629Y033947D01*
X035866Y033907D02*
X035708D01*
X035866Y034065D01*
Y034104D01*
X035826Y034144D01*
X035747D01*
X035708Y034104D01*
X036102D02*
X036062Y034144D01*
X035984D01*
X035944Y034104D01*
Y033947D01*
X035984Y033907D01*
X036062D01*
X036102Y033947D01*
Y034026D01*
X036023D01*
X036338Y033907D02*
X03618D01*
X036338Y034065D01*
Y034104D01*
X036298Y034144D01*
X03622D01*
X03618Y034104D01*
X036535Y033907D02*
Y034144D01*
X036417Y034026D01*
X036574D01*
X036653Y033907D02*
X036731D01*
X036692D01*
Y034144D01*
X036653Y034104D01*
X036849Y034144D02*
Y033907D01*
X036968D01*
X037007Y033947D01*
Y034104D01*
X036968Y034144D01*
X036849D01*
X037243Y034104D02*
X037204Y034144D01*
X037125D01*
X037086Y034104D01*
Y033947D01*
X037125Y033907D01*
X037204D01*
X037243Y033947D01*
X037322Y034144D02*
Y033947D01*
X037361Y033907D01*
X03744D01*
X037479Y033947D01*
Y034144D01*
X037558Y033907D02*
Y034144D01*
X037676D01*
X037715Y034104D01*
Y034026D01*
X037676Y033986D01*
X037558D01*
X037637D02*
X037715Y033907D01*
X033465Y034114D02*
X033307D01*
X033386D01*
Y03435D01*
X033228D02*
Y034114D01*
X03311D01*
X033071Y034154D01*
Y034232D01*
X03311Y034272D01*
X033228D01*
X032992Y034114D02*
Y03435D01*
X032874D01*
X032835Y034311D01*
Y034154D01*
X032874Y034114D01*
X032992D01*
X032756Y03435D02*
X032677D01*
X032717D01*
Y034114D01*
X032756Y034154D01*
X032402Y034114D02*
X032559D01*
Y03435D01*
X032402D01*
X032559Y034232D02*
X032481D01*
X032323Y03435D02*
X032244D01*
X032284D01*
Y034114D01*
X032323Y034154D01*
X032126Y034114D02*
Y03435D01*
X032008D01*
X031969Y034311D01*
Y034272D01*
X032008Y034232D01*
X032126D01*
X032008D01*
X031969Y034193D01*
Y034154D01*
X032008Y034114D01*
X032126D01*
X03189Y034154D02*
X031851Y034114D01*
X031772D01*
X031733Y034154D01*
Y034311D01*
X031772Y03435D01*
X031851D01*
X03189Y034311D01*
Y034154D01*
X031536Y03435D02*
Y034114D01*
X031654Y034232D01*
X031497D01*
X031418Y034114D02*
Y03435D01*
X0313D01*
X031261Y034311D01*
Y034154D01*
X0313Y034114D01*
X031418D01*
X031182Y03435D02*
Y034114D01*
X031064D01*
X031024Y034154D01*
Y034232D01*
X031064Y034272D01*
X031182D01*
X030946Y034114D02*
Y034154D01*
X030867Y034232D01*
X030788Y034154D01*
Y034114D01*
X030867Y034232D02*
Y03435D01*
X03071D02*
Y034114D01*
X030591D01*
X030552Y034154D01*
Y034232D01*
X030591Y034272D01*
X03071D01*
X030631D02*
X030552Y03435D01*
X05477Y020868D02*
Y020789D01*
Y020829D01*
X055006D01*
X054966Y020868D01*
X05477Y020671D02*
X055006D01*
X054927Y020593D01*
X055006Y020514D01*
X05477D01*
X055738Y02124D02*
Y021161D01*
Y021201D01*
X055974D01*
X055935Y02124D01*
X055738Y021043D02*
X055896D01*
Y020925D01*
X055856Y020886D01*
X055738D01*
X055974Y02065D02*
Y020807D01*
X055856D01*
Y020729D01*
Y020807D01*
X055738D01*
X055779Y027927D02*
Y028084D01*
X055937Y027927D01*
X055976D01*
X056016Y027966D01*
Y028045D01*
X055976Y028084D01*
X055779Y027848D02*
X055819D01*
Y027809D01*
X055779D01*
Y027848D01*
Y027494D02*
Y027651D01*
X055937Y027494D01*
X055976D01*
X056016Y027533D01*
Y027612D01*
X055976Y027651D01*
X055937Y027415D02*
X055819D01*
X055779Y027376D01*
Y027258D01*
X055937D01*
X056016Y027179D02*
X055779D01*
X055897D01*
Y027021D01*
X056016D01*
X055779D01*
X058974Y028831D02*
Y028595D01*
X058856D01*
X058816Y028634D01*
Y028713D01*
X058856Y028752D01*
X058974D01*
X058895D02*
X058816Y028831D01*
X058738Y028595D02*
X05858D01*
X058659D01*
Y028831D01*
X058501Y028595D02*
Y028831D01*
X058344D01*
X058265Y028634D02*
X058226Y028595D01*
X058147D01*
X058108Y028634D01*
Y028673D01*
X058147Y028713D01*
X058108Y028752D01*
Y028792D01*
X058147Y028831D01*
X058226D01*
X058265Y028792D01*
Y028752D01*
X058226Y028713D01*
X058265Y028673D01*
Y028634D01*
X058226Y028713D02*
X058147D01*
X057872Y028831D02*
X058029D01*
X057872Y028673D01*
Y028634D01*
X057911Y028595D01*
X05799D01*
X058029Y028634D01*
X057793Y028831D02*
X057714D01*
X057754D01*
Y028595D01*
X057793Y028634D01*
X057596Y028831D02*
X057518D01*
X057557D01*
Y028595D01*
X057596Y028634D01*
X058181Y031673D02*
Y031437D01*
X058299D01*
X058339Y031476D01*
Y031634D01*
X058299Y031673D01*
X058181D01*
X058417Y031437D02*
Y031673D01*
X058496Y031594D01*
X058575Y031673D01*
Y031437D01*
X058811Y031634D02*
X058772Y031673D01*
X058693D01*
X058654Y031634D01*
Y031476D01*
X058693Y031437D01*
X058772D01*
X058811Y031476D01*
Y031555D01*
X058732D01*
X05889Y031437D02*
X058968D01*
X058929D01*
Y031673D01*
X05889Y031634D01*
X059086D02*
X059126Y031673D01*
X059205D01*
X059244Y031634D01*
Y031476D01*
X059205Y031437D01*
X059126D01*
X059086Y031476D01*
Y031634D01*
X059323Y031437D02*
X059401D01*
X059362D01*
Y031673D01*
X059323Y031634D01*
X059677Y031437D02*
X059519D01*
X059677Y031594D01*
Y031634D01*
X059637Y031673D01*
X059559D01*
X059519Y031634D01*
X059756Y031673D02*
X059913D01*
X059834D01*
Y031437D01*
X059992Y031555D02*
X060149D01*
X060228Y031673D02*
X060385D01*
Y031634D01*
X060228Y031476D01*
Y031437D01*
X05496Y027911D02*
X054724D01*
Y027793D01*
X054764Y027754D01*
X054921D01*
X05496Y027793D01*
Y027911D01*
X054724Y027675D02*
X05496D01*
X054882Y027596D01*
X05496Y027518D01*
X054724D01*
X054921Y027282D02*
X05496Y027321D01*
Y0274D01*
X054921Y027439D01*
X054764D01*
X054724Y0274D01*
Y027321D01*
X054764Y027282D01*
X054842D01*
Y02736D01*
X054724Y027203D02*
Y027124D01*
Y027163D01*
X05496D01*
X054921Y027203D01*
Y027006D02*
X05496Y026967D01*
Y026888D01*
X054921Y026849D01*
X054764D01*
X054724Y026888D01*
Y026967D01*
X054764Y027006D01*
X054921D01*
X054724Y02677D02*
Y026691D01*
Y026731D01*
X05496D01*
X054921Y02677D01*
X054724Y026416D02*
Y026573D01*
X054882Y026416D01*
X054921D01*
X05496Y026455D01*
Y026534D01*
X054921Y026573D01*
X05496Y026337D02*
Y02618D01*
Y026258D01*
X054724D01*
X054842Y026101D02*
Y025943D01*
X05496Y025865D02*
Y025707D01*
X054921D01*
X054764Y025865D01*
X054724D01*
X055502Y030709D02*
X055659D01*
X055581D01*
Y030945D01*
X055738D02*
Y030709D01*
X055856D01*
X055896Y030748D01*
Y030827D01*
X055856Y030866D01*
X055738D01*
X055974Y030709D02*
Y030945D01*
X056092D01*
X056132Y030906D01*
Y030748D01*
X056092Y030709D01*
X055974D01*
X05621Y030945D02*
X056289D01*
X05625D01*
Y030709D01*
X05621Y030748D01*
X056565Y030709D02*
X056407D01*
Y030945D01*
X056565D01*
X056407Y030827D02*
X056486D01*
X056643Y030945D02*
X056722D01*
X056683D01*
Y030709D01*
X056643Y030748D01*
X05684Y030709D02*
Y030945D01*
X056958D01*
X056998Y030906D01*
Y030866D01*
X056958Y030827D01*
X05684D01*
X056958D01*
X056998Y030787D01*
Y030748D01*
X056958Y030709D01*
X05684D01*
X057076Y030748D02*
X057116Y030709D01*
X057194D01*
X057234Y030748D01*
Y030906D01*
X057194Y030945D01*
X057116D01*
X057076Y030906D01*
Y030748D01*
X05743Y030945D02*
Y030709D01*
X057312Y030827D01*
X05747D01*
X057549Y030709D02*
Y030945D01*
X057667D01*
X057706Y030906D01*
Y030748D01*
X057667Y030709D01*
X057549D01*
X057785Y030945D02*
Y030709D01*
X057903D01*
X057942Y030748D01*
Y030827D01*
X057903Y030866D01*
X057785D01*
X058021Y030709D02*
Y030748D01*
X0581Y030827D01*
X058178Y030748D01*
Y030709D01*
X0581Y030827D02*
Y030945D01*
X058257D02*
Y030709D01*
X058375D01*
X058414Y030748D01*
Y030827D01*
X058375Y030866D01*
X058257D01*
X058336D02*
X058414Y030945D01*
X055512Y031201D02*
X055669D01*
X055591D01*
Y031437D01*
X055748D02*
Y031201D01*
X055866D01*
X055905Y03124D01*
Y031319D01*
X055866Y031358D01*
X055748D01*
X055984Y031201D02*
Y031437D01*
X056102D01*
X056142Y031398D01*
Y03124D01*
X056102Y031201D01*
X055984D01*
X05622Y031437D02*
X056299D01*
X05626D01*
Y031201D01*
X05622Y03124D01*
X056574Y031201D02*
X056417D01*
Y031437D01*
X056574D01*
X056417Y031319D02*
X056496D01*
X056653Y031437D02*
X056732D01*
X056693D01*
Y031201D01*
X056653Y03124D01*
X05685Y031201D02*
Y031437D01*
X056968D01*
X057007Y031398D01*
Y031358D01*
X056968Y031319D01*
X05685D01*
X056968D01*
X057007Y03128D01*
Y03124D01*
X056968Y031201D01*
X05685D01*
X057086Y03124D02*
X057125Y031201D01*
X057204D01*
X057244Y03124D01*
Y031398D01*
X057204Y031437D01*
X057125D01*
X057086Y031398D01*
Y03124D01*
X05744Y031437D02*
Y031201D01*
X057322Y031319D01*
X05748D01*
X057558Y031201D02*
Y031437D01*
X057676D01*
X057716Y031398D01*
Y03124D01*
X057676Y031201D01*
X057558D01*
X057795Y031437D02*
Y031201D01*
X057913D01*
X057952Y03124D01*
Y031319D01*
X057913Y031358D01*
X057795D01*
X058031Y031201D02*
Y03124D01*
X058109Y031319D01*
X058188Y03124D01*
Y031201D01*
X058109Y031319D02*
Y031437D01*
X058267D02*
Y031201D01*
X058385D01*
X058424Y03124D01*
Y031319D01*
X058385Y031358D01*
X058267D01*
X058346D02*
X058424Y031437D01*
X055502Y031693D02*
X055659D01*
X055581D01*
Y031929D01*
X055738D02*
Y031693D01*
X055856D01*
X055896Y031732D01*
Y031811D01*
X055856Y03185D01*
X055738D01*
X055974Y031693D02*
Y031929D01*
X056092D01*
X056132Y03189D01*
Y031732D01*
X056092Y031693D01*
X055974D01*
X05621Y031929D02*
X056289D01*
X05625D01*
Y031693D01*
X05621Y031732D01*
X056565Y031693D02*
X056407D01*
Y031929D01*
X056565D01*
X056407Y031811D02*
X056486D01*
X056643Y031929D02*
X056722D01*
X056683D01*
Y031693D01*
X056643Y031732D01*
X05684Y031693D02*
Y031929D01*
X056958D01*
X056998Y03189D01*
Y03185D01*
X056958Y031811D01*
X05684D01*
X056958D01*
X056998Y031772D01*
Y031732D01*
X056958Y031693D01*
X05684D01*
X057076Y031732D02*
X057116Y031693D01*
X057194D01*
X057234Y031732D01*
Y03189D01*
X057194Y031929D01*
X057116D01*
X057076Y03189D01*
Y031732D01*
X05743Y031929D02*
Y031693D01*
X057312Y031811D01*
X05747D01*
X057549Y031693D02*
Y031929D01*
X057667D01*
X057706Y03189D01*
Y031732D01*
X057667Y031693D01*
X057549D01*
X057785Y031929D02*
Y031693D01*
X057903D01*
X057942Y031732D01*
Y031811D01*
X057903Y03185D01*
X057785D01*
X058021Y031693D02*
Y031732D01*
X0581Y031811D01*
X058178Y031732D01*
Y031693D01*
X0581Y031811D02*
Y031929D01*
X058257D02*
Y031693D01*
X058375D01*
X058414Y031732D01*
Y031811D01*
X058375Y03185D01*
X058257D01*
X058336D02*
X058414Y031929D01*
X055502Y03315D02*
X055659D01*
X055581D01*
Y033386D01*
X055738D02*
Y03315D01*
X055856D01*
X055896Y033189D01*
Y033268D01*
X055856Y033307D01*
X055738D01*
X055974Y03315D02*
Y033386D01*
X056092D01*
X056132Y033346D01*
Y033189D01*
X056092Y03315D01*
X055974D01*
X05621Y033386D02*
X056289D01*
X05625D01*
Y03315D01*
X05621Y033189D01*
X056565Y03315D02*
X056407D01*
Y033386D01*
X056565D01*
X056407Y033268D02*
X056486D01*
X056643Y033386D02*
X056722D01*
X056683D01*
Y03315D01*
X056643Y033189D01*
X05684Y03315D02*
Y033386D01*
X056958D01*
X056998Y033346D01*
Y033307D01*
X056958Y033268D01*
X05684D01*
X056958D01*
X056998Y033228D01*
Y033189D01*
X056958Y03315D01*
X05684D01*
X057076Y033189D02*
X057116Y03315D01*
X057194D01*
X057234Y033189D01*
Y033346D01*
X057194Y033386D01*
X057116D01*
X057076Y033346D01*
Y033189D01*
X05743Y033386D02*
Y03315D01*
X057312Y033268D01*
X05747D01*
X057549Y03315D02*
Y033386D01*
X057667D01*
X057706Y033346D01*
Y033189D01*
X057667Y03315D01*
X057549D01*
X057785Y033386D02*
Y03315D01*
X057903D01*
X057942Y033189D01*
Y033268D01*
X057903Y033307D01*
X057785D01*
X058021Y03315D02*
Y033189D01*
X0581Y033268D01*
X058178Y033189D01*
Y03315D01*
X0581Y033268D02*
Y033386D01*
X058257D02*
Y03315D01*
X058375D01*
X058414Y033189D01*
Y033268D01*
X058375Y033307D01*
X058257D01*
X058336D02*
X058414Y033386D01*
X055502Y033622D02*
X055659D01*
X055581D01*
Y033858D01*
X055738D02*
Y033622D01*
X055856D01*
X055896Y033661D01*
Y03374D01*
X055856Y03378D01*
X055738D01*
X055974Y033622D02*
Y033858D01*
X056092D01*
X056132Y033819D01*
Y033661D01*
X056092Y033622D01*
X055974D01*
X05621Y033858D02*
X056289D01*
X05625D01*
Y033622D01*
X05621Y033661D01*
X056565Y033622D02*
X056407D01*
Y033858D01*
X056565D01*
X056407Y03374D02*
X056486D01*
X056643Y033858D02*
X056722D01*
X056683D01*
Y033622D01*
X056643Y033661D01*
X05684Y033622D02*
Y033858D01*
X056958D01*
X056998Y033819D01*
Y03378D01*
X056958Y03374D01*
X05684D01*
X056958D01*
X056998Y033701D01*
Y033661D01*
X056958Y033622D01*
X05684D01*
X057076Y033661D02*
X057116Y033622D01*
X057194D01*
X057234Y033661D01*
Y033819D01*
X057194Y033858D01*
X057116D01*
X057076Y033819D01*
Y033661D01*
X05743Y033858D02*
Y033622D01*
X057312Y03374D01*
X05747D01*
X057549Y033622D02*
Y033858D01*
X057667D01*
X057706Y033819D01*
Y033661D01*
X057667Y033622D01*
X057549D01*
X057785Y033858D02*
Y033622D01*
X057903D01*
X057942Y033661D01*
Y03374D01*
X057903Y03378D01*
X057785D01*
X058021Y033622D02*
Y033661D01*
X0581Y03374D01*
X058178Y033661D01*
Y033622D01*
X0581Y03374D02*
Y033858D01*
X058257D02*
Y033622D01*
X058375D01*
X058414Y033661D01*
Y03374D01*
X058375Y03378D01*
X058257D01*
X058336D02*
X058414Y033858D01*
X055502Y034095D02*
X055659D01*
X055581D01*
Y034331D01*
X055738D02*
Y034095D01*
X055856D01*
X055896Y034134D01*
Y034213D01*
X055856Y034252D01*
X055738D01*
X055974Y034095D02*
Y034331D01*
X056092D01*
X056132Y034291D01*
Y034134D01*
X056092Y034095D01*
X055974D01*
X05621Y034331D02*
X056289D01*
X05625D01*
Y034095D01*
X05621Y034134D01*
X056565Y034095D02*
X056407D01*
Y034331D01*
X056565D01*
X056407Y034213D02*
X056486D01*
X056643Y034331D02*
X056722D01*
X056683D01*
Y034095D01*
X056643Y034134D01*
X05684Y034095D02*
Y034331D01*
X056958D01*
X056998Y034291D01*
Y034252D01*
X056958Y034213D01*
X05684D01*
X056958D01*
X056998Y034173D01*
Y034134D01*
X056958Y034095D01*
X05684D01*
X057076Y034134D02*
X057116Y034095D01*
X057194D01*
X057234Y034134D01*
Y034291D01*
X057194Y034331D01*
X057116D01*
X057076Y034291D01*
Y034134D01*
X05743Y034331D02*
Y034095D01*
X057312Y034213D01*
X05747D01*
X057549Y034095D02*
Y034331D01*
X057667D01*
X057706Y034291D01*
Y034134D01*
X057667Y034095D01*
X057549D01*
X057785Y034331D02*
Y034095D01*
X057903D01*
X057942Y034134D01*
Y034213D01*
X057903Y034252D01*
X057785D01*
X058021Y034095D02*
Y034134D01*
X0581Y034213D01*
X058178Y034134D01*
Y034095D01*
X0581Y034213D02*
Y034331D01*
X058257D02*
Y034095D01*
X058375D01*
X058414Y034134D01*
Y034213D01*
X058375Y034252D01*
X058257D01*
X058336D02*
X058414Y034331D01*
X055502Y034567D02*
X055659D01*
X055581D01*
Y034803D01*
X055738D02*
Y034567D01*
X055856D01*
X055896Y034606D01*
Y034685D01*
X055856Y034724D01*
X055738D01*
X055974Y034567D02*
Y034803D01*
X056092D01*
X056132Y034764D01*
Y034606D01*
X056092Y034567D01*
X055974D01*
X05621Y034803D02*
X056289D01*
X05625D01*
Y034567D01*
X05621Y034606D01*
X056565Y034567D02*
X056407D01*
Y034803D01*
X056565D01*
X056407Y034685D02*
X056486D01*
X056643Y034803D02*
X056722D01*
X056683D01*
Y034567D01*
X056643Y034606D01*
X05684Y034567D02*
Y034803D01*
X056958D01*
X056998Y034764D01*
Y034724D01*
X056958Y034685D01*
X05684D01*
X056958D01*
X056998Y034646D01*
Y034606D01*
X056958Y034567D01*
X05684D01*
X057076Y034606D02*
X057116Y034567D01*
X057194D01*
X057234Y034606D01*
Y034764D01*
X057194Y034803D01*
X057116D01*
X057076Y034764D01*
Y034606D01*
X05743Y034803D02*
Y034567D01*
X057312Y034685D01*
X05747D01*
X057549Y034567D02*
Y034803D01*
X057667D01*
X057706Y034764D01*
Y034606D01*
X057667Y034567D01*
X057549D01*
X057785Y034803D02*
Y034567D01*
X057903D01*
X057942Y034606D01*
Y034685D01*
X057903Y034724D01*
X057785D01*
X058021Y034567D02*
Y034606D01*
X0581Y034685D01*
X058178Y034606D01*
Y034567D01*
X0581Y034685D02*
Y034803D01*
X058257D02*
Y034567D01*
X058375D01*
X058414Y034606D01*
Y034685D01*
X058375Y034724D01*
X058257D01*
X058336D02*
X058414Y034803D01*
X045297Y01687D02*
Y016949D01*
Y016909D01*
X045061D01*
X0451Y01687D01*
X045297Y017067D02*
X045061D01*
X04514Y017146D01*
X045061Y017224D01*
X045297D01*
X046455Y016498D02*
Y016577D01*
Y016537D01*
X046219D01*
X046258Y016498D01*
X046455Y016695D02*
X046297D01*
Y016813D01*
X046337Y016852D01*
X046455D01*
X046219Y017088D02*
Y016931D01*
X046337D01*
Y01701D01*
Y016931D01*
X046455D01*
X045566Y022671D02*
Y022435D01*
X045448D01*
X045409Y022475D01*
Y022553D01*
X045448Y022593D01*
X045566D01*
X045488D02*
X045409Y022671D01*
X04533Y022435D02*
X045173D01*
X045251D01*
Y022671D01*
X045094Y022435D02*
Y022671D01*
X044937D01*
X044858Y022475D02*
X044819Y022435D01*
X04474D01*
X0447Y022475D01*
Y022514D01*
X04474Y022553D01*
X0447Y022593D01*
Y022632D01*
X04474Y022671D01*
X044819D01*
X044858Y022632D01*
Y022593D01*
X044819Y022553D01*
X044858Y022514D01*
Y022475D01*
X044819Y022553D02*
X04474D01*
X044464Y022671D02*
X044622D01*
X044464Y022514D01*
Y022475D01*
X044504Y022435D01*
X044582D01*
X044622Y022475D01*
X044386Y022671D02*
X044307D01*
X044346D01*
Y022435D01*
X044386Y022475D01*
X044189Y022671D02*
X04411D01*
X044149D01*
Y022435D01*
X044189Y022475D01*
X046669Y02452D02*
Y024756D01*
X046551D01*
X046512Y024717D01*
Y024559D01*
X046551Y02452D01*
X046669D01*
X046433Y024756D02*
Y02452D01*
X046354Y024599D01*
X046276Y02452D01*
Y024756D01*
X046039Y024559D02*
X046079Y02452D01*
X046157D01*
X046197Y024559D01*
Y024717D01*
X046157Y024756D01*
X046079D01*
X046039Y024717D01*
Y024638D01*
X046118D01*
X045961Y024756D02*
X045882D01*
X045921D01*
Y02452D01*
X045961Y024559D01*
X045764D02*
X045725Y02452D01*
X045646D01*
X045606Y024559D01*
Y024717D01*
X045646Y024756D01*
X045725D01*
X045764Y024717D01*
Y024559D01*
X045528Y024756D02*
X045449D01*
X045488D01*
Y02452D01*
X045528Y024559D01*
X045174Y024756D02*
X045331D01*
X045174Y024599D01*
Y024559D01*
X045213Y02452D01*
X045292D01*
X045331Y024559D01*
X045095Y02452D02*
X044937D01*
X045016D01*
Y024756D01*
X044859Y024638D02*
X044701D01*
X044623Y02452D02*
X044465D01*
Y024559D01*
X044623Y024717D01*
Y024756D01*
X041602Y021939D02*
X041366D01*
Y021821D01*
X041405Y021781D01*
X041563D01*
X041602Y021821D01*
Y021939D01*
X041366Y021703D02*
X041602D01*
X041523Y021624D01*
X041602Y021545D01*
X041366D01*
X041563Y021309D02*
X041602Y021348D01*
Y021427D01*
X041563Y021467D01*
X041405D01*
X041366Y021427D01*
Y021348D01*
X041405Y021309D01*
X041484D01*
Y021388D01*
X041366Y02123D02*
Y021152D01*
Y021191D01*
X041602D01*
X041563Y02123D01*
Y021034D02*
X041602Y020994D01*
Y020916D01*
X041563Y020876D01*
X041405D01*
X041366Y020916D01*
Y020994D01*
X041405Y021034D01*
X041563D01*
X041366Y020797D02*
Y020719D01*
Y020758D01*
X041602D01*
X041563Y020797D01*
X041366Y020443D02*
Y020601D01*
X041523Y020443D01*
X041563D01*
X041602Y020483D01*
Y020561D01*
X041563Y020601D01*
X041602Y020365D02*
Y020207D01*
Y020286D01*
X041366D01*
X041484Y020128D02*
Y019971D01*
X041602Y019892D02*
Y019735D01*
X041563D01*
X041405Y019892D01*
X041366D01*
X042392Y021767D02*
Y021925D01*
X042549Y021767D01*
X042588D01*
X042628Y021807D01*
Y021885D01*
X042588Y021925D01*
X042392Y021689D02*
X042431D01*
Y021649D01*
X042392D01*
Y021689D01*
Y021334D02*
Y021492D01*
X042549Y021334D01*
X042588D01*
X042628Y021374D01*
Y021452D01*
X042588Y021492D01*
X042549Y021256D02*
X042431D01*
X042392Y021216D01*
Y021098D01*
X042549D01*
X042628Y021019D02*
X042392D01*
X04251D01*
Y020862D01*
X042628D01*
X042392D01*
X032874Y017677D02*
Y01752D01*
Y017598D01*
X032638D01*
Y017441D02*
X032874D01*
Y017323D01*
X032835Y017284D01*
X032756D01*
X032717Y017323D01*
Y017441D01*
X032874Y017205D02*
X032638D01*
Y017087D01*
X032677Y017047D01*
X032835D01*
X032874Y017087D01*
Y017205D01*
X032638Y016969D02*
Y01689D01*
Y016929D01*
X032874D01*
X032835Y016969D01*
X032874Y016615D02*
Y016772D01*
X032638D01*
Y016615D01*
X032756Y016772D02*
Y016693D01*
X032638Y016536D02*
Y016457D01*
Y016496D01*
X032874D01*
X032835Y016536D01*
X032874Y016339D02*
X032638D01*
Y016221D01*
X032677Y016182D01*
X032717D01*
X032756Y016221D01*
Y016339D01*
Y016221D01*
X032795Y016182D01*
X032835D01*
X032874Y016221D01*
Y016339D01*
X032835Y016103D02*
X032874Y016064D01*
Y015985D01*
X032835Y015945D01*
X032677D01*
X032638Y015985D01*
Y016064D01*
X032677Y016103D01*
X032835D01*
X032638Y015749D02*
X032874D01*
X032756Y015867D01*
Y015709D01*
X032874Y015631D02*
X032638D01*
Y015513D01*
X032677Y015473D01*
X032835D01*
X032874Y015513D01*
Y015631D01*
X032638Y015394D02*
X032874D01*
Y015276D01*
X032835Y015237D01*
X032756D01*
X032717Y015276D01*
Y015394D01*
X032874Y015158D02*
X032835D01*
X032756Y01508D01*
X032835Y015001D01*
X032874D01*
X032756Y01508D02*
X032638D01*
Y014922D02*
X032874D01*
Y014804D01*
X032835Y014765D01*
X032756D01*
X032717Y014804D01*
Y014922D01*
Y014843D02*
X032638Y014765D01*
X033307Y017677D02*
Y01752D01*
Y017598D01*
X033071D01*
Y017441D02*
X033307D01*
Y017323D01*
X033268Y017284D01*
X033189D01*
X03315Y017323D01*
Y017441D01*
X033307Y017205D02*
X033071D01*
Y017087D01*
X03311Y017047D01*
X033268D01*
X033307Y017087D01*
Y017205D01*
X033071Y016969D02*
Y01689D01*
Y016929D01*
X033307D01*
X033268Y016969D01*
X033307Y016615D02*
Y016772D01*
X033071D01*
Y016615D01*
X033189Y016772D02*
Y016693D01*
X033071Y016536D02*
Y016457D01*
Y016496D01*
X033307D01*
X033268Y016536D01*
X033307Y016339D02*
X033071D01*
Y016221D01*
X03311Y016182D01*
X03315D01*
X033189Y016221D01*
Y016339D01*
Y016221D01*
X033228Y016182D01*
X033268D01*
X033307Y016221D01*
Y016339D01*
X033268Y016103D02*
X033307Y016064D01*
Y015985D01*
X033268Y015945D01*
X03311D01*
X033071Y015985D01*
Y016064D01*
X03311Y016103D01*
X033268D01*
X033071Y015749D02*
X033307D01*
X033189Y015867D01*
Y015709D01*
X033307Y015631D02*
X033071D01*
Y015513D01*
X03311Y015473D01*
X033268D01*
X033307Y015513D01*
Y015631D01*
X033071Y015394D02*
X033307D01*
Y015276D01*
X033268Y015237D01*
X033189D01*
X03315Y015276D01*
Y015394D01*
X033307Y015158D02*
X033268D01*
X033189Y01508D01*
X033268Y015001D01*
X033307D01*
X033189Y01508D02*
X033071D01*
Y014922D02*
X033307D01*
Y014804D01*
X033268Y014765D01*
X033189D01*
X03315Y014804D01*
Y014922D01*
Y014843D02*
X033071Y014765D01*
X035197Y025315D02*
Y025551D01*
X035079Y025433D01*
X035236D01*
X035315Y025551D02*
X035472D01*
Y025512D01*
X035315Y025354D01*
Y025315D01*
X035551Y025472D02*
Y025354D01*
X03559Y025315D01*
X035708D01*
Y025472D01*
X035945Y025551D02*
X035787D01*
Y025433D01*
X035866D01*
X035787D01*
Y025315D01*
X035197Y026417D02*
Y026653D01*
X035079Y026535D01*
X035236D01*
X035315Y026653D02*
X035472D01*
Y026614D01*
X035315Y026457D01*
Y026417D01*
X035551Y026575D02*
Y026457D01*
X03559Y026417D01*
X035708D01*
Y026575D01*
X035945Y026653D02*
X035787D01*
Y026535D01*
X035866D01*
X035787D01*
Y026417D01*
X035482Y029006D02*
Y029163D01*
Y029085D01*
X035719D01*
X035482Y029242D02*
X035719D01*
Y029399D01*
X035482Y029478D02*
X03564D01*
X035719Y029557D01*
X03564Y029636D01*
X035482D01*
Y029872D02*
X035522Y029793D01*
X0356Y029714D01*
X035679D01*
X035719Y029754D01*
Y029832D01*
X035679Y029872D01*
X03564D01*
X0356Y029832D01*
Y029714D01*
X035719Y030108D02*
Y02995D01*
X035561Y030108D01*
X035522D01*
X035482Y030069D01*
Y02999D01*
X035522Y02995D01*
X035482Y030344D02*
Y030187D01*
X0356D01*
X035561Y030265D01*
Y030305D01*
X0356Y030344D01*
X035679D01*
X035719Y030305D01*
Y030226D01*
X035679Y030187D01*
Y030423D02*
X035719Y030462D01*
Y030541D01*
X035679Y03058D01*
X035522D01*
X035482Y030541D01*
Y030462D01*
X035522Y030423D01*
X035561D01*
X0356Y030462D01*
Y03058D01*
X035482Y030816D02*
Y030659D01*
X0356D01*
X035561Y030738D01*
Y030777D01*
X0356Y030816D01*
X035679D01*
X035719Y030777D01*
Y030698D01*
X035679Y030659D01*
X035482Y030895D02*
X035719D01*
Y031013D01*
X035679Y031052D01*
X035522D01*
X035482Y031013D01*
Y030895D01*
X035719Y031131D02*
X035482D01*
X035561Y03121D01*
X035482Y031289D01*
X035719D01*
X035679Y031525D02*
X035522D01*
X035482Y031485D01*
Y031407D01*
X035522Y031367D01*
X035679D01*
X035719Y031407D01*
Y031485D01*
X03564Y031446D02*
X035719Y031525D01*
Y031485D02*
X035679Y031525D01*
X035719Y031603D02*
X035482D01*
Y031722D01*
X035522Y031761D01*
X0356D01*
X03564Y031722D01*
Y031603D01*
Y031682D02*
X035719Y031761D01*
X0355Y030538D02*
X035461Y030577D01*
Y030656D01*
X0355Y030695D01*
X035658D01*
X035697Y030656D01*
Y030577D01*
X035658Y030538D01*
X0355D01*
X035697Y030774D02*
X035658D01*
Y030813D01*
X035697D01*
Y030774D01*
Y031089D02*
X035461D01*
X035579Y030971D01*
Y031128D01*
X035461Y031207D02*
Y031364D01*
X0355D01*
X035658Y031207D01*
X035697D01*
X03554Y031443D02*
X035658D01*
X035697Y031482D01*
Y031601D01*
X03554D01*
X035461Y031679D02*
X035697D01*
X035579D01*
Y031837D01*
X035461D01*
X035697D01*
X035197Y024173D02*
Y024409D01*
X035079Y024291D01*
X035236D01*
X035315Y024409D02*
X035472D01*
Y02437D01*
X035315Y024213D01*
Y024173D01*
X035551Y024331D02*
Y024213D01*
X03559Y024173D01*
X035708D01*
Y024331D01*
X035945Y024409D02*
X035787D01*
Y024291D01*
X035866D01*
X035787D01*
Y024173D01*
X039882Y02D02*
X039803D01*
X039843D01*
Y019764D01*
X039882Y019803D01*
X039685D02*
X039646Y019764D01*
X039567D01*
X039528Y019803D01*
Y019961D01*
X039567Y02D01*
X039646D01*
X039685Y019961D01*
Y019803D01*
X039449D02*
X03941Y019764D01*
X039331D01*
X039292Y019803D01*
Y019961D01*
X039331Y02D01*
X03941D01*
X039449Y019961D01*
Y019803D01*
X039213Y019843D02*
Y019961D01*
X039173Y02D01*
X039055D01*
Y019843D01*
X038819Y019764D02*
X038977D01*
Y019882D01*
X038898D01*
X038977D01*
Y02D01*
X031772Y019449D02*
X03185D01*
X031811D01*
Y019685D01*
X031772Y019646D01*
X031968D02*
X032008Y019685D01*
X032086D01*
X032126Y019646D01*
Y019488D01*
X032086Y019449D01*
X032008D01*
X031968Y019488D01*
Y019646D01*
X032205Y019606D02*
Y019488D01*
X032244Y019449D01*
X032362D01*
Y019606D01*
X032598Y019685D02*
X032441D01*
Y019567D01*
X032519D01*
X032441D01*
Y019449D01*
X031821Y02376D02*
X0319D01*
X03186D01*
Y023996D01*
X031821Y023957D01*
X032018D02*
X032057Y023996D01*
X032136D01*
X032175Y023957D01*
Y023799D01*
X032136Y02376D01*
X032057D01*
X032018Y023799D01*
Y023957D01*
X032254Y023917D02*
Y023799D01*
X032293Y02376D01*
X032411D01*
Y023917D01*
X032647Y023996D02*
X03249D01*
Y023878D01*
X032569D01*
X03249D01*
Y02376D01*
X033089Y01725D02*
X032853D01*
Y017369D01*
X032892Y017408D01*
X03305D01*
X033089Y017369D01*
Y01725D01*
Y017487D02*
X032853D01*
Y017644D01*
X033089Y017723D02*
X032853D01*
X032932Y017801D01*
X032853Y01788D01*
X033089D01*
X032853Y018116D02*
Y017959D01*
X03301Y018116D01*
X03305D01*
X033089Y018077D01*
Y017998D01*
X03305Y017959D01*
X032853Y018195D02*
Y018274D01*
Y018234D01*
X033089D01*
X03305Y018195D01*
Y018549D02*
X033089Y01851D01*
Y018431D01*
X03305Y018392D01*
X03301D01*
X032971Y018431D01*
Y01851D01*
X032932Y018549D01*
X032892D01*
X032853Y01851D01*
Y018431D01*
X032892Y018392D01*
X032853Y018628D02*
X033089D01*
X032853Y018785D01*
X033089D01*
X032892Y018864D02*
X032853Y018903D01*
Y018982D01*
X032892Y019022D01*
X03305D01*
X033089Y018982D01*
Y018903D01*
X03305Y018864D01*
X03301D01*
X032971Y018903D01*
Y019022D01*
X03305Y0191D02*
X033089Y01914D01*
Y019218D01*
X03305Y019258D01*
X032892D01*
X032853Y019218D01*
Y01914D01*
X032892Y0191D01*
X03305D01*
Y019336D02*
X033089Y019376D01*
Y019454D01*
X03305Y019494D01*
X032892D01*
X032853Y019454D01*
Y019376D01*
X032892Y019336D01*
X03305D01*
X033089Y019573D02*
X032853D01*
X032971D01*
Y01973D01*
X033089D01*
X032853D01*
X032892Y019966D02*
X03305D01*
X033089Y019927D01*
Y019848D01*
X03305Y019809D01*
X032892D01*
X032853Y019848D01*
Y019927D01*
X032932Y019887D02*
X032853Y019966D01*
Y019927D02*
X032892Y019966D01*
X032853Y020202D02*
Y020045D01*
X03301Y020202D01*
X03305D01*
X033089Y020163D01*
Y020084D01*
X03305Y020045D01*
X033089Y020281D02*
X032853D01*
Y020438D01*
X040766Y020348D02*
X04053D01*
Y02023D01*
X04057Y020191D01*
X040727D01*
X040766Y02023D01*
Y020348D01*
Y020112D02*
X04053D01*
Y019954D01*
X040766Y019876D02*
X04053D01*
X040609Y019797D01*
X04053Y019718D01*
X040766D01*
X04053Y019482D02*
Y01964D01*
X040688Y019482D01*
X040727D01*
X040766Y019521D01*
Y0196D01*
X040727Y01964D01*
X04053Y019403D02*
Y019325D01*
Y019364D01*
X040766D01*
X040727Y019403D01*
Y019049D02*
X040766Y019089D01*
Y019167D01*
X040727Y019207D01*
X040688D01*
X040648Y019167D01*
Y019089D01*
X040609Y019049D01*
X04057D01*
X04053Y019089D01*
Y019167D01*
X04057Y019207D01*
X04053Y01897D02*
X040766D01*
X04053Y018813D01*
X040766D01*
X04057Y018734D02*
X04053Y018695D01*
Y018616D01*
X04057Y018577D01*
X040727D01*
X040766Y018616D01*
Y018695D01*
X040727Y018734D01*
X040688D01*
X040648Y018695D01*
Y018577D01*
X040727Y018498D02*
X040766Y018459D01*
Y01838D01*
X040727Y018341D01*
X04057D01*
X04053Y01838D01*
Y018459D01*
X04057Y018498D01*
X040727D01*
Y018262D02*
X040766Y018223D01*
Y018144D01*
X040727Y018105D01*
X04057D01*
X04053Y018144D01*
Y018223D01*
X04057Y018262D01*
X040727D01*
X040766Y018026D02*
X04053D01*
X040648D01*
Y017868D01*
X040766D01*
X04053D01*
X04057Y017632D02*
X040727D01*
X040766Y017672D01*
Y01775D01*
X040727Y01779D01*
X04057D01*
X04053Y01775D01*
Y017672D01*
X040609Y017711D02*
X04053Y017632D01*
Y017672D02*
X04057Y017632D01*
X04053Y017396D02*
Y017554D01*
X040688Y017396D01*
X040727D01*
X040766Y017436D01*
Y017514D01*
X040727Y017554D01*
X040766Y017317D02*
X04053D01*
Y01716D01*
X058912Y040359D02*
X058676D01*
X058794Y040241D01*
Y040399D01*
X058676Y040477D02*
Y040635D01*
X058716D01*
X058873Y040477D01*
X058912D01*
X058755Y040714D02*
X058873D01*
X058912Y040753D01*
Y040871D01*
X058755D01*
X058676Y041107D02*
Y04095D01*
X058794D01*
Y041028D01*
Y04095D01*
X058912D01*
X060172Y040359D02*
X059936D01*
X060054Y040241D01*
Y040399D01*
X059936Y040477D02*
Y040635D01*
X059975D01*
X060133Y040477D01*
X060172D01*
X060015Y040714D02*
X060133D01*
X060172Y040753D01*
Y040871D01*
X060015D01*
X059936Y041107D02*
Y04095D01*
X060054D01*
Y041028D01*
Y04095D01*
X060172D01*
X03286Y042375D02*
X033096D01*
Y042493D01*
X033057Y042532D01*
X032899D01*
X03286Y042493D01*
Y042375D01*
Y042611D02*
X033096D01*
Y042768D01*
X03286Y042847D02*
X033096D01*
X033017Y042926D01*
X033096Y043004D01*
X03286D01*
X033096Y043241D02*
Y043083D01*
X032939Y043241D01*
X032899D01*
X03286Y043201D01*
Y043123D01*
X032899Y043083D01*
X033096Y043319D02*
Y043398D01*
Y043359D01*
X03286D01*
X032899Y043319D01*
Y043674D02*
X03286Y043634D01*
Y043555D01*
X032899Y043516D01*
X032939D01*
X032978Y043555D01*
Y043634D01*
X033017Y043674D01*
X033057D01*
X033096Y043634D01*
Y043555D01*
X033057Y043516D01*
X033096Y043752D02*
X03286D01*
X033096Y04391D01*
X03286D01*
X033057Y043988D02*
X033096Y044028D01*
Y044106D01*
X033057Y044146D01*
X032899D01*
X03286Y044106D01*
Y044028D01*
X032899Y043988D01*
X032939D01*
X032978Y044028D01*
Y044146D01*
X032899Y044225D02*
X03286Y044264D01*
Y044343D01*
X032899Y044382D01*
X033057D01*
X033096Y044343D01*
Y044264D01*
X033057Y044225D01*
X032899D01*
Y044461D02*
X03286Y0445D01*
Y044579D01*
X032899Y044618D01*
X033057D01*
X033096Y044579D01*
Y0445D01*
X033057Y044461D01*
X032899D01*
X03286Y044697D02*
X033096D01*
X032978D01*
Y044854D01*
X03286D01*
X033096D01*
X033057Y04509D02*
X032899D01*
X03286Y045051D01*
Y044972D01*
X032899Y044933D01*
X033057D01*
X033096Y044972D01*
Y045051D01*
X033017Y045012D02*
X033096Y04509D01*
Y045051D02*
X033057Y04509D01*
X033096Y045327D02*
Y045169D01*
X032939Y045327D01*
X032899D01*
X03286Y045287D01*
Y045208D01*
X032899Y045169D01*
X03286Y045405D02*
X033096D01*
Y045563D01*
X052461Y047402D02*
Y047244D01*
Y047323D01*
X052697D01*
Y047165D02*
X052461D01*
Y047047D01*
X0525Y047008D01*
X052579D01*
X052618Y047047D01*
Y047165D01*
X052461Y046929D02*
X052697D01*
Y046811D01*
X052657Y046772D01*
X0525D01*
X052461Y046811D01*
Y046929D01*
X052697Y046693D02*
Y046614D01*
Y046654D01*
X052461D01*
X0525Y046693D01*
X052461Y046339D02*
Y046496D01*
X052697D01*
Y046339D01*
X052579Y046496D02*
Y046418D01*
X052697Y04626D02*
Y046182D01*
Y046221D01*
X052461D01*
X0525Y04626D01*
X052461Y046063D02*
X052697D01*
Y045945D01*
X052657Y045906D01*
X052618D01*
X052579Y045945D01*
Y046063D01*
Y045945D01*
X052539Y045906D01*
X0525D01*
X052461Y045945D01*
Y046063D01*
X0525Y045827D02*
X052461Y045788D01*
Y045709D01*
X0525Y04567D01*
X052657D01*
X052697Y045709D01*
Y045788D01*
X052657Y045827D01*
X0525D01*
X052697Y045473D02*
X052461D01*
X052579Y045591D01*
Y045434D01*
X052461Y045355D02*
X052697D01*
Y045237D01*
X052657Y045198D01*
X0525D01*
X052461Y045237D01*
Y045355D01*
X052697Y045119D02*
X052461D01*
Y045001D01*
X0525Y044961D01*
X052579D01*
X052618Y045001D01*
Y045119D01*
X052461Y044883D02*
X0525D01*
X052579Y044804D01*
X0525Y044725D01*
X052461D01*
X052579Y044804D02*
X052697D01*
Y044647D02*
X052461D01*
Y044528D01*
X0525Y044489D01*
X052579D01*
X052618Y044528D01*
Y044647D01*
Y044568D02*
X052697Y044489D01*
X053327Y047402D02*
Y047244D01*
Y047323D01*
X053563D01*
Y047165D02*
X053327D01*
Y047047D01*
X053366Y047008D01*
X053445D01*
X053484Y047047D01*
Y047165D01*
X053327Y046929D02*
X053563D01*
Y046811D01*
X053524Y046772D01*
X053366D01*
X053327Y046811D01*
Y046929D01*
X053563Y046693D02*
Y046614D01*
Y046654D01*
X053327D01*
X053366Y046693D01*
X053327Y046339D02*
Y046496D01*
X053563D01*
Y046339D01*
X053445Y046496D02*
Y046418D01*
X053563Y04626D02*
Y046182D01*
Y046221D01*
X053327D01*
X053366Y04626D01*
X053327Y046063D02*
X053563D01*
Y045945D01*
X053524Y045906D01*
X053484D01*
X053445Y045945D01*
Y046063D01*
Y045945D01*
X053406Y045906D01*
X053366D01*
X053327Y045945D01*
Y046063D01*
X053366Y045827D02*
X053327Y045788D01*
Y045709D01*
X053366Y04567D01*
X053524D01*
X053563Y045709D01*
Y045788D01*
X053524Y045827D01*
X053366D01*
X053563Y045473D02*
X053327D01*
X053445Y045591D01*
Y045434D01*
X053327Y045355D02*
X053563D01*
Y045237D01*
X053524Y045198D01*
X053366D01*
X053327Y045237D01*
Y045355D01*
X053563Y045119D02*
X053327D01*
Y045001D01*
X053366Y044961D01*
X053445D01*
X053484Y045001D01*
Y045119D01*
X053327Y044883D02*
X053366D01*
X053445Y044804D01*
X053366Y044725D01*
X053327D01*
X053445Y044804D02*
X053563D01*
Y044647D02*
X053327D01*
Y044528D01*
X053366Y044489D01*
X053445D01*
X053484Y044528D01*
Y044647D01*
Y044568D02*
X053563Y044489D01*
X052894Y047402D02*
Y047244D01*
Y047323D01*
X05313D01*
Y047165D02*
X052894D01*
Y047047D01*
X052933Y047008D01*
X053012D01*
X053051Y047047D01*
Y047165D01*
X052894Y046929D02*
X05313D01*
Y046811D01*
X053091Y046772D01*
X052933D01*
X052894Y046811D01*
Y046929D01*
X05313Y046693D02*
Y046614D01*
Y046654D01*
X052894D01*
X052933Y046693D01*
X052894Y046339D02*
Y046496D01*
X05313D01*
Y046339D01*
X053012Y046496D02*
Y046418D01*
X05313Y04626D02*
Y046182D01*
Y046221D01*
X052894D01*
X052933Y04626D01*
X052894Y046063D02*
X05313D01*
Y045945D01*
X053091Y045906D01*
X053051D01*
X053012Y045945D01*
Y046063D01*
Y045945D01*
X052972Y045906D01*
X052933D01*
X052894Y045945D01*
Y046063D01*
X052933Y045827D02*
X052894Y045788D01*
Y045709D01*
X052933Y04567D01*
X053091D01*
X05313Y045709D01*
Y045788D01*
X053091Y045827D01*
X052933D01*
X05313Y045473D02*
X052894D01*
X053012Y045591D01*
Y045434D01*
X052894Y045355D02*
X05313D01*
Y045237D01*
X053091Y045198D01*
X052933D01*
X052894Y045237D01*
Y045355D01*
X05313Y045119D02*
X052894D01*
Y045001D01*
X052933Y044961D01*
X053012D01*
X053051Y045001D01*
Y045119D01*
X052894Y044883D02*
X052933D01*
X053012Y044804D01*
X052933Y044725D01*
X052894D01*
X053012Y044804D02*
X05313D01*
Y044647D02*
X052894D01*
Y044528D01*
X052933Y044489D01*
X053012D01*
X053051Y044528D01*
Y044647D01*
Y044568D02*
X05313Y044489D01*
X052028Y047402D02*
Y047244D01*
Y047323D01*
X052264D01*
Y047165D02*
X052028D01*
Y047047D01*
X052067Y047008D01*
X052146D01*
X052185Y047047D01*
Y047165D01*
X052028Y046929D02*
X052264D01*
Y046811D01*
X052224Y046772D01*
X052067D01*
X052028Y046811D01*
Y046929D01*
X052264Y046693D02*
Y046614D01*
Y046654D01*
X052028D01*
X052067Y046693D01*
X052028Y046339D02*
Y046496D01*
X052264D01*
Y046339D01*
X052146Y046496D02*
Y046418D01*
X052264Y04626D02*
Y046182D01*
Y046221D01*
X052028D01*
X052067Y04626D01*
X052028Y046063D02*
X052264D01*
Y045945D01*
X052224Y045906D01*
X052185D01*
X052146Y045945D01*
Y046063D01*
Y045945D01*
X052106Y045906D01*
X052067D01*
X052028Y045945D01*
Y046063D01*
X052067Y045827D02*
X052028Y045788D01*
Y045709D01*
X052067Y04567D01*
X052224D01*
X052264Y045709D01*
Y045788D01*
X052224Y045827D01*
X052067D01*
X052264Y045473D02*
X052028D01*
X052146Y045591D01*
Y045434D01*
X052028Y045355D02*
X052264D01*
Y045237D01*
X052224Y045198D01*
X052067D01*
X052028Y045237D01*
Y045355D01*
X052264Y045119D02*
X052028D01*
Y045001D01*
X052067Y044961D01*
X052146D01*
X052185Y045001D01*
Y045119D01*
X052028Y044883D02*
X052067D01*
X052146Y044804D01*
X052067Y044725D01*
X052028D01*
X052146Y044804D02*
X052264D01*
Y044647D02*
X052028D01*
Y044528D01*
X052067Y044489D01*
X052146D01*
X052185Y044528D01*
Y044647D01*
Y044568D02*
X052264Y044489D01*
X05376Y047402D02*
Y047244D01*
Y047323D01*
X053996D01*
Y047165D02*
X05376D01*
Y047047D01*
X053799Y047008D01*
X053878D01*
X053917Y047047D01*
Y047165D01*
X05376Y046929D02*
X053996D01*
Y046811D01*
X053957Y046772D01*
X053799D01*
X05376Y046811D01*
Y046929D01*
X053996Y046693D02*
Y046614D01*
Y046654D01*
X05376D01*
X053799Y046693D01*
X05376Y046339D02*
Y046496D01*
X053996D01*
Y046339D01*
X053878Y046496D02*
Y046418D01*
X053996Y04626D02*
Y046182D01*
Y046221D01*
X05376D01*
X053799Y04626D01*
X05376Y046063D02*
X053996D01*
Y045945D01*
X053957Y045906D01*
X053917D01*
X053878Y045945D01*
Y046063D01*
Y045945D01*
X053839Y045906D01*
X053799D01*
X05376Y045945D01*
Y046063D01*
X053799Y045827D02*
X05376Y045788D01*
Y045709D01*
X053799Y04567D01*
X053957D01*
X053996Y045709D01*
Y045788D01*
X053957Y045827D01*
X053799D01*
X053996Y045473D02*
X05376D01*
X053878Y045591D01*
Y045434D01*
X05376Y045355D02*
X053996D01*
Y045237D01*
X053957Y045198D01*
X053799D01*
X05376Y045237D01*
Y045355D01*
X053996Y045119D02*
X05376D01*
Y045001D01*
X053799Y044961D01*
X053878D01*
X053917Y045001D01*
Y045119D01*
X05376Y044883D02*
X053799D01*
X053878Y044804D01*
X053799Y044725D01*
X05376D01*
X053878Y044804D02*
X053996D01*
Y044647D02*
X05376D01*
Y044528D01*
X053799Y044489D01*
X053878D01*
X053917Y044528D01*
Y044647D01*
Y044568D02*
X053996Y044489D01*
X046476Y04748D02*
Y047323D01*
Y047402D01*
X046713D01*
Y047244D02*
X046476D01*
Y047126D01*
X046516Y047087D01*
X046595D01*
X046634Y047126D01*
Y047244D01*
X046476Y047008D02*
X046713D01*
Y04689D01*
X046673Y046851D01*
X046516D01*
X046476Y04689D01*
Y047008D01*
X046713Y046772D02*
Y046693D01*
Y046733D01*
X046476D01*
X046516Y046772D01*
X046476Y046418D02*
Y046575D01*
X046713D01*
Y046418D01*
X046595Y046575D02*
Y046496D01*
X046713Y046339D02*
Y04626D01*
Y0463D01*
X046476D01*
X046516Y046339D01*
X046476Y046142D02*
X046713D01*
Y046024D01*
X046673Y045985D01*
X046634D01*
X046595Y046024D01*
Y046142D01*
Y046024D01*
X046555Y045985D01*
X046516D01*
X046476Y046024D01*
Y046142D01*
X046516Y045906D02*
X046476Y045867D01*
Y045788D01*
X046516Y045749D01*
X046673D01*
X046713Y045788D01*
Y045867D01*
X046673Y045906D01*
X046516D01*
X046713Y045552D02*
X046476D01*
X046595Y04567D01*
Y045512D01*
X046476Y045434D02*
X046713D01*
Y045316D01*
X046673Y045276D01*
X046516D01*
X046476Y045316D01*
Y045434D01*
X046713Y045198D02*
X046476D01*
Y04508D01*
X046516Y04504D01*
X046595D01*
X046634Y04508D01*
Y045198D01*
X046476Y044961D02*
X046516D01*
X046595Y044883D01*
X046516Y044804D01*
X046476D01*
X046595Y044883D02*
X046713D01*
Y044725D02*
X046476D01*
Y044607D01*
X046516Y044568D01*
X046595D01*
X046634Y044607D01*
Y044725D01*
Y044647D02*
X046713Y044568D01*
X046043Y04748D02*
Y047323D01*
Y047402D01*
X04628D01*
Y047244D02*
X046043D01*
Y047126D01*
X046083Y047087D01*
X046161D01*
X046201Y047126D01*
Y047244D01*
X046043Y047008D02*
X04628D01*
Y04689D01*
X04624Y046851D01*
X046083D01*
X046043Y04689D01*
Y047008D01*
X04628Y046772D02*
Y046693D01*
Y046733D01*
X046043D01*
X046083Y046772D01*
X046043Y046418D02*
Y046575D01*
X04628D01*
Y046418D01*
X046161Y046575D02*
Y046496D01*
X04628Y046339D02*
Y04626D01*
Y0463D01*
X046043D01*
X046083Y046339D01*
X046043Y046142D02*
X04628D01*
Y046024D01*
X04624Y045985D01*
X046201D01*
X046161Y046024D01*
Y046142D01*
Y046024D01*
X046122Y045985D01*
X046083D01*
X046043Y046024D01*
Y046142D01*
X046083Y045906D02*
X046043Y045867D01*
Y045788D01*
X046083Y045749D01*
X04624D01*
X04628Y045788D01*
Y045867D01*
X04624Y045906D01*
X046083D01*
X04628Y045552D02*
X046043D01*
X046161Y04567D01*
Y045512D01*
X046043Y045434D02*
X04628D01*
Y045316D01*
X04624Y045276D01*
X046083D01*
X046043Y045316D01*
Y045434D01*
X04628Y045198D02*
X046043D01*
Y04508D01*
X046083Y04504D01*
X046161D01*
X046201Y04508D01*
Y045198D01*
X046043Y044961D02*
X046083D01*
X046161Y044883D01*
X046083Y044804D01*
X046043D01*
X046161Y044883D02*
X04628D01*
Y044725D02*
X046043D01*
Y044607D01*
X046083Y044568D01*
X046161D01*
X046201Y044607D01*
Y044725D01*
Y044647D02*
X04628Y044568D01*
X04561Y04748D02*
Y047323D01*
Y047402D01*
X045846D01*
Y047244D02*
X04561D01*
Y047126D01*
X04565Y047087D01*
X045728D01*
X045768Y047126D01*
Y047244D01*
X04561Y047008D02*
X045846D01*
Y04689D01*
X045807Y046851D01*
X04565D01*
X04561Y04689D01*
Y047008D01*
X045846Y046772D02*
Y046693D01*
Y046733D01*
X04561D01*
X04565Y046772D01*
X04561Y046418D02*
Y046575D01*
X045846D01*
Y046418D01*
X045728Y046575D02*
Y046496D01*
X045846Y046339D02*
Y04626D01*
Y0463D01*
X04561D01*
X04565Y046339D01*
X04561Y046142D02*
X045846D01*
Y046024D01*
X045807Y045985D01*
X045768D01*
X045728Y046024D01*
Y046142D01*
Y046024D01*
X045689Y045985D01*
X04565D01*
X04561Y046024D01*
Y046142D01*
X04565Y045906D02*
X04561Y045867D01*
Y045788D01*
X04565Y045749D01*
X045807D01*
X045846Y045788D01*
Y045867D01*
X045807Y045906D01*
X04565D01*
X045846Y045552D02*
X04561D01*
X045728Y04567D01*
Y045512D01*
X04561Y045434D02*
X045846D01*
Y045316D01*
X045807Y045276D01*
X04565D01*
X04561Y045316D01*
Y045434D01*
X045846Y045198D02*
X04561D01*
Y04508D01*
X04565Y04504D01*
X045728D01*
X045768Y04508D01*
Y045198D01*
X04561Y044961D02*
X04565D01*
X045728Y044883D01*
X04565Y044804D01*
X04561D01*
X045728Y044883D02*
X045846D01*
Y044725D02*
X04561D01*
Y044607D01*
X04565Y044568D01*
X045728D01*
X045768Y044607D01*
Y044725D01*
Y044647D02*
X045846Y044568D01*
X045177Y04748D02*
Y047323D01*
Y047402D01*
X045413D01*
Y047244D02*
X045177D01*
Y047126D01*
X045217Y047087D01*
X045295D01*
X045335Y047126D01*
Y047244D01*
X045177Y047008D02*
X045413D01*
Y04689D01*
X045374Y046851D01*
X045217D01*
X045177Y04689D01*
Y047008D01*
X045413Y046772D02*
Y046693D01*
Y046733D01*
X045177D01*
X045217Y046772D01*
X045177Y046418D02*
Y046575D01*
X045413D01*
Y046418D01*
X045295Y046575D02*
Y046496D01*
X045413Y046339D02*
Y04626D01*
Y0463D01*
X045177D01*
X045217Y046339D01*
X045177Y046142D02*
X045413D01*
Y046024D01*
X045374Y045985D01*
X045335D01*
X045295Y046024D01*
Y046142D01*
Y046024D01*
X045256Y045985D01*
X045217D01*
X045177Y046024D01*
Y046142D01*
X045217Y045906D02*
X045177Y045867D01*
Y045788D01*
X045217Y045749D01*
X045374D01*
X045413Y045788D01*
Y045867D01*
X045374Y045906D01*
X045217D01*
X045413Y045552D02*
X045177D01*
X045295Y04567D01*
Y045512D01*
X045177Y045434D02*
X045413D01*
Y045316D01*
X045374Y045276D01*
X045217D01*
X045177Y045316D01*
Y045434D01*
X045413Y045198D02*
X045177D01*
Y04508D01*
X045217Y04504D01*
X045295D01*
X045335Y04508D01*
Y045198D01*
X045177Y044961D02*
X045217D01*
X045295Y044883D01*
X045217Y044804D01*
X045177D01*
X045295Y044883D02*
X045413D01*
Y044725D02*
X045177D01*
Y044607D01*
X045217Y044568D01*
X045295D01*
X045335Y044607D01*
Y044725D01*
Y044647D02*
X045413Y044568D01*
X041122Y047598D02*
Y047441D01*
Y04752D01*
X041358D01*
Y047362D02*
X041122D01*
Y047244D01*
X041161Y047205D01*
X04124D01*
X04128Y047244D01*
Y047362D01*
X041122Y047126D02*
X041358D01*
Y047008D01*
X041319Y046969D01*
X041161D01*
X041122Y047008D01*
Y047126D01*
X041358Y04689D02*
Y046811D01*
Y046851D01*
X041122D01*
X041161Y04689D01*
X041122Y046536D02*
Y046693D01*
X041358D01*
Y046536D01*
X04124Y046693D02*
Y046614D01*
X041358Y046457D02*
Y046378D01*
Y046418D01*
X041122D01*
X041161Y046457D01*
X041122Y04626D02*
X041358D01*
Y046142D01*
X041319Y046103D01*
X04128D01*
X04124Y046142D01*
Y04626D01*
Y046142D01*
X041201Y046103D01*
X041161D01*
X041122Y046142D01*
Y04626D01*
X041161Y046024D02*
X041122Y045985D01*
Y045906D01*
X041161Y045867D01*
X041319D01*
X041358Y045906D01*
Y045985D01*
X041319Y046024D01*
X041161D01*
X041358Y04567D02*
X041122D01*
X04124Y045788D01*
Y045631D01*
X041122Y045552D02*
X041358D01*
Y045434D01*
X041319Y045394D01*
X041161D01*
X041122Y045434D01*
Y045552D01*
X041358Y045316D02*
X041122D01*
Y045198D01*
X041161Y045158D01*
X04124D01*
X04128Y045198D01*
Y045316D01*
X041122Y04508D02*
X041161D01*
X04124Y045001D01*
X041161Y044922D01*
X041122D01*
X04124Y045001D02*
X041358D01*
Y044843D02*
X041122D01*
Y044725D01*
X041161Y044686D01*
X04124D01*
X04128Y044725D01*
Y044843D01*
Y044765D02*
X041358Y044686D01*
X04065Y047598D02*
Y047441D01*
Y04752D01*
X040886D01*
Y047362D02*
X04065D01*
Y047244D01*
X040689Y047205D01*
X040768D01*
X040807Y047244D01*
Y047362D01*
X04065Y047126D02*
X040886D01*
Y047008D01*
X040846Y046969D01*
X040689D01*
X04065Y047008D01*
Y047126D01*
X040886Y04689D02*
Y046811D01*
Y046851D01*
X04065D01*
X040689Y04689D01*
X04065Y046536D02*
Y046693D01*
X040886D01*
Y046536D01*
X040768Y046693D02*
Y046614D01*
X040886Y046457D02*
Y046378D01*
Y046418D01*
X04065D01*
X040689Y046457D01*
X04065Y04626D02*
X040886D01*
Y046142D01*
X040846Y046103D01*
X040807D01*
X040768Y046142D01*
Y04626D01*
Y046142D01*
X040728Y046103D01*
X040689D01*
X04065Y046142D01*
Y04626D01*
X040689Y046024D02*
X04065Y045985D01*
Y045906D01*
X040689Y045867D01*
X040846D01*
X040886Y045906D01*
Y045985D01*
X040846Y046024D01*
X040689D01*
X040886Y04567D02*
X04065D01*
X040768Y045788D01*
Y045631D01*
X04065Y045552D02*
X040886D01*
Y045434D01*
X040846Y045394D01*
X040689D01*
X04065Y045434D01*
Y045552D01*
X040886Y045316D02*
X04065D01*
Y045198D01*
X040689Y045158D01*
X040768D01*
X040807Y045198D01*
Y045316D01*
X04065Y04508D02*
X040689D01*
X040768Y045001D01*
X040689Y044922D01*
X04065D01*
X040768Y045001D02*
X040886D01*
Y044843D02*
X04065D01*
Y044725D01*
X040689Y044686D01*
X040768D01*
X040807Y044725D01*
Y044843D01*
Y044765D02*
X040886Y044686D01*
X033608Y042375D02*
X033844D01*
Y042493D01*
X033805Y042532D01*
X033647D01*
X033608Y042493D01*
Y042375D01*
Y042611D02*
X033844D01*
Y042768D01*
X033608Y042847D02*
X033844D01*
X033765Y042926D01*
X033844Y043004D01*
X033608D01*
X033844Y043241D02*
Y043083D01*
X033687Y043241D01*
X033647D01*
X033608Y043201D01*
Y043123D01*
X033647Y043083D01*
X033844Y043319D02*
Y043398D01*
Y043359D01*
X033608D01*
X033647Y043319D01*
Y043674D02*
X033608Y043634D01*
Y043555D01*
X033647Y043516D01*
X033687D01*
X033726Y043555D01*
Y043634D01*
X033765Y043674D01*
X033805D01*
X033844Y043634D01*
Y043555D01*
X033805Y043516D01*
X033844Y043752D02*
X033608D01*
X033844Y04391D01*
X033608D01*
X033805Y043988D02*
X033844Y044028D01*
Y044106D01*
X033805Y044146D01*
X033647D01*
X033608Y044106D01*
Y044028D01*
X033647Y043988D01*
X033687D01*
X033726Y044028D01*
Y044146D01*
X033647Y044225D02*
X033608Y044264D01*
Y044343D01*
X033647Y044382D01*
X033805D01*
X033844Y044343D01*
Y044264D01*
X033805Y044225D01*
X033647D01*
Y044461D02*
X033608Y0445D01*
Y044579D01*
X033647Y044618D01*
X033805D01*
X033844Y044579D01*
Y0445D01*
X033805Y044461D01*
X033647D01*
X033608Y044697D02*
X033844D01*
X033726D01*
Y044854D01*
X033608D01*
X033844D01*
X033805Y04509D02*
X033647D01*
X033608Y045051D01*
Y044972D01*
X033647Y044933D01*
X033805D01*
X033844Y044972D01*
Y045051D01*
X033765Y045012D02*
X033844Y04509D01*
Y045051D02*
X033805Y04509D01*
X033844Y045327D02*
Y045169D01*
X033687Y045327D01*
X033647D01*
X033608Y045287D01*
Y045208D01*
X033647Y045169D01*
X033608Y045405D02*
X033844D01*
Y045563D01*
X035104Y042375D02*
X03534D01*
Y042493D01*
X035301Y042532D01*
X035143D01*
X035104Y042493D01*
Y042375D01*
Y042611D02*
X03534D01*
Y042768D01*
X035104Y042847D02*
X03534D01*
X035261Y042926D01*
X03534Y043004D01*
X035104D01*
X03534Y043241D02*
Y043083D01*
X035183Y043241D01*
X035143D01*
X035104Y043201D01*
Y043123D01*
X035143Y043083D01*
X03534Y043319D02*
Y043398D01*
Y043359D01*
X035104D01*
X035143Y043319D01*
Y043674D02*
X035104Y043634D01*
Y043555D01*
X035143Y043516D01*
X035183D01*
X035222Y043555D01*
Y043634D01*
X035261Y043674D01*
X035301D01*
X03534Y043634D01*
Y043555D01*
X035301Y043516D01*
X03534Y043752D02*
X035104D01*
X03534Y04391D01*
X035104D01*
X035301Y043988D02*
X03534Y044028D01*
Y044106D01*
X035301Y044146D01*
X035143D01*
X035104Y044106D01*
Y044028D01*
X035143Y043988D01*
X035183D01*
X035222Y044028D01*
Y044146D01*
X035143Y044225D02*
X035104Y044264D01*
Y044343D01*
X035143Y044382D01*
X035301D01*
X03534Y044343D01*
Y044264D01*
X035301Y044225D01*
X035143D01*
Y044461D02*
X035104Y0445D01*
Y044579D01*
X035143Y044618D01*
X035301D01*
X03534Y044579D01*
Y0445D01*
X035301Y044461D01*
X035143D01*
X035104Y044697D02*
X03534D01*
X035222D01*
Y044854D01*
X035104D01*
X03534D01*
X035301Y04509D02*
X035143D01*
X035104Y045051D01*
Y044972D01*
X035143Y044933D01*
X035301D01*
X03534Y044972D01*
Y045051D01*
X035261Y045012D02*
X03534Y04509D01*
Y045051D02*
X035301Y04509D01*
X03534Y045327D02*
Y045169D01*
X035183Y045327D01*
X035143D01*
X035104Y045287D01*
Y045208D01*
X035143Y045169D01*
X035104Y045405D02*
X03534D01*
Y045563D01*
X034356Y042375D02*
X034592D01*
Y042493D01*
X034553Y042532D01*
X034395D01*
X034356Y042493D01*
Y042375D01*
Y042611D02*
X034592D01*
Y042768D01*
X034356Y042847D02*
X034592D01*
X034513Y042926D01*
X034592Y043004D01*
X034356D01*
X034592Y043241D02*
Y043083D01*
X034435Y043241D01*
X034395D01*
X034356Y043201D01*
Y043123D01*
X034395Y043083D01*
X034592Y043319D02*
Y043398D01*
Y043359D01*
X034356D01*
X034395Y043319D01*
Y043674D02*
X034356Y043634D01*
Y043555D01*
X034395Y043516D01*
X034435D01*
X034474Y043555D01*
Y043634D01*
X034513Y043674D01*
X034553D01*
X034592Y043634D01*
Y043555D01*
X034553Y043516D01*
X034592Y043752D02*
X034356D01*
X034592Y04391D01*
X034356D01*
X034553Y043988D02*
X034592Y044028D01*
Y044106D01*
X034553Y044146D01*
X034395D01*
X034356Y044106D01*
Y044028D01*
X034395Y043988D01*
X034435D01*
X034474Y044028D01*
Y044146D01*
X034395Y044225D02*
X034356Y044264D01*
Y044343D01*
X034395Y044382D01*
X034553D01*
X034592Y044343D01*
Y044264D01*
X034553Y044225D01*
X034395D01*
Y044461D02*
X034356Y0445D01*
Y044579D01*
X034395Y044618D01*
X034553D01*
X034592Y044579D01*
Y0445D01*
X034553Y044461D01*
X034395D01*
X034356Y044697D02*
X034592D01*
X034474D01*
Y044854D01*
X034356D01*
X034592D01*
X034553Y04509D02*
X034395D01*
X034356Y045051D01*
Y044972D01*
X034395Y044933D01*
X034553D01*
X034592Y044972D01*
Y045051D01*
X034513Y045012D02*
X034592Y04509D01*
Y045051D02*
X034553Y04509D01*
X034592Y045327D02*
Y045169D01*
X034435Y045327D01*
X034395D01*
X034356Y045287D01*
Y045208D01*
X034395Y045169D01*
X034356Y045405D02*
X034592D01*
Y045563D01*
D21*
X05874Y023287D02*
X059921D01*
X05874D02*
Y024035D01*
X059921D01*
Y023287D02*
Y024035D01*
X060276D02*
X061457D01*
Y023287D02*
Y024035D01*
X060276Y023287D02*
X061457D01*
X060276D02*
Y024035D01*
X049528Y023359D02*
X050709D01*
X049528D02*
Y024107D01*
X050709D01*
Y023359D02*
Y024107D01*
X050984Y024114D02*
X052165D01*
Y023366D02*
Y024114D01*
X050984Y023366D02*
X052165D01*
X050984D02*
Y024114D01*
X035673Y043136D02*
X036855D01*
Y042388D02*
Y043136D01*
X035673Y042388D02*
X036855D01*
X035673D02*
Y043136D01*
M02*
