G04*
G04 #@! TF.GenerationSoftware,Altium Limited,Altium Designer,18.1.6 (161)*
G04*
G04 Layer_Physical_Order=6*
G04 Layer_Color=8388736*
%FSTAX24Y24*%
%MOIN*%
G70*
G01*
G75*
%ADD10C,0.0079*%
%ADD13C,0.0059*%
%ADD71C,0.0048*%
%ADD73C,0.0041*%
%ADD86C,0.0315*%
%ADD87C,0.0157*%
%ADD93C,0.0043*%
D10*
X046947Y028715D02*
X047112Y028881D01*
X047317D01*
X047404Y028967D01*
Y029494D01*
X047763Y029853D02*
X049312D01*
X047404Y029494D02*
X047763Y029853D01*
X049454Y029995D02*
Y03093D01*
X049733Y031209D01*
X049312Y029853D02*
X049454Y029995D01*
X049733Y031209D02*
X051694D01*
X052376Y031891D01*
X047268Y03032D02*
X047602D01*
X04886D01*
X049023Y030484D02*
Y030883D01*
X04886Y03032D02*
X049023Y030484D01*
X04959Y03145D02*
X051359D01*
X049023Y030883D02*
X04959Y03145D01*
X051359D02*
X051965Y032056D01*
Y03223D01*
X052404Y032669D02*
Y032686D01*
X051965Y03223D02*
X052404Y032669D01*
D13*
X043695Y027124D02*
Y027787D01*
Y027124D02*
X044353Y026465D01*
Y026439D02*
Y026465D01*
X043695Y027787D02*
X043997Y028089D01*
X043999Y028513D02*
X044018Y028532D01*
X043997Y028448D02*
X043999Y02845D01*
Y028513D01*
X043997Y028089D02*
Y028448D01*
D71*
X052175Y025407D02*
Y025656D01*
X04382Y027547D02*
X044016Y027744D01*
X04382Y027179D02*
Y027547D01*
X044367Y033205D02*
X044787Y032785D01*
X043585Y033205D02*
X044367D01*
X043072Y033718D02*
X043585Y033205D01*
X052863Y033418D02*
X053291Y03299D01*
Y032397D02*
Y03299D01*
Y032397D02*
X053421Y032267D01*
X052319Y033418D02*
X052863D01*
X052125Y033613D02*
X052319Y033418D01*
X053011Y033596D02*
X053461Y033146D01*
X05244Y033596D02*
X053011D01*
X052188Y033848D02*
X05244Y033596D01*
X053219Y026182D02*
Y026411D01*
X052816Y026814D02*
X053219Y026411D01*
X048028Y026814D02*
X052816D01*
X051269Y02603D02*
X051706Y025594D01*
Y025436D02*
Y025594D01*
Y025436D02*
X051736Y025407D01*
X05208Y025751D02*
X052175Y025656D01*
X051817Y025751D02*
X05208D01*
X051384Y026184D02*
X051817Y025751D01*
X053121Y026083D02*
X053219Y026182D01*
X044016Y027398D02*
Y027547D01*
Y027398D02*
X044132Y027282D01*
X043977Y025623D02*
X044157D01*
X043928Y025672D02*
X043977Y025623D01*
X044157D02*
X044373Y025407D01*
X043526Y026074D02*
X043928Y025672D01*
X042096Y026074D02*
X043526D01*
X043433Y025899D02*
X043933Y025399D01*
X042017Y025899D02*
X043433D01*
X041768Y026147D02*
X042017Y025899D01*
X041005Y029803D02*
X041389D01*
X042373Y030788D01*
X041005Y031535D02*
X041296D01*
X04179Y03203D01*
X042208Y03185D02*
X042275Y031783D01*
Y031135D02*
Y031783D01*
X041381Y030241D02*
X042275Y031135D01*
X042508Y030611D02*
X043716D01*
X041439Y029542D02*
X042508Y030611D01*
X041439Y029081D02*
Y029542D01*
X042373Y030788D02*
X043411D01*
X042049Y029622D02*
X042765D01*
X041768Y029341D02*
X042049Y029622D01*
X041768Y026147D02*
Y029341D01*
X050831Y027383D02*
X052491D01*
X050384Y02783D02*
X050831Y027383D01*
X052782Y032521D02*
X052972Y032332D01*
Y031695D02*
Y032332D01*
X04382Y027179D02*
X044815Y026184D01*
X044132Y027035D02*
Y027282D01*
Y027035D02*
X044823Y026344D01*
X049837Y033553D02*
Y033731D01*
X049939Y033833D01*
X050118D01*
X049837Y033553D02*
X050011Y033379D01*
X050118Y033833D02*
X050292Y03366D01*
X051977Y033848D02*
X052188D01*
X050614D02*
X051416D01*
X051613Y034046D02*
X051779D01*
X051977Y033848D01*
X051416D02*
X051613Y034046D01*
X050292Y03366D02*
X050425D01*
X050614Y033848D01*
X049705Y032939D02*
X050011Y033245D01*
Y033379D01*
X053797Y03241D02*
X0538Y032406D01*
X053599Y03241D02*
X053797D01*
X053461Y032548D02*
X053599Y03241D01*
X053461Y032548D02*
Y033146D01*
X050467Y033336D02*
X050575Y033443D01*
X050696D01*
X050467Y033222D02*
Y033336D01*
X050696Y033443D02*
X05083Y033309D01*
X050467Y033222D02*
X050609Y03308D01*
X053291Y031858D02*
Y032015D01*
X053371Y031778D02*
X053605D01*
X053291Y031858D02*
X053371Y031778D01*
X053291Y032015D02*
X053421Y032144D01*
Y032267D01*
X05083Y033309D02*
X050954D01*
X051257Y033613D01*
X050354Y032709D02*
X050609Y032965D01*
Y03308D01*
X049313Y032709D02*
X049737D01*
X050245D02*
X050354D01*
X050069Y032885D02*
X050245Y032709D01*
X049913Y032885D02*
X050069D01*
X049737Y032709D02*
X049913Y032885D01*
X049682Y0323D02*
X05023D01*
X049517Y032465D02*
X049682Y0323D01*
X049399Y032465D02*
X049517D01*
X049113Y0323D02*
X049234D01*
X049399Y032465D01*
X04932Y032939D02*
X049705D01*
X048485Y032104D02*
X04932Y032939D01*
X053605Y031778D02*
X0538Y031973D01*
X048616Y032013D02*
X049313Y032709D01*
X051257Y033613D02*
X052125D01*
X053231Y031122D02*
X053384D01*
X053523Y031261D01*
X053122Y03123D02*
X053231Y031122D01*
X053523Y031261D02*
Y03141D01*
X053122Y03123D02*
Y032684D01*
X05117Y03324D02*
X052566D01*
X053122Y032684D01*
X053601Y031489D02*
X053749D01*
X053523Y03141D02*
X053601Y031489D01*
X053749D02*
X0538Y03154D01*
X048748Y031936D02*
X049113Y0323D01*
X05023D02*
X05117Y03324D01*
X052618Y032521D02*
X052782D01*
X05255Y032589D02*
Y032779D01*
Y032589D02*
X052618Y032521D01*
X052212Y033117D02*
X05255Y032779D01*
X050306Y03212D02*
X050804Y032618D01*
X051163Y032977D02*
X051302Y033117D01*
X051163Y032741D02*
Y032977D01*
X05104Y032618D02*
X051163Y032741D01*
X050804Y032618D02*
X05104D01*
X049847Y03201D02*
X050006D01*
X050116Y03212D01*
X049737D02*
X049847Y03201D01*
X050116Y03212D02*
X050306D01*
X04947D02*
X049737D01*
X049312Y031962D02*
X04947Y03212D01*
X041305Y03717D02*
X041441Y037034D01*
Y034393D02*
X043512Y032323D01*
X041441Y034393D02*
Y037034D01*
X041005Y03717D02*
X041305D01*
X041005Y036737D02*
X041014Y036728D01*
X041206D01*
X04131Y036625D01*
Y034316D02*
Y036625D01*
Y034316D02*
X043421Y032205D01*
X043512Y032323D02*
X043929D01*
X043421Y032205D02*
X043743D01*
X043865Y032082D01*
X043929Y032323D02*
X044179Y032073D01*
X043983Y032432D02*
X044283Y032133D01*
X04271Y033348D02*
X043626Y032432D01*
X043983D01*
X043396Y033063D02*
X044325D01*
X042917Y033542D02*
Y034656D01*
Y033542D02*
X043396Y033063D01*
X051302Y033117D02*
X052212D01*
X046566Y028537D02*
X046768D01*
X046947Y028715D01*
X046363Y028334D02*
X046566Y028537D01*
X046182Y028334D02*
X046363D01*
X047184Y03032D02*
X047268D01*
X046788Y029924D02*
X047184Y03032D01*
X046788Y029727D02*
Y029924D01*
X046182Y029121D02*
X046788Y029727D01*
X046182Y028931D02*
Y029121D01*
X052286Y028308D02*
X052313Y028335D01*
X05267D01*
X049651Y02783D02*
X050384D01*
X052924Y026083D02*
X053121D01*
X046523Y027252D02*
X04759D01*
X048028Y026814D01*
X046379Y027395D02*
Y028137D01*
Y027395D02*
X046523Y027252D01*
X052905Y026385D02*
X053045Y026245D01*
X051977Y026385D02*
X052905D01*
X047892Y026676D02*
X051685D01*
X051977Y026385D01*
X047459Y027109D02*
X047892Y026676D01*
X045578Y027109D02*
X047459D01*
X045572Y027103D02*
X045578Y027109D01*
X045314Y027103D02*
X045572D01*
X045198Y02722D02*
X045314Y027103D01*
X045198Y02722D02*
Y027744D01*
X052701Y026038D02*
X053035Y025704D01*
Y025407D02*
Y025704D01*
X052049Y026038D02*
X052701D01*
X04485Y026508D02*
X051579D01*
X052049Y026038D01*
X044387Y02697D02*
X04485Y026508D01*
X044387Y027721D02*
X044607Y02794D01*
X044387Y02697D02*
Y027721D01*
X052602Y025407D02*
Y025659D01*
X052381Y025879D02*
X052602Y025659D01*
X051882Y025879D02*
X052381D01*
X051418Y026344D02*
X051882Y025879D01*
X044823Y026344D02*
X051418D01*
X044815Y026184D02*
X051384D01*
X044365Y02603D02*
X051269D01*
X043707Y026689D02*
X044365Y02603D01*
X042048Y026429D02*
Y028083D01*
X042263Y028297D02*
X042583D01*
X042048Y028083D02*
X042263Y028297D01*
X042208Y026509D02*
Y027997D01*
X042348Y028138D02*
X042721D01*
X042208Y027997D02*
X042348Y028138D01*
X042721D02*
X042923Y028339D01*
X042804Y028518D02*
Y029287D01*
X042583Y028297D02*
X042804Y028518D01*
X042923Y028339D02*
Y029186D01*
X046536Y025409D02*
Y025685D01*
Y025409D02*
X046539Y025407D01*
X044178Y025894D02*
X046327D01*
X046536Y025685D01*
X042332Y026385D02*
X043687D01*
X044178Y025894D01*
X042208Y026509D02*
X042332Y026385D01*
X042923Y029186D02*
X043055Y029318D01*
X043229D01*
X045239Y025407D02*
Y025594D01*
X045065Y025768D02*
X045239Y025594D01*
X044127Y025768D02*
X045065D01*
X043681Y026215D02*
X044127Y025768D01*
X042262Y026215D02*
X043681D01*
X042048Y026429D02*
X042262Y026215D01*
X042804Y029287D02*
X043229Y029712D01*
X041916Y026254D02*
X042096Y026074D01*
X041916Y026254D02*
Y028823D01*
X042728Y02943D02*
X043151Y029853D01*
X042523Y02943D02*
X042728D01*
X041916Y028823D02*
X042523Y02943D01*
X043151Y029853D02*
X043286D01*
X043624Y029515D01*
X043627D01*
X042765Y029622D02*
X043102Y029959D01*
X04335D02*
X043396Y029913D01*
X043102Y029959D02*
X04335D01*
X043396Y029913D02*
X043426D01*
X041944Y025724D02*
X04319D01*
X043507Y025407D01*
X041617Y026051D02*
Y02944D01*
Y026051D02*
X041944Y025724D01*
X041617Y02944D02*
X041961Y029785D01*
X042626D01*
X042951Y030109D01*
X043229D01*
X041005Y028942D02*
X0413D01*
X041439Y029081D01*
X044016Y030911D02*
Y031287D01*
X043716Y030611D02*
X044016Y030911D01*
X043666Y031043D02*
Y03203D01*
X043411Y030788D02*
X043666Y031043D01*
X041005Y030241D02*
X041381D01*
X042208Y03185D02*
Y03188D01*
X04179Y03203D02*
X043457D01*
X044001Y031696D02*
X044213Y031484D01*
X044Y031696D02*
X044001D01*
X043865Y031831D02*
X044Y031696D01*
X043865Y031831D02*
Y032082D01*
X044352Y031173D02*
X04441Y031115D01*
X044179Y03174D02*
X044352Y031567D01*
X04441Y03109D02*
Y031115D01*
X044352Y031173D02*
Y031567D01*
X044179Y03174D02*
Y032073D01*
X044576Y031287D02*
X044805D01*
X044469Y031395D02*
Y031653D01*
Y031395D02*
X044576Y031287D01*
X044283Y031838D02*
X044469Y031653D01*
X044283Y031838D02*
Y032133D01*
X04271Y033348D02*
Y034493D01*
X042048Y035155D02*
Y036891D01*
Y035155D02*
X04271Y034493D01*
X041775Y037164D02*
X042048Y036891D01*
X041775Y037164D02*
Y03769D01*
X044613Y031484D02*
Y031696D01*
X044383Y031927D02*
X044613Y031696D01*
X044383Y031927D02*
Y032251D01*
X044535Y032403D02*
Y032674D01*
X044383Y032251D02*
X044535Y032403D01*
X043348Y032905D02*
X044304D01*
X044535Y032674D01*
X042805Y033448D02*
Y034578D01*
Y033448D02*
X043348Y032905D01*
X042208Y035175D02*
Y03769D01*
Y035175D02*
X042805Y034578D01*
X042338Y036731D02*
X042641Y037034D01*
Y03769D01*
X042338Y035235D02*
Y036731D01*
Y035235D02*
X042917Y034656D01*
X044325Y033063D02*
X044647Y032741D01*
Y032207D02*
Y032741D01*
X044515Y032074D02*
X044647Y032207D01*
X044787Y03201D02*
Y032785D01*
X048485Y031891D02*
Y032104D01*
X048616Y031841D02*
Y032013D01*
X044787Y03201D02*
X045003Y031794D01*
X045673D02*
X046722Y030745D01*
X045003Y031794D02*
X045673D01*
X046722Y030745D02*
X04682D01*
X046969Y030893D02*
X048418D01*
X04682Y030745D02*
X046969Y030893D01*
X048418D02*
X048802Y031278D01*
X049076D01*
X049183Y031385D01*
Y03177D01*
X0483Y031525D02*
X048616Y031841D01*
X048391Y031796D02*
X048485Y031891D01*
X047166Y031278D02*
X047685Y031796D01*
X048391D01*
X0483Y031312D02*
Y031525D01*
X048358Y031166D02*
X048748Y031556D01*
Y031936D01*
X048044Y031312D02*
X048191Y031166D01*
X048358D01*
X047788Y031202D02*
Y031332D01*
X047945Y031045D02*
X048392D01*
X047788Y031202D02*
X047945Y031045D01*
X048392D02*
X048758Y031412D01*
X04896D01*
X049042Y031494D02*
Y031867D01*
X04896Y031412D02*
X049042Y031494D01*
Y031867D02*
X049137Y031962D01*
X049312D01*
X050834Y028489D02*
X051016Y028308D01*
X052286D01*
X050834Y028489D02*
Y029021D01*
X050671Y029184D02*
X050834Y029021D01*
X049974Y029407D02*
X050197Y029184D01*
X050671D01*
D73*
X047268Y032884D02*
Y03388D01*
X046895Y032748D02*
X047133D01*
X047268Y032884D01*
Y03388D02*
X047514Y034126D01*
X047945Y033471D02*
X048398Y033925D01*
X047571Y033098D02*
X047695Y033222D01*
X047803Y033471D02*
X047945D01*
X047695Y033363D02*
X047803Y033471D01*
X047695Y033222D02*
Y033363D01*
X047571Y032481D02*
Y033098D01*
X046718Y032431D02*
Y032572D01*
X046895Y032748D01*
X046856Y032431D02*
Y032543D01*
X047404Y032813D02*
Y033364D01*
X047233Y032642D02*
X047404Y032813D01*
X046955Y032642D02*
X047233D01*
X046856Y032543D02*
X046955Y032642D01*
X047522Y035192D02*
X047715Y035384D01*
X046927Y03315D02*
X047108Y03333D01*
X046524Y032968D02*
X046705Y03315D01*
X046927D01*
X046855Y033272D02*
X046929Y033346D01*
X046386Y033026D02*
X046632Y033272D01*
X046855D01*
X046929Y033346D02*
X046929D01*
X04697Y033388D02*
Y033769D01*
X046929Y033346D02*
X04697Y033388D01*
X047887Y034794D02*
X048075Y034605D01*
X048057Y03407D02*
X048159Y034172D01*
X046588Y034978D02*
Y035124D01*
X046791Y034656D02*
X047829D01*
X046857Y035192D02*
X047522D01*
X046854Y035195D02*
X046857Y035192D01*
X046914Y03533D02*
X047465D01*
X046911Y035333D02*
X046914Y03533D01*
X046797Y035333D02*
X046911D01*
X046588Y035124D02*
X046797Y035333D01*
X046726Y035067D02*
X046854Y035195D01*
X046726Y034921D02*
Y035067D01*
X046724Y034918D02*
X046726Y034921D01*
X046586Y034975D02*
X046588Y034978D01*
X046586Y034861D02*
Y034975D01*
Y034861D02*
X046791Y034656D01*
X046724Y034918D02*
X046848Y034794D01*
X047887D01*
X047829Y034656D02*
X048018Y034467D01*
X048021D01*
X048075Y034605D02*
X048078D01*
X048159Y034524D01*
Y034172D02*
Y034524D01*
X048021Y034229D02*
Y034467D01*
X047919Y034127D02*
X048021Y034229D01*
X047919Y034124D02*
Y034127D01*
X048057Y034067D02*
Y03407D01*
X047976Y033986D02*
X048057Y034067D01*
X047574Y033986D02*
X047976D01*
X047571Y033988D02*
X047574Y033986D01*
X047631Y034124D02*
X047919D01*
X047629Y034126D02*
X047631Y034124D01*
X047514Y034126D02*
X047629D01*
X047406Y033823D02*
X047571Y033988D01*
X047406Y033724D02*
Y033823D01*
Y033724D02*
X047519Y033612D01*
X049066Y034685D02*
X049307Y034926D01*
X049202Y034629D02*
X049361Y034788D01*
X047922Y033003D02*
X049066Y034147D01*
Y034685D01*
X049202Y034091D02*
Y034629D01*
X048446Y033335D02*
X049202Y034091D01*
X044738Y036542D02*
Y03662D01*
X04479Y03649D02*
X044887D01*
X044738Y036542D02*
X04479Y03649D01*
X044887D02*
X044939Y036543D01*
Y036618D02*
X045007Y036687D01*
X044939Y036543D02*
Y036618D01*
X044671Y036688D02*
X044738Y03662D01*
X045007Y036687D02*
X045384D01*
X044406Y036688D02*
X044671D01*
X044145Y035875D02*
X044393Y035627D01*
X044281Y035931D02*
Y036562D01*
Y035931D02*
X044449Y035762D01*
X044977D01*
X044393Y035627D02*
X044921D01*
X044145Y035875D02*
Y036618D01*
X044281Y036562D02*
X044406Y036688D01*
X044145Y036618D02*
X04435Y036823D01*
X045845Y033637D02*
X046019Y033811D01*
X045707Y03343D02*
X045882Y033256D01*
X045707Y03343D02*
Y033695D01*
X045845Y033488D02*
X046019Y033314D01*
X045845Y033488D02*
Y033637D01*
X045707Y033695D02*
X045881Y033869D01*
X045882Y033093D02*
Y033256D01*
X046089Y032214D02*
Y032885D01*
X045882Y033093D02*
X046089Y032885D01*
X046019Y03315D02*
X046227Y032942D01*
X046019Y03315D02*
Y033314D01*
X046227Y032276D02*
Y032942D01*
X045882Y033881D02*
Y033989D01*
X046019Y033811D02*
Y034046D01*
X04502Y035371D02*
Y035528D01*
X044759Y035289D02*
X044937D01*
X04502Y035371D01*
X044921Y035627D02*
X04502Y035528D01*
X04435Y036823D02*
X045325D01*
X045399Y036897D01*
X044996Y034328D02*
Y034499D01*
X044771Y034589D02*
X044906D01*
X044996Y034499D01*
X044587Y034828D02*
Y035117D01*
X044588Y034772D02*
X044771Y034589D01*
X044588Y034772D02*
Y034828D01*
X044587Y034828D02*
X044588Y034828D01*
X044587Y035117D02*
X044759Y035289D01*
X044996Y034328D02*
X045209Y034115D01*
X045303Y037181D02*
X045399Y037084D01*
Y036897D02*
Y037084D01*
X045755Y034115D02*
X045882Y033989D01*
X045209Y034115D02*
X045755D01*
X045104Y037181D02*
X045303D01*
X046089Y032214D02*
X046133Y03217D01*
Y032139D02*
Y03217D01*
X044806Y03769D02*
X044954Y037543D01*
Y03733D02*
Y037543D01*
Y03733D02*
X045104Y037181D01*
X044816Y03515D02*
X044991D01*
X045155Y035315D01*
Y035584D01*
X044977Y035762D02*
X045155Y035584D01*
X045384Y036687D02*
X045537Y03684D01*
X044963Y034726D02*
X045133Y034556D01*
Y034385D02*
Y034556D01*
X044828Y034726D02*
X044963D01*
X044725Y034829D02*
Y03506D01*
Y034829D02*
X044828Y034726D01*
X044725Y03506D02*
X044816Y03515D01*
X045133Y034385D02*
X045266Y034252D01*
X045537Y03684D02*
Y037141D01*
X045266Y034252D02*
X045756D01*
X045756Y034252D02*
X045812D01*
X046019Y034046D01*
X045756Y034252D02*
X045756Y034252D01*
X045161Y037319D02*
X04536D01*
X045537Y037141D01*
X046337Y032052D02*
X04634Y03205D01*
X046337Y032052D02*
Y032165D01*
X046227Y032276D02*
X046337Y032165D01*
X045092Y037543D02*
X045239Y03769D01*
X045092Y037387D02*
Y037543D01*
Y037387D02*
X045161Y037319D01*
X045881Y033881D02*
X045882Y033881D01*
X045881Y033869D02*
Y033881D01*
X04582Y036834D02*
Y037543D01*
X04556Y036207D02*
Y036379D01*
X045958Y036777D02*
Y037543D01*
X04556Y036379D02*
X045958Y036777D01*
X045422Y036436D02*
X04582Y036834D01*
X045422Y03615D02*
Y036436D01*
X046098Y03457D02*
X046181Y034653D01*
X046453D02*
X046724Y034383D01*
X046181Y034653D02*
X046453D01*
X045957Y03457D02*
X046098D01*
X045749Y034657D02*
X04587D01*
X045957Y03457D01*
X045663D02*
X045749Y034657D01*
X045537Y03457D02*
X045663D01*
X046386Y032372D02*
Y033026D01*
X046524Y03223D02*
Y032968D01*
X045695Y036073D02*
X046318D01*
X045637Y035935D02*
X046264D01*
X04556Y036207D02*
X045695Y036073D01*
X045422Y03615D02*
X045637Y035935D01*
X046586Y03403D02*
Y034326D01*
X045534Y034432D02*
X046479D01*
X046586Y034326D01*
X046724Y034087D02*
Y034383D01*
X04635Y035514D02*
Y035849D01*
X046326Y035299D02*
X046485Y035458D01*
X045529Y035299D02*
X046326D01*
X045472Y035435D02*
X04627D01*
X04635Y035514D01*
X046485Y035458D02*
Y035905D01*
X046484Y035906D02*
Y035906D01*
X046349Y03585D02*
X04635Y035849D01*
X046318Y036073D02*
X046484Y035906D01*
Y035906D02*
X046485Y035905D01*
X046349Y03585D02*
Y03585D01*
X046264Y035935D02*
X046349Y03585D01*
X045433Y035204D02*
X045529Y035299D01*
X045298Y03526D02*
X045472Y035435D01*
X045433Y034674D02*
Y035204D01*
X045298Y034618D02*
Y03526D01*
Y034618D02*
X045481Y034435D01*
X045531D02*
X045534Y034432D01*
X045433Y034674D02*
X045537Y03457D01*
X045481Y034435D02*
X045531D01*
X045958Y037543D02*
X046106Y03769D01*
X046724Y034087D02*
X04682Y033991D01*
X046943D01*
X047108Y03333D02*
Y033826D01*
X046943Y033991D02*
X047108Y033826D01*
X046524Y03223D02*
X046536Y032218D01*
X045673Y03769D02*
X04582Y037543D01*
X046886Y033853D02*
X04697Y033769D01*
X046763Y033853D02*
X046886D01*
X046586Y03403D02*
X046763Y033853D01*
X046369Y032355D02*
X046386Y032372D01*
X047519Y033479D02*
Y033612D01*
X047404Y033364D02*
X047519Y033479D01*
X047465Y03533D02*
X047577Y035442D01*
X047584Y036303D02*
Y036486D01*
X047446Y036246D02*
Y036543D01*
Y036246D02*
X047661Y036031D01*
X048457D01*
X047719Y036169D02*
X048514D01*
X047584Y036303D02*
X047719Y036169D01*
X047446Y036543D02*
X047638Y036734D01*
X047695Y036596D02*
X048397D01*
X047584Y036486D02*
X047695Y036596D01*
X047638Y036734D02*
X04834D01*
X048533Y033865D02*
Y034813D01*
X048398Y034869D02*
X048625Y035096D01*
X048533Y034813D02*
X04876Y03504D01*
X048398Y033925D02*
Y034869D01*
X046834Y035771D02*
X047473D01*
X046891Y035909D02*
X04753D01*
X046762Y036038D02*
Y037183D01*
X046624Y035981D02*
Y03724D01*
Y035981D02*
X046834Y035771D01*
X046762Y036038D02*
X046891Y035909D01*
X046624Y03724D02*
X046686Y037302D01*
X046762Y037183D02*
X046824Y037245D01*
Y037543D01*
X047577Y035442D02*
Y035668D01*
X047715Y035384D02*
Y035725D01*
X048514Y036169D02*
X04876Y035922D01*
X048457Y036031D02*
X048625Y035863D01*
Y035096D02*
Y035863D01*
X04876Y03504D02*
Y035922D01*
X047709Y033041D02*
X048533Y033865D01*
X047709Y032424D02*
Y033041D01*
X047473Y035771D02*
X047577Y035668D01*
X04753Y035909D02*
X047715Y035725D01*
X046901Y032355D02*
Y032387D01*
X046824Y037543D02*
X046972Y03769D01*
X046856Y032431D02*
X046901Y032387D01*
X046686Y037302D02*
Y037543D01*
X046539Y03769D02*
X046686Y037543D01*
X046674Y032387D02*
X046718Y032431D01*
X046674Y032355D02*
Y032387D01*
X048397Y036596D02*
X048559Y036757D01*
X04834Y036734D02*
X048421Y036815D01*
X047293Y032008D02*
X047709Y032424D01*
X046997Y032008D02*
X047293D01*
X04665Y03134D02*
Y031661D01*
X046997Y032008D01*
X046648Y031272D02*
Y031338D01*
X04665Y03134D01*
X046586Y031101D02*
Y03121D01*
X046648Y031272D01*
X046576Y03109D02*
X046586Y031101D01*
X048704Y037678D02*
Y03769D01*
X048559Y037533D02*
X048704Y037678D01*
X048559Y036757D02*
Y037533D01*
X047236Y032146D02*
X047571Y032481D01*
X04694Y032146D02*
X047236D01*
X046836Y032043D02*
X04694Y032146D01*
X046704Y032043D02*
X046836D01*
X04658Y031919D02*
X046704Y032043D01*
X04658Y031786D02*
Y031919D01*
X046512Y031718D02*
X04658Y031786D01*
X046512Y031397D02*
Y031718D01*
X04651Y031395D02*
X046512Y031397D01*
X046486Y031305D02*
X04651Y031329D01*
Y031395D01*
X046406Y031305D02*
X046486D01*
X046388Y031287D02*
X046406Y031305D01*
X048271Y03769D02*
X048421Y037541D01*
Y036815D02*
Y037541D01*
X049361Y034788D02*
X050069D01*
X050286Y035005D01*
X050148Y035062D02*
Y035775D01*
X050286Y035005D02*
Y035832D01*
X050012Y034926D02*
X050148Y035062D01*
X049307Y034926D02*
X050012D01*
X047255Y031731D02*
X047384D01*
X048058Y032405D01*
X047166Y031642D02*
X047255Y031731D01*
X047922Y032461D02*
Y033003D01*
X048058Y032405D02*
Y032947D01*
X047084Y031867D02*
X047328D01*
X047922Y032461D01*
X049194Y033642D02*
X04947D01*
X049561Y033733D01*
X048865Y033313D02*
X049194Y033642D01*
X049561Y033733D02*
Y034009D01*
X0497Y034148D01*
X052887Y036232D02*
Y037543D01*
X0497Y034148D02*
X050803D01*
X050746Y034286D02*
X052749Y036289D01*
X049643Y034286D02*
X050746D01*
X050803Y034148D02*
X052887Y036232D01*
X052749Y036289D02*
Y037543D01*
X048727Y03337D02*
X049643Y034286D01*
X048865Y032716D02*
Y033313D01*
X04836Y032406D02*
X048727Y032774D01*
Y03337D01*
X048417Y032268D02*
X048865Y032716D01*
X048339Y03295D02*
X048449D01*
X048539Y03304D01*
Y033132D01*
X048446Y033225D02*
X048539Y033132D01*
X048248Y033041D02*
X048339Y03295D01*
X048446Y033225D02*
Y033335D01*
X048151Y033041D02*
X048248D01*
X048058Y032947D02*
X048151Y033041D01*
X049402Y036092D02*
X049582Y035912D01*
X04954Y036149D02*
Y036374D01*
Y036149D02*
X049639Y03605D01*
X04954Y036374D02*
X049654Y036488D01*
X049402Y036092D02*
Y036432D01*
X049597Y036626D01*
X049639Y03605D02*
X050069D01*
X049582Y035912D02*
X050012D01*
X049597Y036626D02*
X04996D01*
X049654Y036488D02*
X050017D01*
X050012Y035912D02*
X050148Y035775D01*
X050069Y03605D02*
X050286Y035832D01*
X050148Y036815D02*
Y037559D01*
X050415Y03769D02*
X050436D01*
X050286Y037561D02*
X050415Y03769D01*
X047166Y031493D02*
Y031642D01*
X050017Y03769D02*
X050148Y037559D01*
X050003Y03769D02*
X050017D01*
X046772Y031555D02*
X047084Y031867D01*
X046772Y031287D02*
Y031555D01*
X050017Y036488D02*
X050286Y036757D01*
Y037561D01*
X04996Y036626D02*
X050148Y036815D01*
X052887Y037543D02*
X053035Y03769D01*
X052602D02*
X052749Y037543D01*
X048299Y032268D02*
X048417D01*
X048219Y03222D02*
X048251D01*
X048299Y032268D01*
X048251Y032454D02*
X048299Y032406D01*
X048219Y032454D02*
X048251D01*
X048299Y032406D02*
X04836D01*
D86*
X041775Y03769D02*
D03*
X042208D02*
D03*
X042641D02*
D03*
X043074D02*
D03*
X043507D02*
D03*
X04394D02*
D03*
X044373D02*
D03*
X044806D02*
D03*
X045239D02*
D03*
X045673D02*
D03*
X046106D02*
D03*
X046539D02*
D03*
X046972D02*
D03*
X048271D02*
D03*
X048704D02*
D03*
X050003D02*
D03*
X050436D02*
D03*
X041005Y02591D02*
D03*
Y026343D02*
D03*
Y026776D02*
D03*
Y027209D02*
D03*
Y027642D02*
D03*
Y028075D02*
D03*
Y028509D02*
D03*
Y028942D02*
D03*
Y029375D02*
D03*
Y029808D02*
D03*
Y030241D02*
D03*
Y030674D02*
D03*
Y031107D02*
D03*
Y03154D02*
D03*
Y031973D02*
D03*
Y032406D02*
D03*
Y032839D02*
D03*
Y033272D02*
D03*
Y033705D02*
D03*
Y034138D02*
D03*
Y034571D02*
D03*
Y035005D02*
D03*
Y035438D02*
D03*
Y035871D02*
D03*
Y036304D02*
D03*
Y036737D02*
D03*
Y03717D02*
D03*
Y02591D02*
D03*
Y026343D02*
D03*
Y026776D02*
D03*
Y027209D02*
D03*
Y027642D02*
D03*
Y028075D02*
D03*
Y028509D02*
D03*
Y028942D02*
D03*
Y029375D02*
D03*
Y029808D02*
D03*
Y030241D02*
D03*
Y030674D02*
D03*
Y031107D02*
D03*
Y03154D02*
D03*
Y031973D02*
D03*
Y032406D02*
D03*
Y032839D02*
D03*
Y033272D02*
D03*
Y033705D02*
D03*
Y034138D02*
D03*
Y034571D02*
D03*
Y035005D02*
D03*
Y035438D02*
D03*
Y035871D02*
D03*
Y036304D02*
D03*
Y036737D02*
D03*
Y03717D02*
D03*
X053035Y03769D02*
D03*
X052602D02*
D03*
X0538Y032406D02*
D03*
Y031973D02*
D03*
Y03154D02*
D03*
X045239Y025407D02*
D03*
X046539D02*
D03*
X051736D02*
D03*
X052169D02*
D03*
X052602D02*
D03*
X053035D02*
D03*
X044373D02*
D03*
X04394D02*
D03*
X043507D02*
D03*
D87*
X043072Y033718D02*
D03*
X052376Y031891D02*
D03*
X052491Y027383D02*
D03*
X05267Y028335D02*
D03*
X052972Y031695D02*
D03*
X052404Y032686D02*
D03*
X046133Y032139D02*
D03*
X04634Y03205D02*
D03*
X045739Y032306D02*
D03*
X045946D02*
D03*
X046536Y032218D02*
D03*
X046369Y032355D02*
D03*
X046901D02*
D03*
X046674D02*
D03*
X046576Y03109D02*
D03*
X046388Y031287D02*
D03*
X045399Y03204D02*
D03*
X045596Y032034D02*
D03*
X047166Y031493D02*
D03*
X046772Y031287D02*
D03*
X049183Y03177D02*
D03*
X047788Y031332D02*
D03*
X044353Y026439D02*
D03*
X052924Y026083D02*
D03*
X053045Y026245D02*
D03*
X042208Y03188D02*
D03*
X043457Y03203D02*
D03*
X043666Y03203D02*
D03*
X044016Y031287D02*
D03*
X043707Y026689D02*
D03*
X045198Y027744D02*
D03*
X049974Y029407D02*
D03*
X044607Y02794D02*
D03*
X046379Y028137D02*
D03*
X047166Y031278D02*
D03*
X0483Y031312D02*
D03*
X048044D02*
D03*
X048219Y032454D02*
D03*
X046182Y028334D02*
D03*
X044016Y027744D02*
D03*
X044016Y027547D02*
D03*
X043229Y029712D02*
D03*
Y029318D02*
D03*
X043426Y029913D02*
D03*
X043229Y030109D02*
D03*
X043627Y029515D02*
D03*
X048219Y03222D02*
D03*
X044515Y032074D02*
D03*
X044213Y031484D02*
D03*
X044613D02*
D03*
X044805Y031287D02*
D03*
X04441Y03109D02*
D03*
X044018Y028532D02*
D03*
X046182Y028931D02*
D03*
X049651Y02783D02*
D03*
D93*
X043192Y034398D02*
Y034556D01*
Y034398D02*
X043241Y03435D01*
X04334D01*
X043389Y034301D01*
Y034155D02*
Y034301D01*
X04334Y034107D02*
X043389Y034155D01*
X043241Y034107D02*
X04334D01*
X043192Y034058D02*
X043241Y034107D01*
X043192Y033971D02*
Y034058D01*
Y033971D02*
X043321Y033842D01*
X043732Y033432D01*
X043192Y034556D02*
Y034963D01*
X044567Y033432D02*
X045545Y032454D01*
Y032115D02*
Y032454D01*
X045081Y033499D02*
X045138Y033557D01*
X045235D02*
X045315Y033477D01*
X045138Y033557D02*
X045235D01*
X045315Y033391D02*
Y033477D01*
X045248Y033324D02*
X045315Y033391D01*
X044989Y033499D02*
X045081D01*
X045248Y03324D02*
Y033324D01*
Y03324D02*
X04539Y033098D01*
X044783Y033705D02*
X044989Y033499D01*
X044178Y033705D02*
X044783D01*
X04354Y036608D02*
X044109Y037177D01*
X043635Y036364D02*
Y036568D01*
X044204Y037138D01*
X04354Y036324D02*
Y036608D01*
Y036324D02*
X043907Y035958D01*
X043635Y036364D02*
X044002Y035997D01*
X043732Y033432D02*
X044567D01*
X043692Y033337D02*
X044528D01*
X043097Y033932D02*
X043692Y033337D01*
X043097Y033932D02*
Y035003D01*
X04545Y032121D02*
Y032414D01*
X044528Y033337D02*
X04545Y032414D01*
X043338Y037523D02*
X043505Y03769D01*
X043074D02*
X043243Y037521D01*
X043097Y035003D02*
X043243Y035149D01*
Y037521D01*
X043338Y035109D02*
Y037523D01*
X043192Y034963D02*
X043338Y035109D01*
X043907Y033842D02*
X044138Y03361D01*
X043907Y033842D02*
Y035958D01*
X044002Y033881D02*
X044178Y033705D01*
X044002Y033881D02*
Y035997D01*
X044204Y037177D02*
X044204Y037177D01*
X044204Y037138D02*
Y037177D01*
X044204Y037177D02*
Y037449D01*
X044109Y037177D02*
Y037521D01*
X044204Y037449D02*
X044204Y037449D01*
X044204Y037449D02*
Y037521D01*
X045351Y033003D02*
X045588D01*
X044743Y03361D02*
X045351Y033003D01*
X04394Y03769D02*
X044109Y037521D01*
X045739Y032306D02*
Y032333D01*
X045795Y032389D01*
Y032796D01*
X044138Y03361D02*
X044743D01*
X045588Y033003D02*
X045795Y032796D01*
X04539Y033098D02*
X045628D01*
X044204Y037521D02*
X044373Y03769D01*
X045946Y032306D02*
Y032333D01*
X04589Y032389D02*
Y032835D01*
Y032389D02*
X045946Y032333D01*
X045628Y033098D02*
X04589Y032835D01*
X045399Y03204D02*
Y032071D01*
X04545Y032121D01*
X045545Y032115D02*
X045596Y032065D01*
Y032034D02*
Y032065D01*
X043505Y03769D02*
X043507D01*
M02*
