G04*
G04 #@! TF.GenerationSoftware,Altium Limited,Altium Designer,18.1.6 (161)*
G04*
G04 Layer_Physical_Order=1*
G04 Layer_Color=255*
%FSTAX24Y24*%
%MOIN*%
G70*
G01*
G75*
%ADD10C,0.0079*%
%ADD12C,0.0039*%
%ADD13C,0.0059*%
%ADD15C,0.0100*%
%ADD16C,0.0106*%
%ADD17C,0.0168*%
G04:AMPARAMS|DCode=18|XSize=23.6mil|YSize=9.8mil|CornerRadius=2mil|HoleSize=0mil|Usage=FLASHONLY|Rotation=180.000|XOffset=0mil|YOffset=0mil|HoleType=Round|Shape=RoundedRectangle|*
%AMROUNDEDRECTD18*
21,1,0.0236,0.0059,0,0,180.0*
21,1,0.0197,0.0098,0,0,180.0*
1,1,0.0039,-0.0098,0.0030*
1,1,0.0039,0.0098,0.0030*
1,1,0.0039,0.0098,-0.0030*
1,1,0.0039,-0.0098,-0.0030*
%
%ADD18ROUNDEDRECTD18*%
G04:AMPARAMS|DCode=19|XSize=9.8mil|YSize=23.6mil|CornerRadius=2mil|HoleSize=0mil|Usage=FLASHONLY|Rotation=180.000|XOffset=0mil|YOffset=0mil|HoleType=Round|Shape=RoundedRectangle|*
%AMROUNDEDRECTD19*
21,1,0.0098,0.0197,0,0,180.0*
21,1,0.0059,0.0236,0,0,180.0*
1,1,0.0039,-0.0030,0.0098*
1,1,0.0039,0.0030,0.0098*
1,1,0.0039,0.0030,-0.0098*
1,1,0.0039,-0.0030,-0.0098*
%
%ADD19ROUNDEDRECTD19*%
%ADD20R,0.0354X0.0512*%
%ADD21R,0.0197X0.0197*%
%ADD22R,0.0315X0.0315*%
%ADD23R,0.0276X0.0256*%
%ADD24R,0.0157X0.0197*%
%ADD25R,0.0394X0.0669*%
%ADD26R,0.0276X0.0118*%
%ADD27R,0.0472X0.0236*%
%ADD28R,0.0433X0.1039*%
G04:AMPARAMS|DCode=29|XSize=22.6mil|YSize=47.2mil|CornerRadius=1.9mil|HoleSize=0mil|Usage=FLASHONLY|Rotation=180.000|XOffset=0mil|YOffset=0mil|HoleType=Round|Shape=RoundedRectangle|*
%AMROUNDEDRECTD29*
21,1,0.0226,0.0434,0,0,180.0*
21,1,0.0188,0.0472,0,0,180.0*
1,1,0.0038,-0.0094,0.0217*
1,1,0.0038,0.0094,0.0217*
1,1,0.0038,0.0094,-0.0217*
1,1,0.0038,-0.0094,-0.0217*
%
%ADD29ROUNDEDRECTD29*%
%ADD30R,0.0118X0.0118*%
%ADD31R,0.0295X0.0276*%
%ADD32R,0.0433X0.0748*%
%ADD33R,0.0256X0.0276*%
%ADD34R,0.0236X0.0197*%
%ADD35R,0.0118X0.0118*%
%ADD36R,0.0197X0.0197*%
%ADD37R,0.0512X0.0354*%
%ADD38R,0.0315X0.0315*%
%ADD39R,0.0197X0.0157*%
%ADD40R,0.0197X0.0236*%
G04:AMPARAMS|DCode=43|XSize=145.7mil|YSize=145.7mil|CornerRadius=2.2mil|HoleSize=0mil|Usage=FLASHONLY|Rotation=180.000|XOffset=0mil|YOffset=0mil|HoleType=Round|Shape=RoundedRectangle|*
%AMROUNDEDRECTD43*
21,1,0.1457,0.1413,0,0,180.0*
21,1,0.1413,0.1457,0,0,180.0*
1,1,0.0044,-0.0707,0.0707*
1,1,0.0044,0.0707,0.0707*
1,1,0.0044,0.0707,-0.0707*
1,1,0.0044,-0.0707,-0.0707*
%
%ADD43ROUNDEDRECTD43*%
%ADD66C,0.0250*%
%ADD67C,0.0046*%
%ADD68C,0.0035*%
%ADD69C,0.0039*%
%ADD70C,0.0046*%
%ADD71C,0.0048*%
%ADD72C,0.0051*%
%ADD73C,0.0041*%
%ADD74C,0.0040*%
%ADD75C,0.0047*%
%ADD76C,0.0118*%
%ADD77C,0.0032*%
%ADD78C,0.0043*%
%ADD79C,0.0043*%
%ADD80C,0.0157*%
%ADD81C,0.0091*%
%ADD82C,0.0039*%
%ADD83C,0.0041*%
%ADD84C,0.0072*%
%ADD85C,0.0045*%
%ADD86C,0.0315*%
%ADD87C,0.0157*%
%ADD88C,0.0236*%
G36*
X052036Y037097D02*
X052036Y036637D01*
X051972Y036574D01*
X051327Y036575D01*
Y036964D01*
X050658Y036963D01*
X050658Y036863D01*
X050658D01*
X050658Y036764D01*
X049911D01*
X049726Y036578D01*
X049145Y036579D01*
Y036798D01*
X04923Y036883D01*
X050265Y036882D01*
Y037097D01*
X050299Y03713D01*
X052003D01*
X052036Y037097D01*
D02*
G37*
G36*
X050048Y036489D02*
X050046D01*
Y036489D01*
X050048Y036489D01*
D02*
G37*
G36*
X053724Y036086D02*
X052717D01*
X052517Y035886D01*
X051794D01*
X051671Y03601D01*
Y03601D01*
X051506Y036174D01*
X050875Y036176D01*
Y036489D01*
X051015D01*
X051061Y036443D01*
X051388D01*
X051742Y036443D01*
X051774Y036475D01*
X052192Y036475D01*
X053072Y037355D01*
X053724D01*
Y036086D01*
D02*
G37*
G36*
X043004Y036396D02*
Y034614D01*
X042649Y034259D01*
X042281D01*
X042265Y034275D01*
Y03448D01*
X042393Y034608D01*
Y035255D01*
X042469D01*
X042465Y035234D01*
X042476Y035178D01*
X042507Y03513D01*
X042555Y035099D01*
X042611Y035088D01*
X042667Y035099D01*
X042714Y03513D01*
X042745Y035178D01*
X042757Y035234D01*
X042745Y035289D01*
X042714Y035337D01*
X042667Y035368D01*
X042611Y03538D01*
X042555Y035368D01*
X042514Y035341D01*
X042489Y035352D01*
X042489Y035352D01*
X042393D01*
Y035965D01*
X042223Y036135D01*
Y036405D01*
X042265Y036447D01*
X042516D01*
X04254Y036442D01*
X042565Y036447D01*
X042953D01*
X043004Y036396D01*
D02*
G37*
G36*
X050046Y036175D02*
X050047Y036174D01*
X049529D01*
X049392Y036037D01*
X048984D01*
X048904Y036117D01*
Y036442D01*
X048951Y036489D01*
X050046D01*
Y036175D01*
D02*
G37*
G36*
X042126Y036447D02*
Y036209D01*
X041966Y036049D01*
X041966Y035917D01*
X041922Y035873D01*
X041789D01*
X041754Y035909D01*
Y036423D01*
X041797Y036466D01*
X042107D01*
X042126Y036447D01*
D02*
G37*
G36*
X043497Y036418D02*
Y036037D01*
X043588Y035947D01*
Y03585D01*
X043546Y035808D01*
X043473D01*
X043086Y036195D01*
Y036437D01*
X043106Y036457D01*
X043459D01*
X043497Y036418D01*
D02*
G37*
G36*
X051521Y035882D02*
X051555Y035847D01*
X051555Y035677D01*
X051501Y035623D01*
X050565D01*
X050524Y035643D01*
Y035862D01*
X050565Y035882D01*
X051521Y035882D01*
D02*
G37*
G36*
X050048Y035882D02*
Y035772D01*
Y035663D01*
Y035615D01*
X049149D01*
X048985Y035779D01*
Y035873D01*
X049059Y035947D01*
X05D01*
X050048Y035882D01*
D02*
G37*
G36*
X041696Y036528D02*
Y035471D01*
X041677Y035453D01*
X041561D01*
X041537Y035478D01*
X041537Y03653D01*
X041576Y03657D01*
X041658D01*
X041696Y036528D01*
D02*
G37*
G36*
X043502Y035708D02*
Y03542D01*
X043535Y035387D01*
X043587Y035335D01*
X043587Y035242D01*
X043554Y035209D01*
X043423D01*
X043102Y03553D01*
Y035806D01*
X043111Y035815D01*
X043123Y035826D01*
X043384D01*
X043502Y035708D01*
D02*
G37*
G36*
X042151Y035789D02*
Y035621D01*
X042125Y035595D01*
X042022D01*
X041963Y035537D01*
Y035433D01*
X041729Y0352D01*
X041625D01*
X041581Y035244D01*
Y035352D01*
X041621Y035392D01*
X041683D01*
X041755Y035464D01*
Y03577D01*
X041799Y035815D01*
X042115D01*
X042151Y035789D01*
D02*
G37*
G36*
X052963Y03547D02*
X052963Y035319D01*
X052933Y035289D01*
X052418D01*
X052261Y035132D01*
X052031D01*
X052004Y035145D01*
Y035434D01*
X052084Y035514D01*
X052919D01*
X052963Y03547D01*
D02*
G37*
G36*
X053724Y03605D02*
Y034846D01*
X053436Y034846D01*
X053229Y035052D01*
Y035474D01*
X052914Y035789D01*
X052826Y035878D01*
X052826Y036003D01*
X052872Y03605D01*
X053724Y03605D01*
D02*
G37*
G36*
X052724Y034769D02*
X051848D01*
Y034974D01*
X052361D01*
X052398Y03501D01*
Y035209D01*
X052723D01*
X052724Y034769D01*
D02*
G37*
G36*
X04833Y035727D02*
Y034823D01*
X048268Y034761D01*
X047806D01*
X047533Y034968D01*
X047092Y034968D01*
Y035432D01*
X047814Y035433D01*
X048118Y035737D01*
X04832D01*
X04833Y035727D01*
D02*
G37*
G36*
X042145Y035155D02*
Y035005D01*
X042231Y034919D01*
Y034594D01*
X042186Y03455D01*
X04195D01*
X041914Y034586D01*
Y035146D01*
X041948Y03518D01*
X042118Y035182D01*
X042145Y035155D01*
D02*
G37*
G36*
X043476Y035122D02*
Y034776D01*
X043535Y034717D01*
Y034605D01*
X043473Y034544D01*
X043269D01*
X043086Y034727D01*
Y035157D01*
X043101Y035172D01*
X043427D01*
X043476Y035122D01*
D02*
G37*
G36*
X051743Y034888D02*
X051743Y034747D01*
X051799Y03469D01*
X052163Y034692D01*
X052182Y034673D01*
Y034348D01*
X052168Y034335D01*
X051947D01*
X051521Y03463D01*
X051467D01*
X051452Y034645D01*
Y034891D01*
X05146Y034902D01*
X051463Y034908D01*
X051476D01*
X051723Y034908D01*
X051743Y034888D01*
D02*
G37*
G36*
X053122Y034892D02*
Y034644D01*
X053106Y034628D01*
X053067D01*
X05262Y034324D01*
X052427D01*
X052398Y034353D01*
Y034681D01*
X052416Y034699D01*
X052794D01*
X052822Y034727D01*
Y034894D01*
X052836Y034908D01*
X053105D01*
X053122Y034892D01*
D02*
G37*
G36*
X048839Y036019D02*
Y035637D01*
X04893Y035546D01*
X049552D01*
X049611Y035487D01*
X05114D01*
X051188Y035534D01*
X051308D01*
X051318Y035524D01*
Y03534D01*
X051228Y035251D01*
X050418D01*
Y03481D01*
X050556Y034673D01*
X051022D01*
X05107Y034625D01*
Y034204D01*
X050967Y034101D01*
X050053D01*
X050026Y034128D01*
Y034411D01*
X050194Y03458D01*
Y035251D01*
X049608D01*
X049518Y035161D01*
X049237D01*
X048967Y034891D01*
X048493D01*
X048475Y034908D01*
Y03605D01*
X048532Y036106D01*
X048752D01*
X048839Y036019D01*
D02*
G37*
G36*
X044112Y035655D02*
Y034143D01*
Y034077D01*
X044098Y034057D01*
X043877D01*
X043829Y034104D01*
X043635Y034298D01*
Y03535D01*
X043564Y035421D01*
Y035706D01*
X043585Y035727D01*
X04404D01*
X044112Y035655D01*
D02*
G37*
G36*
X042166Y034432D02*
Y034265D01*
X042249Y034182D01*
X042567D01*
X042657Y034091D01*
Y033866D01*
X042621Y03383D01*
X042478D01*
X042423Y033884D01*
Y033936D01*
X042311Y034049D01*
X041956Y034049D01*
Y034462D01*
X042136D01*
X042166Y034432D01*
D02*
G37*
G36*
X041845Y034877D02*
Y03457D01*
X041888Y034527D01*
Y034038D01*
X041935Y033991D01*
Y033722D01*
X041914Y033701D01*
X041755D01*
X041727Y03373D01*
Y034877D01*
X041845Y034877D01*
D02*
G37*
G36*
X04332Y034437D02*
Y033809D01*
X043151Y03364D01*
X043033D01*
X042986Y033689D01*
Y034331D01*
X043116Y034462D01*
X043295D01*
X04332Y034437D01*
D02*
G37*
G36*
X047459Y034833D02*
X047919Y034619D01*
X048642D01*
X048668Y034594D01*
Y03357D01*
X048645Y033548D01*
X048232D01*
X048199Y033581D01*
Y034157D01*
X047466Y034583D01*
X047091D01*
X047091Y034833D01*
X047459Y034833D01*
D02*
G37*
G36*
X046877Y033568D02*
Y033518D01*
X046712Y033353D01*
X046568D01*
X046504Y033416D01*
X046504Y033653D01*
X046594Y033743D01*
X046705Y033743D01*
X046877Y033568D01*
D02*
G37*
G36*
X044131Y033646D02*
Y03328D01*
X044124Y033272D01*
X043921Y033272D01*
X043682Y033511D01*
Y03377D01*
X043726Y033813D01*
X043964D01*
X044131Y033646D01*
D02*
G37*
G36*
X049842Y034582D02*
Y033873D01*
X049884Y033831D01*
X051329D01*
X051463Y033965D01*
Y034237D01*
X05311D01*
Y034024D01*
X053095Y034009D01*
X051809D01*
X051694Y033894D01*
Y033585D01*
X051624Y033515D01*
X049863D01*
X050417Y033515D01*
Y033028D01*
X050377Y032989D01*
X049884D01*
X049863Y03301D01*
Y033515D01*
X049581D01*
Y033305D01*
X049426Y03315D01*
X049172D01*
X049059Y033264D01*
Y03441D01*
X049254Y034606D01*
X049818D01*
X049842Y034582D01*
D02*
G37*
G36*
X045299Y033364D02*
Y032879D01*
X04526Y032839D01*
X044801Y032839D01*
X044533Y032572D01*
X04349Y032572D01*
X043444Y032617D01*
Y03334D01*
X043458Y033353D01*
X043586D01*
X043622Y033317D01*
Y032892D01*
X043692Y032822D01*
X044302D01*
X044474Y032994D01*
Y033378D01*
X044514Y033418D01*
X045245D01*
X045299Y033364D01*
D02*
G37*
G36*
X052782Y033857D02*
Y033331D01*
X052724Y033272D01*
X052623D01*
X052575Y033224D01*
Y032833D01*
X052552Y032811D01*
X052446D01*
X052405Y032852D01*
Y033794D01*
X052527Y033915D01*
X052724D01*
X052782Y033857D01*
D02*
G37*
G36*
X042994Y033015D02*
X043071Y032937D01*
X043307D01*
Y032637D01*
X042968D01*
X042679Y032926D01*
Y033134D01*
X042994D01*
Y033015D01*
D02*
G37*
G36*
X053059Y033166D02*
Y032618D01*
X053048Y032607D01*
X052802D01*
X052658Y03275D01*
Y03317D01*
X05269Y033203D01*
X053023D01*
X053059Y033166D01*
D02*
G37*
G36*
X053314Y033813D02*
X053314Y032644D01*
X053266Y032597D01*
X053154D01*
X05314Y032611D01*
Y033223D01*
X053114Y033248D01*
X053017D01*
X052961Y033304D01*
X052961Y033858D01*
X053023Y033919D01*
X053208D01*
X053314Y033813D01*
D02*
G37*
G36*
X052265Y033807D02*
Y032655D01*
X052182Y032572D01*
X051811Y032572D01*
X051774Y03261D01*
Y032935D01*
X051804Y032965D01*
X051922Y032965D01*
X052004Y033048D01*
Y033525D01*
X051943Y033586D01*
X051943Y033843D01*
X051968Y033869D01*
X052203Y033869D01*
X052265Y033807D01*
D02*
G37*
G36*
X048297Y033304D02*
Y032922D01*
X047852Y032478D01*
X047707D01*
X047697Y032489D01*
Y032762D01*
X047725Y03279D01*
X047876D01*
X047972Y032885D01*
Y033357D01*
X047814Y033515D01*
X047113D01*
X047092Y033536D01*
Y033704D01*
X047113Y033724D01*
X047877D01*
X048297Y033304D01*
D02*
G37*
G36*
X047758Y033345D02*
Y032881D01*
X047711Y032833D01*
X047591D01*
X047547Y03279D01*
X047547Y032445D01*
X047325D01*
X047305Y032459D01*
X047265Y032467D01*
X047246Y032464D01*
X046901Y032809D01*
Y033246D01*
X047003Y033348D01*
X047316D01*
X047362Y033394D01*
X047709D01*
X047758Y033345D01*
D02*
G37*
G36*
X049925Y031187D02*
Y031107D01*
X049835Y031017D01*
X049789D01*
X049705Y030932D01*
Y030749D01*
X049755Y030699D01*
X049947D01*
X050026Y030778D01*
Y030877D01*
X050058Y030909D01*
X050172D01*
X050225Y030857D01*
X050225Y030771D01*
X050091Y030637D01*
X049765Y030637D01*
X049564Y030427D01*
X049443D01*
X049385Y030485D01*
X049D01*
X04893Y030555D01*
Y030848D01*
X049019Y030937D01*
X049535D01*
X049699Y031101D01*
Y031177D01*
X049749Y031227D01*
X049885D01*
X049925Y031187D01*
D02*
G37*
G36*
X049563Y026472D02*
Y025852D01*
X049638Y025777D01*
X050225D01*
X05028Y025832D01*
Y026197D01*
X050331Y026248D01*
X051541D01*
X05161Y026317D01*
X052035D01*
X052044Y026308D01*
X052044Y026007D01*
X052181Y02587D01*
X053481D01*
X053675Y025677D01*
X053675Y025527D01*
X053631Y025483D01*
X053328D01*
X053185Y025627D01*
X051965D01*
X047914Y025627D01*
X047858Y025683D01*
Y025789D01*
X047885Y025817D01*
X048146D01*
X048243Y025914D01*
Y026133D01*
X048342Y026232D01*
X048525D01*
X048619Y026138D01*
Y025848D01*
X04869Y025777D01*
X049195D01*
X049255Y025837D01*
Y026477D01*
X049325Y026547D01*
X049488D01*
X049563Y026472D01*
D02*
G37*
D10*
X0448Y030106D02*
X045198D01*
Y029909D02*
Y029916D01*
X045383Y030102D01*
Y030111D01*
X045198Y030106D02*
X045378D01*
X051865Y029565D02*
X052021D01*
X051706D02*
X051865D01*
Y029091D02*
Y029565D01*
X04878Y031056D02*
X048796Y031071D01*
X04878Y031056D02*
X04878Y031056D01*
X05233Y029501D02*
X052575D01*
X052267Y029565D02*
X05233Y029501D01*
X052021Y029565D02*
X052267D01*
X053345Y028335D02*
Y029607D01*
X053202Y028192D02*
X053345Y028335D01*
X052881Y028192D02*
X053202D01*
X053247Y029705D02*
X053345Y029607D01*
X052925Y029705D02*
X053247D01*
X052227Y026469D02*
Y026569D01*
X051854Y026096D02*
X052227Y026469D01*
X046971Y032886D02*
X047064Y032978D01*
X046971Y032753D02*
Y032886D01*
X046938Y03272D02*
X046971Y032753D01*
X047064Y032978D02*
X047068D01*
X043208Y034029D02*
Y034348D01*
X043148Y03397D02*
X043207Y034029D01*
X04382Y029318D02*
X044016D01*
X048886Y034769D02*
X048902Y034784D01*
X049059D02*
X049076Y034801D01*
X048902Y034784D02*
X049059D01*
X049077Y034802D02*
X049306D01*
X049076Y034801D02*
X049077Y034802D01*
X049306D02*
X049308Y034804D01*
Y035013D02*
X049789D01*
X049806Y034995D01*
X044225Y036952D02*
X044443Y03717D01*
X049699D01*
X044225Y036385D02*
Y036952D01*
X049699Y03717D02*
X049838Y037031D01*
X049838D01*
X048036Y036903D02*
X048195D01*
X048316Y036812D02*
X048619Y036509D01*
X048286Y036812D02*
X048316D01*
X048619Y036489D02*
Y036509D01*
X048195Y036903D02*
X048286Y036812D01*
X047549Y036469D02*
X047713Y036634D01*
X04792D02*
X048044Y036509D01*
X047713Y036634D02*
X04792D01*
X048044Y036509D02*
X048205D01*
X048225Y036489D01*
X047549Y036019D02*
Y036469D01*
X047319Y035789D02*
X047549Y036019D01*
X047092Y035789D02*
X047319D01*
X047815Y035956D02*
X048211D01*
X047806Y035947D02*
X047815Y035956D01*
X048211D02*
X04822Y035965D01*
X047603Y035752D02*
X047747Y035896D01*
Y035907D02*
X047786Y035947D01*
X047603Y035706D02*
Y035752D01*
X047747Y035896D02*
Y035907D01*
X047786Y035947D02*
X047806D01*
X047092Y035593D02*
X047444D01*
X047557Y035706D01*
X047603D01*
X048796Y031071D02*
Y03116D01*
X04891Y031275D02*
Y031343D01*
X048796Y03116D02*
X04891Y031275D01*
X049409Y031363D02*
X049501Y031454D01*
X04893Y031363D02*
X049409D01*
X04893Y031056D02*
X049013Y031139D01*
X04893Y031056D02*
X04893Y031056D01*
X049013Y031139D02*
X049501D01*
X04891Y031343D02*
X04893Y031363D01*
X04878Y031056D02*
X04893D01*
X04644Y03693D02*
X046635D01*
X046245D02*
X04644D01*
X046049Y036045D02*
Y036219D01*
X045887Y036381D02*
X046049Y036219D01*
X045887Y036381D02*
Y036537D01*
X045887Y036537D02*
X045887Y036537D01*
X043825Y030106D02*
X044016D01*
X044213Y030303D02*
Y030303D01*
X044016Y030106D02*
X044213Y030303D01*
X043229Y029515D02*
X043229Y029515D01*
X043229Y029318D02*
X043229Y029319D01*
X043625Y029517D02*
X043627Y029515D01*
X043623Y029712D02*
X043625Y02971D01*
Y029517D02*
Y02971D01*
X043426Y029712D02*
X043428Y02971D01*
Y029517D02*
Y02971D01*
Y029517D02*
X04343Y029515D01*
X043426Y028728D02*
X043623D01*
X04382Y029909D02*
X044016D01*
X044213Y029318D02*
X04441D01*
X044213Y029515D02*
X04441D01*
X044213Y029712D02*
X04441Y029515D01*
X044213Y029712D02*
Y029712D01*
X04441D02*
Y029908D01*
X044218Y030692D02*
X04441Y030499D01*
X044016Y030501D02*
Y030696D01*
X044607Y030303D02*
X044804D01*
Y030499D02*
Y030693D01*
X04441Y030696D02*
Y030892D01*
X044607Y030696D02*
Y030893D01*
X04441Y03109D02*
X044607Y031287D01*
X044805Y031286D02*
X044805Y031287D01*
X044804Y03109D02*
X044805Y031091D01*
Y031286D01*
X044213Y031484D02*
X04441D01*
X045001Y030696D02*
Y030884D01*
Y030303D02*
Y030496D01*
X045394Y030696D02*
X045591D01*
X045591Y030696D01*
X045394Y030696D02*
X045394Y030696D01*
X045198Y030696D02*
X045391Y03089D01*
X0452Y031088D02*
X045202Y03109D01*
X045198Y030893D02*
X0452Y030895D01*
Y031088D01*
X044607Y029508D02*
Y029712D01*
X044802Y029713D02*
Y030104D01*
X044804Y029515D02*
Y029711D01*
X044607Y029318D02*
X044608Y029318D01*
X044803D01*
X044804Y029317D01*
Y029122D02*
Y029317D01*
X044607Y028925D02*
Y029122D01*
X04382Y028728D02*
X044016D01*
X044016Y028728D01*
X04382Y028925D02*
X044016D01*
X04382D02*
Y029122D01*
X044016D02*
X044213Y028925D01*
X044018Y028532D02*
X044213Y028728D01*
X044606Y028133D02*
Y028333D01*
X044607Y028334D01*
X044605Y028133D02*
X044606Y028133D01*
X045001Y029122D02*
X045197D01*
X045001Y029318D02*
Y029515D01*
X045394Y029318D02*
X045591D01*
X045198D02*
X045394D01*
X045788D02*
Y029515D01*
Y029712D01*
X045394Y029515D02*
Y029712D01*
Y029909D01*
X045591Y029515D02*
Y029722D01*
Y029909D01*
X045985Y029712D02*
X04599Y029717D01*
Y029904D01*
X045995Y029909D01*
X046182D01*
Y029318D02*
X046379D01*
X045985Y029515D02*
X046182D01*
X045394Y030303D02*
Y030496D01*
X045985Y030303D02*
X046182Y030106D01*
X042229Y033489D02*
Y033845D01*
Y033489D02*
X04225Y033468D01*
X041617Y036486D02*
X041618Y036485D01*
Y036341D02*
X041619Y03634D01*
X041618Y036341D02*
Y036485D01*
X041619Y036115D02*
Y03634D01*
Y035706D02*
Y036115D01*
Y035513D02*
Y035706D01*
X043072Y033739D02*
X043148Y033815D01*
X043207Y034029D02*
X043208D01*
X043148Y033815D02*
Y03397D01*
X043072Y033718D02*
Y033739D01*
X042837Y033195D02*
X042853Y033179D01*
Y032978D02*
Y033179D01*
X042952Y032879D02*
X043307D01*
X042853Y032978D02*
X042952Y032879D01*
X043307Y032696D02*
Y032879D01*
X045246Y033537D02*
X045299D01*
X045519Y033305D02*
Y033316D01*
X045299Y033537D02*
X045519Y033316D01*
X045186Y033596D02*
X045246Y033537D01*
X044776Y033681D02*
Y033701D01*
X044917Y033842D01*
X046659Y033443D02*
X046832Y033615D01*
X046659Y03344D02*
Y033443D01*
X042449Y026666D02*
X042483Y026632D01*
X042324Y026666D02*
X042449D01*
X042483Y026632D02*
X042504D01*
X042265Y026725D02*
X042324Y026666D01*
X042265Y026725D02*
Y026745D01*
X045519Y026418D02*
X046024D01*
X046556Y026024D02*
X046578Y026002D01*
X046457Y026122D02*
X046556Y026024D01*
X04633Y026122D02*
X046457D01*
X046024Y026418D02*
X046034D01*
X04633Y026122D01*
X046578Y026002D02*
X047112D01*
X046556Y026418D02*
X047602D01*
X047619Y026401D01*
X044917Y033842D02*
X045411D01*
X043501Y033767D02*
X043501Y033768D01*
Y034028D02*
X043502Y034029D01*
X043501Y033768D02*
Y034028D01*
X043508Y035886D02*
Y035907D01*
X04343Y036132D02*
Y03634D01*
Y035985D02*
Y036132D01*
Y035985D02*
X043508Y035907D01*
X043187Y036345D02*
X043425D01*
X043182Y036349D02*
X043187Y036345D01*
X043425D02*
X04343Y03634D01*
X043639Y036132D02*
Y03634D01*
X043779Y03643D02*
X043794Y036445D01*
X043639Y03634D02*
X043729Y03643D01*
X043779D01*
X043761Y035882D02*
X043957D01*
X043996Y03592D01*
X045441Y033735D02*
X04558Y033596D01*
X045411Y033842D02*
X045441Y033812D01*
Y033735D02*
Y033812D01*
X045655Y03367D02*
Y034156D01*
X04558Y033596D02*
X045655Y03367D01*
X045558Y035706D02*
X045572D01*
X045655Y035789D02*
Y036045D01*
X045572Y035706D02*
X045655Y035789D01*
X045541Y03693D02*
X045887D01*
X046595Y033084D02*
X046956Y033445D01*
X047055D02*
X047225Y033615D01*
X046956Y033445D02*
X047055D01*
X046595Y032604D02*
Y033084D01*
X047967Y032702D02*
X048297Y033032D01*
X047756Y032702D02*
X047967D01*
X048297Y033032D02*
Y03311D01*
X047756Y032505D02*
Y032702D01*
X047862Y033624D02*
X048297Y033189D01*
X047708Y033639D02*
X047723Y033624D01*
X048297Y03311D02*
Y033189D01*
X047723Y033624D02*
X047862D01*
X047237Y033627D02*
X047696D01*
X047225Y033615D02*
X047237Y033627D01*
X047696D02*
X047708Y033639D01*
X04787Y033837D02*
Y034076D01*
X04787Y034077D01*
X047869Y033837D02*
X04787Y033837D01*
X046773Y033674D02*
X046832Y033615D01*
X046442Y033944D02*
X046712Y033674D01*
X046442Y033944D02*
Y034156D01*
X046712Y033674D02*
X046773D01*
X047267Y033848D02*
X047476Y034057D01*
X046649Y03396D02*
X046761Y033848D01*
X047267D01*
X046639Y034156D02*
X046649Y034146D01*
Y03396D02*
Y034146D01*
X046378Y033134D02*
Y03362D01*
X046245Y033753D02*
X046378Y03362D01*
X046354Y03311D02*
X046378Y033134D01*
X046245Y033753D02*
Y034156D01*
X046051Y033742D02*
X046054Y033739D01*
X046049Y034156D02*
X046051Y034153D01*
Y033742D02*
Y034153D01*
X044844Y035546D02*
X044994Y035396D01*
X045202D01*
X044389Y035546D02*
X044844D01*
X046836Y034156D02*
X04709D01*
X04895Y028925D02*
X049255Y02862D01*
X049501D01*
X04893Y028985D02*
X04895Y028965D01*
Y028925D02*
Y028965D01*
X045198Y029712D02*
Y029909D01*
X0448Y030106D02*
X0448Y030106D01*
X045378D02*
X045383Y030111D01*
X044016Y029909D02*
X044213D01*
Y030106D01*
X044607D02*
X044608Y030105D01*
Y02991D02*
Y030105D01*
Y02991D02*
X044608Y029909D01*
X044802Y029713D02*
X044804Y029711D01*
X0448Y030106D02*
X044802Y030104D01*
X04441Y030106D02*
X044607D01*
X044213D02*
X04441D01*
X044804Y028925D02*
X045001D01*
X045198D01*
X042785Y031686D02*
X04283D01*
X042703Y031768D02*
X042785Y031686D01*
X042703Y031768D02*
X042718D01*
X04283Y031686D02*
X042835Y031681D01*
X042702Y031768D02*
X042703D01*
X042718D02*
X042828Y031877D01*
X042835D01*
X043032D01*
X052226Y027039D02*
Y027469D01*
X052382Y026883D02*
X052678D01*
X052226Y027039D02*
X052382Y026883D01*
X052021Y027675D02*
X052226Y027469D01*
X052223Y026574D02*
Y026707D01*
X05201Y026712D02*
X052014Y026707D01*
Y026574D02*
Y026707D01*
Y026574D02*
X052019Y026569D01*
X052015Y026717D02*
Y027354D01*
X05201Y026712D02*
X052015Y026717D01*
Y027354D02*
X052021Y02736D01*
X052715Y032265D02*
X052716Y032266D01*
X052574Y032264D02*
X052575Y032265D01*
X052715D01*
X052887Y026794D02*
Y026883D01*
X052804Y026712D02*
X052887Y026794D01*
X052218Y026712D02*
X052804D01*
X052887Y026883D02*
Y027095D01*
X052887Y027095D01*
X052887Y026883D02*
X052887Y026883D01*
X053011Y027277D02*
X053095Y027192D01*
X052901Y027277D02*
X053011D01*
X052881Y027296D02*
X052901Y027277D01*
X053095Y026794D02*
Y027192D01*
X052881Y027296D02*
Y02751D01*
Y027744D01*
Y027972D02*
Y028192D01*
X052671Y028193D02*
Y028333D01*
X05267Y028335D02*
X052671Y028333D01*
Y028193D02*
X052672Y028192D01*
X052021Y02862D02*
X0522Y028799D01*
Y029071D01*
X052021Y02925D02*
X0522Y029071D01*
X052718Y029502D02*
X053051D01*
X053052Y029501D01*
X052717Y029503D02*
X052718Y029502D01*
X052575Y029501D02*
X052576Y029502D01*
X052716D01*
X052717Y029503D01*
X051865Y029091D02*
X052021Y028935D01*
Y030509D02*
X052564D01*
X052567Y030513D01*
X052575Y030877D02*
X052576Y030878D01*
X052716D01*
X052717Y030879D01*
X052716Y031508D02*
X052717Y031509D01*
X052575Y031507D02*
X052576Y031508D01*
X052716D01*
X051706Y030824D02*
X052021D01*
X051706D02*
Y031139D01*
X052045Y030824D02*
X052098Y030877D01*
X052021Y030824D02*
X052045D01*
X052098Y030877D02*
X052575D01*
X052045Y031454D02*
X052098Y031507D01*
X052575D01*
X052021Y031454D02*
X052045D01*
X051886Y032264D02*
X052574D01*
X051706Y032084D02*
X051886Y032264D01*
X052972Y031506D02*
Y031695D01*
Y031506D02*
X052973Y031504D01*
Y031111D02*
X052975Y031109D01*
X053798D01*
X0538Y031107D01*
X04893Y028985D02*
X048931Y028986D01*
X049076D01*
X045198Y028728D02*
Y028925D01*
Y028531D02*
Y028728D01*
Y028334D02*
Y028531D01*
Y028137D02*
Y028334D01*
D12*
X044112Y026402D02*
Y026547D01*
X04441Y026844D01*
Y027153D01*
X047341Y025637D02*
X047405Y025574D01*
Y025407D02*
Y025574D01*
X047838Y025407D02*
Y025568D01*
X043533Y026402D02*
X043608Y026327D01*
X041637Y032395D02*
X043931D01*
X041399Y032633D02*
X041637Y032395D01*
X041399Y032633D02*
Y034393D01*
X041572Y03231D02*
X043747D01*
X041311Y032571D02*
X041572Y03231D01*
X041311Y032571D02*
Y034046D01*
X04122Y034571D02*
X041399Y034393D01*
X041474Y03223D02*
X043682D01*
X041219Y032486D02*
X041474Y03223D01*
X041219Y032486D02*
Y033482D01*
X044213Y032113D02*
Y032113D01*
Y031877D02*
Y032113D01*
X041005Y033705D02*
X041219Y033482D01*
X041005Y033705D02*
X041066D01*
X041514Y036654D02*
X042421D01*
X04138Y03652D02*
X041514Y036654D01*
X04138Y035327D02*
Y03652D01*
X042421Y036654D02*
X042487Y036588D01*
X048067Y026901D02*
X048375D01*
X047911Y027058D02*
X048067Y026901D01*
X048375D02*
X048532Y026745D01*
X041343Y029477D02*
X042466Y0306D01*
X04274D01*
X041231Y029523D02*
X042504Y030796D01*
X042741D01*
X041996Y035303D02*
X042489D01*
X04167Y033538D02*
Y034977D01*
X041996Y035303D01*
X042487Y036588D02*
X04254D01*
X04138Y035327D02*
X041581Y035126D01*
X041718Y033489D02*
X041836D01*
X04167Y033538D02*
X041718Y033489D01*
X041668Y03313D02*
X041836D01*
X041581Y033217D02*
X041668Y03313D01*
X042559Y035234D02*
X042611D01*
X042489Y035303D02*
X042559Y035234D01*
X041005Y034571D02*
X04122D01*
X041221Y034136D02*
X041311Y034046D01*
X041005Y034138D02*
X041008Y034136D01*
X041221D01*
X044093Y026402D02*
X044112D01*
X041343Y027787D02*
Y029477D01*
X041231Y028302D02*
Y029523D01*
X052386Y029826D02*
X052408Y029803D01*
X052474D02*
X052574Y029703D01*
X052408Y029803D02*
X052474D01*
X043931Y032395D02*
X044213Y032113D01*
X042393Y032064D02*
X043138D01*
X043229Y031973D01*
X042208Y03188D02*
X042393Y032064D01*
X043682Y03223D02*
X04382Y032093D01*
X043747Y03231D02*
X043917Y03214D01*
X043229Y031877D02*
Y031973D01*
X041581Y033217D02*
Y035126D01*
X04382Y031877D02*
Y032093D01*
X041005Y028075D02*
X041231Y028302D01*
X041221Y027666D02*
X041343Y027787D01*
X041005Y027642D02*
X041029Y027666D01*
X041221D01*
X043608Y026327D02*
X043729D01*
X043824Y026232D01*
X045224Y025859D02*
X045445Y025637D01*
X047341D01*
X047673Y025733D02*
X047838Y025568D01*
X045272Y025956D02*
X045495Y025733D01*
X047673D01*
X044532Y025859D02*
X045224D01*
X044558Y025956D02*
X045272D01*
X044159Y026232D02*
X044532Y025859D01*
X043824Y026232D02*
X044159D01*
X044112Y026402D02*
X044558Y025956D01*
X04441Y027744D02*
X044607Y027547D01*
X04441Y027744D02*
X04441D01*
X045544Y027004D02*
X045608D01*
X045394Y027153D02*
X045544Y027004D01*
X045608D02*
X045631Y026981D01*
X043032Y028531D02*
X043229D01*
X043426Y028334D01*
X042571Y028774D02*
X042707Y02891D01*
X04254Y028774D02*
X042571D01*
X042707Y02919D02*
X042835Y029318D01*
X042707Y02891D02*
Y02919D01*
X046182Y028728D02*
Y028931D01*
X047625Y031484D02*
X047788Y031647D01*
X04756Y031484D02*
X047625D01*
D13*
X045198Y030106D02*
Y030303D01*
X042038Y032991D02*
Y033622D01*
X041836Y032789D02*
X042038Y032991D01*
X050419Y026096D02*
X051854D01*
X048177Y025697D02*
X048417Y025936D01*
X047988Y025697D02*
X048177D01*
X047815Y02587D02*
X047988Y025697D01*
X048417Y025964D02*
Y026094D01*
Y025964D02*
X048674Y025707D01*
X048417Y025936D02*
Y026094D01*
X050425Y025825D02*
Y02609D01*
X050307Y025707D02*
X050425Y025825D01*
X049565Y025707D02*
X050307D01*
X04941Y025862D02*
X049565Y025707D01*
X049408Y02586D02*
Y026465D01*
X049255Y025707D02*
X049408Y02586D01*
X048674Y025707D02*
X049255D01*
X049128Y026745D02*
X049408Y026465D01*
X049098Y026745D02*
X049128D01*
X049127Y029397D02*
X049274Y02925D01*
X04893Y029397D02*
X049127D01*
X049274Y02925D02*
X049501D01*
X047547Y032702D02*
Y03311D01*
X044016Y029318D02*
Y029318D01*
Y029318D02*
X044213Y029122D01*
X046379Y028729D02*
X046379Y028729D01*
X046575D01*
X046576Y028729D01*
X046379Y028728D02*
X046379Y028729D01*
X045983Y028531D02*
X045985D01*
X04579Y028724D02*
X045983Y028531D01*
X045788Y028724D02*
X04579D01*
X045788D02*
Y028925D01*
X051241Y036318D02*
Y036737D01*
X051154Y036823D02*
X051241Y036737D01*
X050875Y036823D02*
X051154D01*
X044606Y028729D02*
X044607D01*
X04441Y028925D02*
X044411D01*
X044606Y028729D01*
X047815Y02587D02*
Y02614D01*
X047745Y02621D02*
X047815Y02614D01*
X048532Y026745D02*
X049098D01*
X044804Y028137D02*
X045001D01*
Y028334D01*
X044805Y028728D02*
X045001D01*
X045001Y029712D02*
X045198Y029515D01*
X045001Y029909D02*
X045001Y029909D01*
Y029712D02*
Y029909D01*
X045198Y030303D02*
Y030499D01*
X045788D02*
X045985D01*
X045591D02*
X045788D01*
X045985Y030303D02*
X045985Y030303D01*
Y030499D01*
X045985Y030303D02*
X046182D01*
X046379Y029914D02*
Y030106D01*
X046182Y030499D02*
X046182Y030499D01*
X046182Y030499D02*
Y030696D01*
X046182Y030696D02*
X046182Y030696D01*
X049099Y030678D02*
X049668D01*
X048942Y030836D02*
X049099Y030678D01*
X049501Y030511D02*
X049668Y030677D01*
X049501Y030509D02*
Y030511D01*
X049668Y030677D02*
Y030678D01*
X049038Y029785D02*
X049416Y029406D01*
X048948Y029785D02*
X049038D01*
X04893Y029802D02*
X048948Y029785D01*
X049416Y029406D02*
X049657D01*
X04893Y029397D02*
Y029594D01*
X049501Y029563D02*
Y029565D01*
X048931Y03007D02*
Y030346D01*
Y03007D02*
X048931Y03007D01*
X04893Y030346D02*
X048931Y030346D01*
X04976Y03217D02*
Y032686D01*
Y03217D02*
X049816Y032114D01*
Y032084D02*
Y032114D01*
X041836Y032769D02*
Y032789D01*
Y033825D02*
X042038Y033622D01*
X041836Y033825D02*
Y033845D01*
X041825Y026791D02*
X041884Y026732D01*
Y026573D02*
X042153Y026304D01*
X041884Y026573D02*
Y026732D01*
X042153Y025929D02*
X042434Y025648D01*
X042153Y025929D02*
Y026304D01*
X043111Y026008D02*
X043131D01*
X042434Y025648D02*
X043353D01*
X043533Y025828D01*
X047112Y026002D02*
X04732Y02621D01*
X047745D01*
X041837Y028682D02*
X041845Y028674D01*
X041837Y028682D02*
Y029048D01*
X042049Y029281D02*
X042126D01*
X041837Y029048D02*
Y029068D01*
X042049Y029281D01*
X042126D02*
X042145Y029299D01*
X043533Y026008D02*
X044093D01*
X043533Y025828D02*
Y026008D01*
X041871Y02736D02*
Y02738D01*
X041825Y026791D02*
Y027313D01*
X041871Y02736D01*
X044576Y026177D02*
X045142D01*
X045151Y026169D01*
X044404Y026414D02*
X044474D01*
X04438Y026439D02*
X044404Y026414D01*
X044474D02*
X044503Y026385D01*
X044353Y026439D02*
X04438D01*
X04579Y028132D02*
X045792Y02813D01*
X045788Y028334D02*
X04579Y028332D01*
Y028132D02*
Y028332D01*
X045394Y028137D02*
X045591D01*
X045394D02*
Y028334D01*
X046182Y028531D02*
X046379D01*
X045988Y029119D02*
X046179D01*
X046182Y029122D01*
X045985Y029116D02*
X045988Y029119D01*
X045985Y029116D02*
Y029318D01*
Y028925D02*
Y029116D01*
X045394Y028925D02*
X045591Y028728D01*
X045394Y028925D02*
Y029122D01*
X04756Y031877D02*
X047624Y031942D01*
X047788D01*
X04756Y031681D02*
Y031877D01*
X050419Y026096D02*
X050425Y02609D01*
X044607Y028531D02*
Y028532D01*
X04441Y028729D02*
X044607Y028532D01*
X04441Y028729D02*
Y028729D01*
X044858Y032273D02*
Y032604D01*
X044942Y032067D02*
Y032188D01*
X044858Y032273D02*
X044942Y032188D01*
X045458Y036862D02*
X045472D01*
X045326Y036729D02*
X045458Y036862D01*
X045472D02*
X045541Y03693D01*
X045326Y036443D02*
Y036729D01*
Y036443D02*
X045655Y036114D01*
Y036045D02*
Y036114D01*
X047547Y03311D02*
X047547Y03311D01*
Y032505D02*
Y032684D01*
X047073Y03311D02*
X047547D01*
X050192Y033237D02*
X050204Y033225D01*
X049789Y033703D02*
X0508D01*
X050204Y033225D02*
X050235Y033195D01*
X050204Y033225D02*
Y033681D01*
X049602Y03389D02*
X049789Y033703D01*
X049602Y03389D02*
Y034077D01*
X051239Y033356D02*
Y033841D01*
X051232Y033348D02*
X051239Y033356D01*
Y033841D02*
X051246Y033848D01*
X051551Y033724D02*
Y034193D01*
Y033714D02*
Y033724D01*
X051452Y033822D02*
X051551Y033724D01*
X051246Y033848D02*
X051272Y033822D01*
X051452D01*
X051551Y034193D02*
X051595Y034237D01*
X051679Y034154D02*
X052889D01*
X051595Y034237D02*
X051679Y034154D01*
X052889D02*
X052973Y034237D01*
X051586D02*
X051595D01*
X049945Y033237D02*
X050192D01*
X049945Y033049D02*
Y033237D01*
X049748Y032698D02*
Y033037D01*
X049737Y033049D02*
X049748Y033037D01*
Y032698D02*
X04976Y032686D01*
X049737Y033237D02*
Y033391D01*
Y033049D02*
Y033237D01*
X0517Y032855D02*
Y033385D01*
X051614Y032769D02*
X0517Y032855D01*
X051441Y032769D02*
X051614D01*
X0517Y033385D02*
X051706Y033391D01*
X051384Y032825D02*
X051441Y032769D01*
X051232Y033103D02*
X051384Y032951D01*
Y032825D02*
Y032951D01*
X051733Y033391D02*
X051754Y03337D01*
X051848D02*
X051877Y03334D01*
X051754Y03337D02*
X051848D01*
X051706Y033391D02*
X051733D01*
X051877Y033095D02*
Y03334D01*
X049552Y032164D02*
Y032686D01*
X049501Y032114D02*
X049552Y032164D01*
X049501Y032084D02*
Y032114D01*
X04954Y032698D02*
Y033047D01*
Y032698D02*
X049552Y032686D01*
X049528Y033059D02*
X04954Y033047D01*
X04966Y02751D02*
Y027513D01*
X049501Y027672D02*
Y027675D01*
Y027672D02*
X04966Y027513D01*
X049501Y02736D02*
X049502D01*
X049656Y027206D02*
X049657D01*
X049502Y02736D02*
X049656Y027206D01*
X049346Y027515D02*
X049501Y02736D01*
X049346Y02815D02*
X049501Y028305D01*
X049346Y027515D02*
Y02815D01*
X04893Y029194D02*
Y029397D01*
X049657Y029091D02*
Y029406D01*
X049501Y028935D02*
X049657Y029091D01*
X049501Y029563D02*
X049657Y029407D01*
Y029406D02*
Y029407D01*
X049816Y029565D02*
X049816D01*
X049657Y029406D02*
X049816Y029565D01*
X049657Y029406D02*
X049657D01*
X04893Y030346D02*
X049349D01*
X049501Y030195D01*
X049816Y030509D01*
X04893Y030555D02*
X049426D01*
X049472Y030509D02*
X049501D01*
X049426Y030555D02*
X049472Y030509D01*
X0495Y030836D02*
X049512Y030824D01*
X049501D02*
X049512D01*
X049668Y030678D02*
X049674Y030684D01*
Y030997D02*
X049816Y031139D01*
X049674Y030684D02*
Y030997D01*
X048942Y030836D02*
X0495D01*
X048857Y032076D02*
X0489D01*
X048767Y031987D02*
X048857Y032076D01*
X048767Y031842D02*
Y031987D01*
Y031842D02*
X048896Y031712D01*
X0489Y032076D02*
X04893Y032106D01*
X048896Y031712D02*
Y031712D01*
X042844Y026982D02*
Y027144D01*
Y026982D02*
X042853Y026973D01*
X042835Y027153D02*
X042844Y027144D01*
X042835Y027153D02*
X043032D01*
X042835D02*
Y02735D01*
X046379Y028729D02*
Y028925D01*
X044016Y030303D02*
X044213Y030499D01*
X04441Y030298D02*
Y030298D01*
Y030293D02*
Y030298D01*
X044213Y030495D02*
Y030499D01*
Y030495D02*
X04441Y030298D01*
X044607Y030495D02*
Y030499D01*
X04441Y030298D02*
X044607Y030495D01*
D15*
X045852Y03315D02*
Y034156D01*
Y03315D02*
X045892Y03311D01*
X045096Y034411D02*
X045202D01*
X044866Y034182D02*
X045096Y034411D01*
X044864Y034182D02*
X044866D01*
X044389Y034156D02*
X044402Y034168D01*
X044579D02*
X045017Y034606D01*
X045113D02*
X045115Y034607D01*
X045201D02*
X045202Y034608D01*
X044402Y034168D02*
X044579D01*
X045017Y034606D02*
X045113D01*
X045115Y034607D02*
X045201D01*
X044389Y034503D02*
X044608D01*
X04491Y034805D01*
X045202D01*
X044389Y034851D02*
X044648D01*
X044799Y035002D02*
X045202D01*
X044648Y034851D02*
X044799Y035002D01*
X045202Y035199D02*
X045202Y035199D01*
X04439Y035199D02*
X045202D01*
X044389Y035198D02*
X04439Y035199D01*
D16*
X046969Y027744D02*
D03*
X046772Y02794D02*
D03*
X044213Y03109D02*
D03*
X044016D02*
D03*
X04382Y031484D02*
D03*
X044213Y031681D02*
D03*
X04382D02*
D03*
X043623D02*
D03*
X044213Y031877D02*
D03*
X044016D02*
D03*
X04382D02*
D03*
X043623D02*
D03*
X043426Y028728D02*
D03*
X044213Y030893D02*
D03*
X042835Y02794D02*
D03*
X045394Y027744D02*
D03*
X043426Y028925D02*
D03*
X047363Y02735D02*
D03*
X047166Y027153D02*
D03*
X04382Y028137D02*
D03*
X045591Y02794D02*
D03*
X043623D02*
D03*
X044607Y02735D02*
D03*
X04441D02*
D03*
X044016Y031681D02*
D03*
X045591Y031484D02*
D03*
X045788Y031877D02*
D03*
X045985Y031484D02*
D03*
X045788Y031287D02*
D03*
X043229Y028728D02*
D03*
X047363Y027744D02*
D03*
X043623Y027153D02*
D03*
X043426D02*
D03*
X043623Y02735D02*
D03*
Y027547D02*
D03*
X043426Y027744D02*
D03*
X04441D02*
D03*
X043426Y02735D02*
D03*
X043229Y031877D02*
D03*
X04382Y031287D02*
D03*
X043623Y031484D02*
D03*
X043426Y031877D02*
D03*
Y031681D02*
D03*
X043229D02*
D03*
X046772D02*
D03*
X046969Y031877D02*
D03*
X042835D02*
D03*
X043032D02*
D03*
X04441D02*
D03*
X044607D02*
D03*
X044804D02*
D03*
X045001D02*
D03*
X045198D02*
D03*
X045394D02*
D03*
X045591D02*
D03*
X045985D02*
D03*
X046182D02*
D03*
X046379D02*
D03*
X046576D02*
D03*
X046772D02*
D03*
X047166D02*
D03*
X047363D02*
D03*
X04756D02*
D03*
X042835Y031681D02*
D03*
X043032D02*
D03*
X04441D02*
D03*
X044607D02*
D03*
X044804D02*
D03*
X045001D02*
D03*
X045198D02*
D03*
X045394D02*
D03*
X045591D02*
D03*
X045788D02*
D03*
X045985D02*
D03*
X046182D02*
D03*
X046379D02*
D03*
X046576D02*
D03*
X046969D02*
D03*
X047166D02*
D03*
X047363D02*
D03*
X04756D02*
D03*
X042835Y031484D02*
D03*
X043032D02*
D03*
X04441D02*
D03*
X044804D02*
D03*
X045198D02*
D03*
X046576D02*
D03*
X046772D02*
D03*
X047363D02*
D03*
X04756D02*
D03*
X042835Y031287D02*
D03*
X043032D02*
D03*
X043426D02*
D03*
X04441D02*
D03*
X044607D02*
D03*
X045001D02*
D03*
X045394D02*
D03*
X045985D02*
D03*
X046576D02*
D03*
X046969D02*
D03*
X047363D02*
D03*
X04756D02*
D03*
X042835Y03109D02*
D03*
X043032D02*
D03*
X043229D02*
D03*
X043623D02*
D03*
X044804D02*
D03*
X045001D02*
D03*
X045394D02*
D03*
X045591D02*
D03*
X046182D02*
D03*
X046379D02*
D03*
X046772D02*
D03*
X047166D02*
D03*
X047363D02*
D03*
X04756D02*
D03*
X042835Y030893D02*
D03*
X043032D02*
D03*
X043229D02*
D03*
X043426D02*
D03*
X04382D02*
D03*
X044804D02*
D03*
X045198D02*
D03*
X045591D02*
D03*
X046182D02*
D03*
X046576D02*
D03*
X046969D02*
D03*
X047166D02*
D03*
X047363D02*
D03*
X04756D02*
D03*
X042835Y030696D02*
D03*
X043032D02*
D03*
X043623D02*
D03*
X044016D02*
D03*
X04441D02*
D03*
X044607D02*
D03*
X045001D02*
D03*
X045198D02*
D03*
X045394D02*
D03*
X045788D02*
D03*
X045985D02*
D03*
X046379D02*
D03*
X046772D02*
D03*
X047363D02*
D03*
X04756D02*
D03*
X042835Y030499D02*
D03*
X043032D02*
D03*
X043623D02*
D03*
X04382D02*
D03*
X044213D02*
D03*
X04441D02*
D03*
X044607D02*
D03*
X044804D02*
D03*
X045198D02*
D03*
X045591D02*
D03*
X045788D02*
D03*
X045985D02*
D03*
X046182D02*
D03*
X046576D02*
D03*
X046772D02*
D03*
X047363D02*
D03*
X04756D02*
D03*
X042835Y030303D02*
D03*
X043032D02*
D03*
X043229D02*
D03*
X043426D02*
D03*
X044016D02*
D03*
X044213D02*
D03*
X044804D02*
D03*
X045001D02*
D03*
X045394D02*
D03*
X045591D02*
D03*
X046182D02*
D03*
X046379D02*
D03*
X046969D02*
D03*
X047166D02*
D03*
X047363D02*
D03*
X04756D02*
D03*
X042835Y030106D02*
D03*
X043032D02*
D03*
X043426D02*
D03*
X044016D02*
D03*
X044213D02*
D03*
X04441D02*
D03*
X044607D02*
D03*
X045001D02*
D03*
X045198D02*
D03*
X045788D02*
D03*
X045985D02*
D03*
X046182D02*
D03*
X046379D02*
D03*
X046969D02*
D03*
X047363D02*
D03*
X04756D02*
D03*
X042835Y029909D02*
D03*
X043032D02*
D03*
X043229D02*
D03*
X043623D02*
D03*
X04382D02*
D03*
X044213D02*
D03*
X044804D02*
D03*
X045001D02*
D03*
X045198D02*
D03*
X045394D02*
D03*
X045591D02*
D03*
X046182D02*
D03*
X046576D02*
D03*
X046772D02*
D03*
X047166D02*
D03*
X047363D02*
D03*
X04756D02*
D03*
X042835Y029712D02*
D03*
X043032D02*
D03*
X043426D02*
D03*
X043623D02*
D03*
X044016D02*
D03*
X044213D02*
D03*
X04441D02*
D03*
X044607D02*
D03*
X045198D02*
D03*
X045788D02*
D03*
X045985D02*
D03*
X046379D02*
D03*
X046772D02*
D03*
X046969D02*
D03*
X047363D02*
D03*
X04756D02*
D03*
X042835Y029515D02*
D03*
X043032D02*
D03*
X043229D02*
D03*
X04382D02*
D03*
X044213D02*
D03*
X044804D02*
D03*
X045001D02*
D03*
X045198D02*
D03*
X045394D02*
D03*
X045591D02*
D03*
X046182D02*
D03*
X046576D02*
D03*
X047166D02*
D03*
X047363D02*
D03*
X04756D02*
D03*
X042835Y029318D02*
D03*
X043032D02*
D03*
X043426D02*
D03*
X043623D02*
D03*
X044016D02*
D03*
X044213D02*
D03*
X04441D02*
D03*
X044607D02*
D03*
X045198D02*
D03*
X045394D02*
D03*
X045788D02*
D03*
X045985D02*
D03*
X046182D02*
D03*
X046379D02*
D03*
X046772D02*
D03*
X046969D02*
D03*
X047363D02*
D03*
X04756D02*
D03*
X042835Y029122D02*
D03*
X043032D02*
D03*
X043229D02*
D03*
X043623D02*
D03*
X04382D02*
D03*
X044213D02*
D03*
X044804D02*
D03*
X045001D02*
D03*
X045394D02*
D03*
X045591D02*
D03*
X046182D02*
D03*
X046576D02*
D03*
X046772D02*
D03*
X047363D02*
D03*
X04756D02*
D03*
X042835Y028925D02*
D03*
X043032D02*
D03*
X044016D02*
D03*
X044213D02*
D03*
X04441D02*
D03*
X044607D02*
D03*
X044804D02*
D03*
X045198D02*
D03*
X045788D02*
D03*
X045985D02*
D03*
X046379D02*
D03*
X046969D02*
D03*
X047166D02*
D03*
X047363D02*
D03*
X04756D02*
D03*
X042835Y028728D02*
D03*
X043032D02*
D03*
X044016D02*
D03*
X044213D02*
D03*
X045001D02*
D03*
X045198D02*
D03*
X045394D02*
D03*
X045591D02*
D03*
X046182D02*
D03*
X046379D02*
D03*
X046969D02*
D03*
X047166D02*
D03*
X047363D02*
D03*
X04756D02*
D03*
X042835Y028531D02*
D03*
X043032D02*
D03*
X043623D02*
D03*
X04382D02*
D03*
X044213D02*
D03*
X04441D02*
D03*
X044607D02*
D03*
X044804D02*
D03*
X045198D02*
D03*
X045591D02*
D03*
X045788D02*
D03*
X045985D02*
D03*
X046182D02*
D03*
X046576D02*
D03*
X046772D02*
D03*
X047363D02*
D03*
X04756D02*
D03*
X042835Y028334D02*
D03*
X043032D02*
D03*
X043623D02*
D03*
X044016D02*
D03*
X04441D02*
D03*
X044607D02*
D03*
X045001D02*
D03*
X045198D02*
D03*
X045394D02*
D03*
X045788D02*
D03*
X045985D02*
D03*
X046379D02*
D03*
X046772D02*
D03*
X047363D02*
D03*
X04756D02*
D03*
X042835Y028137D02*
D03*
X043032D02*
D03*
X043229D02*
D03*
X043426D02*
D03*
X044213D02*
D03*
X044804D02*
D03*
X045198D02*
D03*
X045591D02*
D03*
X046182D02*
D03*
X046576D02*
D03*
X046969D02*
D03*
X047166D02*
D03*
X047363D02*
D03*
X04756D02*
D03*
X043032Y02794D02*
D03*
X043229D02*
D03*
X044016D02*
D03*
X044213D02*
D03*
X044804D02*
D03*
X045001D02*
D03*
X045394D02*
D03*
X046182D02*
D03*
X046379D02*
D03*
X047166D02*
D03*
X047363D02*
D03*
X04756D02*
D03*
X042835Y027744D02*
D03*
X043032D02*
D03*
X04382D02*
D03*
X044607D02*
D03*
X045001D02*
D03*
X045788D02*
D03*
X045985D02*
D03*
X046576D02*
D03*
X04756D02*
D03*
X042835Y027547D02*
D03*
X043032D02*
D03*
X04382D02*
D03*
X04441D02*
D03*
X044804D02*
D03*
X045198D02*
D03*
X045591D02*
D03*
X045985D02*
D03*
X046576D02*
D03*
X046772D02*
D03*
X047363D02*
D03*
X04756D02*
D03*
X042835Y02735D02*
D03*
X043032D02*
D03*
X043229D02*
D03*
X04382D02*
D03*
X044016D02*
D03*
X044213D02*
D03*
X044804D02*
D03*
X045001D02*
D03*
X045198D02*
D03*
X045394D02*
D03*
X045591D02*
D03*
X045788D02*
D03*
X045985D02*
D03*
X046182D02*
D03*
X046379D02*
D03*
X046576D02*
D03*
X046772D02*
D03*
X046969D02*
D03*
X047166D02*
D03*
X04756D02*
D03*
X042835Y027153D02*
D03*
X043032D02*
D03*
X043229D02*
D03*
X04382D02*
D03*
X044016D02*
D03*
X044213D02*
D03*
X04441D02*
D03*
X044607D02*
D03*
X044804D02*
D03*
X045001D02*
D03*
X045198D02*
D03*
X045394D02*
D03*
X045591D02*
D03*
X045788D02*
D03*
X045985D02*
D03*
X046182D02*
D03*
X046379D02*
D03*
X046576D02*
D03*
X046772D02*
D03*
X046969D02*
D03*
X047363D02*
D03*
X04756D02*
D03*
D17*
X049501Y032084D02*
D03*
X049816D02*
D03*
X050131D02*
D03*
X051391D02*
D03*
X051706D02*
D03*
X052021D02*
D03*
X049501Y031769D02*
D03*
X049816D02*
D03*
X050131D02*
D03*
X051391D02*
D03*
X051706D02*
D03*
X052021D02*
D03*
X049501Y031454D02*
D03*
X049816D02*
D03*
X050131D02*
D03*
X051391D02*
D03*
X051706D02*
D03*
X052021D02*
D03*
X049501Y031139D02*
D03*
X049816D02*
D03*
X050131D02*
D03*
X051391D02*
D03*
X051706D02*
D03*
X052021D02*
D03*
X049501Y030824D02*
D03*
X049816D02*
D03*
X050131D02*
D03*
X051391D02*
D03*
X051706D02*
D03*
X052021D02*
D03*
X049501Y030509D02*
D03*
X049816D02*
D03*
X050131D02*
D03*
X051391D02*
D03*
X051706D02*
D03*
X052021D02*
D03*
X049501Y030195D02*
D03*
X049816D02*
D03*
X050131D02*
D03*
X051391D02*
D03*
X051706D02*
D03*
X052021D02*
D03*
X049501Y02988D02*
D03*
X049816D02*
D03*
X050131D02*
D03*
X051391D02*
D03*
X051706D02*
D03*
X052021D02*
D03*
X049501Y029565D02*
D03*
X049816D02*
D03*
X050131D02*
D03*
X051391D02*
D03*
X051706D02*
D03*
X052021D02*
D03*
X049501Y02925D02*
D03*
X049816D02*
D03*
X050131D02*
D03*
X051391D02*
D03*
X051706D02*
D03*
X052021D02*
D03*
X049501Y028935D02*
D03*
X049816D02*
D03*
X050131D02*
D03*
X051391D02*
D03*
X051706D02*
D03*
X052021D02*
D03*
X049501Y02862D02*
D03*
X049816D02*
D03*
X050131D02*
D03*
X051391D02*
D03*
X051706D02*
D03*
X052021D02*
D03*
X049501Y028305D02*
D03*
X049816D02*
D03*
X050131D02*
D03*
X051391D02*
D03*
X051706D02*
D03*
X052021D02*
D03*
X049501Y02799D02*
D03*
X049816D02*
D03*
X050131D02*
D03*
X051391D02*
D03*
X051706D02*
D03*
X052021D02*
D03*
X049501Y027675D02*
D03*
X049816D02*
D03*
X050131D02*
D03*
X051391D02*
D03*
X051706D02*
D03*
X052021D02*
D03*
X049501Y02736D02*
D03*
X049816D02*
D03*
X050131D02*
D03*
X051391D02*
D03*
X051706D02*
D03*
X052021D02*
D03*
D18*
X045202Y035593D02*
D03*
X047092Y034411D02*
D03*
Y034608D02*
D03*
Y034805D02*
D03*
Y035002D02*
D03*
Y035199D02*
D03*
Y035396D02*
D03*
Y035593D02*
D03*
Y035789D02*
D03*
X045202D02*
D03*
Y035396D02*
D03*
Y035199D02*
D03*
Y035002D02*
D03*
Y034805D02*
D03*
Y034608D02*
D03*
Y034411D02*
D03*
D19*
X046836Y036045D02*
D03*
X046639D02*
D03*
X046442D02*
D03*
X046245D02*
D03*
X046049D02*
D03*
X045852D02*
D03*
X045655D02*
D03*
X045458D02*
D03*
Y034156D02*
D03*
X045655D02*
D03*
X045852D02*
D03*
X046049D02*
D03*
X046245D02*
D03*
X046442D02*
D03*
X046639D02*
D03*
X046836D02*
D03*
D20*
X043955Y03316D02*
D03*
X044703D02*
D03*
X047549Y03311D02*
D03*
X048297D02*
D03*
D21*
X050419Y026489D02*
D03*
Y026096D02*
D03*
X045541Y036537D02*
D03*
Y03693D02*
D03*
X045887Y036537D02*
D03*
Y03693D02*
D03*
X051424Y036278D02*
D03*
Y036672D02*
D03*
X049642Y036782D02*
D03*
Y036389D02*
D03*
X045519Y026418D02*
D03*
Y026024D02*
D03*
X047112Y026002D02*
D03*
Y026396D02*
D03*
X048417Y026094D02*
D03*
Y026487D02*
D03*
D22*
X042837Y033195D02*
D03*
X043427D02*
D03*
X053154Y033438D02*
D03*
X052563D02*
D03*
X050825Y033195D02*
D03*
X050235D02*
D03*
D23*
X051595Y034237D02*
D03*
Y034769D02*
D03*
X052973Y034237D02*
D03*
Y034769D02*
D03*
D24*
X042357Y034363D02*
D03*
X042042D02*
D03*
X043187Y034029D02*
D03*
X043502D02*
D03*
X042042Y035066D02*
D03*
X042357D02*
D03*
X043182Y036349D02*
D03*
X042867D02*
D03*
X043182Y035706D02*
D03*
X042867D02*
D03*
X042042D02*
D03*
X042357D02*
D03*
X042042Y036349D02*
D03*
X042357D02*
D03*
X043181Y035066D02*
D03*
X042866D02*
D03*
D25*
X050462Y036528D02*
D03*
D26*
X050048Y036233D02*
D03*
Y036429D02*
D03*
Y036626D02*
D03*
Y036823D02*
D03*
X050875D02*
D03*
Y036626D02*
D03*
Y036429D02*
D03*
Y036233D02*
D03*
D27*
X049806Y035743D02*
D03*
Y035369D02*
D03*
Y034995D02*
D03*
X05079D02*
D03*
Y035743D02*
D03*
D28*
X048437Y034077D02*
D03*
X049602D02*
D03*
D29*
X045892Y03311D02*
D03*
X045173D02*
D03*
X047073D02*
D03*
X046354D02*
D03*
D30*
X04226Y031444D02*
D03*
X042051D02*
D03*
X04976Y032686D02*
D03*
X049552D02*
D03*
X041994Y034629D02*
D03*
X041786D02*
D03*
X04343Y036132D02*
D03*
X043639D02*
D03*
X04343Y035466D02*
D03*
X043639D02*
D03*
X041828Y035706D02*
D03*
X041619D02*
D03*
X041828Y03634D02*
D03*
X041619D02*
D03*
X043403Y034851D02*
D03*
X043612D02*
D03*
X049945Y033237D02*
D03*
X049737D02*
D03*
X052678Y026883D02*
D03*
X052887D02*
D03*
X052719Y03289D02*
D03*
X05251D02*
D03*
X052218Y026712D02*
D03*
X05201D02*
D03*
X053206Y032678D02*
D03*
X052997D02*
D03*
X053202Y03289D02*
D03*
X052993D02*
D03*
X041994Y034818D02*
D03*
X041786D02*
D03*
X043639Y03634D02*
D03*
X04343D02*
D03*
Y035663D02*
D03*
X043639D02*
D03*
X041619Y035513D02*
D03*
X041828D02*
D03*
X041619Y036115D02*
D03*
X041828D02*
D03*
X043612Y035064D02*
D03*
X043403D02*
D03*
X041994Y034107D02*
D03*
X041786D02*
D03*
X049945Y033049D02*
D03*
X049737D02*
D03*
X047547Y032702D02*
D03*
X047756D02*
D03*
X047547Y032505D02*
D03*
X047756D02*
D03*
X043516Y032879D02*
D03*
X043307D02*
D03*
X043516Y032696D02*
D03*
X043307D02*
D03*
X052086Y033095D02*
D03*
X051877D02*
D03*
X052086Y03334D02*
D03*
X051877D02*
D03*
X052672Y027296D02*
D03*
X052881D02*
D03*
X052887Y027095D02*
D03*
X052678D02*
D03*
X048145Y029411D02*
D03*
X048353D02*
D03*
X05251Y03311D02*
D03*
X052719D02*
D03*
X052993D02*
D03*
X053202D02*
D03*
X052672Y027744D02*
D03*
X052881D02*
D03*
X052672Y028192D02*
D03*
X052881D02*
D03*
Y02751D02*
D03*
X052672D02*
D03*
X052881Y027972D02*
D03*
X052672D02*
D03*
X052782Y029703D02*
D03*
X052574D02*
D03*
X042014Y028347D02*
D03*
X042223D02*
D03*
X041966Y027738D02*
D03*
X042175D02*
D03*
X042182Y027064D02*
D03*
X041973D02*
D03*
X051441Y033348D02*
D03*
X051232D02*
D03*
Y033103D02*
D03*
X051441D02*
D03*
X04226Y030756D02*
D03*
X042051D02*
D03*
D31*
X046556Y026024D02*
D03*
X046024D02*
D03*
Y026418D02*
D03*
X046556D02*
D03*
D32*
X049907Y026224D02*
D03*
X048923D02*
D03*
D33*
X052082Y033714D02*
D03*
X051551D02*
D03*
X051598Y035289D02*
D03*
X052129D02*
D03*
D34*
X043131Y026402D02*
D03*
Y026008D02*
D03*
X052973Y031111D02*
D03*
Y031504D02*
D03*
X046245Y036537D02*
D03*
Y03693D02*
D03*
X046635D02*
D03*
Y036537D02*
D03*
X044784Y026558D02*
D03*
Y026164D02*
D03*
X045151Y026562D02*
D03*
Y026169D02*
D03*
X044093Y026402D02*
D03*
Y026008D02*
D03*
X043564Y026402D02*
D03*
Y026008D02*
D03*
X042777D02*
D03*
Y026402D02*
D03*
D35*
X04893Y029594D02*
D03*
Y029802D02*
D03*
Y030848D02*
D03*
Y031056D02*
D03*
Y031571D02*
D03*
Y031363D02*
D03*
Y030555D02*
D03*
Y030346D02*
D03*
X052652Y035145D02*
D03*
Y035353D02*
D03*
X052107Y034838D02*
D03*
Y034629D02*
D03*
X052656Y034838D02*
D03*
Y034629D02*
D03*
X053052Y029292D02*
D03*
Y029501D02*
D03*
X04893Y031897D02*
D03*
Y032106D02*
D03*
X052574Y032264D02*
D03*
Y032055D02*
D03*
X052575Y031716D02*
D03*
Y031507D02*
D03*
Y030877D02*
D03*
Y031086D02*
D03*
X05279Y029922D02*
D03*
Y03013D02*
D03*
X052575D02*
D03*
Y029922D02*
D03*
Y029292D02*
D03*
Y029501D02*
D03*
X04893Y029194D02*
D03*
Y028985D02*
D03*
X049308Y035677D02*
D03*
Y035468D02*
D03*
X051246Y035684D02*
D03*
Y035476D02*
D03*
X052457Y035145D02*
D03*
Y035353D02*
D03*
X05191Y034838D02*
D03*
Y034629D02*
D03*
X052462Y034838D02*
D03*
Y034629D02*
D03*
X049392Y03643D02*
D03*
Y036638D02*
D03*
X049204Y036638D02*
D03*
Y036429D02*
D03*
X047135Y03657D02*
D03*
Y036778D02*
D03*
X047338D02*
D03*
Y03657D02*
D03*
X04691Y036778D02*
D03*
Y03657D02*
D03*
X046054Y033739D02*
D03*
Y033531D02*
D03*
X049308Y034804D02*
D03*
Y035013D02*
D03*
X049076Y034801D02*
D03*
Y035009D02*
D03*
X044503Y026385D02*
D03*
Y026594D02*
D03*
X043824Y026232D02*
D03*
Y026441D02*
D03*
D36*
X043208Y034348D02*
D03*
X043602D02*
D03*
X04822Y035001D02*
D03*
X048614D02*
D03*
X04822Y035319D02*
D03*
X048614D02*
D03*
X04558Y033596D02*
D03*
X045186D02*
D03*
X046832Y033615D02*
D03*
X047225D02*
D03*
X048219Y03564D02*
D03*
X048613D02*
D03*
X044389Y035198D02*
D03*
X043996D02*
D03*
X04822Y035965D02*
D03*
X048614D02*
D03*
X044389Y034503D02*
D03*
X043996D02*
D03*
X044389Y035546D02*
D03*
X043996D02*
D03*
X044389Y034851D02*
D03*
X043996D02*
D03*
X044389Y034156D02*
D03*
X043996D02*
D03*
D37*
X0508Y034451D02*
D03*
Y033703D02*
D03*
D38*
X050204Y033681D02*
D03*
Y034272D02*
D03*
X051876Y036279D02*
D03*
Y036869D02*
D03*
D39*
X047806Y036262D02*
D03*
Y035947D02*
D03*
D40*
X053052Y029016D02*
D03*
X052658D02*
D03*
Y028647D02*
D03*
X053052D02*
D03*
X052961Y030513D02*
D03*
X052567D02*
D03*
X052663Y026455D02*
D03*
X053057D02*
D03*
X044389Y03592D02*
D03*
X043996D02*
D03*
X047476Y034077D02*
D03*
X04787D02*
D03*
X044382Y033681D02*
D03*
X044776D02*
D03*
X048619Y036489D02*
D03*
X048225D02*
D03*
X044225Y036734D02*
D03*
X044619D02*
D03*
X048227Y036891D02*
D03*
X048621D02*
D03*
X044225Y036385D02*
D03*
X044619D02*
D03*
X042239Y028674D02*
D03*
X041845D02*
D03*
X041837Y029048D02*
D03*
X042231D02*
D03*
X047617Y026011D02*
D03*
X048011D02*
D03*
X047619Y026401D02*
D03*
X048013D02*
D03*
X041871Y028035D02*
D03*
X042265D02*
D03*
X042265Y026745D02*
D03*
X041871D02*
D03*
Y02736D02*
D03*
X042265D02*
D03*
X041836Y03313D02*
D03*
X042229D02*
D03*
X044858Y032604D02*
D03*
X045251D02*
D03*
X041836Y032769D02*
D03*
X042229D02*
D03*
X046595Y032604D02*
D03*
X046202D02*
D03*
X041836Y033489D02*
D03*
X042229D02*
D03*
X041836Y033845D02*
D03*
X042229D02*
D03*
D43*
X046147Y0351D02*
D03*
D66*
X0493Y036163D02*
D03*
X052265Y026169D02*
D03*
X052872Y032488D02*
D03*
X05138Y026512D02*
D03*
X051246Y033848D02*
D03*
X046938Y03272D02*
D03*
X044474Y03271D02*
D03*
X047603Y035706D02*
D03*
X043501Y033767D02*
D03*
X044994Y036734D02*
D03*
X051706Y035752D02*
D03*
D67*
X052522Y027974D02*
X052671D01*
X052191Y028305D02*
X052522Y027974D01*
X052021Y028305D02*
X052191D01*
X042051Y030498D02*
Y030756D01*
X041133Y02958D02*
X042051Y030498D01*
X042596Y031295D02*
X042688Y031387D01*
X041847Y031107D02*
X042035Y031295D01*
X042596D01*
X041005Y031107D02*
X041847D01*
X042688Y031387D02*
X042777D01*
X052671Y027974D02*
X052672Y027972D01*
Y027744D02*
Y027972D01*
X053052Y029016D02*
Y029292D01*
Y028647D02*
Y029016D01*
X041689Y030674D02*
X042203Y031188D01*
X042735D01*
X041005Y030674D02*
X041689D01*
X042494Y03099D02*
X042735D01*
X04226Y030756D02*
X042494Y03099D01*
D68*
X049418Y026634D02*
X049654D01*
X049198Y026853D02*
X049418Y026634D01*
X04859Y026853D02*
X049198D01*
X041019Y032406D02*
X041055D01*
X041005D02*
X041019D01*
X041281Y032144D01*
X041012Y032413D02*
X041019Y032406D01*
X047736Y02714D02*
X047965D01*
X047673Y027203D02*
X047736Y02714D01*
X047673Y027203D02*
Y027434D01*
X047965Y02714D02*
X048101Y027004D01*
X04844D01*
X047655Y027058D02*
X047911D01*
X048015Y026818D02*
X048281D01*
X047858Y026974D02*
X048015Y026818D01*
X047587Y026974D02*
X047858D01*
X04844Y027004D02*
X04859Y026853D01*
X049098Y026745D02*
X049098Y026745D01*
X044115Y029417D02*
Y02981D01*
X044016Y029909D02*
X044115Y02981D01*
Y029417D02*
X044213Y029318D01*
X042743Y030795D02*
X043861D01*
X042741Y030796D02*
X042743Y030795D01*
X043861D02*
X044041Y030974D01*
X044098D01*
X04274Y0306D02*
X04274Y0306D01*
X043781D01*
X043973Y030793D01*
X044001Y031287D02*
X044016D01*
X04382Y031468D02*
Y031484D01*
Y031468D02*
X044001Y031287D01*
X043973Y030793D02*
X044113D01*
X044213Y030893D01*
X044098Y030974D02*
X044213Y03109D01*
X042735Y03099D02*
X04372D01*
X04382Y03109D02*
X044016D01*
X04372Y03099D02*
X04382Y03109D01*
X042535Y029222D02*
X042539D01*
X042832Y029515D02*
X042835D01*
X042539Y029222D02*
X042832Y029515D01*
X042403Y029126D02*
X04254Y028989D01*
X042403Y029126D02*
Y029362D01*
X042655Y029614D02*
X042884D01*
X042403Y029362D02*
X042655Y029614D01*
X042969Y029529D02*
X043019D01*
X043032Y029515D01*
X042884Y029614D02*
X042969Y029529D01*
X042644Y029811D02*
X042891D01*
X042936Y029667D02*
Y029766D01*
X042891Y029811D02*
X042936Y029766D01*
X042284Y029451D02*
X042644Y029811D01*
X04299Y029614D02*
X043069D01*
X042936Y029667D02*
X04299Y029614D01*
X043069D02*
X04313Y029553D01*
Y029463D02*
Y029553D01*
X043084Y029417D02*
X04313Y029463D01*
X042984Y029417D02*
X043084D01*
X042933Y029365D02*
X042984Y029417D01*
X042284Y029102D02*
Y029451D01*
X042231Y029048D02*
X042284Y029102D01*
X042933Y029024D02*
Y029365D01*
X042835Y028531D02*
X042849Y028545D01*
X042892D02*
X042976Y028629D01*
X043328D01*
X042849Y028545D02*
X042892D01*
X042933Y029024D02*
X043032Y028925D01*
X042223Y028347D02*
X042594D01*
X042707Y02846D02*
Y028774D01*
X042594Y028347D02*
X042707Y02846D01*
Y028774D02*
X04276Y028827D01*
X043097D01*
X043195Y028925D01*
X043426D01*
X043328Y028629D02*
X043426Y028531D01*
X043524Y028826D02*
X043623Y028925D01*
X043328Y028826D02*
X043524D01*
X043229Y028728D02*
X043328Y028826D01*
X044313Y028039D02*
X04441Y028136D01*
X044115Y028039D02*
X044313D01*
X04382Y028334D02*
X044115Y028039D01*
X04441Y028136D02*
Y028334D01*
X04756Y027153D02*
X047655Y027058D01*
X047654Y031385D02*
X047732Y031464D01*
X047861D01*
X047461Y031385D02*
X047654D01*
X047363Y031287D02*
X047461Y031385D01*
X047861Y031464D02*
X048044Y031647D01*
X047363Y03109D02*
X047462Y031189D01*
X047921D02*
X048044Y031312D01*
X047462Y031189D02*
X047921D01*
X048168Y030991D02*
X048467Y03129D01*
X047067Y030991D02*
X048168D01*
X046969Y030893D02*
X047067Y030991D01*
X048466Y031484D02*
X048467Y031482D01*
Y03129D02*
Y031482D01*
X044309Y026925D02*
Y027188D01*
X043824Y026441D02*
X044309Y026925D01*
Y027188D02*
X044397Y027275D01*
Y027336D02*
X04441Y02735D01*
X044397Y027275D02*
Y027336D01*
X043491Y026687D02*
X043628Y026825D01*
X043705D02*
X043787Y026907D01*
X043628Y026825D02*
X043705D01*
X043721Y027091D02*
X043787Y027025D01*
X043721Y027091D02*
Y027252D01*
X043787Y026907D02*
Y027025D01*
X043381Y026681D02*
X043387Y026687D01*
X043491D01*
X043623Y02735D02*
X043721Y027252D01*
X043525Y027302D02*
Y027449D01*
X043474Y027251D02*
X043525Y027302D01*
Y027449D02*
X043623Y027547D01*
X043381Y027251D02*
X043474D01*
X043328Y027198D02*
X043381Y027251D01*
X043126Y026945D02*
X04315Y026969D01*
X043328Y027094D02*
Y027198D01*
X043203Y026969D02*
X043328Y027094D01*
X04315Y026969D02*
X043203D01*
X043032Y028137D02*
X043131Y028038D01*
X043328D02*
X043426Y02794D01*
X043131Y028038D02*
X043328D01*
X042885Y027843D02*
X042934Y027892D01*
X042835Y028137D02*
X042934Y028039D01*
Y027892D02*
Y028039D01*
X046969Y029909D02*
Y030106D01*
X047461Y02922D02*
X04756Y029318D01*
X047266Y02922D02*
X047461D01*
X047168Y029122D02*
X047266Y02922D01*
X042042Y026615D02*
Y026996D01*
X042277Y025999D02*
X042512Y025764D01*
X042042Y026615D02*
X042277Y02638D01*
Y025999D02*
Y02638D01*
X041622Y026486D02*
Y029327D01*
X041005Y02591D02*
X041046D01*
X041622Y026486D01*
X042739Y026736D02*
X042824Y026822D01*
X042901D01*
X042739Y02644D02*
Y026736D01*
Y02644D02*
X042777Y026402D01*
X042512Y025764D02*
X043228D01*
X043313Y025848D02*
Y026474D01*
X043228Y025764D02*
X043313Y025848D01*
Y026474D02*
X043396Y026558D01*
X041622Y029327D02*
X042523Y030228D01*
X04233Y027738D02*
X042617Y027451D01*
X042175Y027738D02*
X04233D01*
X042617Y027451D02*
X043072D01*
X042598Y027605D02*
X042697D01*
X04232Y027883D02*
Y027979D01*
Y027883D02*
X042598Y027605D01*
X042697D02*
X042736Y027644D01*
X042265Y028035D02*
X04232Y027979D01*
X042736Y027644D02*
X043116D01*
X042639Y027752D02*
X04273Y027843D01*
X042635Y027752D02*
X042639D01*
X04273Y027843D02*
X042885D01*
X04382Y027883D02*
Y028137D01*
X043473Y027536D02*
X04382Y027883D01*
X043157Y027536D02*
X043473D01*
X043444Y027622D02*
X043623Y0278D01*
Y02794D01*
X043138Y027622D02*
X043444D01*
X043072Y027451D02*
X043157Y027536D01*
X043116Y027644D02*
X043138Y027622D01*
X041973Y027064D02*
X042042Y026996D01*
X042523Y030228D02*
X042696D01*
X042722Y030202D02*
X042936D01*
X042696Y030228D02*
X042722Y030202D01*
X042936D02*
X043032Y030106D01*
X041528Y02935D02*
X042481Y030303D01*
X041528Y02657D02*
Y02935D01*
X041301Y026343D02*
X041528Y02657D01*
X041005Y026343D02*
X041301D01*
X042481Y030303D02*
X042835D01*
X041435Y027001D02*
Y029393D01*
X04244Y030398D01*
X04121Y026776D02*
X041435Y027001D01*
X041005Y026776D02*
X04121D01*
X04244Y030398D02*
X042936D01*
X043032Y030303D01*
X04226Y031444D02*
X042261Y031445D01*
X042415D01*
X04503Y026804D02*
Y026956D01*
X044784Y026558D02*
X044804D01*
X044885Y026639D01*
Y026659D01*
X04503Y026804D01*
X0448Y026891D02*
Y026933D01*
X044824Y026956D01*
X044503Y026594D02*
X0448Y026891D01*
X044607Y026956D02*
Y027153D01*
X045001Y029318D02*
X045001Y029318D01*
X047166Y02735D02*
Y027547D01*
X047464Y027643D02*
X047701D01*
X047717Y027627D01*
X047363Y027744D02*
X047464Y027643D01*
X051241Y028779D02*
X051391Y02893D01*
Y028935D01*
X051241Y028774D02*
Y028779D01*
X049816Y027673D02*
X049978Y027511D01*
X049816Y027673D02*
Y027675D01*
X049978Y02751D02*
Y027511D01*
X046143Y026745D02*
X046271Y026873D01*
X04601Y026613D02*
X046143Y026745D01*
X045151Y026562D02*
X045201Y026613D01*
X04601D01*
X046621Y026938D02*
X047008Y026551D01*
X046621Y026938D02*
Y027044D01*
X046585Y027081D02*
X046621Y027044D01*
X046733Y02697D02*
Y027048D01*
X046674Y027108D02*
Y027251D01*
Y027108D02*
X046733Y027048D01*
X046585Y027081D02*
Y027144D01*
X046576Y027153D02*
X046585Y027144D01*
X047008Y026551D02*
X04744D01*
X047565Y026676D01*
X04703Y0268D02*
X047205D01*
X046861Y026969D02*
X04703Y0268D01*
X047205D02*
X047329Y026676D01*
X046861Y026969D02*
Y027064D01*
X047068Y0267D02*
X047092Y026676D01*
X046733Y02697D02*
X047003Y0267D01*
X047068D01*
X047067Y027087D02*
Y027202D01*
X047017Y027252D02*
X047067Y027202D01*
X046871Y027252D02*
X047017D01*
X047097Y026924D02*
Y027057D01*
X047067Y027087D02*
X047097Y027057D01*
X046772Y027153D02*
X046861Y027064D01*
X047805Y026895D02*
X047994Y026706D01*
X047469Y026895D02*
X047805D01*
X047265Y0271D02*
X047469Y026895D01*
X047462Y0271D02*
X047587Y026974D01*
X047994Y026706D02*
X04821Y02649D01*
X048281Y026818D02*
X048417Y026682D01*
Y026487D02*
Y026682D01*
X04821Y026229D02*
Y02649D01*
X048011Y026031D02*
X04821Y026229D01*
X048011Y026011D02*
Y026031D01*
X049907Y026296D02*
Y026381D01*
X0501Y026489D02*
X050419D01*
X049907Y026296D02*
X0501Y026489D01*
X049907Y026224D02*
Y026296D01*
X049654Y026634D02*
X049907Y026381D01*
X04756Y027547D02*
X047673Y027434D01*
X052265Y026169D02*
X052267Y026167D01*
X052422D01*
X052506Y026083D01*
X052924D01*
X050133Y028933D02*
X050417D01*
X050419Y028931D01*
X050131Y028935D02*
X050133Y028933D01*
X049501Y027985D02*
X049651Y027835D01*
X049501Y027985D02*
Y02799D01*
X049651Y02783D02*
Y027835D01*
X049979Y028144D02*
X049981D01*
X049816Y028305D02*
X049818D01*
X049979Y028144D01*
X049655Y028777D02*
X049812Y02862D01*
X049651Y028777D02*
X049655D01*
X049812Y02862D02*
X049816D01*
X042901Y026822D02*
X042997Y026918D01*
Y027018D01*
X043033Y027054D01*
X043132Y027117D02*
Y027393D01*
X043195Y027456D02*
X04332D01*
X043132Y027393D02*
X043195Y027456D01*
X043069Y027054D02*
X043132Y027117D01*
X043033Y027054D02*
X043069D01*
X042707Y026402D02*
X042707Y026402D01*
X04332Y027456D02*
X043426Y02735D01*
X04519Y031289D02*
X045288Y031191D01*
X04549D01*
X045591Y03109D01*
X047611Y032093D02*
X048149D01*
X0483Y031942D01*
X047464Y031781D02*
Y031946D01*
X047611Y032093D01*
X047363Y031681D02*
X047464Y031781D01*
X048415Y028952D02*
X048555D01*
X048949Y028558D01*
X048202Y028738D02*
X048415Y028952D01*
X046867Y028432D02*
X046966Y028531D01*
X046675Y028432D02*
X046867D01*
X046576Y028531D02*
X046675Y028432D01*
X048527Y028174D02*
X048607Y028093D01*
X048527Y028174D02*
Y028647D01*
X048607Y028093D02*
X048839D01*
X048949Y028204D01*
X04807Y028507D02*
X048085D01*
X047942Y028379D02*
X04807Y028507D01*
X047712Y028379D02*
X047942D01*
X048949Y028204D02*
Y028558D01*
X047645Y02826D02*
X047962D01*
X047991Y028289D01*
X048024D01*
X047571Y028334D02*
X047645Y02826D01*
X04756Y028531D02*
X047712Y028379D01*
X04756Y028334D02*
X047571D01*
X04806Y028738D02*
X048202D01*
X047971Y028827D02*
X04806Y028738D01*
X047673Y028629D02*
X047796Y028505D01*
X047363Y028531D02*
X047461Y028629D01*
X047673D01*
X047462Y028827D02*
X047971D01*
X047679Y029346D02*
X048027D01*
X048093Y029412D01*
X047611Y029414D02*
X047679Y029346D01*
X04769Y029691D02*
X047915D01*
X047613Y029614D02*
X04769Y029691D01*
X047461Y029614D02*
X047613D01*
X047915Y029691D02*
X047934Y029672D01*
X047363Y028728D02*
X047462Y028827D01*
X047943Y029473D02*
X048115Y029645D01*
X047928Y029473D02*
X047943D01*
X047655Y029808D02*
X048063D01*
X048115Y029645D02*
Y029755D01*
X048063Y029808D02*
X048115Y029755D01*
X047363Y029712D02*
X047461Y029614D01*
X04756Y029712D02*
X047655Y029808D01*
X047459Y029414D02*
X047611D01*
X047363Y029318D02*
X047459Y029414D01*
X04756Y028925D02*
X048057D01*
X048101Y028881D02*
X048134D01*
X048057Y028925D02*
X048101Y028881D01*
X048754Y031289D02*
Y031395D01*
X047459Y030797D02*
X048263D01*
X048754Y031289D01*
Y031395D02*
X04893Y031571D01*
X047363Y030893D02*
X047459Y030797D01*
X046281Y03099D02*
Y031152D01*
X046209Y031223D02*
X046281Y031152D01*
X046049Y031223D02*
X046209D01*
X045985Y031287D02*
X046049Y031223D01*
X046281Y03099D02*
X046379Y030892D01*
X044312Y031779D02*
Y031933D01*
X044213Y031681D02*
X044312Y031779D01*
X042758Y031582D02*
X043131D01*
X043229Y031681D01*
X04382D02*
X04392Y031781D01*
Y032137D01*
X043917Y03214D02*
X04392Y032137D01*
X043326Y031781D02*
Y032037D01*
Y031781D02*
X043426Y031681D01*
X043218Y032144D02*
X043326Y032037D01*
X041281Y032144D02*
X043218D01*
X042596Y031986D02*
X04307D01*
X04313Y031778D02*
Y031927D01*
X04307Y031986D02*
X04313Y031927D01*
X043032Y031681D02*
X04313Y031778D01*
X042452Y031842D02*
X042596Y031986D01*
X044114Y026864D02*
Y027199D01*
X043396Y026558D02*
X043808D01*
X044114Y026864D01*
X044166Y027251D02*
X044266D01*
X044114Y027199D02*
X044166Y027251D01*
X045296Y02708D02*
Y027205D01*
Y02708D02*
X045631Y026745D01*
X045296Y027205D02*
X045343Y027251D01*
X045493D01*
X045591Y02735D01*
X047265Y027251D02*
X047363Y02735D01*
X047265Y0271D02*
Y027251D01*
X045591Y02794D02*
X045784D01*
X044266Y027251D02*
X044312Y027296D01*
Y027389D01*
X044371Y027448D01*
X044509D02*
X044607Y02735D01*
X044371Y027448D02*
X044509D01*
X046379Y02794D02*
Y028137D01*
X045984Y028729D02*
X046084Y028629D01*
Y028477D02*
Y028629D01*
X046038Y028432D02*
X046084Y028477D01*
X045887Y028432D02*
X046038D01*
X045788Y028531D02*
X045887Y028432D01*
X046379Y028334D02*
X046576D01*
X045591Y028339D02*
Y028531D01*
X045198Y02794D02*
X045394D01*
X046576Y02735D02*
X046674Y027251D01*
X046477Y02708D02*
X046536Y027021D01*
Y026883D02*
Y027021D01*
X046772Y02735D02*
X046871Y027252D01*
X046871Y027448D02*
X046969Y027547D01*
X046719Y027448D02*
X046871D01*
X046674Y027493D02*
X046719Y027448D01*
X046674Y027493D02*
Y027645D01*
X046576Y027744D02*
X046674Y027645D01*
X048417Y026487D02*
X048681Y026224D01*
X048923D01*
X046379Y027001D02*
X046399Y026981D01*
X046379Y027001D02*
Y027153D01*
X046084Y02704D02*
X046143Y026981D01*
X046084Y02704D02*
Y027448D01*
X045985Y027547D02*
X046084Y027448D01*
X045887Y026981D02*
Y027054D01*
X045788Y027153D02*
X045887Y027054D01*
X045759Y026873D02*
X045887Y026745D01*
X045759Y026873D02*
Y027031D01*
X045636Y027153D02*
X045759Y027031D01*
X045591Y027153D02*
X045636D01*
X045985Y027744D02*
X046182Y027547D01*
X047462Y0271D02*
Y027448D01*
X047363Y027547D02*
X047462Y027448D01*
X045985Y02813D02*
Y028334D01*
X046271Y026873D02*
Y027064D01*
X045788Y02735D02*
Y027547D01*
X046182Y027153D02*
X046271Y027064D01*
X046399Y026745D02*
X046536Y026883D01*
X046477Y02708D02*
Y027208D01*
X046433Y027251D02*
X046477Y027208D01*
X04628Y027251D02*
X046433D01*
X046182Y02735D02*
X04628Y027251D01*
X045985Y02794D02*
X046182D01*
Y028137D02*
Y028334D01*
X045591Y027744D02*
X045788D01*
X045591Y029122D02*
X045788D01*
X045394Y028531D02*
Y028728D01*
D69*
X046969Y032066D02*
X047265Y032361D01*
X046969Y031877D02*
Y032066D01*
X047068Y032293D02*
Y032468D01*
X04687Y032096D02*
X047068Y032293D01*
X04687Y031778D02*
Y032096D01*
X046772Y031681D02*
X04687Y031778D01*
X046772Y031877D02*
Y032227D01*
X046901Y032355D02*
Y032355D01*
X046772Y032227D02*
X046901Y032355D01*
X046576Y031681D02*
X046674Y031779D01*
Y032355D01*
X047994Y029205D02*
X048076Y029123D01*
X047643Y029205D02*
X047994D01*
X04756Y029122D02*
X047643Y029205D01*
X047461Y029024D02*
X048231D01*
X048353Y029148D02*
X048483D01*
X048478Y029246D02*
X048541Y02931D01*
X048483Y029148D02*
X048541Y02909D01*
X04819Y029123D02*
Y029124D01*
X048541Y02931D02*
X04856D01*
X048313Y029246D02*
X048478D01*
X048289Y029082D02*
Y029083D01*
X048541Y02909D02*
X048565D01*
X048076Y029123D02*
X04819D01*
X048231Y029024D02*
X048289Y029082D01*
Y029083D02*
X048353Y029148D01*
X04819Y029124D02*
X048313Y029246D01*
X047363Y029122D02*
X047461Y029024D01*
X048203Y03222D02*
X048219D01*
X048137Y032286D02*
X048203Y03222D01*
X04745Y032139D02*
X047598Y032286D01*
X048137D01*
X047166Y032037D02*
X047267Y032139D01*
X04745D01*
X047166Y031878D02*
X047166Y031877D01*
X047166Y031878D02*
Y032037D01*
X048139Y032368D02*
X048219Y032448D01*
Y032454D01*
X047417Y03222D02*
X047565Y032368D01*
X048139D01*
X047068Y032055D02*
X047234Y03222D01*
X047417D01*
X047068Y03178D02*
Y032055D01*
X046969Y031681D02*
X047068Y03178D01*
X047896Y031793D02*
X048044Y031942D01*
X047732Y031793D02*
X047896D01*
X04766Y031721D02*
X047732Y031793D01*
X04766Y031642D02*
Y031721D01*
X047461Y031582D02*
X047599D01*
X04766Y031642D01*
X047885Y027369D02*
Y027557D01*
X047972Y027282D02*
X048243D01*
X047885Y027369D02*
X047972Y027282D01*
X047884Y027558D02*
Y027734D01*
X04756Y02794D02*
X047816D01*
X047982Y027774D01*
X047462Y027841D02*
X047777D01*
X047884Y027734D01*
X047982Y027444D02*
Y027774D01*
X047884Y027558D02*
X047885Y027557D01*
X047982Y027444D02*
X048046Y027379D01*
X048203D01*
X048243Y027282D02*
X048384Y027422D01*
X048203Y027379D02*
X04826Y027436D01*
X048384Y027422D02*
Y02767D01*
X04826Y027436D02*
Y027721D01*
X048475Y027761D02*
X048517D01*
X048384Y02767D02*
X048475Y027761D01*
X048558Y02772D02*
X04859D01*
X04826Y027721D02*
X048424Y027885D01*
X048513D01*
X048558Y02793D01*
X048517Y027761D02*
X048558Y02772D01*
X048558Y02793D02*
X04859D01*
X047363Y02794D02*
X047462Y027841D01*
X048315Y030402D02*
X048437Y030524D01*
X048566D02*
X048613Y030477D01*
X048437Y030524D02*
X048566D01*
X048613Y030477D02*
X048645D01*
X047461Y030402D02*
X048315D01*
X047363Y030499D02*
X047363D01*
X047461Y030402D01*
X047363Y031484D02*
X047461Y031582D01*
D70*
X041728Y032489D02*
X042393D01*
X041481Y032736D02*
X041728Y032489D01*
X041481Y032736D02*
Y034792D01*
X042393Y032489D02*
X042393Y032489D01*
X043995D01*
X041268Y035005D02*
X041481Y034792D01*
X041005Y029452D02*
X041133Y02958D01*
X041005Y029375D02*
Y029452D01*
X043622Y031878D02*
X043637Y031893D01*
X043425Y031878D02*
X04344Y031893D01*
X043829Y029712D02*
X044016D01*
X043426Y031287D02*
Y031287D01*
X043229Y031484D02*
X043426Y031287D01*
Y030106D02*
Y030116D01*
X043623Y030313D01*
Y030323D01*
X043623Y029909D02*
Y030109D01*
X043623Y030109D02*
X043623Y030109D01*
X043231Y029911D02*
X043424D01*
X043426Y029913D01*
X043229Y029909D02*
X043231Y029911D01*
X043032Y029911D02*
X043229Y030108D01*
X043032Y029909D02*
Y029911D01*
X043229Y030108D02*
Y030109D01*
X043032Y029712D02*
X043229D01*
Y029318D02*
Y029515D01*
X042164Y028579D02*
X042239Y028654D01*
X042079Y028514D02*
X042144Y028579D01*
X042079Y028514D02*
X042079D01*
X042014Y028449D02*
X042079Y028514D01*
X042144Y028579D02*
X042164D01*
X042239Y028654D02*
Y028674D01*
X042014Y028347D02*
Y028449D01*
X042403Y028674D02*
X04254Y028537D01*
X042239Y028674D02*
X042403D01*
X044215Y028336D02*
X04441Y028531D01*
X04756Y03109D02*
X048078D01*
X0483Y031312D01*
X043454Y026814D02*
X043518Y026878D01*
Y027049D01*
X043257Y026814D02*
X043454D01*
X043125Y026681D02*
X043257Y026814D01*
X043518Y027049D02*
X043623Y027153D01*
X043382Y026976D02*
X043426Y027019D01*
X043382Y026945D02*
Y026976D01*
X043426Y027019D02*
Y027153D01*
X044016Y026999D02*
Y027153D01*
X043707Y026689D02*
X044016Y026999D01*
X043032Y028334D02*
X043229D01*
X043426Y028137D02*
X043623D01*
X043229Y027744D02*
X043426D01*
X044213Y027547D02*
X04441D01*
X04382Y02735D02*
X044016Y027547D01*
X04382Y02735D02*
X04382D01*
X04382Y027744D02*
X044016D01*
X044325Y027849D02*
X044502D01*
X044607Y027744D01*
X04422Y027744D02*
X044325Y027849D01*
X044213Y027744D02*
X04422D01*
X044607Y02794D02*
X044607Y02794D01*
X044213Y02794D02*
X044607D01*
X045001Y027547D02*
Y027744D01*
X044804Y027744D02*
X045001Y02794D01*
X044804Y027744D02*
X044804D01*
X045394Y027547D02*
X045591D01*
X046381Y029122D02*
X046576D01*
Y029318D02*
X046772D01*
X046379Y029508D02*
X046382Y029512D01*
X046572D02*
X046576Y029515D01*
X046382Y029512D02*
X046572D01*
X045788Y029909D02*
X045985Y030106D01*
X045788D02*
Y030305D01*
X045591Y030102D02*
Y030303D01*
X046377Y030499D02*
X046576D01*
X046763Y030303D02*
X046768Y030307D01*
Y030495D02*
X046772Y030499D01*
X046768Y030307D02*
Y030495D01*
X046772Y030696D02*
X046772Y030696D01*
X046576Y030696D02*
X046772D01*
X046576Y030695D02*
X046576Y030696D01*
X045788Y030895D02*
X045985Y030699D01*
X045788Y030895D02*
X045788Y030895D01*
Y030696D02*
Y030895D01*
X045985Y030696D02*
Y030699D01*
X045788Y030895D02*
Y030898D01*
X045788Y030696D02*
X045788Y030696D01*
X045591Y031287D02*
X045788D01*
X045394Y031484D02*
X045591D01*
X052658Y02645D02*
X052663Y026455D01*
X052658Y026248D02*
Y02645D01*
X053045Y026245D02*
Y026443D01*
X053057Y026455D01*
X048445Y030106D02*
X048582Y029968D01*
X04872Y028965D02*
Y029567D01*
X048582Y029704D02*
Y029968D01*
Y029704D02*
X04872Y029567D01*
Y028965D02*
X049206Y028479D01*
X042229Y032769D02*
X042232Y032766D01*
X042607D01*
X042229Y032769D02*
Y03313D01*
X04225Y033468D02*
X042353D01*
X042463Y032938D02*
Y033358D01*
X042353Y033468D02*
X042463Y033358D01*
X042001Y034635D02*
X042139D01*
X041994Y034629D02*
X042001Y034635D01*
X042139D02*
X042145Y034641D01*
X041995Y034818D02*
X042145D01*
X041994Y034818D02*
X041995Y034818D01*
X042145D02*
X042145Y034818D01*
X041994Y034629D02*
Y034818D01*
Y035018D02*
X042042Y035066D01*
X041994Y034818D02*
Y035018D01*
X044382Y033681D02*
X044389Y033688D01*
Y033858D02*
Y033905D01*
Y033688D02*
Y033858D01*
X041005Y035005D02*
X041268D01*
X042263Y031742D02*
X042423Y031582D01*
X041236Y031742D02*
X042263D01*
X041005Y031973D02*
X041236Y031742D01*
X042423Y031582D02*
X042758D01*
X042777Y026008D02*
X042796D01*
X042872Y026084D02*
Y026162D01*
X042796Y026008D02*
X042872Y026084D01*
Y026162D02*
X043111Y026402D01*
X043131D01*
X04289Y026623D02*
X043111Y026402D01*
X04289Y026623D02*
Y02666D01*
X042869Y026681D02*
X04289Y02666D01*
X042265Y02734D02*
Y02736D01*
Y027147D02*
Y02734D01*
X042182Y027064D02*
X042265Y027147D01*
X04234Y027265D02*
X042441D01*
X042265Y02734D02*
X04234Y027265D01*
X042441D02*
X042454Y027252D01*
X042353Y027586D02*
X042642Y027296D01*
X042664D01*
X041871Y027586D02*
X042353D01*
X041819Y027638D02*
X041871Y027586D01*
X041819Y027638D02*
Y027982D01*
X041871Y028035D01*
X042526Y027941D02*
X042835D01*
X042835Y02794D01*
X042526Y027941D02*
X042526Y027941D01*
X044396Y035913D02*
X044725D01*
X046054Y033531D02*
X046202D01*
X04787Y036318D02*
Y036425D01*
X047806Y036262D02*
X047814D01*
X04787Y036318D01*
X046231Y025828D02*
X047454D01*
X046034Y026024D02*
X046231Y025828D01*
X047454D02*
X047617Y025991D01*
Y026011D01*
X046024Y026024D02*
X046034D01*
X045519Y026024D02*
X046024D01*
X046024Y026024D01*
X045044Y035595D02*
X045199D01*
X044725Y035913D02*
X045044Y035595D01*
X045199D02*
X045202Y035593D01*
X044389Y03592D02*
X044396Y035913D01*
X050131Y027351D02*
X050271Y027211D01*
Y027202D02*
Y027211D01*
X050131Y027351D02*
Y02736D01*
X049816D02*
X049978Y027198D01*
X044653Y036176D02*
Y036351D01*
X044619Y036385D02*
X044653Y036351D01*
X049668Y030678D02*
X049985D01*
X050131Y030824D01*
X049206Y027596D02*
Y028479D01*
X04756Y030106D02*
X048445D01*
X050436Y026902D02*
X050926Y027392D01*
X049316Y026902D02*
X050436D01*
X050926Y027392D02*
Y028047D01*
X048915Y027303D02*
Y027586D01*
Y027303D02*
X049316Y026902D01*
X051028Y03245D02*
X051287Y03271D01*
Y03283D01*
X0512Y032917D02*
X051287Y03283D01*
X051031Y032917D02*
X0512D01*
X050881Y032767D02*
X051031Y032917D01*
X051028Y032379D02*
Y03245D01*
Y032379D02*
X051177Y032229D01*
X050098Y032084D02*
X050131D01*
X050053Y032129D02*
X050098Y032084D01*
X050052Y032129D02*
X050053D01*
X049909Y032272D02*
Y032774D01*
Y032272D02*
X050052Y032129D01*
X049909Y032774D02*
X050026Y03289D01*
X050395D01*
X050519Y032767D01*
X050881D01*
X050878Y030119D02*
X051118D01*
X05079Y030031D02*
X050878Y030119D01*
X051118D02*
X051206Y030031D01*
X050612Y02987D02*
X050916D01*
X051011Y029965D01*
X050307Y029565D02*
X050612Y02987D01*
X051206Y030031D02*
X051554D01*
X050571D02*
X05079D01*
X050444Y030776D02*
X050578Y030642D01*
Y030401D02*
Y030642D01*
Y030401D02*
X050689Y03029D01*
X050946D01*
X050625Y030898D02*
X050749Y030774D01*
Y030485D02*
Y030774D01*
X050122Y032424D02*
X050339Y032207D01*
X050131Y031454D02*
X050339Y031662D01*
Y032207D01*
X050122Y032424D02*
Y03256D01*
X050217Y032655D01*
X050452D01*
X050927Y03138D02*
Y032061D01*
X0508Y031254D02*
X050927Y03138D01*
X050537Y031254D02*
X0508D01*
X050452Y032655D02*
X050577Y03253D01*
Y031965D02*
Y03253D01*
X048745Y032889D02*
X049195D01*
X048621Y032765D02*
X048745Y032889D01*
X049195D02*
X049273Y032811D01*
X050766Y031527D02*
Y032294D01*
X050425Y031433D02*
X050672D01*
X050766Y031527D01*
X050131Y031139D02*
X050425Y031433D01*
X049029Y032529D02*
X049196D01*
X049273Y032605D01*
Y032811D01*
X048936Y032436D02*
X049029Y032529D01*
X048936Y032338D02*
X049157Y032117D01*
X048936Y032338D02*
Y032436D01*
X048621Y032617D02*
Y032765D01*
X048474Y031853D02*
X04863Y032008D01*
X048443Y03231D02*
X04863Y032123D01*
Y032008D02*
Y032123D01*
X048443Y03244D02*
X048621Y032617D01*
X048443Y03231D02*
Y03244D01*
X04756Y030893D02*
X048212D01*
X048621Y031302D02*
Y03156D01*
X048212Y030893D02*
X048621Y031302D01*
X048474Y031706D02*
X048621Y03156D01*
X048474Y031706D02*
Y031853D01*
X050577Y031965D02*
X050579Y031963D01*
X049816Y031769D02*
Y032084D01*
X048913Y031588D02*
X04893Y031571D01*
X048913Y031588D02*
Y031696D01*
X048896Y031712D02*
X048913Y031696D01*
X051051Y030396D02*
Y030909D01*
X050946Y03029D02*
X051051Y030396D01*
X050444Y030776D02*
Y03116D01*
X050537Y031254D01*
X050766Y032294D02*
X050861Y03239D01*
X051554Y030031D02*
X051706Y02988D01*
X05057Y03003D02*
X050571Y030031D01*
X048028Y028086D02*
X048178D01*
X047977Y028137D02*
X048028Y028086D01*
X04756Y028137D02*
X047977D01*
X05124Y029568D02*
X051387D01*
X051151Y029657D02*
X05124Y029568D01*
X051151Y029657D02*
X051151D01*
X051387Y029568D02*
X051391Y029565D01*
X051205Y027384D02*
X051371Y02755D01*
X051043Y027459D02*
X051119Y027384D01*
X051205D01*
X051043Y027459D02*
Y02766D01*
X051371Y02755D02*
Y027655D01*
X051391Y027675D01*
X051116Y027732D02*
Y027742D01*
X051043Y02766D02*
X051116Y027732D01*
X050781Y027994D02*
Y028167D01*
X050617Y02783D02*
X050781Y027994D01*
X050444Y02783D02*
X050617D01*
X050444Y02783D02*
X050444Y02783D01*
X050926Y028047D02*
X051273Y028395D01*
X050781Y028167D02*
X051118Y028504D01*
X050131Y02799D02*
X050283D01*
X05094Y028647D02*
X051168D01*
X050283Y02799D02*
X05094Y028647D01*
X051273Y028395D02*
Y028542D01*
X051168Y028647D02*
X051273Y028542D01*
X051107Y029289D02*
Y029453D01*
X050941Y029219D02*
X051036D01*
X051107Y029289D01*
X050851Y029709D02*
X051107Y029453D01*
X050707Y028846D02*
Y028986D01*
X050941Y029219D01*
X05037Y028648D02*
X05051D01*
X050707Y028846D01*
X050363Y028641D02*
X05037Y028648D01*
X050598Y028502D02*
X051058Y028962D01*
X050136Y02862D02*
X050254Y028502D01*
X050598D01*
X050131Y02862D02*
X050136D01*
X051058Y028962D02*
X051148D01*
X051163Y028977D01*
X050702Y029709D02*
X050851D01*
X050462Y029469D02*
X050702Y029709D01*
X050462Y029317D02*
Y029469D01*
X050131Y029565D02*
X050307D01*
X050235Y02909D02*
X050462Y029317D01*
X049971Y02909D02*
X050235D01*
X049816Y028935D02*
X049971Y02909D01*
X04756Y030303D02*
X047664Y030198D01*
X048585D02*
X048803Y030416D01*
X047664Y030198D02*
X048585D01*
X047166Y029515D02*
X047167Y029514D01*
Y029327D02*
Y029514D01*
Y029327D02*
X047168Y029327D01*
X051401Y02799D02*
X051551Y027839D01*
X051391Y02799D02*
X051401D01*
X051551Y027839D02*
X051562D01*
X048436Y029679D02*
Y029907D01*
X048358Y029985D02*
X048436Y029907D01*
X04835Y029593D02*
X048436Y029679D01*
X047636Y029985D02*
X048358D01*
X048234Y029592D02*
X048235Y029593D01*
X04835D01*
X04756Y029909D02*
X047636Y029985D01*
X050131Y02925D02*
X050289Y029407D01*
X049816Y02925D02*
X049974Y029407D01*
X04756Y028728D02*
X047852D01*
X047889Y02869D01*
X047919D01*
X048486Y029495D02*
X048516D01*
X048353Y029411D02*
X048389Y029447D01*
X048438D01*
X048486Y029495D01*
X049976Y02783D02*
X050444D01*
X050153Y028326D02*
X050324D01*
X050131Y028305D02*
X050153Y028326D01*
X050324D02*
X050345Y028348D01*
X051377Y02799D02*
X051391D01*
X051138Y027985D02*
Y028051D01*
X051391Y028305D01*
X051116Y027964D02*
X051138Y027985D01*
X051706Y028935D02*
X051863Y028777D01*
X051706Y028935D02*
Y028935D01*
X049816Y02799D02*
X049976Y02783D01*
X051708Y02862D02*
X051865Y028462D01*
X046576Y029712D02*
X046772D01*
X046969Y029122D02*
X047166Y028925D01*
X046772D02*
X046969D01*
X046576D02*
X046772Y029122D01*
X046969Y029515D02*
Y029712D01*
X047168Y030105D02*
X047363Y02991D01*
X047168Y030105D02*
Y030106D01*
X047363Y029909D02*
Y02991D01*
X051541Y028155D02*
X051706Y02799D01*
X051548Y028462D02*
X051706Y028305D01*
X051391Y028623D02*
X051548Y028781D01*
X051391Y02862D02*
Y028623D01*
X051548Y028781D02*
Y028784D01*
X046576Y029909D02*
Y030106D01*
X051706Y027677D02*
X051881Y027852D01*
X051706Y027675D02*
Y027677D01*
X051881Y027852D02*
Y027855D01*
X046964Y029318D02*
X046969D01*
X046768Y029515D02*
X046964Y029318D01*
X046763Y029515D02*
X046768D01*
X050316Y030544D02*
Y03087D01*
X050444Y030202D02*
Y030417D01*
X050316Y030544D02*
X050444Y030417D01*
X050204Y030982D02*
X050316Y03087D01*
X049974Y030982D02*
X050204D01*
X049816Y030824D02*
X049974Y030982D01*
X051051Y030909D02*
X051117Y030974D01*
X051226D01*
X050625Y030898D02*
Y031032D01*
X0507Y031107D01*
X05107D01*
X051131Y031167D01*
Y03138D01*
X051205Y031454D01*
X051391D01*
X051547Y03193D02*
Y031931D01*
X051706Y031769D02*
Y03177D01*
X051547Y03193D02*
X051706Y03177D01*
X051173Y030298D02*
X051384Y030509D01*
X051166Y030298D02*
X051173D01*
X051384Y030509D02*
X051391D01*
X051391Y030824D02*
X051548Y030982D01*
X048645Y030887D02*
X048803Y03073D01*
Y030416D02*
Y03073D01*
X047177Y030495D02*
X047363Y030309D01*
Y030303D02*
Y030309D01*
X047177Y030495D02*
Y030502D01*
X051226Y030974D02*
X051391Y031139D01*
X047682Y030696D02*
X04772Y030659D01*
X04775D01*
X04756Y030696D02*
X047682D01*
X04756Y031287D02*
X047713D01*
X047758Y031332D01*
X047788D01*
X049651Y03162D02*
X049816Y031454D01*
X049651Y03162D02*
Y031933D01*
X047165Y030696D02*
X047363D01*
X046968Y030502D02*
X047166Y030303D01*
X046968Y030502D02*
Y030502D01*
X047166Y030303D02*
Y030303D01*
X051706Y031454D02*
X051707D01*
X051866Y031614D01*
X051867D01*
X051391Y02988D02*
X051548Y029722D01*
X047166Y028137D02*
X047166D01*
X046969Y02794D02*
X047166Y028137D01*
X050131Y02988D02*
X05014D01*
X05028Y029739D01*
X050289D01*
X047166Y027744D02*
Y02794D01*
X049816Y030195D02*
Y030195D01*
Y030195D02*
X049974Y030037D01*
X046969Y028137D02*
X046969Y028137D01*
X046772Y028137D02*
X046969D01*
X046969Y028335D02*
X046969Y028336D01*
X046772Y028334D02*
X046773Y028335D01*
X046969D01*
X047166Y028334D02*
X047363Y028137D01*
X047168Y02853D02*
X047363Y028335D01*
Y028334D02*
Y028335D01*
X047168Y02853D02*
Y028531D01*
X046576D02*
Y028533D01*
X046379Y030696D02*
Y030892D01*
X046106Y031407D02*
Y03156D01*
X045985Y031287D02*
X046106Y031407D01*
X045985Y031681D02*
X046106Y03156D01*
X045985Y031681D02*
X046182Y031877D01*
Y031877D01*
X045788D02*
Y032047D01*
X045251Y032584D02*
X045788Y032047D01*
X045251Y032584D02*
Y032604D01*
X045198Y032062D02*
X045382Y031877D01*
X045198Y032062D02*
Y032074D01*
X045382Y031877D02*
X045394D01*
Y031681D02*
Y031877D01*
X044413Y031681D02*
X04461Y031484D01*
X04441Y031681D02*
X044413D01*
X04461Y031484D02*
X044613D01*
X04398Y03149D02*
Y03152D01*
X044016Y031556D02*
Y031681D01*
X04398Y03152D02*
X044016Y031556D01*
X043623Y031681D02*
X043623D01*
X043426Y031484D02*
X043623Y031681D01*
X043426Y031484D02*
X043426D01*
X044607Y031681D02*
Y031877D01*
X044794Y032065D02*
X04494D01*
X044607Y031877D02*
X044794Y032065D01*
X04494D02*
X044942Y032067D01*
X043995Y032489D02*
X044312Y032172D01*
Y031933D02*
Y032172D01*
X04344Y032014D02*
X043457Y03203D01*
X04344Y031893D02*
Y032014D01*
X043637Y031967D02*
X043666Y031996D01*
Y03203D01*
X043637Y031893D02*
Y031967D01*
D71*
X052672Y027296D02*
X052675Y027293D01*
X052637Y027331D02*
X052672Y027296D01*
X045788Y031484D02*
X045985D01*
X047166Y03109D02*
Y031278D01*
X047167Y029723D02*
Y029908D01*
X047166Y029909D02*
X047167Y029908D01*
Y029723D02*
X047167Y029722D01*
X05252Y027383D02*
X052572Y027331D01*
X052491Y027383D02*
X05252D01*
X052572Y027331D02*
X052637D01*
X052675Y027098D02*
Y027293D01*
Y027098D02*
X052678Y027095D01*
X052192Y02799D02*
X052457Y027725D01*
X052021Y02799D02*
X052192D01*
X052457Y027725D02*
Y027725D01*
Y027725D02*
X052672Y02751D01*
X051869Y028142D02*
X052021Y02799D01*
D72*
X044804Y028334D02*
Y028531D01*
X046379Y030303D02*
X046566D01*
X045591Y030893D02*
X045788Y03109D01*
X042867Y036349D02*
X042884Y036333D01*
Y035737D02*
Y036333D01*
X041831Y035963D02*
Y036107D01*
Y035963D02*
X041835Y035959D01*
X041823Y036115D02*
X041831Y036107D01*
X041823Y036115D02*
Y036336D01*
X041828Y03634D01*
X044389Y033858D02*
X044479Y033948D01*
X044856D02*
X045064Y034156D01*
X044479Y033948D02*
X044856D01*
X042072Y027843D02*
Y02816D01*
X041914Y02822D02*
X042012D01*
X042072Y02816D01*
X041845Y028318D02*
Y028674D01*
Y028288D02*
Y028318D01*
Y028288D02*
X041914Y02822D01*
X041966Y027738D02*
X042072Y027843D01*
X04441Y028729D02*
Y028729D01*
X045064Y034156D02*
X045458D01*
X046988Y036045D02*
X047338Y036395D01*
Y03657D01*
X046836Y036045D02*
X046988D01*
X047042Y036352D02*
X047135Y036445D01*
Y03657D01*
X046733Y036352D02*
X047042D01*
X046639Y036258D02*
X046733Y036352D01*
X046639Y036045D02*
Y036258D01*
X046442Y036364D02*
X046648Y03657D01*
X04691D01*
X046442Y036045D02*
Y036364D01*
X046049Y033705D02*
Y033739D01*
X051507Y032989D02*
X051529Y032967D01*
X051507Y032989D02*
Y033037D01*
X051529Y032938D02*
Y032967D01*
X051449Y033095D02*
X051507Y033037D01*
X053206Y032678D02*
Y033386D01*
X046245Y036521D02*
X046261Y036537D01*
X046245Y036045D02*
Y036521D01*
X04555Y032805D02*
Y032807D01*
Y032805D02*
X045751Y032604D01*
X046202D01*
X049154Y03177D02*
X049183D01*
X049098Y031825D02*
X049154Y03177D01*
X049002Y031825D02*
X049098D01*
X04893Y031897D02*
X049002Y031825D01*
X04691Y036778D02*
Y036929D01*
X045198Y027744D02*
X045394D01*
X047092Y034608D02*
X047656D01*
X047752D02*
X047858Y034503D01*
X048021Y03434D02*
X048246D01*
X047656Y034608D02*
X047752D01*
X047858Y034503D02*
X048021Y03434D01*
X04893Y031897D02*
X048961Y031929D01*
X049342D01*
X049501Y031769D01*
X051449Y033095D02*
Y03334D01*
X051441Y033348D02*
X051449Y03334D01*
X051428Y035748D02*
X051701D01*
X051706Y035752D01*
X051424Y035743D02*
X051428Y035748D01*
X053154Y033438D02*
X053206Y033386D01*
X050917Y033103D02*
X051232D01*
X050825Y033195D02*
X050917Y033103D01*
X051441D02*
X051449Y033095D01*
X049971Y031609D02*
X050131Y031769D01*
X049971Y031363D02*
Y031609D01*
X049905Y031297D02*
X049971Y031363D01*
X049659Y031297D02*
X049905D01*
X049501Y031454D02*
X049659Y031297D01*
X04346Y035364D02*
X043508Y035317D01*
X043459Y035466D02*
Y035706D01*
X04346Y035364D02*
Y035464D01*
X043508Y035289D02*
Y035317D01*
X043459Y035466D02*
X04346Y035464D01*
X048621Y036891D02*
X048824D01*
X050875Y036626D02*
X051095D01*
X050875D02*
X050882Y036633D01*
X047338Y036778D02*
Y036929D01*
X047134Y03693D02*
X047134Y03693D01*
Y036779D02*
X047135Y036778D01*
X047134Y036779D02*
Y03693D01*
X045562Y036537D02*
X045599Y036499D01*
X045828Y036069D02*
Y036162D01*
X045599Y036392D02*
X045828Y036162D01*
X045599Y036392D02*
Y036499D01*
X045828Y036069D02*
X045852Y036045D01*
X045008Y036564D02*
X045458Y036114D01*
X044994Y036734D02*
X045008Y03672D01*
Y036564D02*
Y03672D01*
X045458Y036045D02*
Y036114D01*
X044824Y036099D02*
Y036509D01*
X044619Y036714D02*
Y036734D01*
Y036714D02*
X044824Y036509D01*
Y036099D02*
X045133Y035789D01*
X045202D01*
X043229Y035706D02*
X043459D01*
X042357D02*
X042639D01*
X042357Y036349D02*
X042867D01*
X041828Y03634D02*
X041986D01*
X041995Y036349D01*
X04382Y028531D02*
X044016Y028334D01*
X044213Y028531D01*
X044016Y028334D02*
Y028334D01*
X044213Y028531D02*
Y028532D01*
X04382Y028531D02*
X04382D01*
X044213Y028532D02*
X04441Y028729D01*
X042603Y030102D02*
X042831D01*
X042598Y030098D02*
X042603Y030102D01*
X042831D02*
X042835Y030106D01*
X042833Y029912D02*
X042835Y029909D01*
X042454Y029912D02*
X042833D01*
X042452Y029914D02*
X042454Y029912D01*
X047113Y034432D02*
X047357D01*
X047092Y034411D02*
X047113Y034432D01*
X047357D02*
X047413D01*
X047444Y034402D01*
X044215Y031287D02*
X04441D01*
X044213Y030303D02*
X044218D01*
X05138Y026512D02*
X051391Y026523D01*
Y02736D01*
X048345Y034503D02*
X048437Y034411D01*
Y034077D02*
Y034149D01*
X048246Y03434D02*
X048437Y034149D01*
X047476Y034057D02*
Y034077D01*
D73*
X045985Y030893D02*
X046182D01*
X046182Y030893D01*
X045985Y030893D02*
X045985Y030893D01*
X04599Y03109D02*
X046182D01*
X046772Y031287D02*
X046969D01*
X046969Y031287D01*
X046772Y031287D02*
X046772Y031287D01*
X046388Y031484D02*
X046576D01*
X046388Y031287D02*
X046576D01*
X046576Y03109D02*
X046576Y03109D01*
X046379Y03109D02*
X046379Y03109D01*
X046576D01*
X046969D02*
X046969Y03109D01*
X046772Y03109D02*
X046772Y03109D01*
X046969D01*
X046576Y030893D02*
X046774D01*
X046772Y031484D02*
X046966D01*
X047166Y031493D02*
Y031681D01*
X050298Y030362D02*
Y030364D01*
X050131Y030195D02*
Y030196D01*
X050298Y030362D01*
X052462Y028714D02*
X052592D01*
X052658Y028647D01*
X051233Y031612D02*
X051391Y031769D01*
X051391D01*
X051233Y031927D02*
X051391Y032084D01*
X051233Y031927D02*
X051233D01*
X04836Y03063D02*
X048563D01*
X048615Y030682D02*
X048645D01*
X048229Y030499D02*
X04836Y03063D01*
X048563D02*
X048615Y030682D01*
X04756Y030499D02*
X048229D01*
X050125Y030509D02*
X050131D01*
X049979Y030364D02*
X050125Y030509D01*
X049974Y030364D02*
X049979D01*
D74*
X046772Y029909D02*
Y030106D01*
X049198Y030039D02*
X049656D01*
X049816Y02988D01*
X049187Y030051D02*
X049198Y030039D01*
X052494Y027067D02*
Y027168D01*
Y027067D02*
X052678Y026883D01*
X052486Y027176D02*
X052494Y027168D01*
X046772Y028531D02*
Y028728D01*
X050131Y027675D02*
X050344D01*
X050441Y027439D02*
Y027578D01*
X050344Y027675D02*
X050441Y027578D01*
X050397Y027363D02*
Y027395D01*
X050441Y027439D01*
X051714Y02736D02*
X051861Y027212D01*
Y026668D02*
Y027212D01*
X051746Y026552D02*
X051861Y026668D01*
X051541Y026659D02*
X051648Y026552D01*
X051746D01*
X051541Y026659D02*
Y027527D01*
X051706Y02736D02*
X051714D01*
X047716Y029556D02*
X047747D01*
X04756Y029515D02*
X047675D01*
X047716Y029556D01*
D75*
X048761Y029857D02*
X048829Y029925D01*
X049111D02*
X049157Y02988D01*
X048829Y029925D02*
X049111D01*
X048761Y029722D02*
Y029857D01*
X048855Y029629D02*
X048895D01*
X04893Y029594D01*
X048761Y029722D02*
X048855Y029629D01*
X049157Y02988D02*
X049501D01*
X042454Y026393D02*
X042646Y026584D01*
Y026766D02*
X042853Y026973D01*
X042646Y026584D02*
Y026766D01*
X042454Y025976D02*
Y026393D01*
Y025976D02*
X042575Y025855D01*
X042958D01*
X043111Y026008D01*
X048614Y035006D02*
Y035965D01*
X046971Y030697D02*
X047166Y030892D01*
X046971Y030696D02*
Y030697D01*
X047166Y030892D02*
Y030893D01*
X047164D02*
X047166D01*
X042051Y031444D02*
X042072Y031464D01*
Y031585D01*
X042092Y031605D01*
X048614Y035006D02*
X048614Y035006D01*
X041786Y034629D02*
Y034818D01*
X043612Y034851D02*
Y035064D01*
X043639Y035466D02*
Y035663D01*
X043996Y035198D02*
Y035546D01*
Y034851D02*
Y035198D01*
Y034503D02*
Y034851D01*
Y034156D02*
Y034503D01*
D76*
X043149Y033507D02*
X043686D01*
X042935Y033294D02*
X042935D01*
X043149Y033507D01*
X042837Y033195D02*
X042935Y033294D01*
X043686Y033507D02*
X043955Y033238D01*
Y03316D02*
Y033238D01*
X044153Y033919D02*
X044389Y034156D01*
X043779Y033919D02*
X044153D01*
X043669Y034029D02*
X043779Y033919D01*
X043502Y034029D02*
X043669D01*
D77*
X043288Y031273D02*
X043374Y031187D01*
X043071Y031387D02*
X043186Y031273D01*
X043469Y031187D02*
X043623Y031341D01*
X043186Y031273D02*
X043288D01*
X043623Y031341D02*
Y031484D01*
X043374Y031187D02*
X043469D01*
X042777Y031387D02*
X043071D01*
X043507Y031116D02*
X043678Y031287D01*
X043345Y031116D02*
X043507D01*
X043678Y031287D02*
X04382D01*
X043272Y031188D02*
X043345Y031116D01*
X042735Y031188D02*
X043272D01*
D78*
X041718Y028191D02*
X041845Y028318D01*
X041718Y027533D02*
Y028191D01*
Y027533D02*
X041871Y02738D01*
D79*
X047178Y027038D02*
Y027141D01*
X047408Y026808D02*
X047691D01*
X047178Y027038D02*
X047408Y026808D01*
X047691D02*
X047944Y026554D01*
Y026469D02*
Y026554D01*
Y026469D02*
X048013Y026401D01*
X047166Y027153D02*
X047178Y027141D01*
D80*
X051248Y034575D02*
X051586Y034237D01*
X051248Y034929D02*
X051598Y035279D01*
X051248Y034575D02*
Y034929D01*
X051598Y035279D02*
Y035289D01*
D81*
X052715Y032056D02*
X052716Y032057D01*
X052574Y032055D02*
X052575Y032056D01*
X052715D01*
X05272Y030877D02*
X052851D01*
X052717Y030879D02*
X05272Y030877D01*
X052851D02*
X052961Y030767D01*
Y030513D02*
Y030767D01*
X052576Y029294D02*
X052716D01*
X052717Y029295D01*
X052575Y029292D02*
X052576Y029294D01*
X052042Y02925D02*
X052085Y029292D01*
X052021Y02925D02*
X052042D01*
X052085Y029292D02*
X052575D01*
X052785Y029705D02*
X052925D01*
X052566Y030139D02*
X052575Y03013D01*
X052097Y030139D02*
X052566D01*
X052042Y030195D02*
X052097Y030139D01*
X052575Y03013D02*
X05279D01*
X052126Y029985D02*
X052512D01*
X052021Y02988D02*
X052126Y029985D01*
X052512D02*
X052575Y029922D01*
X052716Y031087D02*
X052717Y031088D01*
X052575Y031086D02*
X052576Y031087D01*
X052716D01*
X052576Y031717D02*
X052716D01*
X052717Y031718D01*
X052575Y031716D02*
X052576Y031717D01*
X052042Y031139D02*
X052095Y031086D01*
X052575D01*
X052021Y031139D02*
X052042D01*
Y031769D02*
X052095Y031716D01*
X052575D01*
X052021Y031769D02*
X052042D01*
X052545Y032084D02*
X052574Y032055D01*
X052021Y032084D02*
X052545D01*
X051706Y030195D02*
X052021Y02988D01*
X052575Y029922D02*
X05279D01*
X051391Y030195D02*
X051706Y030509D01*
X052021Y030195D01*
X052042D01*
X052792Y029924D02*
X052933D01*
X052792Y030133D02*
X052933D01*
D82*
X046156Y032042D02*
Y032116D01*
Y032042D02*
X04628Y031918D01*
Y031778D02*
Y031918D01*
X046182Y031681D02*
X04628Y031778D01*
X046133Y032139D02*
X046156Y032116D01*
X04634Y032018D02*
Y03205D01*
Y032018D02*
X046379Y031979D01*
Y031877D02*
Y031979D01*
X045788Y031681D02*
X045886Y031778D01*
X045739Y032306D02*
X045886Y03216D01*
Y031778D02*
Y03216D01*
X045946Y032274D02*
X045985Y032235D01*
X045946Y032274D02*
Y032306D01*
X045985Y031877D02*
Y032235D01*
X046576Y031877D02*
Y032146D01*
X046476Y031778D02*
Y032096D01*
X046369Y032203D02*
X046476Y032096D01*
X046379Y031681D02*
X046476Y031778D01*
X046369Y032203D02*
Y032355D01*
X045399Y032034D02*
X045494Y03194D01*
Y031778D02*
Y03194D01*
Y031778D02*
X045591Y031681D01*
X045399Y032034D02*
Y03204D01*
X045594Y032031D02*
X045596Y032034D01*
X045594Y03188D02*
Y032031D01*
X045591Y031877D02*
X045594Y03188D01*
D83*
X052593Y02895D02*
X052658Y029016D01*
X052462Y02895D02*
X052593D01*
D84*
X051391Y02925D02*
X051556Y029414D01*
X051548Y029092D02*
X051706Y02925D01*
X051548Y029092D02*
X051548D01*
D85*
X044031Y031892D02*
Y032003D01*
X044016Y031877D02*
X044031Y031892D01*
Y032003D02*
X044049Y032022D01*
X044503Y03197D02*
Y032063D01*
X044515Y032074D01*
X04441Y031877D02*
X044503Y03197D01*
D86*
X041775Y03769D02*
D03*
X042208D02*
D03*
X042641D02*
D03*
X043074D02*
D03*
X043507D02*
D03*
X04394D02*
D03*
X044373D02*
D03*
X044806D02*
D03*
X045239D02*
D03*
X045673D02*
D03*
X046106D02*
D03*
X046539D02*
D03*
X046972D02*
D03*
X047405D02*
D03*
X047838D02*
D03*
X048271D02*
D03*
X048704D02*
D03*
X049137D02*
D03*
X04957D02*
D03*
X050003D02*
D03*
X050436D02*
D03*
X050869D02*
D03*
X051302D02*
D03*
X0538Y02591D02*
D03*
X041005D02*
D03*
Y026343D02*
D03*
Y026776D02*
D03*
Y027209D02*
D03*
Y027642D02*
D03*
Y028075D02*
D03*
Y028509D02*
D03*
Y028942D02*
D03*
Y029375D02*
D03*
Y029808D02*
D03*
Y030241D02*
D03*
Y030674D02*
D03*
Y031107D02*
D03*
Y03154D02*
D03*
Y031973D02*
D03*
Y032406D02*
D03*
Y032839D02*
D03*
Y033272D02*
D03*
Y033705D02*
D03*
Y034138D02*
D03*
Y034571D02*
D03*
Y035005D02*
D03*
Y035438D02*
D03*
Y035871D02*
D03*
Y036304D02*
D03*
Y036737D02*
D03*
Y03717D02*
D03*
Y02591D02*
D03*
Y026343D02*
D03*
Y026776D02*
D03*
Y027209D02*
D03*
Y027642D02*
D03*
Y028075D02*
D03*
Y028509D02*
D03*
Y028942D02*
D03*
Y029375D02*
D03*
Y029808D02*
D03*
Y030241D02*
D03*
Y030674D02*
D03*
Y031107D02*
D03*
Y03154D02*
D03*
Y031973D02*
D03*
Y032406D02*
D03*
Y032839D02*
D03*
Y033272D02*
D03*
Y033705D02*
D03*
Y034138D02*
D03*
Y034571D02*
D03*
Y035005D02*
D03*
Y035438D02*
D03*
Y035871D02*
D03*
Y036304D02*
D03*
Y036737D02*
D03*
Y03717D02*
D03*
X053035Y03769D02*
D03*
X052602D02*
D03*
X052169D02*
D03*
X051736D02*
D03*
X0538Y03717D02*
D03*
Y036737D02*
D03*
Y036304D02*
D03*
Y035871D02*
D03*
Y035438D02*
D03*
Y035005D02*
D03*
Y034571D02*
D03*
Y034138D02*
D03*
Y033705D02*
D03*
Y033272D02*
D03*
Y032839D02*
D03*
Y032406D02*
D03*
Y031973D02*
D03*
Y03154D02*
D03*
Y031107D02*
D03*
Y030674D02*
D03*
Y030241D02*
D03*
Y029808D02*
D03*
Y029375D02*
D03*
Y028942D02*
D03*
Y028509D02*
D03*
Y028075D02*
D03*
Y027642D02*
D03*
Y027209D02*
D03*
Y026776D02*
D03*
Y026343D02*
D03*
X045239Y025407D02*
D03*
X045673D02*
D03*
X046106D02*
D03*
X046539D02*
D03*
X046972D02*
D03*
X047405D02*
D03*
X047838D02*
D03*
X048271D02*
D03*
X048704D02*
D03*
X049137D02*
D03*
X04957D02*
D03*
X050003D02*
D03*
X050436D02*
D03*
X050869D02*
D03*
X051302D02*
D03*
X051736D02*
D03*
X052169D02*
D03*
X052602D02*
D03*
X053035D02*
D03*
X044806D02*
D03*
X044373D02*
D03*
X04394D02*
D03*
X043507D02*
D03*
X043074D02*
D03*
X042641D02*
D03*
X042208D02*
D03*
X041775D02*
D03*
D87*
X053515Y025597D02*
D03*
X052973Y035899D02*
D03*
X053201Y036411D02*
D03*
X0532Y036862D02*
D03*
X05319Y035899D02*
D03*
X047068Y032468D02*
D03*
X047265Y032361D02*
D03*
X05278Y032748D02*
D03*
X048931Y03007D02*
D03*
X049187Y030051D02*
D03*
X046379Y029712D02*
D03*
X041835Y035959D02*
D03*
X041617Y036486D02*
D03*
X041616Y035977D02*
D03*
X041806Y034265D02*
D03*
X041806Y034474D02*
D03*
X042526Y034084D02*
D03*
X042535Y034363D02*
D03*
X042145Y034641D02*
D03*
Y034818D02*
D03*
X043072Y033718D02*
D03*
X044389Y033905D02*
D03*
X043917Y033612D02*
D03*
X043766Y033728D02*
D03*
X046659Y03344D02*
D03*
X042504Y026632D02*
D03*
X042635Y027752D02*
D03*
X042526Y027941D02*
D03*
X047097Y026924D02*
D03*
X043767Y035559D02*
D03*
X043747Y034608D02*
D03*
X043748Y034851D02*
D03*
Y035064D02*
D03*
X043794Y036445D02*
D03*
X043957Y0366D02*
D03*
X046147Y035706D02*
D03*
X045695Y034862D02*
D03*
X046147D02*
D03*
X045695Y035096D02*
D03*
X045558Y035706D02*
D03*
X046147Y0351D02*
D03*
X047708Y033639D02*
D03*
X047869Y033837D02*
D03*
X047922Y035219D02*
D03*
X046588Y033612D02*
D03*
X050462Y036764D02*
D03*
Y036304D02*
D03*
X050462Y036528D02*
D03*
X051418Y036846D02*
D03*
X052476Y034993D02*
D03*
X049342Y033237D02*
D03*
X049737Y033391D02*
D03*
X051871Y032885D02*
D03*
Y032665D02*
D03*
X051529Y032938D02*
D03*
X050316Y034813D02*
D03*
Y034606D02*
D03*
X049137Y035234D02*
D03*
X04893D02*
D03*
X048931Y035438D02*
D03*
X049138D02*
D03*
X051706Y033391D02*
D03*
X04893Y029397D02*
D03*
X046576Y02794D02*
D03*
X042853Y026973D02*
D03*
X044608Y029909D02*
D03*
X045189Y031287D02*
D03*
X048886Y034769D02*
D03*
Y034491D02*
D03*
X052376Y031891D02*
D03*
X052227Y026569D02*
D03*
X052491Y027383D02*
D03*
X052486Y027176D02*
D03*
X05267Y028335D02*
D03*
X052717Y029295D02*
D03*
Y029503D02*
D03*
X052925Y029705D02*
D03*
X052386Y029826D02*
D03*
X052933Y029924D02*
D03*
Y030133D02*
D03*
X052972Y031695D02*
D03*
X052717Y030879D02*
D03*
Y031088D02*
D03*
X052403Y032445D02*
D03*
X052404Y032686D02*
D03*
X052717Y031509D02*
D03*
Y031718D02*
D03*
X052376Y031285D02*
D03*
X052716Y032057D02*
D03*
Y032266D02*
D03*
X046133Y032139D02*
D03*
X04634Y03205D02*
D03*
X045739Y032306D02*
D03*
X045946D02*
D03*
X044653Y036176D02*
D03*
X046536Y032218D02*
D03*
X046369Y032355D02*
D03*
X046901D02*
D03*
X046674D02*
D03*
X046576Y03109D02*
D03*
X046388Y031287D02*
D03*
X045399Y03204D02*
D03*
X045596Y032034D02*
D03*
X046966Y031484D02*
D03*
X046388D02*
D03*
X047166Y031493D02*
D03*
X046772Y031287D02*
D03*
X045985Y030893D02*
D03*
X04599Y03109D02*
D03*
X046774Y030893D02*
D03*
X046969Y03109D02*
D03*
X049668Y030678D02*
D03*
X052227Y028568D02*
D03*
X049472Y033391D02*
D03*
X04856Y02931D02*
D03*
X048565Y02909D02*
D03*
X052462Y02895D02*
D03*
Y028714D02*
D03*
X049838Y037031D02*
D03*
X04787Y036425D02*
D03*
X04555Y032807D02*
D03*
X049206Y027596D02*
D03*
X050271Y027202D02*
D03*
X048915Y027586D02*
D03*
X051011Y029965D02*
D03*
X050749Y030485D02*
D03*
X049157Y032117D02*
D03*
X050927Y032061D02*
D03*
X050579Y031963D02*
D03*
X049183Y03177D02*
D03*
X050861Y03239D02*
D03*
X048178Y028086D02*
D03*
X051151Y029657D02*
D03*
X048085Y028507D02*
D03*
X050397Y027363D02*
D03*
X048024Y028289D02*
D03*
X047168Y029327D02*
D03*
X048527Y028647D02*
D03*
X050289Y029407D02*
D03*
X047796Y028505D02*
D03*
X047919Y02869D02*
D03*
X047747Y029556D02*
D03*
X047928Y029473D02*
D03*
X047934Y029672D02*
D03*
X048234Y029592D02*
D03*
X048516Y029495D02*
D03*
X051118Y028504D02*
D03*
X050345Y028348D02*
D03*
X050363Y028641D02*
D03*
X051116Y027742D02*
D03*
X051116Y027964D02*
D03*
X048134Y028881D02*
D03*
X051541Y027527D02*
D03*
X051163Y028977D02*
D03*
X051869Y028462D02*
D03*
X051881Y027855D02*
D03*
X051556Y029414D02*
D03*
X051548Y029092D02*
D03*
X050444Y030202D02*
D03*
X050298Y030364D02*
D03*
X04859Y02793D02*
D03*
X04859Y02772D02*
D03*
X051166Y030298D02*
D03*
X051548Y030982D02*
D03*
X051233Y031927D02*
D03*
X048645Y030477D02*
D03*
X051233Y031612D02*
D03*
X048645Y030682D02*
D03*
X047788Y031332D02*
D03*
X048645Y030887D02*
D03*
X051867Y031614D02*
D03*
X049974Y030364D02*
D03*
X046971Y030696D02*
D03*
X047165D02*
D03*
X046968Y030502D02*
D03*
X051177Y032229D02*
D03*
X051547Y031931D02*
D03*
X044576Y026177D02*
D03*
X044353Y026439D02*
D03*
X052924Y026083D02*
D03*
X053045Y026245D02*
D03*
X052658Y026248D02*
D03*
X044605Y028133D02*
D03*
X042145Y029299D02*
D03*
X042284Y029451D02*
D03*
X042092Y031605D02*
D03*
X04398Y03149D02*
D03*
X042415Y031445D02*
D03*
X042607Y032766D02*
D03*
X042463Y032938D02*
D03*
X042452Y031842D02*
D03*
X042208Y03188D02*
D03*
X044049Y032022D02*
D03*
X043457Y03203D02*
D03*
X043666Y03203D02*
D03*
X043229Y031484D02*
D03*
X043426Y031484D02*
D03*
X042702Y031768D02*
D03*
X044016Y031287D02*
D03*
X043623Y030323D02*
D03*
X044016Y030501D02*
D03*
X043707Y026689D02*
D03*
X043381Y026681D02*
D03*
X042869Y026681D02*
D03*
X043126Y026945D02*
D03*
X043382D02*
D03*
X043125Y026681D02*
D03*
X043646Y026956D02*
D03*
X044607Y027547D02*
D03*
X043229Y027744D02*
D03*
X043426Y028334D02*
D03*
X043229D02*
D03*
X043623Y028925D02*
D03*
X043426Y029122D02*
D03*
X053095Y026794D02*
D03*
X04691Y03693D02*
D03*
X045198Y027744D02*
D03*
X044824Y026956D02*
D03*
X045784Y02794D02*
D03*
X045394Y031484D02*
D03*
X045788D02*
D03*
X045591Y031287D02*
D03*
X051613Y03703D02*
D03*
Y036846D02*
D03*
X049453Y036794D02*
D03*
X051959Y036037D02*
D03*
X051782Y036036D02*
D03*
X049978Y027198D02*
D03*
X048896Y031712D02*
D03*
X052082Y032665D02*
D03*
X052638Y034993D02*
D03*
X051863Y028777D02*
D03*
X049974Y029407D02*
D03*
X049076Y028986D02*
D03*
X051548Y028462D02*
D03*
X046202Y033531D02*
D03*
X048824Y036891D02*
D03*
X04644Y03693D02*
D03*
X051095Y036626D02*
D03*
X048036Y036903D02*
D03*
X04624Y036381D02*
D03*
X047337Y03693D02*
D03*
X047134Y03693D02*
D03*
X047868Y035643D02*
D03*
X047717Y027627D02*
D03*
X044725Y035913D02*
D03*
X043761Y035882D02*
D03*
X043508Y035289D02*
D03*
X044607Y028729D02*
D03*
Y02794D02*
D03*
X044213Y027547D02*
D03*
X042454Y027252D02*
D03*
X04254Y028537D02*
D03*
X042598Y030098D02*
D03*
X042452Y029914D02*
D03*
X042664Y027296D02*
D03*
X046379Y028137D02*
D03*
X045984Y028729D02*
D03*
X046576Y028334D02*
D03*
Y028729D02*
D03*
X04775Y030659D02*
D03*
X048044Y031647D02*
D03*
X052019Y026569D02*
D03*
X045591Y028339D02*
D03*
X045198Y02794D02*
D03*
X04503Y026956D02*
D03*
X048466Y031484D02*
D03*
X0483Y031942D02*
D03*
X047177Y030502D02*
D03*
X047166Y031278D02*
D03*
X046377Y030499D02*
D03*
X047788Y031647D02*
D03*
X0483Y031312D02*
D03*
X048044D02*
D03*
X047788Y031942D02*
D03*
X048219Y032454D02*
D03*
X048044Y031942D02*
D03*
X045198Y032074D02*
D03*
X044942Y032067D02*
D03*
X047565Y026676D02*
D03*
X047329Y026676D02*
D03*
X047092Y026676D02*
D03*
X047166Y027547D02*
D03*
X046379Y028531D02*
D03*
X045887Y026745D02*
D03*
X046143Y026981D02*
D03*
X046399D02*
D03*
X045985Y02794D02*
D03*
X046182Y028334D02*
D03*
X046969Y02794D02*
D03*
X047166Y027744D02*
D03*
X046969Y027547D02*
D03*
X046143Y026745D02*
D03*
X046399D02*
D03*
X045887Y026981D02*
D03*
X045631Y026981D02*
D03*
X045631Y026745D02*
D03*
X046182Y027547D02*
D03*
X045788D02*
D03*
X045394D02*
D03*
X045001D02*
D03*
X044804Y027744D02*
D03*
X045591D02*
D03*
X044607Y026956D02*
D03*
X044016Y027744D02*
D03*
X044213Y027744D02*
D03*
X04382Y028925D02*
D03*
Y028334D02*
D03*
X044016Y027547D02*
D03*
X043426Y02794D02*
D03*
X043623Y028137D02*
D03*
X043426Y028531D02*
D03*
X043623Y028728D02*
D03*
X04254Y028774D02*
D03*
X04254Y028989D02*
D03*
X042535Y029222D02*
D03*
X043229Y029712D02*
D03*
Y029318D02*
D03*
X043426Y029913D02*
D03*
X043229Y030109D02*
D03*
X043623D02*
D03*
X043627Y029515D02*
D03*
X04343D02*
D03*
X048219Y03222D02*
D03*
X046576Y030695D02*
D03*
X046379Y030892D02*
D03*
X046182Y030696D02*
D03*
X045788Y03109D02*
D03*
Y030898D02*
D03*
X044215Y031287D02*
D03*
X044515Y032074D02*
D03*
X044213Y031484D02*
D03*
X044613D02*
D03*
X044805Y031287D02*
D03*
X04441Y03109D02*
D03*
X043508Y035886D02*
D03*
X042525Y033915D02*
D03*
X043825Y030106D02*
D03*
X041668Y035303D02*
D03*
X052084Y032885D02*
D03*
X04382Y029318D02*
D03*
X049216Y033394D02*
D03*
X049528Y033084D02*
D03*
X044864Y034182D02*
D03*
X045001Y030884D02*
D03*
X045391Y03089D02*
D03*
X045591Y030696D02*
D03*
X045985Y02813D02*
D03*
X045788Y029122D02*
D03*
X04441Y029515D02*
D03*
X045394Y028531D02*
D03*
Y028137D02*
D03*
X045001D02*
D03*
X045202Y03109D02*
D03*
X044607Y030893D02*
D03*
X045788Y028724D02*
D03*
X044607Y030303D02*
D03*
X045001Y030496D02*
D03*
X044607Y029508D02*
D03*
Y029122D02*
D03*
X044018Y028532D02*
D03*
X04382Y028728D02*
D03*
X045792Y02813D02*
D03*
X046379Y029914D02*
D03*
X044215Y028336D02*
D03*
X045985Y030303D02*
D03*
X046566D02*
D03*
X043829Y029712D02*
D03*
X04441Y030892D02*
D03*
X044016Y029122D02*
D03*
X044804Y028334D02*
D03*
X046576Y030106D02*
D03*
X046772D02*
D03*
X046763Y030303D02*
D03*
X04966Y02751D02*
D03*
X049657Y029406D02*
D03*
X050419Y028931D02*
D03*
X049978Y02751D02*
D03*
X04878Y031056D02*
D03*
X046182Y029318D02*
D03*
X045995Y029909D02*
D03*
X045985Y029116D02*
D03*
X046182Y028931D02*
D03*
X046379Y029508D02*
D03*
X046381Y029122D02*
D03*
X046576Y028925D02*
D03*
X046772D02*
D03*
X046969Y029122D02*
D03*
X046772Y028728D02*
D03*
X045383Y030111D02*
D03*
X045591Y030102D02*
D03*
X045788Y029909D02*
D03*
X045788Y030305D02*
D03*
X045394Y030496D02*
D03*
X045001Y029318D02*
D03*
X045001Y029712D02*
D03*
X045197Y029122D02*
D03*
X044804Y029711D02*
D03*
X045591Y029318D02*
D03*
X045394Y029712D02*
D03*
X04441Y030293D02*
D03*
X044218Y030692D02*
D03*
X044804Y030693D02*
D03*
X044016Y029909D02*
D03*
X0448Y030106D02*
D03*
X045198Y030303D02*
D03*
X045788Y029515D02*
D03*
X045591Y029722D02*
D03*
X045001Y028925D02*
D03*
X045394D02*
D03*
X044804Y029317D02*
D03*
X04441Y029908D02*
D03*
X044805Y028728D02*
D03*
X04441Y028729D02*
D03*
X045985Y029515D02*
D03*
X047168Y029122D02*
D03*
X046763Y029515D02*
D03*
X046576Y029318D02*
D03*
X049651Y02783D02*
D03*
X047167Y029722D02*
D03*
X047168Y030106D02*
D03*
X049981Y028144D02*
D03*
X051562Y027839D02*
D03*
X046969Y029515D02*
D03*
X051541Y028155D02*
D03*
X046969Y029909D02*
D03*
X051548Y029722D02*
D03*
X046576Y029712D02*
D03*
X049974Y030037D02*
D03*
X05057Y03003D02*
D03*
X049651Y028777D02*
D03*
X049657Y027206D02*
D03*
X046969Y028336D02*
D03*
X046966Y028531D02*
D03*
X047166Y028334D02*
D03*
X047168Y028531D02*
D03*
X051241Y028774D02*
D03*
X050289Y029739D02*
D03*
X049651Y031933D02*
D03*
X051548Y028784D02*
D03*
X046772Y028137D02*
D03*
X051869Y028142D02*
D03*
D88*
X047068Y032978D02*
D03*
X042884Y03596D02*
D03*
X043941Y032703D02*
D03*
X045519Y033305D02*
D03*
X045411Y033842D02*
D03*
X047987Y034969D02*
D03*
X052716Y035743D02*
D03*
X050431Y036018D02*
D03*
X052574Y033785D02*
D03*
X053095Y033794D02*
D03*
X044207Y032697D02*
D03*
X049021Y036387D02*
D03*
X042863Y035423D02*
D03*
X042611Y035234D02*
D03*
X052004Y034451D02*
D03*
X052558D02*
D03*
X052848Y035396D02*
D03*
X051424Y035743D02*
D03*
X049023Y036161D02*
D03*
X049138Y035813D02*
D03*
X045887Y036381D02*
D03*
X043403Y034663D02*
D03*
X04254Y036588D02*
D03*
X047357Y034432D02*
D03*
X042639Y035706D02*
D03*
X044389Y034503D02*
D03*
Y034851D02*
D03*
Y035198D02*
D03*
X04709Y034156D02*
D03*
M02*
