G04*
G04 #@! TF.GenerationSoftware,Altium Limited,Altium Designer,18.1.6 (161)*
G04*
G04 Layer_Physical_Order=5*
G04 Layer_Color=16776960*
%FSTAX24Y24*%
%MOIN*%
G70*
G01*
G75*
%ADD12C,0.0039*%
%ADD71C,0.0048*%
%ADD73C,0.0041*%
%ADD86C,0.0315*%
%ADD87C,0.0157*%
G36*
X041983Y036057D02*
X04213Y03591D01*
Y03492D01*
X042104Y034915D01*
X04207Y034893D01*
X042047Y034858D01*
X042039Y034818D01*
X042047Y034777D01*
X04207Y034743D01*
Y034716D01*
X042047Y034682D01*
X042039Y034641D01*
X042047Y034601D01*
X04207Y034566D01*
X042104Y034543D01*
X04213Y034538D01*
Y032868D01*
X043372Y031626D01*
X043362Y031566D01*
X043351Y031559D01*
X043304Y031559D01*
X04327Y031581D01*
X043229Y03159D01*
X043189Y031581D01*
X043154Y031559D01*
X043131Y031524D01*
X043123Y031484D01*
X043131Y031443D01*
X043154Y031409D01*
X043189Y031386D01*
X043229Y031378D01*
X04327Y031386D01*
X043304Y031409D01*
X043351Y031409D01*
X043385Y031386D01*
X043426Y031378D01*
X043466Y031386D01*
X043501Y031409D01*
X043508Y031419D01*
X043568Y03143D01*
X044164Y030834D01*
X044153Y030774D01*
X044143Y030767D01*
X04412Y030733D01*
X044112Y030692D01*
X04412Y030652D01*
X044143Y030617D01*
X044177Y030594D01*
X044218Y030586D01*
X044258Y030594D01*
X044292Y030617D01*
X044299Y030628D01*
X04436Y030638D01*
X044553Y030445D01*
X044543Y030384D01*
X044532Y030377D01*
X044485Y030368D01*
X044451Y030391D01*
X04441Y030399D01*
X04437Y030391D01*
X044335Y030368D01*
X044312Y030333D01*
X044304Y030293D01*
X044312Y030252D01*
X044335Y030218D01*
X04437Y030195D01*
X04441Y030187D01*
X044451Y030195D01*
X044485Y030218D01*
X044532Y030228D01*
X044567Y030205D01*
X044607Y030197D01*
X044648Y030205D01*
X044682Y030228D01*
X044713Y030214D01*
X044725Y030181D01*
X044702Y030146D01*
X044694Y030106D01*
X044702Y030065D01*
X044725Y030031D01*
X04476Y030008D01*
X0448Y03D01*
X044841Y030008D01*
X044875Y030031D01*
X044883Y030044D01*
X044943Y030055D01*
X045289Y029708D01*
X045297Y029672D01*
X04532Y029637D01*
X045354Y029614D01*
X045391Y029607D01*
X045537Y029461D01*
X045527Y0294D01*
X045517Y029393D01*
X045494Y029359D01*
X045486Y029318D01*
X045494Y029278D01*
X045517Y029244D01*
X045551Y029221D01*
X045591Y029213D01*
X045632Y029221D01*
X045666Y029244D01*
X045689Y029278D01*
X045697Y029318D01*
X045689Y029359D01*
X045685Y029364D01*
X045712Y029414D01*
X045764D01*
X045788Y029409D01*
X045796Y029411D01*
X045881Y029326D01*
X045881Y029123D01*
X045879Y029116D01*
X045881Y029109D01*
X045881Y02896D01*
X045767Y028846D01*
X045527D01*
X045515Y028859D01*
X045495Y028896D01*
X0455Y028925D01*
X045492Y028965D01*
X045469Y028999D01*
X045435Y029022D01*
X045394Y02903D01*
X045354Y029022D01*
X04532Y028999D01*
X045297Y028965D01*
X045289Y028925D01*
X045294Y028896D01*
X045263Y028859D01*
X045218Y02886D01*
X044889Y029189D01*
X044894Y029208D01*
X044951Y029227D01*
X04496Y029221D01*
X045001Y029213D01*
X045041Y029221D01*
X045076Y029244D01*
X045098Y029278D01*
X045107Y029318D01*
X045098Y029359D01*
X045076Y029393D01*
X045041Y029416D01*
X045001Y029424D01*
X04496Y029416D01*
X044931Y029397D01*
X044926Y029393D01*
X044879Y029392D01*
X044844Y029415D01*
X044804Y029423D01*
X044763Y029415D01*
X044729Y029392D01*
X044727Y029392D01*
X044687Y029429D01*
X044684Y029437D01*
X044705Y029468D01*
X044713Y029508D01*
X044705Y029549D01*
X044682Y029583D01*
X044648Y029606D01*
X044607Y029614D01*
X044567Y029606D01*
X044532Y029583D01*
X044498Y02958D01*
X043904Y030173D01*
X0439Y030181D01*
X043892Y030185D01*
X043723Y030355D01*
X043721Y030364D01*
X043698Y030398D01*
X043664Y030421D01*
X043655Y030423D01*
X042358Y031719D01*
X04239Y031758D01*
X042411Y031744D01*
X042452Y031736D01*
X042492Y031744D01*
X042527Y031767D01*
X042549Y031801D01*
X042558Y031842D01*
X042549Y031882D01*
X042527Y031917D01*
X042492Y03194D01*
X042452Y031948D01*
X042411Y03194D01*
X042377Y031917D01*
X042362Y031894D01*
X042314Y031898D01*
X04231Y031899D01*
X042306Y03192D01*
X042283Y031954D01*
X042248Y031977D01*
X042208Y031985D01*
X042167Y031977D01*
X042133Y031954D01*
X042124Y031954D01*
X041668Y03241D01*
X041668Y034195D01*
X041718Y034211D01*
X041731Y03419D01*
X041766Y034167D01*
X041806Y034159D01*
X041847Y034167D01*
X041881Y03419D01*
X041904Y034224D01*
X041912Y034265D01*
X041904Y034305D01*
X041881Y03434D01*
X041881Y034399D01*
X041904Y034433D01*
X041912Y034474D01*
X041904Y034514D01*
X041881Y034549D01*
X041847Y034572D01*
X041806Y03458D01*
X041766Y034572D01*
X041731Y034549D01*
X041718Y034528D01*
X041668Y034543D01*
Y035197D01*
X041708Y035205D01*
X041742Y035228D01*
X041765Y035263D01*
X041773Y035303D01*
X041765Y035344D01*
X041742Y035378D01*
X041708Y035401D01*
X041668Y035409D01*
Y035887D01*
X041691Y035902D01*
X041714Y035936D01*
X041717Y035956D01*
X041819Y036057D01*
X041983Y036057D01*
D02*
G37*
G36*
X043623Y03592D02*
X043623Y035863D01*
X04329Y03553D01*
Y034751D01*
X043268Y034719D01*
X043257Y034663D01*
X043268Y034607D01*
X04329Y034576D01*
X04329Y033049D01*
X045091Y031247D01*
X045091Y031246D01*
X045112Y031215D01*
X045115Y031209D01*
X045127Y031165D01*
X045119Y031153D01*
X045104Y03113D01*
X045096Y03109D01*
X045104Y03105D01*
X045127Y031015D01*
X045162Y030992D01*
X045202Y030984D01*
X045243Y030992D01*
X045272Y031012D01*
X045282Y031009D01*
X045287Y031004D01*
X045317Y030965D01*
X045294Y030931D01*
X045286Y03089D01*
X045294Y03085D01*
X045317Y030815D01*
X045351Y030792D01*
X045391Y030784D01*
X045432Y030792D01*
X045466Y030815D01*
X045503Y030784D01*
X045517Y030771D01*
X045517Y030771D01*
X045494Y030737D01*
X045486Y030696D01*
X045494Y030656D01*
X045517Y030622D01*
X045551Y030599D01*
X045591Y030591D01*
X045632Y030599D01*
X045666Y030622D01*
X045712Y030626D01*
X045788Y03055D01*
Y030411D01*
X045788Y030411D01*
X045748Y030403D01*
X045713Y03038D01*
X04569Y030345D01*
X045682Y030305D01*
X04569Y030264D01*
X045713Y03023D01*
X045748Y030207D01*
X045788Y030199D01*
X045788Y030199D01*
Y03003D01*
X045769Y030011D01*
X045748Y030007D01*
X045713Y029984D01*
X045697Y029959D01*
X045467D01*
X04545Y029969D01*
X045428Y030009D01*
X045431Y030018D01*
X045458Y030036D01*
X045481Y03007D01*
X045489Y030111D01*
X045481Y030151D01*
X045458Y030186D01*
X045424Y030209D01*
X045383Y030217D01*
X045343Y030209D01*
X045309Y030186D01*
X045264Y030179D01*
X045263Y030221D01*
X045272Y030228D01*
X045295Y030262D01*
X045303Y030303D01*
X045295Y030343D01*
X045272Y030377D01*
X045238Y0304D01*
X045198Y030408D01*
X045157Y0304D01*
X045123Y030377D01*
X045119Y030371D01*
X045063Y030363D01*
X045071Y030418D01*
X045076Y030421D01*
X045098Y030455D01*
X045107Y030496D01*
X045098Y030536D01*
X045076Y03057D01*
X045041Y030593D01*
X045001Y030601D01*
X04496Y030593D01*
X044926Y03057D01*
X044921Y030563D01*
X044862Y030554D01*
X044862Y030554D01*
X044871Y030613D01*
X044879Y030619D01*
X044902Y030653D01*
X04491Y030693D01*
X044902Y030734D01*
X044879Y030768D01*
X044844Y030791D01*
X044804Y030799D01*
X044763Y030791D01*
X044729Y030768D01*
X044722Y030758D01*
X044664Y030749D01*
X044661Y030753D01*
X04467Y030811D01*
X044682Y030818D01*
X044705Y030853D01*
X044713Y030893D01*
X044705Y030934D01*
X044682Y030968D01*
X044648Y030991D01*
X044607Y030999D01*
X044567Y030991D01*
X044535Y03097D01*
X044514Y030974D01*
X044489Y030998D01*
X044486Y031016D01*
X044508Y03105D01*
X044516Y03109D01*
X044508Y03113D01*
X044485Y031165D01*
X044451Y031188D01*
X04441Y031196D01*
X04437Y031188D01*
X044335Y031165D01*
X044325Y031149D01*
X044269Y031142D01*
X044267Y031144D01*
X044277Y031204D01*
X04429Y031212D01*
X044313Y031246D01*
X044321Y031287D01*
X044313Y031327D01*
X044293Y031357D01*
X04429Y031362D01*
X044288Y031409D01*
X044311Y031443D01*
X044319Y031484D01*
X044311Y031524D01*
X044288Y031559D01*
X044254Y031581D01*
X044213Y03159D01*
X044173Y031581D01*
X044139Y031559D01*
X044127Y031541D01*
X044111Y031538D01*
X044074Y03154D01*
X044071Y031541D01*
X044055Y031565D01*
X044021Y031588D01*
X04398Y031596D01*
X04394Y031588D01*
X043906Y031565D01*
X043897Y031552D01*
X043837Y03154D01*
X043496Y031881D01*
X043497Y031897D01*
X043508Y03194D01*
X043532Y031955D01*
X043591Y031955D01*
X043626Y031932D01*
X043666Y031924D01*
X043707Y031932D01*
X043741Y031955D01*
X043764Y031989D01*
X043772Y03203D01*
X043764Y03207D01*
X043741Y032105D01*
X043707Y032128D01*
X043666Y032136D01*
X043626Y032128D01*
X043591Y032105D01*
X043532Y032105D01*
X043497Y032128D01*
X043457Y032136D01*
X043416Y032128D01*
X043382Y032105D01*
X043367Y032082D01*
X043324Y03207D01*
X043308Y03207D01*
X04314Y032238D01*
X04314Y033639D01*
X043146Y033643D01*
X043169Y033677D01*
X043177Y033718D01*
X043169Y033758D01*
X043146Y033793D01*
X04314Y033797D01*
X04314Y035673D01*
X04345Y035984D01*
X04356D01*
X043623Y03592D01*
D02*
G37*
G36*
X044155Y03527D02*
Y033273D01*
X044824Y032604D01*
Y03186D01*
X044925Y031758D01*
X045368D01*
X045706Y031421D01*
X045713Y031409D01*
X045725Y031401D01*
X045881Y031246D01*
Y031037D01*
X045845Y031001D01*
X045799D01*
X045788Y031003D01*
X045778Y031001D01*
X045465D01*
X045263Y031204D01*
X045264Y031212D01*
X045286Y031246D01*
X045294Y031287D01*
X045286Y031327D01*
X045264Y031362D01*
X045229Y031385D01*
X045189Y031393D01*
X045148Y031385D01*
X045114Y031362D01*
X045106Y031361D01*
X044647Y031819D01*
Y032479D01*
X04394Y033186D01*
Y033511D01*
X043957Y033515D01*
X043991Y033538D01*
X044014Y033572D01*
X044022Y033612D01*
X044014Y033653D01*
X043991Y033687D01*
X043957Y03371D01*
X04394Y033713D01*
Y035098D01*
X043853Y035185D01*
X043442D01*
X043396Y035231D01*
Y035343D01*
X04343Y035377D01*
X044048D01*
X044155Y03527D01*
D02*
G37*
%LPC*%
G36*
X042702Y031874D02*
X042661Y031865D01*
X042627Y031843D01*
X042604Y031808D01*
X042596Y031768D01*
X042604Y031727D01*
X042627Y031693D01*
X042661Y03167D01*
X042702Y031662D01*
X042742Y03167D01*
X042777Y031693D01*
X042799Y031727D01*
X042808Y031768D01*
X042799Y031808D01*
X042777Y031843D01*
X042742Y031865D01*
X042702Y031874D01*
D02*
G37*
G36*
X044016Y030606D02*
X043976Y030598D01*
X043942Y030575D01*
X043919Y030541D01*
X043911Y030501D01*
X043919Y03046D01*
X043942Y030426D01*
X043976Y030403D01*
X044016Y030395D01*
X044057Y030403D01*
X044091Y030426D01*
X044114Y03046D01*
X044122Y030501D01*
X044114Y030541D01*
X044091Y030575D01*
X044057Y030598D01*
X044016Y030606D01*
D02*
G37*
G36*
X044608Y030015D02*
X044568Y030007D01*
X044534Y029984D01*
X044485Y029982D01*
X044451Y030005D01*
X04441Y030013D01*
X04437Y030005D01*
X044335Y029982D01*
X044312Y029948D01*
X044304Y029908D01*
X044312Y029867D01*
X044335Y029833D01*
X04437Y02981D01*
X04441Y029802D01*
X044451Y02981D01*
X044485Y029833D01*
X044534Y029834D01*
X044568Y029811D01*
X044608Y029803D01*
X044649Y029811D01*
X044683Y029834D01*
X044706Y029868D01*
X044714Y029909D01*
X044706Y029949D01*
X044683Y029984D01*
X044649Y030007D01*
X044608Y030015D01*
D02*
G37*
G36*
X045001Y029818D02*
X04496Y02981D01*
X044931Y02979D01*
X044926Y029787D01*
X044879Y029785D01*
X044844Y029808D01*
X044804Y029816D01*
X044763Y029808D01*
X044729Y029785D01*
X044706Y029751D01*
X044698Y029711D01*
X044706Y02967D01*
X044729Y029636D01*
X044763Y029613D01*
X044804Y029605D01*
X044844Y029613D01*
X044874Y029632D01*
X044879Y029636D01*
X044926Y029637D01*
X04496Y029614D01*
X045001Y029606D01*
X045041Y029614D01*
X045076Y029637D01*
X045098Y029672D01*
X045107Y029712D01*
X045098Y029753D01*
X045076Y029787D01*
X045041Y02981D01*
X045001Y029818D01*
D02*
G37*
G36*
X045197Y029227D02*
X045156Y029219D01*
X045122Y029196D01*
X045099Y029162D01*
X045091Y029122D01*
X045099Y029081D01*
X045122Y029047D01*
X045156Y029024D01*
X045197Y029016D01*
X045237Y029024D01*
X045272Y029047D01*
X045295Y029081D01*
X045303Y029122D01*
X045295Y029162D01*
X045272Y029196D01*
X045237Y029219D01*
X045197Y029227D01*
D02*
G37*
G36*
X044049Y032127D02*
X044009Y032119D01*
X043974Y032096D01*
X043951Y032062D01*
X043943Y032022D01*
X043951Y031981D01*
X043974Y031947D01*
X044009Y031924D01*
X044049Y031916D01*
X04409Y031924D01*
X044124Y031947D01*
X044147Y031981D01*
X044155Y032022D01*
X044147Y032062D01*
X044124Y032096D01*
X04409Y032119D01*
X044049Y032127D01*
D02*
G37*
G36*
X044613Y03159D02*
X044572Y031581D01*
X044538Y031559D01*
X044515Y031524D01*
X044507Y031484D01*
X044515Y031443D01*
X044538Y031409D01*
X044572Y031386D01*
X044613Y031378D01*
X044653Y031386D01*
X044688Y031409D01*
X044711Y031443D01*
X044719Y031484D01*
X044711Y031524D01*
X044688Y031559D01*
X044653Y031581D01*
X044613Y03159D01*
D02*
G37*
G36*
X044805Y031393D02*
X044765Y031385D01*
X044731Y031362D01*
X044708Y031327D01*
X0447Y031287D01*
X044708Y031246D01*
X044731Y031212D01*
X044765Y031189D01*
X044805Y031181D01*
X044846Y031189D01*
X04488Y031212D01*
X044903Y031246D01*
X044911Y031287D01*
X044903Y031327D01*
X04488Y031362D01*
X044846Y031385D01*
X044805Y031393D01*
D02*
G37*
G36*
X045001Y03099D02*
X04496Y030982D01*
X044926Y030959D01*
X044903Y030925D01*
X044895Y030884D01*
X044903Y030844D01*
X044926Y030809D01*
X04496Y030787D01*
X045001Y030779D01*
X045041Y030787D01*
X045076Y030809D01*
X045098Y030844D01*
X045107Y030884D01*
X045098Y030925D01*
X045076Y030959D01*
X045041Y030982D01*
X045001Y03099D01*
D02*
G37*
G36*
X045394Y030601D02*
X045354Y030593D01*
X04532Y03057D01*
X045297Y030536D01*
X045289Y030496D01*
X045297Y030455D01*
X04532Y030421D01*
X045354Y030398D01*
X045394Y03039D01*
X045435Y030398D01*
X045469Y030421D01*
X045492Y030455D01*
X0455Y030496D01*
X045492Y030536D01*
X045469Y03057D01*
X045435Y030593D01*
X045394Y030601D01*
D02*
G37*
G36*
X045394Y03159D02*
X045354Y031581D01*
X04532Y031559D01*
X045297Y031524D01*
X045289Y031484D01*
X045297Y031443D01*
X04532Y031409D01*
X045354Y031386D01*
X045394Y031378D01*
X045435Y031386D01*
X045469Y031409D01*
X045492Y031443D01*
X0455Y031484D01*
X045492Y031524D01*
X045469Y031559D01*
X045435Y031581D01*
X045394Y03159D01*
D02*
G37*
G36*
X045591Y031393D02*
X045551Y031385D01*
X045517Y031362D01*
X045494Y031327D01*
X045486Y031287D01*
X045494Y031246D01*
X045517Y031212D01*
X045551Y031189D01*
X045591Y031181D01*
X045632Y031189D01*
X045666Y031212D01*
X045689Y031246D01*
X045697Y031287D01*
X045689Y031327D01*
X045666Y031362D01*
X045632Y031385D01*
X045591Y031393D01*
D02*
G37*
%LPD*%
D12*
X041005Y025918D02*
X041114D01*
X041005Y02643D02*
X041114D01*
D71*
X053242Y025722D02*
X053428Y025908D01*
X046819Y025722D02*
X053242D01*
X053428Y025908D02*
X053798D01*
X042378Y025574D02*
X042474D01*
X041644Y026308D02*
X042378Y025574D01*
X041644Y026308D02*
Y029733D01*
X042474Y025574D02*
X042641Y025407D01*
X04236Y026572D02*
Y02678D01*
X042623Y026308D02*
X04605D01*
X04236Y026572D02*
X042623Y026308D01*
X052932Y034291D02*
X053032Y034391D01*
X053179D02*
X053285Y034285D01*
X053032Y034391D02*
X053179D01*
X052932Y03405D02*
Y034291D01*
X053285Y0339D02*
X05348Y033705D01*
X053285Y0339D02*
Y034285D01*
X049929Y034102D02*
X050169D01*
X049771Y033944D02*
X049929Y034102D01*
X050169D02*
X050327Y033944D01*
X05352Y034741D02*
X053639Y034623D01*
X053397Y035185D02*
X05352Y035062D01*
Y034741D02*
Y035062D01*
X053639Y034623D02*
X053749D01*
X0538Y034571D01*
X05124Y034632D02*
Y034748D01*
X050552Y033944D02*
X05124Y034632D01*
X051071Y034917D02*
X05124Y034748D01*
X051071Y034917D02*
Y035067D01*
X051167Y035164D02*
X05135D01*
X051071Y035067D02*
X051167Y035164D01*
X05135D02*
X051502Y035012D01*
X05162D01*
X051793Y035185D01*
X048265Y032646D02*
Y032804D01*
Y032646D02*
X048491Y03242D01*
X048265Y032804D02*
X048491Y03303D01*
Y033194D01*
X050327Y033944D02*
X050552D01*
X051793Y035185D02*
X053397D01*
X052777Y03473D02*
Y034899D01*
X052696Y034649D02*
X052777Y03473D01*
X052376Y034649D02*
X052696D01*
X052985Y034985D02*
X053066Y034905D01*
X052864Y034985D02*
X052985D01*
X053066Y034738D02*
Y034905D01*
X051651Y034649D02*
X051863D01*
X049915Y03377D02*
X050772D01*
X051651Y034649D01*
X053155D02*
X05334D01*
X053066Y034738D02*
X053155Y034649D01*
X053496Y034243D02*
X053599Y034141D01*
X05334Y034649D02*
X053496Y034492D01*
Y034243D02*
Y034492D01*
X053798Y034141D02*
X0538Y034138D01*
X053599Y034141D02*
X053798D01*
X052777Y034899D02*
X052864Y034985D01*
X052276Y034749D02*
Y034951D01*
X052192Y035036D02*
X052276Y034951D01*
X052051Y035036D02*
X052192D01*
X051959Y034744D02*
Y034944D01*
X052051Y035036D01*
X052276Y034749D02*
X052376Y034649D01*
X051863D02*
X051959Y034744D01*
X051023Y033752D02*
X051179D01*
X05131Y033883D02*
Y034039D01*
X051179Y033752D02*
X05131Y033883D01*
X050881Y03361D02*
X051023Y033752D01*
X05131Y034039D02*
X051422Y034151D01*
X048808Y032347D02*
X048924Y032463D01*
X048808Y032723D02*
X048924Y032607D01*
Y032463D02*
Y032607D01*
X048808Y032723D02*
Y032829D01*
Y032083D02*
Y032347D01*
X052433Y034055D02*
X052511Y033977D01*
X05286D01*
X052932Y03405D01*
X052433Y034055D02*
Y034292D01*
X052336Y034389D02*
X052433Y034292D01*
X052218Y034389D02*
X052336D01*
X051979Y034151D02*
X052218Y034389D01*
X050042Y033599D02*
X050167D01*
X050352Y033414D02*
X050512D01*
X050167Y033599D02*
X050352Y033414D01*
X050708Y03361D02*
X050881D01*
X050512Y033414D02*
X050708Y03361D01*
X051422Y034151D02*
X051979D01*
X049241Y033944D02*
X049771D01*
X048491Y032219D02*
Y03242D01*
X048643Y032156D02*
Y033084D01*
X049328Y03377D02*
X049453D01*
X048643Y033084D02*
X049328Y03377D01*
X049453D02*
X049631Y033592D01*
X049736D01*
X049915Y03377D01*
Y033471D02*
X050042Y033599D01*
X049915Y03311D02*
Y033471D01*
X048957Y032978D02*
Y033145D01*
X049036Y033224D01*
X049145D01*
X049232Y033023D02*
Y033137D01*
X049145Y033224D02*
X049232Y033137D01*
Y033023D02*
X049318Y032938D01*
X049742D01*
X048808Y032829D02*
X048957Y032978D01*
X048519Y031794D02*
X048808Y032083D01*
X050151Y033127D02*
X050249Y033224D01*
X050151Y032957D02*
Y033127D01*
X050249Y033224D02*
X050411D01*
X05061Y033025D01*
X050151Y032957D02*
X050327Y032781D01*
X050812Y03311D02*
Y033315D01*
X050891Y033394D02*
X051096D01*
X050812Y033315D02*
X050891Y033394D01*
X051096D02*
X051277Y033575D01*
X050728Y033025D02*
X050812Y03311D01*
X051673Y033895D02*
X05178Y034001D01*
X051942D02*
X052056Y033887D01*
X05178Y034001D02*
X051942D01*
X052056Y033609D02*
Y033887D01*
Y033609D02*
X052148Y033517D01*
X05316Y03355D02*
X05324Y03363D01*
X053359D02*
X053454Y033535D01*
X05324Y03363D02*
X053359D01*
X05316Y033404D02*
Y03355D01*
X053454Y033353D02*
Y033535D01*
X053535Y033272D02*
X0538D01*
X053454Y033353D02*
X053535Y033272D01*
X053091Y033335D02*
X05316Y033404D01*
X052932Y033335D02*
X053091D01*
X05275Y033517D02*
X052932Y033335D01*
X052148Y033517D02*
X05275D01*
X051673Y033692D02*
Y033895D01*
X051277Y033575D02*
X051556D01*
X051673Y033692D01*
X05348Y033705D02*
X0538D01*
X050185Y032483D02*
X050327Y032625D01*
Y032781D01*
X05061Y033025D02*
X050728D01*
X049835Y032483D02*
X050185D01*
X049719Y032599D02*
X049835Y032483D01*
X049632Y032779D02*
X049719Y032692D01*
X049499Y032779D02*
X049632D01*
X049719Y032599D02*
Y032692D01*
X049421Y032701D02*
X049499Y032779D01*
X049421Y032568D02*
Y032701D01*
X049742Y032938D02*
X049915Y03311D01*
X049149Y032485D02*
X049338D01*
X049421Y032568D01*
X04899Y032325D02*
X049149Y032485D01*
X04899Y032019D02*
Y032325D01*
X047936Y031794D02*
X048519D01*
X048491Y033194D02*
X049241Y033944D01*
X048044Y031647D02*
X048617D01*
X04899Y032019D01*
X053168Y032392D02*
X053267Y032293D01*
X053421D02*
X053511Y032382D01*
X053267Y032293D02*
X053421D01*
X053168Y032392D02*
Y032884D01*
X053511Y032382D02*
Y03276D01*
X053598Y032847D01*
X051212Y033248D02*
X051777D01*
X051913Y033384D02*
X052091D01*
X051777Y033248D02*
X051913Y033384D01*
X052227Y033248D02*
X052804D01*
X052091Y033384D02*
X052227Y033248D01*
X053598Y032847D02*
X053792D01*
X0538Y032839D01*
X052804Y033248D02*
X053168Y032884D01*
X052655Y033088D02*
X05298Y032762D01*
X053174Y031088D02*
Y031828D01*
X05298Y032022D02*
Y032762D01*
Y032022D02*
X053174Y031828D01*
X049934Y032153D02*
X050117D01*
X049747Y03234D02*
X049934Y032153D01*
X050117D02*
X051212Y033248D01*
X048649Y031336D02*
X049559D01*
X05131Y033088D02*
X052655D01*
X049559Y031336D02*
X05131Y033088D01*
X049327Y031952D02*
Y032201D01*
X049466Y03234D01*
X049747D01*
X049327Y031952D02*
X049528Y031751D01*
X049414Y031484D02*
X049528Y031598D01*
Y031751D01*
X049119Y03045D02*
Y030895D01*
X048974Y030305D02*
X049119Y03045D01*
X046969Y030305D02*
X048974D01*
X049119Y030895D02*
X049356Y031131D01*
X051459D01*
X04682Y030453D02*
X046969Y030305D01*
X051459Y031131D02*
X05171Y031382D01*
X049371Y030017D02*
Y030629D01*
X049577Y030834D02*
X051722D01*
X049371Y030629D02*
X049577Y030834D01*
X051722D02*
X052019Y031131D01*
Y031781D01*
X049076Y028986D02*
Y029722D01*
X049371Y030017D01*
X05278Y032542D02*
Y032748D01*
X052019Y031781D02*
X05278Y032542D01*
X053588Y030674D02*
X0538D01*
X053174Y031088D02*
X053588Y030674D01*
X042296Y035185D02*
Y036064D01*
Y035185D02*
X042776Y034705D01*
X042504Y026632D02*
X042663D01*
X042774Y026521D01*
X042244Y026485D02*
X042698Y026031D01*
X042244Y026485D02*
Y028693D01*
X04254Y028989D01*
X042092Y026463D02*
Y028929D01*
X042385Y029222D01*
X042092Y026463D02*
X042636Y025918D01*
X041937Y029487D02*
X042196Y029746D01*
X041937Y026454D02*
Y029487D01*
Y026454D02*
X042575Y025816D01*
X041788Y02962D02*
X042082Y029914D01*
X041788Y02639D02*
X042463Y025714D01*
X041788Y02639D02*
Y02962D01*
X047208Y026822D02*
X05171D01*
X047105Y026924D02*
X047208Y026822D01*
X047097Y026924D02*
X047105D01*
X051529Y032366D02*
Y032938D01*
Y032366D02*
X05171Y032185D01*
X04236Y02678D02*
X042914Y027335D01*
Y0284D01*
X047868Y035517D02*
X048886Y034499D01*
X047868Y035517D02*
Y035643D01*
X048886Y034491D02*
Y034499D01*
X053473Y02634D02*
X053797D01*
X046946Y025846D02*
X05298D01*
X053473Y02634D01*
X053008Y027144D02*
Y027482D01*
X047214Y026413D02*
X052276D01*
X053008Y027144D01*
X052324Y026277D02*
X053195Y027148D01*
X047113Y026277D02*
X052324D01*
X053195Y027148D02*
Y02737D01*
X052777Y026565D02*
X053095D01*
X047112Y026132D02*
X052344D01*
X052777Y026565D01*
X053095D02*
X053278Y026748D01*
Y027005D02*
X053482Y027209D01*
X053278Y026748D02*
Y027005D01*
X052653Y028616D02*
Y029024D01*
X052412Y027974D02*
Y028375D01*
X052653Y028616D01*
X047478Y027064D02*
X051501D01*
X052412Y027974D01*
X052878Y028236D02*
Y029295D01*
X051584Y026942D02*
X052878Y028236D01*
X047422Y026942D02*
X051584D01*
X05171Y026822D02*
X053008Y02812D01*
Y029116D01*
X052544Y029134D02*
X052653Y029024D01*
X052544Y029134D02*
Y030072D01*
X045788Y031484D02*
Y032049D01*
X04555Y032287D02*
X045788Y032049D01*
X04555Y032287D02*
Y032807D01*
X042056Y036304D02*
X042296Y036064D01*
X044194Y031199D02*
Y031266D01*
X043946Y03113D02*
X044125D01*
X044194Y031266D02*
X044215Y031287D01*
X044125Y03113D02*
X044194Y031199D01*
X043784Y031292D02*
X043946Y03113D01*
X043784Y031292D02*
Y031428D01*
X042776Y032437D02*
X043784Y031428D01*
X042776Y032437D02*
Y034705D01*
X041005Y036304D02*
X042056D01*
X04155Y032147D02*
X042092Y031605D01*
X04155Y032147D02*
Y035079D01*
X041047Y035395D02*
X041234D01*
X04155Y035079D01*
X041005Y035438D02*
X041047Y035395D01*
X044485Y026956D02*
X044607D01*
X042774Y026521D02*
X04405D01*
X044485Y026956D01*
X042698Y026031D02*
X045816D01*
X046106Y025741D01*
Y025407D02*
Y025741D01*
X042082Y029914D02*
X042452D01*
X041644Y029733D02*
X042008Y030098D01*
X041466Y02977D02*
X041933Y030237D01*
X041466Y026245D02*
X042157Y025554D01*
X041466Y026245D02*
Y02977D01*
X04131Y026099D02*
Y029843D01*
X041892Y030425D01*
X04131Y026099D02*
X041773Y025636D01*
X045673Y025407D02*
Y025665D01*
X045419Y025918D02*
X045673Y025665D01*
X042636Y025918D02*
X045419D01*
X042535Y029222D02*
X042535Y029222D01*
X042385Y029222D02*
X042535D01*
X0448Y025413D02*
Y025631D01*
Y025413D02*
X044806Y025407D01*
X044615Y025816D02*
X0448Y025631D01*
X042575Y025816D02*
X044615D01*
X042196Y029746D02*
X042951D01*
X043181Y029515D02*
X04343D01*
X042951Y029746D02*
X043181Y029515D01*
X043074Y025407D02*
Y025631D01*
X042463Y025714D02*
X042992D01*
X043074Y025631D01*
X042008Y030098D02*
X042598D01*
X042157Y025458D02*
X042208Y025407D01*
X042157Y025458D02*
Y025554D01*
X041933Y030237D02*
X043321D01*
X043449Y030109D01*
X043623D01*
X041773Y025409D02*
X041775Y025407D01*
X041773Y025409D02*
Y025636D01*
X043512Y030425D02*
X043614Y030323D01*
X043623D01*
X041892Y030425D02*
X043512D01*
X04605Y026308D02*
X046952Y025407D01*
X046972D01*
X04254Y028774D02*
X042914Y0284D01*
X045591Y02794D02*
X045784D01*
X045131Y027397D02*
Y027481D01*
X045591Y02794D01*
X044842Y027107D02*
X045131Y027397D01*
X044824Y026956D02*
X044842Y026974D01*
Y027107D01*
X04503Y026956D02*
X045591Y027517D01*
Y027744D01*
X046399Y026394D02*
X046946Y025846D01*
X04704Y025984D02*
X052591D01*
X05303Y026424D01*
X046566Y026458D02*
X04704Y025984D01*
X046763Y026481D02*
X047112Y026132D01*
X05303Y026424D02*
X053205D01*
X053557Y026775D01*
X046915Y026475D02*
X047113Y026277D01*
X047101Y026526D02*
X047214Y026413D01*
X046015Y026527D02*
X046819Y025722D01*
X053798Y025908D02*
X0538Y02591D01*
X045985Y02794D02*
X046006Y027919D01*
X046015Y026527D02*
Y027858D01*
X046006Y027867D02*
Y027919D01*
Y027867D02*
X046015Y027858D01*
X053797Y02634D02*
X0538Y026343D01*
X046399Y026394D02*
Y026745D01*
X053557Y026775D02*
X053799D01*
X0538Y026776D01*
X046399Y026981D02*
X046566Y026814D01*
Y026458D02*
Y026814D01*
X053482Y027209D02*
X0538D01*
X046587Y027129D02*
X046763Y026954D01*
Y026481D02*
Y026954D01*
X046143Y026981D02*
X04629Y027129D01*
X046587D01*
X053467Y027642D02*
X0538D01*
X053195Y02737D02*
X053467Y027642D01*
X046915Y026475D02*
Y026987D01*
X046355Y027547D02*
X046915Y026987D01*
X046182Y027547D02*
X046355D01*
X053571Y028045D02*
X053769D01*
X0538Y028075D01*
X053008Y027482D02*
X053571Y028045D01*
X047101Y026526D02*
Y026668D01*
X047092Y026676D02*
X047101Y026668D01*
X047456Y026549D02*
X051776D01*
X052003Y026775D02*
X052454D01*
X051776Y026549D02*
X052003Y026775D01*
X052454D02*
X052804Y027125D01*
Y027489D01*
X053336Y028021D01*
X053496Y028509D02*
X0538D01*
X053336Y028348D02*
X053496Y028509D01*
X053336Y028021D02*
Y028348D01*
X047329Y026676D02*
X047456Y026549D01*
X053168Y028699D02*
X05341Y028942D01*
X0538D01*
X053168Y028065D02*
Y028699D01*
X05266Y027558D02*
X053168Y028065D01*
X05266Y027141D02*
Y027558D01*
X052004Y026942D02*
X052462D01*
X05266Y027141D01*
X051739Y026676D02*
X052004Y026942D01*
X047565Y026676D02*
X051739D01*
X053008Y029116D02*
X053267Y029375D01*
X053191Y030355D02*
X053305Y030241D01*
X052544Y030072D02*
X052827Y030355D01*
X053191D01*
X053305Y030241D02*
X0538D01*
X053267Y029375D02*
X0538D01*
X052878Y029295D02*
X053391Y029808D01*
X0538D01*
X046969Y027395D02*
Y027547D01*
Y027395D02*
X047422Y026942D01*
X047166Y027375D02*
X047478Y027064D01*
X047166Y027375D02*
Y027547D01*
X048162Y03085D02*
X048649Y031336D01*
X046971Y030696D02*
X047124Y03085D01*
X048162D01*
X048466Y031484D02*
X049414D01*
X047788Y031647D02*
X047936Y031794D01*
X0483Y031942D02*
X048321Y031963D01*
X048449D01*
X048643Y032156D01*
X048348Y032077D02*
X048491Y032219D01*
X048179Y032077D02*
X048348D01*
X048044Y031942D02*
X048179Y032077D01*
X04906Y027755D02*
X049157Y027852D01*
X049324D01*
X04906Y027489D02*
Y027755D01*
X049324Y027852D02*
X049503Y027673D01*
X047519Y028129D02*
Y028278D01*
X047593Y028352D01*
X047519Y028129D02*
X047604Y028044D01*
X04807Y027816D02*
Y027953D01*
X047861Y027606D02*
X04807Y027816D01*
X047979Y028044D02*
X04807Y027953D01*
X047861Y027485D02*
Y027606D01*
X048959Y027388D02*
X04906Y027489D01*
X047958Y027388D02*
X048959D01*
X050842Y027673D02*
X050967Y027797D01*
Y027923D01*
X050799Y028091D02*
X050967Y027923D01*
X050799Y028091D02*
Y029298D01*
X050289Y029407D02*
X050689D01*
X050799Y029298D01*
X049915Y02783D02*
X050467D01*
X05063Y027993D02*
Y029044D01*
X050467Y02783D02*
X05063Y027993D01*
X048764Y027868D02*
X048912Y028016D01*
X049729D02*
X049915Y02783D01*
X048912Y028016D02*
X049729D01*
X047593Y028352D02*
X047873D01*
X047604Y028044D02*
X047979D01*
X049503Y027673D02*
X050842D01*
X047861Y027485D02*
X047958Y027388D01*
X048064Y028486D02*
X048085Y028507D01*
X048007Y028486D02*
X048064D01*
X047873Y028352D02*
X048007Y028486D01*
X051478Y028636D02*
X051542Y028573D01*
X051362Y028636D02*
X051478D01*
X051542Y028469D02*
Y028573D01*
Y028469D02*
X051548Y028462D01*
X050157Y029564D02*
X050362D01*
X049957Y029764D02*
X050157Y029564D01*
X050362D02*
X05047Y029672D01*
X051269Y028194D02*
Y028543D01*
X051362Y028636D01*
X051187Y028112D02*
X051269Y028194D01*
X051049Y028112D02*
X051187D01*
X050688Y02958D02*
X050833D01*
X05047Y029672D02*
X050595D01*
X050688Y02958D01*
X051222Y029823D02*
X051333Y029712D01*
X050426Y029896D02*
X050499Y029823D01*
X051222D01*
X049671Y029054D02*
Y029176D01*
X049513Y028896D02*
X049671Y029054D01*
X049513Y029334D02*
X049671Y029176D01*
X050956Y028896D02*
X051069Y028783D01*
Y028674D02*
Y028783D01*
X050956Y028561D02*
X051069Y028674D01*
X050956Y028206D02*
Y028561D01*
Y028896D02*
Y028971D01*
Y029339D02*
Y029457D01*
Y028971D02*
X051075Y029091D01*
Y029219D01*
X050956Y029339D02*
X051075Y029219D01*
X050833Y02958D02*
X050956Y029457D01*
X049513Y028783D02*
Y028896D01*
Y029334D02*
Y029576D01*
X049323Y028999D02*
Y029632D01*
X049586Y029896D02*
X050426D01*
X049323Y029632D02*
X049586Y029896D01*
X049513Y029576D02*
X049701Y029764D01*
X049957D01*
X051241Y028793D02*
X051333Y028885D01*
Y029712D01*
X049003Y028828D02*
X049151D01*
X049323Y028999D01*
X048738Y029093D02*
X049003Y028828D01*
X048738Y029093D02*
Y029505D01*
X047104Y029968D02*
X048275D01*
X048738Y029505D01*
X050956Y028206D02*
X051049Y028112D01*
X048398Y029051D02*
X048529Y02892D01*
X048398Y029051D02*
Y029297D01*
X048529Y02892D02*
X048649D01*
X048929Y028641D02*
X049371D01*
X048649Y02892D02*
X048929Y028641D01*
X047359Y027617D02*
Y02953D01*
X047737Y027239D02*
X049457D01*
X047359Y027617D02*
X047737Y027239D01*
X049889Y028971D02*
X050103D01*
X050199Y028242D02*
Y028875D01*
X050103Y028971D02*
X050199Y028875D01*
X047597Y029227D02*
X047695Y029129D01*
X048122D01*
X047597Y029227D02*
Y029758D01*
X050102Y028144D02*
X050199Y028242D01*
X049981Y028144D02*
X050102D01*
X049457Y028288D02*
Y028452D01*
Y028288D02*
X04953Y028215D01*
X049662D01*
X049799Y028352D01*
Y028882D01*
X049255Y028519D02*
X049389D01*
X049183Y028447D02*
X049255Y028519D01*
X049183Y028255D02*
Y028447D01*
X049389Y028519D02*
X049457Y028452D01*
X049021Y028192D02*
X049119D01*
X049183Y028255D01*
X048944Y028269D02*
Y028475D01*
X048779Y028536D02*
X048883D01*
X048944Y028475D01*
X048717Y028259D02*
Y028474D01*
X048779Y028536D01*
X048644Y028187D02*
X048717Y028259D01*
X048542Y028187D02*
X048644D01*
X048396Y028333D02*
Y028855D01*
Y028333D02*
X048542Y028187D01*
X048944Y028269D02*
X049021Y028192D01*
X048122Y029129D02*
X048396Y028855D01*
X047857Y028969D02*
X048233Y028594D01*
Y028283D02*
X048348Y028167D01*
X048233Y028283D02*
Y028594D01*
X048764Y02761D02*
Y027868D01*
X050064Y029143D02*
X050532D01*
X05063Y029044D01*
X047682Y028969D02*
X047857D01*
X047594Y028881D02*
X047682Y028969D01*
X047594Y028707D02*
Y028881D01*
Y028707D02*
X047796Y028505D01*
X048348Y027614D02*
Y028167D01*
X049799Y028882D02*
X049889Y028971D01*
X04749Y029865D02*
X047597Y029758D01*
X047028Y029771D02*
X047122Y029865D01*
X04749D01*
X047028Y030044D02*
X047104Y029968D01*
X047028Y029657D02*
X047146Y029539D01*
X047028Y029261D02*
Y029382D01*
X047146Y0295D02*
Y029539D01*
X047028Y029382D02*
X047146Y0295D01*
X047028Y029657D02*
Y029771D01*
Y029261D02*
X047168Y029122D01*
X047167Y029722D02*
X047359Y02953D01*
X051866Y028138D02*
X051869Y028142D01*
X051755Y028138D02*
X051866D01*
X051615Y027998D02*
X051755Y028138D01*
X051469Y027998D02*
X051615D01*
X051338Y027867D02*
X051469Y027998D01*
X051338Y027672D02*
Y027867D01*
X050261Y027523D02*
X051189D01*
X051338Y027672D01*
X049457Y027239D02*
X04957Y027353D01*
X05009D02*
X050261Y027523D01*
X04673Y029864D02*
X046909Y030044D01*
X04673Y029672D02*
Y029864D01*
X046909Y030044D02*
X047028D01*
X046524Y030453D02*
X04682D01*
X046167Y030096D02*
X046524Y030453D01*
X046167Y029508D02*
Y030096D01*
X046047Y029388D02*
X046167Y029508D01*
X048299Y029395D02*
X048398Y029297D01*
X048186Y029395D02*
X048299D01*
X048085Y029496D02*
Y029771D01*
Y029496D02*
X048186Y029395D01*
X048435Y027527D02*
X048681D01*
X048764Y02761D01*
X048348Y027614D02*
X048435Y027527D01*
X049974Y029233D02*
X050064Y029143D01*
X049974Y029233D02*
Y029407D01*
X049371Y028641D02*
X049513Y028783D01*
X048024Y029833D02*
X048085Y029771D01*
X048002Y029854D02*
X048024Y029833D01*
X047838Y029854D02*
X048002D01*
X047747Y029763D02*
X047838Y029854D01*
X047747Y029556D02*
Y029763D01*
X04957Y027353D02*
X05009D01*
X046381Y029122D02*
Y029324D01*
X04673Y029672D01*
X051241Y028774D02*
Y028793D01*
X045984Y028922D02*
X046125Y029063D01*
X045984Y028729D02*
Y028922D01*
X046125Y029063D02*
Y029178D01*
X046047Y029256D02*
Y029388D01*
Y029256D02*
X046125Y029178D01*
X05171Y031382D02*
Y032185D01*
D73*
X047557Y033342D02*
X04769Y033208D01*
Y032406D02*
Y033208D01*
X047152Y033342D02*
X047557D01*
X047552Y032463D02*
Y03315D01*
X04709Y033234D02*
X047469D01*
X047552Y03315D01*
X046951Y033372D02*
X04709Y033234D01*
X047089Y033404D02*
X047152Y033342D01*
X046951Y033372D02*
Y033753D01*
X047089Y033404D02*
Y033658D01*
X047178Y033747D02*
X047483D01*
X047089Y033658D02*
X047178Y033747D01*
X047483D02*
X04769Y033955D01*
X046951Y033753D02*
X047097Y033898D01*
X047428D02*
X047552Y034023D01*
X047097Y033898D02*
X047428D01*
X04769Y033955D02*
Y034107D01*
X047552Y034023D02*
Y034748D01*
X048188Y033777D02*
Y033884D01*
X048278Y033974D02*
X048398D01*
X048188Y033884D02*
X048278Y033974D01*
X048509Y033864D02*
X048611D01*
X049161Y034413D01*
X048398Y033974D02*
X048509Y033864D01*
X048188Y033777D02*
X048306Y033659D01*
X047897Y03315D02*
X048306Y033559D01*
Y033659D01*
X048035Y032405D02*
Y033093D01*
X049161Y034413D02*
X050434D01*
X049218Y034275D02*
X050492D01*
X048035Y033093D02*
X049218Y034275D01*
X047897Y032462D02*
Y03315D01*
X050434Y034413D02*
X050745Y034724D01*
X050492Y034275D02*
X050883Y034667D01*
Y036879D01*
X050745Y034724D02*
Y036937D01*
X047884Y034495D02*
X04797Y034409D01*
Y034264D02*
Y034409D01*
X047893Y034186D02*
X04797Y034264D01*
X047766Y034495D02*
X047884D01*
X047769Y034186D02*
X047893D01*
X04769Y034107D02*
X047769Y034186D01*
X04769Y034571D02*
Y034805D01*
Y034571D02*
X047766Y034495D01*
X04653Y035146D02*
Y035519D01*
X046652Y03564D02*
X04746D01*
X046392Y035576D02*
X046594Y035778D01*
X047403D01*
X046392Y035089D02*
Y035576D01*
X04653Y035519D02*
X046652Y03564D01*
X046583Y034898D02*
X047403D01*
X04653Y035146D02*
X04664Y035036D01*
X04746D01*
X046392Y035089D02*
X046583Y034898D01*
X047403D02*
X047552Y034748D01*
X04746Y035036D02*
X04769Y034805D01*
X04746Y03564D02*
X04769Y035871D01*
Y037543D01*
X047552Y035928D02*
Y037543D01*
X047403Y035778D02*
X047552Y035928D01*
X04769Y037543D02*
X047838Y03769D01*
X046966Y031681D02*
X04769Y032406D01*
X046966Y031484D02*
Y031681D01*
X047405Y03769D02*
X047552Y037543D01*
X046828Y031739D02*
X047552Y032463D01*
X046828Y031589D02*
Y031739D01*
X046722Y031484D02*
X046828Y031589D01*
X046388Y031484D02*
X046722D01*
X050883Y036879D02*
X051155Y037151D01*
Y037543D02*
X051302Y03769D01*
X051155Y037151D02*
Y037543D01*
X047495Y031176D02*
Y031865D01*
X048035Y032405D01*
X047271Y030952D02*
X047495Y031176D01*
X047068Y030952D02*
X047271D01*
X047009Y030893D02*
X047068Y030952D01*
X046774Y030893D02*
X047009D01*
X050745Y036937D02*
X051017Y037208D01*
X050869Y03769D02*
X051017Y037543D01*
Y037208D02*
Y037543D01*
X047357Y031233D02*
Y031922D01*
X047897Y032462D01*
X047214Y03109D02*
X047357Y031233D01*
X046969Y03109D02*
X047214D01*
D86*
X047405Y03769D02*
D03*
X047838D02*
D03*
X050869D02*
D03*
X051302D02*
D03*
X0538Y02591D02*
D03*
X041005D02*
D03*
Y026343D02*
D03*
Y026776D02*
D03*
Y027209D02*
D03*
Y027642D02*
D03*
Y028075D02*
D03*
Y028509D02*
D03*
Y028942D02*
D03*
Y029375D02*
D03*
Y029808D02*
D03*
Y030241D02*
D03*
Y030674D02*
D03*
Y031107D02*
D03*
Y03154D02*
D03*
Y031973D02*
D03*
Y032406D02*
D03*
Y032839D02*
D03*
Y033272D02*
D03*
Y033705D02*
D03*
Y034138D02*
D03*
Y034571D02*
D03*
Y035005D02*
D03*
Y035438D02*
D03*
Y035871D02*
D03*
Y036304D02*
D03*
Y036737D02*
D03*
Y03717D02*
D03*
Y02591D02*
D03*
Y026343D02*
D03*
Y026776D02*
D03*
Y027209D02*
D03*
Y027642D02*
D03*
Y028075D02*
D03*
Y028509D02*
D03*
Y028942D02*
D03*
Y029375D02*
D03*
Y029808D02*
D03*
Y030241D02*
D03*
Y030674D02*
D03*
Y031107D02*
D03*
Y03154D02*
D03*
Y031973D02*
D03*
Y032406D02*
D03*
Y032839D02*
D03*
Y033272D02*
D03*
Y033705D02*
D03*
Y034138D02*
D03*
Y034571D02*
D03*
Y035005D02*
D03*
Y035438D02*
D03*
Y035871D02*
D03*
Y036304D02*
D03*
Y036737D02*
D03*
Y03717D02*
D03*
X0538Y034571D02*
D03*
Y034138D02*
D03*
Y033705D02*
D03*
Y033272D02*
D03*
Y032839D02*
D03*
Y030674D02*
D03*
Y030241D02*
D03*
Y029808D02*
D03*
Y029375D02*
D03*
Y028942D02*
D03*
Y028509D02*
D03*
Y028075D02*
D03*
Y027642D02*
D03*
Y027209D02*
D03*
Y026776D02*
D03*
Y026343D02*
D03*
X045673Y025407D02*
D03*
X046106D02*
D03*
X046972D02*
D03*
X044806D02*
D03*
X043074D02*
D03*
X042641D02*
D03*
X042208D02*
D03*
X041775D02*
D03*
D87*
X05278Y032748D02*
D03*
X041835Y035959D02*
D03*
X042504Y026632D02*
D03*
X047097Y026924D02*
D03*
X051529Y032938D02*
D03*
X048886Y034491D02*
D03*
X046966Y031484D02*
D03*
X046388D02*
D03*
X046774Y030893D02*
D03*
X046969Y03109D02*
D03*
X04555Y032807D02*
D03*
X048085Y028507D02*
D03*
X050289Y029407D02*
D03*
X047796Y028505D02*
D03*
X047747Y029556D02*
D03*
X046971Y030696D02*
D03*
X042092Y031605D02*
D03*
X043623Y030323D02*
D03*
X044824Y026956D02*
D03*
X045784Y02794D02*
D03*
X045788Y031484D02*
D03*
X049974Y029407D02*
D03*
X049076Y028986D02*
D03*
X051548Y028462D02*
D03*
X047868Y035643D02*
D03*
X043508Y035289D02*
D03*
X042598Y030098D02*
D03*
X042452Y029914D02*
D03*
X045984Y028729D02*
D03*
X048044Y031647D02*
D03*
X04503Y026956D02*
D03*
X048466Y031484D02*
D03*
X0483Y031942D02*
D03*
X047788Y031647D02*
D03*
X048044Y031942D02*
D03*
X047565Y026676D02*
D03*
X047329Y026676D02*
D03*
X047092Y026676D02*
D03*
X047166Y027547D02*
D03*
X046143Y026981D02*
D03*
X046399D02*
D03*
X045985Y02794D02*
D03*
X046969Y027547D02*
D03*
X046399Y026745D02*
D03*
X046182Y027547D02*
D03*
X045591Y027744D02*
D03*
X044607Y026956D02*
D03*
X04254Y028774D02*
D03*
X04254Y028989D02*
D03*
X042535Y029222D02*
D03*
X043623Y030109D02*
D03*
X04343Y029515D02*
D03*
X045788Y03109D02*
D03*
X044215Y031287D02*
D03*
X043508Y035886D02*
D03*
X045788Y029122D02*
D03*
X046381D02*
D03*
X045591Y030102D02*
D03*
X047168Y029122D02*
D03*
X047167Y029722D02*
D03*
X049981Y028144D02*
D03*
X051241Y028774D02*
D03*
X051869Y028142D02*
D03*
M02*
