G04*
G04 #@! TF.GenerationSoftware,Altium Limited,Altium Designer,18.1.6 (161)*
G04*
G04 Layer_Color=8388736*
%FSTAX24Y24*%
%MOIN*%
G70*
G01*
G75*
G04:AMPARAMS|DCode=18|XSize=23.6mil|YSize=9.8mil|CornerRadius=2mil|HoleSize=0mil|Usage=FLASHONLY|Rotation=180.000|XOffset=0mil|YOffset=0mil|HoleType=Round|Shape=RoundedRectangle|*
%AMROUNDEDRECTD18*
21,1,0.0236,0.0059,0,0,180.0*
21,1,0.0197,0.0098,0,0,180.0*
1,1,0.0039,-0.0098,0.0030*
1,1,0.0039,0.0098,0.0030*
1,1,0.0039,0.0098,-0.0030*
1,1,0.0039,-0.0098,-0.0030*
%
%ADD18ROUNDEDRECTD18*%
G04:AMPARAMS|DCode=19|XSize=9.8mil|YSize=23.6mil|CornerRadius=2mil|HoleSize=0mil|Usage=FLASHONLY|Rotation=180.000|XOffset=0mil|YOffset=0mil|HoleType=Round|Shape=RoundedRectangle|*
%AMROUNDEDRECTD19*
21,1,0.0098,0.0197,0,0,180.0*
21,1,0.0059,0.0236,0,0,180.0*
1,1,0.0039,-0.0030,0.0098*
1,1,0.0039,0.0030,0.0098*
1,1,0.0039,0.0030,-0.0098*
1,1,0.0039,-0.0030,-0.0098*
%
%ADD19ROUNDEDRECTD19*%
G04:AMPARAMS|DCode=29|XSize=22.6mil|YSize=47.2mil|CornerRadius=1.9mil|HoleSize=0mil|Usage=FLASHONLY|Rotation=180.000|XOffset=0mil|YOffset=0mil|HoleType=Round|Shape=RoundedRectangle|*
%AMROUNDEDRECTD29*
21,1,0.0226,0.0434,0,0,180.0*
21,1,0.0188,0.0472,0,0,180.0*
1,1,0.0038,-0.0094,0.0217*
1,1,0.0038,0.0094,0.0217*
1,1,0.0038,0.0094,-0.0217*
1,1,0.0038,-0.0094,-0.0217*
%
%ADD29ROUNDEDRECTD29*%
%ADD41C,0.0146*%
%ADD42C,0.0248*%
G04:AMPARAMS|DCode=43|XSize=145.7mil|YSize=145.7mil|CornerRadius=2.2mil|HoleSize=0mil|Usage=FLASHONLY|Rotation=180.000|XOffset=0mil|YOffset=0mil|HoleType=Round|Shape=RoundedRectangle|*
%AMROUNDEDRECTD43*
21,1,0.1457,0.1413,0,0,180.0*
21,1,0.1413,0.1457,0,0,180.0*
1,1,0.0044,-0.0707,0.0707*
1,1,0.0044,0.0707,0.0707*
1,1,0.0044,0.0707,-0.0707*
1,1,0.0044,-0.0707,-0.0707*
%
%ADD43ROUNDEDRECTD43*%
%ADD44R,0.0434X0.0592*%
%ADD45R,0.0277X0.0277*%
%ADD46R,0.0395X0.0395*%
%ADD47R,0.0356X0.0336*%
%ADD48R,0.0237X0.0277*%
%ADD49R,0.0474X0.0749*%
%ADD50R,0.0356X0.0198*%
%ADD51R,0.0552X0.0316*%
%ADD52R,0.0513X0.1119*%
%ADD53R,0.0150X0.0150*%
%ADD54C,0.0290*%
%ADD55R,0.0375X0.0356*%
%ADD56R,0.0513X0.0828*%
%ADD57R,0.0336X0.0356*%
%ADD58R,0.0316X0.0277*%
%ADD59R,0.0150X0.0150*%
%ADD60R,0.0277X0.0277*%
%ADD61R,0.0592X0.0434*%
%ADD62R,0.0395X0.0395*%
%ADD63R,0.0277X0.0237*%
%ADD64R,0.0277X0.0316*%
%ADD65C,0.0395*%
D18*
X045202Y035593D02*
D03*
X047092Y034411D02*
D03*
Y034608D02*
D03*
Y034805D02*
D03*
Y035002D02*
D03*
Y035199D02*
D03*
Y035396D02*
D03*
Y035593D02*
D03*
Y035789D02*
D03*
X045202D02*
D03*
Y035396D02*
D03*
Y035199D02*
D03*
Y035002D02*
D03*
Y034805D02*
D03*
Y034608D02*
D03*
Y034411D02*
D03*
D19*
X046836Y036045D02*
D03*
X046639D02*
D03*
X046442D02*
D03*
X046245D02*
D03*
X046049D02*
D03*
X045852D02*
D03*
X045655D02*
D03*
X045458D02*
D03*
Y034156D02*
D03*
X045655D02*
D03*
X045852D02*
D03*
X046049D02*
D03*
X046245D02*
D03*
X046442D02*
D03*
X046639D02*
D03*
X046836D02*
D03*
D29*
X045892Y03311D02*
D03*
X045173D02*
D03*
X047073D02*
D03*
X046354D02*
D03*
D41*
X046969Y027744D02*
D03*
X046772Y02794D02*
D03*
X044213Y03109D02*
D03*
X044016D02*
D03*
X04382Y031484D02*
D03*
X044213Y031681D02*
D03*
X04382D02*
D03*
X043623D02*
D03*
X044213Y031877D02*
D03*
X044016D02*
D03*
X04382D02*
D03*
X043623D02*
D03*
X043426Y028728D02*
D03*
X044213Y030893D02*
D03*
X042835Y02794D02*
D03*
X045394Y027744D02*
D03*
X043426Y028925D02*
D03*
X047363Y02735D02*
D03*
X047166Y027153D02*
D03*
X04382Y028137D02*
D03*
X045591Y02794D02*
D03*
X043623D02*
D03*
X044607Y02735D02*
D03*
X04441D02*
D03*
X044016Y031681D02*
D03*
X045591Y031484D02*
D03*
X045788Y031877D02*
D03*
X045985Y031484D02*
D03*
X045788Y031287D02*
D03*
X043229Y028728D02*
D03*
X047363Y027744D02*
D03*
X043623Y027153D02*
D03*
X043426D02*
D03*
X043623Y02735D02*
D03*
Y027547D02*
D03*
X043426Y027744D02*
D03*
X04441D02*
D03*
X043426Y02735D02*
D03*
X043229Y031877D02*
D03*
X04382Y031287D02*
D03*
X043623Y031484D02*
D03*
X043426Y031877D02*
D03*
Y031681D02*
D03*
X043229D02*
D03*
X046772D02*
D03*
X046969Y031877D02*
D03*
X042835D02*
D03*
X043032D02*
D03*
X04441D02*
D03*
X044607D02*
D03*
X044804D02*
D03*
X045001D02*
D03*
X045198D02*
D03*
X045394D02*
D03*
X045591D02*
D03*
X045985D02*
D03*
X046182D02*
D03*
X046379D02*
D03*
X046576D02*
D03*
X046772D02*
D03*
X047166D02*
D03*
X047363D02*
D03*
X04756D02*
D03*
X042835Y031681D02*
D03*
X043032D02*
D03*
X04441D02*
D03*
X044607D02*
D03*
X044804D02*
D03*
X045001D02*
D03*
X045198D02*
D03*
X045394D02*
D03*
X045591D02*
D03*
X045788D02*
D03*
X045985D02*
D03*
X046182D02*
D03*
X046379D02*
D03*
X046576D02*
D03*
X046969D02*
D03*
X047166D02*
D03*
X047363D02*
D03*
X04756D02*
D03*
X042835Y031484D02*
D03*
X043032D02*
D03*
X04441D02*
D03*
X044804D02*
D03*
X045198D02*
D03*
X046576D02*
D03*
X046772D02*
D03*
X047363D02*
D03*
X04756D02*
D03*
X042835Y031287D02*
D03*
X043032D02*
D03*
X043426D02*
D03*
X04441D02*
D03*
X044607D02*
D03*
X045001D02*
D03*
X045394D02*
D03*
X045985D02*
D03*
X046576D02*
D03*
X046969D02*
D03*
X047363D02*
D03*
X04756D02*
D03*
X042835Y03109D02*
D03*
X043032D02*
D03*
X043229D02*
D03*
X043623D02*
D03*
X044804D02*
D03*
X045001D02*
D03*
X045394D02*
D03*
X045591D02*
D03*
X046182D02*
D03*
X046379D02*
D03*
X046772D02*
D03*
X047166D02*
D03*
X047363D02*
D03*
X04756D02*
D03*
X042835Y030893D02*
D03*
X043032D02*
D03*
X043229D02*
D03*
X043426D02*
D03*
X04382D02*
D03*
X044804D02*
D03*
X045198D02*
D03*
X045591D02*
D03*
X046182D02*
D03*
X046576D02*
D03*
X046969D02*
D03*
X047166D02*
D03*
X047363D02*
D03*
X04756D02*
D03*
X042835Y030696D02*
D03*
X043032D02*
D03*
X043623D02*
D03*
X044016D02*
D03*
X04441D02*
D03*
X044607D02*
D03*
X045001D02*
D03*
X045198D02*
D03*
X045394D02*
D03*
X045788D02*
D03*
X045985D02*
D03*
X046379D02*
D03*
X046772D02*
D03*
X047363D02*
D03*
X04756D02*
D03*
X042835Y030499D02*
D03*
X043032D02*
D03*
X043623D02*
D03*
X04382D02*
D03*
X044213D02*
D03*
X04441D02*
D03*
X044607D02*
D03*
X044804D02*
D03*
X045198D02*
D03*
X045591D02*
D03*
X045788D02*
D03*
X045985D02*
D03*
X046182D02*
D03*
X046576D02*
D03*
X046772D02*
D03*
X047363D02*
D03*
X04756D02*
D03*
X042835Y030303D02*
D03*
X043032D02*
D03*
X043229D02*
D03*
X043426D02*
D03*
X044016D02*
D03*
X044213D02*
D03*
X044804D02*
D03*
X045001D02*
D03*
X045394D02*
D03*
X045591D02*
D03*
X046182D02*
D03*
X046379D02*
D03*
X046969D02*
D03*
X047166D02*
D03*
X047363D02*
D03*
X04756D02*
D03*
X042835Y030106D02*
D03*
X043032D02*
D03*
X043426D02*
D03*
X044016D02*
D03*
X044213D02*
D03*
X04441D02*
D03*
X044607D02*
D03*
X045001D02*
D03*
X045198D02*
D03*
X045788D02*
D03*
X045985D02*
D03*
X046182D02*
D03*
X046379D02*
D03*
X046969D02*
D03*
X047363D02*
D03*
X04756D02*
D03*
X042835Y029909D02*
D03*
X043032D02*
D03*
X043229D02*
D03*
X043623D02*
D03*
X04382D02*
D03*
X044213D02*
D03*
X044804D02*
D03*
X045001D02*
D03*
X045198D02*
D03*
X045394D02*
D03*
X045591D02*
D03*
X046182D02*
D03*
X046576D02*
D03*
X046772D02*
D03*
X047166D02*
D03*
X047363D02*
D03*
X04756D02*
D03*
X042835Y029712D02*
D03*
X043032D02*
D03*
X043426D02*
D03*
X043623D02*
D03*
X044016D02*
D03*
X044213D02*
D03*
X04441D02*
D03*
X044607D02*
D03*
X045198D02*
D03*
X045788D02*
D03*
X045985D02*
D03*
X046379D02*
D03*
X046772D02*
D03*
X046969D02*
D03*
X047363D02*
D03*
X04756D02*
D03*
X042835Y029515D02*
D03*
X043032D02*
D03*
X043229D02*
D03*
X04382D02*
D03*
X044213D02*
D03*
X044804D02*
D03*
X045001D02*
D03*
X045198D02*
D03*
X045394D02*
D03*
X045591D02*
D03*
X046182D02*
D03*
X046576D02*
D03*
X047166D02*
D03*
X047363D02*
D03*
X04756D02*
D03*
X042835Y029318D02*
D03*
X043032D02*
D03*
X043426D02*
D03*
X043623D02*
D03*
X044016D02*
D03*
X044213D02*
D03*
X04441D02*
D03*
X044607D02*
D03*
X045198D02*
D03*
X045394D02*
D03*
X045788D02*
D03*
X045985D02*
D03*
X046379D02*
D03*
X046772D02*
D03*
X046969D02*
D03*
X047363D02*
D03*
X04756D02*
D03*
X042835Y029122D02*
D03*
X043032D02*
D03*
X043229D02*
D03*
X043623D02*
D03*
X04382D02*
D03*
X044213D02*
D03*
X044804D02*
D03*
X045001D02*
D03*
X045394D02*
D03*
X045591D02*
D03*
X046182D02*
D03*
X046576D02*
D03*
X046772D02*
D03*
X047363D02*
D03*
X04756D02*
D03*
X042835Y028925D02*
D03*
X043032D02*
D03*
X044016D02*
D03*
X044213D02*
D03*
X04441D02*
D03*
X044607D02*
D03*
X044804D02*
D03*
X045198D02*
D03*
X045788D02*
D03*
X045985D02*
D03*
X046379D02*
D03*
X046969D02*
D03*
X047166D02*
D03*
X047363D02*
D03*
X04756D02*
D03*
X042835Y028728D02*
D03*
X043032D02*
D03*
X044016D02*
D03*
X044213D02*
D03*
X045001D02*
D03*
X045198D02*
D03*
X045394D02*
D03*
X045591D02*
D03*
X046182D02*
D03*
X046379D02*
D03*
X046969D02*
D03*
X047166D02*
D03*
X047363D02*
D03*
X04756D02*
D03*
X042835Y028531D02*
D03*
X043032D02*
D03*
X043623D02*
D03*
X04382D02*
D03*
X044213D02*
D03*
X04441D02*
D03*
X044607D02*
D03*
X044804D02*
D03*
X045198D02*
D03*
X045591D02*
D03*
X045788D02*
D03*
X045985D02*
D03*
X046182D02*
D03*
X046576D02*
D03*
X046772D02*
D03*
X047363D02*
D03*
X04756D02*
D03*
X042835Y028334D02*
D03*
X043032D02*
D03*
X043623D02*
D03*
X044016D02*
D03*
X04441D02*
D03*
X044607D02*
D03*
X045001D02*
D03*
X045198D02*
D03*
X045394D02*
D03*
X045788D02*
D03*
X045985D02*
D03*
X046379D02*
D03*
X046772D02*
D03*
X047363D02*
D03*
X04756D02*
D03*
X042835Y028137D02*
D03*
X043032D02*
D03*
X043229D02*
D03*
X043426D02*
D03*
X044213D02*
D03*
X044804D02*
D03*
X045198D02*
D03*
X045591D02*
D03*
X046182D02*
D03*
X046576D02*
D03*
X046969D02*
D03*
X047166D02*
D03*
X047363D02*
D03*
X04756D02*
D03*
X043032Y02794D02*
D03*
X043229D02*
D03*
X044016D02*
D03*
X044213D02*
D03*
X044804D02*
D03*
X045001D02*
D03*
X045394D02*
D03*
X046182D02*
D03*
X046379D02*
D03*
X047166D02*
D03*
X047363D02*
D03*
X04756D02*
D03*
X042835Y027744D02*
D03*
X043032D02*
D03*
X04382D02*
D03*
X044607D02*
D03*
X045001D02*
D03*
X045788D02*
D03*
X045985D02*
D03*
X046576D02*
D03*
X04756D02*
D03*
X042835Y027547D02*
D03*
X043032D02*
D03*
X04382D02*
D03*
X04441D02*
D03*
X044804D02*
D03*
X045198D02*
D03*
X045591D02*
D03*
X045985D02*
D03*
X046576D02*
D03*
X046772D02*
D03*
X047363D02*
D03*
X04756D02*
D03*
X042835Y02735D02*
D03*
X043032D02*
D03*
X043229D02*
D03*
X04382D02*
D03*
X044016D02*
D03*
X044213D02*
D03*
X044804D02*
D03*
X045001D02*
D03*
X045198D02*
D03*
X045394D02*
D03*
X045591D02*
D03*
X045788D02*
D03*
X045985D02*
D03*
X046182D02*
D03*
X046379D02*
D03*
X046576D02*
D03*
X046772D02*
D03*
X046969D02*
D03*
X047166D02*
D03*
X04756D02*
D03*
X042835Y027153D02*
D03*
X043032D02*
D03*
X043229D02*
D03*
X04382D02*
D03*
X044016D02*
D03*
X044213D02*
D03*
X04441D02*
D03*
X044607D02*
D03*
X044804D02*
D03*
X045001D02*
D03*
X045198D02*
D03*
X045394D02*
D03*
X045591D02*
D03*
X045788D02*
D03*
X045985D02*
D03*
X046182D02*
D03*
X046379D02*
D03*
X046576D02*
D03*
X046772D02*
D03*
X046969D02*
D03*
X047363D02*
D03*
X04756D02*
D03*
D42*
X049501Y032084D02*
D03*
X049816D02*
D03*
X050131D02*
D03*
X051391D02*
D03*
X051706D02*
D03*
X052021D02*
D03*
X049501Y031769D02*
D03*
X049816D02*
D03*
X050131D02*
D03*
X051391D02*
D03*
X051706D02*
D03*
X052021D02*
D03*
X049501Y031454D02*
D03*
X049816D02*
D03*
X050131D02*
D03*
X051391D02*
D03*
X051706D02*
D03*
X052021D02*
D03*
X049501Y031139D02*
D03*
X049816D02*
D03*
X050131D02*
D03*
X051391D02*
D03*
X051706D02*
D03*
X052021D02*
D03*
X049501Y030824D02*
D03*
X049816D02*
D03*
X050131D02*
D03*
X051391D02*
D03*
X051706D02*
D03*
X052021D02*
D03*
X049501Y030509D02*
D03*
X049816D02*
D03*
X050131D02*
D03*
X051391D02*
D03*
X051706D02*
D03*
X052021D02*
D03*
X049501Y030195D02*
D03*
X049816D02*
D03*
X050131D02*
D03*
X051391D02*
D03*
X051706D02*
D03*
X052021D02*
D03*
X049501Y02988D02*
D03*
X049816D02*
D03*
X050131D02*
D03*
X051391D02*
D03*
X051706D02*
D03*
X052021D02*
D03*
X049501Y029565D02*
D03*
X049816D02*
D03*
X050131D02*
D03*
X051391D02*
D03*
X051706D02*
D03*
X052021D02*
D03*
X049501Y02925D02*
D03*
X049816D02*
D03*
X050131D02*
D03*
X051391D02*
D03*
X051706D02*
D03*
X052021D02*
D03*
X049501Y028935D02*
D03*
X049816D02*
D03*
X050131D02*
D03*
X051391D02*
D03*
X051706D02*
D03*
X052021D02*
D03*
X049501Y02862D02*
D03*
X049816D02*
D03*
X050131D02*
D03*
X051391D02*
D03*
X051706D02*
D03*
X052021D02*
D03*
X049501Y028305D02*
D03*
X049816D02*
D03*
X050131D02*
D03*
X051391D02*
D03*
X051706D02*
D03*
X052021D02*
D03*
X049501Y02799D02*
D03*
X049816D02*
D03*
X050131D02*
D03*
X051391D02*
D03*
X051706D02*
D03*
X052021D02*
D03*
X049501Y027675D02*
D03*
X049816D02*
D03*
X050131D02*
D03*
X051391D02*
D03*
X051706D02*
D03*
X052021D02*
D03*
X049501Y02736D02*
D03*
X049816D02*
D03*
X050131D02*
D03*
X051391D02*
D03*
X051706D02*
D03*
X052021D02*
D03*
D43*
X046147Y0351D02*
D03*
D44*
X043955Y03316D02*
D03*
X044703D02*
D03*
X047549Y03311D02*
D03*
X048297D02*
D03*
D45*
X050419Y026489D02*
D03*
Y026096D02*
D03*
X045541Y036537D02*
D03*
Y03693D02*
D03*
X045887Y036537D02*
D03*
Y03693D02*
D03*
X051424Y036278D02*
D03*
Y036672D02*
D03*
X049642Y036782D02*
D03*
Y036389D02*
D03*
X045519Y026418D02*
D03*
Y026024D02*
D03*
X047112Y026002D02*
D03*
Y026396D02*
D03*
X048417Y026094D02*
D03*
Y026487D02*
D03*
D46*
X042837Y033195D02*
D03*
X043427D02*
D03*
X053154Y033438D02*
D03*
X052563D02*
D03*
X050825Y033195D02*
D03*
X050235D02*
D03*
D47*
X051595Y034237D02*
D03*
Y034769D02*
D03*
X052973Y034237D02*
D03*
Y034769D02*
D03*
D48*
X042357Y034363D02*
D03*
X042042D02*
D03*
X043187Y034029D02*
D03*
X043502D02*
D03*
X042042Y035066D02*
D03*
X042357D02*
D03*
X043182Y036349D02*
D03*
X042867D02*
D03*
X043182Y035706D02*
D03*
X042867D02*
D03*
X042042D02*
D03*
X042357D02*
D03*
X042042Y036349D02*
D03*
X042357D02*
D03*
X043181Y035066D02*
D03*
X042866D02*
D03*
D49*
X050462Y036528D02*
D03*
D50*
X050048Y036233D02*
D03*
Y036429D02*
D03*
Y036626D02*
D03*
Y036823D02*
D03*
X050875D02*
D03*
Y036626D02*
D03*
Y036429D02*
D03*
Y036233D02*
D03*
D51*
X049806Y035743D02*
D03*
Y035369D02*
D03*
Y034995D02*
D03*
X05079D02*
D03*
Y035743D02*
D03*
D52*
X048437Y034077D02*
D03*
X049602D02*
D03*
D53*
X04226Y031444D02*
D03*
X042051D02*
D03*
X04976Y032686D02*
D03*
X049552D02*
D03*
X041994Y034629D02*
D03*
X041786D02*
D03*
X04343Y036132D02*
D03*
X043639D02*
D03*
X04343Y035466D02*
D03*
X043639D02*
D03*
X041828Y035706D02*
D03*
X041619D02*
D03*
X041828Y03634D02*
D03*
X041619D02*
D03*
X043403Y034851D02*
D03*
X043612D02*
D03*
X049945Y033237D02*
D03*
X049737D02*
D03*
X052678Y026883D02*
D03*
X052887D02*
D03*
X052719Y03289D02*
D03*
X05251D02*
D03*
X052218Y026712D02*
D03*
X05201D02*
D03*
X053206Y032678D02*
D03*
X052997D02*
D03*
X053202Y03289D02*
D03*
X052993D02*
D03*
X041994Y034818D02*
D03*
X041786D02*
D03*
X043639Y03634D02*
D03*
X04343D02*
D03*
Y035663D02*
D03*
X043639D02*
D03*
X041619Y035513D02*
D03*
X041828D02*
D03*
X041619Y036115D02*
D03*
X041828D02*
D03*
X043612Y035064D02*
D03*
X043403D02*
D03*
X041994Y034107D02*
D03*
X041786D02*
D03*
X049945Y033049D02*
D03*
X049737D02*
D03*
X047547Y032702D02*
D03*
X047756D02*
D03*
X047547Y032505D02*
D03*
X047756D02*
D03*
X043516Y032879D02*
D03*
X043307D02*
D03*
X043516Y032696D02*
D03*
X043307D02*
D03*
X052086Y033095D02*
D03*
X051877D02*
D03*
X052086Y03334D02*
D03*
X051877D02*
D03*
X052672Y027296D02*
D03*
X052881D02*
D03*
X052887Y027095D02*
D03*
X052678D02*
D03*
X048145Y029411D02*
D03*
X048353D02*
D03*
X05251Y03311D02*
D03*
X052719D02*
D03*
X052993D02*
D03*
X053202D02*
D03*
X052672Y027744D02*
D03*
X052881D02*
D03*
X052672Y028192D02*
D03*
X052881D02*
D03*
Y02751D02*
D03*
X052672D02*
D03*
X052881Y027972D02*
D03*
X052672D02*
D03*
X052782Y029703D02*
D03*
X052574D02*
D03*
X042014Y028347D02*
D03*
X042223D02*
D03*
X041966Y027738D02*
D03*
X042175D02*
D03*
X042182Y027064D02*
D03*
X041973D02*
D03*
X051441Y033348D02*
D03*
X051232D02*
D03*
Y033103D02*
D03*
X051441D02*
D03*
X04226Y030756D02*
D03*
X042051D02*
D03*
D54*
X0493Y036163D02*
D03*
X052265Y026169D02*
D03*
X052872Y032488D02*
D03*
X05138Y026512D02*
D03*
X051246Y033848D02*
D03*
X046938Y03272D02*
D03*
X044474Y03271D02*
D03*
X047603Y035706D02*
D03*
X043501Y033767D02*
D03*
X044994Y036734D02*
D03*
X051706Y035752D02*
D03*
D55*
X046556Y026024D02*
D03*
X046024D02*
D03*
Y026418D02*
D03*
X046556D02*
D03*
D56*
X049907Y026224D02*
D03*
X048923D02*
D03*
D57*
X052082Y033714D02*
D03*
X051551D02*
D03*
X051598Y035289D02*
D03*
X052129D02*
D03*
D58*
X043131Y026402D02*
D03*
Y026008D02*
D03*
X052973Y031111D02*
D03*
Y031504D02*
D03*
X046245Y036537D02*
D03*
Y03693D02*
D03*
X046635D02*
D03*
Y036537D02*
D03*
X044784Y026558D02*
D03*
Y026164D02*
D03*
X045151Y026562D02*
D03*
Y026169D02*
D03*
X044093Y026402D02*
D03*
Y026008D02*
D03*
X043564Y026402D02*
D03*
Y026008D02*
D03*
X042777D02*
D03*
Y026402D02*
D03*
D59*
X04893Y029594D02*
D03*
Y029802D02*
D03*
Y030848D02*
D03*
Y031056D02*
D03*
Y031571D02*
D03*
Y031363D02*
D03*
Y030555D02*
D03*
Y030346D02*
D03*
X052652Y035145D02*
D03*
Y035353D02*
D03*
X052107Y034838D02*
D03*
Y034629D02*
D03*
X052656Y034838D02*
D03*
Y034629D02*
D03*
X053052Y029292D02*
D03*
Y029501D02*
D03*
X04893Y031897D02*
D03*
Y032106D02*
D03*
X052574Y032264D02*
D03*
Y032055D02*
D03*
X052575Y031716D02*
D03*
Y031507D02*
D03*
Y030877D02*
D03*
Y031086D02*
D03*
X05279Y029922D02*
D03*
Y03013D02*
D03*
X052575D02*
D03*
Y029922D02*
D03*
Y029292D02*
D03*
Y029501D02*
D03*
X04893Y029194D02*
D03*
Y028985D02*
D03*
X049308Y035677D02*
D03*
Y035468D02*
D03*
X051246Y035684D02*
D03*
Y035476D02*
D03*
X052457Y035145D02*
D03*
Y035353D02*
D03*
X05191Y034838D02*
D03*
Y034629D02*
D03*
X052462Y034838D02*
D03*
Y034629D02*
D03*
X049392Y03643D02*
D03*
Y036638D02*
D03*
X049204Y036638D02*
D03*
Y036429D02*
D03*
X047135Y03657D02*
D03*
Y036778D02*
D03*
X047338D02*
D03*
Y03657D02*
D03*
X04691Y036778D02*
D03*
Y03657D02*
D03*
X046054Y033739D02*
D03*
Y033531D02*
D03*
X049308Y034804D02*
D03*
Y035013D02*
D03*
X049076Y034801D02*
D03*
Y035009D02*
D03*
X044503Y026385D02*
D03*
Y026594D02*
D03*
X043824Y026232D02*
D03*
Y026441D02*
D03*
D60*
X043208Y034348D02*
D03*
X043602D02*
D03*
X04822Y035001D02*
D03*
X048614D02*
D03*
X04822Y035319D02*
D03*
X048614D02*
D03*
X04558Y033596D02*
D03*
X045186D02*
D03*
X046832Y033615D02*
D03*
X047225D02*
D03*
X048219Y03564D02*
D03*
X048613D02*
D03*
X044389Y035198D02*
D03*
X043996D02*
D03*
X04822Y035965D02*
D03*
X048614D02*
D03*
X044389Y034503D02*
D03*
X043996D02*
D03*
X044389Y035546D02*
D03*
X043996D02*
D03*
X044389Y034851D02*
D03*
X043996D02*
D03*
X044389Y034156D02*
D03*
X043996D02*
D03*
D61*
X0508Y034451D02*
D03*
Y033703D02*
D03*
D62*
X050204Y033681D02*
D03*
Y034272D02*
D03*
X051876Y036279D02*
D03*
Y036869D02*
D03*
D63*
X047806Y036262D02*
D03*
Y035947D02*
D03*
D64*
X053052Y029016D02*
D03*
X052658D02*
D03*
Y028647D02*
D03*
X053052D02*
D03*
X052961Y030513D02*
D03*
X052567D02*
D03*
X052663Y026455D02*
D03*
X053057D02*
D03*
X044389Y03592D02*
D03*
X043996D02*
D03*
X047476Y034077D02*
D03*
X04787D02*
D03*
X044382Y033681D02*
D03*
X044776D02*
D03*
X048619Y036489D02*
D03*
X048225D02*
D03*
X044225Y036734D02*
D03*
X044619D02*
D03*
X048227Y036891D02*
D03*
X048621D02*
D03*
X044225Y036385D02*
D03*
X044619D02*
D03*
X042239Y028674D02*
D03*
X041845D02*
D03*
X041837Y029048D02*
D03*
X042231D02*
D03*
X047617Y026011D02*
D03*
X048011D02*
D03*
X047619Y026401D02*
D03*
X048013D02*
D03*
X041871Y028035D02*
D03*
X042265D02*
D03*
X042265Y026745D02*
D03*
X041871D02*
D03*
Y02736D02*
D03*
X042265D02*
D03*
X041836Y03313D02*
D03*
X042229D02*
D03*
X044858Y032604D02*
D03*
X045251D02*
D03*
X041836Y032769D02*
D03*
X042229D02*
D03*
X046595Y032604D02*
D03*
X046202D02*
D03*
X041836Y033489D02*
D03*
X042229D02*
D03*
X041836Y033845D02*
D03*
X042229D02*
D03*
D65*
X041775Y03769D02*
D03*
X042208D02*
D03*
X042641D02*
D03*
X043074D02*
D03*
X043507D02*
D03*
X04394D02*
D03*
X044373D02*
D03*
X044806D02*
D03*
X045239D02*
D03*
X045673D02*
D03*
X046106D02*
D03*
X046539D02*
D03*
X046972D02*
D03*
X047405D02*
D03*
X047838D02*
D03*
X048271D02*
D03*
X048704D02*
D03*
X049137D02*
D03*
X04957D02*
D03*
X050003D02*
D03*
X050436D02*
D03*
X050869D02*
D03*
X051302D02*
D03*
X0538Y02591D02*
D03*
X041005D02*
D03*
Y026343D02*
D03*
Y026776D02*
D03*
Y027209D02*
D03*
Y027642D02*
D03*
Y028075D02*
D03*
Y028509D02*
D03*
Y028942D02*
D03*
Y029375D02*
D03*
Y029808D02*
D03*
Y030241D02*
D03*
Y030674D02*
D03*
Y031107D02*
D03*
Y03154D02*
D03*
Y031973D02*
D03*
Y032406D02*
D03*
Y032839D02*
D03*
Y033272D02*
D03*
Y033705D02*
D03*
Y034138D02*
D03*
Y034571D02*
D03*
Y035005D02*
D03*
Y035438D02*
D03*
Y035871D02*
D03*
Y036304D02*
D03*
Y036737D02*
D03*
Y03717D02*
D03*
Y02591D02*
D03*
Y026343D02*
D03*
Y026776D02*
D03*
Y027209D02*
D03*
Y027642D02*
D03*
Y028075D02*
D03*
Y028509D02*
D03*
Y028942D02*
D03*
Y029375D02*
D03*
Y029808D02*
D03*
Y030241D02*
D03*
Y030674D02*
D03*
Y031107D02*
D03*
Y03154D02*
D03*
Y031973D02*
D03*
Y032406D02*
D03*
Y032839D02*
D03*
Y033272D02*
D03*
Y033705D02*
D03*
Y034138D02*
D03*
Y034571D02*
D03*
Y035005D02*
D03*
Y035438D02*
D03*
Y035871D02*
D03*
Y036304D02*
D03*
Y036737D02*
D03*
Y03717D02*
D03*
X053035Y03769D02*
D03*
X052602D02*
D03*
X052169D02*
D03*
X051736D02*
D03*
X0538Y03717D02*
D03*
Y036737D02*
D03*
Y036304D02*
D03*
Y035871D02*
D03*
Y035438D02*
D03*
Y035005D02*
D03*
Y034571D02*
D03*
Y034138D02*
D03*
Y033705D02*
D03*
Y033272D02*
D03*
Y032839D02*
D03*
Y032406D02*
D03*
Y031973D02*
D03*
Y03154D02*
D03*
Y031107D02*
D03*
Y030674D02*
D03*
Y030241D02*
D03*
Y029808D02*
D03*
Y029375D02*
D03*
Y028942D02*
D03*
Y028509D02*
D03*
Y028075D02*
D03*
Y027642D02*
D03*
Y027209D02*
D03*
Y026776D02*
D03*
Y026343D02*
D03*
X045239Y025407D02*
D03*
X045673D02*
D03*
X046106D02*
D03*
X046539D02*
D03*
X046972D02*
D03*
X047405D02*
D03*
X047838D02*
D03*
X048271D02*
D03*
X048704D02*
D03*
X049137D02*
D03*
X04957D02*
D03*
X050003D02*
D03*
X050436D02*
D03*
X050869D02*
D03*
X051302D02*
D03*
X051736D02*
D03*
X052169D02*
D03*
X052602D02*
D03*
X053035D02*
D03*
X044806D02*
D03*
X044373D02*
D03*
X04394D02*
D03*
X043507D02*
D03*
X043074D02*
D03*
X042641D02*
D03*
X042208D02*
D03*
X041775D02*
D03*
M02*
