G04*
G04 #@! TF.GenerationSoftware,Altium Limited,Altium Designer,18.1.6 (161)*
G04*
G04 Layer_Physical_Order=7*
G04 Layer_Color=16737945*
%FSTAX24Y24*%
%MOIN*%
G70*
G01*
G75*
%ADD86C,0.0315*%
%ADD87C,0.0157*%
%ADD88C,0.0236*%
G36*
X045036Y03427D02*
X045312Y033994D01*
X045307Y033945D01*
X045276Y033898D01*
X045265Y033842D01*
X045276Y033786D01*
X045307Y033739D01*
X045355Y033707D01*
X045411Y033696D01*
X045466Y033707D01*
X045514Y033739D01*
X045563Y033743D01*
X046134Y033172D01*
X047053Y033172D01*
X047058Y033122D01*
X047012Y033113D01*
X046964Y033082D01*
X046933Y033034D01*
X046922Y032978D01*
X046933Y032922D01*
X046964Y032875D01*
X047012Y032844D01*
X047068Y032832D01*
X047124Y032844D01*
X047171Y032875D01*
X047202Y032922D01*
X047214Y032978D01*
X047202Y033034D01*
X047171Y033082D01*
X047124Y033113D01*
X047077Y033122D01*
X047082Y033172D01*
X04926Y033172D01*
X049267Y033162D01*
X049301Y033139D01*
X049342Y033131D01*
X049382Y033139D01*
X049417Y033162D01*
X049423Y033172D01*
X051577Y033172D01*
X051692Y033288D01*
X051706Y033285D01*
X051746Y033293D01*
X051781Y033316D01*
X051804Y03335D01*
X051812Y033391D01*
X051809Y033404D01*
X052482Y034078D01*
X053131Y034078D01*
X053243Y033965D01*
X053239Y033917D01*
X053215Y033905D01*
X053194Y0339D01*
X053151Y033929D01*
X053095Y03394D01*
X053039Y033929D01*
X052992Y033897D01*
X05296Y03385D01*
X052949Y033794D01*
X05296Y033738D01*
X052992Y033691D01*
X053039Y033659D01*
X053095Y033648D01*
X053151Y033659D01*
X053194Y033688D01*
X053215Y033683D01*
X053244Y033669D01*
X053244Y026172D01*
X052994Y025922D01*
X046364D01*
X045966Y02632D01*
Y026676D01*
X045984Y026705D01*
X045989Y026729D01*
X04604D01*
X046045Y026705D01*
X046068Y02667D01*
X046102Y026647D01*
X046143Y026639D01*
X046183Y026647D01*
X046217Y02667D01*
X04624Y026705D01*
X046245Y026729D01*
X046296D01*
X046301Y026705D01*
X046324Y02667D01*
X046358Y026647D01*
X046399Y026639D01*
X046439Y026647D01*
X046473Y02667D01*
X046496Y026705D01*
X046504Y026745D01*
X046496Y026786D01*
X046473Y02682D01*
X04645Y026836D01*
X046446Y026852D01*
Y026875D01*
X04645Y026891D01*
X046473Y026907D01*
X046496Y026941D01*
X046504Y026981D01*
X046496Y027022D01*
X046473Y027056D01*
X046439Y027079D01*
X046399Y027087D01*
X046358Y027079D01*
X046324Y027056D01*
X046301Y027022D01*
X046296Y026998D01*
X046245D01*
X04624Y027022D01*
X046217Y027056D01*
X046183Y027079D01*
X046143Y027087D01*
X046102Y027079D01*
X046068Y027056D01*
X046045Y027022D01*
X04604Y026998D01*
X045989D01*
X045984Y027022D01*
X045966Y02705D01*
Y027819D01*
X045985Y027835D01*
X046025Y027843D01*
X04606Y027866D01*
X046083Y0279D01*
X046091Y02794D01*
X046083Y027981D01*
X04606Y028015D01*
Y028055D01*
X046083Y028089D01*
X046091Y02813D01*
X046083Y02817D01*
X04606Y028205D01*
X046025Y028227D01*
X045985Y028235D01*
X045966Y028251D01*
Y028608D01*
X045984Y028623D01*
X046024Y028631D01*
X046059Y028654D01*
X046082Y028688D01*
X04609Y028729D01*
X046082Y028769D01*
X046059Y028804D01*
X046024Y028827D01*
X045984Y028835D01*
X045966Y02885D01*
X045966Y029393D01*
X045985Y029409D01*
X046025Y029418D01*
X04606Y02944D01*
X046083Y029475D01*
X046091Y029515D01*
X046083Y029556D01*
X04606Y02959D01*
X046025Y029613D01*
X045985Y029621D01*
X045966Y029637D01*
Y030181D01*
X045985Y030197D01*
X046025Y030205D01*
X04606Y030228D01*
X046083Y030262D01*
X046091Y030303D01*
X046083Y030343D01*
X04606Y030377D01*
X046025Y0304D01*
X045985Y030408D01*
X045966Y030424D01*
Y030771D01*
X045985Y030787D01*
X046025Y030795D01*
X04606Y030818D01*
X046083Y030853D01*
X046091Y030893D01*
X046083Y030934D01*
X04606Y030968D01*
X046065Y031015D01*
X046088Y03105D01*
X046096Y03109D01*
X046088Y03113D01*
X046065Y031165D01*
X046031Y031188D01*
X04599Y031196D01*
X045966Y031216D01*
Y031779D01*
X045699Y032046D01*
X045694Y032074D01*
X045671Y032108D01*
X045636Y032131D01*
X045608Y032137D01*
X045606Y032139D01*
X045598D01*
X045596Y032139D01*
X045593Y032139D01*
X045432D01*
X045399Y032145D01*
X045367Y032139D01*
X045279D01*
X045272Y032149D01*
X045238Y032172D01*
X045198Y03218D01*
X045157Y032172D01*
X045123Y032149D01*
X045116Y032139D01*
X045018D01*
X045017Y032141D01*
X044982Y032164D01*
X044942Y032172D01*
X044901Y032164D01*
X044867Y032141D01*
X044865Y032139D01*
X044596D01*
X044589Y032149D01*
X044555Y032172D01*
X044515Y03218D01*
X044474Y032172D01*
X04444Y032149D01*
X044433Y032139D01*
X043932Y032139D01*
X043771Y0323D01*
X043771Y033548D01*
X043817Y03357D01*
X043821Y033569D01*
X043842Y033538D01*
X043876Y033515D01*
X043917Y033507D01*
X043957Y033515D01*
X043991Y033538D01*
X044014Y033572D01*
X044022Y033612D01*
X044014Y033653D01*
X043991Y033687D01*
X043957Y03371D01*
X043921Y033717D01*
X043872Y033728D01*
X043867Y033755D01*
X043864Y033769D01*
X043841Y033803D01*
X043807Y033826D01*
X043771Y033833D01*
Y033934D01*
X044107Y03427D01*
X045036Y03427D01*
D02*
G37*
G36*
X049101Y037094D02*
X04928Y036915D01*
X04928Y03619D01*
X048527Y035436D01*
Y034152D01*
X048015Y03364D01*
X047814D01*
X047806Y033679D01*
X047783Y033714D01*
X047749Y033737D01*
X047708Y033745D01*
X047668Y033737D01*
X047633Y033714D01*
X04761Y033679D01*
X047603Y03364D01*
X046688Y03364D01*
X046686Y033653D01*
X046663Y033687D01*
X046629Y03371D01*
X046588Y033718D01*
X046548Y03371D01*
X046513Y033687D01*
X04649Y033653D01*
X046488Y03364D01*
X046349D01*
X044957Y035033D01*
X044489D01*
X044474Y035083D01*
X044493Y035095D01*
X044524Y035142D01*
X044535Y035198D01*
X044524Y035254D01*
X044493Y035301D01*
X044445Y035333D01*
X044389Y035344D01*
X044334Y035333D01*
X044286Y035301D01*
X044255Y035254D01*
X044244Y035198D01*
X044255Y035142D01*
X044286Y035095D01*
X044305Y035083D01*
X04429Y035033D01*
X04388Y035033D01*
X043854Y035064D01*
X043846Y035105D01*
X043823Y035139D01*
X043789Y035162D01*
X043748Y03517D01*
X043708Y035162D01*
X043674Y035139D01*
X043651Y035105D01*
X043643Y035064D01*
X043617Y035033D01*
X043003D01*
X042343Y034373D01*
X042343Y031954D01*
X042293Y031939D01*
X042283Y031954D01*
X042248Y031977D01*
X042208Y031985D01*
X042167Y031977D01*
X042133Y031954D01*
X04211Y03192D01*
X042102Y03188D01*
X04211Y031839D01*
X042133Y031805D01*
X042167Y031782D01*
X042208Y031774D01*
X042248Y031782D01*
X042283Y031805D01*
X042293Y031821D01*
X042343Y031805D01*
Y031521D01*
X04234Y031519D01*
X042317Y031485D01*
X042309Y031445D01*
X042317Y031404D01*
X04234Y03137D01*
X042375Y031347D01*
X042415Y031339D01*
X042456Y031347D01*
X042461Y03135D01*
X042637Y031174D01*
X044282Y031174D01*
X044306Y031139D01*
X044311Y031124D01*
X044304Y03109D01*
X044312Y03105D01*
X044335Y031015D01*
Y030966D01*
X044312Y030932D01*
X044304Y030892D01*
X044312Y030851D01*
X044335Y030817D01*
X04437Y030794D01*
X04441Y030786D01*
X044451Y030794D01*
X044485Y030817D01*
X044508Y030851D01*
X044516Y030892D01*
X044508Y030932D01*
X044485Y030966D01*
Y031015D01*
X044508Y03105D01*
X044516Y03109D01*
X044509Y031124D01*
X044514Y031139D01*
X044539Y031174D01*
X045247D01*
X045377Y031044D01*
X045361Y03099D01*
X045351Y030988D01*
X045317Y030965D01*
X045294Y030931D01*
X045286Y03089D01*
X045294Y03085D01*
X045317Y030815D01*
X045351Y030792D01*
X045391Y030784D01*
X045432Y030792D01*
X045466Y030815D01*
X045489Y03085D01*
X045489Y03085D01*
X045537Y030865D01*
X045559Y030843D01*
X045548Y030792D01*
X045517Y030771D01*
X045494Y030737D01*
X045486Y030696D01*
X045494Y030656D01*
X045517Y030622D01*
X045551Y030599D01*
X045591Y030591D01*
X045632Y030599D01*
X045666Y030622D01*
X045689Y030656D01*
X04569Y030661D01*
X045744Y030677D01*
X045829Y030593D01*
Y030453D01*
X045788Y030411D01*
X045748Y030403D01*
X045713Y03038D01*
X04569Y030345D01*
X045682Y030305D01*
X04569Y030264D01*
X045713Y03023D01*
X045748Y030207D01*
X045788Y030199D01*
X045829Y030156D01*
Y030058D01*
X045788Y030015D01*
X045748Y030007D01*
X045713Y029984D01*
X04569Y029949D01*
X045682Y029909D01*
X04569Y029868D01*
X045713Y029834D01*
X045748Y029811D01*
X045788Y029803D01*
X045829Y02976D01*
Y029664D01*
X045788Y029621D01*
X045748Y029613D01*
X045713Y02959D01*
X04569Y029556D01*
X045682Y029515D01*
X04569Y029475D01*
X045713Y02944D01*
X045748Y029418D01*
X045788Y029409D01*
X045829Y029367D01*
Y02927D01*
X045788Y029227D01*
X045748Y029219D01*
X045713Y029196D01*
X04569Y029162D01*
X045682Y029122D01*
X04569Y029081D01*
X045713Y029047D01*
X045748Y029024D01*
X045788Y029016D01*
X045829Y028973D01*
Y028265D01*
X045792Y028235D01*
X045752Y028227D01*
X045718Y028205D01*
X045695Y02817D01*
X045687Y02813D01*
X045695Y028089D01*
X04571Y028067D01*
X045709Y028015D01*
X045686Y027981D01*
X045678Y02794D01*
X045686Y0279D01*
X045709Y027866D01*
X045743Y027843D01*
X045784Y027835D01*
X045829Y027793D01*
Y027695D01*
X045788Y027652D01*
X045748Y027644D01*
X045713Y027622D01*
X04569Y027587D01*
X045682Y027547D01*
X04569Y027506D01*
X045713Y027472D01*
X045748Y027449D01*
X045788Y027441D01*
X045829Y027398D01*
Y027067D01*
X045812Y027056D01*
X045789Y027022D01*
X045784Y026998D01*
X045733D01*
X045729Y027022D01*
X045706Y027056D01*
X045671Y027079D01*
X045631Y027087D01*
X04559Y027079D01*
X045556Y027056D01*
X045533Y027022D01*
X045525Y026981D01*
X045533Y026941D01*
X045556Y026906D01*
X045579Y026891D01*
X045583Y026874D01*
Y026852D01*
X045579Y026835D01*
X045556Y02682D01*
X045533Y026785D01*
X045525Y026745D01*
X045533Y026705D01*
X045556Y02667D01*
X04559Y026647D01*
X045631Y026639D01*
X045671Y026647D01*
X045706Y02667D01*
X045729Y026705D01*
X045733Y026728D01*
X045784D01*
X045789Y026705D01*
X045812Y02667D01*
X045829Y026659D01*
Y026481D01*
X045266Y025918D01*
X042197D01*
X041379Y026736D01*
Y036031D01*
X042442Y037094D01*
X049101Y037094D01*
D02*
G37*
G36*
X042973Y03393D02*
Y033753D01*
X042966Y033718D01*
X042973Y033683D01*
Y032107D01*
X043275Y031804D01*
X045418D01*
X045694Y031529D01*
X04569Y031524D01*
X045682Y031484D01*
X04569Y031443D01*
X045713Y031409D01*
X045748Y031386D01*
X045788Y031378D01*
X045829Y031386D01*
X045834Y031389D01*
X045877Y031346D01*
X045877Y031216D01*
X045829Y031188D01*
X045827Y031188D01*
X045788Y031196D01*
X045748Y031188D01*
X045713Y031165D01*
X04569Y03113D01*
X045682Y03109D01*
X04569Y03105D01*
X045713Y031015D01*
X045748Y030992D01*
X045788Y030984D01*
X045827Y030992D01*
X045829Y030992D01*
X045877Y030964D01*
X045877Y030826D01*
X045837Y030786D01*
X045742Y030786D01*
X045285Y031244D01*
X045286Y031246D01*
X045294Y031287D01*
X045286Y031327D01*
X045264Y031362D01*
X045229Y031385D01*
X045189Y031393D01*
X045148Y031385D01*
X045146Y031383D01*
X045017Y031511D01*
X044713D01*
X044711Y031524D01*
X044688Y031559D01*
X044653Y031581D01*
X044613Y03159D01*
X044572Y031581D01*
X044538Y031559D01*
X044515Y031524D01*
X044513Y031511D01*
X044314D01*
X044311Y031524D01*
X044288Y031559D01*
X044254Y031581D01*
X044213Y03159D01*
X044173Y031581D01*
X044139Y031559D01*
X044127Y031541D01*
X044111Y031538D01*
X044074Y03154D01*
X044071Y031541D01*
X044055Y031565D01*
X044021Y031588D01*
X04398Y031596D01*
X04394Y031588D01*
X043906Y031565D01*
X043883Y031531D01*
X043879Y031511D01*
X043526D01*
X043524Y031524D01*
X043501Y031559D01*
X043466Y031581D01*
X043426Y03159D01*
X043385Y031581D01*
X043351Y031559D01*
X043304Y031559D01*
X04327Y031581D01*
X043229Y03159D01*
X043189Y031581D01*
X043154Y031559D01*
X043131Y031524D01*
X043129Y031511D01*
X042835D01*
X04273Y031617D01*
X042742Y031668D01*
X042745Y031672D01*
X042777Y031693D01*
X042799Y031727D01*
X042808Y031768D01*
X042799Y031808D01*
X042777Y031843D01*
X042742Y031865D01*
X042702Y031874D01*
X042684Y031888D01*
Y032695D01*
X042705Y032726D01*
X042713Y032766D01*
X042705Y032807D01*
X042684Y032838D01*
Y033036D01*
X042436Y033285D01*
Y034112D01*
X042505Y034182D01*
X042722D01*
X042973Y03393D01*
D02*
G37*
%LPC*%
G36*
X044389Y03401D02*
X044349Y034002D01*
X044315Y033979D01*
X044292Y033945D01*
X044284Y033905D01*
X044292Y033864D01*
X044315Y03383D01*
X044349Y033807D01*
X044389Y033799D01*
X04443Y033807D01*
X044464Y03383D01*
X044487Y033864D01*
X044495Y033905D01*
X044487Y033945D01*
X044464Y033979D01*
X04443Y034002D01*
X044389Y03401D01*
D02*
G37*
G36*
X045519Y033451D02*
X045464Y03344D01*
X045416Y033409D01*
X045385Y033361D01*
X045374Y033305D01*
X045385Y03325D01*
X045416Y033202D01*
X045464Y033171D01*
X045519Y03316D01*
X045575Y033171D01*
X045623Y033202D01*
X045654Y03325D01*
X045665Y033305D01*
X045654Y033361D01*
X045623Y033409D01*
X045575Y03344D01*
X045519Y033451D01*
D02*
G37*
G36*
X052084Y032991D02*
X052043Y032983D01*
X052009Y03296D01*
X052007Y032958D01*
X051947D01*
X051946Y03296D01*
X051912Y032983D01*
X051871Y032991D01*
X051831Y032983D01*
X051796Y03296D01*
X051773Y032926D01*
X051765Y032885D01*
X051773Y032845D01*
X051796Y03281D01*
X051805Y032805D01*
Y032745D01*
X051796Y03274D01*
X051773Y032705D01*
X051765Y032665D01*
X051773Y032624D01*
X051796Y03259D01*
X051831Y032567D01*
X051871Y032559D01*
X051912Y032567D01*
X051946Y03259D01*
X051947Y032591D01*
X052007D01*
X052008Y03259D01*
X052042Y032567D01*
X052082Y032559D01*
X052123Y032567D01*
X052157Y03259D01*
X05218Y032624D01*
X052188Y032665D01*
X05218Y032705D01*
X052157Y03274D01*
X052149Y032745D01*
X052149Y032804D01*
X052159Y03281D01*
X052181Y032845D01*
X05219Y032885D01*
X052181Y032926D01*
X052159Y03296D01*
X052124Y032983D01*
X052084Y032991D01*
D02*
G37*
G36*
X051529Y033044D02*
X051489Y033036D01*
X051455Y033013D01*
X051432Y032978D01*
X051424Y032938D01*
X051432Y032897D01*
X051455Y032863D01*
X051489Y03284D01*
X051529Y032832D01*
X05157Y03284D01*
X051604Y032863D01*
X051627Y032897D01*
X051635Y032938D01*
X051627Y032978D01*
X051604Y033013D01*
X05157Y033036D01*
X051529Y033044D01*
D02*
G37*
G36*
X04555Y032912D02*
X04551Y032904D01*
X045475Y032881D01*
X045452Y032847D01*
X045444Y032807D01*
X045452Y032766D01*
X045475Y032732D01*
X04551Y032709D01*
X04555Y032701D01*
X045591Y032709D01*
X045625Y032732D01*
X045648Y032766D01*
X045656Y032807D01*
X045648Y032847D01*
X045625Y032881D01*
X045591Y032904D01*
X04555Y032912D01*
D02*
G37*
G36*
X05278Y032854D02*
X052739Y032846D01*
X052705Y032823D01*
X052682Y032789D01*
X052674Y032748D01*
X052682Y032708D01*
X052705Y032673D01*
X052739Y03265D01*
X05278Y032642D01*
X05282Y03265D01*
X052854Y032673D01*
X052877Y032708D01*
X052885Y032748D01*
X052877Y032789D01*
X052854Y032823D01*
X05282Y032846D01*
X05278Y032854D01*
D02*
G37*
G36*
X047068Y032574D02*
X047027Y032566D01*
X046993Y032543D01*
X04697Y032508D01*
X046967Y032495D01*
X046949Y032466D01*
X046913Y032459D01*
X046901Y032461D01*
X04686Y032453D01*
X046826Y03243D01*
X046815Y032415D01*
X046759D01*
X046749Y03243D01*
X046715Y032453D01*
X046674Y032461D01*
X046634Y032453D01*
X046599Y03243D01*
X046576Y032396D01*
X046568Y032355D01*
X046536Y032323D01*
X046519Y03232D01*
X046476Y032354D01*
X046474Y032358D01*
X046467Y032396D01*
X046444Y03243D01*
X04641Y032453D01*
X046369Y032461D01*
X046329Y032453D01*
X046294Y03243D01*
X046271Y032396D01*
X046263Y032355D01*
X046271Y032315D01*
X046294Y032281D01*
X046329Y032258D01*
X046369Y03225D01*
X046387Y032253D01*
X046429Y032219D01*
X046431Y032215D01*
X046437Y032184D01*
X046439Y032177D01*
X046439Y03217D01*
X046439Y032168D01*
X046392Y03214D01*
X046391Y032141D01*
X04638Y032148D01*
X04634Y032156D01*
X046299Y032148D01*
X046286Y032139D01*
X046234Y032162D01*
X046231Y032179D01*
X046208Y032214D01*
X046173Y032237D01*
X046133Y032245D01*
X046092Y032237D01*
X046078Y032227D01*
X046042Y032263D01*
X046044Y032266D01*
X046052Y032306D01*
X046044Y032347D01*
X046021Y032381D01*
X045986Y032404D01*
X045946Y032412D01*
X045905Y032404D01*
X045871Y032381D01*
X045814D01*
X04578Y032404D01*
X045739Y032412D01*
X045699Y032404D01*
X045664Y032381D01*
X045641Y032347D01*
X045633Y032306D01*
X045641Y032266D01*
X045664Y032231D01*
X045699Y032208D01*
X045739Y0322D01*
X04578Y032208D01*
X045814Y032231D01*
X045871D01*
X045905Y032208D01*
X045946Y0322D01*
X045986Y032208D01*
X046001Y032218D01*
X046037Y032182D01*
X046035Y032179D01*
X046027Y032139D01*
X046035Y032098D01*
X046058Y032064D01*
X046092Y032041D01*
X046133Y032033D01*
X046173Y032041D01*
X046187Y03205D01*
X046238Y032027D01*
X046242Y03201D01*
X046265Y031976D01*
X046299Y031953D01*
X04634Y031945D01*
X04638Y031953D01*
X046414Y031976D01*
X046437Y03201D01*
X046445Y03205D01*
X046439Y032083D01*
X046437Y032091D01*
X046437Y032098D01*
X046437Y0321D01*
X046484Y032128D01*
X046485Y032127D01*
X046496Y03212D01*
X046536Y032112D01*
X046577Y03212D01*
X046611Y032143D01*
X046634Y032177D01*
X046642Y032218D01*
X046674Y03225D01*
X046715Y032258D01*
X046749Y032281D01*
X046759Y032296D01*
X046815D01*
X046826Y032281D01*
X04686Y032258D01*
X046901Y03225D01*
X046941Y032258D01*
X046975Y032281D01*
X046998Y032315D01*
X047001Y032328D01*
X047019Y032358D01*
X047055Y032365D01*
X047068Y032362D01*
X047108Y03237D01*
X04711Y032371D01*
X047124Y032368D01*
X047162Y032346D01*
X047167Y032321D01*
X04719Y032287D01*
X047224Y032264D01*
X047265Y032256D01*
X047305Y032264D01*
X047339Y032287D01*
X047362Y032321D01*
X04737Y032361D01*
X047362Y032402D01*
X047339Y032436D01*
X047305Y032459D01*
X047265Y032467D01*
X047224Y032459D01*
X047222Y032458D01*
X047208Y032461D01*
X04717Y032483D01*
X047165Y032508D01*
X047142Y032543D01*
X047108Y032566D01*
X047068Y032574D01*
D02*
G37*
G36*
X052404Y032791D02*
X052364Y032783D01*
X052329Y032761D01*
X052306Y032726D01*
X052298Y032686D01*
X052306Y032645D01*
X052329Y032611D01*
X052356Y032593D01*
X05236Y032564D01*
X052355Y032539D01*
X052328Y03252D01*
X052305Y032486D01*
X052297Y032445D01*
X052305Y032405D01*
X052328Y032371D01*
X052362Y032348D01*
X052403Y03234D01*
X052443Y032348D01*
X052477Y032371D01*
X0525Y032405D01*
X052508Y032445D01*
X0525Y032486D01*
X052477Y03252D01*
X052451Y032538D01*
X052447Y032567D01*
X052451Y032593D01*
X052479Y032611D01*
X052502Y032645D01*
X05251Y032686D01*
X052502Y032726D01*
X052479Y032761D01*
X052445Y032783D01*
X052404Y032791D01*
D02*
G37*
G36*
X050861Y032495D02*
X050821Y032487D01*
X050786Y032464D01*
X050764Y03243D01*
X050755Y03239D01*
X050764Y032349D01*
X050786Y032315D01*
X050821Y032292D01*
X050861Y032284D01*
X050902Y032292D01*
X050936Y032315D01*
X050959Y032349D01*
X050967Y03239D01*
X050959Y03243D01*
X050936Y032464D01*
X050902Y032487D01*
X050861Y032495D01*
D02*
G37*
G36*
X052716Y032372D02*
X052676Y032364D01*
X052642Y032341D01*
X052619Y032307D01*
X052611Y032266D01*
X052619Y032226D01*
X052642Y032191D01*
X052676Y032168D01*
X052716Y03216D01*
X052757Y032168D01*
X052791Y032191D01*
X052814Y032226D01*
X052822Y032266D01*
X052814Y032307D01*
X052791Y032341D01*
X052757Y032364D01*
X052716Y032372D01*
D02*
G37*
G36*
X051177Y032335D02*
X051136Y032327D01*
X051102Y032304D01*
X051079Y03227D01*
X051071Y032229D01*
X051079Y032189D01*
X051102Y032155D01*
X051136Y032132D01*
X051177Y032124D01*
X051217Y032132D01*
X051252Y032155D01*
X051274Y032189D01*
X051283Y032229D01*
X051274Y03227D01*
X051252Y032304D01*
X051217Y032327D01*
X051177Y032335D01*
D02*
G37*
G36*
X048219Y03256D02*
X048179Y032552D01*
X048145Y032529D01*
X048122Y032494D01*
X048114Y032454D01*
X048122Y032413D01*
X048145Y032379D01*
X048166Y032365D01*
X048169Y032355D01*
Y032319D01*
X048166Y032309D01*
X048145Y032295D01*
X048122Y032261D01*
X048114Y03222D01*
X048122Y03218D01*
X048145Y032146D01*
X048179Y032123D01*
X048219Y032115D01*
X04826Y032123D01*
X048294Y032146D01*
X048317Y03218D01*
X048325Y03222D01*
X048317Y032261D01*
X048294Y032295D01*
X048273Y032309D01*
X04827Y032319D01*
Y032355D01*
X048273Y032365D01*
X048294Y032379D01*
X048317Y032413D01*
X048325Y032454D01*
X048317Y032494D01*
X048294Y032529D01*
X04826Y032552D01*
X048219Y03256D01*
D02*
G37*
G36*
X049157Y032223D02*
X049116Y032215D01*
X049082Y032192D01*
X049059Y032158D01*
X049051Y032117D01*
X049059Y032077D01*
X049082Y032043D01*
X049116Y03202D01*
X049157Y032012D01*
X049197Y03202D01*
X049232Y032043D01*
X049255Y032077D01*
X049263Y032117D01*
X049255Y032158D01*
X049232Y032192D01*
X049197Y032215D01*
X049157Y032223D01*
D02*
G37*
G36*
X0483Y032048D02*
X04826Y03204D01*
X048225Y032017D01*
X048202Y031983D01*
X048198Y031959D01*
X048147D01*
X048142Y031982D01*
X048119Y032017D01*
X048085Y03204D01*
X048044Y032048D01*
X048004Y03204D01*
X047969Y032017D01*
X047946Y031982D01*
X047942Y031958D01*
X047891D01*
X047886Y031982D01*
X047863Y032017D01*
X047829Y03204D01*
X047788Y032048D01*
X047748Y03204D01*
X047714Y032017D01*
X047691Y031982D01*
X047683Y031942D01*
X047691Y031901D01*
X047714Y031867D01*
X047748Y031844D01*
X047788Y031836D01*
X047829Y031844D01*
X047863Y031867D01*
X047886Y031901D01*
X047891Y031925D01*
X047942D01*
X047946Y031901D01*
X047969Y031867D01*
X048004Y031844D01*
X048044Y031836D01*
X048085Y031844D01*
X048119Y031867D01*
X048142Y031901D01*
X048147Y031925D01*
X048198D01*
X048202Y031902D01*
X048225Y031867D01*
X04826Y031844D01*
X0483Y031836D01*
X048341Y031844D01*
X048375Y031867D01*
X048398Y031902D01*
X048406Y031942D01*
X048398Y031983D01*
X048375Y032017D01*
X048341Y03204D01*
X0483Y032048D01*
D02*
G37*
G36*
X050927Y032167D02*
X050887Y032159D01*
X050852Y032136D01*
X050829Y032102D01*
X050821Y032061D01*
X050829Y032021D01*
X050852Y031987D01*
X050887Y031964D01*
X050927Y031956D01*
X050967Y031964D01*
X051002Y031987D01*
X051025Y032021D01*
X051033Y032061D01*
X051025Y032102D01*
X051002Y032136D01*
X050967Y032159D01*
X050927Y032167D01*
D02*
G37*
G36*
X050579Y032069D02*
X050538Y032061D01*
X050504Y032038D01*
X050481Y032004D01*
X050473Y031963D01*
X050481Y031923D01*
X050504Y031889D01*
X050538Y031866D01*
X050579Y031858D01*
X050619Y031866D01*
X050653Y031889D01*
X050676Y031923D01*
X050684Y031963D01*
X050676Y032004D01*
X050653Y032038D01*
X050619Y032061D01*
X050579Y032069D01*
D02*
G37*
G36*
X049651Y032038D02*
X04961Y03203D01*
X049576Y032007D01*
X049553Y031973D01*
X049545Y031933D01*
X049553Y031892D01*
X049576Y031858D01*
X04961Y031835D01*
X049651Y031827D01*
X049691Y031835D01*
X049726Y031858D01*
X049749Y031892D01*
X049757Y031933D01*
X049749Y031973D01*
X049726Y032007D01*
X049691Y03203D01*
X049651Y032038D01*
D02*
G37*
G36*
X051547Y032036D02*
X051506Y032028D01*
X051472Y032005D01*
X051449Y031971D01*
X051441Y031931D01*
X051449Y03189D01*
X051472Y031856D01*
X051506Y031833D01*
X051547Y031825D01*
X051587Y031833D01*
X051621Y031856D01*
X051644Y03189D01*
X051652Y031931D01*
X051644Y031971D01*
X051621Y032005D01*
X051587Y032028D01*
X051547Y032036D01*
D02*
G37*
G36*
X051233Y032033D02*
X051193Y032025D01*
X051159Y032002D01*
X051136Y031967D01*
X051128Y031927D01*
X051136Y031886D01*
X051159Y031852D01*
X051193Y031829D01*
X051233Y031821D01*
X051274Y031829D01*
X051308Y031852D01*
X051331Y031886D01*
X051339Y031927D01*
X051331Y031967D01*
X051308Y032002D01*
X051274Y032025D01*
X051233Y032033D01*
D02*
G37*
G36*
X052376Y031997D02*
X052336Y031989D01*
X052301Y031966D01*
X052278Y031932D01*
X05227Y031891D01*
X052278Y031851D01*
X052301Y031816D01*
X052336Y031794D01*
X052376Y031786D01*
X052417Y031794D01*
X052451Y031816D01*
X052474Y031851D01*
X052482Y031891D01*
X052474Y031932D01*
X052451Y031966D01*
X052417Y031989D01*
X052376Y031997D01*
D02*
G37*
G36*
X049183Y031876D02*
X049142Y031868D01*
X049108Y031845D01*
X049085Y03181D01*
X049077Y03177D01*
X049085Y031729D01*
X049108Y031695D01*
X049142Y031672D01*
X049183Y031664D01*
X049223Y031672D01*
X049257Y031695D01*
X04928Y031729D01*
X049288Y03177D01*
X04928Y03181D01*
X049257Y031845D01*
X049223Y031868D01*
X049183Y031876D01*
D02*
G37*
G36*
X048044Y031753D02*
X048004Y031744D01*
X047969Y031722D01*
X047946Y031687D01*
X047942Y031663D01*
X047891D01*
X047886Y031687D01*
X047863Y031721D01*
X047829Y031744D01*
X047788Y031752D01*
X047748Y031744D01*
X047714Y031721D01*
X047691Y031687D01*
X047683Y031647D01*
X047691Y031606D01*
X047714Y031572D01*
X047748Y031549D01*
X047788Y031541D01*
X047829Y031549D01*
X047863Y031572D01*
X047886Y031606D01*
X047891Y03163D01*
X047942D01*
X047946Y031606D01*
X047969Y031572D01*
X048004Y031549D01*
X048044Y031541D01*
X048085Y031549D01*
X048119Y031572D01*
X048142Y031606D01*
X04815Y031647D01*
X048142Y031687D01*
X048119Y031722D01*
X048085Y031744D01*
X048044Y031753D01*
D02*
G37*
G36*
X048896Y031818D02*
X048856Y03181D01*
X048822Y031787D01*
X048799Y031753D01*
X048791Y031712D01*
X048799Y031672D01*
X048822Y031637D01*
X048856Y031615D01*
X048896Y031607D01*
X048937Y031615D01*
X048971Y031637D01*
X048994Y031672D01*
X049002Y031712D01*
X048994Y031753D01*
X048971Y031787D01*
X048937Y03181D01*
X048896Y031818D01*
D02*
G37*
G36*
X052972Y0318D02*
X052931Y031792D01*
X052897Y031769D01*
X052874Y031735D01*
X052866Y031695D01*
X052874Y031654D01*
X052897Y03162D01*
X052931Y031597D01*
X052972Y031589D01*
X053012Y031597D01*
X053047Y03162D01*
X05307Y031654D01*
X053078Y031695D01*
X05307Y031735D01*
X053047Y031769D01*
X053012Y031792D01*
X052972Y0318D01*
D02*
G37*
G36*
X047166Y031599D02*
X047126Y031591D01*
X047091Y031568D01*
X047041Y031559D01*
X047006Y031581D01*
X046966Y03159D01*
X046925Y031581D01*
X046891Y031559D01*
X046868Y031524D01*
X04686Y031484D01*
X046868Y031443D01*
X046891Y031409D01*
X046925Y031386D01*
X046966Y031378D01*
X047006Y031386D01*
X047041Y031409D01*
X047045Y03141D01*
X047064Y031394D01*
X047091Y031352D01*
X047068Y031318D01*
X04706Y031278D01*
X047068Y031237D01*
X047091Y031203D01*
X047126Y03118D01*
X047166Y031172D01*
X047207Y03118D01*
X047241Y031203D01*
X047264Y031237D01*
X047272Y031278D01*
X047264Y031318D01*
X047241Y031352D01*
X047237Y031355D01*
Y031415D01*
X047241Y031418D01*
X047264Y031452D01*
X047272Y031493D01*
X047264Y031533D01*
X047241Y031568D01*
X047207Y031591D01*
X047166Y031599D01*
D02*
G37*
G36*
X051867Y031719D02*
X051827Y031711D01*
X051792Y031688D01*
X051769Y031654D01*
X051761Y031614D01*
X051769Y031573D01*
X051792Y031539D01*
X051827Y031516D01*
X051867Y031508D01*
X051908Y031516D01*
X051942Y031539D01*
X051965Y031573D01*
X051973Y031614D01*
X051965Y031654D01*
X051942Y031688D01*
X051908Y031711D01*
X051867Y031719D01*
D02*
G37*
G36*
X051233Y031718D02*
X051193Y03171D01*
X051159Y031687D01*
X051136Y031652D01*
X051128Y031612D01*
X051136Y031571D01*
X051159Y031537D01*
X051193Y031514D01*
X051233Y031506D01*
X051274Y031514D01*
X051308Y031537D01*
X051331Y031571D01*
X051339Y031612D01*
X051331Y031652D01*
X051308Y031687D01*
X051274Y03171D01*
X051233Y031718D01*
D02*
G37*
G36*
X048466Y03159D02*
X048425Y031581D01*
X048391Y031559D01*
X048368Y031524D01*
X04836Y031484D01*
X048366Y031452D01*
X048357Y031437D01*
X04835Y031429D01*
X048328Y031412D01*
X0483Y031418D01*
X04826Y03141D01*
X048225Y031387D01*
X048202Y031353D01*
X048198Y031329D01*
X048147D01*
X048142Y031353D01*
X048119Y031387D01*
X048085Y03141D01*
X048044Y031418D01*
X048004Y03141D01*
X047969Y031387D01*
X04795Y031358D01*
X047946Y031353D01*
X047942Y031347D01*
X047889Y031358D01*
X047889Y031358D01*
X047886Y031372D01*
X047863Y031407D01*
X047829Y03143D01*
X047788Y031438D01*
X047748Y03143D01*
X047714Y031407D01*
X047691Y031372D01*
X047683Y031332D01*
X047691Y031291D01*
X047714Y031257D01*
X047748Y031234D01*
X047788Y031226D01*
X047829Y031234D01*
X047863Y031257D01*
X047882Y031286D01*
X047886Y031291D01*
X04789Y031297D01*
X047944Y031286D01*
X047944Y031286D01*
X047946Y031272D01*
X047969Y031237D01*
X048004Y031214D01*
X048044Y031206D01*
X048085Y031214D01*
X048119Y031237D01*
X048142Y031272D01*
X048147Y031295D01*
X048198D01*
X048202Y031272D01*
X048225Y031237D01*
X04826Y031214D01*
X0483Y031206D01*
X048341Y031214D01*
X048375Y031237D01*
X048398Y031272D01*
X048406Y031312D01*
X0484Y031344D01*
X048409Y031359D01*
X048416Y031367D01*
X048437Y031384D01*
X048466Y031378D01*
X048506Y031386D01*
X04854Y031409D01*
X048563Y031443D01*
X048571Y031484D01*
X048563Y031524D01*
X04854Y031559D01*
X048506Y031581D01*
X048466Y03159D01*
D02*
G37*
G36*
X052717Y031615D02*
X052677Y031607D01*
X052643Y031584D01*
X05262Y03155D01*
X052612Y031509D01*
X05262Y031469D01*
X052643Y031434D01*
X052677Y031411D01*
X052717Y031403D01*
X052758Y031411D01*
X052792Y031434D01*
X052815Y031469D01*
X052823Y031509D01*
X052815Y03155D01*
X052792Y031584D01*
X052758Y031607D01*
X052717Y031615D01*
D02*
G37*
G36*
X046388Y03159D02*
X046347Y031581D01*
X046313Y031559D01*
X04629Y031524D01*
X046282Y031484D01*
X04629Y031443D01*
X046313Y031409D01*
Y031362D01*
X04629Y031327D01*
X046282Y031287D01*
X04629Y031246D01*
X046313Y031212D01*
X046347Y031189D01*
X046388Y031181D01*
X046428Y031189D01*
X046463Y031212D01*
X046486Y031246D01*
X046494Y031287D01*
X046486Y031327D01*
X046463Y031362D01*
Y031409D01*
X046486Y031443D01*
X046494Y031484D01*
X046486Y031524D01*
X046463Y031559D01*
X046428Y031581D01*
X046388Y03159D01*
D02*
G37*
G36*
X046772Y031393D02*
X046732Y031385D01*
X046698Y031362D01*
X046675Y031327D01*
X046667Y031287D01*
X046675Y031246D01*
X046698Y031212D01*
X046732Y031189D01*
X046772Y031181D01*
X046813Y031189D01*
X046847Y031212D01*
X04687Y031246D01*
X046878Y031287D01*
X04687Y031327D01*
X046847Y031362D01*
X046813Y031385D01*
X046772Y031393D01*
D02*
G37*
G36*
X052376Y03139D02*
X052336Y031382D01*
X052301Y031359D01*
X052278Y031325D01*
X05227Y031285D01*
X052278Y031244D01*
X052301Y03121D01*
X052336Y031187D01*
X052376Y031179D01*
X052417Y031187D01*
X052451Y03121D01*
X052474Y031244D01*
X052482Y031285D01*
X052474Y031325D01*
X052451Y031359D01*
X052417Y031382D01*
X052376Y03139D01*
D02*
G37*
G36*
X046969Y031196D02*
X046929Y031188D01*
X046894Y031165D01*
X046872Y03113D01*
X046863Y03109D01*
X046872Y03105D01*
X046894Y031015D01*
X046929Y030992D01*
X046969Y030984D01*
X04701Y030992D01*
X047044Y031015D01*
X047067Y03105D01*
X047075Y03109D01*
X047067Y03113D01*
X047044Y031165D01*
X04701Y031188D01*
X046969Y031196D01*
D02*
G37*
G36*
X046576D02*
X046535Y031188D01*
X046501Y031165D01*
X046478Y03113D01*
X04647Y03109D01*
X046478Y03105D01*
X046501Y031015D01*
X046535Y030992D01*
X046576Y030984D01*
X046616Y030992D01*
X04665Y031015D01*
X046673Y03105D01*
X046681Y03109D01*
X046673Y03113D01*
X04665Y031165D01*
X046616Y031188D01*
X046576Y031196D01*
D02*
G37*
G36*
X051548Y031088D02*
X051508Y03108D01*
X051474Y031057D01*
X051451Y031022D01*
X051443Y030982D01*
X051451Y030941D01*
X051474Y030907D01*
X051508Y030884D01*
X051548Y030876D01*
X051589Y030884D01*
X051623Y030907D01*
X051646Y030941D01*
X051654Y030982D01*
X051646Y031022D01*
X051623Y031057D01*
X051589Y03108D01*
X051548Y031088D01*
D02*
G37*
G36*
X046774Y030999D02*
X046733Y030991D01*
X046699Y030968D01*
X046676Y030934D01*
X046668Y030893D01*
X046676Y030853D01*
X046699Y030818D01*
X046733Y030795D01*
X046774Y030787D01*
X046814Y030795D01*
X046849Y030818D01*
X046872Y030853D01*
X04688Y030893D01*
X046872Y030934D01*
X046849Y030968D01*
X046814Y030991D01*
X046774Y030999D01*
D02*
G37*
G36*
X046379Y030998D02*
X046338Y03099D01*
X046304Y030967D01*
X046281Y030932D01*
X046273Y030892D01*
X046281Y030851D01*
X046304Y030817D01*
X046338Y030794D01*
X046379Y030786D01*
X046419Y030794D01*
X046453Y030817D01*
X046476Y030851D01*
X046484Y030892D01*
X046476Y030932D01*
X046453Y030967D01*
X046419Y03099D01*
X046379Y030998D01*
D02*
G37*
G36*
X047165Y030802D02*
X047124Y030794D01*
X047101Y030778D01*
X047068Y030774D01*
X047035Y030778D01*
X047011Y030794D01*
X046971Y030802D01*
X04693Y030794D01*
X046896Y030771D01*
X046873Y030737D01*
X046865Y030696D01*
X046873Y030656D01*
X04689Y030631D01*
X046896Y030622D01*
X046887Y030568D01*
X04687Y030543D01*
X046862Y030502D01*
X04687Y030462D01*
X046893Y030428D01*
X046927Y030405D01*
X046968Y030397D01*
X047008Y030405D01*
X047043Y030428D01*
X047103Y030427D01*
X047103Y030427D01*
X047137Y030404D01*
X047177Y030396D01*
X047218Y030404D01*
X047252Y030427D01*
X047275Y030461D01*
X047283Y030502D01*
X047275Y030542D01*
X047252Y030577D01*
X04724Y030622D01*
X047262Y030656D01*
X04727Y030696D01*
X047262Y030737D01*
X04724Y030771D01*
X047205Y030794D01*
X047165Y030802D01*
D02*
G37*
G36*
X052717Y030985D02*
X052677Y030977D01*
X052643Y030954D01*
X05262Y03092D01*
X052612Y030879D01*
X05262Y030839D01*
X052643Y030804D01*
X052677Y030782D01*
X052717Y030774D01*
X052758Y030782D01*
X052792Y030804D01*
X052815Y030839D01*
X052823Y030879D01*
X052815Y03092D01*
X052792Y030954D01*
X052758Y030977D01*
X052717Y030985D01*
D02*
G37*
G36*
X046182Y030802D02*
X046141Y030794D01*
X046107Y030771D01*
X046084Y030737D01*
X046076Y030696D01*
X046084Y030656D01*
X046107Y030622D01*
X046141Y030599D01*
X046182Y030591D01*
X046222Y030599D01*
X046257Y030622D01*
X04628Y030656D01*
X046288Y030696D01*
X04628Y030737D01*
X046257Y030771D01*
X046222Y030794D01*
X046182Y030802D01*
D02*
G37*
G36*
X046576Y030801D02*
X046535Y030793D01*
X046501Y03077D01*
X046478Y030735D01*
X04647Y030695D01*
X046478Y030654D01*
X046501Y03062D01*
X046535Y030597D01*
X046576Y030589D01*
X046616Y030597D01*
X04665Y03062D01*
X046673Y030654D01*
X046681Y030695D01*
X046673Y030735D01*
X04665Y03077D01*
X046616Y030793D01*
X046576Y030801D01*
D02*
G37*
G36*
X049668Y030784D02*
X049628Y030776D01*
X049593Y030753D01*
X04957Y030719D01*
X049562Y030678D01*
X04957Y030638D01*
X049593Y030604D01*
X049628Y030581D01*
X049668Y030573D01*
X049709Y030581D01*
X049743Y030604D01*
X049766Y030638D01*
X049774Y030678D01*
X049766Y030719D01*
X049743Y030753D01*
X049709Y030776D01*
X049668Y030784D01*
D02*
G37*
G36*
X04775Y030764D02*
X047709Y030756D01*
X047675Y030733D01*
X047652Y030699D01*
X047644Y030659D01*
X047652Y030618D01*
X047675Y030584D01*
X047709Y030561D01*
X04775Y030553D01*
X04779Y030561D01*
X047825Y030584D01*
X047848Y030618D01*
X047856Y030659D01*
X047848Y030699D01*
X047825Y030733D01*
X04779Y030756D01*
X04775Y030764D01*
D02*
G37*
G36*
X046377Y030605D02*
X046337Y030597D01*
X046303Y030574D01*
X04628Y03054D01*
X046272Y030499D01*
X04628Y030459D01*
X046303Y030425D01*
X046337Y030402D01*
X046377Y030394D01*
X046418Y030402D01*
X046452Y030425D01*
X046475Y030459D01*
X046483Y030499D01*
X046475Y03054D01*
X046452Y030574D01*
X046418Y030597D01*
X046377Y030605D01*
D02*
G37*
G36*
X050749Y030591D02*
X050708Y030582D01*
X050674Y03056D01*
X050651Y030525D01*
X050643Y030485D01*
X050651Y030444D01*
X050674Y03041D01*
X050708Y030387D01*
X050749Y030379D01*
X050789Y030387D01*
X050824Y03041D01*
X050847Y030444D01*
X050855Y030485D01*
X050847Y030525D01*
X050824Y03056D01*
X050789Y030582D01*
X050749Y030591D01*
D02*
G37*
G36*
X046763Y030408D02*
X046722Y0304D01*
X046688Y030377D01*
X046641D01*
X046606Y0304D01*
X046566Y030408D01*
X046525Y0304D01*
X046491Y030377D01*
X046468Y030343D01*
X04646Y030303D01*
X046468Y030262D01*
X046491Y030228D01*
X046501Y030181D01*
X046478Y030146D01*
X04647Y030106D01*
X046478Y030065D01*
X046501Y030031D01*
X046535Y030008D01*
X046576Y03D01*
X046616Y030008D01*
X04665Y030031D01*
X046698D01*
X046732Y030008D01*
X046772Y03D01*
X046813Y030008D01*
X046847Y030031D01*
X04687Y030065D01*
X046878Y030106D01*
X04687Y030146D01*
X04685Y030176D01*
X046845Y03019D01*
X046838Y030228D01*
X04686Y030262D01*
X046868Y030303D01*
X04686Y030343D01*
X046838Y030377D01*
X046803Y0304D01*
X046763Y030408D01*
D02*
G37*
G36*
X048645Y030993D02*
X048605Y030985D01*
X04857Y030962D01*
X048548Y030927D01*
X048539Y030887D01*
X048548Y030846D01*
X04857Y030812D01*
Y030757D01*
X048548Y030723D01*
X048539Y030682D01*
X048548Y030642D01*
X04857Y030607D01*
Y030552D01*
X048548Y030518D01*
X048539Y030477D01*
X048548Y030437D01*
X04857Y030403D01*
X048605Y03038D01*
X048645Y030372D01*
X048686Y03038D01*
X04872Y030403D01*
X048743Y030437D01*
X048751Y030477D01*
X048743Y030518D01*
X04872Y030552D01*
Y030607D01*
X048743Y030642D01*
X048751Y030682D01*
X048743Y030723D01*
X04872Y030757D01*
Y030812D01*
X048743Y030846D01*
X048751Y030887D01*
X048743Y030927D01*
X04872Y030962D01*
X048686Y030985D01*
X048645Y030993D01*
D02*
G37*
G36*
X049974Y030469D02*
X049933Y030461D01*
X049899Y030438D01*
X049876Y030404D01*
X049868Y030364D01*
X049876Y030323D01*
X049899Y030289D01*
X049933Y030266D01*
X049974Y030258D01*
X050014Y030266D01*
X050048Y030289D01*
X050071Y030323D01*
X050079Y030364D01*
X050071Y030404D01*
X050048Y030438D01*
X050014Y030461D01*
X049974Y030469D01*
D02*
G37*
G36*
X051166Y030404D02*
X051125Y030395D01*
X051091Y030373D01*
X051068Y030338D01*
X05106Y030298D01*
X051068Y030257D01*
X051091Y030223D01*
X051125Y0302D01*
X051166Y030192D01*
X051206Y0302D01*
X051241Y030223D01*
X051264Y030257D01*
X051272Y030298D01*
X051264Y030338D01*
X051241Y030373D01*
X051206Y030395D01*
X051166Y030404D01*
D02*
G37*
G36*
X047168Y030212D02*
X047127Y030203D01*
X047093Y030181D01*
X04707Y030146D01*
X047062Y030106D01*
X04707Y030065D01*
X047093Y030031D01*
X047127Y030008D01*
X047168Y03D01*
X047208Y030008D01*
X047242Y030031D01*
X047265Y030065D01*
X047273Y030106D01*
X047265Y030146D01*
X047242Y030181D01*
X047208Y030203D01*
X047168Y030212D01*
D02*
G37*
G36*
X049187Y030156D02*
X049146Y030148D01*
X049112Y030125D01*
X049089Y030091D01*
X049081Y030051D01*
X049089Y03001D01*
X049112Y029976D01*
X049146Y029953D01*
X049187Y029945D01*
X049227Y029953D01*
X049261Y029976D01*
X049284Y03001D01*
X049292Y030051D01*
X049284Y030091D01*
X049261Y030125D01*
X049227Y030148D01*
X049187Y030156D01*
D02*
G37*
G36*
X049974Y030143D02*
X049933Y030135D01*
X049899Y030112D01*
X049876Y030078D01*
X049868Y030037D01*
X049876Y029997D01*
X049899Y029962D01*
X049933Y029939D01*
X049974Y029931D01*
X050014Y029939D01*
X050048Y029962D01*
X050071Y029997D01*
X050079Y030037D01*
X050071Y030078D01*
X050048Y030112D01*
X050014Y030135D01*
X049974Y030143D01*
D02*
G37*
G36*
X050298Y030469D02*
X050258Y030461D01*
X050223Y030438D01*
X0502Y030404D01*
X050192Y030364D01*
X0502Y030323D01*
X050223Y030289D01*
X050258Y030266D01*
X050298Y030258D01*
X050301Y030258D01*
X050341Y030215D01*
X050338Y030202D01*
X050346Y030162D01*
X050369Y030127D01*
X050403Y030104D01*
X050431Y030099D01*
X050449Y030086D01*
X050468Y03005D01*
X050464Y03003D01*
X050472Y029989D01*
X050495Y029955D01*
X05053Y029932D01*
X05057Y029924D01*
X05061Y029932D01*
X050645Y029955D01*
X050668Y029989D01*
X050676Y03003D01*
X050668Y03007D01*
X050645Y030105D01*
X05061Y030128D01*
X050583Y030133D01*
X050565Y030146D01*
X050546Y030182D01*
X05055Y030202D01*
X050542Y030243D01*
X050519Y030277D01*
X050484Y0303D01*
X050444Y030308D01*
X050441Y030307D01*
X050401Y03035D01*
X050404Y030364D01*
X050396Y030404D01*
X050373Y030438D01*
X050338Y030461D01*
X050298Y030469D01*
D02*
G37*
G36*
X051011Y030071D02*
X050971Y030063D01*
X050936Y03004D01*
X050914Y030006D01*
X050905Y029965D01*
X050914Y029925D01*
X050936Y029891D01*
X050971Y029868D01*
X051011Y02986D01*
X051052Y029868D01*
X051086Y029891D01*
X051109Y029925D01*
X051117Y029965D01*
X051109Y030006D01*
X051086Y03004D01*
X051052Y030063D01*
X051011Y030071D01*
D02*
G37*
G36*
X046969Y030015D02*
X046929Y030007D01*
X046894Y029984D01*
X046872Y029949D01*
X046863Y029909D01*
X046872Y029868D01*
X046894Y029834D01*
X046929Y029811D01*
X046969Y029803D01*
X04701Y029811D01*
X047044Y029834D01*
X047067Y029868D01*
X047075Y029909D01*
X047067Y029949D01*
X047044Y029984D01*
X04701Y030007D01*
X046969Y030015D01*
D02*
G37*
G36*
X052386Y029931D02*
X052345Y029923D01*
X052311Y0299D01*
X052288Y029866D01*
X05228Y029826D01*
X052288Y029785D01*
X052311Y029751D01*
X052345Y029728D01*
X052386Y02972D01*
X052426Y029728D01*
X05246Y029751D01*
X052483Y029785D01*
X052491Y029826D01*
X052483Y029866D01*
X05246Y0299D01*
X052426Y029923D01*
X052386Y029931D01*
D02*
G37*
G36*
X047934Y029778D02*
X047893Y02977D01*
X047859Y029747D01*
X047836Y029713D01*
X047831Y029685D01*
X047799Y029662D01*
X04778Y029655D01*
X047747Y029662D01*
X047707Y029654D01*
X047673Y029631D01*
X04765Y029597D01*
X047642Y029556D01*
X04765Y029516D01*
X047673Y029481D01*
X047707Y029458D01*
X047747Y02945D01*
X047788Y029458D01*
X04783Y029432D01*
X047853Y029398D01*
X047887Y029375D01*
X047928Y029367D01*
X047968Y029375D01*
X048003Y029398D01*
X048026Y029432D01*
X048034Y029473D01*
X048026Y029513D01*
X048003Y029548D01*
X048009Y029597D01*
X048031Y029632D01*
X04804Y029672D01*
X048031Y029713D01*
X048009Y029747D01*
X047974Y02977D01*
X047934Y029778D01*
D02*
G37*
G36*
X050289Y029845D02*
X050248Y029837D01*
X050214Y029814D01*
X050191Y029779D01*
X050183Y029739D01*
X050191Y029698D01*
X050214Y029664D01*
X050248Y029641D01*
X050289Y029633D01*
X050329Y029641D01*
X050363Y029664D01*
X050386Y029698D01*
X050394Y029739D01*
X050386Y029779D01*
X050363Y029814D01*
X050329Y029837D01*
X050289Y029845D01*
D02*
G37*
G36*
X051548Y029828D02*
X051508Y02982D01*
X051474Y029797D01*
X051451Y029763D01*
X051443Y029722D01*
X051451Y029682D01*
X051474Y029647D01*
X051508Y029624D01*
X051548Y029616D01*
X051589Y029624D01*
X051623Y029647D01*
X051646Y029682D01*
X051654Y029722D01*
X051646Y029763D01*
X051623Y029797D01*
X051589Y02982D01*
X051548Y029828D01*
D02*
G37*
G36*
X047167Y029828D02*
X047127Y02982D01*
X047093Y029797D01*
X04707Y029762D01*
X047062Y029722D01*
X04707Y029681D01*
X047093Y029647D01*
X047127Y029624D01*
X047167Y029616D01*
X047208Y029624D01*
X047242Y029647D01*
X047265Y029681D01*
X047273Y029722D01*
X047265Y029762D01*
X047242Y029797D01*
X047208Y02982D01*
X047167Y029828D01*
D02*
G37*
G36*
X046379Y03002D02*
X046338Y030012D01*
X046304Y029989D01*
X046281Y029955D01*
X046273Y029914D01*
X046281Y029874D01*
X046304Y029839D01*
Y029787D01*
X046281Y029753D01*
X046273Y029712D01*
X046281Y029672D01*
X046304Y029637D01*
X046304Y029583D01*
X046303Y029582D01*
X046281Y029549D01*
X046273Y029508D01*
X046281Y029468D01*
X046304Y029434D01*
X046338Y029411D01*
X046379Y029403D01*
X046419Y029411D01*
X046453Y029434D01*
X046476Y029468D01*
X046484Y029508D01*
X046476Y029549D01*
X046457Y029577D01*
X046469Y029628D01*
X046503Y029635D01*
X046535Y029614D01*
X046576Y029606D01*
X046616Y029614D01*
X04665Y029637D01*
X046673Y029672D01*
X046681Y029712D01*
X046673Y029753D01*
X04665Y029787D01*
X046616Y02981D01*
X046576Y029818D01*
X046535Y02981D01*
X046504Y029789D01*
X046471Y029796D01*
X046459Y029847D01*
X046476Y029874D01*
X046484Y029914D01*
X046476Y029955D01*
X046453Y029989D01*
X046419Y030012D01*
X046379Y03002D01*
D02*
G37*
G36*
X052933Y03003D02*
X052892Y030022D01*
X052858Y029999D01*
X052835Y029964D01*
X052827Y029924D01*
X052835Y029883D01*
X052858Y029849D01*
X052863Y029846D01*
X052861Y029787D01*
X05285Y02978D01*
X052827Y029745D01*
X052819Y029705D01*
X052827Y029664D01*
X05285Y02963D01*
X052885Y029607D01*
X052925Y029599D01*
X052966Y029607D01*
X053Y02963D01*
X053023Y029664D01*
X053031Y029705D01*
X053023Y029745D01*
X053Y02978D01*
X052995Y029783D01*
X052997Y029842D01*
X053008Y029849D01*
X053031Y029883D01*
X053039Y029924D01*
X053031Y029964D01*
X053008Y029999D01*
X052973Y030022D01*
X052933Y03003D01*
D02*
G37*
G36*
X046969Y029621D02*
X046929Y029613D01*
X046894Y02959D01*
X046838D01*
X046803Y029613D01*
X046763Y029621D01*
X046722Y029613D01*
X046688Y02959D01*
X046665Y029556D01*
X046657Y029515D01*
X046665Y029475D01*
X046688Y02944D01*
X046722Y029418D01*
X046763Y029409D01*
X046803Y029418D01*
X046838Y02944D01*
X046894D01*
X046929Y029418D01*
X046969Y029409D01*
X04701Y029418D01*
X047044Y02944D01*
X047067Y029475D01*
X047075Y029515D01*
X047067Y029556D01*
X047044Y02959D01*
X04701Y029613D01*
X046969Y029621D01*
D02*
G37*
G36*
X051151Y029763D02*
X051111Y029755D01*
X051077Y029732D01*
X051054Y029698D01*
X051046Y029657D01*
X051054Y029617D01*
X051077Y029582D01*
X051111Y029559D01*
X051151Y029551D01*
X051192Y029559D01*
X051226Y029582D01*
X051249Y029617D01*
X051257Y029657D01*
X051249Y029698D01*
X051226Y029732D01*
X051192Y029755D01*
X051151Y029763D01*
D02*
G37*
G36*
X048234Y029698D02*
X048194Y02969D01*
X048159Y029667D01*
X048136Y029633D01*
X048128Y029592D01*
X048136Y029552D01*
X048159Y029518D01*
X048194Y029495D01*
X048234Y029487D01*
X048275Y029495D01*
X048309Y029518D01*
X048332Y029552D01*
X04834Y029592D01*
X048332Y029633D01*
X048309Y029667D01*
X048275Y02969D01*
X048234Y029698D01*
D02*
G37*
G36*
X051556Y02952D02*
X051515Y029512D01*
X051481Y029489D01*
X051458Y029455D01*
X05145Y029414D01*
X051458Y029374D01*
X051481Y029339D01*
X051515Y029317D01*
X051556Y029309D01*
X051596Y029317D01*
X05163Y029339D01*
X051653Y029374D01*
X051661Y029414D01*
X051653Y029455D01*
X05163Y029489D01*
X051596Y029512D01*
X051556Y02952D01*
D02*
G37*
G36*
X050289Y029513D02*
X050248Y029505D01*
X050214Y029482D01*
X050191Y029448D01*
X050183Y029407D01*
X050191Y029367D01*
X050214Y029332D01*
X050248Y029309D01*
X050289Y029301D01*
X050329Y029309D01*
X050363Y029332D01*
X050386Y029367D01*
X050394Y029407D01*
X050386Y029448D01*
X050363Y029482D01*
X050329Y029505D01*
X050289Y029513D01*
D02*
G37*
G36*
X049974D02*
X049933Y029505D01*
X049899Y029482D01*
X049876Y029448D01*
X049868Y029407D01*
X049876Y029367D01*
X049899Y029332D01*
X049933Y029309D01*
X049974Y029301D01*
X050014Y029309D01*
X050048Y029332D01*
X050071Y029367D01*
X050079Y029407D01*
X050071Y029448D01*
X050048Y029482D01*
X050014Y029505D01*
X049974Y029513D01*
D02*
G37*
G36*
X04893Y029503D02*
X04889Y029494D01*
X048855Y029472D01*
X048832Y029437D01*
X048824Y029397D01*
X048832Y029356D01*
X048855Y029322D01*
X04889Y029299D01*
X04893Y029291D01*
X04897Y029299D01*
X049005Y029322D01*
X049028Y029356D01*
X049036Y029397D01*
X049028Y029437D01*
X049005Y029472D01*
X04897Y029494D01*
X04893Y029503D01*
D02*
G37*
G36*
X046576Y029424D02*
X046535Y029416D01*
X046501Y029393D01*
X046478Y029359D01*
X04647Y029318D01*
X046478Y029278D01*
X046501Y029244D01*
X046535Y029221D01*
X046576Y029213D01*
X046616Y029221D01*
X04665Y029244D01*
X046673Y029278D01*
X046681Y029318D01*
X046673Y029359D01*
X04665Y029393D01*
X046616Y029416D01*
X046576Y029424D01*
D02*
G37*
G36*
X046182D02*
X046141Y029416D01*
X046107Y029393D01*
X046084Y029359D01*
X046076Y029318D01*
X046084Y029278D01*
X046107Y029244D01*
X046141Y029221D01*
X046182Y029213D01*
X046222Y029221D01*
X046257Y029244D01*
X04628Y029278D01*
X046288Y029318D01*
X04628Y029359D01*
X046257Y029393D01*
X046222Y029416D01*
X046182Y029424D01*
D02*
G37*
G36*
X047168Y029432D02*
X047127Y029424D01*
X047093Y029401D01*
X04707Y029367D01*
X047062Y029327D01*
X04707Y029286D01*
X047092Y029254D01*
X047081Y029204D01*
X047043Y029197D01*
X04701Y029219D01*
X046969Y029227D01*
X046929Y029219D01*
X046894Y029196D01*
X046872Y029162D01*
X046863Y029122D01*
X046872Y029081D01*
X046894Y029047D01*
X046929Y029024D01*
X046969Y029016D01*
X04701Y029024D01*
X047044Y029047D01*
X047093D01*
X047127Y029024D01*
X047168Y029016D01*
X047208Y029024D01*
X047242Y029047D01*
X047265Y029081D01*
X047273Y029122D01*
X047265Y029162D01*
X047242Y029196D01*
X047243Y029252D01*
X047265Y029286D01*
X047274Y029327D01*
X047265Y029367D01*
X047243Y029401D01*
X047208Y029424D01*
X047168Y029432D01*
D02*
G37*
G36*
X052717Y0294D02*
X052677Y029392D01*
X052643Y029369D01*
X05262Y029335D01*
X052612Y029295D01*
X05262Y029254D01*
X052643Y02922D01*
X052677Y029197D01*
X052717Y029189D01*
X052758Y029197D01*
X052792Y02922D01*
X052815Y029254D01*
X052823Y029295D01*
X052815Y029335D01*
X052792Y029369D01*
X052758Y029392D01*
X052717Y0294D01*
D02*
G37*
G36*
X046381Y029227D02*
X046341Y029219D01*
X046306Y029196D01*
X046283Y029162D01*
X046275Y029122D01*
X046283Y029081D01*
X046306Y029047D01*
X046341Y029024D01*
X046381Y029016D01*
X046421Y029024D01*
X046456Y029047D01*
X046479Y029081D01*
X046487Y029122D01*
X046479Y029162D01*
X046456Y029196D01*
X046421Y029219D01*
X046381Y029227D01*
D02*
G37*
G36*
X046772Y02903D02*
X046732Y029022D01*
X046698Y028999D01*
X04665D01*
X046616Y029022D01*
X046576Y02903D01*
X046535Y029022D01*
X046501Y028999D01*
X046478Y028965D01*
X04647Y028925D01*
X046478Y028884D01*
X046496Y028857D01*
X046501Y02885D01*
X046501Y028804D01*
X046496Y028797D01*
X046478Y02877D01*
X04647Y028729D01*
X046478Y028689D01*
X046501Y028654D01*
X046535Y028631D01*
X046576Y028623D01*
X046616Y028631D01*
X04665Y028654D01*
X046698Y028653D01*
X046703Y02865D01*
X046732Y02863D01*
X046772Y028622D01*
X046813Y02863D01*
X046847Y028653D01*
X04687Y028687D01*
X046878Y028728D01*
X04687Y028768D01*
X046847Y028802D01*
Y02885D01*
X04687Y028884D01*
X046878Y028925D01*
X04687Y028965D01*
X046847Y028999D01*
X046813Y029022D01*
X046772Y02903D01*
D02*
G37*
G36*
X051548Y029198D02*
X051508Y02919D01*
X051474Y029167D01*
X051451Y029133D01*
X051443Y029092D01*
X051451Y029052D01*
X051474Y029017D01*
X051508Y028994D01*
X051548Y028986D01*
X051589Y028994D01*
X051623Y029017D01*
X051646Y029052D01*
X051654Y029092D01*
X051646Y029133D01*
X051623Y029167D01*
X051589Y02919D01*
X051548Y029198D01*
D02*
G37*
G36*
X048516Y029601D02*
X048476Y029593D01*
X048442Y02957D01*
X048419Y029536D01*
X048411Y029495D01*
X048419Y029455D01*
X048442Y029421D01*
X04845Y029415D01*
X048475Y029394D01*
X048463Y029351D01*
X048462Y02935D01*
X048454Y02931D01*
X048462Y029269D01*
X048485Y029235D01*
X048495Y029228D01*
X048497Y029169D01*
X04849Y029165D01*
X048467Y02913D01*
X048459Y02909D01*
X048467Y029049D01*
X04849Y029015D01*
X048524Y028992D01*
X048565Y028984D01*
X048605Y028992D01*
X04864Y029015D01*
X048663Y029049D01*
X048671Y02909D01*
X048663Y02913D01*
X04864Y029165D01*
X04863Y029171D01*
X048628Y02923D01*
X048635Y029235D01*
X048658Y029269D01*
X048666Y02931D01*
X048658Y02935D01*
X048635Y029385D01*
X048626Y02939D01*
X048602Y029412D01*
X048614Y029454D01*
X048614Y029455D01*
X048622Y029495D01*
X048614Y029536D01*
X048591Y02957D01*
X048557Y029593D01*
X048516Y029601D01*
D02*
G37*
G36*
X049076Y029091D02*
X049035Y029083D01*
X049001Y029061D01*
X048978Y029026D01*
X04897Y028986D01*
X048978Y028945D01*
X049001Y028911D01*
X049035Y028888D01*
X049076Y02888D01*
X049116Y028888D01*
X04915Y028911D01*
X049173Y028945D01*
X049181Y028986D01*
X049173Y029026D01*
X04915Y029061D01*
X049116Y029083D01*
X049076Y029091D01*
D02*
G37*
G36*
X050419Y029036D02*
X050378Y029028D01*
X050344Y029005D01*
X050321Y028971D01*
X050313Y028931D01*
X050321Y02889D01*
X050344Y028856D01*
X050378Y028833D01*
X050419Y028825D01*
X050459Y028833D01*
X050494Y028856D01*
X050517Y02889D01*
X050525Y028931D01*
X050517Y028971D01*
X050494Y029005D01*
X050459Y029028D01*
X050419Y029036D01*
D02*
G37*
G36*
X046182D02*
X046141Y029028D01*
X046107Y029005D01*
X046084Y028971D01*
X046076Y028931D01*
X046084Y02889D01*
X046107Y028856D01*
X046141Y028833D01*
X046182Y028825D01*
X046222Y028833D01*
X046257Y028856D01*
X04628Y02889D01*
X046288Y028931D01*
X04628Y028971D01*
X046257Y029005D01*
X046222Y029028D01*
X046182Y029036D01*
D02*
G37*
G36*
X048134Y028987D02*
X048094Y028978D01*
X04806Y028956D01*
X048037Y028921D01*
X048029Y028881D01*
X048037Y02884D01*
X04806Y028806D01*
X048094Y028783D01*
X048134Y028775D01*
X048175Y028783D01*
X048209Y028806D01*
X048232Y02884D01*
X04824Y028881D01*
X048232Y028921D01*
X048209Y028956D01*
X048175Y028978D01*
X048134Y028987D01*
D02*
G37*
G36*
X051548Y02889D02*
X051508Y028882D01*
X051474Y028859D01*
X051451Y028825D01*
X051443Y028784D01*
X051451Y028744D01*
X051474Y028709D01*
X051508Y028687D01*
X051548Y028679D01*
X051589Y028687D01*
X051623Y028709D01*
X051646Y028744D01*
X051654Y028784D01*
X051646Y028825D01*
X051623Y028859D01*
X051589Y028882D01*
X051548Y02889D01*
D02*
G37*
G36*
X049651Y028883D02*
X04961Y028875D01*
X049576Y028852D01*
X049553Y028818D01*
X049545Y028777D01*
X049553Y028737D01*
X049576Y028702D01*
X04961Y028679D01*
X049651Y028671D01*
X049691Y028679D01*
X049726Y028702D01*
X049749Y028737D01*
X049757Y028777D01*
X049749Y028818D01*
X049726Y028852D01*
X049691Y028875D01*
X049651Y028883D01*
D02*
G37*
G36*
X051863Y028883D02*
X051823Y028875D01*
X051789Y028852D01*
X051766Y028818D01*
X051758Y028777D01*
X051766Y028737D01*
X051789Y028702D01*
X051823Y028679D01*
X051863Y028671D01*
X051904Y028679D01*
X051938Y028702D01*
X051961Y028737D01*
X051969Y028777D01*
X051961Y028818D01*
X051938Y028852D01*
X051904Y028875D01*
X051863Y028883D01*
D02*
G37*
G36*
X051163Y029083D02*
X051122Y029075D01*
X051088Y029052D01*
X051065Y029017D01*
X051057Y028977D01*
X051065Y028936D01*
X051088Y028902D01*
X051122Y028879D01*
X051126Y028878D01*
X051148Y028823D01*
X051143Y028815D01*
X051135Y028774D01*
X051143Y028734D01*
X051166Y028699D01*
X0512Y028677D01*
X051241Y028669D01*
X051281Y028677D01*
X051315Y028699D01*
X051338Y028734D01*
X051346Y028774D01*
X051338Y028815D01*
X051315Y028849D01*
X051281Y028872D01*
X051277Y028873D01*
X051255Y028928D01*
X05126Y028936D01*
X051268Y028977D01*
X05126Y029017D01*
X051237Y029052D01*
X051203Y029075D01*
X051163Y029083D01*
D02*
G37*
G36*
X052462Y029055D02*
X052421Y029047D01*
X052387Y029024D01*
X052364Y02899D01*
X052356Y02895D01*
X052364Y028909D01*
X052387Y028875D01*
X05241Y028859D01*
X052413Y028844D01*
Y028819D01*
X05241Y028804D01*
X052387Y028788D01*
X052364Y028754D01*
X052356Y028714D01*
X052364Y028673D01*
X052387Y028639D01*
X052421Y028616D01*
X052462Y028608D01*
X052502Y028616D01*
X052536Y028639D01*
X052559Y028673D01*
X052567Y028714D01*
X052559Y028754D01*
X052536Y028788D01*
X052513Y028804D01*
X05251Y028819D01*
Y028844D01*
X052513Y028859D01*
X052536Y028875D01*
X052559Y028909D01*
X052567Y02895D01*
X052559Y02899D01*
X052536Y029024D01*
X052502Y029047D01*
X052462Y029055D01*
D02*
G37*
G36*
X047168Y028637D02*
X047127Y028629D01*
X047093Y028606D01*
X047041D01*
X047006Y028629D01*
X046966Y028637D01*
X046925Y028629D01*
X046891Y028606D01*
X046868Y028571D01*
X04686Y028531D01*
X046868Y028491D01*
X046891Y028456D01*
X046894Y02841D01*
X046889Y028402D01*
X046872Y028376D01*
X046863Y028336D01*
X046872Y028295D01*
X046894Y028261D01*
X046929Y028238D01*
X046969Y02823D01*
X04701Y028238D01*
X047044Y028261D01*
X047091Y028259D01*
X047096Y028256D01*
X047126Y028236D01*
X047166Y028228D01*
X047207Y028236D01*
X047241Y028259D01*
X047264Y028294D01*
X047272Y028334D01*
X047264Y028375D01*
X047241Y028409D01*
X047242Y028456D01*
X047246Y028461D01*
X047265Y028491D01*
X047273Y028531D01*
X047265Y028571D01*
X047242Y028606D01*
X047208Y028629D01*
X047168Y028637D01*
D02*
G37*
G36*
X048527Y028753D02*
X048486Y028745D01*
X048452Y028722D01*
X048429Y028687D01*
X048421Y028647D01*
X048429Y028607D01*
X048452Y028572D01*
X048486Y028549D01*
X048527Y028541D01*
X048567Y028549D01*
X048601Y028572D01*
X048624Y028607D01*
X048632Y028647D01*
X048624Y028687D01*
X048601Y028722D01*
X048567Y028745D01*
X048527Y028753D01*
D02*
G37*
G36*
X050363Y028747D02*
X050322Y028739D01*
X050288Y028716D01*
X050265Y028681D01*
X050257Y028641D01*
X050265Y0286D01*
X050288Y028566D01*
X050322Y028543D01*
X050363Y028535D01*
X050403Y028543D01*
X050437Y028566D01*
X05046Y0286D01*
X050468Y028641D01*
X05046Y028681D01*
X050437Y028716D01*
X050403Y028739D01*
X050363Y028747D01*
D02*
G37*
G36*
X052227Y028674D02*
X052186Y028666D01*
X052152Y028643D01*
X052129Y028608D01*
X052121Y028568D01*
X052129Y028527D01*
X052152Y028493D01*
X052186Y02847D01*
X052227Y028462D01*
X052267Y02847D01*
X052301Y028493D01*
X052324Y028527D01*
X052332Y028568D01*
X052324Y028608D01*
X052301Y028643D01*
X052267Y028666D01*
X052227Y028674D01*
D02*
G37*
G36*
X046379Y028637D02*
X046338Y028629D01*
X046304Y028606D01*
X046281Y028571D01*
X046273Y028531D01*
X046281Y028491D01*
X046304Y028456D01*
X046338Y028433D01*
X046379Y028425D01*
X046419Y028433D01*
X046453Y028456D01*
X046476Y028491D01*
X046484Y028531D01*
X046476Y028571D01*
X046453Y028606D01*
X046419Y028629D01*
X046379Y028637D01*
D02*
G37*
G36*
X051118Y028609D02*
X051077Y028601D01*
X051043Y028578D01*
X05102Y028544D01*
X051012Y028504D01*
X05102Y028463D01*
X051043Y028429D01*
X051077Y028406D01*
X051118Y028398D01*
X051158Y028406D01*
X051192Y028429D01*
X051215Y028463D01*
X051223Y028504D01*
X051215Y028544D01*
X051192Y028578D01*
X051158Y028601D01*
X051118Y028609D01*
D02*
G37*
G36*
X051869Y028568D02*
X051828Y02856D01*
X051794Y028537D01*
X051771Y028503D01*
X051763Y028462D01*
X051771Y028422D01*
X051794Y028387D01*
X051828Y028365D01*
X051869Y028356D01*
X051909Y028365D01*
X051943Y028387D01*
X051966Y028422D01*
X051974Y028462D01*
X051966Y028503D01*
X051943Y028537D01*
X051909Y02856D01*
X051869Y028568D01*
D02*
G37*
G36*
X051548D02*
X051508Y02856D01*
X051474Y028537D01*
X051451Y028503D01*
X051443Y028462D01*
X051451Y028422D01*
X051474Y028387D01*
X051508Y028365D01*
X051548Y028356D01*
X051589Y028365D01*
X051623Y028387D01*
X051646Y028422D01*
X051654Y028462D01*
X051646Y028503D01*
X051623Y028537D01*
X051589Y02856D01*
X051548Y028568D01*
D02*
G37*
G36*
X050345Y028453D02*
X050305Y028445D01*
X050271Y028422D01*
X050248Y028388D01*
X05024Y028348D01*
X050248Y028307D01*
X050271Y028273D01*
X050305Y02825D01*
X050345Y028242D01*
X050386Y02825D01*
X05042Y028273D01*
X050443Y028307D01*
X050451Y028348D01*
X050443Y028388D01*
X05042Y028422D01*
X050386Y028445D01*
X050345Y028453D01*
D02*
G37*
G36*
X05267Y02844D02*
X05263Y028432D01*
X052595Y028409D01*
X052572Y028375D01*
X052564Y028335D01*
X052572Y028294D01*
X052595Y02826D01*
X05263Y028237D01*
X05267Y028229D01*
X05271Y028237D01*
X052745Y02826D01*
X052768Y028294D01*
X052776Y028335D01*
X052768Y028375D01*
X052745Y028409D01*
X05271Y028432D01*
X05267Y02844D01*
D02*
G37*
G36*
X046576Y02844D02*
X046535Y028432D01*
X046501Y028409D01*
X046478Y028375D01*
X04647Y028334D01*
X046478Y028294D01*
X046501Y028259D01*
X046535Y028236D01*
X046576Y028228D01*
X046616Y028236D01*
X04665Y028259D01*
X046673Y028294D01*
X046681Y028334D01*
X046673Y028375D01*
X04665Y028409D01*
X046616Y028432D01*
X046576Y02844D01*
D02*
G37*
G36*
X046182Y02844D02*
X046141Y028432D01*
X046107Y028409D01*
X046084Y028375D01*
X046076Y028334D01*
X046084Y028294D01*
X046107Y028259D01*
X046141Y028236D01*
X046182Y028228D01*
X046222Y028236D01*
X046257Y028259D01*
X04628Y028294D01*
X046288Y028334D01*
X04628Y028375D01*
X046257Y028409D01*
X046222Y028432D01*
X046182Y02844D01*
D02*
G37*
G36*
X051541Y02826D02*
X051501Y028252D01*
X051466Y028229D01*
X051443Y028195D01*
X051435Y028155D01*
X051443Y028114D01*
X051466Y02808D01*
X051501Y028057D01*
X051541Y028049D01*
X051582Y028057D01*
X051616Y02808D01*
X051639Y028114D01*
X051647Y028155D01*
X051639Y028195D01*
X051616Y028229D01*
X051582Y028252D01*
X051541Y02826D01*
D02*
G37*
G36*
X049981Y02825D02*
X04994Y028242D01*
X049906Y028219D01*
X049883Y028185D01*
X049875Y028144D01*
X049883Y028104D01*
X049906Y028069D01*
X04994Y028047D01*
X049981Y028039D01*
X050021Y028047D01*
X050056Y028069D01*
X050079Y028104D01*
X050087Y028144D01*
X050079Y028185D01*
X050056Y028219D01*
X050021Y028242D01*
X049981Y02825D01*
D02*
G37*
G36*
X051869Y028247D02*
X051829Y028239D01*
X051794Y028216D01*
X051771Y028182D01*
X051763Y028142D01*
X051771Y028101D01*
X051794Y028067D01*
X051829Y028044D01*
X051869Y028036D01*
X05191Y028044D01*
X051944Y028067D01*
X051967Y028101D01*
X051975Y028142D01*
X051967Y028182D01*
X051944Y028216D01*
X05191Y028239D01*
X051869Y028247D01*
D02*
G37*
G36*
X046772Y028243D02*
X046732Y028235D01*
X046698Y028212D01*
X046675Y028178D01*
X046667Y028137D01*
X046675Y028097D01*
X046698Y028062D01*
X046732Y02804D01*
X046772Y028031D01*
X046813Y02804D01*
X046847Y028062D01*
X04687Y028097D01*
X046878Y028137D01*
X04687Y028178D01*
X046847Y028212D01*
X046813Y028235D01*
X046772Y028243D01*
D02*
G37*
G36*
X046379D02*
X046338Y028235D01*
X046304Y028212D01*
X046281Y028178D01*
X046273Y028137D01*
X046281Y028097D01*
X046304Y028062D01*
X046338Y02804D01*
X046379Y028031D01*
X046419Y02804D01*
X046453Y028062D01*
X046476Y028097D01*
X046484Y028137D01*
X046476Y028178D01*
X046453Y028212D01*
X046419Y028235D01*
X046379Y028243D01*
D02*
G37*
G36*
X047919Y028796D02*
X047879Y028788D01*
X047845Y028765D01*
X047822Y028731D01*
X047814Y02869D01*
X04782Y028657D01*
X047807Y028633D01*
X047789Y02861D01*
X047756Y028603D01*
X047722Y02858D01*
X047699Y028546D01*
X047691Y028505D01*
X047699Y028465D01*
X047722Y028431D01*
X047756Y028408D01*
X047796Y0284D01*
X047837Y028408D01*
X047871Y028431D01*
X047894Y028465D01*
X047902Y028505D01*
X047896Y028537D01*
X047926Y028577D01*
X047947Y028577D01*
X047957Y02857D01*
X047984Y028532D01*
X047979Y028507D01*
X047987Y028466D01*
X048004Y028442D01*
X047996Y028404D01*
X047987Y028387D01*
X047983Y028387D01*
X047949Y028364D01*
X047926Y028329D01*
X047918Y028289D01*
X047926Y028248D01*
X047949Y028214D01*
X047983Y028191D01*
X048024Y028183D01*
X048058Y02819D01*
X048064Y028191D01*
X048065Y028191D01*
X048098Y028154D01*
X048094Y028147D01*
X04808Y028127D01*
X048072Y028086D01*
X04808Y028046D01*
X048103Y028011D01*
X048137Y027988D01*
X048178Y02798D01*
X048218Y027988D01*
X048253Y028011D01*
X048276Y028046D01*
X048284Y028086D01*
X048276Y028127D01*
X048253Y028161D01*
X048218Y028184D01*
X048178Y028192D01*
X048143Y028185D01*
X048137Y028184D01*
X048136Y028184D01*
X048103Y028221D01*
X048108Y028228D01*
X048121Y028248D01*
X048129Y028289D01*
X048121Y028329D01*
X048105Y028354D01*
X048113Y028392D01*
X048122Y028408D01*
X048126Y028409D01*
X04816Y028432D01*
X048183Y028466D01*
X048191Y028507D01*
X048183Y028547D01*
X04816Y028581D01*
X048126Y028604D01*
X048085Y028612D01*
X048047Y028605D01*
X04804Y02861D01*
X048012Y028643D01*
X048017Y02865D01*
X048025Y02869D01*
X048017Y028731D01*
X047994Y028765D01*
X04796Y028788D01*
X047919Y028796D01*
D02*
G37*
G36*
X046576Y028046D02*
X046535Y028038D01*
X046501Y028015D01*
X046478Y027981D01*
X04647Y02794D01*
X046478Y0279D01*
X046501Y027866D01*
X046535Y027843D01*
X046576Y027835D01*
X046616Y027843D01*
X04665Y027866D01*
X046673Y0279D01*
X046681Y02794D01*
X046673Y027981D01*
X04665Y028015D01*
X046616Y028038D01*
X046576Y028046D01*
D02*
G37*
G36*
X046969Y028046D02*
X046929Y028038D01*
X046894Y028015D01*
X046872Y027981D01*
X046863Y02794D01*
X046872Y0279D01*
X046894Y027866D01*
X046929Y027843D01*
X046969Y027835D01*
X04701Y027843D01*
X047044Y027866D01*
X047067Y0279D01*
X047075Y02794D01*
X047067Y027981D01*
X047044Y028015D01*
X04701Y028038D01*
X046969Y028046D01*
D02*
G37*
G36*
X051881Y027961D02*
X051841Y027952D01*
X051806Y02793D01*
X051783Y027895D01*
X051775Y027855D01*
X051783Y027814D01*
X051806Y02778D01*
X051841Y027757D01*
X051881Y027749D01*
X051922Y027757D01*
X051956Y02778D01*
X051979Y027814D01*
X051987Y027855D01*
X051979Y027895D01*
X051956Y02793D01*
X051922Y027952D01*
X051881Y027961D01*
D02*
G37*
G36*
X051562Y027945D02*
X051521Y027937D01*
X051487Y027914D01*
X051464Y02788D01*
X051456Y027839D01*
X051464Y027799D01*
X051487Y027765D01*
X051521Y027742D01*
X051562Y027734D01*
X051602Y027742D01*
X051636Y027765D01*
X051659Y027799D01*
X051667Y027839D01*
X051659Y02788D01*
X051636Y027914D01*
X051602Y027937D01*
X051562Y027945D01*
D02*
G37*
G36*
X049651Y027936D02*
X04961Y027928D01*
X049576Y027905D01*
X049553Y02787D01*
X049545Y02783D01*
X049553Y027789D01*
X049576Y027755D01*
X04961Y027732D01*
X049651Y027724D01*
X049691Y027732D01*
X049726Y027755D01*
X049749Y027789D01*
X049757Y02783D01*
X049749Y02787D01*
X049726Y027905D01*
X049691Y027928D01*
X049651Y027936D01*
D02*
G37*
G36*
X051116Y02807D02*
X051076Y028062D01*
X051041Y028039D01*
X051018Y028005D01*
X05101Y027964D01*
X051018Y027924D01*
X051041Y027889D01*
X051052Y027882D01*
X051051Y027824D01*
X051041Y027817D01*
X051018Y027783D01*
X05101Y027742D01*
X051018Y027702D01*
X051041Y027668D01*
X051075Y027645D01*
X051116Y027637D01*
X051156Y027645D01*
X051191Y027668D01*
X051214Y027702D01*
X051222Y027742D01*
X051214Y027783D01*
X051191Y027817D01*
X05118Y027824D01*
X051181Y027882D01*
X051191Y027889D01*
X051214Y027924D01*
X051222Y027964D01*
X051214Y028005D01*
X051191Y028039D01*
X051157Y028062D01*
X051116Y02807D01*
D02*
G37*
G36*
X047166Y027849D02*
X047126Y027841D01*
X047091Y027818D01*
X047068Y027784D01*
X04706Y027744D01*
X047068Y027703D01*
X047085Y027678D01*
X047073Y02764D01*
X047035Y027628D01*
X04701Y027644D01*
X046969Y027652D01*
X046929Y027644D01*
X046894Y027622D01*
X046872Y027587D01*
X046863Y027547D01*
X046872Y027506D01*
X046894Y027472D01*
X046929Y027449D01*
X046969Y027441D01*
X04701Y027449D01*
X047044Y027472D01*
X047091D01*
X047126Y027449D01*
X047166Y027441D01*
X047207Y027449D01*
X047241Y027472D01*
X047264Y027506D01*
X047272Y027547D01*
X047264Y027587D01*
X047241Y027622D01*
Y027669D01*
X047264Y027703D01*
X047272Y027744D01*
X047264Y027784D01*
X047241Y027818D01*
X047207Y027841D01*
X047166Y027849D01*
D02*
G37*
G36*
X04859Y028036D02*
X04855Y028028D01*
X048515Y028005D01*
X048492Y02797D01*
X048484Y02793D01*
X048492Y027889D01*
X048515Y027855D01*
X048515Y027795D01*
X048515Y027795D01*
X048492Y027761D01*
X048484Y02772D01*
X048492Y02768D01*
X048515Y027645D01*
X048549Y027623D01*
X04859Y027615D01*
X04863Y027623D01*
X048664Y027645D01*
X048687Y02768D01*
X048695Y02772D01*
X048687Y027761D01*
X048664Y027795D01*
X048665Y027855D01*
X048665Y027855D01*
X048688Y027889D01*
X048696Y02793D01*
X048688Y02797D01*
X048665Y028005D01*
X04863Y028028D01*
X04859Y028036D01*
D02*
G37*
G36*
X047717Y027733D02*
X047676Y027725D01*
X047642Y027702D01*
X047619Y027668D01*
X047611Y027627D01*
X047619Y027587D01*
X047642Y027552D01*
X047676Y027529D01*
X047717Y027521D01*
X047757Y027529D01*
X047792Y027552D01*
X047815Y027587D01*
X047823Y027627D01*
X047815Y027668D01*
X047792Y027702D01*
X047757Y027725D01*
X047717Y027733D01*
D02*
G37*
G36*
X049206Y027701D02*
X049165Y027693D01*
X049131Y02767D01*
X049108Y027636D01*
X0491Y027596D01*
X049108Y027555D01*
X049131Y027521D01*
X049165Y027498D01*
X049206Y02749D01*
X049246Y027498D01*
X04928Y027521D01*
X049303Y027555D01*
X049311Y027596D01*
X049303Y027636D01*
X04928Y02767D01*
X049246Y027693D01*
X049206Y027701D01*
D02*
G37*
G36*
X048915Y027691D02*
X048875Y027683D01*
X048841Y02766D01*
X048818Y027626D01*
X04881Y027586D01*
X048818Y027545D01*
X048841Y027511D01*
X048875Y027488D01*
X048915Y02748D01*
X048956Y027488D01*
X04899Y027511D01*
X049013Y027545D01*
X049021Y027586D01*
X049013Y027626D01*
X04899Y02766D01*
X048956Y027683D01*
X048915Y027691D01*
D02*
G37*
G36*
X046182Y027652D02*
X046141Y027644D01*
X046107Y027622D01*
X046084Y027587D01*
X046076Y027547D01*
X046084Y027506D01*
X046107Y027472D01*
X046141Y027449D01*
X046182Y027441D01*
X046222Y027449D01*
X046257Y027472D01*
X04628Y027506D01*
X046288Y027547D01*
X04628Y027587D01*
X046257Y027622D01*
X046222Y027644D01*
X046182Y027652D01*
D02*
G37*
G36*
X051541Y027633D02*
X051501Y027625D01*
X051467Y027602D01*
X051444Y027568D01*
X051436Y027527D01*
X051444Y027487D01*
X051467Y027453D01*
X051501Y02743D01*
X051541Y027422D01*
X051582Y02743D01*
X051616Y027453D01*
X051639Y027487D01*
X051647Y027527D01*
X051639Y027568D01*
X051616Y027602D01*
X051582Y027625D01*
X051541Y027633D01*
D02*
G37*
G36*
X049978Y027616D02*
X049938Y027608D01*
X049904Y027585D01*
X049881Y02755D01*
X049873Y02751D01*
X049881Y027469D01*
X049904Y027435D01*
X049938Y027412D01*
X049978Y027404D01*
X050019Y027412D01*
X050053Y027435D01*
X050076Y027469D01*
X050084Y02751D01*
X050076Y02755D01*
X050053Y027585D01*
X050019Y027608D01*
X049978Y027616D01*
D02*
G37*
G36*
X049657Y027312D02*
X049617Y027304D01*
X049583Y027281D01*
X04956Y027247D01*
X049552Y027206D01*
X04956Y027166D01*
X049583Y027132D01*
X049617Y027109D01*
X049657Y027101D01*
X049698Y027109D01*
X049732Y027132D01*
X049755Y027166D01*
X049763Y027206D01*
X049755Y027247D01*
X049732Y027281D01*
X049698Y027304D01*
X049657Y027312D01*
D02*
G37*
G36*
X050397Y027469D02*
X050356Y027461D01*
X050322Y027438D01*
X050299Y027403D01*
X050291Y027363D01*
X050293Y027354D01*
X050273Y027312D01*
X050256Y027305D01*
X050231Y0273D01*
X050196Y027277D01*
X050174Y027242D01*
X050166Y027202D01*
X050174Y027162D01*
X050196Y027127D01*
X050231Y027104D01*
X050271Y027096D01*
X050312Y027104D01*
X050346Y027127D01*
X050369Y027162D01*
X050377Y027202D01*
X050375Y02721D01*
X050395Y027253D01*
X050413Y02726D01*
X050437Y027265D01*
X050472Y027288D01*
X050495Y027322D01*
X050503Y027363D01*
X050495Y027403D01*
X050472Y027438D01*
X050437Y027461D01*
X050397Y027469D01*
D02*
G37*
G36*
X049978Y027303D02*
X049938Y027295D01*
X049904Y027272D01*
X049881Y027238D01*
X049873Y027198D01*
X049881Y027157D01*
X049904Y027123D01*
X049938Y0271D01*
X049978Y027092D01*
X050019Y0271D01*
X050053Y027123D01*
X050076Y027157D01*
X050084Y027198D01*
X050076Y027238D01*
X050053Y027272D01*
X050019Y027295D01*
X049978Y027303D01*
D02*
G37*
G36*
X052491Y027489D02*
X05245Y027481D01*
X052416Y027458D01*
X052393Y027424D01*
X052385Y027383D01*
X052393Y027343D01*
X052416Y027308D01*
X052412Y027251D01*
X052412Y027251D01*
X052389Y027216D01*
X052381Y027176D01*
X052389Y027135D01*
X052412Y027101D01*
X052446Y027078D01*
X052486Y02707D01*
X052527Y027078D01*
X052561Y027101D01*
X052584Y027135D01*
X052592Y027176D01*
X052584Y027216D01*
X052561Y027251D01*
X052565Y027308D01*
X052566Y027308D01*
X052588Y027343D01*
X052597Y027383D01*
X052588Y027424D01*
X052566Y027458D01*
X052531Y027481D01*
X052491Y027489D01*
D02*
G37*
G36*
X047097Y02703D02*
X047056Y027022D01*
X047022Y026999D01*
X046999Y026965D01*
X046991Y026924D01*
X046999Y026884D01*
X047022Y026849D01*
X047056Y026827D01*
X047058Y026826D01*
Y026775D01*
X047052Y026774D01*
X047018Y026751D01*
X046995Y026717D01*
X046987Y026676D01*
X046995Y026636D01*
X047018Y026602D01*
X047052Y026579D01*
X047092Y026571D01*
X047133Y026579D01*
X047167Y026602D01*
X047183Y026625D01*
X047199Y026629D01*
X047222D01*
X047238Y026625D01*
X047254Y026602D01*
X047288Y026579D01*
X047329Y026571D01*
X047369Y026579D01*
X047403Y026602D01*
X047419Y026625D01*
X047435Y026629D01*
X047458D01*
X047475Y026625D01*
X04749Y026602D01*
X047524Y026579D01*
X047565Y026571D01*
X047605Y026579D01*
X04764Y026602D01*
X047663Y026636D01*
X047671Y026676D01*
X047663Y026717D01*
X04764Y026751D01*
X047605Y026774D01*
X047565Y026782D01*
X047524Y026774D01*
X04749Y026751D01*
X047475Y026728D01*
X047458Y026724D01*
X047435D01*
X047419Y026728D01*
X047403Y026751D01*
X047369Y026774D01*
X047329Y026782D01*
X047288Y026774D01*
X047254Y026751D01*
X047238Y026728D01*
X047222Y026724D01*
X047199D01*
X047183Y026728D01*
X047167Y026751D01*
X047133Y026774D01*
X047131Y026774D01*
Y026825D01*
X047137Y026827D01*
X047172Y026849D01*
X047194Y026884D01*
X047203Y026924D01*
X047194Y026965D01*
X047172Y026999D01*
X047137Y027022D01*
X047097Y02703D01*
D02*
G37*
G36*
X052227Y026675D02*
X052187Y026667D01*
X052153Y026644D01*
X05213Y02661D01*
X052122Y026569D01*
X05213Y026529D01*
X052153Y026495D01*
X052187Y026472D01*
X052227Y026464D01*
X052268Y026472D01*
X052302Y026495D01*
X052325Y026529D01*
X052333Y026569D01*
X052325Y02661D01*
X052302Y026644D01*
X052268Y026667D01*
X052227Y026675D01*
D02*
G37*
G36*
X052658Y026353D02*
X052618Y026345D01*
X052584Y026323D01*
X052561Y026288D01*
X052553Y026248D01*
X052561Y026207D01*
X052584Y026173D01*
X052618Y02615D01*
X052658Y026142D01*
X052699Y02615D01*
X052733Y026173D01*
X052756Y026207D01*
X052764Y026248D01*
X052756Y026288D01*
X052733Y026323D01*
X052699Y026345D01*
X052658Y026353D01*
D02*
G37*
G36*
X053045Y02635D02*
X053005Y026342D01*
X05297Y026319D01*
X052947Y026285D01*
X052939Y026245D01*
X052941Y026237D01*
X052926Y026195D01*
X052904Y026185D01*
X052883Y026181D01*
X052849Y026158D01*
X052826Y026124D01*
X052818Y026083D01*
X052826Y026043D01*
X052849Y026008D01*
X052883Y025986D01*
X052924Y025977D01*
X052964Y025986D01*
X052999Y026008D01*
X053022Y026043D01*
X05303Y026083D01*
X053028Y026091D01*
X053043Y026133D01*
X053065Y026143D01*
X053086Y026147D01*
X05312Y02617D01*
X053143Y026204D01*
X053151Y026245D01*
X053143Y026285D01*
X05312Y026319D01*
X053086Y026342D01*
X053045Y02635D01*
D02*
G37*
G36*
X047134Y037036D02*
X047093Y037028D01*
X047059Y037005D01*
X04705Y036992D01*
X046993Y036992D01*
X046985Y037005D01*
X04695Y037028D01*
X04691Y037036D01*
X046869Y037028D01*
X046835Y037005D01*
X046812Y03697D01*
X046804Y03693D01*
X046812Y036889D01*
X046835Y036855D01*
X046869Y036832D01*
X04691Y036824D01*
X04695Y036832D01*
X046985Y036855D01*
X046993Y036868D01*
X04705Y036868D01*
X047059Y036856D01*
X047093Y036833D01*
X047134Y036825D01*
X047174Y036833D01*
X047208Y036856D01*
X047262Y036855D01*
X047296Y036832D01*
X047337Y036824D01*
X047377Y036832D01*
X047412Y036855D01*
X047435Y036889D01*
X047443Y03693D01*
X047435Y03697D01*
X047412Y037005D01*
X047377Y037028D01*
X047337Y037036D01*
X047296Y037028D01*
X047262Y037005D01*
X047208Y037005D01*
X047174Y037028D01*
X047134Y037036D01*
D02*
G37*
G36*
X048036Y037008D02*
X047995Y037D01*
X047961Y036977D01*
X047938Y036943D01*
X04793Y036903D01*
X047938Y036862D01*
X047961Y036828D01*
X047995Y036805D01*
X048036Y036797D01*
X048076Y036805D01*
X04811Y036828D01*
X048133Y036862D01*
X048141Y036903D01*
X048133Y036943D01*
X04811Y036977D01*
X048076Y037D01*
X048036Y037008D01*
D02*
G37*
G36*
X048824Y036996D02*
X048784Y036988D01*
X04875Y036965D01*
X048727Y036931D01*
X048719Y036891D01*
X048727Y03685D01*
X04875Y036816D01*
X048784Y036793D01*
X048824Y036785D01*
X048865Y036793D01*
X048899Y036816D01*
X048922Y03685D01*
X04893Y036891D01*
X048922Y036931D01*
X048899Y036965D01*
X048865Y036988D01*
X048824Y036996D01*
D02*
G37*
G36*
X043957Y036705D02*
X043917Y036697D01*
X043882Y036674D01*
X043859Y03664D01*
X043851Y0366D01*
X043854Y036586D01*
X043853Y036584D01*
X043812Y036547D01*
X043794Y036551D01*
X043753Y036543D01*
X043719Y03652D01*
X043696Y036485D01*
X043688Y036445D01*
X043696Y036404D01*
X043719Y03637D01*
X043753Y036347D01*
X043794Y036339D01*
X043834Y036347D01*
X043869Y03637D01*
X043892Y036404D01*
X0439Y036445D01*
X043897Y036459D01*
X043898Y03646D01*
X043939Y036497D01*
X043957Y036494D01*
X043998Y036502D01*
X044032Y036525D01*
X044055Y036559D01*
X044063Y0366D01*
X044055Y03664D01*
X044032Y036674D01*
X043998Y036697D01*
X043957Y036705D01*
D02*
G37*
G36*
X04254Y036734D02*
X042484Y036723D01*
X042437Y036691D01*
X042406Y036644D01*
X042394Y036588D01*
X042406Y036532D01*
X042437Y036485D01*
X042484Y036453D01*
X04254Y036442D01*
X042596Y036453D01*
X042643Y036485D01*
X042675Y036532D01*
X042686Y036588D01*
X042675Y036644D01*
X042643Y036691D01*
X042596Y036723D01*
X04254Y036734D01*
D02*
G37*
G36*
X04787Y03653D02*
X047829Y036522D01*
X047795Y0365D01*
X047772Y036465D01*
X047764Y036425D01*
X047772Y036384D01*
X047795Y03635D01*
X047829Y036327D01*
X04787Y036319D01*
X04791Y036327D01*
X047945Y03635D01*
X047968Y036384D01*
X047976Y036425D01*
X047968Y036465D01*
X047945Y0365D01*
X04791Y036522D01*
X04787Y03653D01*
D02*
G37*
G36*
X04624Y036487D02*
X046199Y036479D01*
X046165Y036456D01*
X046142Y036421D01*
X046134Y036381D01*
X046142Y036341D01*
X046165Y036306D01*
X046199Y036283D01*
X04624Y036275D01*
X04628Y036283D01*
X046315Y036306D01*
X046338Y036341D01*
X046346Y036381D01*
X046338Y036421D01*
X046315Y036456D01*
X04628Y036479D01*
X04624Y036487D01*
D02*
G37*
G36*
X045887Y036527D02*
X045831Y036516D01*
X045784Y036484D01*
X045752Y036437D01*
X045741Y036381D01*
X045752Y036325D01*
X045784Y036278D01*
X045831Y036246D01*
X045887Y036235D01*
X045943Y036246D01*
X04599Y036278D01*
X046022Y036325D01*
X046033Y036381D01*
X046022Y036437D01*
X04599Y036484D01*
X045943Y036516D01*
X045887Y036527D01*
D02*
G37*
G36*
X044653Y036282D02*
X044612Y036274D01*
X044578Y036251D01*
X044555Y036216D01*
X044547Y036176D01*
X044555Y036135D01*
X044578Y036101D01*
X044612Y036078D01*
X044653Y03607D01*
X044693Y036078D01*
X044727Y036101D01*
X04475Y036135D01*
X044758Y036176D01*
X04475Y036216D01*
X044727Y036251D01*
X044693Y036274D01*
X044653Y036282D01*
D02*
G37*
G36*
X041616Y036083D02*
X041575Y036075D01*
X041541Y036052D01*
X041518Y036017D01*
X04151Y035977D01*
X041518Y035936D01*
X041541Y035902D01*
X041575Y035879D01*
X041616Y035871D01*
X041656Y035879D01*
X041691Y035902D01*
X041692Y035904D01*
X041696Y035905D01*
X04175Y0359D01*
X04176Y035884D01*
X041795Y035861D01*
X041835Y035853D01*
X041876Y035861D01*
X04191Y035884D01*
X041933Y035919D01*
X041941Y035959D01*
X041933Y036D01*
X04191Y036034D01*
X041876Y036057D01*
X041835Y036065D01*
X041795Y036057D01*
X04176Y036034D01*
X041759Y036032D01*
X041755Y036031D01*
X041701Y036036D01*
X041691Y036052D01*
X041656Y036075D01*
X041616Y036083D01*
D02*
G37*
G36*
X042884Y036106D02*
X042828Y036095D01*
X04278Y036063D01*
X042749Y036016D01*
X042738Y03596D01*
X042749Y035904D01*
X04278Y035857D01*
X042828Y035825D01*
X042884Y035814D01*
X042939Y035825D01*
X042987Y035857D01*
X043018Y035904D01*
X043029Y03596D01*
X043018Y036016D01*
X042987Y036063D01*
X042939Y036095D01*
X042884Y036106D01*
D02*
G37*
G36*
X044725Y036019D02*
X044685Y036011D01*
X044651Y035988D01*
X044628Y035954D01*
X04462Y035913D01*
X044628Y035873D01*
X044651Y035839D01*
X044685Y035816D01*
X044725Y035808D01*
X044766Y035816D01*
X0448Y035839D01*
X044823Y035873D01*
X044831Y035913D01*
X044823Y035954D01*
X0448Y035988D01*
X044766Y036011D01*
X044725Y036019D01*
D02*
G37*
G36*
X043508Y035992D02*
X043467Y035984D01*
X043433Y035961D01*
X04341Y035926D01*
X043402Y035886D01*
X04341Y035845D01*
X043433Y035811D01*
X043467Y035788D01*
X043508Y03578D01*
X043548Y035788D01*
X043582Y035811D01*
X043605Y035845D01*
X043613Y035886D01*
X043605Y035926D01*
X043582Y035961D01*
X043548Y035984D01*
X043508Y035992D01*
D02*
G37*
G36*
X046147Y035812D02*
X046107Y035804D01*
X046072Y035781D01*
X046049Y035747D01*
X046041Y035706D01*
X046049Y035666D01*
X046072Y035631D01*
X046107Y035608D01*
X046147Y0356D01*
X046187Y035608D01*
X046222Y035631D01*
X046245Y035666D01*
X046253Y035706D01*
X046245Y035747D01*
X046222Y035781D01*
X046187Y035804D01*
X046147Y035812D01*
D02*
G37*
G36*
X045558D02*
X045517Y035804D01*
X045483Y035781D01*
X04546Y035747D01*
X045452Y035706D01*
X04546Y035666D01*
X045483Y035631D01*
X045517Y035608D01*
X045558Y0356D01*
X045598Y035608D01*
X045633Y035631D01*
X045656Y035666D01*
X045664Y035706D01*
X045656Y035747D01*
X045633Y035781D01*
X045598Y035804D01*
X045558Y035812D01*
D02*
G37*
G36*
X042639Y035852D02*
X042583Y035841D01*
X042535Y035809D01*
X042504Y035762D01*
X042493Y035706D01*
X042504Y03565D01*
X042535Y035603D01*
X042583Y035571D01*
X042639Y03556D01*
X042694Y035571D01*
X042742Y035603D01*
X042773Y03565D01*
X042784Y035706D01*
X042773Y035762D01*
X042742Y035809D01*
X042694Y035841D01*
X042639Y035852D01*
D02*
G37*
G36*
X047868Y035749D02*
X047828Y035741D01*
X047794Y035718D01*
X047771Y035683D01*
X047763Y035643D01*
X047771Y035602D01*
X047794Y035568D01*
X047828Y035545D01*
X047868Y035537D01*
X047909Y035545D01*
X047943Y035568D01*
X047966Y035602D01*
X047974Y035643D01*
X047966Y035683D01*
X047943Y035718D01*
X047909Y035741D01*
X047868Y035749D01*
D02*
G37*
G36*
X043767Y035665D02*
X043726Y035657D01*
X043692Y035634D01*
X043669Y0356D01*
X043661Y035559D01*
X043669Y035519D01*
X043692Y035485D01*
X043726Y035462D01*
X043767Y035454D01*
X043807Y035462D01*
X043841Y035485D01*
X043864Y035519D01*
X043872Y035559D01*
X043864Y0356D01*
X043841Y035634D01*
X043807Y035657D01*
X043767Y035665D01*
D02*
G37*
G36*
X042863Y035569D02*
X042807Y035558D01*
X04276Y035526D01*
X042728Y035479D01*
X042717Y035423D01*
X042724Y03539D01*
X042679Y03536D01*
X042667Y035368D01*
X042611Y03538D01*
X042555Y035368D01*
X042507Y035337D01*
X042476Y035289D01*
X042465Y035234D01*
X042476Y035178D01*
X042507Y03513D01*
X042555Y035099D01*
X042611Y035088D01*
X042667Y035099D01*
X042714Y03513D01*
X042745Y035178D01*
X042757Y035234D01*
X04275Y035266D01*
X042795Y035297D01*
X042807Y035288D01*
X042863Y035277D01*
X042919Y035288D01*
X042966Y03532D01*
X042998Y035367D01*
X043009Y035423D01*
X042998Y035479D01*
X042966Y035526D01*
X042919Y035558D01*
X042863Y035569D01*
D02*
G37*
G36*
X041668Y035409D02*
X041627Y035401D01*
X041593Y035378D01*
X04157Y035344D01*
X041562Y035303D01*
X04157Y035263D01*
X041593Y035228D01*
X041627Y035205D01*
X041668Y035197D01*
X041708Y035205D01*
X041742Y035228D01*
X041765Y035263D01*
X041773Y035303D01*
X041765Y035344D01*
X041742Y035378D01*
X041708Y035401D01*
X041668Y035409D01*
D02*
G37*
G36*
X043508Y035394D02*
X043467Y035386D01*
X043433Y035363D01*
X04341Y035329D01*
X043402Y035289D01*
X04341Y035248D01*
X043433Y035214D01*
X043467Y035191D01*
X043508Y035183D01*
X043548Y035191D01*
X043582Y035214D01*
X043605Y035248D01*
X043613Y035289D01*
X043605Y035329D01*
X043582Y035363D01*
X043548Y035386D01*
X043508Y035394D01*
D02*
G37*
G36*
X047922Y035325D02*
X047882Y035317D01*
X047848Y035294D01*
X047825Y03526D01*
X047817Y035219D01*
X047825Y035179D01*
X047848Y035144D01*
X047874Y035126D01*
X047883Y035082D01*
X047884Y035073D01*
X047852Y035025D01*
X047841Y034969D01*
X047852Y034914D01*
X047884Y034866D01*
X047931Y034835D01*
X047987Y034824D01*
X048043Y034835D01*
X04809Y034866D01*
X048122Y034914D01*
X048133Y034969D01*
X048122Y035025D01*
X04809Y035073D01*
X048043Y035104D01*
X048028Y035107D01*
X048024Y035111D01*
X048009Y035162D01*
X04802Y035179D01*
X048028Y035219D01*
X04802Y03526D01*
X047997Y035294D01*
X047963Y035317D01*
X047922Y035325D01*
D02*
G37*
G36*
X046147Y035206D02*
X046107Y035198D01*
X046072Y035175D01*
X046049Y035141D01*
X046041Y0351D01*
X046049Y03506D01*
X046072Y035026D01*
X046097Y035009D01*
X046102Y034985D01*
Y034977D01*
X046097Y034954D01*
X046072Y034937D01*
X046049Y034903D01*
X046041Y034862D01*
X046049Y034822D01*
X046072Y034787D01*
X046107Y034764D01*
X046147Y034756D01*
X046187Y034764D01*
X046222Y034787D01*
X046245Y034822D01*
X046253Y034862D01*
X046245Y034903D01*
X046222Y034937D01*
X046197Y034954D01*
X046192Y034977D01*
Y034985D01*
X046197Y035009D01*
X046222Y035026D01*
X046245Y03506D01*
X046253Y0351D01*
X046245Y035141D01*
X046222Y035175D01*
X046187Y035198D01*
X046147Y035206D01*
D02*
G37*
G36*
X045695Y035201D02*
X045654Y035193D01*
X04562Y03517D01*
X045597Y035136D01*
X045589Y035096D01*
X045597Y035055D01*
X04562Y035021D01*
X045641Y035007D01*
X045644Y034997D01*
Y034961D01*
X045641Y034951D01*
X04562Y034937D01*
X045597Y034903D01*
X045589Y034862D01*
X045597Y034822D01*
X04562Y034787D01*
X045654Y034764D01*
X045695Y034756D01*
X045735Y034764D01*
X045769Y034787D01*
X045792Y034822D01*
X0458Y034862D01*
X045792Y034903D01*
X045769Y034937D01*
X045748Y034951D01*
X045745Y034961D01*
Y034997D01*
X045748Y035007D01*
X045769Y035021D01*
X045792Y035055D01*
X0458Y035096D01*
X045792Y035136D01*
X045769Y03517D01*
X045735Y035193D01*
X045695Y035201D01*
D02*
G37*
G36*
X042145Y034924D02*
X042104Y034915D01*
X04207Y034893D01*
X042047Y034858D01*
X042039Y034818D01*
X042047Y034777D01*
X04207Y034743D01*
Y034716D01*
X042047Y034682D01*
X042039Y034641D01*
X042047Y034601D01*
X04207Y034566D01*
X042104Y034543D01*
X042145Y034535D01*
X042185Y034543D01*
X04222Y034566D01*
X042243Y034601D01*
X042251Y034641D01*
X042243Y034682D01*
X04222Y034716D01*
Y034743D01*
X042243Y034777D01*
X042251Y034818D01*
X042243Y034858D01*
X04222Y034893D01*
X042185Y034915D01*
X042145Y034924D01*
D02*
G37*
G36*
X047357Y034578D02*
X047301Y034567D01*
X047254Y034535D01*
X047222Y034488D01*
X047211Y034432D01*
X047222Y034376D01*
X047254Y034329D01*
X047301Y034297D01*
X047357Y034286D01*
X047413Y034297D01*
X04746Y034329D01*
X047492Y034376D01*
X047503Y034432D01*
X047492Y034488D01*
X04746Y034535D01*
X047413Y034567D01*
X047357Y034578D01*
D02*
G37*
G36*
X041806Y03458D02*
X041766Y034572D01*
X041731Y034549D01*
X041708Y034514D01*
X0417Y034474D01*
X041708Y034433D01*
X041731Y034399D01*
X041731Y03434D01*
X041708Y034305D01*
X0417Y034265D01*
X041708Y034224D01*
X041731Y03419D01*
X041766Y034167D01*
X041806Y034159D01*
X041847Y034167D01*
X041881Y03419D01*
X041904Y034224D01*
X041912Y034265D01*
X041904Y034305D01*
X041881Y03434D01*
X041881Y034399D01*
X041904Y034433D01*
X041912Y034474D01*
X041904Y034514D01*
X041881Y034549D01*
X041847Y034572D01*
X041806Y03458D01*
D02*
G37*
G36*
X04709Y034301D02*
X047034Y03429D01*
X046987Y034259D01*
X046955Y034211D01*
X046944Y034156D01*
X046955Y0341D01*
X046987Y034052D01*
X047034Y034021D01*
X04709Y03401D01*
X047146Y034021D01*
X047193Y034052D01*
X047225Y0341D01*
X047236Y034156D01*
X047225Y034211D01*
X047193Y034259D01*
X047146Y03429D01*
X04709Y034301D01*
D02*
G37*
G36*
X042092Y031711D02*
X042051Y031703D01*
X042017Y03168D01*
X041994Y031646D01*
X041986Y031605D01*
X041994Y031565D01*
X042017Y03153D01*
X042051Y031507D01*
X042092Y031499D01*
X042132Y031507D01*
X042166Y03153D01*
X042189Y031565D01*
X042197Y031605D01*
X042189Y031646D01*
X042166Y03168D01*
X042132Y031703D01*
X042092Y031711D01*
D02*
G37*
G36*
X045001Y03099D02*
X04496Y030982D01*
X044926Y030959D01*
X044903Y030925D01*
X044895Y030884D01*
X044903Y030844D01*
X044926Y030809D01*
X04496Y030787D01*
X045001Y030779D01*
X045041Y030787D01*
X045076Y030809D01*
X045098Y030844D01*
X045107Y030884D01*
X045098Y030925D01*
X045076Y030959D01*
X045041Y030982D01*
X045001Y03099D01*
D02*
G37*
G36*
X044804Y030799D02*
X044763Y030791D01*
X044729Y030768D01*
X044706Y030734D01*
X044698Y030693D01*
X044706Y030653D01*
X044729Y030619D01*
X044763Y030596D01*
X044804Y030588D01*
X044844Y030596D01*
X044879Y030619D01*
X044902Y030653D01*
X04491Y030693D01*
X044902Y030734D01*
X044879Y030768D01*
X044844Y030791D01*
X044804Y030799D01*
D02*
G37*
G36*
X044218Y030798D02*
X044177Y03079D01*
X044143Y030767D01*
X04412Y030733D01*
X044112Y030692D01*
X04412Y030652D01*
X044143Y030617D01*
X044177Y030594D01*
X044218Y030586D01*
X044258Y030594D01*
X044292Y030617D01*
X044315Y030652D01*
X044323Y030692D01*
X044315Y030733D01*
X044292Y030767D01*
X044258Y03079D01*
X044218Y030798D01*
D02*
G37*
G36*
X045394Y030601D02*
X045354Y030593D01*
X04532Y03057D01*
X045297Y030536D01*
X045289Y030496D01*
X045297Y030455D01*
X04532Y030421D01*
X045354Y030398D01*
X045394Y03039D01*
X045435Y030398D01*
X045469Y030421D01*
X045492Y030455D01*
X0455Y030496D01*
X045492Y030536D01*
X045469Y03057D01*
X045435Y030593D01*
X045394Y030601D01*
D02*
G37*
G36*
X045001D02*
X04496Y030593D01*
X044926Y03057D01*
X044903Y030536D01*
X044895Y030496D01*
X044903Y030455D01*
X044926Y030421D01*
X04496Y030398D01*
X045001Y03039D01*
X045041Y030398D01*
X045076Y030421D01*
X045098Y030455D01*
X045107Y030496D01*
X045098Y030536D01*
X045076Y03057D01*
X045041Y030593D01*
X045001Y030601D01*
D02*
G37*
G36*
X044607Y030408D02*
X044567Y0304D01*
X044532Y030377D01*
X044485Y030368D01*
X044451Y030391D01*
X04441Y030399D01*
X04437Y030391D01*
X044335Y030368D01*
X044312Y030333D01*
X044304Y030293D01*
X044312Y030252D01*
X044335Y030218D01*
X04437Y030195D01*
X04441Y030187D01*
X044451Y030195D01*
X044485Y030218D01*
X044532Y030228D01*
X044567Y030205D01*
X044607Y030197D01*
X044648Y030205D01*
X044682Y030228D01*
X044705Y030262D01*
X044713Y030303D01*
X044705Y030343D01*
X044682Y030377D01*
X044648Y0304D01*
X044607Y030408D01*
D02*
G37*
G36*
X045198D02*
X045157Y0304D01*
X045123Y030377D01*
X0451Y030343D01*
X045092Y030303D01*
X0451Y030262D01*
X045123Y030228D01*
X045157Y030205D01*
X045198Y030197D01*
X045238Y030205D01*
X045272Y030228D01*
X045295Y030262D01*
X045303Y030303D01*
X045295Y030343D01*
X045272Y030377D01*
X045238Y0304D01*
X045198Y030408D01*
D02*
G37*
G36*
X042598Y030203D02*
X042558Y030195D01*
X042524Y030172D01*
X042501Y030138D01*
X042493Y030098D01*
X0425Y030061D01*
X042489Y030043D01*
X042468Y030017D01*
X042452Y03002D01*
X042411Y030012D01*
X042377Y029989D01*
X042354Y029955D01*
X042346Y029914D01*
X042354Y029874D01*
X042377Y029839D01*
X042411Y029816D01*
X042452Y029808D01*
X042492Y029816D01*
X042527Y029839D01*
X042549Y029874D01*
X042558Y029914D01*
X04255Y02995D01*
X042561Y029969D01*
X042583Y029995D01*
X042598Y029992D01*
X042639Y03D01*
X042673Y030023D01*
X042696Y030057D01*
X042704Y030098D01*
X042696Y030138D01*
X042673Y030172D01*
X042639Y030195D01*
X042598Y030203D01*
D02*
G37*
G36*
X043623Y030429D02*
X043583Y030421D01*
X043548Y030398D01*
X043525Y030364D01*
X043517Y030323D01*
X043525Y030283D01*
X043548Y030249D01*
X043551Y030247D01*
Y030186D01*
X043548Y030184D01*
X043525Y03015D01*
X043517Y030109D01*
X043525Y030069D01*
X043548Y030035D01*
X043582Y030012D01*
X043623Y030004D01*
X043663Y030012D01*
X043698Y030035D01*
X043721Y030069D01*
X043729Y030109D01*
X043721Y03015D01*
X043698Y030184D01*
X043695Y030186D01*
Y030246D01*
X043698Y030249D01*
X043721Y030283D01*
X043729Y030323D01*
X043721Y030364D01*
X043698Y030398D01*
X043664Y030421D01*
X043623Y030429D01*
D02*
G37*
G36*
X043229Y030215D02*
X043189Y030207D01*
X043154Y030184D01*
X043131Y03015D01*
X043123Y030109D01*
X043131Y030069D01*
X043154Y030035D01*
X043189Y030012D01*
X043229Y030004D01*
X04327Y030012D01*
X043304Y030035D01*
X043327Y030069D01*
X043335Y030109D01*
X043327Y03015D01*
X043304Y030184D01*
X04327Y030207D01*
X043229Y030215D01*
D02*
G37*
G36*
X0448Y030212D02*
X04476Y030203D01*
X044725Y030181D01*
X044702Y030146D01*
X044694Y030106D01*
X044702Y030065D01*
X044725Y030031D01*
X04476Y030008D01*
X0448Y03D01*
X044841Y030008D01*
X044875Y030031D01*
X044898Y030065D01*
X044906Y030106D01*
X044898Y030146D01*
X044875Y030181D01*
X044841Y030203D01*
X0448Y030212D01*
D02*
G37*
G36*
X045383Y030217D02*
X045343Y030209D01*
X045309Y030186D01*
X045286Y030151D01*
X045278Y030111D01*
X045286Y03007D01*
X045309Y030036D01*
X045343Y030013D01*
X045383Y030005D01*
X045424Y030013D01*
X045458Y030036D01*
X045514Y03003D01*
X045517Y030027D01*
X045551Y030004D01*
X045591Y029996D01*
X045632Y030004D01*
X045666Y030027D01*
X045689Y030062D01*
X045697Y030102D01*
X045689Y030143D01*
X045666Y030177D01*
X045632Y0302D01*
X045591Y030208D01*
X045551Y0302D01*
X045517Y030177D01*
X04546Y030183D01*
X045458Y030186D01*
X045424Y030209D01*
X045383Y030217D01*
D02*
G37*
G36*
X044608Y030015D02*
X044568Y030007D01*
X044534Y029984D01*
X044485Y029982D01*
X044451Y030005D01*
X04441Y030013D01*
X04437Y030005D01*
X044335Y029982D01*
X044312Y029948D01*
X044304Y029908D01*
X044312Y029867D01*
X044335Y029833D01*
X04437Y02981D01*
X04441Y029802D01*
X044451Y02981D01*
X044485Y029833D01*
X044534Y029834D01*
X044568Y029811D01*
X044608Y029803D01*
X044649Y029811D01*
X044683Y029834D01*
X044706Y029868D01*
X044714Y029909D01*
X044706Y029949D01*
X044683Y029984D01*
X044649Y030007D01*
X044608Y030015D01*
D02*
G37*
G36*
X043426Y030018D02*
X043385Y03001D01*
X043351Y029987D01*
X043328Y029953D01*
X04332Y029913D01*
X043328Y029872D01*
X043351Y029838D01*
X043385Y029815D01*
X043426Y029807D01*
X043466Y029815D01*
X043501Y029838D01*
X043524Y029872D01*
X043532Y029913D01*
X043524Y029953D01*
X043501Y029987D01*
X043466Y03001D01*
X043426Y030018D01*
D02*
G37*
G36*
X044016Y030015D02*
X043976Y030007D01*
X043941Y029984D01*
X043919Y029949D01*
X04391Y029909D01*
X043919Y029868D01*
X043941Y029834D01*
X043976Y029811D01*
X044016Y029803D01*
X044057Y029811D01*
X044091Y029834D01*
X044114Y029868D01*
X044122Y029909D01*
X044114Y029949D01*
X044091Y029984D01*
X044057Y030007D01*
X044016Y030015D01*
D02*
G37*
G36*
X045591Y029828D02*
X045551Y029819D01*
X045517Y029797D01*
X045469Y029787D01*
X045435Y02981D01*
X045394Y029818D01*
X045354Y02981D01*
X04532Y029787D01*
X045297Y029753D01*
X045289Y029712D01*
X045297Y029672D01*
X04532Y029637D01*
X045354Y029614D01*
X045394Y029606D01*
X045435Y029614D01*
X045469Y029637D01*
X045517Y029647D01*
X045551Y029624D01*
X045591Y029616D01*
X045632Y029624D01*
X045666Y029647D01*
X045689Y029681D01*
X045697Y029722D01*
X045689Y029762D01*
X045666Y029797D01*
X045632Y029819D01*
X045591Y029828D01*
D02*
G37*
G36*
X045001Y029818D02*
X04496Y02981D01*
X044931Y02979D01*
X044926Y029787D01*
X044879Y029785D01*
X044844Y029808D01*
X044804Y029816D01*
X044763Y029808D01*
X044729Y029785D01*
X044706Y029751D01*
X044698Y029711D01*
X044706Y02967D01*
X044729Y029636D01*
X044763Y029613D01*
X044804Y029605D01*
X044844Y029613D01*
X044874Y029632D01*
X044879Y029636D01*
X044926Y029637D01*
X04496Y029614D01*
X045001Y029606D01*
X045041Y029614D01*
X045076Y029637D01*
X045098Y029672D01*
X045107Y029712D01*
X045098Y029753D01*
X045076Y029787D01*
X045041Y02981D01*
X045001Y029818D01*
D02*
G37*
G36*
X043829Y029818D02*
X043789Y02981D01*
X043755Y029787D01*
X043732Y029753D01*
X043724Y029712D01*
X043732Y029672D01*
X043755Y029637D01*
X043789Y029614D01*
X043829Y029606D01*
X04387Y029614D01*
X043904Y029637D01*
X043927Y029672D01*
X043935Y029712D01*
X043927Y029753D01*
X043904Y029787D01*
X04387Y02981D01*
X043829Y029818D01*
D02*
G37*
G36*
X043229D02*
X043189Y02981D01*
X043154Y029787D01*
X043131Y029753D01*
X043123Y029712D01*
X043131Y029672D01*
X043154Y029637D01*
X043189Y029614D01*
X043229Y029606D01*
X04327Y029614D01*
X043304Y029637D01*
X043327Y029672D01*
X043335Y029712D01*
X043327Y029753D01*
X043304Y029787D01*
X04327Y02981D01*
X043229Y029818D01*
D02*
G37*
G36*
X043627Y029621D02*
X043586Y029613D01*
X043552Y02959D01*
X043504D01*
X04347Y029613D01*
X04343Y029621D01*
X043389Y029613D01*
X043355Y02959D01*
X043332Y029556D01*
X043324Y029515D01*
X043332Y029475D01*
X043355Y02944D01*
X043389Y029418D01*
X04343Y029409D01*
X04347Y029418D01*
X043504Y02944D01*
X043552D01*
X043586Y029418D01*
X043627Y029409D01*
X043667Y029418D01*
X043701Y02944D01*
X043724Y029475D01*
X043732Y029515D01*
X043724Y029556D01*
X043701Y02959D01*
X043667Y029613D01*
X043627Y029621D01*
D02*
G37*
G36*
X044607Y029614D02*
X044567Y029606D01*
X044532Y029583D01*
X044509Y029549D01*
X044501Y029508D01*
X044509Y029468D01*
X044532Y029434D01*
X044567Y029411D01*
X044607Y029403D01*
X044648Y029411D01*
X044682Y029434D01*
X044705Y029468D01*
X044713Y029508D01*
X044705Y029549D01*
X044682Y029583D01*
X044648Y029606D01*
X044607Y029614D01*
D02*
G37*
G36*
X045001Y029424D02*
X04496Y029416D01*
X044931Y029397D01*
X044926Y029393D01*
X044879Y029392D01*
X044844Y029415D01*
X044804Y029423D01*
X044763Y029415D01*
X044729Y029392D01*
X044706Y029357D01*
X044698Y029317D01*
X044706Y029276D01*
X044729Y029242D01*
X044763Y029219D01*
X044804Y029211D01*
X044844Y029219D01*
X044874Y029239D01*
X044879Y029242D01*
X044926Y029244D01*
X04496Y029221D01*
X045001Y029213D01*
X045041Y029221D01*
X045076Y029244D01*
X045098Y029278D01*
X045107Y029318D01*
X045098Y029359D01*
X045076Y029393D01*
X045041Y029416D01*
X045001Y029424D01*
D02*
G37*
G36*
X042284Y029557D02*
X042244Y029549D01*
X04221Y029526D01*
X042187Y029491D01*
X042179Y029451D01*
X042187Y02941D01*
X04221Y029376D01*
X042244Y029353D01*
X042284Y029345D01*
X042325Y029353D01*
X042359Y029376D01*
X042382Y02941D01*
X04239Y029451D01*
X042382Y029491D01*
X042359Y029526D01*
X042325Y029549D01*
X042284Y029557D01*
D02*
G37*
G36*
X045591Y029424D02*
X045551Y029416D01*
X045517Y029393D01*
X045494Y029359D01*
X045486Y029318D01*
X045494Y029278D01*
X045517Y029244D01*
X045551Y029221D01*
X045591Y029213D01*
X045632Y029221D01*
X045666Y029244D01*
X045689Y029278D01*
X045697Y029318D01*
X045689Y029359D01*
X045666Y029393D01*
X045632Y029416D01*
X045591Y029424D01*
D02*
G37*
G36*
X043229D02*
X043189Y029416D01*
X043154Y029393D01*
X043131Y029359D01*
X043123Y029318D01*
X043131Y029278D01*
X043154Y029244D01*
X043189Y029221D01*
X043229Y029213D01*
X04327Y029221D01*
X043304Y029244D01*
X043327Y029278D01*
X043335Y029318D01*
X043327Y029359D01*
X043304Y029393D01*
X04327Y029416D01*
X043229Y029424D01*
D02*
G37*
G36*
X044607Y029227D02*
X044567Y029219D01*
X044532Y029196D01*
X044509Y029162D01*
X044501Y029122D01*
X044509Y029081D01*
X044532Y029047D01*
X044567Y029024D01*
X044607Y029016D01*
X044648Y029024D01*
X044682Y029047D01*
X044705Y029081D01*
X044713Y029122D01*
X044705Y029162D01*
X044682Y029196D01*
X044648Y029219D01*
X044607Y029227D01*
D02*
G37*
G36*
X043426D02*
X043385Y029219D01*
X043351Y029196D01*
X043328Y029162D01*
X04332Y029122D01*
X043328Y029081D01*
X043351Y029047D01*
X043385Y029024D01*
X043426Y029016D01*
X043466Y029024D01*
X043501Y029047D01*
X043524Y029081D01*
X043532Y029122D01*
X043524Y029162D01*
X043501Y029196D01*
X043466Y029219D01*
X043426Y029227D01*
D02*
G37*
G36*
X045197Y029227D02*
X045156Y029219D01*
X045122Y029196D01*
X045099Y029162D01*
X045091Y029122D01*
X045099Y029081D01*
X045122Y029047D01*
X045156Y029024D01*
X045197Y029016D01*
X045237Y029024D01*
X045272Y029047D01*
X045295Y029081D01*
X045303Y029122D01*
X045295Y029162D01*
X045272Y029196D01*
X045237Y029219D01*
X045197Y029227D01*
D02*
G37*
G36*
X044016D02*
X043976Y029219D01*
X043942Y029196D01*
X043919Y029162D01*
X043911Y029122D01*
X043919Y029081D01*
X043942Y029047D01*
X043976Y029024D01*
X044016Y029016D01*
X044057Y029024D01*
X044091Y029047D01*
X044114Y029081D01*
X044122Y029122D01*
X044114Y029162D01*
X044091Y029196D01*
X044057Y029219D01*
X044016Y029227D01*
D02*
G37*
G36*
X04382Y02903D02*
X043779Y029022D01*
X043745Y028999D01*
X043698D01*
X043663Y029022D01*
X043623Y02903D01*
X043582Y029022D01*
X043548Y028999D01*
X043525Y028965D01*
X043517Y028925D01*
X043525Y028884D01*
X043548Y02885D01*
X043548Y028803D01*
X043525Y028768D01*
X043517Y028728D01*
X043525Y028687D01*
X043548Y028653D01*
X043582Y02863D01*
X043623Y028622D01*
X043663Y02863D01*
X043698Y028653D01*
X043745Y028653D01*
X043779Y02863D01*
X04382Y028622D01*
X04386Y02863D01*
X043894Y028653D01*
X043917Y028687D01*
X043925Y028728D01*
X043917Y028768D01*
X043894Y028803D01*
X043894Y02885D01*
X043917Y028884D01*
X043925Y028925D01*
X043917Y028965D01*
X043894Y028999D01*
X04386Y029022D01*
X04382Y02903D01*
D02*
G37*
G36*
X045394D02*
X045354Y029022D01*
X04532Y028999D01*
X045297Y028965D01*
X045289Y028925D01*
X045297Y028884D01*
X04532Y02885D01*
X045354Y028827D01*
X045394Y028819D01*
X045435Y028827D01*
X045469Y02885D01*
X045492Y028884D01*
X0455Y028925D01*
X045492Y028965D01*
X045469Y028999D01*
X045435Y029022D01*
X045394Y02903D01*
D02*
G37*
G36*
X045001D02*
X04496Y029022D01*
X044926Y028999D01*
X044903Y028965D01*
X044895Y028925D01*
X044903Y028884D01*
X044926Y02885D01*
X04496Y028827D01*
X045001Y028819D01*
X045041Y028827D01*
X045076Y02885D01*
X045098Y028884D01*
X045107Y028925D01*
X045098Y028965D01*
X045076Y028999D01*
X045041Y029022D01*
X045001Y02903D01*
D02*
G37*
G36*
X044607Y028835D02*
X044567Y028827D01*
X044532Y028804D01*
X044485D01*
X044451Y028827D01*
X04441Y028835D01*
X04437Y028827D01*
X044335Y028804D01*
X044312Y02877D01*
X044304Y028729D01*
X044312Y028689D01*
X044335Y028654D01*
X04437Y028631D01*
X04441Y028623D01*
X044451Y028631D01*
X044485Y028654D01*
X044532D01*
X044567Y028631D01*
X044607Y028623D01*
X044648Y028631D01*
X044682Y028654D01*
X044731Y028653D01*
X044765Y02863D01*
X044805Y028622D01*
X044846Y02863D01*
X04488Y028653D01*
X044903Y028687D01*
X044911Y028728D01*
X044903Y028768D01*
X04488Y028803D01*
X044846Y028826D01*
X044805Y028834D01*
X044765Y028826D01*
X044731Y028803D01*
X044682Y028804D01*
X044648Y028827D01*
X044607Y028835D01*
D02*
G37*
G36*
X042535Y029328D02*
X042495Y02932D01*
X042461Y029297D01*
X042438Y029263D01*
X04243Y029222D01*
X042438Y029182D01*
X042461Y029148D01*
X042484Y029132D01*
X042485Y029128D01*
X042487Y029091D01*
X042484Y029076D01*
X042466Y029064D01*
X042443Y02903D01*
X042435Y028989D01*
X042443Y028949D01*
X042466Y028914D01*
X042469Y028912D01*
Y028852D01*
X042466Y028849D01*
X042443Y028815D01*
X042435Y028774D01*
X042443Y028734D01*
X042466Y028699D01*
X04249Y028683D01*
X042494Y028662D01*
Y028649D01*
X04249Y028628D01*
X042466Y028612D01*
X042443Y028577D01*
X042435Y028537D01*
X042443Y028496D01*
X042466Y028462D01*
X0425Y028439D01*
X04254Y028431D01*
X042581Y028439D01*
X042615Y028462D01*
X042638Y028496D01*
X042646Y028537D01*
X042638Y028577D01*
X042615Y028612D01*
X042591Y028628D01*
X042587Y028649D01*
Y028662D01*
X042591Y028683D01*
X042615Y028699D01*
X042638Y028734D01*
X042646Y028774D01*
X042638Y028815D01*
X042615Y028849D01*
X042611Y028852D01*
Y028912D01*
X042615Y028914D01*
X042638Y028949D01*
X042646Y028989D01*
X042638Y02903D01*
X042615Y029064D01*
X042592Y02908D01*
X04259Y029083D01*
X042589Y029121D01*
X042592Y029135D01*
X04261Y029148D01*
X042633Y029182D01*
X042641Y029222D01*
X042633Y029263D01*
X04261Y029297D01*
X042576Y02932D01*
X042535Y029328D01*
D02*
G37*
G36*
X044018Y028638D02*
X043977Y02863D01*
X043943Y028607D01*
X04392Y028573D01*
X043912Y028532D01*
X04392Y028492D01*
X043943Y028457D01*
X043977Y028434D01*
X044018Y028426D01*
X044058Y028434D01*
X044092Y028457D01*
X044115Y028492D01*
X044123Y028532D01*
X044115Y028573D01*
X044092Y028607D01*
X044058Y02863D01*
X044018Y028638D01*
D02*
G37*
G36*
X045394Y028637D02*
X045354Y028629D01*
X04532Y028606D01*
X045297Y028571D01*
X045289Y028531D01*
X045297Y028491D01*
X04532Y028456D01*
X045354Y028433D01*
X045394Y028425D01*
X045435Y028433D01*
X045469Y028456D01*
X045492Y028491D01*
X0455Y028531D01*
X045492Y028571D01*
X045469Y028606D01*
X045435Y028629D01*
X045394Y028637D01*
D02*
G37*
G36*
X043426D02*
X043385Y028629D01*
X043351Y028606D01*
X043328Y028571D01*
X04332Y028531D01*
X043328Y028491D01*
X043345Y028465D01*
X043333Y028427D01*
X043295Y028415D01*
X04327Y028432D01*
X043229Y02844D01*
X043189Y028432D01*
X043154Y028409D01*
X043131Y028375D01*
X043123Y028334D01*
X043131Y028294D01*
X043154Y028259D01*
X043189Y028236D01*
X043229Y028228D01*
X04327Y028236D01*
X043304Y028259D01*
X043351D01*
X043385Y028236D01*
X043426Y028228D01*
X043466Y028236D01*
X043501Y028259D01*
X043524Y028294D01*
X043532Y028334D01*
X043524Y028375D01*
X043501Y028409D01*
X043501Y028456D01*
X043524Y028491D01*
X043532Y028531D01*
X043524Y028571D01*
X043501Y028606D01*
X043466Y028629D01*
X043426Y028637D01*
D02*
G37*
G36*
X045591Y028444D02*
X045551Y028436D01*
X045517Y028413D01*
X045494Y028379D01*
X045486Y028339D01*
X045494Y028298D01*
X045517Y028264D01*
X045551Y028241D01*
X045591Y028233D01*
X045632Y028241D01*
X045666Y028264D01*
X045689Y028298D01*
X045697Y028339D01*
X045689Y028379D01*
X045666Y028413D01*
X045632Y028436D01*
X045591Y028444D01*
D02*
G37*
G36*
X044215Y028441D02*
X044174Y028433D01*
X04414Y02841D01*
X044117Y028376D01*
X044109Y028336D01*
X044117Y028295D01*
X04414Y028261D01*
X044174Y028238D01*
X044215Y02823D01*
X044255Y028238D01*
X04429Y028261D01*
X044313Y028295D01*
X044321Y028336D01*
X044313Y028376D01*
X04429Y02841D01*
X044255Y028433D01*
X044215Y028441D01*
D02*
G37*
G36*
X04382Y02844D02*
X043779Y028432D01*
X043745Y028409D01*
X043722Y028375D01*
X043714Y028334D01*
X043722Y028294D01*
X043745Y028259D01*
X043779Y028236D01*
X04382Y028228D01*
X04386Y028236D01*
X043894Y028259D01*
X043917Y028294D01*
X043925Y028334D01*
X043917Y028375D01*
X043894Y028409D01*
X04386Y028432D01*
X04382Y02844D01*
D02*
G37*
G36*
X044804Y02844D02*
X044763Y028432D01*
X044729Y028409D01*
X044706Y028375D01*
X044698Y028334D01*
X044706Y028294D01*
X044729Y028259D01*
X044763Y028236D01*
X044804Y028228D01*
X044844Y028236D01*
X044879Y028259D01*
X044902Y028294D01*
X04491Y028334D01*
X044902Y028375D01*
X044879Y028409D01*
X044844Y028432D01*
X044804Y02844D01*
D02*
G37*
G36*
X043623Y028243D02*
X043582Y028235D01*
X043548Y028212D01*
X043525Y028178D01*
X043517Y028137D01*
X043525Y028097D01*
X043548Y028062D01*
X043582Y02804D01*
X043623Y028031D01*
X043663Y02804D01*
X043698Y028062D01*
X043721Y028097D01*
X043729Y028137D01*
X043721Y028178D01*
X043698Y028212D01*
X043663Y028235D01*
X043623Y028243D01*
D02*
G37*
G36*
X043426Y028046D02*
X043385Y028038D01*
X043351Y028015D01*
X043328Y027981D01*
X04332Y02794D01*
X043328Y0279D01*
X043351Y027866D01*
X043385Y027843D01*
X043426Y027835D01*
X043466Y027843D01*
X043501Y027866D01*
X043524Y0279D01*
X043532Y02794D01*
X043524Y027981D01*
X043501Y028015D01*
X043466Y028038D01*
X043426Y028046D01*
D02*
G37*
G36*
X044605Y028238D02*
X044565Y02823D01*
X04453Y028207D01*
X044507Y028173D01*
X044499Y028133D01*
X044507Y028092D01*
X044523Y028069D01*
X044528Y028039D01*
X044524Y028002D01*
X044509Y027981D01*
X044501Y02794D01*
X044509Y0279D01*
X044532Y027866D01*
X044567Y027843D01*
X044607Y027835D01*
X044648Y027843D01*
X044682Y027866D01*
X044705Y0279D01*
X044713Y02794D01*
X044705Y027981D01*
X044689Y028004D01*
X044684Y028034D01*
X044689Y028071D01*
X044703Y028092D01*
X044711Y028133D01*
X044703Y028173D01*
X04468Y028207D01*
X044646Y02823D01*
X044605Y028238D01*
D02*
G37*
G36*
X044213Y027849D02*
X044173Y027841D01*
X044139Y027818D01*
X044091Y027818D01*
X044057Y027841D01*
X044016Y027849D01*
X043976Y027841D01*
X043942Y027818D01*
X043919Y027784D01*
X043911Y027744D01*
X043919Y027703D01*
X043942Y027669D01*
X043942Y027622D01*
X043919Y027587D01*
X043911Y027547D01*
X043919Y027506D01*
X043942Y027472D01*
X043976Y027449D01*
X044016Y027441D01*
X044057Y027449D01*
X044091Y027472D01*
X044139D01*
X044173Y027449D01*
X044213Y027441D01*
X044254Y027449D01*
X044288Y027472D01*
X044311Y027506D01*
X044319Y027547D01*
X044311Y027587D01*
X044288Y027622D01*
Y027669D01*
X044311Y027703D01*
X044319Y027744D01*
X044311Y027784D01*
X044288Y027818D01*
X044254Y027841D01*
X044213Y027849D01*
D02*
G37*
G36*
X042526Y028047D02*
X042485Y028039D01*
X042451Y028016D01*
X042428Y027982D01*
X04242Y027941D01*
X042428Y027901D01*
X042451Y027866D01*
X042485Y027844D01*
X042508Y027839D01*
X042533Y027799D01*
X042536Y027787D01*
X042529Y027752D01*
X042537Y027712D01*
X04256Y027678D01*
X042594Y027655D01*
X042635Y027647D01*
X042675Y027655D01*
X04271Y027678D01*
X042733Y027712D01*
X042741Y027752D01*
X042733Y027793D01*
X04271Y027827D01*
X042675Y02785D01*
X042653Y027855D01*
X042627Y027895D01*
X042625Y027907D01*
X042632Y027941D01*
X042624Y027982D01*
X042601Y028016D01*
X042566Y028039D01*
X042526Y028047D01*
D02*
G37*
G36*
X045591Y027849D02*
X045551Y027841D01*
X045517Y027818D01*
X045494Y027784D01*
X045486Y027744D01*
X045494Y027703D01*
X045517Y027669D01*
X045551Y027646D01*
X045591Y027638D01*
X045632Y027646D01*
X045666Y027669D01*
X045689Y027703D01*
X045697Y027744D01*
X045689Y027784D01*
X045666Y027818D01*
X045632Y027841D01*
X045591Y027849D01*
D02*
G37*
G36*
X044804D02*
X044763Y027841D01*
X044729Y027818D01*
X044706Y027784D01*
X044698Y027744D01*
X044706Y027703D01*
X044729Y027669D01*
X044763Y027646D01*
X044804Y027638D01*
X044844Y027646D01*
X044879Y027669D01*
X044902Y027703D01*
X04491Y027744D01*
X044902Y027784D01*
X044879Y027818D01*
X044844Y027841D01*
X044804Y027849D01*
D02*
G37*
G36*
X045198Y028046D02*
X045157Y028038D01*
X045123Y028015D01*
X0451Y027981D01*
X045092Y02794D01*
X0451Y0279D01*
X045123Y027866D01*
Y027818D01*
X0451Y027784D01*
X045092Y027744D01*
X0451Y027703D01*
X045123Y027669D01*
X045157Y027646D01*
X045198Y027638D01*
X045238Y027646D01*
X045272Y027669D01*
X045295Y027703D01*
X045303Y027744D01*
X045295Y027784D01*
X045272Y027818D01*
Y027866D01*
X045295Y0279D01*
X045303Y02794D01*
X045295Y027981D01*
X045272Y028015D01*
X045238Y028038D01*
X045198Y028046D01*
D02*
G37*
G36*
X043229Y027849D02*
X043189Y027841D01*
X043154Y027818D01*
X043131Y027784D01*
X043123Y027744D01*
X043131Y027703D01*
X043154Y027669D01*
X043189Y027646D01*
X043229Y027638D01*
X04327Y027646D01*
X043304Y027669D01*
X043327Y027703D01*
X043335Y027744D01*
X043327Y027784D01*
X043304Y027818D01*
X04327Y027841D01*
X043229Y027849D01*
D02*
G37*
G36*
X045394Y027652D02*
X045354Y027644D01*
X04532Y027622D01*
X045297Y027587D01*
X045289Y027547D01*
X045297Y027506D01*
X04532Y027472D01*
X045354Y027449D01*
X045394Y027441D01*
X045435Y027449D01*
X045469Y027472D01*
X045492Y027506D01*
X0455Y027547D01*
X045492Y027587D01*
X045469Y027622D01*
X045435Y027644D01*
X045394Y027652D01*
D02*
G37*
G36*
X045001D02*
X04496Y027644D01*
X044926Y027622D01*
X044903Y027587D01*
X044895Y027547D01*
X044903Y027506D01*
X044926Y027472D01*
X04496Y027449D01*
X045001Y027441D01*
X045041Y027449D01*
X045076Y027472D01*
X045098Y027506D01*
X045107Y027547D01*
X045098Y027587D01*
X045076Y027622D01*
X045041Y027644D01*
X045001Y027652D01*
D02*
G37*
G36*
X044607D02*
X044567Y027644D01*
X044532Y027622D01*
X044509Y027587D01*
X044501Y027547D01*
X044509Y027506D01*
X044532Y027472D01*
X044567Y027449D01*
X044607Y027441D01*
X044648Y027449D01*
X044682Y027472D01*
X044705Y027506D01*
X044713Y027547D01*
X044705Y027587D01*
X044682Y027622D01*
X044648Y027644D01*
X044607Y027652D01*
D02*
G37*
G36*
X042664Y027402D02*
X042623Y027394D01*
X042589Y027371D01*
X042574Y027349D01*
X042549Y027337D01*
X042515Y027336D01*
X042495Y027349D01*
X042454Y027357D01*
X042414Y027349D01*
X04238Y027326D01*
X042357Y027292D01*
X042349Y027252D01*
X042357Y027211D01*
X04238Y027177D01*
X042414Y027154D01*
X042454Y027146D01*
X042495Y027154D01*
X042529Y027177D01*
X042544Y027199D01*
X042569Y027211D01*
X042603Y027212D01*
X042623Y027199D01*
X042664Y027191D01*
X042704Y027199D01*
X042738Y027222D01*
X042761Y027256D01*
X042769Y027296D01*
X042761Y027337D01*
X042738Y027371D01*
X042704Y027394D01*
X042664Y027402D01*
D02*
G37*
G36*
X04503Y027062D02*
X04499Y027054D01*
X044956Y027031D01*
X044899D01*
X044864Y027054D01*
X044824Y027062D01*
X044783Y027054D01*
X044749Y027031D01*
X044745Y027026D01*
X044685D01*
X044682Y027031D01*
X044648Y027054D01*
X044607Y027062D01*
X044567Y027054D01*
X044532Y027031D01*
X044509Y026997D01*
X044501Y026956D01*
X044509Y026916D01*
X044532Y026881D01*
X044567Y026858D01*
X044607Y02685D01*
X044648Y026858D01*
X044682Y026881D01*
X044685Y026887D01*
X044745D01*
X044749Y026881D01*
X044783Y026858D01*
X044824Y02685D01*
X044864Y026858D01*
X044899Y026881D01*
X044956D01*
X04499Y026858D01*
X04503Y02685D01*
X045071Y026858D01*
X045105Y026881D01*
X045128Y026916D01*
X045136Y026956D01*
X045128Y026997D01*
X045105Y027031D01*
X045071Y027054D01*
X04503Y027062D01*
D02*
G37*
G36*
X043382Y027051D02*
X043342Y027043D01*
X043307Y02702D01*
X043284Y026986D01*
X04328Y026962D01*
X043229D01*
X043224Y026986D01*
X043201Y02702D01*
X043167Y027043D01*
X043126Y027051D01*
X043086Y027043D01*
X043051Y02702D01*
X043028Y026986D01*
X04302Y026945D01*
X043028Y026905D01*
X043051Y026871D01*
X043086Y026848D01*
X043126Y02684D01*
X043167Y026848D01*
X043201Y026871D01*
X043224Y026905D01*
X043229Y026929D01*
X04328D01*
X043284Y026905D01*
X043307Y026871D01*
X043342Y026848D01*
X043382Y02684D01*
X043423Y026848D01*
X043457Y026871D01*
X04348Y026905D01*
X043488Y026945D01*
X04348Y026986D01*
X043457Y02702D01*
X043423Y027043D01*
X043382Y027051D01*
D02*
G37*
G36*
X042853Y027079D02*
X042812Y027071D01*
X042778Y027048D01*
X042755Y027014D01*
X042747Y026973D01*
X042755Y026933D01*
X042778Y026898D01*
X042812Y026875D01*
X042853Y026867D01*
X042893Y026875D01*
X042928Y026898D01*
X04295Y026933D01*
X042959Y026973D01*
X04295Y027014D01*
X042928Y027048D01*
X042893Y027071D01*
X042853Y027079D01*
D02*
G37*
G36*
X043646Y027062D02*
X043606Y027053D01*
X043571Y027031D01*
X043548Y026996D01*
X04354Y026956D01*
X043548Y026915D01*
X043571Y026881D01*
X043606Y026858D01*
X043646Y02685D01*
X043687Y026858D01*
X043721Y026881D01*
X043744Y026915D01*
X043752Y026956D01*
X043744Y026996D01*
X043721Y027031D01*
X043687Y027053D01*
X043646Y027062D01*
D02*
G37*
G36*
X043381Y026787D02*
X04334Y026779D01*
X043306Y026756D01*
X043283Y026722D01*
X043278Y026698D01*
X043227D01*
X043223Y026722D01*
X0432Y026756D01*
X043165Y026779D01*
X043125Y026787D01*
X043084Y026779D01*
X04305Y026756D01*
X043027Y026722D01*
X043022Y026698D01*
X042971D01*
X042967Y026721D01*
X042944Y026756D01*
X042909Y026779D01*
X042869Y026787D01*
X042828Y026779D01*
X042794Y026756D01*
X042771Y026721D01*
X042763Y026681D01*
X042771Y026641D01*
X042794Y026606D01*
X042828Y026583D01*
X042869Y026575D01*
X042909Y026583D01*
X042944Y026606D01*
X042967Y026641D01*
X042971Y026664D01*
X043022D01*
X043027Y026641D01*
X04305Y026606D01*
X043084Y026583D01*
X043125Y026575D01*
X043165Y026583D01*
X0432Y026606D01*
X043223Y026641D01*
X043227Y026665D01*
X043278D01*
X043283Y026641D01*
X043306Y026607D01*
X04334Y026584D01*
X043381Y026576D01*
X043421Y026584D01*
X043456Y026607D01*
X043478Y026641D01*
X043487Y026681D01*
X043478Y026722D01*
X043456Y026756D01*
X043421Y026779D01*
X043381Y026787D01*
D02*
G37*
G36*
X043707Y026795D02*
X043666Y026787D01*
X043632Y026764D01*
X043609Y026729D01*
X043601Y026689D01*
X043609Y026648D01*
X043632Y026614D01*
X043666Y026591D01*
X043707Y026583D01*
X043747Y026591D01*
X043781Y026614D01*
X043804Y026648D01*
X043812Y026689D01*
X043804Y026729D01*
X043781Y026764D01*
X043747Y026787D01*
X043707Y026795D01*
D02*
G37*
G36*
X042504Y026738D02*
X042464Y02673D01*
X04243Y026707D01*
X042407Y026672D01*
X042399Y026632D01*
X042407Y026592D01*
X04243Y026557D01*
X042464Y026534D01*
X042504Y026526D01*
X042545Y026534D01*
X042579Y026557D01*
X042602Y026592D01*
X04261Y026632D01*
X042602Y026672D01*
X042579Y026707D01*
X042545Y02673D01*
X042504Y026738D01*
D02*
G37*
G36*
X044353Y026545D02*
X044313Y026537D01*
X044278Y026514D01*
X044255Y026479D01*
X044247Y026439D01*
X044255Y026398D01*
X044278Y026364D01*
X044313Y026341D01*
X044353Y026333D01*
X044394Y026341D01*
X044428Y026364D01*
X044451Y026398D01*
X044459Y026439D01*
X044451Y026479D01*
X044428Y026514D01*
X044394Y026537D01*
X044353Y026545D01*
D02*
G37*
G36*
X045394Y03159D02*
X045354Y031581D01*
X04532Y031559D01*
X045297Y031524D01*
X045289Y031484D01*
X045297Y031443D01*
X04532Y031409D01*
X045354Y031386D01*
X045394Y031378D01*
X045435Y031386D01*
X045469Y031409D01*
X045492Y031443D01*
X0455Y031484D01*
X045492Y031524D01*
X045469Y031559D01*
X045435Y031581D01*
X045394Y03159D01*
D02*
G37*
G36*
X045591Y031393D02*
X045551Y031385D01*
X045517Y031362D01*
X045494Y031327D01*
X045486Y031287D01*
X045494Y031246D01*
X045517Y031212D01*
X045551Y031189D01*
X045591Y031181D01*
X045632Y031189D01*
X045666Y031212D01*
X045689Y031246D01*
X045697Y031287D01*
X045689Y031327D01*
X045666Y031362D01*
X045632Y031385D01*
X045591Y031393D01*
D02*
G37*
%LPD*%
D86*
X041005Y02591D02*
D03*
Y026343D02*
D03*
Y026776D02*
D03*
Y027209D02*
D03*
Y027642D02*
D03*
Y028075D02*
D03*
Y028509D02*
D03*
Y028942D02*
D03*
Y029375D02*
D03*
Y029808D02*
D03*
Y030241D02*
D03*
Y030674D02*
D03*
Y031107D02*
D03*
Y03154D02*
D03*
Y031973D02*
D03*
Y032406D02*
D03*
Y032839D02*
D03*
Y033272D02*
D03*
Y033705D02*
D03*
Y034138D02*
D03*
Y034571D02*
D03*
Y035005D02*
D03*
Y035438D02*
D03*
Y035871D02*
D03*
Y036304D02*
D03*
Y036737D02*
D03*
Y03717D02*
D03*
Y02591D02*
D03*
Y026343D02*
D03*
Y026776D02*
D03*
Y027209D02*
D03*
Y027642D02*
D03*
Y028075D02*
D03*
Y028509D02*
D03*
Y028942D02*
D03*
Y029375D02*
D03*
Y029808D02*
D03*
Y030241D02*
D03*
Y030674D02*
D03*
Y031107D02*
D03*
Y03154D02*
D03*
Y031973D02*
D03*
Y032406D02*
D03*
Y032839D02*
D03*
Y033272D02*
D03*
Y033705D02*
D03*
Y034138D02*
D03*
Y034571D02*
D03*
Y035005D02*
D03*
Y035438D02*
D03*
Y035871D02*
D03*
Y036304D02*
D03*
Y036737D02*
D03*
Y03717D02*
D03*
D87*
X048931Y03007D02*
D03*
X042526Y034084D02*
D03*
X047869Y033837D02*
D03*
X052717Y029503D02*
D03*
X052933Y030133D02*
D03*
X052717Y031088D02*
D03*
Y031718D02*
D03*
X052716Y032057D02*
D03*
X044576Y026177D02*
D03*
X042145Y029299D02*
D03*
X044016Y030501D02*
D03*
X053095Y026794D02*
D03*
X04644Y03693D02*
D03*
X043761Y035882D02*
D03*
X052019Y026569D02*
D03*
X045788Y030898D02*
D03*
X042525Y033915D02*
D03*
X043825Y030106D02*
D03*
X04382Y029318D02*
D03*
X049528Y033084D02*
D03*
X044864Y034182D02*
D03*
X04441Y029515D02*
D03*
X045394Y028137D02*
D03*
X045001D02*
D03*
X045202Y03109D02*
D03*
X044607Y030893D02*
D03*
X045788Y028724D02*
D03*
X04966Y02751D02*
D03*
X049657Y029406D02*
D03*
X04878Y031056D02*
D03*
X045995Y029909D02*
D03*
X045985Y029116D02*
D03*
D88*
X043941Y032703D02*
D03*
X052574Y033785D02*
D03*
X044207Y032697D02*
D03*
X049021Y036387D02*
D03*
X049023Y036161D02*
D03*
M02*
