G04*
G04 #@! TF.GenerationSoftware,Altium Limited,Altium Designer,18.1.6 (161)*
G04*
G04 Layer_Color=128*
%FSTAX24Y24*%
%MOIN*%
G70*
G01*
G75*
%ADD100C,0.0020*%
D100*
X041696Y03769D02*
X041854D01*
X041775Y037611D02*
Y037769D01*
X042129Y03769D02*
X042287D01*
X042208Y037611D02*
Y037769D01*
X042562Y03769D02*
X04272D01*
X042641Y037611D02*
Y037769D01*
X042995Y03769D02*
X043153D01*
X043074Y037611D02*
Y037769D01*
X043428Y03769D02*
X043586D01*
X043507Y037611D02*
Y037769D01*
X043861Y03769D02*
X044019D01*
X04394Y037611D02*
Y037769D01*
X044295Y03769D02*
X044452D01*
X044373Y037611D02*
Y037769D01*
X044728Y03769D02*
X044885D01*
X044806Y037611D02*
Y037769D01*
X045161Y03769D02*
X045318D01*
X045239Y037611D02*
Y037769D01*
X045594Y03769D02*
X045751D01*
X045673Y037611D02*
Y037769D01*
X046027Y03769D02*
X046184D01*
X046106Y037611D02*
Y037769D01*
X04646Y03769D02*
X046617D01*
X046539Y037611D02*
Y037769D01*
X046893Y03769D02*
X04705D01*
X046972Y037611D02*
Y037769D01*
X047326Y03769D02*
X047484D01*
X047405Y037611D02*
Y037769D01*
X047759Y03769D02*
X047917D01*
X047838Y037611D02*
Y037769D01*
X048192Y03769D02*
X04835D01*
X048271Y037611D02*
Y037769D01*
X048625Y03769D02*
X048783D01*
X048704Y037611D02*
Y037769D01*
X049058Y03769D02*
X049216D01*
X049137Y037611D02*
Y037769D01*
X049491Y03769D02*
X049649D01*
X04957Y037611D02*
Y037769D01*
X049924Y03769D02*
X050082D01*
X050003Y037611D02*
Y037769D01*
X050358Y03769D02*
X050515D01*
X050436Y037611D02*
Y037769D01*
X050791Y03769D02*
X050948D01*
X050869Y037611D02*
Y037769D01*
X051224Y03769D02*
X051381D01*
X051302Y037611D02*
Y037769D01*
X053702Y02591D02*
X053899D01*
X0538Y025812D02*
Y026009D01*
X040926Y02591D02*
X041084D01*
X041005Y025831D02*
Y025989D01*
X040926Y026343D02*
X041084D01*
X041005Y026264D02*
Y026422D01*
X040926Y026776D02*
X041084D01*
X041005Y026697D02*
Y026855D01*
X040926Y027209D02*
X041084D01*
X041005Y027131D02*
Y027288D01*
X040926Y027642D02*
X041084D01*
X041005Y027564D02*
Y027721D01*
X040926Y028075D02*
X041084D01*
X041005Y027997D02*
Y028154D01*
X040926Y028509D02*
X041084D01*
X041005Y02843D02*
Y028587D01*
X040926Y028942D02*
X041084D01*
X041005Y028863D02*
Y02902D01*
X040926Y029375D02*
X041084D01*
X041005Y029296D02*
Y029453D01*
X040926Y029808D02*
X041084D01*
X041005Y029729D02*
Y029886D01*
X040926Y030241D02*
X041084D01*
X041005Y030162D02*
Y03032D01*
X040926Y030674D02*
X041084D01*
X041005Y030595D02*
Y030753D01*
X040926Y031107D02*
X041084D01*
X041005Y031028D02*
Y031186D01*
X040926Y03154D02*
X041084D01*
X041005Y031461D02*
Y031619D01*
X040926Y031973D02*
X041084D01*
X041005Y031894D02*
Y032052D01*
X040926Y032406D02*
X041084D01*
X041005Y032327D02*
Y032485D01*
X040926Y032839D02*
X041084D01*
X041005Y03276D02*
Y032918D01*
X040926Y033272D02*
X041084D01*
X041005Y033194D02*
Y033351D01*
X040926Y033705D02*
X041084D01*
X041005Y033627D02*
Y033784D01*
X040926Y034138D02*
X041084D01*
X041005Y03406D02*
Y034217D01*
X040926Y034571D02*
X041084D01*
X041005Y034493D02*
Y03465D01*
X040926Y035005D02*
X041084D01*
X041005Y034926D02*
Y035083D01*
X040926Y035438D02*
X041084D01*
X041005Y035359D02*
Y035516D01*
X040926Y035871D02*
X041084D01*
X041005Y035792D02*
Y035949D01*
X040926Y036304D02*
X041084D01*
X041005Y036225D02*
Y036383D01*
X040926Y036737D02*
X041084D01*
X041005Y036658D02*
Y036816D01*
X040926Y03717D02*
X041084D01*
X041005Y037091D02*
Y037249D01*
X040926Y02591D02*
X041084D01*
X041005Y025831D02*
Y025989D01*
X040926Y026343D02*
X041084D01*
X041005Y026264D02*
Y026422D01*
X040926Y026776D02*
X041084D01*
X041005Y026697D02*
Y026855D01*
X040926Y027209D02*
X041084D01*
X041005Y027131D02*
Y027288D01*
X040926Y027642D02*
X041084D01*
X041005Y027564D02*
Y027721D01*
X040926Y028075D02*
X041084D01*
X041005Y027997D02*
Y028154D01*
X040926Y028509D02*
X041084D01*
X041005Y02843D02*
Y028587D01*
X040926Y028942D02*
X041084D01*
X041005Y028863D02*
Y02902D01*
X040926Y029375D02*
X041084D01*
X041005Y029296D02*
Y029453D01*
X040926Y029808D02*
X041084D01*
X041005Y029729D02*
Y029886D01*
X040926Y030241D02*
X041084D01*
X041005Y030162D02*
Y03032D01*
X040926Y030674D02*
X041084D01*
X041005Y030595D02*
Y030753D01*
X040926Y031107D02*
X041084D01*
X041005Y031028D02*
Y031186D01*
X040926Y03154D02*
X041084D01*
X041005Y031461D02*
Y031619D01*
X040926Y031973D02*
X041084D01*
X041005Y031894D02*
Y032052D01*
X040926Y032406D02*
X041084D01*
X041005Y032327D02*
Y032485D01*
X040926Y032839D02*
X041084D01*
X041005Y03276D02*
Y032918D01*
X040926Y033272D02*
X041084D01*
X041005Y033194D02*
Y033351D01*
X040926Y033705D02*
X041084D01*
X041005Y033627D02*
Y033784D01*
X040926Y034138D02*
X041084D01*
X041005Y03406D02*
Y034217D01*
X040926Y034571D02*
X041084D01*
X041005Y034493D02*
Y03465D01*
X040926Y035005D02*
X041084D01*
X041005Y034926D02*
Y035083D01*
X040926Y035438D02*
X041084D01*
X041005Y035359D02*
Y035516D01*
X040926Y035871D02*
X041084D01*
X041005Y035792D02*
Y035949D01*
X040926Y036304D02*
X041084D01*
X041005Y036225D02*
Y036383D01*
X040926Y036737D02*
X041084D01*
X041005Y036658D02*
Y036816D01*
X040926Y03717D02*
X041084D01*
X041005Y037091D02*
Y037249D01*
X052956Y03769D02*
X053113D01*
X053035Y037611D02*
Y037769D01*
X052523Y03769D02*
X05268D01*
X052602Y037611D02*
Y037769D01*
X05209Y03769D02*
X052247D01*
X052169Y037611D02*
Y037769D01*
X051657Y03769D02*
X051814D01*
X051736Y037611D02*
Y037769D01*
X053721Y03717D02*
X053879D01*
X0538Y037091D02*
Y037249D01*
X053721Y036737D02*
X053879D01*
X0538Y036658D02*
Y036816D01*
X053721Y036304D02*
X053879D01*
X0538Y036225D02*
Y036383D01*
X053721Y035871D02*
X053879D01*
X0538Y035792D02*
Y035949D01*
X053721Y035438D02*
X053879D01*
X0538Y035359D02*
Y035516D01*
X053721Y035005D02*
X053879D01*
X0538Y034926D02*
Y035083D01*
X053721Y034571D02*
X053879D01*
X0538Y034493D02*
Y03465D01*
X053721Y034138D02*
X053879D01*
X0538Y03406D02*
Y034217D01*
X053721Y033705D02*
X053879D01*
X0538Y033627D02*
Y033784D01*
X053721Y033272D02*
X053879D01*
X0538Y033194D02*
Y033351D01*
X053721Y032839D02*
X053879D01*
X0538Y03276D02*
Y032918D01*
X053721Y032406D02*
X053879D01*
X0538Y032327D02*
Y032485D01*
X053721Y031973D02*
X053879D01*
X0538Y031894D02*
Y032052D01*
X053721Y03154D02*
X053879D01*
X0538Y031461D02*
Y031619D01*
X053721Y031107D02*
X053879D01*
X0538Y031028D02*
Y031186D01*
X053721Y030674D02*
X053879D01*
X0538Y030595D02*
Y030753D01*
X053721Y030241D02*
X053879D01*
X0538Y030162D02*
Y03032D01*
X053721Y029808D02*
X053879D01*
X0538Y029729D02*
Y029886D01*
X053721Y029375D02*
X053879D01*
X0538Y029296D02*
Y029453D01*
X053721Y028942D02*
X053879D01*
X0538Y028863D02*
Y02902D01*
X053721Y028509D02*
X053879D01*
X0538Y02843D02*
Y028587D01*
X053721Y028075D02*
X053879D01*
X0538Y027997D02*
Y028154D01*
X053721Y027642D02*
X053879D01*
X0538Y027564D02*
Y027721D01*
X053721Y027209D02*
X053879D01*
X0538Y027131D02*
Y027288D01*
X053721Y026776D02*
X053879D01*
X0538Y026697D02*
Y026855D01*
X053721Y026343D02*
X053879D01*
X0538Y026264D02*
Y026422D01*
X045161Y025407D02*
X045318D01*
X045239Y025328D02*
Y025485D01*
X045594Y025407D02*
X045751D01*
X045673Y025328D02*
Y025485D01*
X046027Y025407D02*
X046184D01*
X046106Y025328D02*
Y025485D01*
X04646Y025407D02*
X046617D01*
X046539Y025328D02*
Y025485D01*
X046893Y025407D02*
X04705D01*
X046972Y025328D02*
Y025485D01*
X047326Y025407D02*
X047484D01*
X047405Y025328D02*
Y025485D01*
X047759Y025407D02*
X047917D01*
X047838Y025328D02*
Y025485D01*
X048192Y025407D02*
X04835D01*
X048271Y025328D02*
Y025485D01*
X048625Y025407D02*
X048783D01*
X048704Y025328D02*
Y025485D01*
X049058Y025407D02*
X049216D01*
X049137Y025328D02*
Y025485D01*
X049491Y025407D02*
X049649D01*
X04957Y025328D02*
Y025485D01*
X049924Y025407D02*
X050082D01*
X050003Y025328D02*
Y025485D01*
X050358Y025407D02*
X050515D01*
X050436Y025328D02*
Y025485D01*
X050791Y025407D02*
X050948D01*
X050869Y025328D02*
Y025485D01*
X051224Y025407D02*
X051381D01*
X051302Y025328D02*
Y025485D01*
X051657Y025407D02*
X051814D01*
X051736Y025328D02*
Y025485D01*
X05209Y025407D02*
X052247D01*
X052169Y025328D02*
Y025485D01*
X052523Y025407D02*
X05268D01*
X052602Y025328D02*
Y025485D01*
X052956Y025407D02*
X053113D01*
X053035Y025328D02*
Y025485D01*
X044728Y025407D02*
X044885D01*
X044806Y025328D02*
Y025485D01*
X044295Y025407D02*
X044452D01*
X044373Y025328D02*
Y025485D01*
X043861Y025407D02*
X044019D01*
X04394Y025328D02*
Y025485D01*
X043428Y025407D02*
X043586D01*
X043507Y025328D02*
Y025485D01*
X042995Y025407D02*
X043153D01*
X043074Y025328D02*
Y025485D01*
X042562Y025407D02*
X04272D01*
X042641Y025328D02*
Y025485D01*
X042129Y025407D02*
X042287D01*
X042208Y025328D02*
Y025485D01*
X041696Y025407D02*
X041854D01*
X041775Y025328D02*
Y025485D01*
X053476Y025597D02*
X053554D01*
X053515Y025557D02*
Y025636D01*
X047018Y032978D02*
X047117D01*
X047068Y032929D02*
Y033028D01*
X052934Y035899D02*
X053013D01*
X052973Y035859D02*
Y035938D01*
X053161Y036411D02*
X05324D01*
X053201Y036372D02*
Y03645D01*
X053161Y036862D02*
X05324D01*
X0532Y036823D02*
Y036901D01*
X053151Y035899D02*
X053229D01*
X05319Y035859D02*
Y035938D01*
X047028Y032468D02*
X047107D01*
X047068Y032429D02*
Y032507D01*
X047225Y032361D02*
X047304D01*
X047265Y032322D02*
Y032401D01*
X05274Y032748D02*
X052819D01*
X05278Y032709D02*
Y032787D01*
X048892Y03007D02*
X048971D01*
X048931Y03003D02*
Y030109D01*
X049147Y030051D02*
X049226D01*
X049187Y030011D02*
Y03009D01*
X046339Y029712D02*
X046418D01*
X046379Y029673D02*
Y029751D01*
X042834Y03596D02*
X042933D01*
X042884Y035911D02*
Y036009D01*
X041796Y035959D02*
X041874D01*
X041835Y03592D02*
Y035999D01*
X041577Y036486D02*
X041656D01*
X041617Y036446D02*
Y036525D01*
X041577Y035977D02*
X041655D01*
X041616Y035937D02*
Y036016D01*
X041767Y034265D02*
X041845D01*
X041806Y034226D02*
Y034304D01*
X041767Y034474D02*
X041845D01*
X041806Y034434D02*
Y034513D01*
X042486Y034084D02*
X042565D01*
X042526Y034044D02*
Y034123D01*
X042496Y034363D02*
X042575D01*
X042535Y034324D02*
Y034403D01*
X042106Y034641D02*
X042184D01*
X042145Y034602D02*
Y034681D01*
X042106Y034818D02*
X042184D01*
X042145Y034778D02*
Y034857D01*
X043032Y033718D02*
X043111D01*
X043072Y033679D02*
Y033757D01*
X04435Y033905D02*
X044429D01*
X044389Y033865D02*
Y033944D01*
X043877Y033612D02*
X043956D01*
X043917Y033573D02*
Y033652D01*
X043727Y033728D02*
X043806D01*
X043766Y033689D02*
Y033767D01*
X043891Y032703D02*
X04399D01*
X043941Y032654D02*
Y032752D01*
X04662Y03344D02*
X046699D01*
X046659Y0334D02*
Y033479D01*
X042465Y026632D02*
X042544D01*
X042504Y026593D02*
Y026671D01*
X042596Y027752D02*
X042674D01*
X042635Y027713D02*
Y027792D01*
X042486Y027941D02*
X042565D01*
X042526Y027902D02*
Y027981D01*
X047057Y026924D02*
X047136D01*
X047097Y026885D02*
Y026964D01*
X043727Y035559D02*
X043806D01*
X043767Y03552D02*
Y035599D01*
X043707Y034608D02*
X043786D01*
X043747Y034569D02*
Y034648D01*
X043709Y034851D02*
X043788D01*
X043748Y034811D02*
Y03489D01*
X043709Y035064D02*
X043788D01*
X043748Y035025D02*
Y035104D01*
X043755Y036445D02*
X043833D01*
X043794Y036406D02*
Y036484D01*
X043918Y0366D02*
X043996D01*
X043957Y03656D02*
Y036639D01*
X04547Y033305D02*
X045569D01*
X045519Y033256D02*
Y033355D01*
X045361Y033842D02*
X04546D01*
X045411Y033793D02*
Y033891D01*
X046108Y035706D02*
X046186D01*
X046147Y035667D02*
Y035745D01*
X045655Y034862D02*
X045734D01*
X045695Y034823D02*
Y034901D01*
X046108Y034862D02*
X046186D01*
X046147Y034823D02*
Y034901D01*
X045655Y035096D02*
X045734D01*
X045695Y035056D02*
Y035135D01*
X045518Y035706D02*
X045597D01*
X045558Y035667D02*
Y035745D01*
X046108Y0351D02*
X046186D01*
X046147Y035061D02*
Y03514D01*
X047669Y033639D02*
X047747D01*
X047708Y0336D02*
Y033678D01*
X04783Y033837D02*
X047909D01*
X047869Y033798D02*
Y033876D01*
X047883Y035219D02*
X047962D01*
X047922Y03518D02*
Y035258D01*
X047938Y034969D02*
X048036D01*
X047987Y03492D02*
Y035019D01*
X046549Y033612D02*
X046628D01*
X046588Y033573D02*
Y033652D01*
X050423Y036764D02*
X050501D01*
X050462Y036724D02*
Y036803D01*
X050423Y036304D02*
X050501D01*
X050462Y036264D02*
Y036343D01*
X050422Y036528D02*
X050501D01*
X050462Y036489D02*
Y036567D01*
X051379Y036846D02*
X051458D01*
X051418Y036807D02*
Y036886D01*
X052437Y034993D02*
X052515D01*
X052476Y034954D02*
Y035033D01*
X052667Y035743D02*
X052766D01*
X052716Y035694D02*
Y035793D01*
X050382Y036018D02*
X050481D01*
X050431Y035969D02*
Y036068D01*
X049302Y033237D02*
X049381D01*
X049342Y033198D02*
Y033277D01*
X049697Y033391D02*
X049776D01*
X049737Y033351D02*
Y03343D01*
X051832Y032885D02*
X05191D01*
X051871Y032846D02*
Y032925D01*
X051832Y032665D02*
X05191D01*
X051871Y032625D02*
Y032704D01*
X05149Y032938D02*
X051569D01*
X051529Y032899D02*
Y032977D01*
X050277Y034813D02*
X050356D01*
X050316Y034773D02*
Y034852D01*
X050277Y034606D02*
X050356D01*
X050316Y034566D02*
Y034645D01*
X049098Y035234D02*
X049176D01*
X049137Y035194D02*
Y035273D01*
X048891Y035234D02*
X048969D01*
X04893Y035194D02*
Y035273D01*
X048891Y035438D02*
X04897D01*
X048931Y035398D02*
Y035477D01*
X049098Y035438D02*
X049177D01*
X049138Y035398D02*
Y035477D01*
X051667Y033391D02*
X051745D01*
X051706Y033351D02*
Y03343D01*
X048891Y029397D02*
X048969D01*
X04893Y029357D02*
Y029436D01*
X046536Y02794D02*
X046615D01*
X046576Y027901D02*
Y02798D01*
X042813Y026973D02*
X042892D01*
X042853Y026934D02*
Y027013D01*
X044569Y029909D02*
X044648D01*
X044608Y02987D02*
Y029948D01*
X045149Y031287D02*
X045228D01*
X045189Y031248D02*
Y031326D01*
X048847Y034769D02*
X048926D01*
X048886Y034729D02*
Y034808D01*
X048847Y034491D02*
X048926D01*
X048886Y034451D02*
Y03453D01*
X052337Y031891D02*
X052415D01*
X052376Y031852D02*
Y031931D01*
X052188Y026569D02*
X052267D01*
X052227Y02653D02*
Y026609D01*
X052451Y027383D02*
X05253D01*
X052491Y027344D02*
Y027423D01*
X052447Y027176D02*
X052526D01*
X052486Y027136D02*
Y027215D01*
X052631Y028335D02*
X052709D01*
X05267Y028295D02*
Y028374D01*
X052678Y029295D02*
X052757D01*
X052717Y029255D02*
Y029334D01*
X052678Y029503D02*
X052757D01*
X052717Y029464D02*
Y029543D01*
X052886Y029705D02*
X052965D01*
X052925Y029666D02*
Y029744D01*
X052346Y029826D02*
X052425D01*
X052386Y029786D02*
Y029865D01*
X052893Y029924D02*
X052972D01*
X052933Y029885D02*
Y029963D01*
X052893Y030133D02*
X052972D01*
X052933Y030093D02*
Y030172D01*
X052933Y031695D02*
X053011D01*
X052972Y031655D02*
Y031734D01*
X052678Y030879D02*
X052757D01*
X052717Y03084D02*
Y030919D01*
X052678Y031088D02*
X052757D01*
X052717Y031049D02*
Y031127D01*
X052363Y032445D02*
X052442D01*
X052403Y032406D02*
Y032485D01*
X052365Y032686D02*
X052443D01*
X052404Y032646D02*
Y032725D01*
X052678Y031509D02*
X052757D01*
X052717Y03147D02*
Y031549D01*
X052678Y031718D02*
X052757D01*
X052717Y031678D02*
Y031757D01*
X052337Y031285D02*
X052415D01*
X052376Y031245D02*
Y031324D01*
X052677Y032057D02*
X052756D01*
X052716Y032018D02*
Y032097D01*
X052677Y032266D02*
X052756D01*
X052716Y032227D02*
Y032305D01*
X052525Y033785D02*
X052623D01*
X052574Y033736D02*
Y033834D01*
X053046Y033794D02*
X053144D01*
X053095Y033745D02*
Y033843D01*
X046093Y032139D02*
X046172D01*
X046133Y0321D02*
Y032178D01*
X0463Y03205D02*
X046379D01*
X04634Y032011D02*
Y03209D01*
X0457Y032306D02*
X045778D01*
X045739Y032267D02*
Y032346D01*
X045906Y032306D02*
X045985D01*
X045946Y032267D02*
Y032346D01*
X044613Y036176D02*
X044692D01*
X044653Y036137D02*
Y036215D01*
X046497Y032218D02*
X046576D01*
X046536Y032178D02*
Y032257D01*
X04633Y032355D02*
X046408D01*
X046369Y032316D02*
Y032395D01*
X046861Y032355D02*
X04694D01*
X046901Y032316D02*
Y032395D01*
X046635Y032355D02*
X046714D01*
X046674Y032316D02*
Y032395D01*
X046536Y03109D02*
X046615D01*
X046576Y031051D02*
Y031129D01*
X046349Y031287D02*
X046427D01*
X046388Y031248D02*
Y031326D01*
X04536Y03204D02*
X045439D01*
X045399Y032D02*
Y032079D01*
X045556Y032034D02*
X045635D01*
X045596Y031994D02*
Y032073D01*
X046926Y031484D02*
X047005D01*
X046966Y031444D02*
Y031523D01*
X046349Y031484D02*
X046427D01*
X046388Y031444D02*
Y031523D01*
X047127Y031493D02*
X047205D01*
X047166Y031454D02*
Y031532D01*
X046733Y031287D02*
X046812D01*
X046772Y031248D02*
Y031326D01*
X045946Y030893D02*
X046024D01*
X045985Y030854D02*
Y030933D01*
X045951Y03109D02*
X04603D01*
X04599Y031051D02*
Y031129D01*
X046735Y030893D02*
X046813D01*
X046774Y030854D02*
Y030933D01*
X04693Y03109D02*
X047009D01*
X046969Y031051D02*
Y031129D01*
X049629Y030678D02*
X049707D01*
X049668Y030639D02*
Y030718D01*
X052187Y028568D02*
X052266D01*
X052227Y028528D02*
Y028607D01*
X049432Y033391D02*
X049511D01*
X049472Y033351D02*
Y03343D01*
X048521Y02931D02*
X048599D01*
X04856Y02927D02*
Y029349D01*
X048526Y02909D02*
X048604D01*
X048565Y02905D02*
Y029129D01*
X052422Y02895D02*
X052501D01*
X052462Y02891D02*
Y028989D01*
X052422Y028714D02*
X052501D01*
X052462Y028674D02*
Y028753D01*
X049799Y037031D02*
X049878D01*
X049838Y036992D02*
Y03707D01*
X047831Y036425D02*
X047909D01*
X04787Y036385D02*
Y036464D01*
X045511Y032807D02*
X045589D01*
X04555Y032767D02*
Y032846D01*
X049166Y027596D02*
X049245D01*
X049206Y027556D02*
Y027635D01*
X050232Y027202D02*
X050311D01*
X050271Y027163D02*
Y027241D01*
X048876Y027586D02*
X048955D01*
X048915Y027546D02*
Y027625D01*
X050972Y029965D02*
X051051D01*
X051011Y029926D02*
Y030005D01*
X050709Y030485D02*
X050788D01*
X050749Y030445D02*
Y030524D01*
X049117Y032117D02*
X049196D01*
X049157Y032078D02*
Y032157D01*
X050888Y032061D02*
X050966D01*
X050927Y032022D02*
Y032101D01*
X050539Y031963D02*
X050618D01*
X050579Y031924D02*
Y032003D01*
X049143Y03177D02*
X049222D01*
X049183Y031731D02*
Y031809D01*
X050822Y03239D02*
X050901D01*
X050861Y03235D02*
Y032429D01*
X048138Y028086D02*
X048217D01*
X048178Y028047D02*
Y028126D01*
X051112Y029657D02*
X051191D01*
X051151Y029618D02*
Y029697D01*
X048046Y028507D02*
X048125D01*
X048085Y028467D02*
Y028546D01*
X050358Y027363D02*
X050436D01*
X050397Y027323D02*
Y027402D01*
X047984Y028289D02*
X048063D01*
X048024Y028249D02*
Y028328D01*
X047128Y029327D02*
X047207D01*
X047168Y029287D02*
Y029366D01*
X048487Y028647D02*
X048566D01*
X048527Y028608D02*
Y028686D01*
X050249Y029407D02*
X050328D01*
X050289Y029368D02*
Y029446D01*
X047757Y028505D02*
X047836D01*
X047796Y028466D02*
Y028545D01*
X04788Y02869D02*
X047959D01*
X047919Y028651D02*
Y02873D01*
X047708Y029556D02*
X047787D01*
X047747Y029517D02*
Y029595D01*
X047889Y029473D02*
X047967D01*
X047928Y029433D02*
Y029512D01*
X047894Y029672D02*
X047973D01*
X047934Y029633D02*
Y029712D01*
X048195Y029592D02*
X048273D01*
X048234Y029553D02*
Y029632D01*
X048477Y029495D02*
X048556D01*
X048516Y029456D02*
Y029535D01*
X051078Y028504D02*
X051157D01*
X051118Y028464D02*
Y028543D01*
X050306Y028348D02*
X050385D01*
X050345Y028308D02*
Y028387D01*
X050323Y028641D02*
X050402D01*
X050363Y028601D02*
Y02868D01*
X051076Y027742D02*
X051155D01*
X051116Y027703D02*
Y027782D01*
X051077Y027964D02*
X051156D01*
X051116Y027925D02*
Y028004D01*
X048095Y028881D02*
X048174D01*
X048134Y028841D02*
Y02892D01*
X051502Y027527D02*
X051581D01*
X051541Y027488D02*
Y027567D01*
X051123Y028977D02*
X051202D01*
X051163Y028938D02*
Y029016D01*
X051829Y028462D02*
X051908D01*
X051869Y028423D02*
Y028502D01*
X051842Y027855D02*
X05192D01*
X051881Y027815D02*
Y027894D01*
X051516Y029414D02*
X051595D01*
X051556Y029375D02*
Y029454D01*
X051509Y029092D02*
X051588D01*
X051548Y029053D02*
Y029132D01*
X050405Y030202D02*
X050483D01*
X050444Y030163D02*
Y030242D01*
X050259Y030364D02*
X050337D01*
X050298Y030324D02*
Y030403D01*
X048551Y02793D02*
X048629D01*
X04859Y02789D02*
Y027969D01*
X04855Y02772D02*
X048629D01*
X04859Y027681D02*
Y02776D01*
X051126Y030298D02*
X051205D01*
X051166Y030258D02*
Y030337D01*
X051509Y030982D02*
X051588D01*
X051548Y030943D02*
Y031021D01*
X051194Y031927D02*
X051273D01*
X051233Y031887D02*
Y031966D01*
X048606Y030477D02*
X048685D01*
X048645Y030438D02*
Y030517D01*
X051194Y031612D02*
X051273D01*
X051233Y031572D02*
Y031651D01*
X048606Y030682D02*
X048685D01*
X048645Y030643D02*
Y030722D01*
X047749Y031332D02*
X047828D01*
X047788Y031292D02*
Y031371D01*
X048606Y030887D02*
X048685D01*
X048645Y030848D02*
Y030926D01*
X051828Y031614D02*
X051907D01*
X051867Y031574D02*
Y031653D01*
X049934Y030364D02*
X050013D01*
X049974Y030324D02*
Y030403D01*
X046931Y030696D02*
X04701D01*
X046971Y030657D02*
Y030736D01*
X047125Y030696D02*
X047204D01*
X047165Y030657D02*
Y030736D01*
X046929Y030502D02*
X047007D01*
X046968Y030463D02*
Y030542D01*
X051137Y032229D02*
X051216D01*
X051177Y03219D02*
Y032269D01*
X051507Y031931D02*
X051586D01*
X051547Y031891D02*
Y03197D01*
X044158Y032697D02*
X044257D01*
X044207Y032647D02*
Y032746D01*
X044537Y026177D02*
X044616D01*
X044576Y026137D02*
Y026216D01*
X044314Y026439D02*
X044392D01*
X044353Y026399D02*
Y026478D01*
X052885Y026083D02*
X052963D01*
X052924Y026044D02*
Y026123D01*
X053006Y026245D02*
X053085D01*
X053045Y026205D02*
Y026284D01*
X052619Y026248D02*
X052698D01*
X052658Y026208D02*
Y026287D01*
X044566Y028133D02*
X044645D01*
X044605Y028093D02*
Y028172D01*
X042106Y029299D02*
X042184D01*
X042145Y02926D02*
Y029339D01*
X042245Y029451D02*
X042324D01*
X042284Y029412D02*
Y02949D01*
X042052Y031605D02*
X042131D01*
X042092Y031566D02*
Y031645D01*
X043941Y03149D02*
X04402D01*
X04398Y031451D02*
Y031529D01*
X042376Y031445D02*
X042455D01*
X042415Y031405D02*
Y031484D01*
X042568Y032766D02*
X042647D01*
X042607Y032727D02*
Y032806D01*
X042423Y032938D02*
X042502D01*
X042463Y032899D02*
Y032978D01*
X042412Y031842D02*
X042491D01*
X042452Y031802D02*
Y031881D01*
X042169Y03188D02*
X042247D01*
X042208Y03184D02*
Y031919D01*
X04401Y032022D02*
X044089D01*
X044049Y031982D02*
Y032061D01*
X043417Y03203D02*
X043496D01*
X043457Y031991D02*
Y03207D01*
X043627Y03203D02*
X043706D01*
X043666Y031991D02*
Y032069D01*
X04319Y031484D02*
X043268D01*
X043229Y031444D02*
Y031523D01*
X043387Y031484D02*
X043465D01*
X043426Y031444D02*
Y031523D01*
X042662Y031768D02*
X042741D01*
X042702Y031728D02*
Y031807D01*
X043977Y031287D02*
X044056D01*
X044016Y031248D02*
Y031326D01*
X043584Y030323D02*
X043663D01*
X043623Y030284D02*
Y030363D01*
X043977Y030501D02*
X044056D01*
X044016Y030461D02*
Y03054D01*
X043667Y026689D02*
X043746D01*
X043707Y026649D02*
Y026728D01*
X043341Y026681D02*
X04342D01*
X043381Y026642D02*
Y026721D01*
X04283Y026681D02*
X042908D01*
X042869Y026642D02*
Y02672D01*
X043087Y026945D02*
X043166D01*
X043126Y026906D02*
Y026985D01*
X043343Y026945D02*
X043421D01*
X043382Y026906D02*
Y026985D01*
X043085Y026681D02*
X043164D01*
X043125Y026642D02*
Y026721D01*
X043607Y026956D02*
X043686D01*
X043646Y026916D02*
Y026995D01*
X044568Y027547D02*
X044646D01*
X044607Y027507D02*
Y027586D01*
X04319Y027744D02*
X043268D01*
X043229Y027704D02*
Y027783D01*
X043387Y028334D02*
X043465D01*
X043426Y028295D02*
Y028373D01*
X04319Y028334D02*
X043268D01*
X043229Y028295D02*
Y028373D01*
X043583Y028925D02*
X043662D01*
X043623Y028885D02*
Y028964D01*
X043387Y029122D02*
X043465D01*
X043426Y029082D02*
Y029161D01*
X053056Y026794D02*
X053135D01*
X053095Y026755D02*
Y026834D01*
X04687Y03693D02*
X046949D01*
X04691Y03689D02*
Y036969D01*
X045158Y027744D02*
X045237D01*
X045198Y027704D02*
Y027783D01*
X044784Y026956D02*
X044863D01*
X044824Y026917D02*
Y026996D01*
X045744Y02794D02*
X045823D01*
X045784Y027901D02*
Y02798D01*
X045355Y031484D02*
X045434D01*
X045394Y031444D02*
Y031523D01*
X045749Y031484D02*
X045828D01*
X045788Y031444D02*
Y031523D01*
X045552Y031287D02*
X045631D01*
X045591Y031248D02*
Y031326D01*
X051574Y03703D02*
X051653D01*
X051613Y036991D02*
Y037069D01*
X051574Y036846D02*
X051653D01*
X051613Y036807D02*
Y036886D01*
X049413Y036794D02*
X049492D01*
X049453Y036754D02*
Y036833D01*
X048972Y036387D02*
X04907D01*
X049021Y036338D02*
Y036437D01*
X05192Y036037D02*
X051998D01*
X051959Y035998D02*
Y036077D01*
X051743Y036036D02*
X051822D01*
X051782Y035997D02*
Y036076D01*
X049939Y027198D02*
X050018D01*
X049978Y027158D02*
Y027237D01*
X048857Y031712D02*
X048936D01*
X048896Y031673D02*
Y031752D01*
X042814Y035423D02*
X042913D01*
X042863Y035374D02*
Y035472D01*
X042561Y035234D02*
X04266D01*
X042611Y035184D02*
Y035283D01*
X052043Y032665D02*
X052122D01*
X052082Y032625D02*
Y032704D01*
X052599Y034993D02*
X052677D01*
X052638Y034954D02*
Y035033D01*
X051955Y034451D02*
X052053D01*
X052004Y034401D02*
Y0345D01*
X052508Y034451D02*
X052607D01*
X052558Y034401D02*
Y0345D01*
X052799Y035396D02*
X052897D01*
X052848Y035346D02*
Y035445D01*
X051375Y035743D02*
X051473D01*
X051424Y035694D02*
Y035793D01*
X051824Y028777D02*
X051903D01*
X051863Y028738D02*
Y028817D01*
X049934Y029407D02*
X050013D01*
X049974Y029368D02*
Y029446D01*
X049036Y028986D02*
X049115D01*
X049076Y028946D02*
Y029025D01*
X051509Y028462D02*
X051588D01*
X051548Y028423D02*
Y028502D01*
X046162Y033531D02*
X046241D01*
X046202Y033491D02*
Y03357D01*
X048974Y036161D02*
X049073D01*
X049023Y036111D02*
Y03621D01*
X049088Y035813D02*
X049187D01*
X049138Y035764D02*
Y035863D01*
X048785Y036891D02*
X048864D01*
X048824Y036851D02*
Y03693D01*
X045838Y036381D02*
X045936D01*
X045887Y036332D02*
Y03643D01*
X046401Y03693D02*
X046479D01*
X04644Y036891D02*
Y03697D01*
X051056Y036626D02*
X051135D01*
X051095Y036587D02*
Y036666D01*
X047996Y036903D02*
X048075D01*
X048036Y036863D02*
Y036942D01*
X0462Y036381D02*
X046279D01*
X04624Y036342D02*
Y03642D01*
X047298Y03693D02*
X047376D01*
X047337Y03689D02*
Y036969D01*
X047094Y03693D02*
X047173D01*
X047134Y036891D02*
Y03697D01*
X047829Y035643D02*
X047908D01*
X047868Y035603D02*
Y035682D01*
X047678Y027627D02*
X047756D01*
X047717Y027588D02*
Y027666D01*
X044686Y035913D02*
X044765D01*
X044725Y035874D02*
Y035953D01*
X043721Y035882D02*
X0438D01*
X043761Y035842D02*
Y035921D01*
X043354Y034663D02*
X043452D01*
X043403Y034614D02*
Y034712D01*
X043468Y035289D02*
X043547D01*
X043508Y035249D02*
Y035328D01*
X042491Y036588D02*
X04259D01*
X04254Y036539D02*
Y036637D01*
X044568Y028729D02*
X044646D01*
X044607Y02869D02*
Y028769D01*
X044568Y02794D02*
X044646D01*
X044607Y027901D02*
Y02798D01*
X044174Y027547D02*
X044253D01*
X044213Y027507D02*
Y027586D01*
X042415Y027252D02*
X042494D01*
X042454Y027212D02*
Y027291D01*
X042501Y028537D02*
X04258D01*
X04254Y028497D02*
Y028576D01*
X042559Y030098D02*
X042638D01*
X042598Y030058D02*
Y030137D01*
X042412Y029914D02*
X042491D01*
X042452Y029875D02*
Y029954D01*
X042624Y027296D02*
X042703D01*
X042664Y027257D02*
Y027336D01*
X046339Y028137D02*
X046418D01*
X046379Y028098D02*
Y028177D01*
X045945Y028729D02*
X046023D01*
X045984Y02869D02*
Y028768D01*
X046536Y028334D02*
X046615D01*
X046576Y028295D02*
Y028373D01*
X046536Y028729D02*
X046615D01*
X046576Y02869D02*
Y028769D01*
X047711Y030659D02*
X047789D01*
X04775Y030619D02*
Y030698D01*
X048005Y031647D02*
X048084D01*
X048044Y031607D02*
Y031686D01*
X051979Y026569D02*
X052058D01*
X052019Y02653D02*
Y026609D01*
X045552Y028339D02*
X045631D01*
X045591Y028299D02*
Y028378D01*
X045158Y02794D02*
X045237D01*
X045198Y027901D02*
Y02798D01*
X044991Y026956D02*
X04507D01*
X04503Y026917D02*
Y026996D01*
X048426Y031484D02*
X048505D01*
X048466Y031444D02*
Y031523D01*
X048261Y031942D02*
X048339D01*
X0483Y031903D02*
Y031981D01*
X047138Y030502D02*
X047217D01*
X047177Y030462D02*
Y030541D01*
X047127Y031278D02*
X047205D01*
X047166Y031238D02*
Y031317D01*
X046338Y030499D02*
X046417D01*
X046377Y03046D02*
Y030539D01*
X047749Y031647D02*
X047828D01*
X047788Y031607D02*
Y031686D01*
X048261Y031312D02*
X048339D01*
X0483Y031273D02*
Y031351D01*
X048005Y031312D02*
X048084D01*
X048044Y031273D02*
Y031351D01*
X047749Y031942D02*
X047828D01*
X047788Y031902D02*
Y031981D01*
X04818Y032454D02*
X048259D01*
X048219Y032414D02*
Y032493D01*
X048005Y031942D02*
X048084D01*
X048044Y031902D02*
Y031981D01*
X047308Y034432D02*
X047406D01*
X047357Y034383D02*
Y034481D01*
X045158Y032074D02*
X045237D01*
X045198Y032035D02*
Y032114D01*
X044903Y032067D02*
X044981D01*
X044942Y032027D02*
Y032106D01*
X047526Y026676D02*
X047604D01*
X047565Y026637D02*
Y026716D01*
X047289Y026676D02*
X047368D01*
X047329Y026637D02*
Y026716D01*
X047053Y026676D02*
X047132D01*
X047092Y026637D02*
Y026716D01*
X047127Y027547D02*
X047205D01*
X047166Y027507D02*
Y027586D01*
X046339Y028531D02*
X046418D01*
X046379Y028492D02*
Y02857D01*
X045847Y026745D02*
X045926D01*
X045887Y026706D02*
Y026785D01*
X046103Y026981D02*
X046182D01*
X046143Y026942D02*
Y027021D01*
X046359Y026981D02*
X046438D01*
X046399Y026942D02*
Y027021D01*
X045946Y02794D02*
X046024D01*
X045985Y027901D02*
Y02798D01*
X046142Y028334D02*
X046221D01*
X046182Y028295D02*
Y028373D01*
X04693Y02794D02*
X047009D01*
X046969Y027901D02*
Y02798D01*
X047127Y027744D02*
X047205D01*
X047166Y027704D02*
Y027783D01*
X04693Y027547D02*
X047009D01*
X046969Y027507D02*
Y027586D01*
X046103Y026745D02*
X046182D01*
X046143Y026706D02*
Y026785D01*
X046359Y026745D02*
X046438D01*
X046399Y026706D02*
Y026785D01*
X045847Y026981D02*
X045926D01*
X045887Y026942D02*
Y027021D01*
X045592Y026981D02*
X04567D01*
X045631Y026942D02*
Y027021D01*
X045592Y026745D02*
X04567D01*
X045631Y026706D02*
Y026784D01*
X046142Y027547D02*
X046221D01*
X046182Y027507D02*
Y027586D01*
X045749Y027547D02*
X045828D01*
X045788Y027507D02*
Y027586D01*
X045355Y027547D02*
X045434D01*
X045394Y027507D02*
Y027586D01*
X044961Y027547D02*
X04504D01*
X045001Y027507D02*
Y027586D01*
X044765Y027744D02*
X044843D01*
X044804Y027704D02*
Y027783D01*
X045552Y027744D02*
X045631D01*
X045591Y027704D02*
Y027783D01*
X044568Y026956D02*
X044646D01*
X044607Y026917D02*
Y026996D01*
X043977Y027744D02*
X044056D01*
X044016Y027704D02*
Y027783D01*
X044174Y027744D02*
X044253D01*
X044213Y027704D02*
Y027783D01*
X04378Y028925D02*
X043859D01*
X04382Y028885D02*
Y028964D01*
X04378Y028334D02*
X043859D01*
X04382Y028295D02*
Y028373D01*
X043977Y027547D02*
X044056D01*
X044016Y027507D02*
Y027586D01*
X043387Y02794D02*
X043465D01*
X043426Y027901D02*
Y02798D01*
X043583Y028137D02*
X043662D01*
X043623Y028098D02*
Y028177D01*
X043387Y028531D02*
X043465D01*
X043426Y028492D02*
Y02857D01*
X043583Y028728D02*
X043662D01*
X043623Y028688D02*
Y028767D01*
X042501Y028774D02*
X04258D01*
X04254Y028735D02*
Y028814D01*
X042501Y028989D02*
X04258D01*
X04254Y02895D02*
Y029029D01*
X042496Y029222D02*
X042575D01*
X042535Y029183D02*
Y029262D01*
X04319Y029712D02*
X043268D01*
X043229Y029673D02*
Y029751D01*
X04319Y029318D02*
X043268D01*
X043229Y029279D02*
Y029358D01*
X043387Y029913D02*
X043465D01*
X043426Y029873D02*
Y029952D01*
X04319Y030109D02*
X043268D01*
X043229Y03007D02*
Y030149D01*
X043583Y030109D02*
X043662D01*
X043623Y03007D02*
Y030149D01*
X043587Y029515D02*
X043666D01*
X043627Y029476D02*
Y029555D01*
X04339Y029515D02*
X043469D01*
X04343Y029476D02*
Y029555D01*
X04818Y03222D02*
X048259D01*
X048219Y032181D02*
Y03226D01*
X046536Y030695D02*
X046615D01*
X046576Y030655D02*
Y030734D01*
X046339Y030892D02*
X046418D01*
X046379Y030852D02*
Y030931D01*
X046142Y030696D02*
X046221D01*
X046182Y030657D02*
Y030736D01*
X045749Y03109D02*
X045828D01*
X045788Y031051D02*
Y031129D01*
X045749Y030898D02*
X045828D01*
X045788Y030858D02*
Y030937D01*
X044175Y031287D02*
X044254D01*
X044215Y031248D02*
Y031326D01*
X044475Y032074D02*
X044554D01*
X044515Y032035D02*
Y032114D01*
X044174Y031484D02*
X044253D01*
X044213Y031444D02*
Y031523D01*
X044574Y031484D02*
X044652D01*
X044613Y031444D02*
Y031523D01*
X044766Y031287D02*
X044845D01*
X044805Y031248D02*
Y031326D01*
X044371Y03109D02*
X04445D01*
X04441Y031051D02*
Y031129D01*
X043468Y035886D02*
X043547D01*
X043508Y035846D02*
Y035925D01*
X042485Y033915D02*
X042564D01*
X042525Y033876D02*
Y033955D01*
X043785Y030106D02*
X043864D01*
X043825Y030066D02*
Y030145D01*
X041628Y035303D02*
X041707D01*
X041668Y035264D02*
Y035343D01*
X052044Y032885D02*
X052123D01*
X052084Y032846D02*
Y032925D01*
X04378Y029318D02*
X043859D01*
X04382Y029279D02*
Y029358D01*
X049177Y033394D02*
X049255D01*
X049216Y033354D02*
Y033433D01*
X049489Y033084D02*
X049568D01*
X049528Y033044D02*
Y033123D01*
X042589Y035706D02*
X042688D01*
X042639Y035657D02*
Y035755D01*
X04434Y034503D02*
X044439D01*
X044389Y034454D02*
Y034552D01*
X04434Y034851D02*
X044439D01*
X044389Y034801D02*
Y0349D01*
X04434Y035198D02*
X044439D01*
X044389Y035149D02*
Y035248D01*
X047041Y034156D02*
X047139D01*
X04709Y034106D02*
Y034205D01*
X044825Y034182D02*
X044903D01*
X044864Y034142D02*
Y034221D01*
X044961Y030884D02*
X04504D01*
X045001Y030845D02*
Y030924D01*
X045352Y03089D02*
X045431D01*
X045391Y030851D02*
Y03093D01*
X045552Y030696D02*
X045631D01*
X045591Y030657D02*
Y030736D01*
X045946Y02813D02*
X046024D01*
X045985Y02809D02*
Y028169D01*
X045749Y029122D02*
X045828D01*
X045788Y029082D02*
Y029161D01*
X044371Y029515D02*
X04445D01*
X04441Y029476D02*
Y029555D01*
X045355Y028531D02*
X045434D01*
X045394Y028492D02*
Y02857D01*
X045355Y028137D02*
X045434D01*
X045394Y028098D02*
Y028177D01*
X044961Y028137D02*
X04504D01*
X045001Y028098D02*
Y028177D01*
X045163Y03109D02*
X045241D01*
X045202Y031051D02*
Y031129D01*
X044568Y030893D02*
X044646D01*
X044607Y030854D02*
Y030933D01*
X045749Y028724D02*
X045828D01*
X045788Y028684D02*
Y028763D01*
X044568Y030303D02*
X044646D01*
X044607Y030263D02*
Y030342D01*
X044961Y030496D02*
X04504D01*
X045001Y030456D02*
Y030535D01*
X044568Y029508D02*
X044646D01*
X044607Y029469D02*
Y029548D01*
X044568Y029122D02*
X044646D01*
X044607Y029082D02*
Y029161D01*
X043978Y028532D02*
X044057D01*
X044018Y028493D02*
Y028571D01*
X04378Y028728D02*
X043859D01*
X04382Y028688D02*
Y028767D01*
X045753Y02813D02*
X045832D01*
X045792Y02809D02*
Y028169D01*
X046339Y029914D02*
X046418D01*
X046379Y029875D02*
Y029954D01*
X044175Y028336D02*
X044254D01*
X044215Y028296D02*
Y028375D01*
X045946Y030303D02*
X046024D01*
X045985Y030263D02*
Y030342D01*
X046526Y030303D02*
X046605D01*
X046566Y030263D02*
Y030342D01*
X04379Y029712D02*
X043869D01*
X043829Y029673D02*
Y029751D01*
X044371Y030892D02*
X04445D01*
X04441Y030852D02*
Y030931D01*
X043977Y029122D02*
X044056D01*
X044016Y029082D02*
Y029161D01*
X044765Y028334D02*
X044843D01*
X044804Y028295D02*
Y028373D01*
X046536Y030106D02*
X046615D01*
X046576Y030066D02*
Y030145D01*
X046733Y030106D02*
X046812D01*
X046772Y030066D02*
Y030145D01*
X046723Y030303D02*
X046802D01*
X046763Y030263D02*
Y030342D01*
X049621Y02751D02*
X049699D01*
X04966Y027471D02*
Y027549D01*
X049618Y029406D02*
X049696D01*
X049657Y029366D02*
Y029445D01*
X05038Y028931D02*
X050458D01*
X050419Y028891D02*
Y02897D01*
X049939Y02751D02*
X050018D01*
X049978Y027471D02*
Y027549D01*
X048741Y031056D02*
X04882D01*
X04878Y031017D02*
Y031096D01*
X046142Y029318D02*
X046221D01*
X046182Y029279D02*
Y029358D01*
X045955Y029909D02*
X046034D01*
X045995Y02987D02*
Y029948D01*
X045946Y029116D02*
X046024D01*
X045985Y029077D02*
Y029156D01*
X046142Y028931D02*
X046221D01*
X046182Y028891D02*
Y02897D01*
X046339Y029508D02*
X046418D01*
X046379Y029469D02*
Y029548D01*
X046342Y029122D02*
X04642D01*
X046381Y029082D02*
Y029161D01*
X046536Y028925D02*
X046615D01*
X046576Y028885D02*
Y028964D01*
X046733Y028925D02*
X046812D01*
X046772Y028885D02*
Y028964D01*
X04693Y029122D02*
X047009D01*
X046969Y029082D02*
Y029161D01*
X046733Y028728D02*
X046812D01*
X046772Y028688D02*
Y028767D01*
X045344Y030111D02*
X045423D01*
X045383Y030072D02*
Y03015D01*
X045552Y030102D02*
X045631D01*
X045591Y030063D02*
Y030141D01*
X045749Y029909D02*
X045828D01*
X045788Y02987D02*
Y029948D01*
X045749Y030305D02*
X045828D01*
X045788Y030265D02*
Y030344D01*
X045355Y030496D02*
X045434D01*
X045394Y030456D02*
Y030535D01*
X044961Y029318D02*
X04504D01*
X045001Y029279D02*
Y029358D01*
X044961Y029712D02*
X04504D01*
X045001Y029673D02*
Y029751D01*
X045157Y029122D02*
X045236D01*
X045197Y029082D02*
Y029161D01*
X044765Y029711D02*
X044843D01*
X044804Y029671D02*
Y02975D01*
X045552Y029318D02*
X045631D01*
X045591Y029279D02*
Y029358D01*
X045355Y029712D02*
X045434D01*
X045394Y029673D02*
Y029751D01*
X044371Y030293D02*
X04445D01*
X04441Y030253D02*
Y030332D01*
X044178Y030692D02*
X044257D01*
X044218Y030653D02*
Y030731D01*
X044765Y030693D02*
X044843D01*
X044804Y030654D02*
Y030733D01*
X043977Y029909D02*
X044056D01*
X044016Y02987D02*
Y029948D01*
X044761Y030106D02*
X04484D01*
X0448Y030066D02*
Y030145D01*
X045158Y030303D02*
X045237D01*
X045198Y030263D02*
Y030342D01*
X045749Y029515D02*
X045828D01*
X045788Y029476D02*
Y029555D01*
X045552Y029722D02*
X045631D01*
X045591Y029682D02*
Y029761D01*
X044961Y028925D02*
X04504D01*
X045001Y028885D02*
Y028964D01*
X045355Y028925D02*
X045434D01*
X045394Y028885D02*
Y028964D01*
X044765Y029317D02*
X044843D01*
X044804Y029278D02*
Y029356D01*
X044371Y029908D02*
X04445D01*
X04441Y029868D02*
Y029947D01*
X044766Y028728D02*
X044845D01*
X044805Y028688D02*
Y028767D01*
X044371Y028729D02*
X04445D01*
X04441Y02869D02*
Y028769D01*
X045946Y029515D02*
X046024D01*
X045985Y029476D02*
Y029555D01*
X047128Y029122D02*
X047207D01*
X047168Y029082D02*
Y029161D01*
X046723Y029515D02*
X046802D01*
X046763Y029476D02*
Y029555D01*
X046536Y029318D02*
X046615D01*
X046576Y029279D02*
Y029358D01*
X049612Y02783D02*
X04969D01*
X049651Y027791D02*
Y027869D01*
X047128Y029722D02*
X047207D01*
X047167Y029682D02*
Y029761D01*
X047128Y030106D02*
X047207D01*
X047168Y030066D02*
Y030145D01*
X049942Y028144D02*
X05002D01*
X049981Y028105D02*
Y028184D01*
X051522Y027839D02*
X051601D01*
X051562Y0278D02*
Y027879D01*
X04693Y029515D02*
X047009D01*
X046969Y029476D02*
Y029555D01*
X051502Y028155D02*
X05158D01*
X051541Y028115D02*
Y028194D01*
X04693Y029909D02*
X047009D01*
X046969Y02987D02*
Y029948D01*
X051509Y029722D02*
X051588D01*
X051548Y029683D02*
Y029761D01*
X046536Y029712D02*
X046615D01*
X046576Y029673D02*
Y029751D01*
X049934Y030037D02*
X050013D01*
X049974Y029998D02*
Y030076D01*
X050531Y03003D02*
X050609D01*
X05057Y02999D02*
Y030069D01*
X049612Y028777D02*
X04969D01*
X049651Y028738D02*
Y028817D01*
X049618Y027206D02*
X049697D01*
X049657Y027167D02*
Y027246D01*
X04693Y028336D02*
X047009D01*
X046969Y028296D02*
Y028375D01*
X046926Y028531D02*
X047005D01*
X046966Y028492D02*
Y02857D01*
X047127Y028334D02*
X047205D01*
X047166Y028295D02*
Y028373D01*
X047128Y028531D02*
X047207D01*
X047168Y028492D02*
Y02857D01*
X051201Y028774D02*
X05128D01*
X051241Y028735D02*
Y028814D01*
X050249Y029739D02*
X050328D01*
X050289Y0297D02*
Y029778D01*
X049612Y031933D02*
X04969D01*
X049651Y031893D02*
Y031972D01*
X051509Y028784D02*
X051588D01*
X051548Y028745D02*
Y028824D01*
X046733Y028137D02*
X046812D01*
X046772Y028098D02*
Y028177D01*
X05183Y028142D02*
X051908D01*
X051869Y028102D02*
Y028181D01*
M02*
