G04*
G04 #@! TF.GenerationSoftware,Altium Limited,Altium Designer,18.1.6 (161)*
G04*
G04 Layer_Color=65535*
%FSTAX24Y24*%
%MOIN*%
G70*
G01*
G75*
%ADD10C,0.0079*%
%ADD11C,0.0098*%
%ADD12C,0.0039*%
%ADD13C,0.0059*%
%ADD14C,0.0020*%
%ADD15C,0.0100*%
D10*
X047796Y026956D02*
G03*
X047796Y026956I-000039J0D01*
G01*
X049319Y03238D02*
G03*
X049319Y03238I-000039J0D01*
G01*
X050281Y026263D02*
G03*
X050281Y026184I0J-000039D01*
G01*
D02*
G03*
X050281Y026263I0J000039D01*
G01*
X04756Y026956D02*
X047757Y027153D01*
Y032074D01*
X042639D02*
X047757D01*
X042639Y026956D02*
Y032074D01*
Y026956D02*
X04756D01*
X049575Y03238D02*
X052243D01*
Y027065D02*
Y03238D01*
X04928Y027065D02*
X052243D01*
X04928D02*
Y032084D01*
X049575Y03238D01*
X051477Y034503D02*
X051714D01*
X05018Y03594D02*
X050416D01*
Y034799D02*
Y03594D01*
X05018Y034799D02*
X050416D01*
X05018D02*
Y03594D01*
X04957Y03596D02*
X050042D01*
X048803Y034557D02*
X049236D01*
X048803Y033596D02*
X049236D01*
X051817Y033596D02*
Y033832D01*
X051863Y03517D02*
Y035407D01*
X052854Y034503D02*
X053091D01*
D11*
X047476Y034411D02*
G03*
X047476Y034411I-000049J0D01*
G01*
X051062Y035977D02*
G03*
X051062Y035977I-000049J0D01*
G01*
D12*
X046556Y026693D02*
G03*
X046556Y026654I0J-00002D01*
G01*
D02*
G03*
X046556Y026693I0J00002D01*
G01*
X049218Y025928D02*
X049612D01*
X049218Y026519D02*
X049612D01*
D13*
X047033Y034096D02*
X047151D01*
X045143D02*
X045261D01*
X045143Y035986D02*
Y036104D01*
Y034096D02*
Y034215D01*
X047033Y036104D02*
X047151D01*
X045143D02*
X045261D01*
X047151Y035986D02*
Y036104D01*
Y034096D02*
Y034215D01*
X045434Y032835D02*
X045631D01*
X045434Y033386D02*
X045631D01*
X046615Y032835D02*
X046812D01*
X046615Y033386D02*
X046812D01*
D14*
X0422Y034304D02*
Y034422D01*
X043345Y03397D02*
Y034088D01*
X0422Y035007D02*
Y035125D01*
X047747Y036104D02*
X047865D01*
X043025Y03629D02*
Y036408D01*
Y035647D02*
Y035765D01*
X0422Y035647D02*
Y035765D01*
Y03629D02*
Y036408D01*
X043024Y035007D02*
Y035125D01*
D15*
X041261Y025722D02*
X041418Y025564D01*
X041251Y025722D02*
X041261D01*
X041251Y025564D02*
X041418D01*
X041251Y025564D02*
X041251Y025564D01*
X041251Y025564D02*
Y025722D01*
M02*
