G04*
G04 #@! TF.GenerationSoftware,Altium Limited,Altium Designer,18.1.6 (161)*
G04*
G04 Layer_Physical_Order=10*
G04 Layer_Color=16711680*
%FSTAX24Y24*%
%MOIN*%
G70*
G01*
G75*
%ADD10C,0.0079*%
%ADD12C,0.0039*%
%ADD13C,0.0059*%
%ADD30R,0.0118X0.0118*%
%ADD35R,0.0118X0.0118*%
%ADD67C,0.0046*%
%ADD70C,0.0046*%
%ADD72C,0.0051*%
%ADD73C,0.0041*%
%ADD75C,0.0047*%
%ADD86C,0.0315*%
%ADD87C,0.0157*%
%ADD88C,0.0236*%
%ADD94O,0.0315X0.0630*%
%ADD95O,0.0630X0.0315*%
%ADD96C,0.0394*%
G36*
X053724Y036146D02*
X052778D01*
X052517Y035886D01*
X051794D01*
X051671Y036009D01*
Y036693D01*
X052007Y03703D01*
X053099Y03703D01*
X053425Y037355D01*
X053724D01*
Y036146D01*
D02*
G37*
G36*
Y034851D02*
X053303D01*
X053072Y034619D01*
X052048D01*
X051901Y034767D01*
Y035121D01*
X051989Y03521D01*
X052954D01*
X053062Y035318D01*
X053062Y035634D01*
X052826Y03587D01*
Y035997D01*
X052875Y036046D01*
X053724D01*
Y034851D01*
D02*
G37*
D10*
X043825Y030106D02*
X043828Y030109D01*
X044014D02*
X044018Y030113D01*
X043828Y030109D02*
X044014D01*
X046572Y028726D02*
X046576Y028729D01*
X046381Y028722D02*
X046385Y028726D01*
X046572D01*
X045988Y028928D02*
X045991Y028925D01*
X045988Y028928D02*
Y029113D01*
X045985Y029116D02*
X045988Y029113D01*
X045985Y029116D02*
X045988Y029119D01*
Y029315D02*
X045991Y029318D01*
X045988Y029119D02*
Y029315D01*
X045594Y028134D02*
X045788D01*
X045792Y02813D01*
X04559Y028139D02*
X045594Y028134D01*
X045591Y029722D02*
Y029909D01*
X045995D02*
X045998Y029912D01*
X046185D02*
X046188Y029915D01*
X045998Y029912D02*
X046185D01*
X0454Y029318D02*
X045591D01*
X045782D01*
X045782Y029318D01*
X045597Y029501D02*
X045604Y029508D01*
X045781D01*
X045788Y029515D01*
X045788Y029515D02*
Y029712D01*
X045788Y029515D02*
X045788Y029515D01*
X046185Y029321D02*
Y029703D01*
X046182Y029318D02*
X046185Y029321D01*
Y029703D02*
X046188Y029706D01*
X045997Y030102D02*
X046176D01*
X045991Y030108D02*
X045997Y030102D01*
X045991Y030108D02*
Y030297D01*
X045985Y030303D02*
X045991Y030297D01*
X046176Y030303D02*
X046176Y030303D01*
X045985Y030303D02*
X046176D01*
X045982Y030306D02*
Y03051D01*
X045979Y030513D02*
X045982Y03051D01*
Y030306D02*
X045985Y030303D01*
X045979Y030513D02*
X045985Y030519D01*
X045801Y030504D02*
X04597D01*
X045979Y030513D01*
X045792Y030496D02*
X045801Y030504D01*
X046182Y028931D02*
X046381D01*
X051783Y036037D02*
X051959D01*
X051782Y036036D02*
X051783Y036037D01*
X051959D02*
X051959Y036037D01*
X052029Y036086D02*
X052206D01*
X05198Y036037D02*
X052029Y036086D01*
X051959Y036037D02*
X05198D01*
X052206Y036086D02*
X052266Y036146D01*
D12*
X044804Y029122D02*
X04481Y029116D01*
X044804Y029122D02*
Y029317D01*
X0446Y028729D02*
X044607D01*
X04441Y028919D02*
X0446Y028729D01*
D13*
X046122Y027744D02*
X046187Y027809D01*
X045787Y027744D02*
X046122D01*
X04563Y027901D02*
X045787Y027744D01*
X046187Y027809D02*
Y027935D01*
X044196Y029742D02*
X044225Y029712D01*
X044024Y029909D02*
X044191Y029742D01*
X044016Y029909D02*
X044024D01*
X044191Y029742D02*
X044196D01*
X043834Y030515D02*
X044002D01*
X044016Y030501D01*
X04382Y030529D02*
X043834Y030515D01*
X046382Y029917D02*
Y030099D01*
X046385Y030102D01*
X046379Y029914D02*
X046382Y029917D01*
X045991Y029521D02*
Y029706D01*
X045997Y029712D01*
X045985Y029515D02*
X045991Y029521D01*
X045397Y028928D02*
Y029107D01*
X0454Y02911D01*
X045394Y028925D02*
X045397Y028928D01*
X045195D02*
X045392D01*
X045394Y028925D01*
X045192Y028931D02*
X045195Y028928D01*
X046379Y028531D02*
X04638Y028532D01*
X046569D02*
X04657Y028533D01*
X04638Y028532D02*
X046569D01*
X04441Y028728D02*
X044566Y028572D01*
X04441Y028728D02*
Y028729D01*
X044572Y028572D02*
X044601Y028543D01*
X044566Y028572D02*
X044572D01*
X044218Y028734D02*
X04422Y028731D01*
X044408D01*
X04441Y028729D01*
X044411Y028538D02*
Y028729D01*
Y028538D02*
X044412Y028537D01*
X04441Y028729D02*
X044411Y028729D01*
X045197Y029122D02*
Y029336D01*
X045001Y029712D02*
X045004Y029716D01*
Y029904D02*
X045008Y029908D01*
X045004Y029716D02*
Y029904D01*
X04382Y029318D02*
X043824Y029314D01*
X044007D02*
X044011Y02931D01*
X043824Y029314D02*
X044007D01*
X043823Y028928D02*
X044014D01*
X04382Y028925D02*
X043823Y028928D01*
X044014D02*
X044016Y028931D01*
X045791Y02854D02*
Y02872D01*
Y02854D02*
X045794Y028537D01*
X045788Y028724D02*
X045791Y02872D01*
X04559Y02793D02*
X045619Y027901D01*
X04563D01*
X046576Y02794D02*
Y028137D01*
X046778Y02834D02*
Y028533D01*
X046576Y028137D02*
X046778Y02834D01*
X046187Y027935D02*
X04657D01*
X046182Y02793D02*
X046187Y027935D01*
X045394Y028136D02*
X045394Y028137D01*
X045393Y027952D02*
X045394Y027953D01*
Y028136D01*
X04555Y027901D02*
X04556D01*
X045393Y027743D02*
X04555Y027901D01*
X04556D02*
X04559Y02793D01*
X04481Y027935D02*
X044996D01*
X045192Y02813D01*
Y028334D01*
X045192Y028334D02*
X045192Y028334D01*
X044601Y028323D02*
Y028543D01*
X044213Y02813D02*
X044408D01*
X044601Y028323D01*
X046351Y028692D02*
X046381Y028722D01*
X046176Y028533D02*
X046336Y028692D01*
X046351D01*
X045743Y028353D02*
X045766Y02833D01*
X045588Y028534D02*
Y028916D01*
Y028534D02*
X045615Y028507D01*
X045621D02*
X045743Y028385D01*
X045766Y02833D02*
X045773D01*
X045615Y028507D02*
X045621D01*
X045743Y028353D02*
Y028385D01*
X045811Y028353D02*
X04599Y028533D01*
X046176D01*
X045802Y028353D02*
X045811D01*
X045773Y028324D02*
X045802Y028353D01*
X045588Y028916D02*
X045591Y028919D01*
X045594Y028922D02*
X045779D01*
X045591Y028919D02*
X045594Y028922D01*
X045779D02*
X045782Y028925D01*
X043834Y030307D02*
X044396D01*
X044404Y0301D02*
X044407Y030103D01*
Y03029D01*
X04441Y030293D01*
X044447Y03007D02*
X044608Y029909D01*
X044434Y03007D02*
X044447D01*
X044608Y029909D02*
X044608D01*
X044404Y0301D02*
X044434Y03007D01*
X044608Y029909D02*
X044609Y029908D01*
X044799D01*
X0448Y030106D02*
X044803Y030103D01*
X044998D01*
X0448Y029908D02*
Y030105D01*
X0448Y030106D01*
X044225Y030117D02*
X044234Y030109D01*
X044396D01*
X045782Y030693D02*
X045787Y030688D01*
Y030501D02*
Y030688D01*
Y030501D02*
X045792Y030496D01*
X04559Y030882D02*
X04562Y030853D01*
X045753Y030723D02*
Y030733D01*
X04562Y030853D02*
X045634D01*
X045753Y030723D02*
X045782Y030693D01*
X045634Y030853D02*
X045753Y030733D01*
X04382Y030321D02*
X043834Y030307D01*
X044396D02*
X04441Y030293D01*
X044413Y030295D01*
Y030493D02*
X044415Y030495D01*
X044413Y030295D02*
Y030493D01*
X044415Y030495D02*
X044416Y030495D01*
X044601D02*
X044601Y030496D01*
X044416Y030495D02*
X044601D01*
X044601Y030496D02*
X044607Y030501D01*
Y030686D02*
X044613Y030692D01*
X044607Y030501D02*
Y030686D01*
X044613Y031293D02*
X044642Y031263D01*
Y031256D02*
Y031263D01*
X04478Y031125D02*
X04481Y031096D01*
X044642Y031256D02*
X044773Y031125D01*
X04478D01*
X045001Y031293D02*
X0454D01*
X045192Y028334D02*
Y028722D01*
X045001Y028913D02*
Y028925D01*
Y028542D02*
Y028913D01*
X045192Y028722D01*
X044813Y028922D02*
X044998D01*
X04481Y028919D02*
X044813Y028922D01*
X044998D02*
X045001Y028925D01*
X04501Y028934D02*
Y029107D01*
X045018Y029116D01*
X045001Y028925D02*
X04501Y028934D01*
X044011Y029519D02*
X044193Y029336D01*
X044196D01*
X044225Y029307D01*
X044213Y029127D02*
X04441D01*
X044219Y029301D02*
X044225Y029307D01*
X044219Y029133D02*
Y029301D01*
X044213Y029127D02*
X044219Y029133D01*
X04404Y029548D02*
X044061D01*
X044011Y029519D02*
X04404Y029548D01*
X044061D02*
X044225Y029712D01*
X044226Y029711D02*
X044404D01*
X044225Y029712D02*
X044226Y029711D01*
X044404D02*
X044404Y029711D01*
X044971Y031263D02*
X045001Y031293D01*
X04481Y031096D02*
X044971Y031257D01*
Y031263D01*
X045197Y030302D02*
X045198Y030303D01*
X045197Y029544D02*
X045197Y029545D01*
Y030302D01*
D30*
X044601Y028543D02*
D03*
X04481D02*
D03*
X044405Y030694D02*
D03*
X044613D02*
D03*
X044225Y029712D02*
D03*
X044016D02*
D03*
X046176Y030303D02*
D03*
X046385D02*
D03*
X045192Y028334D02*
D03*
X045401D02*
D03*
X045773Y028324D02*
D03*
X045981D02*
D03*
X04518Y030692D02*
D03*
X045389D02*
D03*
X044213Y02813D02*
D03*
X044005D02*
D03*
X045389Y030305D02*
D03*
X045597D02*
D03*
X044404Y0301D02*
D03*
X044613D02*
D03*
X045782Y030693D02*
D03*
X045991D02*
D03*
X045383Y029909D02*
D03*
X045591D02*
D03*
X046778Y028533D02*
D03*
X04657Y028533D02*
D03*
X045979Y030513D02*
D03*
X046188D02*
D03*
X045792Y030496D02*
D03*
X045584D02*
D03*
X044601D02*
D03*
X04481D02*
D03*
X045018Y029116D02*
D03*
X04481D02*
D03*
X044799Y029908D02*
D03*
X045008D02*
D03*
X044415Y030495D02*
D03*
X044207D02*
D03*
X045788Y029712D02*
D03*
X045997D02*
D03*
X045586Y028537D02*
D03*
X045794D02*
D03*
X046176Y030102D02*
D03*
X046385D02*
D03*
X045782Y029318D02*
D03*
X045991D02*
D03*
X045782Y028925D02*
D03*
X045991D02*
D03*
X045609Y029516D02*
D03*
X0454D02*
D03*
X045997Y030102D02*
D03*
X045788D02*
D03*
X045597Y02874D02*
D03*
X045389D02*
D03*
X04481Y028919D02*
D03*
X044601D02*
D03*
X044404Y029711D02*
D03*
X044613D02*
D03*
D35*
X044213Y02892D02*
D03*
Y029129D02*
D03*
X04421Y029932D02*
D03*
Y030141D02*
D03*
X044412Y028537D02*
D03*
Y028328D02*
D03*
X044016Y028931D02*
D03*
Y028722D02*
D03*
X04481Y031096D02*
D03*
Y030887D02*
D03*
X04559Y030882D02*
D03*
Y031091D02*
D03*
X0454Y031293D02*
D03*
Y031084D02*
D03*
X045591Y028919D02*
D03*
Y029127D02*
D03*
X045197Y029544D02*
D03*
Y029336D02*
D03*
X046182Y02793D02*
D03*
Y028139D02*
D03*
X0454Y029318D02*
D03*
Y02911D02*
D03*
X045192Y028931D02*
D03*
Y028722D02*
D03*
X04441Y029127D02*
D03*
Y028919D02*
D03*
X046176Y028533D02*
D03*
Y028741D02*
D03*
X045001Y031293D02*
D03*
Y031084D02*
D03*
X044225Y029307D02*
D03*
Y029515D02*
D03*
X045393Y027743D02*
D03*
Y027952D02*
D03*
X044016Y030316D02*
D03*
Y030107D02*
D03*
X04382Y030321D02*
D03*
Y030529D02*
D03*
X044613Y031293D02*
D03*
Y031084D02*
D03*
X045001Y028542D02*
D03*
Y028334D02*
D03*
X044218Y028734D02*
D03*
Y028525D02*
D03*
X044011Y029519D02*
D03*
Y02931D02*
D03*
X04559Y02793D02*
D03*
Y028139D02*
D03*
X046188Y029706D02*
D03*
Y029915D02*
D03*
X04481Y027935D02*
D03*
Y028143D02*
D03*
X045001Y0301D02*
D03*
Y030309D02*
D03*
X046381Y028722D02*
D03*
Y028931D02*
D03*
D67*
X045404Y02657D02*
X045724Y026249D01*
X044782Y02657D02*
X045404D01*
X045724Y026249D02*
X050873D01*
X044759Y026407D02*
X045358D01*
X045636Y02613D02*
X05098D01*
X045358Y026407D02*
X045636Y02613D01*
X05098D02*
X052993Y028143D01*
X050873Y026249D02*
X052865Y028241D01*
X044443Y026909D02*
X044782Y02657D01*
X044443Y027022D02*
X04454Y027119D01*
X044443Y026909D02*
Y027022D01*
X044317Y026849D02*
Y027096D01*
X044468Y027248D01*
X044821D01*
X044317Y026849D02*
X044759Y026407D01*
X052865Y028241D02*
Y028822D01*
X052332Y029354D02*
X052865Y028822D01*
X052266Y029568D02*
X052332Y029501D01*
Y029354D02*
Y029501D01*
X04454Y027119D02*
X044909D01*
X045038Y027248D01*
X045316D01*
X045615Y027547D02*
X045788D01*
X045316Y027248D02*
X045615Y027547D01*
X052993Y028143D02*
Y029434D01*
X052266Y030162D02*
Y030883D01*
Y030162D02*
X052993Y029434D01*
X052266Y030883D02*
X052266Y030883D01*
X044821Y027248D02*
X044958Y027385D01*
X045242Y027547D02*
X045394D01*
X04508Y027385D02*
X045242Y027547D01*
X044958Y027385D02*
X04508D01*
X052266Y029663D02*
X052363Y02976D01*
Y029803D02*
X052386Y029826D01*
X052363Y02976D02*
Y029803D01*
X052266Y029576D02*
Y029663D01*
Y032277D02*
X052403Y032414D01*
X052266Y032207D02*
Y032277D01*
X052403Y032414D02*
Y032445D01*
X045394Y027547D02*
X045394D01*
X046164Y028729D02*
X046176Y028741D01*
X045984Y028729D02*
X046164D01*
D70*
X05131Y029816D02*
X051408Y029914D01*
Y030069D01*
X051316Y030161D02*
X051408Y030069D01*
X051077Y029816D02*
X05131D01*
X050969Y030161D02*
X051316D01*
X043829Y029712D02*
X044016D01*
X046385Y030303D02*
X046385Y030303D01*
X046566D01*
X045983Y028132D02*
Y028322D01*
Y028132D02*
X045985Y02813D01*
X045981Y028324D02*
X045983Y028322D01*
X042884Y029073D02*
X043426Y028531D01*
X042884Y029073D02*
Y03054D01*
X04254Y030883D02*
X042884Y03054D01*
X04254Y035112D02*
X042611Y035182D01*
Y035234D01*
X04254Y034831D02*
Y035112D01*
X048886Y034143D02*
Y034491D01*
X049114Y033915D02*
X049672D01*
X048886Y034143D02*
X049114Y033915D01*
X049672D02*
X050503Y033084D01*
X052217D01*
X043725Y03149D02*
X04398D01*
X043512Y031278D02*
X043725Y03149D01*
X042582Y031278D02*
X043512D01*
X042415Y031445D02*
X042582Y031278D01*
X052658Y026248D02*
Y026543D01*
X052266Y026936D02*
X052658Y026543D01*
X044995Y029324D02*
Y029434D01*
Y029324D02*
X045001Y029318D01*
X044921Y029508D02*
X044995Y029434D01*
X044607Y029508D02*
X044921D01*
X045594Y029124D02*
X045785D01*
X045788Y029122D01*
X045591Y029127D02*
X045594Y029124D01*
X046182Y028139D02*
Y028334D01*
X046182Y028334D02*
X046182Y028334D01*
Y028139D02*
X046182Y028139D01*
X045001Y030309D02*
X045001Y030309D01*
Y030496D01*
X042351Y029472D02*
X042446Y029568D01*
X042284Y029451D02*
X042306Y029472D01*
X042446Y029568D02*
X04254D01*
X042306Y029472D02*
X042351D01*
X04254Y028252D02*
Y028537D01*
X04254Y028537D02*
X04254Y028537D01*
X04392Y026946D02*
X04393Y026936D01*
X043656Y026946D02*
X04392D01*
X043646Y026956D02*
X043656Y026946D01*
X045041Y026946D02*
X045309D01*
X045319Y026936D01*
X04503Y026956D02*
X045041Y026946D01*
X049651Y028777D02*
X050013D01*
X050188Y02829D02*
Y028603D01*
X050013Y028777D02*
X050188Y028603D01*
X041842Y03472D02*
Y035544D01*
X042092Y033034D02*
Y03447D01*
X041842Y03472D02*
X042092Y03447D01*
Y033034D02*
X042499Y032627D01*
X041005Y033272D02*
X041589D01*
X042369Y032493D02*
X042641D01*
X041589Y033272D02*
X042369Y032493D01*
X041515Y035871D02*
X041842Y035544D01*
X04293Y033905D02*
X044389D01*
X04254Y033515D02*
X04293Y033905D01*
X042632Y027752D02*
X042635D01*
X042195Y027315D02*
X042632Y027752D01*
X042312Y026992D02*
X042484D01*
X042195Y02711D02*
Y027315D01*
X042484Y026992D02*
X04254Y026936D01*
X042195Y02711D02*
X042312Y026992D01*
X041922Y02836D02*
X042355Y027927D01*
X042511D02*
X042526Y027941D01*
X042355Y027927D02*
X042511D01*
X046656Y026705D02*
Y026884D01*
X046554Y026602D02*
X046656Y026705D01*
X046286Y026602D02*
X046554D01*
X046656Y026884D02*
X046708Y026936D01*
X046143Y026745D02*
X046286Y026602D01*
X043957Y036174D02*
Y0366D01*
X04393Y036146D02*
X043957Y036174D01*
X05138Y036146D02*
X051783Y035743D01*
X052716D01*
X050877Y036146D02*
X05138D01*
X049487D02*
X050295D01*
X050422Y036018D01*
X050431D01*
X052144Y028624D02*
X0522Y028568D01*
X051801Y028624D02*
X052144D01*
X051709Y028532D02*
X051801Y028624D01*
X0522Y028568D02*
X052227D01*
X050725Y027202D02*
X05143D01*
X051709Y027481D02*
Y028532D01*
X05143Y027202D02*
X051709Y027481D01*
X050535Y027012D02*
X050725Y027202D01*
X049882Y027012D02*
X050535D01*
X049812Y027082D02*
Y027252D01*
Y027082D02*
X049882Y027012D01*
X049703Y027361D02*
X049812Y027252D01*
X048751Y027361D02*
X049703D01*
X04784Y027504D02*
X048608D01*
X048751Y027361D01*
X047717Y027627D02*
X04784Y027504D01*
X046064Y027352D02*
X048401D01*
X048818Y026936D02*
X049487D01*
X048401Y027352D02*
X048818Y026936D01*
X048855Y026647D02*
X050587D01*
X046135Y027239D02*
X048262D01*
X048855Y026647D01*
X045887Y027175D02*
X046064Y027352D01*
X045887Y026981D02*
Y027175D01*
X046014Y027118D02*
X046135Y027239D01*
X050587Y026647D02*
X050877Y026936D01*
X045887Y026745D02*
X046014Y026872D01*
Y027118D01*
X045631Y026518D02*
X045777Y026371D01*
X050809D01*
X045631Y026518D02*
Y026745D01*
X044737Y026245D02*
X045274D01*
X045513Y026007D02*
X052639D01*
X045274Y026245D02*
X045513Y026007D01*
X052639D02*
X052869Y026237D01*
X045887Y026489D02*
X047651D01*
X048098Y026936D02*
Y026944D01*
X047651Y026489D02*
X048098Y026936D01*
X045759Y026616D02*
Y026853D01*
Y026616D02*
X045887Y026489D01*
X045631Y026981D02*
X045759Y026853D01*
X052266Y027828D02*
Y028252D01*
X050809Y026371D02*
X052266Y027828D01*
X044181Y026801D02*
X044737Y026245D01*
X052266Y033523D02*
X052869D01*
X053216Y033176D01*
Y02736D02*
Y033176D01*
X052869Y026237D02*
Y027012D01*
X053216Y02736D01*
X044071Y027306D02*
X044181Y027196D01*
Y026801D02*
Y027196D01*
X043269Y027306D02*
X044071D01*
X043067Y027507D02*
X043269Y027306D01*
X043067Y028172D02*
X043229Y028334D01*
X043067Y027507D02*
Y028172D01*
X041922Y02836D02*
Y031998D01*
X042123Y032199D02*
X04254D01*
X041922Y031998D02*
X042123Y032199D01*
X043229Y031484D02*
Y031905D01*
X042641Y032493D02*
X043229Y031905D01*
X043204Y032194D02*
X043876D01*
X044049Y032022D01*
X042499Y032627D02*
X042771D01*
X043204Y032194D01*
X041162Y035871D02*
X041515D01*
X041005D02*
X041162D01*
X046202Y033531D02*
X046708Y034037D01*
Y036146D01*
X046901Y036626D02*
X047868Y035658D01*
Y035643D02*
Y035658D01*
X045799Y036626D02*
X046901D01*
X045319Y036146D02*
X045799Y036626D01*
X044958Y036146D02*
X045319D01*
X044725Y035913D02*
X044958Y036146D01*
X049838Y037031D02*
X050691D01*
X051095Y036626D01*
X048098Y036146D02*
Y03681D01*
X048036Y036873D02*
Y036903D01*
Y036873D02*
X048098Y03681D01*
X04382Y028315D02*
X044005Y02813D01*
X04382Y028315D02*
Y028334D01*
X045788Y030896D02*
X045991Y030693D01*
X045788Y030896D02*
Y030898D01*
X044746Y032011D02*
X044927Y03183D01*
X045369D02*
X045591Y031608D01*
X044927Y03183D02*
X045369D01*
X044746Y032011D02*
Y032253D01*
X044557Y032442D02*
X044746Y032253D01*
X044278Y03194D02*
X044515Y031703D01*
X044111Y032334D02*
X044278Y032167D01*
Y03194D02*
Y032167D01*
X042827Y032766D02*
X043259Y032334D01*
X044111D01*
X042863Y032938D02*
X043359Y032442D01*
X044557D01*
X044934Y031703D02*
X045153Y031484D01*
X044515Y031703D02*
X044934D01*
X042607Y032766D02*
X042827D01*
X045153Y031484D02*
X045394D01*
X045591Y031287D02*
Y031608D01*
X042463Y032938D02*
X042863D01*
X052217Y033084D02*
X052558Y032743D01*
Y031466D02*
Y032743D01*
X052376Y031285D02*
X052558Y031466D01*
X048814Y029544D02*
X048977Y029707D01*
X050091D02*
X050233Y029564D01*
X048977Y029707D02*
X050091D01*
X05042Y028814D02*
Y02893D01*
X050419Y028931D02*
X05042Y02893D01*
Y028814D02*
X050582Y028652D01*
Y028151D02*
Y028652D01*
X051272Y027664D02*
Y028041D01*
X051183Y02813D02*
X051272Y028041D01*
X050981Y027373D02*
X051272Y027664D01*
X05085Y02813D02*
X051183D01*
X049206Y027596D02*
X049287Y027677D01*
X050651Y027373D02*
X050981D01*
X050276Y027198D02*
X050475D01*
X050651Y027373D01*
X050397Y027677D02*
X05085Y02813D01*
X049287Y027677D02*
X050397D01*
X047415Y029101D02*
Y029424D01*
X047146Y02955D02*
X04729D01*
X047415Y029424D01*
X047775Y028839D02*
X047978D01*
X047629Y028694D02*
X047775Y028839D01*
X047629Y028196D02*
Y028694D01*
X047316Y028201D02*
X047419Y028098D01*
X047532D02*
X047629Y028196D01*
X047419Y028098D02*
X047532D01*
X047316Y028201D02*
Y028825D01*
X050275Y028084D02*
Y028202D01*
X050191Y028D02*
X050275Y028084D01*
X050188Y02829D02*
X050275Y028202D01*
X049888Y028D02*
X050191D01*
X049848Y027855D02*
X050285D01*
X050582Y028151D01*
X047831Y029075D02*
Y029236D01*
X04792Y029325D02*
X048242D01*
X047831Y029236D02*
X04792Y029325D01*
X04775Y028993D02*
X047831Y029075D01*
X047523Y028993D02*
X04775D01*
X048977Y028825D02*
X04908Y028722D01*
X048697Y028719D02*
X048803Y028825D01*
X048977D01*
X048242Y029325D02*
X048342Y029225D01*
Y028624D02*
Y029225D01*
X047978Y028839D02*
X04823Y028587D01*
Y028433D02*
Y028587D01*
Y028433D02*
X048374Y028289D01*
X04884D01*
X048507Y02846D02*
X048614D01*
X048342Y028624D02*
X048507Y02846D01*
X047217Y028925D02*
X047316Y028825D01*
X049042Y028086D02*
X049617D01*
X049848Y027855D01*
X050271Y027202D02*
X050276Y027198D01*
X04884Y028289D02*
X049042Y028086D01*
X048614Y02846D02*
X048697Y028543D01*
Y028719D01*
X049651Y028514D02*
X04976Y028404D01*
Y028127D02*
X049888Y028D01*
X04976Y028127D02*
Y028404D01*
X047415Y029101D02*
X047523Y028993D01*
X046969Y029727D02*
X047146Y02955D01*
X049476Y028514D02*
X049651D01*
X049184Y028241D02*
X04932D01*
X049394Y028316D01*
Y028433D01*
X049476Y028514D01*
X04908Y028346D02*
X049184Y028241D01*
X04908Y028346D02*
Y028722D01*
X048693Y028075D02*
X048826Y027942D01*
X049539D02*
X049651Y02783D01*
X048826Y027942D02*
X049539D01*
X048431Y028075D02*
X048693D01*
X048217Y028289D02*
X048431Y028075D01*
X048024Y028289D02*
X048217D01*
X046964Y028925D02*
X047217D01*
X046969Y029727D02*
Y029909D01*
X046799Y02909D02*
X046964Y028925D01*
X046606Y02909D02*
X046799D01*
X046379Y029317D02*
X046606Y02909D01*
X046379Y029317D02*
Y029508D01*
X049214Y031059D02*
X049358Y031203D01*
X048851Y030887D02*
X049023Y031059D01*
X049214D01*
X049358Y031203D02*
X049619D01*
X05023Y031814D01*
X050935D01*
X048655Y030255D02*
X048751Y03016D01*
X048524Y030255D02*
X048655D01*
X04844Y030172D02*
X048524Y030255D01*
X04844Y029969D02*
Y030172D01*
X048751Y029969D02*
Y03016D01*
X049723Y02997D02*
Y030154D01*
X049478Y030235D02*
X049642D01*
X049723Y030154D01*
X049379Y030135D02*
X049478Y030235D01*
X049379Y029976D02*
Y030135D01*
X049723Y02997D02*
X049812Y029881D01*
X05064D01*
X048831Y029889D02*
X049292D01*
X049379Y029976D01*
X050826Y029564D02*
X051077Y029816D01*
X050757Y030373D02*
Y030477D01*
Y030373D02*
X050969Y030161D01*
X050749Y030485D02*
X050757Y030477D01*
X050749Y029989D02*
Y030104D01*
X05064Y029881D02*
X050749Y029989D01*
X050444Y030202D02*
X05065D01*
X050749Y030104D01*
X050233Y029564D02*
X050826D01*
X047735Y029707D02*
X047859Y029831D01*
X047374Y029707D02*
X047735D01*
X046778Y030303D02*
X047374Y029707D01*
X047859Y029831D02*
X048D01*
X048076Y029991D02*
Y030188D01*
X048176Y029891D02*
X048362D01*
X048076Y029991D02*
X048176Y029891D01*
X047999Y030265D02*
X048076Y030188D01*
X047799Y030265D02*
X047999D01*
X047714Y03018D02*
X047799Y030265D01*
X047714Y029966D02*
Y03018D01*
X048751Y029969D02*
X048831Y029889D01*
X048Y029831D02*
X048102Y029729D01*
X048699Y029544D02*
X048814D01*
X048513Y029729D02*
X048699Y029544D01*
X048102Y029729D02*
X048513D01*
X04764Y029892D02*
X047714Y029966D01*
X047439Y029892D02*
X04764D01*
X048362Y029891D02*
X04844Y029969D01*
X046763Y030303D02*
X046778D01*
X049353Y031765D02*
Y031888D01*
X049434Y031685D02*
X049668D01*
X049353Y031765D02*
X049434Y031685D01*
X04775Y030659D02*
Y031022D01*
X047889Y031161D01*
X048384D01*
X048369Y030696D02*
X048447Y030618D01*
Y030471D02*
Y030618D01*
X048033Y030696D02*
X048369D01*
X047952Y030777D02*
Y030929D01*
Y030777D02*
X048033Y030696D01*
X048036Y031014D02*
X048512D01*
X047952Y030929D02*
X048036Y031014D01*
X047648Y031074D02*
Y031403D01*
X047589Y030631D02*
Y031015D01*
X047648Y031074D01*
X048976Y031198D02*
X049061Y031283D01*
X048696Y031198D02*
X048976D01*
X049061Y031283D02*
Y031429D01*
X048512Y031014D02*
X048696Y031198D01*
X049565Y031347D02*
X050181Y031963D01*
X04945Y031347D02*
X049565D01*
X049278Y031519D02*
X04945Y031347D01*
X04915Y031519D02*
X049278D01*
X049061Y031429D02*
X04915Y031519D01*
X049668Y031685D02*
X050086Y032102D01*
X049269Y031973D02*
X049353Y031888D01*
X049119Y031973D02*
X049269D01*
X049039Y031646D02*
Y031893D01*
X049119Y031973D01*
X048965Y031573D02*
X049039Y031646D01*
X048796Y031573D02*
X048965D01*
X050086Y032102D02*
X050675D01*
X048384Y031161D02*
X048796Y031573D01*
X049157Y032117D02*
X04939D01*
X049663Y03239D02*
X050861D01*
X04939Y032117D02*
X049663Y03239D01*
X049427Y032549D02*
X050962D01*
X049307Y032429D02*
X049427Y032549D01*
X04915Y032429D02*
X049307D01*
X049029Y032549D02*
X04915Y032429D01*
X048826Y032549D02*
X049029D01*
X049661Y031942D02*
Y03204D01*
X049855Y032235D02*
X050956D01*
X049661Y03204D02*
X049855Y032235D01*
X049651Y031933D02*
X049661Y031942D01*
X048851Y032019D02*
Y032143D01*
X048258Y031647D02*
X048478D01*
X048851Y032019D01*
X048708Y032285D02*
Y032431D01*
Y032285D02*
X048851Y032143D01*
X048708Y032431D02*
X048826Y032549D01*
X048506Y032507D02*
X048702Y032703D01*
X048506Y031939D02*
Y032507D01*
X048702Y032703D02*
X051135D01*
X048363Y031796D02*
X048506Y031939D01*
X051184Y032855D02*
X051867Y032172D01*
X04734Y031785D02*
X04841Y032855D01*
X051184D01*
X051867Y031614D02*
Y032172D01*
X04734Y031231D02*
Y031785D01*
X050675Y032102D02*
X050716Y032061D01*
X051036Y032315D02*
Y032475D01*
X050962Y032549D02*
X051036Y032475D01*
X050956Y032235D02*
X051036Y032315D01*
X051135Y032703D02*
X051345Y032493D01*
X050716Y032061D02*
X050927D01*
X050181Y031963D02*
X050579D01*
X050935Y031814D02*
X051177Y032056D01*
X047286Y030401D02*
X047629D01*
X047736Y030509D02*
X04789D01*
X047629Y030401D02*
X047736Y030509D01*
X047997Y030401D02*
X048377D01*
X04789Y030509D02*
X047997Y030401D01*
X047648Y031403D02*
X047739Y031493D01*
X048105D01*
X047523Y030565D02*
X047589Y030631D01*
X04717Y030691D02*
X047289D01*
X047415Y030565D02*
X047523D01*
X047289Y030691D02*
X047415Y030565D01*
X047165Y030696D02*
X04717Y030691D01*
X047279Y03027D02*
X047367Y030182D01*
X047Y03027D02*
X047279D01*
X046576Y030695D02*
X047Y03027D01*
X047367Y029964D02*
Y030182D01*
X051345Y0323D02*
Y032493D01*
Y0323D02*
X051464Y032181D01*
X05163D01*
X051748Y032063D01*
X04701Y03093D02*
X047327D01*
X047492Y031095D02*
Y031653D01*
X047327Y03093D02*
X047492Y031095D01*
X047635Y031796D02*
X048363D01*
X047492Y031653D02*
X047635Y031796D01*
X051686Y031737D02*
X051748Y031799D01*
X051543Y031796D02*
X051602Y031737D01*
X051686D01*
X051543Y031927D02*
X051547Y031931D01*
X051543Y031796D02*
Y031927D01*
X051748Y031799D02*
Y032063D01*
X048377Y030401D02*
X048447Y030471D01*
X048105Y031493D02*
X048258Y031647D01*
X04682Y03074D02*
X04701Y03093D01*
X047367Y029964D02*
X047439Y029892D01*
X048645Y030887D02*
X048851D01*
X051177Y032056D02*
Y032229D01*
X047259Y031151D02*
X04734Y031231D01*
X047177Y030502D02*
X047185D01*
X047286Y030401D01*
X04682Y03065D02*
Y03074D01*
Y03065D02*
X046968Y030502D01*
X047104Y031151D02*
X047259D01*
X046921Y031238D02*
X047016D01*
X047104Y031151D01*
X046377Y030695D02*
X046921Y031238D01*
X046377Y030499D02*
Y030695D01*
X044021Y028529D02*
X044214D01*
X044218Y028525D01*
X044018Y028532D02*
X044021Y028529D01*
D72*
X044225Y029909D02*
X044409D01*
X044213D02*
X044225D01*
X045587Y03109D02*
X045788D01*
X044804Y028138D02*
X04481Y028143D01*
X044611Y028138D02*
X044804D01*
X044605Y028133D02*
X044611Y028138D01*
X04254Y036155D02*
Y036588D01*
X04461Y030103D02*
Y0303D01*
Y030103D02*
X044613Y0301D01*
X044607Y030303D02*
X04461Y0303D01*
X045587Y028334D02*
X045591Y028339D01*
X045401Y028334D02*
X045587D01*
X046182Y030519D02*
Y030696D01*
X045591Y030102D02*
X045597Y030108D01*
Y030305D01*
X044215Y028336D02*
X044222Y028328D01*
X044412D01*
X044804Y028537D02*
X04481Y028543D01*
X044804Y028334D02*
Y028537D01*
X044995Y028143D02*
X045001Y028137D01*
X044995Y028143D02*
Y02833D01*
X045788Y030102D02*
Y030305D01*
X045788Y030305D02*
X045788Y030305D01*
X045584Y031093D02*
X045587Y03109D01*
X045391Y031075D02*
X0454Y031084D01*
X045391Y03089D02*
Y031075D01*
X04441Y030698D02*
Y030892D01*
X044404Y030692D02*
X04441Y030698D01*
X044409Y029909D02*
X04441Y029908D01*
X044225Y029515D02*
X04441D01*
X04382Y028728D02*
X043826Y028722D01*
X044016D01*
X044213Y028919D02*
Y028925D01*
X044016Y029122D02*
X044213Y028925D01*
X045389Y028537D02*
X045394Y028531D01*
X045389Y028537D02*
Y02874D01*
X044601Y028919D02*
X044607Y028925D01*
Y029122D01*
Y029508D02*
X044613Y029514D01*
Y029711D01*
X045389Y029501D02*
Y029706D01*
X046182Y030519D02*
X046188Y030513D01*
X045389Y030692D02*
X045393Y030696D01*
X045591D01*
X045394Y030496D02*
X045584D01*
X044804Y030501D02*
X04481Y030496D01*
X044804Y030501D02*
Y030693D01*
X04481Y030887D02*
X044813Y030884D01*
X045001D01*
X045001Y031084D02*
X045007Y03109D01*
X045202D01*
X044607Y030893D02*
X044613Y030899D01*
Y031084D01*
D73*
X049093Y029431D02*
X04917Y029508D01*
X049366D02*
X049434Y02944D01*
X04917Y029508D02*
X049366D01*
X049434Y029354D02*
Y02944D01*
X049093Y029343D02*
Y029431D01*
X049215Y029267D02*
X049322D01*
X049078Y02913D02*
X049215Y029267D01*
X049322D02*
X04946Y02913D01*
X050134Y028979D02*
X050293Y029138D01*
X050452D02*
X050652Y028938D01*
X050293Y029138D02*
X050452D01*
X050652Y028938D02*
X050849D01*
X051095Y029183D01*
X052064Y028906D02*
Y029089D01*
X05197Y029183D02*
X052064Y029089D01*
X051643Y029183D02*
X05197D01*
X05221Y028761D02*
X052383D01*
X052064Y028906D02*
X05221Y028761D01*
X047698Y033427D02*
X048405D01*
X048511Y033533D02*
Y036491D01*
X048405Y033427D02*
X048511Y033533D01*
X048651Y033475D02*
Y036433D01*
X048463Y033287D02*
X048651Y033475D01*
X047756Y033287D02*
X048463D01*
X047634Y032303D02*
Y033165D01*
X047494Y032361D02*
Y033223D01*
X047634Y033165D02*
X047756Y033287D01*
X047494Y033223D02*
X047698Y033427D01*
X047001Y031671D02*
X047634Y032303D01*
X046534Y031953D02*
X046598Y032017D01*
X046713D02*
X046775Y031955D01*
X046598Y032017D02*
X046713D01*
X046775Y031866D02*
Y031955D01*
Y031866D02*
X046831Y031811D01*
X046943D01*
X046534Y031878D02*
Y031953D01*
X046194Y031811D02*
X046467D01*
X046534Y031878D01*
X046943Y031811D02*
X047494Y032361D01*
X046252Y031671D02*
X047001D01*
X046133Y031035D02*
Y031551D01*
X046252Y031671D01*
X045993Y031609D02*
X046194Y031811D01*
X045993Y031093D02*
Y031609D01*
X049126Y036846D02*
Y037004D01*
X04907Y036592D02*
X049266Y036788D01*
X049126Y037004D02*
X049284Y037161D01*
X049012Y036732D02*
X049126Y036846D01*
X049266Y036946D02*
X049424Y037103D01*
X049266Y036788D02*
Y036946D01*
X04881Y036592D02*
X04907D01*
X048511Y036491D02*
X048752Y036732D01*
X048651Y036433D02*
X04881Y036592D01*
X048752Y036732D02*
X049012D01*
X049424Y037544D02*
X04957Y03769D01*
X049424Y037103D02*
Y037544D01*
X049137Y03769D02*
X049284Y037544D01*
Y037161D02*
Y037544D01*
X045991Y030893D02*
X046133Y031035D01*
X045985Y030893D02*
X045991D01*
X04599Y03109D02*
X045993Y031093D01*
X050816Y030645D02*
Y031351D01*
X051008Y030452D02*
X051709D01*
X050816Y030645D02*
X051008Y030452D01*
X051066Y030592D02*
X051163D01*
X050956Y030703D02*
X051066Y030592D01*
X050956Y030703D02*
Y031409D01*
X050001Y030598D02*
X05022D01*
X050455Y030833D02*
Y031361D01*
X050315Y030891D02*
Y031419D01*
X050059Y030738D02*
X050162D01*
X05022Y030598D02*
X050455Y030833D01*
X050162Y030738D02*
X050315Y030891D01*
X049815Y030982D02*
X050059Y030738D01*
X049757Y030842D02*
X050001Y030598D01*
X049541Y030982D02*
X049815D01*
X049208Y030649D02*
X049541Y030982D01*
X049599Y030842D02*
X049757D01*
X049266Y030509D02*
X049599Y030842D01*
X050572Y031477D02*
X050689D01*
X050455Y031361D02*
X050572Y031477D01*
X050514Y031617D02*
X050747D01*
X050315Y031419D02*
X050514Y031617D01*
X048727Y030509D02*
X049266D01*
X048727Y030649D02*
X049208D01*
X04946Y02913D02*
X04976D01*
X049518Y02927D02*
X049824D01*
X049434Y029354D02*
X049518Y02927D01*
X04902D02*
X049093Y029343D01*
X048632Y02927D02*
X04902D01*
X048636Y02913D02*
X049078D01*
X052204Y028978D02*
Y02914D01*
X052021Y029323D02*
X052204Y02914D01*
X051643Y029323D02*
X052021D01*
X051037D02*
X051482D01*
X051095Y029183D02*
X051475D01*
X050699Y029089D02*
X050802D01*
X051037Y029323D01*
X04976Y02913D02*
X049906Y028984D01*
X049912D01*
X049917Y028979D02*
X050134D01*
X049912Y028984D02*
X049917Y028979D01*
X050076Y029119D02*
X050226Y02927D01*
X049975Y029119D02*
X050076D01*
X050226Y02927D02*
X050518D01*
X049824D02*
X049975Y029119D01*
X050518Y02927D02*
X050699Y029089D01*
X052204Y028978D02*
X052282Y028901D01*
X052381D01*
X052383Y028761D02*
X05243Y028714D01*
X052381Y028901D02*
X05243Y02895D01*
Y028714D02*
X052462D01*
X051556Y029397D02*
Y029411D01*
X051482Y029323D02*
X051556Y029397D01*
X04856Y02931D02*
X048592D01*
X048632Y02927D01*
X051548Y029092D02*
Y02911D01*
X051475Y029183D02*
X051548Y02911D01*
X048565Y02909D02*
X048596D01*
X048636Y02913D01*
X05243Y02895D02*
X052462D01*
X051556Y029411D02*
Y029414D01*
Y029411D02*
X051643Y029323D01*
X051548Y029092D02*
X051552D01*
X051643Y029183D01*
X051204Y031144D02*
X051288Y03106D01*
X051204Y031144D02*
Y031231D01*
X051288Y03106D02*
X051389D01*
X051429Y030743D02*
X05158Y030592D01*
X051314Y030743D02*
X051429D01*
X051163Y030592D02*
X051314Y030743D01*
X051204Y031231D02*
X051418Y031445D01*
X051389Y03106D02*
X051567Y031238D01*
X051671D01*
X05174Y031168D01*
Y030682D02*
Y031168D01*
X050689Y031477D02*
X050816Y031351D01*
X050747Y031617D02*
X050956Y031409D01*
X05188Y030624D02*
Y031261D01*
X051233Y031908D02*
X05188Y031261D01*
X051709Y030452D02*
X05188Y030624D01*
X051651Y030592D02*
X05174Y030682D01*
X05158Y030592D02*
X051651D01*
X051418Y031445D02*
Y031525D01*
X051341Y031603D02*
X051418Y031525D01*
X048668Y03066D02*
X048717D01*
X048645Y030477D02*
X048668Y0305D01*
X048718D02*
X048727Y030509D01*
X048668Y0305D02*
X048718D01*
X048645Y030682D02*
X048668Y03066D01*
X048717D02*
X048727Y030649D01*
X051233Y031908D02*
Y031927D01*
X051243Y031603D02*
X051341D01*
X051233Y031612D02*
X051243Y031603D01*
D75*
X045383Y029909D02*
Y030111D01*
X045383Y030111D01*
X045383Y029909D02*
X045383Y029909D01*
X044799Y029908D02*
X0448Y029908D01*
X044998Y030103D02*
X045001Y0301D01*
X04518Y030692D02*
X045189Y030683D01*
Y030311D02*
Y030683D01*
Y030311D02*
X045198Y030303D01*
X045199Y030304D01*
X045387D02*
X045389Y030305D01*
X045199Y030304D02*
X045387D01*
X044207Y030495D02*
X044212Y030501D01*
Y030687D01*
X044218Y030692D01*
D86*
X041775Y03769D02*
D03*
X042208D02*
D03*
X042641D02*
D03*
X043074D02*
D03*
X043507D02*
D03*
X04394D02*
D03*
X044373D02*
D03*
X044806D02*
D03*
X045239D02*
D03*
X045673D02*
D03*
X046106D02*
D03*
X046539D02*
D03*
X046972D02*
D03*
X047405D02*
D03*
X047838D02*
D03*
X048271D02*
D03*
X048704D02*
D03*
X049137D02*
D03*
X04957D02*
D03*
X050003D02*
D03*
X050436D02*
D03*
X050869D02*
D03*
X051302D02*
D03*
X0538Y02591D02*
D03*
X041005D02*
D03*
Y026343D02*
D03*
Y026776D02*
D03*
Y027209D02*
D03*
Y027642D02*
D03*
Y028075D02*
D03*
Y028509D02*
D03*
Y028942D02*
D03*
Y029375D02*
D03*
Y029808D02*
D03*
Y030241D02*
D03*
Y030674D02*
D03*
Y031107D02*
D03*
Y03154D02*
D03*
Y031973D02*
D03*
Y032406D02*
D03*
Y032839D02*
D03*
Y033272D02*
D03*
Y033705D02*
D03*
Y034138D02*
D03*
Y034571D02*
D03*
Y035005D02*
D03*
Y035438D02*
D03*
Y035871D02*
D03*
Y036304D02*
D03*
Y036737D02*
D03*
Y03717D02*
D03*
Y02591D02*
D03*
Y026343D02*
D03*
Y026776D02*
D03*
Y027209D02*
D03*
Y027642D02*
D03*
Y028075D02*
D03*
Y028509D02*
D03*
Y028942D02*
D03*
Y029375D02*
D03*
Y029808D02*
D03*
Y030241D02*
D03*
Y030674D02*
D03*
Y031107D02*
D03*
Y03154D02*
D03*
Y031973D02*
D03*
Y032406D02*
D03*
Y032839D02*
D03*
Y033272D02*
D03*
Y033705D02*
D03*
Y034138D02*
D03*
Y034571D02*
D03*
Y035005D02*
D03*
Y035438D02*
D03*
Y035871D02*
D03*
Y036304D02*
D03*
Y036737D02*
D03*
Y03717D02*
D03*
X053035Y03769D02*
D03*
X052602D02*
D03*
X052169D02*
D03*
X051736D02*
D03*
X0538Y03717D02*
D03*
Y036737D02*
D03*
Y036304D02*
D03*
Y035871D02*
D03*
Y035438D02*
D03*
Y035005D02*
D03*
Y034571D02*
D03*
Y034138D02*
D03*
Y033705D02*
D03*
Y033272D02*
D03*
Y032839D02*
D03*
Y032406D02*
D03*
Y031973D02*
D03*
Y03154D02*
D03*
Y031107D02*
D03*
Y030674D02*
D03*
Y030241D02*
D03*
Y029808D02*
D03*
Y029375D02*
D03*
Y028942D02*
D03*
Y028509D02*
D03*
Y028075D02*
D03*
Y027642D02*
D03*
Y027209D02*
D03*
Y026776D02*
D03*
Y026343D02*
D03*
X045239Y025407D02*
D03*
X045673D02*
D03*
X046106D02*
D03*
X046539D02*
D03*
X046972D02*
D03*
X047405D02*
D03*
X047838D02*
D03*
X048271D02*
D03*
X048704D02*
D03*
X049137D02*
D03*
X04957D02*
D03*
X050003D02*
D03*
X050436D02*
D03*
X050869D02*
D03*
X051302D02*
D03*
X051736D02*
D03*
X052169D02*
D03*
X052602D02*
D03*
X053035D02*
D03*
X044806D02*
D03*
X044373D02*
D03*
X04394D02*
D03*
X043507D02*
D03*
X043074D02*
D03*
X042641D02*
D03*
X042208D02*
D03*
X041775D02*
D03*
D87*
X053515Y025597D02*
D03*
X052973Y035899D02*
D03*
X053201Y036411D02*
D03*
X0532Y036862D02*
D03*
X05319Y035899D02*
D03*
X047068Y032468D02*
D03*
X047265Y032361D02*
D03*
X05278Y032748D02*
D03*
X048931Y03007D02*
D03*
X049187Y030051D02*
D03*
X046379Y029712D02*
D03*
X041835Y035959D02*
D03*
X041617Y036486D02*
D03*
X041616Y035977D02*
D03*
X041806Y034265D02*
D03*
X041806Y034474D02*
D03*
X042526Y034084D02*
D03*
X042535Y034363D02*
D03*
X042145Y034641D02*
D03*
Y034818D02*
D03*
X043072Y033718D02*
D03*
X044389Y033905D02*
D03*
X043917Y033612D02*
D03*
X043766Y033728D02*
D03*
X046659Y03344D02*
D03*
X042504Y026632D02*
D03*
X042635Y027752D02*
D03*
X042526Y027941D02*
D03*
X047097Y026924D02*
D03*
X043767Y035559D02*
D03*
X043747Y034608D02*
D03*
X043748Y034851D02*
D03*
Y035064D02*
D03*
X043794Y036445D02*
D03*
X043957Y0366D02*
D03*
X046147Y035706D02*
D03*
X045695Y034862D02*
D03*
X046147D02*
D03*
X045695Y035096D02*
D03*
X045558Y035706D02*
D03*
X046147Y0351D02*
D03*
X047708Y033639D02*
D03*
X047869Y033837D02*
D03*
X047922Y035219D02*
D03*
X046588Y033612D02*
D03*
X050462Y036764D02*
D03*
Y036304D02*
D03*
X050462Y036528D02*
D03*
X051418Y036846D02*
D03*
X052476Y034993D02*
D03*
X049342Y033237D02*
D03*
X049737Y033391D02*
D03*
X051871Y032885D02*
D03*
Y032665D02*
D03*
X051529Y032938D02*
D03*
X050316Y034813D02*
D03*
Y034606D02*
D03*
X049137Y035234D02*
D03*
X04893D02*
D03*
X048931Y035438D02*
D03*
X049138D02*
D03*
X051706Y033391D02*
D03*
X04893Y029397D02*
D03*
X046576Y02794D02*
D03*
X042853Y026973D02*
D03*
X044608Y029909D02*
D03*
X045189Y031287D02*
D03*
X048886Y034769D02*
D03*
Y034491D02*
D03*
X052376Y031891D02*
D03*
X052227Y026569D02*
D03*
X052491Y027383D02*
D03*
X052486Y027176D02*
D03*
X05267Y028335D02*
D03*
X052717Y029295D02*
D03*
Y029503D02*
D03*
X052925Y029705D02*
D03*
X052386Y029826D02*
D03*
X052933Y029924D02*
D03*
Y030133D02*
D03*
X052972Y031695D02*
D03*
X052717Y030879D02*
D03*
Y031088D02*
D03*
X052403Y032445D02*
D03*
X052404Y032686D02*
D03*
X052717Y031509D02*
D03*
Y031718D02*
D03*
X052376Y031285D02*
D03*
X052716Y032057D02*
D03*
Y032266D02*
D03*
X046133Y032139D02*
D03*
X04634Y03205D02*
D03*
X045739Y032306D02*
D03*
X045946D02*
D03*
X044653Y036176D02*
D03*
X046536Y032218D02*
D03*
X046369Y032355D02*
D03*
X046901D02*
D03*
X046674D02*
D03*
X046576Y03109D02*
D03*
X046388Y031287D02*
D03*
X045399Y03204D02*
D03*
X045596Y032034D02*
D03*
X046966Y031484D02*
D03*
X046388D02*
D03*
X047166Y031493D02*
D03*
X046772Y031287D02*
D03*
X045985Y030893D02*
D03*
X04599Y03109D02*
D03*
X046774Y030893D02*
D03*
X046969Y03109D02*
D03*
X049668Y030678D02*
D03*
X052227Y028568D02*
D03*
X049472Y033391D02*
D03*
X04856Y02931D02*
D03*
X048565Y02909D02*
D03*
X052462Y02895D02*
D03*
Y028714D02*
D03*
X049838Y037031D02*
D03*
X04787Y036425D02*
D03*
X04555Y032807D02*
D03*
X049206Y027596D02*
D03*
X050271Y027202D02*
D03*
X048915Y027586D02*
D03*
X051011Y029965D02*
D03*
X050749Y030485D02*
D03*
X049157Y032117D02*
D03*
X050927Y032061D02*
D03*
X050579Y031963D02*
D03*
X049183Y03177D02*
D03*
X050861Y03239D02*
D03*
X048178Y028086D02*
D03*
X051151Y029657D02*
D03*
X048085Y028507D02*
D03*
X050397Y027363D02*
D03*
X048024Y028289D02*
D03*
X047168Y029327D02*
D03*
X048527Y028647D02*
D03*
X050289Y029407D02*
D03*
X047796Y028505D02*
D03*
X047919Y02869D02*
D03*
X047747Y029556D02*
D03*
X047928Y029473D02*
D03*
X047934Y029672D02*
D03*
X048234Y029592D02*
D03*
X048516Y029495D02*
D03*
X051118Y028504D02*
D03*
X050345Y028348D02*
D03*
X050363Y028641D02*
D03*
X051116Y027742D02*
D03*
X051116Y027964D02*
D03*
X048134Y028881D02*
D03*
X051541Y027527D02*
D03*
X051163Y028977D02*
D03*
X051869Y028462D02*
D03*
X051881Y027855D02*
D03*
X051556Y029414D02*
D03*
X051548Y029092D02*
D03*
X050444Y030202D02*
D03*
X050298Y030364D02*
D03*
X04859Y02793D02*
D03*
X04859Y02772D02*
D03*
X051166Y030298D02*
D03*
X051548Y030982D02*
D03*
X051233Y031927D02*
D03*
X048645Y030477D02*
D03*
X051233Y031612D02*
D03*
X048645Y030682D02*
D03*
X047788Y031332D02*
D03*
X048645Y030887D02*
D03*
X051867Y031614D02*
D03*
X049974Y030364D02*
D03*
X046971Y030696D02*
D03*
X047165D02*
D03*
X046968Y030502D02*
D03*
X051177Y032229D02*
D03*
X051547Y031931D02*
D03*
X044576Y026177D02*
D03*
X044353Y026439D02*
D03*
X052924Y026083D02*
D03*
X053045Y026245D02*
D03*
X052658Y026248D02*
D03*
X044605Y028133D02*
D03*
X042145Y029299D02*
D03*
X042284Y029451D02*
D03*
X042092Y031605D02*
D03*
X04398Y03149D02*
D03*
X042415Y031445D02*
D03*
X042607Y032766D02*
D03*
X042463Y032938D02*
D03*
X042452Y031842D02*
D03*
X042208Y03188D02*
D03*
X044049Y032022D02*
D03*
X043457Y03203D02*
D03*
X043666Y03203D02*
D03*
X043229Y031484D02*
D03*
X043426Y031484D02*
D03*
X042702Y031768D02*
D03*
X044016Y031287D02*
D03*
X043623Y030323D02*
D03*
X044016Y030501D02*
D03*
X043707Y026689D02*
D03*
X043381Y026681D02*
D03*
X042869Y026681D02*
D03*
X043126Y026945D02*
D03*
X043382D02*
D03*
X043125Y026681D02*
D03*
X043646Y026956D02*
D03*
X044607Y027547D02*
D03*
X043229Y027744D02*
D03*
X043426Y028334D02*
D03*
X043229D02*
D03*
X043623Y028925D02*
D03*
X043426Y029122D02*
D03*
X053095Y026794D02*
D03*
X04691Y03693D02*
D03*
X045198Y027744D02*
D03*
X044824Y026956D02*
D03*
X045784Y02794D02*
D03*
X045394Y031484D02*
D03*
X045788D02*
D03*
X045591Y031287D02*
D03*
X051613Y03703D02*
D03*
Y036846D02*
D03*
X049453Y036794D02*
D03*
X051959Y036037D02*
D03*
X051782Y036036D02*
D03*
X049978Y027198D02*
D03*
X048896Y031712D02*
D03*
X052082Y032665D02*
D03*
X052638Y034993D02*
D03*
X051863Y028777D02*
D03*
X049974Y029407D02*
D03*
X049076Y028986D02*
D03*
X051548Y028462D02*
D03*
X046202Y033531D02*
D03*
X048824Y036891D02*
D03*
X04644Y03693D02*
D03*
X051095Y036626D02*
D03*
X048036Y036903D02*
D03*
X04624Y036381D02*
D03*
X047337Y03693D02*
D03*
X047134Y03693D02*
D03*
X047868Y035643D02*
D03*
X047717Y027627D02*
D03*
X044725Y035913D02*
D03*
X043761Y035882D02*
D03*
X043508Y035289D02*
D03*
X044607Y028729D02*
D03*
Y02794D02*
D03*
X044213Y027547D02*
D03*
X042454Y027252D02*
D03*
X04254Y028537D02*
D03*
X042598Y030098D02*
D03*
X042452Y029914D02*
D03*
X042664Y027296D02*
D03*
X046379Y028137D02*
D03*
X045984Y028729D02*
D03*
X046576Y028334D02*
D03*
Y028729D02*
D03*
X04775Y030659D02*
D03*
X048044Y031647D02*
D03*
X052019Y026569D02*
D03*
X045591Y028339D02*
D03*
X045198Y02794D02*
D03*
X04503Y026956D02*
D03*
X048466Y031484D02*
D03*
X0483Y031942D02*
D03*
X047177Y030502D02*
D03*
X047166Y031278D02*
D03*
X046377Y030499D02*
D03*
X047788Y031647D02*
D03*
X0483Y031312D02*
D03*
X048044D02*
D03*
X047788Y031942D02*
D03*
X048219Y032454D02*
D03*
X048044Y031942D02*
D03*
X045198Y032074D02*
D03*
X044942Y032067D02*
D03*
X047565Y026676D02*
D03*
X047329Y026676D02*
D03*
X047092Y026676D02*
D03*
X047166Y027547D02*
D03*
X046379Y028531D02*
D03*
X045887Y026745D02*
D03*
X046143Y026981D02*
D03*
X046399D02*
D03*
X045985Y02794D02*
D03*
X046182Y028334D02*
D03*
X046969Y02794D02*
D03*
X047166Y027744D02*
D03*
X046969Y027547D02*
D03*
X046143Y026745D02*
D03*
X046399D02*
D03*
X045887Y026981D02*
D03*
X045631Y026981D02*
D03*
X045631Y026745D02*
D03*
X046182Y027547D02*
D03*
X045788D02*
D03*
X045394D02*
D03*
X045001D02*
D03*
X044804Y027744D02*
D03*
X045591D02*
D03*
X044607Y026956D02*
D03*
X044016Y027744D02*
D03*
X044213Y027744D02*
D03*
X04382Y028925D02*
D03*
Y028334D02*
D03*
X044016Y027547D02*
D03*
X043426Y02794D02*
D03*
X043623Y028137D02*
D03*
X043426Y028531D02*
D03*
X043623Y028728D02*
D03*
X04254Y028774D02*
D03*
X04254Y028989D02*
D03*
X042535Y029222D02*
D03*
X043229Y029712D02*
D03*
Y029318D02*
D03*
X043426Y029913D02*
D03*
X043229Y030109D02*
D03*
X043623D02*
D03*
X043627Y029515D02*
D03*
X04343D02*
D03*
X048219Y03222D02*
D03*
X046576Y030695D02*
D03*
X046379Y030892D02*
D03*
X046182Y030696D02*
D03*
X045788Y03109D02*
D03*
Y030898D02*
D03*
X044215Y031287D02*
D03*
X044515Y032074D02*
D03*
X044213Y031484D02*
D03*
X044613D02*
D03*
X044805Y031287D02*
D03*
X04441Y03109D02*
D03*
X043508Y035886D02*
D03*
X042525Y033915D02*
D03*
X043825Y030106D02*
D03*
X041668Y035303D02*
D03*
X052084Y032885D02*
D03*
X04382Y029318D02*
D03*
X049216Y033394D02*
D03*
X049528Y033084D02*
D03*
X044864Y034182D02*
D03*
X045001Y030884D02*
D03*
X045391Y03089D02*
D03*
X045591Y030696D02*
D03*
X045985Y02813D02*
D03*
X045788Y029122D02*
D03*
X04441Y029515D02*
D03*
X045394Y028531D02*
D03*
Y028137D02*
D03*
X045001D02*
D03*
X045202Y03109D02*
D03*
X044607Y030893D02*
D03*
X045788Y028724D02*
D03*
X044607Y030303D02*
D03*
X045001Y030496D02*
D03*
X044607Y029508D02*
D03*
Y029122D02*
D03*
X044018Y028532D02*
D03*
X04382Y028728D02*
D03*
X045792Y02813D02*
D03*
X046379Y029914D02*
D03*
X044215Y028336D02*
D03*
X045985Y030303D02*
D03*
X046566D02*
D03*
X043829Y029712D02*
D03*
X04441Y030892D02*
D03*
X044016Y029122D02*
D03*
X044804Y028334D02*
D03*
X046576Y030106D02*
D03*
X046772D02*
D03*
X046763Y030303D02*
D03*
X04966Y02751D02*
D03*
X049657Y029406D02*
D03*
X050419Y028931D02*
D03*
X049978Y02751D02*
D03*
X04878Y031056D02*
D03*
X046182Y029318D02*
D03*
X045995Y029909D02*
D03*
X045985Y029116D02*
D03*
X046182Y028931D02*
D03*
X046379Y029508D02*
D03*
X046381Y029122D02*
D03*
X046576Y028925D02*
D03*
X046772D02*
D03*
X046969Y029122D02*
D03*
X046772Y028728D02*
D03*
X045383Y030111D02*
D03*
X045591Y030102D02*
D03*
X045788Y029909D02*
D03*
X045788Y030305D02*
D03*
X045394Y030496D02*
D03*
X045001Y029318D02*
D03*
X045001Y029712D02*
D03*
X045197Y029122D02*
D03*
X044804Y029711D02*
D03*
X045591Y029318D02*
D03*
X045394Y029712D02*
D03*
X04441Y030293D02*
D03*
X044218Y030692D02*
D03*
X044804Y030693D02*
D03*
X044016Y029909D02*
D03*
X0448Y030106D02*
D03*
X045198Y030303D02*
D03*
X045788Y029515D02*
D03*
X045591Y029722D02*
D03*
X045001Y028925D02*
D03*
X045394D02*
D03*
X044804Y029317D02*
D03*
X04441Y029908D02*
D03*
X044805Y028728D02*
D03*
X04441Y028729D02*
D03*
X045985Y029515D02*
D03*
X047168Y029122D02*
D03*
X046763Y029515D02*
D03*
X046576Y029318D02*
D03*
X049651Y02783D02*
D03*
X047167Y029722D02*
D03*
X047168Y030106D02*
D03*
X049981Y028144D02*
D03*
X051562Y027839D02*
D03*
X046969Y029515D02*
D03*
X051541Y028155D02*
D03*
X046969Y029909D02*
D03*
X051548Y029722D02*
D03*
X046576Y029712D02*
D03*
X049974Y030037D02*
D03*
X05057Y03003D02*
D03*
X049651Y028777D02*
D03*
X049657Y027206D02*
D03*
X046969Y028336D02*
D03*
X046966Y028531D02*
D03*
X047166Y028334D02*
D03*
X047168Y028531D02*
D03*
X051241Y028774D02*
D03*
X050289Y029739D02*
D03*
X049651Y031933D02*
D03*
X051548Y028784D02*
D03*
X046772Y028137D02*
D03*
X051869Y028142D02*
D03*
D88*
X047068Y032978D02*
D03*
X042884Y03596D02*
D03*
X043941Y032703D02*
D03*
X045519Y033305D02*
D03*
X045411Y033842D02*
D03*
X047987Y034969D02*
D03*
X052716Y035743D02*
D03*
X050431Y036018D02*
D03*
X052574Y033785D02*
D03*
X053095Y033794D02*
D03*
X044207Y032697D02*
D03*
X049021Y036387D02*
D03*
X042863Y035423D02*
D03*
X042611Y035234D02*
D03*
X052004Y034451D02*
D03*
X052558D02*
D03*
X052848Y035396D02*
D03*
X051424Y035743D02*
D03*
X049023Y036161D02*
D03*
X049138Y035813D02*
D03*
X045887Y036381D02*
D03*
X043403Y034663D02*
D03*
X04254Y036588D02*
D03*
X047357Y034432D02*
D03*
X042639Y035706D02*
D03*
X044389Y034503D02*
D03*
Y034851D02*
D03*
Y035198D02*
D03*
X04709Y034156D02*
D03*
D94*
X041775Y025564D02*
D03*
X042208D02*
D03*
X042641D02*
D03*
X043074D02*
D03*
X043507D02*
D03*
X04394D02*
D03*
X044373D02*
D03*
X044806D02*
D03*
X045239D02*
D03*
X045673D02*
D03*
X046106D02*
D03*
X046539D02*
D03*
X046972D02*
D03*
X047405D02*
D03*
X047838D02*
D03*
X048271D02*
D03*
X048704D02*
D03*
X049137D02*
D03*
X04957D02*
D03*
X050003D02*
D03*
X050436D02*
D03*
X050869D02*
D03*
X051302D02*
D03*
X051736D02*
D03*
X052169D02*
D03*
X052602D02*
D03*
X053035D02*
D03*
X053035Y037533D02*
D03*
X052602D02*
D03*
X052169D02*
D03*
X051736D02*
D03*
X051302D02*
D03*
X050869D02*
D03*
X050436D02*
D03*
X050003D02*
D03*
X04957D02*
D03*
X049137D02*
D03*
X048704D02*
D03*
X048271D02*
D03*
X047838D02*
D03*
X047405D02*
D03*
X046972D02*
D03*
X046539D02*
D03*
X046106D02*
D03*
X045673D02*
D03*
X045239D02*
D03*
X044806D02*
D03*
X044373D02*
D03*
X04394D02*
D03*
X043507D02*
D03*
X043074D02*
D03*
X042641D02*
D03*
X042208D02*
D03*
X041775D02*
D03*
D95*
X053643Y02591D02*
D03*
Y026343D02*
D03*
Y026776D02*
D03*
Y027209D02*
D03*
Y027642D02*
D03*
Y028075D02*
D03*
Y028509D02*
D03*
Y028942D02*
D03*
Y029375D02*
D03*
Y029808D02*
D03*
Y030241D02*
D03*
Y030674D02*
D03*
Y031107D02*
D03*
Y03154D02*
D03*
Y031973D02*
D03*
Y032406D02*
D03*
Y032839D02*
D03*
Y033272D02*
D03*
Y033705D02*
D03*
Y034138D02*
D03*
Y034571D02*
D03*
Y035005D02*
D03*
Y035438D02*
D03*
Y035871D02*
D03*
Y036304D02*
D03*
Y036737D02*
D03*
Y037168D02*
D03*
X041162Y03717D02*
D03*
Y036737D02*
D03*
Y036304D02*
D03*
Y035871D02*
D03*
Y035438D02*
D03*
Y035005D02*
D03*
Y034571D02*
D03*
Y034138D02*
D03*
Y033705D02*
D03*
Y033272D02*
D03*
Y032839D02*
D03*
Y032406D02*
D03*
Y031973D02*
D03*
Y03154D02*
D03*
Y031107D02*
D03*
Y030674D02*
D03*
Y030241D02*
D03*
Y029808D02*
D03*
Y029375D02*
D03*
Y028942D02*
D03*
Y026343D02*
D03*
Y02591D02*
D03*
Y027209D02*
D03*
Y026776D02*
D03*
Y028075D02*
D03*
Y027642D02*
D03*
Y028509D02*
D03*
D96*
X04393Y026936D02*
D03*
X04393Y036146D02*
D03*
X045319Y026936D02*
D03*
X045319Y036146D02*
D03*
X049487Y026936D02*
D03*
X049487Y036146D02*
D03*
X050877Y026936D02*
D03*
X050877Y036146D02*
D03*
X04254Y029568D02*
D03*
Y033515D02*
D03*
X052266Y029568D02*
D03*
Y033515D02*
D03*
X04254Y026936D02*
D03*
Y028252D02*
D03*
Y030883D02*
D03*
Y032199D02*
D03*
Y034831D02*
D03*
Y036146D02*
D03*
X046708Y026936D02*
D03*
X046708Y036146D02*
D03*
X048098Y026936D02*
D03*
X048098Y036146D02*
D03*
X052266Y026936D02*
D03*
Y030883D02*
D03*
Y028252D02*
D03*
Y032199D02*
D03*
Y034831D02*
D03*
Y036146D02*
D03*
M02*
