G04*
G04 #@! TF.GenerationSoftware,Altium Limited,Altium Designer,18.1.6 (161)*
G04*
G04 Layer_Physical_Order=8*
G04 Layer_Color=6736896*
%FSTAX24Y24*%
%MOIN*%
G70*
G01*
G75*
%ADD10C,0.0079*%
%ADD12C,0.0039*%
%ADD74C,0.0040*%
%ADD86C,0.0315*%
%ADD87C,0.0157*%
%ADD88C,0.0236*%
%ADD92C,0.0038*%
G36*
X052265Y033097D02*
X052265Y032655D01*
X051797Y032188D01*
X051325D01*
X051283Y032229D01*
X051274Y03227D01*
X051252Y032304D01*
X051217Y032327D01*
X051177Y032335D01*
X051136Y032327D01*
X051102Y032304D01*
X051079Y03227D01*
X051071Y032229D01*
X051028Y032188D01*
X049234D01*
X049232Y032192D01*
X049197Y032215D01*
X049157Y032223D01*
X049116Y032215D01*
X049082Y032192D01*
X049079Y032188D01*
X048352D01*
X048325Y03222D01*
X048317Y032261D01*
X048294Y032295D01*
X048273Y032309D01*
X04827Y032319D01*
Y032355D01*
X048273Y032365D01*
X048294Y032379D01*
X048317Y032413D01*
X048325Y032454D01*
X048317Y032494D01*
X048294Y032529D01*
X04826Y032552D01*
X048219Y03256D01*
X048179Y032552D01*
X048145Y032529D01*
X048122Y032494D01*
X048114Y032454D01*
X048122Y032413D01*
X048145Y032379D01*
X048166Y032365D01*
X048169Y032355D01*
Y032319D01*
X048166Y032309D01*
X048145Y032295D01*
X048122Y032261D01*
X048114Y03222D01*
X048087Y032188D01*
X047786D01*
X047303Y031705D01*
X046026Y031705D01*
X045879Y031557D01*
X045863Y031559D01*
X045829Y031581D01*
X045788Y03159D01*
X045748Y031581D01*
X045713Y031559D01*
X04569Y031524D01*
X045682Y031484D01*
X04569Y031443D01*
X045713Y031409D01*
X045715Y031395D01*
X04568Y03136D01*
X045666Y031362D01*
X045632Y031385D01*
X045591Y031393D01*
X045551Y031385D01*
X045517Y031362D01*
X045494Y031327D01*
X045486Y031287D01*
X045494Y031246D01*
X045517Y031212D01*
X045518Y031196D01*
X045465Y031143D01*
Y031032D01*
X045423Y03099D01*
X045391Y030996D01*
X045351Y030988D01*
X045317Y030965D01*
X045294Y030931D01*
X045286Y03089D01*
X045294Y03085D01*
X045317Y030815D01*
X045351Y030792D01*
X045391Y030784D01*
X045415Y030789D01*
X045465Y030759D01*
Y030743D01*
X04549Y030718D01*
X045486Y030696D01*
X045494Y030656D01*
X045517Y030622D01*
X045551Y030599D01*
X045591Y030591D01*
X045613Y030595D01*
X045883Y030324D01*
X045879Y030303D01*
X045884Y030281D01*
X045884Y03003D01*
X045834Y030003D01*
X045829Y030007D01*
X045788Y030015D01*
X045748Y030007D01*
X045713Y029984D01*
X04569Y029949D01*
X045682Y029909D01*
X04569Y029868D01*
X045713Y029834D01*
X045748Y029811D01*
X045788Y029803D01*
X045829Y029811D01*
X045834Y029815D01*
X045885Y029788D01*
X045885Y029636D01*
X045835Y029609D01*
X045829Y029613D01*
X045788Y029621D01*
X045748Y029613D01*
X045713Y02959D01*
X04569Y029556D01*
X045682Y029515D01*
X04569Y029475D01*
X045713Y02944D01*
X045748Y029418D01*
X045788Y029409D01*
X045829Y029418D01*
X045835Y029422D01*
X045885Y029395D01*
X045886Y029241D01*
X045836Y029215D01*
X045829Y029219D01*
X045788Y029227D01*
X045748Y029219D01*
X045713Y029196D01*
X04569Y029162D01*
X045682Y029122D01*
X04569Y029081D01*
X045713Y029047D01*
X045748Y029024D01*
X045788Y029016D01*
X045829Y029024D01*
X045836Y029029D01*
X045886Y029002D01*
X045886Y028843D01*
X045836Y028816D01*
X045829Y028821D01*
X045788Y028829D01*
X045748Y028821D01*
X045713Y028798D01*
X04569Y028764D01*
X045682Y028724D01*
X04569Y028683D01*
X045713Y028649D01*
X045724Y028642D01*
X045735Y028581D01*
X045597Y028443D01*
X045591Y028444D01*
X045551Y028436D01*
X045517Y028413D01*
X045494Y028379D01*
X045486Y028339D01*
X045437Y02833D01*
X045057Y02833D01*
X044948Y028439D01*
X044954Y028496D01*
X044957Y028501D01*
X045243Y028787D01*
X045257Y028808D01*
X045262Y028833D01*
Y028846D01*
X045312Y028861D01*
X04532Y02885D01*
X045354Y028827D01*
X045394Y028819D01*
X045435Y028827D01*
X045469Y02885D01*
X045492Y028884D01*
X0455Y028925D01*
X045492Y028965D01*
X045469Y028999D01*
X045435Y029022D01*
X045394Y02903D01*
X045354Y029022D01*
X045331Y029007D01*
X045316Y029008D01*
X045296Y029015D01*
X045278Y029027D01*
X045275Y029051D01*
X045295Y029081D01*
X045303Y029122D01*
X045295Y029162D01*
X045272Y029196D01*
X045237Y029219D01*
X045197Y029227D01*
X045156Y029219D01*
X045122Y029196D01*
X045099Y029162D01*
X045091Y029122D01*
X045099Y029081D01*
X045117Y029054D01*
X045114Y02903D01*
X045105Y029022D01*
X045084Y029013D01*
X045059Y029011D01*
X045041Y029022D01*
X045001Y02903D01*
X04496Y029022D01*
X044926Y028999D01*
X044903Y028965D01*
X044895Y028925D01*
X044903Y028884D01*
X044926Y02885D01*
X04496Y028827D01*
X045001Y028819D01*
X045024Y028823D01*
X045048Y028777D01*
X044953Y028682D01*
X044907Y028707D01*
X044911Y028728D01*
X044903Y028768D01*
X04488Y028803D01*
X044846Y028826D01*
X044805Y028834D01*
X044765Y028826D01*
X044731Y028803D01*
X044682Y028804D01*
X044648Y028827D01*
X044607Y028835D01*
X044567Y028827D01*
X044563Y028824D01*
X044422Y028965D01*
Y029412D01*
X044451Y029418D01*
X044485Y02944D01*
X044508Y029475D01*
X044516Y029515D01*
X044508Y029556D01*
X044485Y02959D01*
X044451Y029613D01*
X044422Y029619D01*
Y029804D01*
X044451Y02981D01*
X044485Y029833D01*
X044534Y029834D01*
X044568Y029811D01*
X044608Y029803D01*
X044649Y029811D01*
X044683Y029834D01*
X044706Y029868D01*
X044714Y029909D01*
X044706Y029949D01*
X044683Y029984D01*
X044649Y030007D01*
X044608Y030015D01*
X044568Y030007D01*
X044534Y029984D01*
X044485Y029982D01*
X044451Y030005D01*
X044422Y030011D01*
Y030189D01*
X044451Y030195D01*
X044485Y030218D01*
X044532Y030228D01*
X044567Y030205D01*
X044607Y030197D01*
X044648Y030205D01*
X044682Y030228D01*
X044705Y030262D01*
X044713Y030303D01*
X044705Y030343D01*
X044682Y030377D01*
X044648Y0304D01*
X044607Y030408D01*
X044567Y0304D01*
X044532Y030377D01*
X044485Y030368D01*
X044451Y030391D01*
X044422Y030396D01*
Y030788D01*
X044451Y030794D01*
X04448Y030814D01*
X044485Y030817D01*
X044532Y030818D01*
X044567Y030795D01*
X044607Y030787D01*
X044648Y030795D01*
X044682Y030818D01*
X044705Y030853D01*
X044713Y030893D01*
X044705Y030934D01*
X044682Y030968D01*
X044648Y030991D01*
X044607Y030999D01*
X044567Y030991D01*
X044535Y03097D01*
X044514Y030974D01*
X044489Y030998D01*
X044486Y031016D01*
X044508Y03105D01*
X044516Y03109D01*
X044508Y03113D01*
X044485Y031165D01*
X044451Y031188D01*
X044422Y031193D01*
Y03157D01*
X044846Y031994D01*
X044867Y031992D01*
X044901Y031969D01*
X044942Y031961D01*
X044982Y031969D01*
X045017Y031992D01*
X04504Y032026D01*
X045045Y032053D01*
X045096D01*
X0451Y032034D01*
X045123Y031999D01*
X045157Y031977D01*
X045198Y031969D01*
X045238Y031977D01*
X045254Y031987D01*
X045282Y031994D01*
X045317Y031976D01*
X045325Y031965D01*
X045359Y031942D01*
X045399Y031934D01*
X04544Y031942D01*
X045474Y031965D01*
X045521Y031959D01*
X045555Y031936D01*
X045596Y031928D01*
X045636Y031936D01*
X045671Y031959D01*
X045694Y031993D01*
X045702Y032034D01*
X045694Y032074D01*
X045671Y032108D01*
X045636Y032131D01*
X045596Y032139D01*
X045555Y032131D01*
X045521Y032108D01*
X0455Y032111D01*
X045468Y032119D01*
X04544Y032137D01*
X045399Y032145D01*
X045359Y032137D01*
X045343Y032127D01*
X045315Y03212D01*
X04528Y032138D01*
X045272Y032149D01*
X045238Y032172D01*
X045198Y03218D01*
X045157Y032172D01*
X045123Y032149D01*
X0451Y032115D01*
X045094Y032088D01*
X045043D01*
X04504Y032107D01*
X045017Y032141D01*
X045015Y032162D01*
X045237Y032385D01*
X045607D01*
X045619Y032372D01*
X045639Y032335D01*
X045633Y032306D01*
X045641Y032266D01*
X045664Y032231D01*
X045699Y032208D01*
X045739Y0322D01*
X04578Y032208D01*
X045814Y032231D01*
X045871D01*
X045905Y032208D01*
X045946Y0322D01*
X045986Y032208D01*
X046001Y032218D01*
X046037Y032182D01*
X046035Y032179D01*
X046027Y032139D01*
X046035Y032098D01*
X046058Y032064D01*
X046092Y032041D01*
X046133Y032033D01*
X046173Y032041D01*
X046187Y03205D01*
X046238Y032027D01*
X046242Y03201D01*
X046265Y031976D01*
X046299Y031953D01*
X04634Y031945D01*
X04638Y031953D01*
X046414Y031976D01*
X046437Y03201D01*
X046445Y03205D01*
X046437Y032091D01*
X046422Y032114D01*
X046462Y032143D01*
X046496Y03212D01*
X046536Y032112D01*
X046577Y03212D01*
X046611Y032143D01*
X046634Y032177D01*
X046642Y032218D01*
X046674Y03225D01*
X046715Y032258D01*
X046749Y032281D01*
X046759Y032296D01*
X046815D01*
X046826Y032281D01*
X04686Y032258D01*
X046901Y03225D01*
X046941Y032258D01*
X046975Y032281D01*
X046998Y032315D01*
X047001Y032328D01*
X047019Y032358D01*
X047055Y032365D01*
X047068Y032362D01*
X047108Y03237D01*
X04711Y032371D01*
X047126Y032368D01*
X047161Y032348D01*
X047167Y032321D01*
X04719Y032287D01*
X047224Y032264D01*
X047265Y032256D01*
X047305Y032264D01*
X047339Y032287D01*
X047362Y032321D01*
X04737Y032361D01*
X04739Y032385D01*
X04741D01*
X04799Y032966D01*
X051266Y032966D01*
X051542Y033241D01*
X052113Y033241D01*
X052265Y033097D01*
D02*
G37*
G36*
X05005Y03709D02*
Y034905D01*
X049327Y034182D01*
X047683D01*
X0463Y032799D01*
Y032789D01*
X045671D01*
X045656Y032807D01*
X045648Y032847D01*
X045625Y032881D01*
X045591Y032904D01*
X04555Y032912D01*
X04551Y032904D01*
X045475Y032881D01*
X045452Y032847D01*
X045444Y032807D01*
X045429Y032789D01*
X044883D01*
X044174Y033497D01*
Y036794D01*
X044667Y037287D01*
X049853D01*
X05005Y03709D01*
D02*
G37*
%LPC*%
G36*
X051529Y033044D02*
X051489Y033036D01*
X051455Y033013D01*
X051432Y032978D01*
X051424Y032938D01*
X051432Y032897D01*
X051455Y032863D01*
X051489Y03284D01*
X051529Y032832D01*
X05157Y03284D01*
X051604Y032863D01*
X051627Y032897D01*
X051635Y032938D01*
X051627Y032978D01*
X051604Y033013D01*
X05157Y033036D01*
X051529Y033044D01*
D02*
G37*
G36*
X050861Y032495D02*
X050821Y032487D01*
X050786Y032464D01*
X050764Y03243D01*
X050755Y03239D01*
X050764Y032349D01*
X050786Y032315D01*
X050821Y032292D01*
X050861Y032284D01*
X050902Y032292D01*
X050936Y032315D01*
X050959Y032349D01*
X050967Y03239D01*
X050959Y03243D01*
X050936Y032464D01*
X050902Y032487D01*
X050861Y032495D01*
D02*
G37*
G36*
X045394Y03159D02*
X045354Y031581D01*
X04532Y031559D01*
X045297Y031524D01*
X045289Y031484D01*
X045297Y031443D01*
X04532Y031409D01*
X045354Y031386D01*
X045394Y031378D01*
X045435Y031386D01*
X045469Y031409D01*
X045492Y031443D01*
X0455Y031484D01*
X045492Y031524D01*
X045469Y031559D01*
X045435Y031581D01*
X045394Y03159D01*
D02*
G37*
G36*
X044613D02*
X044572Y031581D01*
X044538Y031559D01*
X044515Y031524D01*
X044507Y031484D01*
X044515Y031443D01*
X044538Y031409D01*
X044572Y031386D01*
X044613Y031378D01*
X044653Y031386D01*
X044688Y031409D01*
X044711Y031443D01*
X044719Y031484D01*
X044711Y031524D01*
X044688Y031559D01*
X044653Y031581D01*
X044613Y03159D01*
D02*
G37*
G36*
X044805Y031393D02*
X044765Y031385D01*
X044731Y031362D01*
X044708Y031327D01*
X0447Y031287D01*
X044708Y031246D01*
X044731Y031212D01*
X044765Y031189D01*
X044805Y031181D01*
X044846Y031189D01*
X04488Y031212D01*
X044903Y031246D01*
X044911Y031287D01*
X044903Y031327D01*
X04488Y031362D01*
X044846Y031385D01*
X044805Y031393D01*
D02*
G37*
G36*
X045189D02*
X045148Y031385D01*
X045114Y031362D01*
X045091Y031327D01*
X045083Y031287D01*
X045091Y031246D01*
X045114Y031212D01*
X045127Y031165D01*
X045104Y03113D01*
X045096Y03109D01*
X045104Y03105D01*
X045127Y031015D01*
X045162Y030992D01*
X045202Y030984D01*
X045243Y030992D01*
X045277Y031015D01*
X0453Y03105D01*
X045308Y03109D01*
X0453Y03113D01*
X045277Y031165D01*
X045264Y031212D01*
X045286Y031246D01*
X045294Y031287D01*
X045286Y031327D01*
X045264Y031362D01*
X045229Y031385D01*
X045189Y031393D01*
D02*
G37*
G36*
X045001Y03099D02*
X04496Y030982D01*
X044926Y030959D01*
X044903Y030925D01*
X044895Y030884D01*
X044903Y030844D01*
X044926Y030809D01*
X04496Y030787D01*
X045001Y030779D01*
X045041Y030787D01*
X045076Y030809D01*
X045098Y030844D01*
X045107Y030884D01*
X045098Y030925D01*
X045076Y030959D01*
X045041Y030982D01*
X045001Y03099D01*
D02*
G37*
G36*
X044804Y030799D02*
X044763Y030791D01*
X044729Y030768D01*
X044706Y030734D01*
X044698Y030693D01*
X044706Y030653D01*
X044729Y030619D01*
X044763Y030596D01*
X044804Y030588D01*
X044844Y030596D01*
X044879Y030619D01*
X044902Y030653D01*
X04491Y030693D01*
X044902Y030734D01*
X044879Y030768D01*
X044844Y030791D01*
X044804Y030799D01*
D02*
G37*
G36*
X045394Y030601D02*
X045354Y030593D01*
X04532Y03057D01*
X045297Y030536D01*
X045289Y030496D01*
X045297Y030455D01*
X04532Y030421D01*
X045354Y030398D01*
X045394Y03039D01*
X045435Y030398D01*
X045469Y030421D01*
X045492Y030455D01*
X0455Y030496D01*
X045492Y030536D01*
X045469Y03057D01*
X045435Y030593D01*
X045394Y030601D01*
D02*
G37*
G36*
X045198Y030408D02*
X045157Y0304D01*
X045123Y030377D01*
X0451Y030343D01*
X045092Y030303D01*
X0451Y030262D01*
X045123Y030228D01*
X045157Y030205D01*
X045198Y030197D01*
X045238Y030205D01*
X045272Y030228D01*
X045295Y030262D01*
X045303Y030303D01*
X045295Y030343D01*
X045272Y030377D01*
X045238Y0304D01*
X045198Y030408D01*
D02*
G37*
G36*
X0448Y030212D02*
X04476Y030203D01*
X044725Y030181D01*
X044702Y030146D01*
X044694Y030106D01*
X044702Y030065D01*
X044725Y030031D01*
X04476Y030008D01*
X0448Y03D01*
X044841Y030008D01*
X044875Y030031D01*
X044898Y030065D01*
X044906Y030106D01*
X044898Y030146D01*
X044875Y030181D01*
X044841Y030203D01*
X0448Y030212D01*
D02*
G37*
G36*
X045383Y030217D02*
X045343Y030209D01*
X045309Y030186D01*
X045286Y030151D01*
X045278Y030111D01*
X045286Y03007D01*
X045309Y030036D01*
X045343Y030013D01*
X045383Y030005D01*
X045424Y030013D01*
X045458Y030036D01*
X045514Y03003D01*
X045517Y030027D01*
X045551Y030004D01*
X045591Y029996D01*
X045632Y030004D01*
X045666Y030027D01*
X045689Y030062D01*
X045697Y030102D01*
X045689Y030143D01*
X045666Y030177D01*
X045632Y0302D01*
X045591Y030208D01*
X045551Y0302D01*
X045517Y030177D01*
X04546Y030183D01*
X045458Y030186D01*
X045424Y030209D01*
X045383Y030217D01*
D02*
G37*
G36*
X045001Y029818D02*
X04496Y02981D01*
X044931Y02979D01*
X044926Y029787D01*
X044879Y029785D01*
X044844Y029808D01*
X044804Y029816D01*
X044763Y029808D01*
X044729Y029785D01*
X044706Y029751D01*
X044698Y029711D01*
X044706Y02967D01*
X044729Y029636D01*
X044763Y029613D01*
X044804Y029605D01*
X044844Y029613D01*
X044874Y029632D01*
X044879Y029636D01*
X044926Y029637D01*
X04496Y029614D01*
X045001Y029606D01*
X045041Y029614D01*
X045076Y029637D01*
X045098Y029672D01*
X045107Y029712D01*
X045098Y029753D01*
X045076Y029787D01*
X045041Y02981D01*
X045001Y029818D01*
D02*
G37*
G36*
X045591Y029828D02*
X045551Y029819D01*
X045517Y029797D01*
X045494Y029762D01*
X045486Y029722D01*
X045494Y029681D01*
X045517Y029647D01*
X045551Y029624D01*
X045591Y029616D01*
X045632Y029624D01*
X045666Y029647D01*
X045689Y029681D01*
X045697Y029722D01*
X045689Y029762D01*
X045666Y029797D01*
X045632Y029819D01*
X045591Y029828D01*
D02*
G37*
G36*
Y029424D02*
X045551Y029416D01*
X045517Y029393D01*
X045494Y029359D01*
X045486Y029318D01*
X045494Y029278D01*
X045517Y029244D01*
X045551Y029221D01*
X045591Y029213D01*
X045632Y029221D01*
X045666Y029244D01*
X045689Y029278D01*
X045697Y029318D01*
X045689Y029359D01*
X045666Y029393D01*
X045632Y029416D01*
X045591Y029424D01*
D02*
G37*
G36*
X044804Y029423D02*
X044763Y029415D01*
X044729Y029392D01*
X044706Y029357D01*
X044698Y029317D01*
X044706Y029276D01*
X044729Y029242D01*
X044763Y029219D01*
X044804Y029211D01*
X044844Y029219D01*
X044879Y029242D01*
X044902Y029276D01*
X04491Y029317D01*
X044902Y029357D01*
X044879Y029392D01*
X044844Y029415D01*
X044804Y029423D01*
D02*
G37*
G36*
X047134Y037036D02*
X047093Y037028D01*
X047059Y037005D01*
X04705Y036992D01*
X046993Y036992D01*
X046985Y037005D01*
X04695Y037028D01*
X04691Y037036D01*
X046869Y037028D01*
X046835Y037005D01*
X046812Y03697D01*
X046804Y03693D01*
X046812Y036889D01*
X046835Y036855D01*
X046869Y036832D01*
X04691Y036824D01*
X04695Y036832D01*
X046985Y036855D01*
X046993Y036868D01*
X04705Y036868D01*
X047059Y036856D01*
X047093Y036833D01*
X047134Y036825D01*
X047174Y036833D01*
X047208Y036856D01*
X047262Y036855D01*
X047296Y036832D01*
X047337Y036824D01*
X047377Y036832D01*
X047412Y036855D01*
X047435Y036889D01*
X047443Y03693D01*
X047435Y03697D01*
X047412Y037005D01*
X047377Y037028D01*
X047337Y037036D01*
X047296Y037028D01*
X047262Y037005D01*
X047208Y037005D01*
X047174Y037028D01*
X047134Y037036D01*
D02*
G37*
G36*
X049838Y037137D02*
X049798Y037129D01*
X049764Y037106D01*
X049741Y037072D01*
X049733Y037031D01*
X049741Y036991D01*
X049764Y036956D01*
X049798Y036933D01*
X049838Y036925D01*
X049879Y036933D01*
X049913Y036956D01*
X049936Y036991D01*
X049944Y037031D01*
X049936Y037072D01*
X049913Y037106D01*
X049879Y037129D01*
X049838Y037137D01*
D02*
G37*
G36*
X04644Y037036D02*
X0464Y037028D01*
X046365Y037005D01*
X046342Y036971D01*
X046334Y03693D01*
X046342Y03689D01*
X046365Y036856D01*
X0464Y036833D01*
X04644Y036825D01*
X046481Y036833D01*
X046515Y036856D01*
X046538Y03689D01*
X046546Y03693D01*
X046538Y036971D01*
X046515Y037005D01*
X046481Y037028D01*
X04644Y037036D01*
D02*
G37*
G36*
X048036Y037008D02*
X047995Y037D01*
X047961Y036977D01*
X047938Y036943D01*
X04793Y036903D01*
X047938Y036862D01*
X047961Y036828D01*
X047995Y036805D01*
X048036Y036797D01*
X048076Y036805D01*
X04811Y036828D01*
X048133Y036862D01*
X048141Y036903D01*
X048133Y036943D01*
X04811Y036977D01*
X048076Y037D01*
X048036Y037008D01*
D02*
G37*
G36*
X048824Y036996D02*
X048784Y036988D01*
X04875Y036965D01*
X048727Y036931D01*
X048719Y036891D01*
X048727Y03685D01*
X04875Y036816D01*
X048784Y036793D01*
X048824Y036785D01*
X048865Y036793D01*
X048899Y036816D01*
X048922Y03685D01*
X04893Y036891D01*
X048922Y036931D01*
X048899Y036965D01*
X048865Y036988D01*
X048824Y036996D01*
D02*
G37*
G36*
X04787Y03653D02*
X047829Y036522D01*
X047795Y0365D01*
X047772Y036465D01*
X047764Y036425D01*
X047772Y036384D01*
X047795Y03635D01*
X047829Y036327D01*
X04787Y036319D01*
X04791Y036327D01*
X047945Y03635D01*
X047968Y036384D01*
X047976Y036425D01*
X047968Y036465D01*
X047945Y0365D01*
X04791Y036522D01*
X04787Y03653D01*
D02*
G37*
G36*
X04624Y036487D02*
X046199Y036479D01*
X046165Y036456D01*
X046142Y036421D01*
X046134Y036381D01*
X046142Y036341D01*
X046165Y036306D01*
X046199Y036283D01*
X04624Y036275D01*
X04628Y036283D01*
X046315Y036306D01*
X046338Y036341D01*
X046346Y036381D01*
X046338Y036421D01*
X046315Y036456D01*
X04628Y036479D01*
X04624Y036487D01*
D02*
G37*
G36*
X045887Y036527D02*
X045831Y036516D01*
X045784Y036484D01*
X045752Y036437D01*
X045741Y036381D01*
X045752Y036325D01*
X045784Y036278D01*
X045831Y036246D01*
X045887Y036235D01*
X045943Y036246D01*
X04599Y036278D01*
X046022Y036325D01*
X046033Y036381D01*
X046022Y036437D01*
X04599Y036484D01*
X045943Y036516D01*
X045887Y036527D01*
D02*
G37*
G36*
X044653Y036282D02*
X044612Y036274D01*
X044578Y036251D01*
X044555Y036216D01*
X044547Y036176D01*
X044555Y036135D01*
X044578Y036101D01*
X044612Y036078D01*
X044653Y03607D01*
X044693Y036078D01*
X044727Y036101D01*
X04475Y036135D01*
X044758Y036176D01*
X04475Y036216D01*
X044727Y036251D01*
X044693Y036274D01*
X044653Y036282D01*
D02*
G37*
G36*
X049021Y036533D02*
X048965Y036522D01*
X048918Y036491D01*
X048886Y036443D01*
X048875Y036387D01*
X048886Y036332D01*
X048918Y036284D01*
X048901Y036235D01*
X048889Y036216D01*
X048878Y036161D01*
X048889Y036105D01*
X04892Y036057D01*
X048968Y036026D01*
X049023Y036015D01*
X049079Y036026D01*
X049127Y036057D01*
X049158Y036105D01*
X049169Y036161D01*
X049158Y036216D01*
X049127Y036264D01*
X049143Y036313D01*
X049156Y036332D01*
X049167Y036387D01*
X049156Y036443D01*
X049124Y036491D01*
X049077Y036522D01*
X049021Y036533D01*
D02*
G37*
G36*
X044725Y036019D02*
X044685Y036011D01*
X044651Y035988D01*
X044628Y035954D01*
X04462Y035913D01*
X044628Y035873D01*
X044651Y035839D01*
X044685Y035816D01*
X044725Y035808D01*
X044766Y035816D01*
X0448Y035839D01*
X044823Y035873D01*
X044831Y035913D01*
X044823Y035954D01*
X0448Y035988D01*
X044766Y036011D01*
X044725Y036019D01*
D02*
G37*
G36*
X049138Y035959D02*
X049082Y035948D01*
X049034Y035917D01*
X049003Y035869D01*
X048992Y035813D01*
X049003Y035758D01*
X049034Y03571D01*
X049082Y035679D01*
X049138Y035668D01*
X049193Y035679D01*
X049241Y03571D01*
X049272Y035758D01*
X049283Y035813D01*
X049272Y035869D01*
X049241Y035917D01*
X049193Y035948D01*
X049138Y035959D01*
D02*
G37*
G36*
X047868Y035749D02*
X047828Y035741D01*
X047794Y035718D01*
X047771Y035683D01*
X047763Y035643D01*
X047771Y035602D01*
X047794Y035568D01*
X047828Y035545D01*
X047868Y035537D01*
X047909Y035545D01*
X047943Y035568D01*
X047966Y035602D01*
X047974Y035643D01*
X047966Y035683D01*
X047943Y035718D01*
X047909Y035741D01*
X047868Y035749D01*
D02*
G37*
G36*
X044389Y035344D02*
X044334Y035333D01*
X044286Y035301D01*
X044255Y035254D01*
X044244Y035198D01*
X044255Y035142D01*
X044286Y035095D01*
X044334Y035064D01*
X044389Y035052D01*
X044445Y035064D01*
X044493Y035095D01*
X044524Y035142D01*
X044535Y035198D01*
X044524Y035254D01*
X044493Y035301D01*
X044445Y035333D01*
X044389Y035344D01*
D02*
G37*
G36*
X047922Y035325D02*
X047882Y035317D01*
X047848Y035294D01*
X047825Y03526D01*
X047817Y035219D01*
X047825Y035179D01*
X047848Y035144D01*
X047874Y035126D01*
X047883Y035082D01*
X047884Y035073D01*
X047852Y035025D01*
X047841Y034969D01*
X047852Y034914D01*
X047884Y034866D01*
X047931Y034835D01*
X047987Y034824D01*
X048043Y034835D01*
X04809Y034866D01*
X048122Y034914D01*
X048133Y034969D01*
X048122Y035025D01*
X04809Y035073D01*
X048043Y035104D01*
X048028Y035107D01*
X048024Y035111D01*
X048009Y035162D01*
X04802Y035179D01*
X048028Y035219D01*
X04802Y03526D01*
X047997Y035294D01*
X047963Y035317D01*
X047922Y035325D01*
D02*
G37*
G36*
X044389Y034997D02*
X044334Y034986D01*
X044286Y034954D01*
X044255Y034907D01*
X044244Y034851D01*
X044255Y034795D01*
X044286Y034748D01*
X044334Y034716D01*
X044389Y034705D01*
X044445Y034716D01*
X044493Y034748D01*
X044524Y034795D01*
X044535Y034851D01*
X044524Y034907D01*
X044493Y034954D01*
X044445Y034986D01*
X044389Y034997D01*
D02*
G37*
G36*
X048886Y034875D02*
X048846Y034867D01*
X048812Y034844D01*
X048789Y034809D01*
X048781Y034769D01*
X048789Y034728D01*
X048812Y034694D01*
X048846Y034671D01*
X048886Y034663D01*
X048927Y034671D01*
X048961Y034694D01*
X048984Y034728D01*
X048992Y034769D01*
X048984Y034809D01*
X048961Y034844D01*
X048927Y034867D01*
X048886Y034875D01*
D02*
G37*
G36*
Y034596D02*
X048846Y034588D01*
X048812Y034565D01*
X048789Y034531D01*
X048781Y034491D01*
X048789Y03445D01*
X048812Y034416D01*
X048846Y034393D01*
X048886Y034385D01*
X048927Y034393D01*
X048961Y034416D01*
X048984Y03445D01*
X048992Y034491D01*
X048984Y034531D01*
X048961Y034565D01*
X048927Y034588D01*
X048886Y034596D01*
D02*
G37*
G36*
X044389Y034649D02*
X044334Y034638D01*
X044286Y034606D01*
X044255Y034559D01*
X044244Y034503D01*
X044255Y034447D01*
X044286Y0344D01*
X044334Y034368D01*
X044389Y034357D01*
X044445Y034368D01*
X044493Y0344D01*
X044524Y034447D01*
X044535Y034503D01*
X044524Y034559D01*
X044493Y034606D01*
X044445Y034638D01*
X044389Y034649D01*
D02*
G37*
G36*
X047357Y034578D02*
X047301Y034567D01*
X047254Y034535D01*
X047222Y034488D01*
X047211Y034432D01*
X047222Y034376D01*
X047254Y034329D01*
X047301Y034297D01*
X047357Y034286D01*
X047413Y034297D01*
X04746Y034329D01*
X047492Y034376D01*
X047503Y034432D01*
X047492Y034488D01*
X04746Y034535D01*
X047413Y034567D01*
X047357Y034578D01*
D02*
G37*
G36*
X044864Y034287D02*
X044824Y034279D01*
X044789Y034256D01*
X044766Y034222D01*
X044758Y034182D01*
X044766Y034141D01*
X044789Y034107D01*
X044824Y034084D01*
X044864Y034076D01*
X044904Y034084D01*
X044939Y034107D01*
X044962Y034141D01*
X04497Y034182D01*
X044962Y034222D01*
X044939Y034256D01*
X044904Y034279D01*
X044864Y034287D01*
D02*
G37*
G36*
X04709Y034301D02*
X047034Y03429D01*
X046987Y034259D01*
X046955Y034211D01*
X046944Y034156D01*
X046955Y0341D01*
X046987Y034052D01*
X047034Y034021D01*
X04709Y03401D01*
X047146Y034021D01*
X047193Y034052D01*
X047225Y0341D01*
X047236Y034156D01*
X047225Y034211D01*
X047193Y034259D01*
X047146Y03429D01*
X04709Y034301D01*
D02*
G37*
G36*
X044389Y03401D02*
X044349Y034002D01*
X044315Y033979D01*
X044292Y033945D01*
X044284Y033905D01*
X044292Y033864D01*
X044315Y03383D01*
X044349Y033807D01*
X044389Y033799D01*
X04443Y033807D01*
X044464Y03383D01*
X044487Y033864D01*
X044495Y033905D01*
X044487Y033945D01*
X044464Y033979D01*
X04443Y034002D01*
X044389Y03401D01*
D02*
G37*
G36*
X045411Y033988D02*
X045355Y033977D01*
X045307Y033945D01*
X045276Y033898D01*
X045265Y033842D01*
X045276Y033786D01*
X045307Y033739D01*
X045355Y033707D01*
X045411Y033696D01*
X045466Y033707D01*
X045514Y033739D01*
X045545Y033786D01*
X045556Y033842D01*
X045545Y033898D01*
X045514Y033945D01*
X045466Y033977D01*
X045411Y033988D01*
D02*
G37*
G36*
X046202Y033636D02*
X046161Y033628D01*
X046127Y033605D01*
X046104Y033571D01*
X046096Y033531D01*
X046104Y03349D01*
X046127Y033456D01*
X046161Y033433D01*
X046202Y033425D01*
X046242Y033433D01*
X046277Y033456D01*
X046299Y03349D01*
X046308Y033531D01*
X046299Y033571D01*
X046277Y033605D01*
X046242Y033628D01*
X046202Y033636D01*
D02*
G37*
G36*
X046588Y033718D02*
X046548Y03371D01*
X046513Y033687D01*
X04649Y033653D01*
X046482Y033612D01*
X04649Y033572D01*
X046513Y033538D01*
X046532Y033525D01*
X046562Y03348D01*
X046554Y03344D01*
X046562Y033399D01*
X046585Y033365D01*
X046619Y033342D01*
X046659Y033334D01*
X0467Y033342D01*
X046734Y033365D01*
X046757Y033399D01*
X046765Y03344D01*
X046757Y03348D01*
X046734Y033514D01*
X046716Y033527D01*
X046686Y033572D01*
X046694Y033612D01*
X046686Y033653D01*
X046663Y033687D01*
X046629Y03371D01*
X046588Y033718D01*
D02*
G37*
%LPD*%
D10*
X049232Y031963D02*
X049425Y03177D01*
X048781Y031963D02*
X049232D01*
X04861Y031793D02*
X048781Y031963D01*
X052602Y032407D02*
Y033414D01*
X051965Y03177D02*
X052602Y032407D01*
X049425Y03177D02*
X051965D01*
X043582Y03253D02*
Y034484D01*
X043403Y034663D02*
X043582Y034484D01*
X052404Y032686D02*
Y033249D01*
X051424Y034229D02*
Y035743D01*
Y034229D02*
X052404Y033249D01*
X052004Y034011D02*
X052602Y033414D01*
X052004Y034011D02*
Y034451D01*
X04733Y031622D02*
X047433D01*
X047442Y031306D02*
X047619Y031484D01*
X048798Y031528D02*
X050913D01*
X048682Y031644D02*
X048798Y031528D01*
X047619Y031484D02*
X048194D01*
X048355Y031644D02*
X048682D01*
X048194Y031484D02*
X048355Y031644D01*
X053383Y031684D02*
Y035088D01*
X053031Y031332D02*
X053383Y031684D01*
X053084Y035387D02*
X053383Y035088D01*
X050913Y031528D02*
X050994Y031447D01*
X052503D02*
X052619Y031332D01*
X050994Y031447D02*
X052503D01*
X052619Y031332D02*
X053031D01*
X052857Y035387D02*
X053084D01*
X052848Y035396D02*
X052857Y035387D01*
X052803Y031891D02*
X053031Y032119D01*
X052835Y033663D02*
X053031Y033467D01*
Y032119D02*
Y033467D01*
X052835Y033663D02*
Y034174D01*
X052558Y034451D02*
Y034451D01*
Y034451D02*
X052835Y034174D01*
X052376Y031891D02*
X052803D01*
X047603Y031793D02*
X04861D01*
X047433Y031622D02*
X047603Y031793D01*
X044332Y028544D02*
X044908D01*
X044209Y028666D02*
Y030024D01*
Y028666D02*
X044332Y028544D01*
X044908D02*
X045197Y028833D01*
Y029122D01*
X043805Y030428D02*
X044209Y030024D01*
X043805Y030428D02*
Y031647D01*
X04387Y031711D01*
Y032242D01*
X043582Y03253D02*
X04387Y032242D01*
D12*
X046124Y031622D02*
X04733D01*
X046843Y031419D02*
X047133Y031129D01*
X045391Y03089D02*
X046124Y031622D01*
X046701Y031419D02*
X046843D01*
X045978Y030696D02*
X046701Y031419D01*
X045591Y030696D02*
X045978D01*
D74*
X051223Y027636D02*
X051357D01*
X051418Y027697D01*
X051116Y027742D02*
X051223Y027636D01*
X049912Y029112D02*
X050456D01*
X050616Y028632D02*
Y028952D01*
X050456Y029112D02*
X050616Y028952D01*
X04891Y029733D02*
X049632D01*
X04981Y029214D02*
Y029555D01*
X049632Y029733D02*
X04981Y029555D01*
X048799Y029288D02*
Y029552D01*
X048518Y029833D02*
X048799Y029552D01*
X048134Y029833D02*
X048518D01*
X051736Y02746D02*
Y02756D01*
X051562Y027734D02*
X051736Y02756D01*
X051562Y027734D02*
Y027839D01*
X050538Y027259D02*
Y027527D01*
X050382Y027683D02*
X050538Y027527D01*
X049565Y027683D02*
X050382D01*
X046423Y030355D02*
X046714Y030645D01*
X046423Y030258D02*
Y030355D01*
Y030258D02*
X046576Y030106D01*
X046772D02*
X046904Y030237D01*
Y030356D01*
X048014Y029952D02*
X048134Y029833D01*
X047734Y029952D02*
X048014D01*
X048326Y030034D02*
X048609D01*
X048111Y030249D02*
X048326Y030034D01*
X047698Y030249D02*
X048111D01*
X047307Y029858D02*
X047698Y030249D01*
X047307Y029676D02*
Y029858D01*
X047733Y030113D02*
X048039D01*
X047411Y029791D02*
X047733Y030113D01*
X047411Y029563D02*
Y029791D01*
X047291Y030958D02*
X047496Y031163D01*
X046905Y030958D02*
X047291D01*
X046846Y031017D02*
X046905Y030958D01*
X04669Y031017D02*
X046846D01*
X046615Y030942D02*
X04669Y031017D01*
X046615Y030859D02*
Y030942D01*
X050619Y028007D02*
X050834Y027792D01*
Y02749D02*
Y027792D01*
Y02749D02*
X050979Y027346D01*
X050683Y028187D02*
X050966Y027905D01*
Y027671D02*
Y027905D01*
Y027671D02*
X051109Y027527D01*
X047513Y029732D02*
X047734Y029952D01*
X047513Y029435D02*
Y029732D01*
X047351Y029272D02*
X047513Y029435D01*
X047609Y029664D02*
X047762Y029816D01*
X047609Y029479D02*
Y029664D01*
Y029479D02*
X047758Y02933D01*
X049406Y029619D02*
X049495Y02953D01*
X048879Y029619D02*
X049406D01*
X048564Y029934D02*
X048879Y029619D01*
X048609Y030034D02*
X04891Y029733D01*
X048664Y030133D02*
X048928Y029868D01*
X048428Y030133D02*
X048664D01*
X048226Y030335D02*
X048428Y030133D01*
X048218Y029934D02*
X048564D01*
X048039Y030113D02*
X048218Y029934D01*
X047585Y030523D02*
X047808D01*
X047168Y030106D02*
X047585Y030523D01*
X047645Y030393D02*
X047883D01*
X046767Y029515D02*
X047645Y030393D01*
X049975Y027194D02*
X049978Y027198D01*
X049811Y026922D02*
X049975Y027085D01*
X047348Y026922D02*
X049811D01*
X049975Y027085D02*
Y027194D01*
X047205Y027065D02*
X047348Y026922D01*
X046316Y02744D02*
X04669Y027065D01*
X047205D01*
X046316Y02744D02*
Y028005D01*
X046036Y02888D02*
X046126Y02879D01*
Y028564D02*
Y02879D01*
X046036Y028474D02*
X046126Y028564D01*
X04632Y030052D02*
X04644D01*
X046147Y029485D02*
Y029879D01*
X04632Y030052D01*
X046036Y029374D02*
X046147Y029485D01*
X04644Y030052D02*
X046576Y029917D01*
Y029712D02*
Y029917D01*
X043083Y034515D02*
X043234Y034363D01*
X043083Y034515D02*
Y036324D01*
X043358Y0366D01*
X043234Y031964D02*
Y034363D01*
X043358Y0366D02*
X043957D01*
X046036Y028285D02*
X046316Y028005D01*
X046436Y027521D02*
Y027997D01*
Y027521D02*
X046749Y027209D01*
X047444D01*
X046436Y027997D02*
X046721Y028282D01*
X042993Y027044D02*
X043287Y027338D01*
X042993Y026805D02*
Y027044D01*
X042869Y026681D02*
X042993Y026805D01*
X043287Y027338D02*
X043831D01*
X043125Y026443D02*
X043715Y025852D01*
X043125Y026443D02*
Y026681D01*
X043715Y025852D02*
X049557D01*
X042816Y026459D02*
X042816D01*
X043581Y025695D01*
X047983D01*
X04267Y026606D02*
X042816Y026459D01*
X047265Y031129D02*
X047442Y031306D01*
X049557Y025852D02*
X050003Y025407D01*
X043831Y027338D02*
X045168Y026D01*
X049843D02*
X050436Y025407D01*
X045168Y026D02*
X049843D01*
X044403Y026951D02*
X045207Y026147D01*
X050496D02*
X050857Y025786D01*
X045207Y026147D02*
X050496D01*
X050659Y026289D02*
X051302Y025645D01*
X045318Y026454D02*
X045483Y026289D01*
X050659D01*
X045318Y026454D02*
Y027017D01*
X051302Y025407D02*
Y025645D01*
X044687Y027178D02*
X045157D01*
X045318Y027017D01*
X044607Y027258D02*
Y027547D01*
Y027258D02*
X044687Y027178D01*
X044403Y026951D02*
Y027948D01*
X050857Y025419D02*
Y025786D01*
Y025419D02*
X050869Y025407D01*
X043623Y028728D02*
X044403Y027948D01*
X047983Y025695D02*
X048271Y025407D01*
X04267Y026606D02*
Y027072D01*
X043207Y027721D02*
X043229Y027744D01*
X043207Y027608D02*
Y027721D01*
X04267Y027072D02*
X043207Y027608D01*
X04347Y028692D02*
Y028772D01*
X043623Y028925D01*
X04347Y028692D02*
X04362Y028542D01*
Y02835D02*
Y028542D01*
X042283Y027474D02*
X042743D01*
X04362Y02835D01*
X041005Y027209D02*
X042019D01*
X042283Y027474D01*
X043065Y030223D02*
X043627Y030784D01*
Y031572D01*
X043234Y031964D02*
X043627Y031572D01*
X041947Y02988D02*
X04239Y030323D01*
X041668Y028509D02*
X041947Y028787D01*
Y02988D01*
X041005Y028509D02*
X041668D01*
X04239Y030323D02*
X042914D01*
X043426Y030835D02*
Y031484D01*
X042914Y030323D02*
X043426Y030835D01*
X043065Y028695D02*
X043426Y028334D01*
X043065Y028695D02*
Y030223D01*
X042452Y031842D02*
Y032264D01*
X041005Y032839D02*
X041877D01*
X042452Y032264D01*
X047133Y031129D02*
X047265D01*
X049145Y031078D02*
X049258Y031191D01*
X048887D02*
X049001Y031078D01*
X049145D01*
X048657Y031191D02*
X048887D01*
X049258D02*
X049395D01*
X050147Y030227D02*
Y030439D01*
X049395Y031191D02*
X050147Y030439D01*
X048678Y028075D02*
X048913Y02784D01*
X049408D01*
X049565Y027683D01*
X04981Y027259D02*
X049888Y027338D01*
X050044D01*
X04981Y027136D02*
Y027259D01*
X050174Y027467D02*
X050293D01*
X050397Y027363D01*
X050044Y027338D02*
X050174Y027467D01*
X048464Y027586D02*
X048915D01*
X048346Y027704D02*
X048464Y027586D01*
X050979Y027346D02*
X051621D01*
X04802Y030736D02*
X048212D01*
X047808Y030523D02*
X04802Y030736D01*
X047883Y030393D02*
X048022Y030532D01*
X047513Y028235D02*
Y028755D01*
X047051Y028053D02*
X04733D01*
X047513Y028235D01*
X048176Y027704D02*
X048346D01*
X048083Y02761D02*
X048176Y027704D01*
X04691Y028672D02*
X047235D01*
X04683Y028273D02*
Y028591D01*
X04691Y028672D01*
X049495Y029051D02*
Y02953D01*
X049565Y028981D02*
X049645D01*
X049495Y029051D02*
X049565Y028981D01*
X049645D02*
X049728Y029064D01*
X048022Y030532D02*
X048157D01*
X048226Y030463D01*
Y030335D02*
Y030463D01*
X048928Y029868D02*
X049712D01*
X049941Y029639D02*
X049941D01*
X049712Y029868D02*
X049941Y029639D01*
X051773Y028646D02*
X051963D01*
X051683Y028409D02*
Y028556D01*
X051773Y028646D01*
X051963D02*
X052025Y028583D01*
Y028516D02*
Y028583D01*
X051875Y028469D02*
X051978D01*
X052025Y028516D01*
X051869Y028462D02*
X051875Y028469D01*
X051589Y028315D02*
X051683Y028409D01*
X049911Y028975D02*
X050188D01*
X049728Y029064D02*
X049822D01*
X049911Y028975D01*
X050363Y028641D02*
Y028801D01*
X050188Y028975D02*
X050363Y028801D01*
X050147Y029327D02*
Y029433D01*
X049941Y029639D02*
X050147Y029433D01*
X0511Y028315D02*
X051589D01*
X050732Y028683D02*
X0511Y028315D01*
X051185Y028637D02*
X051605D01*
X051745Y028777D02*
X051863D01*
X051605Y028637D02*
X051745Y028777D01*
X051736Y02777D02*
Y027917D01*
X05198Y027304D02*
Y027525D01*
X051736Y02777D02*
X05198Y027525D01*
X051621Y027346D02*
X051736Y02746D01*
X049898Y028007D02*
X050619D01*
X051109Y027527D02*
X051541D01*
X050209Y028187D02*
X050683D01*
X046036Y028285D02*
Y028474D01*
X047444Y027209D02*
X047579Y027074D01*
X048463Y029724D02*
X048694Y029492D01*
X04808Y029724D02*
X048463D01*
X047987Y029816D02*
X04808Y029724D01*
X048355Y030376D02*
Y030593D01*
X048212Y030736D02*
X048355Y030593D01*
X049807Y030012D02*
Y030145D01*
X050241Y029578D02*
X050375D01*
X049807Y030012D02*
X050241Y029578D01*
X051086Y028162D02*
X051331D01*
X050616Y028632D02*
X051086Y028162D01*
X051331D02*
X051418Y028075D01*
X05109Y027964D02*
X051116D01*
X05029Y028496D02*
X050558D01*
X05109Y027964D01*
X04981Y029214D02*
X049912Y029112D01*
X049357Y028849D02*
X049579Y028627D01*
X049357Y028849D02*
Y029397D01*
X049579Y028627D02*
X049823D01*
X049415Y028513D02*
X050058D01*
X049095Y028833D02*
X049415Y028513D01*
X048957Y028833D02*
X049095D01*
X049157Y028549D02*
X049331Y028376D01*
X05002D01*
X048859Y028549D02*
X049157D01*
X0491Y029403D02*
X049168Y029471D01*
X049282D02*
X049357Y029397D01*
X049168Y029471D02*
X049282D01*
X0491Y029233D02*
Y029403D01*
X050857Y028764D02*
Y029096D01*
X050375Y029578D02*
X050857Y029096D01*
X049307Y030245D02*
X049362Y030191D01*
X048486Y030245D02*
X049307D01*
X049362Y030024D02*
Y030191D01*
X049419Y029967D02*
X049519D01*
X04957Y030018D01*
X049362Y030024D02*
X049419Y029967D01*
X04957Y030018D02*
Y030172D01*
X049626Y030228D02*
X049724D01*
X04957Y030172D02*
X049626Y030228D01*
X049724D02*
X049807Y030145D01*
X048282Y030838D02*
X048489Y030631D01*
X047428Y030731D02*
X047535Y030838D01*
X048282D01*
X047007Y030145D02*
X047226Y030364D01*
X047007Y030145D02*
Y030145D01*
X047226Y030364D02*
X047226D01*
X047337Y030475D01*
X046743Y029882D02*
X047007Y030145D01*
X048489Y030424D02*
Y030631D01*
X047496Y031163D02*
X048364D01*
X048527Y031325D01*
X04751Y031D02*
X048466D01*
X048657Y031191D01*
X047349Y030839D02*
X04751Y031D01*
X047428Y030731D02*
X047428D01*
X047337Y03064D02*
X047428Y030731D01*
X047337Y030475D02*
Y03064D01*
X050997Y028825D02*
Y029147D01*
X050028Y030195D02*
X05047Y029753D01*
Y029674D02*
X050997Y029147D01*
X05047Y029674D02*
Y029753D01*
X049928Y030195D02*
X050028D01*
X049778Y030345D02*
X049928Y030195D01*
X046576Y029521D02*
X046743Y029689D01*
Y029882D01*
X046913Y030839D02*
X047349D01*
X047146Y029515D02*
X047307Y029676D01*
X046969Y029515D02*
X047146D01*
X052178Y028322D02*
X052263Y028237D01*
Y028099D02*
Y028237D01*
X051808Y028322D02*
X052178D01*
X051822Y028003D02*
X052167D01*
X052263Y028099D01*
X05186Y027184D02*
X05198Y027304D01*
X050887Y027184D02*
X05186D01*
X050683Y027388D02*
X050887Y027184D01*
X050683Y027388D02*
Y027654D01*
X047985Y028824D02*
X048229Y02858D01*
Y028263D02*
Y02858D01*
Y028263D02*
X048417Y028075D01*
X048134Y028881D02*
X048351Y028664D01*
Y028436D02*
X048552Y028235D01*
X048351Y028436D02*
Y028664D01*
X048552Y028235D02*
X048868D01*
X049682Y02802D02*
X049862Y02784D01*
X048868Y028235D02*
X049083Y02802D01*
X049682D01*
X051541Y028155D02*
X05155Y028163D01*
X051649D01*
X051808Y028322D01*
X049862Y02784D02*
X050497D01*
X050683Y027654D01*
X050538Y027259D02*
X05075Y027046D01*
X051736Y027917D02*
X051822Y028003D01*
X047513Y028755D02*
X047616Y028858D01*
Y029109D01*
X047235Y028672D02*
X047295Y028731D01*
Y028824D01*
X047241Y028877D02*
X047295Y028824D01*
X046851Y028877D02*
X047241D01*
X047928Y029147D02*
Y029473D01*
X047808Y028826D02*
Y029026D01*
X047928Y029147D01*
X047758Y029251D02*
Y02933D01*
X047616Y029109D02*
X047758Y029251D01*
X047985Y028944D02*
X04808Y029039D01*
Y029501D01*
X047985Y028824D02*
Y028944D01*
X048694Y029096D02*
X048957Y028833D01*
X048694Y029096D02*
Y029492D01*
X05002Y028376D02*
X050209Y028187D01*
X047762Y029816D02*
X047987D01*
X04683Y028273D02*
X047051Y028053D01*
X047107Y027885D02*
X047457D01*
X047017Y027795D02*
X047107Y027885D01*
X047457D02*
X047652Y02808D01*
X048924Y029163D02*
X04903D01*
X048799Y029288D02*
X048924Y029163D01*
X04903D02*
X0491Y029233D01*
X052008Y027046D02*
X052253Y027291D01*
X051881Y027855D02*
X052253Y027483D01*
Y027291D02*
Y027483D01*
X05075Y027046D02*
X052008D01*
X050017Y028862D02*
X050098Y028781D01*
X04994Y028862D02*
X050017D01*
X049864Y028786D02*
X04994Y028862D01*
X049864Y028668D02*
Y028786D01*
X049823Y028627D02*
X049864Y028668D01*
X050098Y028688D02*
Y028781D01*
X048489Y030424D02*
X048568Y030345D01*
X049778D01*
X050997Y028825D02*
X051185Y028637D01*
X047958Y02761D02*
X048083D01*
X047854Y027713D02*
X047958Y02761D01*
X047854Y027713D02*
Y028336D01*
X047934Y028415D01*
X047652Y02808D02*
Y02867D01*
X049864Y027508D02*
X049976D01*
X049978Y02751D01*
X049722Y027366D02*
X049864Y027508D01*
X047359Y027704D02*
X047513D01*
X047565Y027652D01*
Y027433D02*
Y027652D01*
X047306Y027651D02*
X047359Y027704D01*
X047306Y027423D02*
Y027651D01*
X046714Y027441D02*
Y027704D01*
X046803Y027351D02*
X047234D01*
X046714Y027441D02*
X046803Y027351D01*
X047234D02*
X047306Y027423D01*
X047565Y027433D02*
X047632Y027366D01*
X049722D01*
X047652Y02867D02*
X047808Y028826D01*
X047351Y029111D02*
Y029272D01*
X047226Y028987D02*
X047351Y029111D01*
X047934Y028415D02*
Y028676D01*
X047919Y02869D02*
X047934Y028676D01*
X046805Y027795D02*
X047017D01*
X046714Y027704D02*
X046805Y027795D01*
X049748Y027074D02*
X04981Y027136D01*
X047579Y027074D02*
X049748D01*
X048355Y030376D02*
X048486Y030245D01*
X048417Y028075D02*
X048678D01*
X046714Y030645D02*
Y030761D01*
X046615Y030859D02*
X046714Y030761D01*
X046835Y030761D02*
X046913Y030839D01*
X046835Y030425D02*
Y030761D01*
Y030425D02*
X046904Y030356D01*
X050147Y030227D02*
X051163Y029211D01*
Y028977D02*
Y029211D01*
X046342Y028886D02*
X046814Y029359D01*
X046897D01*
X046969Y029286D01*
Y029122D02*
Y029286D01*
X046342Y028767D02*
X046528Y02858D01*
X046342Y028767D02*
Y028886D01*
X048527Y031325D02*
X04954D01*
X050751Y030114D01*
Y029808D02*
Y030114D01*
X051352Y02898D02*
X051548Y028784D01*
X051352Y02898D02*
Y029207D01*
X050751Y029808D02*
X051352Y029207D01*
X047934Y029647D02*
X04808Y029501D01*
X047934Y029647D02*
Y029672D01*
X05023Y029244D02*
X050499D01*
X050147Y029327D02*
X05023Y029244D01*
X050499D02*
X050732Y02901D01*
X047174Y029327D02*
X047411Y029563D01*
X047168Y029327D02*
X047174D01*
X046576Y029318D02*
Y029521D01*
X050857Y028764D02*
X051118Y028504D01*
X048527Y028489D02*
Y028647D01*
Y028489D02*
X048613Y028403D01*
X048234Y029174D02*
X048859Y028549D01*
X048234Y029174D02*
Y029592D01*
X051418Y027697D02*
Y028075D01*
X048613Y028403D02*
X0491D01*
X049326Y028176D01*
X049729D01*
X049898Y028007D01*
X046912Y028987D02*
X047226D01*
X050098Y028688D02*
X05029Y028496D01*
X050732Y028683D02*
Y02901D01*
X046772Y028925D02*
X046804D01*
X046851Y028877D01*
X046833Y029065D02*
X046912Y028987D01*
X046716Y029065D02*
X046833D01*
X046576Y028925D02*
X046716Y029065D01*
X050058Y028513D02*
X050223Y028348D01*
X050345D01*
X046124Y029062D02*
Y029176D01*
X046036Y02888D02*
Y028974D01*
X046124Y029062D01*
X046036Y029263D02*
Y029374D01*
Y029263D02*
X046124Y029176D01*
X046763Y029515D02*
X046767D01*
X046615Y02858D02*
X046721Y028474D01*
X046528Y02858D02*
X046615D01*
X046721Y028282D02*
Y028474D01*
D86*
X041005Y02591D02*
D03*
Y026343D02*
D03*
Y026776D02*
D03*
Y027209D02*
D03*
Y027642D02*
D03*
Y028075D02*
D03*
Y028509D02*
D03*
Y028942D02*
D03*
Y029375D02*
D03*
Y029808D02*
D03*
Y030241D02*
D03*
Y030674D02*
D03*
Y031107D02*
D03*
Y03154D02*
D03*
Y031973D02*
D03*
Y032406D02*
D03*
Y032839D02*
D03*
Y033272D02*
D03*
Y033705D02*
D03*
Y034138D02*
D03*
Y034571D02*
D03*
Y035005D02*
D03*
Y035438D02*
D03*
Y035871D02*
D03*
Y036304D02*
D03*
Y036737D02*
D03*
Y03717D02*
D03*
Y02591D02*
D03*
Y026343D02*
D03*
Y026776D02*
D03*
Y027209D02*
D03*
Y027642D02*
D03*
Y028075D02*
D03*
Y028509D02*
D03*
Y028942D02*
D03*
Y029375D02*
D03*
Y029808D02*
D03*
Y030241D02*
D03*
Y030674D02*
D03*
Y031107D02*
D03*
Y03154D02*
D03*
Y031973D02*
D03*
Y032406D02*
D03*
Y032839D02*
D03*
Y033272D02*
D03*
Y033705D02*
D03*
Y034138D02*
D03*
Y034571D02*
D03*
Y035005D02*
D03*
Y035438D02*
D03*
Y035871D02*
D03*
Y036304D02*
D03*
Y036737D02*
D03*
Y03717D02*
D03*
X052169Y03769D02*
D03*
X051736D02*
D03*
X048271Y025407D02*
D03*
X050003D02*
D03*
X050436D02*
D03*
X050869D02*
D03*
X051302D02*
D03*
D87*
X047068Y032468D02*
D03*
X047265Y032361D02*
D03*
X043957Y0366D02*
D03*
X046147Y035706D02*
D03*
X045695Y034862D02*
D03*
X046147D02*
D03*
X045695Y035096D02*
D03*
X045558Y035706D02*
D03*
X046147Y0351D02*
D03*
X051871Y032885D02*
D03*
Y032665D02*
D03*
X049137Y035234D02*
D03*
X04893D02*
D03*
X048931Y035438D02*
D03*
X049138D02*
D03*
X052376Y031891D02*
D03*
X052404Y032686D02*
D03*
X048915Y027586D02*
D03*
X050397Y027363D02*
D03*
X047168Y029327D02*
D03*
X048527Y028647D02*
D03*
X047919Y02869D02*
D03*
X047928Y029473D02*
D03*
X047934Y029672D02*
D03*
X048234Y029592D02*
D03*
X051118Y028504D02*
D03*
X050345Y028348D02*
D03*
X050363Y028641D02*
D03*
X051116Y027742D02*
D03*
X051116Y027964D02*
D03*
X048134Y028881D02*
D03*
X051541Y027527D02*
D03*
X051163Y028977D02*
D03*
X051869Y028462D02*
D03*
X051881Y027855D02*
D03*
X042452Y031842D02*
D03*
X043426Y031484D02*
D03*
X042869Y026681D02*
D03*
X043125Y026681D02*
D03*
X044607Y027547D02*
D03*
X043229Y027744D02*
D03*
X043426Y028334D02*
D03*
X043623Y028925D02*
D03*
X049453Y036794D02*
D03*
X049978Y027198D02*
D03*
X052082Y032665D02*
D03*
X051863Y028777D02*
D03*
X043623Y028728D02*
D03*
X052084Y032885D02*
D03*
X045391Y03089D02*
D03*
X045591Y030696D02*
D03*
X045394Y028531D02*
D03*
X045001Y030496D02*
D03*
X044607Y029508D02*
D03*
Y029122D02*
D03*
X046576Y030106D02*
D03*
X046772D02*
D03*
X049978Y02751D02*
D03*
X046576Y028925D02*
D03*
X046772D02*
D03*
X046969Y029122D02*
D03*
X045788Y030305D02*
D03*
X045001Y029318D02*
D03*
X045197Y029122D02*
D03*
X045394Y029712D02*
D03*
X046763Y029515D02*
D03*
X046576Y029318D02*
D03*
X047168Y030106D02*
D03*
X051562Y027839D02*
D03*
X046969Y029515D02*
D03*
X051541Y028155D02*
D03*
X046576Y029712D02*
D03*
X051548Y028784D02*
D03*
D88*
X045519Y033305D02*
D03*
X052004Y034451D02*
D03*
X052558D02*
D03*
X052848Y035396D02*
D03*
X051424Y035743D02*
D03*
X043403Y034663D02*
D03*
D92*
X047068Y032468D02*
X047306Y032706D01*
X047265Y032474D02*
X047447Y032656D01*
X047265Y032361D02*
Y032474D01*
X047447Y033099D02*
X047702Y033354D01*
X047306Y033149D02*
X047646Y033489D01*
X052021Y036562D02*
Y037542D01*
X052169Y03769D01*
X05169Y036231D02*
X052021Y036562D01*
X051252Y036231D02*
X05169D01*
X050969Y035948D02*
X051252Y036231D01*
X050969Y03484D02*
Y035948D01*
X049921Y033792D02*
X050969Y03484D01*
X049092Y033792D02*
X049921D01*
X048655Y033354D02*
X049092Y033792D01*
X048178Y033354D02*
X048655D01*
X048122Y033298D02*
X048178Y033354D01*
X048122Y033193D02*
Y033298D01*
X048065Y033137D02*
X048122Y033193D01*
X047871Y033354D02*
X047926Y0333D01*
X04798Y033137D02*
X048065D01*
X047926Y033191D02*
X04798Y033137D01*
X047702Y033354D02*
X047871D01*
X047926Y033191D02*
Y0333D01*
X051736Y03769D02*
X051886Y03754D01*
Y036618D02*
Y03754D01*
X051634Y036366D02*
X051886Y036618D01*
X051196Y036366D02*
X051634D01*
X050834Y034896D02*
Y036004D01*
X051196Y036366D01*
X049865Y033927D02*
X050834Y034896D01*
X048599Y033489D02*
X049036Y033927D01*
X049865D01*
X047646Y033489D02*
X048599D01*
X047447Y032656D02*
Y033099D01*
X047306Y032706D02*
Y033149D01*
M02*
