G04*
G04 #@! TF.GenerationSoftware,Altium Limited,Altium Designer,18.1.6 (161)*
G04*
G04 Layer_Physical_Order=4*
G04 Layer_Color=16440176*
%FSTAX24Y24*%
%MOIN*%
G70*
G01*
G75*
%ADD86C,0.0315*%
%ADD87C,0.0157*%
%ADD88C,0.0236*%
G36*
X053724Y037287D02*
Y036148D01*
X052756Y036148D01*
X049869Y033261D01*
X049819D01*
X049804Y033311D01*
X049812Y033316D01*
X049835Y03335D01*
X049843Y033391D01*
X049835Y033431D01*
X049812Y033466D01*
X049777Y033488D01*
X049737Y033496D01*
X049696Y033488D01*
X049662Y033466D01*
X049639Y033431D01*
X049631Y033391D01*
X049639Y03335D01*
X049662Y033316D01*
X049669Y033311D01*
X049654Y033261D01*
X049554D01*
X049539Y033311D01*
X049547Y033316D01*
X04957Y03335D01*
X049578Y033391D01*
X04957Y033431D01*
X049547Y033466D01*
X049512Y033488D01*
X049472Y033496D01*
X049431Y033488D01*
X049397Y033466D01*
X049374Y033431D01*
X04937Y033409D01*
X049319D01*
X049314Y033434D01*
X049291Y033469D01*
X049257Y033491D01*
X049216Y0335D01*
X049176Y033491D01*
X049141Y033469D01*
X049118Y033434D01*
X04911Y033394D01*
X049118Y033353D01*
X049141Y033319D01*
X049153Y033311D01*
X049138Y033261D01*
X045696Y033261D01*
X045664Y0333D01*
X045665Y033305D01*
X045654Y033361D01*
X045623Y033409D01*
X045575Y03344D01*
X045519Y033451D01*
X045464Y03344D01*
X045416Y033409D01*
X045385Y033361D01*
X045378Y033328D01*
X045325Y03331D01*
X044262Y034374D01*
X044218Y034418D01*
Y034554D01*
X044296Y034633D01*
X044572Y034633D01*
X044646Y034708D01*
X044646Y035781D01*
X04466Y035793D01*
X044696Y035813D01*
X044725Y035808D01*
X044766Y035816D01*
X0448Y035839D01*
X044823Y035873D01*
X044831Y035913D01*
X044823Y035954D01*
X0448Y035988D01*
X044766Y036011D01*
X044725Y036019D01*
X044696Y036013D01*
X04466Y036034D01*
X044646Y036046D01*
Y036528D01*
X045405Y037287D01*
X053724Y037287D01*
D02*
G37*
G36*
X043732Y036206D02*
X044555Y035383D01*
Y035298D01*
X044505Y035283D01*
X044493Y035301D01*
X044445Y035333D01*
X044389Y035344D01*
X044334Y035333D01*
X044286Y035301D01*
X044255Y035254D01*
X044244Y035198D01*
X044255Y035142D01*
X044286Y035095D01*
X044334Y035064D01*
X044389Y035052D01*
X044445Y035064D01*
X044493Y035095D01*
X044505Y035114D01*
X044555Y035098D01*
X044555Y034781D01*
X044492Y034718D01*
X044213D01*
X044128Y034633D01*
X044128Y034061D01*
X044284Y033905D01*
X044284Y033905D01*
X044292Y033864D01*
X044315Y03383D01*
X044349Y033807D01*
X044389Y033799D01*
X04439Y033799D01*
X045728Y032461D01*
X045712Y032407D01*
X045699Y032404D01*
X045664Y032381D01*
X045641Y032347D01*
X045633Y032306D01*
X045641Y032266D01*
X045664Y032231D01*
X045699Y032208D01*
X045739Y0322D01*
X04578Y032208D01*
X045814Y032231D01*
X045871D01*
X045905Y032208D01*
X045946Y0322D01*
X045982Y032208D01*
X046031Y032158D01*
X046027Y032139D01*
X046035Y032098D01*
X046058Y032064D01*
X046092Y032041D01*
X046133Y032033D01*
X046152Y032037D01*
X046605Y031584D01*
Y03122D01*
X046576Y031196D01*
X046535Y031188D01*
X046501Y031165D01*
X046478Y03113D01*
X04647Y03109D01*
X046478Y03105D01*
X046501Y031015D01*
X046535Y030992D01*
X046576Y030984D01*
X046605Y03096D01*
Y030825D01*
X046576Y030801D01*
X046535Y030793D01*
X046501Y03077D01*
X046478Y030735D01*
X04647Y030695D01*
X046478Y030654D01*
X046501Y03062D01*
X046535Y030597D01*
X046576Y030589D01*
X046605Y030565D01*
Y03044D01*
X046567Y030408D01*
X046566Y030408D01*
X046525Y0304D01*
X046491Y030377D01*
X046468Y030343D01*
X04646Y030303D01*
X046468Y030262D01*
X046491Y030228D01*
X046501Y030181D01*
X046478Y030146D01*
X04647Y030106D01*
X046478Y030065D01*
X046501Y030031D01*
X046535Y030008D01*
X046576Y03D01*
X046605Y029976D01*
X046605Y029842D01*
X046576Y029818D01*
X046535Y02981D01*
X046504Y029789D01*
X046471Y029796D01*
X046459Y029847D01*
X046476Y029874D01*
X046484Y029914D01*
X046476Y029955D01*
X046453Y029989D01*
X046419Y030012D01*
X046379Y03002D01*
X046338Y030012D01*
X046304Y029989D01*
X046281Y029955D01*
X046273Y029914D01*
X046281Y029874D01*
X046304Y029839D01*
Y029787D01*
X046281Y029753D01*
X046273Y029712D01*
X046281Y029672D01*
X046304Y029637D01*
X046304Y029583D01*
X046303Y029582D01*
X046281Y029549D01*
X046273Y029508D01*
X046281Y029468D01*
X046304Y029434D01*
X046338Y029411D01*
X046379Y029403D01*
X046419Y029411D01*
X046453Y029434D01*
X046476Y029468D01*
X046484Y029508D01*
X046476Y029549D01*
X046457Y029577D01*
X046469Y029628D01*
X046503Y029635D01*
X046535Y029614D01*
X046576Y029606D01*
X046605Y029582D01*
Y029449D01*
X046576Y029424D01*
X046535Y029416D01*
X046501Y029393D01*
X046478Y029359D01*
X04647Y029318D01*
X046478Y029278D01*
X046501Y029244D01*
X046535Y029221D01*
X046576Y029213D01*
X046605Y029188D01*
Y029055D01*
X046576Y02903D01*
X046535Y029022D01*
X046501Y028999D01*
X046478Y028965D01*
X04647Y028925D01*
X046478Y028884D01*
X046496Y028857D01*
X046501Y02885D01*
X046501Y028804D01*
X046496Y028797D01*
X046478Y02877D01*
X04647Y028729D01*
X046478Y028689D01*
X046501Y028654D01*
X046535Y028631D01*
X046576Y028623D01*
X046605Y028599D01*
Y028183D01*
X046529Y028107D01*
X046483Y028132D01*
X046484Y028137D01*
X046476Y028178D01*
X046453Y028212D01*
X046419Y028235D01*
X046379Y028243D01*
X046338Y028235D01*
X046304Y028212D01*
X046281Y028178D01*
X046273Y028137D01*
X046281Y028097D01*
X046304Y028062D01*
X046338Y02804D01*
X046351Y028037D01*
X046375Y027984D01*
X046363Y027966D01*
X046086D01*
X046083Y027981D01*
X04606Y028015D01*
Y028055D01*
X046083Y028089D01*
X046091Y02813D01*
X046083Y02817D01*
X04606Y028205D01*
X046025Y028227D01*
X045985Y028235D01*
X045945Y028227D01*
X04591Y028205D01*
X045867D01*
X045833Y028227D01*
X045792Y028235D01*
X045752Y028227D01*
X045718Y028205D01*
X045695Y02817D01*
X045687Y02813D01*
X045695Y028089D01*
X04571Y028067D01*
X045709Y028015D01*
X045686Y027981D01*
X045683Y027966D01*
X045298Y027966D01*
X045295Y027981D01*
X045272Y028015D01*
X045238Y028038D01*
X045198Y028046D01*
X045157Y028038D01*
X045123Y028015D01*
X0451Y027981D01*
X045097Y027966D01*
X044708D01*
X044705Y027981D01*
X044682Y028015D01*
X044648Y028038D01*
X044607Y028046D01*
X044573Y028039D01*
X044484Y028128D01*
Y028401D01*
X044734Y028651D01*
X044765Y02863D01*
X044805Y028622D01*
X044846Y02863D01*
X04488Y028653D01*
X044903Y028687D01*
X044911Y028728D01*
X044903Y028768D01*
X044882Y0288D01*
X04493Y028847D01*
X04496Y028827D01*
X045001Y028819D01*
X045041Y028827D01*
X045076Y02885D01*
X045098Y028884D01*
X045107Y028925D01*
X045098Y028965D01*
X045078Y028996D01*
X045126Y029044D01*
X045156Y029024D01*
X045197Y029016D01*
X045237Y029024D01*
X045272Y029047D01*
X045295Y029081D01*
X045303Y029122D01*
X045295Y029162D01*
X045272Y029196D01*
X045257Y029206D01*
X045257Y029642D01*
X045307Y029657D01*
X04532Y029637D01*
X045354Y029614D01*
X045394Y029606D01*
X045435Y029614D01*
X045469Y029637D01*
X045517Y029647D01*
X045551Y029624D01*
X045591Y029616D01*
X045632Y029624D01*
X045666Y029647D01*
X045689Y029681D01*
X045697Y029722D01*
X045689Y029762D01*
X045666Y029797D01*
X045632Y029819D01*
X045591Y029828D01*
X045551Y029819D01*
X045517Y029797D01*
X045469Y029787D01*
X045435Y02981D01*
X045394Y029818D01*
X045354Y02981D01*
X04532Y029787D01*
X045307Y029767D01*
X045257Y029783D01*
X045257Y030024D01*
X045307Y030039D01*
X045309Y030036D01*
X045343Y030013D01*
X045383Y030005D01*
X045424Y030013D01*
X045458Y030036D01*
X045514Y03003D01*
X045517Y030027D01*
X045551Y030004D01*
X045591Y029996D01*
X045632Y030004D01*
X045666Y030027D01*
X045689Y030062D01*
X045697Y030102D01*
X045689Y030143D01*
X045666Y030177D01*
X045632Y0302D01*
X045591Y030208D01*
X045551Y0302D01*
X045517Y030177D01*
X04546Y030183D01*
X045458Y030186D01*
X045424Y030209D01*
X045383Y030217D01*
X045343Y030209D01*
X045342Y030208D01*
X04534Y030208D01*
X045285Y03023D01*
X045282Y030243D01*
X045295Y030262D01*
X045303Y030303D01*
X045295Y030343D01*
X045272Y030377D01*
X045274Y030399D01*
X045297Y03041D01*
X045326Y030416D01*
X045354Y030398D01*
X045394Y03039D01*
X045435Y030398D01*
X045469Y030421D01*
X045492Y030455D01*
X0455Y030496D01*
X045492Y030536D01*
X045469Y03057D01*
X045435Y030593D01*
X045394Y030601D01*
X045354Y030593D01*
X04532Y03057D01*
X045307Y030551D01*
X045257Y030567D01*
X045257Y030815D01*
X045307Y03083D01*
X045317Y030815D01*
X045351Y030792D01*
X045391Y030784D01*
X045432Y030792D01*
X045466Y030815D01*
X045489Y03085D01*
X045497Y03089D01*
X045489Y030931D01*
X045466Y030965D01*
X045432Y030988D01*
X045391Y030996D01*
X045351Y030988D01*
X045328Y030972D01*
X045289Y030984D01*
X045276Y030993D01*
X045274Y031013D01*
X045277Y031015D01*
X0453Y03105D01*
X045308Y03109D01*
X0453Y03113D01*
X045277Y031165D01*
X045276Y031167D01*
X04527Y031222D01*
X045286Y031246D01*
X045294Y031287D01*
X045286Y031327D01*
X045264Y031362D01*
X045257Y031366D01*
X045257Y03139D01*
X044613Y032035D01*
X04462Y032074D01*
X044612Y032115D01*
X044589Y032149D01*
X044555Y032172D01*
X044515Y03218D01*
X044475Y032172D01*
X044148Y032499D01*
X04415Y032511D01*
X044205Y032551D01*
X044207Y032551D01*
X044263Y032562D01*
X044311Y032593D01*
X044342Y032641D01*
X044353Y032697D01*
X044342Y032752D01*
X044311Y0328D01*
X044263Y032831D01*
X044207Y032842D01*
X044152Y032831D01*
X044104Y0328D01*
X044046Y032803D01*
X044044Y032806D01*
X043996Y032838D01*
X043941Y032849D01*
X043885Y032838D01*
X04384Y032808D01*
X043084Y033564D01*
X0431Y033618D01*
X043112Y03362D01*
X043146Y033643D01*
X043169Y033677D01*
X043177Y033718D01*
X043169Y033758D01*
X043146Y033793D01*
X043112Y033816D01*
X043072Y033824D01*
X043031Y033816D01*
X042997Y033793D01*
X042974Y033758D01*
X042972Y033747D01*
X042917Y03373D01*
X042616Y034032D01*
X042624Y034043D01*
X042632Y034084D01*
X042624Y034124D01*
X042601Y034159D01*
X042566Y034182D01*
X042526Y03419D01*
X042485Y034182D01*
X042474Y034174D01*
X042344Y034304D01*
X042344Y035899D01*
X042651Y036206D01*
X043732Y036206D01*
D02*
G37*
G36*
X052762Y032901D02*
X052746Y032847D01*
X052739Y032846D01*
X052705Y032823D01*
X052682Y032789D01*
X052674Y032748D01*
X052682Y032708D01*
X052705Y032673D01*
X052739Y03265D01*
X05278Y032642D01*
X05282Y03265D01*
X052854Y032673D01*
X052877Y032708D01*
X052879Y032714D01*
X052933Y032731D01*
X053446Y032218D01*
X053446Y026922D01*
X052924Y026401D01*
X047727D01*
X047601Y026527D01*
X047603Y026546D01*
X047614Y026584D01*
X04764Y026602D01*
X047663Y026636D01*
X047671Y026676D01*
X047663Y026717D01*
X04764Y026751D01*
X047605Y026774D01*
X047565Y026782D01*
X047524Y026774D01*
X04749Y026751D01*
X047475Y026728D01*
X047458Y026724D01*
X047435D01*
X047419Y026728D01*
X047403Y026751D01*
X047369Y026774D01*
X04735Y026778D01*
X047202Y026926D01*
X047194Y026965D01*
X047172Y026999D01*
X047137Y027022D01*
X047098Y02703D01*
X046763Y027365D01*
Y028024D01*
X046772Y028031D01*
X046813Y02804D01*
X046847Y028062D01*
X04687Y028097D01*
X046878Y028137D01*
X04687Y028178D01*
X046847Y028212D01*
X046813Y028235D01*
X046772Y028243D01*
X046763Y028251D01*
Y028614D01*
X046772Y028622D01*
X046813Y02863D01*
X046847Y028653D01*
X04687Y028687D01*
X046878Y028728D01*
X04687Y028768D01*
X046847Y028802D01*
Y02885D01*
X04687Y028884D01*
X046878Y028925D01*
X04687Y028965D01*
X046847Y028999D01*
X046813Y029022D01*
X046772Y02903D01*
X046763Y029038D01*
Y029409D01*
X046803Y029418D01*
X046838Y02944D01*
X046894D01*
X046929Y029418D01*
X046969Y029409D01*
X04701Y029418D01*
X047044Y02944D01*
X047067Y029475D01*
X047075Y029515D01*
X047067Y029556D01*
X047044Y02959D01*
X04701Y029613D01*
X046969Y029621D01*
X046929Y029613D01*
X046894Y02959D01*
X046838D01*
X046803Y029613D01*
X046763Y029621D01*
Y029992D01*
X046772Y03D01*
X046813Y030008D01*
X046847Y030031D01*
X04687Y030065D01*
X046878Y030106D01*
X04687Y030146D01*
X04685Y030176D01*
X046845Y03019D01*
X046838Y030228D01*
X04686Y030262D01*
X046868Y030303D01*
X04686Y030343D01*
X046838Y030377D01*
X046803Y0304D01*
X046763Y030408D01*
Y030778D01*
X046774Y030787D01*
X046814Y030795D01*
X046849Y030818D01*
X046872Y030853D01*
X04688Y030893D01*
X046872Y030934D01*
X046849Y030968D01*
X046814Y030991D01*
X046774Y030999D01*
X046763Y031008D01*
Y031173D01*
X046772Y031181D01*
X046813Y031189D01*
X046847Y031212D01*
X04687Y031246D01*
X046878Y031287D01*
X04687Y031327D01*
X046847Y031362D01*
X046813Y031385D01*
X046772Y031393D01*
X046763Y031401D01*
Y03172D01*
X04731Y032267D01*
X047339Y032287D01*
X047359Y032316D01*
X047979Y032936D01*
X051424D01*
X051432Y032897D01*
X051455Y032863D01*
X051489Y03284D01*
X051529Y032832D01*
X05157Y03284D01*
X051604Y032863D01*
X051627Y032897D01*
X051635Y032936D01*
X051725D01*
X051765Y032886D01*
X051765Y032885D01*
X051773Y032845D01*
X051796Y03281D01*
X051805Y032805D01*
Y032745D01*
X051796Y03274D01*
X051773Y032705D01*
X051765Y032665D01*
X051773Y032624D01*
X051796Y03259D01*
X051831Y032567D01*
X051871Y032559D01*
X051912Y032567D01*
X051946Y03259D01*
X051947Y032591D01*
X052007D01*
X052008Y03259D01*
X052042Y032567D01*
X052082Y032559D01*
X052123Y032567D01*
X052157Y03259D01*
X05218Y032624D01*
X052188Y032665D01*
X05218Y032705D01*
X052157Y03274D01*
X052149Y032745D01*
X052149Y032804D01*
X052159Y03281D01*
X052181Y032845D01*
X05219Y032885D01*
X052189Y032886D01*
X05223Y032936D01*
X052727D01*
X052762Y032901D01*
D02*
G37*
G36*
X042284Y034841D02*
X042284Y034012D01*
X042438Y033859D01*
X04245Y033841D01*
X042468Y033829D01*
X044672Y031625D01*
X044671Y031623D01*
X044642Y031584D01*
X044613Y03159D01*
X044572Y031581D01*
X044538Y031559D01*
X044515Y031524D01*
X044507Y031484D01*
X044515Y031443D01*
X044538Y031409D01*
X044572Y031386D01*
X044613Y031378D01*
X044653Y031386D01*
X044688Y031409D01*
X044711Y031443D01*
X044719Y031484D01*
X044713Y031513D01*
X044752Y031542D01*
X044754Y031543D01*
X044852Y031445D01*
X04485Y031435D01*
X044805Y031393D01*
X044765Y031385D01*
X044731Y031362D01*
X044708Y031327D01*
X0447Y031287D01*
X044708Y031246D01*
X044731Y031212D01*
X044765Y031189D01*
X044805Y031181D01*
X044846Y031189D01*
X04488Y031212D01*
X044903Y031246D01*
X044911Y031287D01*
X044953Y031332D01*
X044963Y031333D01*
X045128Y031169D01*
X045127Y031165D01*
X045104Y03113D01*
X045096Y03109D01*
X045104Y03105D01*
X045127Y031015D01*
X045158Y030994D01*
X045158Y030824D01*
X045064Y03073D01*
X044925D01*
X044805Y03085D01*
X044284Y031371D01*
X044288Y031409D01*
X044311Y031443D01*
X044319Y031484D01*
X044311Y031524D01*
X044288Y031559D01*
X044254Y031581D01*
X044213Y03159D01*
X044173Y031581D01*
X044139Y031559D01*
X044101Y031555D01*
X044048Y031607D01*
X043645D01*
X042637Y032615D01*
X042647Y032664D01*
X042652Y032671D01*
X042682Y032692D01*
X042705Y032726D01*
X042713Y032766D01*
X042705Y032807D01*
X042682Y032841D01*
X042648Y032864D01*
X042607Y032872D01*
X042602Y032871D01*
X042592Y032878D01*
X042564Y032914D01*
X042569Y032938D01*
X042561Y032979D01*
X042538Y033013D01*
X042503Y033036D01*
X042463Y033044D01*
X042422Y033036D01*
X042388Y033013D01*
X042365Y032979D01*
X042362Y032961D01*
X042309Y032944D01*
X041969Y033283D01*
X041969Y034862D01*
X042017Y034909D01*
X042216D01*
X042284Y034841D01*
D02*
G37*
G36*
X041815Y035357D02*
Y034587D01*
X041806Y03458D01*
X041766Y034572D01*
X041731Y034549D01*
X041708Y034514D01*
X0417Y034474D01*
X041708Y034433D01*
X041731Y034399D01*
X041731Y03434D01*
X041708Y034305D01*
X0417Y034265D01*
X041708Y034224D01*
X041731Y03419D01*
X041766Y034167D01*
X041806Y034159D01*
X041815Y034152D01*
Y03303D01*
X043208Y031636D01*
X043192Y031582D01*
X043189Y031581D01*
X043154Y031559D01*
X043131Y031524D01*
X043123Y031484D01*
X043131Y031443D01*
X043154Y031409D01*
X043189Y031386D01*
X043229Y031378D01*
X04327Y031386D01*
X043304Y031409D01*
X043351Y031409D01*
X043385Y031386D01*
X043426Y031378D01*
X04346Y031385D01*
X043953Y030892D01*
X044304Y030892D01*
X044312Y030851D01*
X044335Y030817D01*
X04437Y030794D01*
X04441Y030786D01*
X044451Y030794D01*
X044465Y030803D01*
X0448Y030468D01*
X0448Y030234D01*
X044772Y030206D01*
X04476Y030203D01*
X044725Y030181D01*
X044702Y030146D01*
X0447Y030134D01*
X044672Y030106D01*
X044101Y030106D01*
X042507Y0317D01*
X042517Y031761D01*
X042527Y031767D01*
X042549Y031801D01*
X042558Y031842D01*
X042549Y031882D01*
X042527Y031917D01*
X042492Y03194D01*
X042452Y031948D01*
X042411Y03194D01*
X042377Y031917D01*
X04237Y031907D01*
X042315Y031897D01*
X04231Y031899D01*
X042306Y03192D01*
X042283Y031954D01*
X042248Y031977D01*
X042225Y031982D01*
X04134Y032867D01*
X04134Y035367D01*
X041418Y035445D01*
X041727Y035445D01*
X041815Y035357D01*
D02*
G37*
%LPC*%
G36*
X047134Y037036D02*
X047093Y037028D01*
X047059Y037005D01*
X04705Y036992D01*
X046993Y036992D01*
X046985Y037005D01*
X04695Y037028D01*
X04691Y037036D01*
X046869Y037028D01*
X046835Y037005D01*
X046812Y03697D01*
X046804Y03693D01*
X046812Y036889D01*
X046835Y036855D01*
X046869Y036832D01*
X04691Y036824D01*
X04695Y036832D01*
X046985Y036855D01*
X046993Y036868D01*
X04705Y036868D01*
X047059Y036856D01*
X047093Y036833D01*
X047134Y036825D01*
X047174Y036833D01*
X047208Y036856D01*
X047262Y036855D01*
X047296Y036832D01*
X047337Y036824D01*
X047377Y036832D01*
X047412Y036855D01*
X047435Y036889D01*
X047443Y03693D01*
X047435Y03697D01*
X047412Y037005D01*
X047377Y037028D01*
X047337Y037036D01*
X047296Y037028D01*
X047262Y037005D01*
X047208Y037005D01*
X047174Y037028D01*
X047134Y037036D01*
D02*
G37*
G36*
X051613Y037136D02*
X051573Y037128D01*
X051538Y037105D01*
X051515Y03707D01*
X051507Y03703D01*
X051515Y036989D01*
X051525Y036975D01*
X05152Y036962D01*
X05146Y036943D01*
X051459Y036944D01*
X051418Y036952D01*
X051378Y036944D01*
X051343Y036921D01*
X05132Y036887D01*
X051312Y036846D01*
X05132Y036806D01*
X051343Y036771D01*
X051378Y036748D01*
X051418Y03674D01*
X051459Y036748D01*
X051493Y036771D01*
X051538D01*
X051573Y036748D01*
X051613Y03674D01*
X051654Y036748D01*
X051688Y036771D01*
X051711Y036806D01*
X051719Y036846D01*
X051711Y036887D01*
X051688Y036921D01*
Y036955D01*
X051711Y036989D01*
X051719Y03703D01*
X051711Y03707D01*
X051688Y037105D01*
X051654Y037128D01*
X051613Y037136D01*
D02*
G37*
G36*
X049838Y037137D02*
X049798Y037129D01*
X049764Y037106D01*
X049741Y037072D01*
X049733Y037031D01*
X049741Y036991D01*
X049764Y036956D01*
X049798Y036933D01*
X049838Y036925D01*
X049879Y036933D01*
X049913Y036956D01*
X049936Y036991D01*
X049944Y037031D01*
X049936Y037072D01*
X049913Y037106D01*
X049879Y037129D01*
X049838Y037137D01*
D02*
G37*
G36*
X04644Y037036D02*
X0464Y037028D01*
X046365Y037005D01*
X046342Y036971D01*
X046334Y03693D01*
X046342Y03689D01*
X046365Y036856D01*
X0464Y036833D01*
X04644Y036825D01*
X046481Y036833D01*
X046515Y036856D01*
X046538Y03689D01*
X046546Y03693D01*
X046538Y036971D01*
X046515Y037005D01*
X046481Y037028D01*
X04644Y037036D01*
D02*
G37*
G36*
X048036Y037008D02*
X047995Y037D01*
X047961Y036977D01*
X047938Y036943D01*
X04793Y036903D01*
X047938Y036862D01*
X047961Y036828D01*
X047995Y036805D01*
X048036Y036797D01*
X048076Y036805D01*
X04811Y036828D01*
X048133Y036862D01*
X048141Y036903D01*
X048133Y036943D01*
X04811Y036977D01*
X048076Y037D01*
X048036Y037008D01*
D02*
G37*
G36*
X049453Y036899D02*
X049412Y036891D01*
X049378Y036868D01*
X049355Y036834D01*
X049347Y036794D01*
X049355Y036753D01*
X049378Y036719D01*
X049412Y036696D01*
X049453Y036688D01*
X049493Y036696D01*
X049527Y036719D01*
X04955Y036753D01*
X049558Y036794D01*
X04955Y036834D01*
X049527Y036868D01*
X049493Y036891D01*
X049453Y036899D01*
D02*
G37*
G36*
X051095Y036732D02*
X051055Y036724D01*
X051021Y036701D01*
X050998Y036667D01*
X05099Y036626D01*
X050998Y036586D01*
X051021Y036552D01*
X051055Y036529D01*
X051095Y036521D01*
X051136Y036529D01*
X05117Y036552D01*
X051193Y036586D01*
X051201Y036626D01*
X051193Y036667D01*
X05117Y036701D01*
X051136Y036724D01*
X051095Y036732D01*
D02*
G37*
G36*
X04787Y03653D02*
X047829Y036522D01*
X047795Y0365D01*
X047772Y036465D01*
X047764Y036425D01*
X047772Y036384D01*
X047795Y03635D01*
X047829Y036327D01*
X04787Y036319D01*
X04791Y036327D01*
X047945Y03635D01*
X047968Y036384D01*
X047976Y036425D01*
X047968Y036465D01*
X047945Y0365D01*
X04791Y036522D01*
X04787Y03653D01*
D02*
G37*
G36*
X04624Y036487D02*
X046199Y036479D01*
X046165Y036456D01*
X046142Y036421D01*
X046134Y036381D01*
X046142Y036341D01*
X046165Y036306D01*
X046199Y036283D01*
X04624Y036275D01*
X04628Y036283D01*
X046315Y036306D01*
X046338Y036341D01*
X046346Y036381D01*
X046338Y036421D01*
X046315Y036456D01*
X04628Y036479D01*
X04624Y036487D01*
D02*
G37*
G36*
X049021Y036533D02*
X048965Y036522D01*
X048918Y036491D01*
X048886Y036443D01*
X048875Y036387D01*
X048886Y036332D01*
X048918Y036284D01*
X048901Y036235D01*
X048889Y036216D01*
X048878Y036161D01*
X048889Y036105D01*
X04892Y036057D01*
X048968Y036026D01*
X049023Y036015D01*
X049079Y036026D01*
X049127Y036057D01*
X049158Y036105D01*
X049169Y036161D01*
X049158Y036216D01*
X049127Y036264D01*
X049143Y036313D01*
X049156Y036332D01*
X049167Y036387D01*
X049156Y036443D01*
X049124Y036491D01*
X049077Y036522D01*
X049021Y036533D01*
D02*
G37*
G36*
X050462Y03687D02*
X050421Y036862D01*
X050387Y036839D01*
X050364Y036804D01*
X050356Y036764D01*
X050364Y036723D01*
X050387Y036689D01*
X05041Y036674D01*
X050414Y036658D01*
X050414Y036634D01*
X05041Y036618D01*
X050387Y036603D01*
X050364Y036568D01*
X050356Y036528D01*
X050364Y036487D01*
X050387Y036453D01*
X0504Y036444D01*
X0504Y036387D01*
X050387Y036379D01*
X050364Y036344D01*
X050356Y036304D01*
X050364Y036263D01*
X050387Y036229D01*
X050413Y036212D01*
X050413Y036177D01*
X050408Y03616D01*
X050376Y036153D01*
X050328Y036122D01*
X050297Y036074D01*
X050285Y036018D01*
X050297Y035963D01*
X050328Y035915D01*
X050376Y035884D01*
X050431Y035873D01*
X050487Y035884D01*
X050535Y035915D01*
X050566Y035963D01*
X050577Y036018D01*
X050566Y036074D01*
X050535Y036122D01*
X050489Y036152D01*
X050488Y036159D01*
X05049Y036204D01*
X050502Y036206D01*
X050537Y036229D01*
X05056Y036263D01*
X050568Y036304D01*
X05056Y036344D01*
X050537Y036379D01*
X050524Y036387D01*
X050523Y036444D01*
X050537Y036453D01*
X050559Y036487D01*
X050567Y036528D01*
X050559Y036568D01*
X050537Y036603D01*
X050514Y036618D01*
X05051Y036634D01*
X05051Y036658D01*
X050514Y036674D01*
X050537Y036689D01*
X05056Y036723D01*
X050568Y036764D01*
X05056Y036804D01*
X050537Y036839D01*
X050502Y036862D01*
X050462Y03687D01*
D02*
G37*
G36*
X046147Y035812D02*
X046107Y035804D01*
X046072Y035781D01*
X046049Y035747D01*
X046041Y035706D01*
X046049Y035666D01*
X046072Y035631D01*
X046107Y035608D01*
X046147Y0356D01*
X046187Y035608D01*
X046222Y035631D01*
X046245Y035666D01*
X046253Y035706D01*
X046245Y035747D01*
X046222Y035781D01*
X046187Y035804D01*
X046147Y035812D01*
D02*
G37*
G36*
X045558D02*
X045517Y035804D01*
X045483Y035781D01*
X04546Y035747D01*
X045452Y035706D01*
X04546Y035666D01*
X045483Y035631D01*
X045517Y035608D01*
X045558Y0356D01*
X045598Y035608D01*
X045633Y035631D01*
X045656Y035666D01*
X045664Y035706D01*
X045656Y035747D01*
X045633Y035781D01*
X045598Y035804D01*
X045558Y035812D01*
D02*
G37*
G36*
X051424Y035889D02*
X051368Y035878D01*
X051321Y035847D01*
X051289Y035799D01*
X051278Y035743D01*
X051289Y035688D01*
X051321Y03564D01*
X051368Y035609D01*
X051424Y035598D01*
X05148Y035609D01*
X051527Y03564D01*
X051559Y035688D01*
X05157Y035743D01*
X051559Y035799D01*
X051527Y035847D01*
X05148Y035878D01*
X051424Y035889D01*
D02*
G37*
G36*
X047868Y035749D02*
X047828Y035741D01*
X047794Y035718D01*
X047771Y035683D01*
X047763Y035643D01*
X047771Y035602D01*
X047794Y035568D01*
X047828Y035545D01*
X047868Y035537D01*
X047909Y035545D01*
X047943Y035568D01*
X047966Y035602D01*
X047974Y035643D01*
X047966Y035683D01*
X047943Y035718D01*
X047909Y035741D01*
X047868Y035749D01*
D02*
G37*
G36*
X049138Y035543D02*
X049097Y035535D01*
X049063Y035512D01*
X049005D01*
X048971Y035535D01*
X048931Y035543D01*
X04889Y035535D01*
X048856Y035512D01*
X048833Y035478D01*
X048825Y035438D01*
X048833Y035397D01*
X048856Y035363D01*
X048855Y035308D01*
X048832Y035274D01*
X048824Y035234D01*
X048832Y035193D01*
X048855Y035159D01*
X048889Y035136D01*
X04893Y035128D01*
X04897Y035136D01*
X049005Y035159D01*
X049062D01*
X049096Y035136D01*
X049137Y035128D01*
X049177Y035136D01*
X049212Y035159D01*
X049235Y035193D01*
X049243Y035234D01*
X049235Y035274D01*
X049212Y035308D01*
X049212Y035363D01*
X049235Y035397D01*
X049243Y035438D01*
X049235Y035478D01*
X049212Y035512D01*
X049178Y035535D01*
X049138Y035543D01*
D02*
G37*
G36*
X046147Y035206D02*
X046107Y035198D01*
X046072Y035175D01*
X046049Y035141D01*
X046041Y0351D01*
X046049Y03506D01*
X046072Y035026D01*
X046097Y035009D01*
X046102Y034985D01*
Y034977D01*
X046097Y034954D01*
X046072Y034937D01*
X046049Y034903D01*
X046041Y034862D01*
X046049Y034822D01*
X046072Y034787D01*
X046107Y034764D01*
X046147Y034756D01*
X046187Y034764D01*
X046222Y034787D01*
X046245Y034822D01*
X046253Y034862D01*
X046245Y034903D01*
X046222Y034937D01*
X046197Y034954D01*
X046192Y034977D01*
Y034985D01*
X046197Y035009D01*
X046222Y035026D01*
X046245Y03506D01*
X046253Y0351D01*
X046245Y035141D01*
X046222Y035175D01*
X046187Y035198D01*
X046147Y035206D01*
D02*
G37*
G36*
X045695Y035201D02*
X045654Y035193D01*
X04562Y03517D01*
X045597Y035136D01*
X045589Y035096D01*
X045597Y035055D01*
X04562Y035021D01*
X045641Y035007D01*
X045644Y034997D01*
Y034961D01*
X045641Y034951D01*
X04562Y034937D01*
X045597Y034903D01*
X045589Y034862D01*
X045597Y034822D01*
X04562Y034787D01*
X045654Y034764D01*
X045695Y034756D01*
X045735Y034764D01*
X045769Y034787D01*
X045792Y034822D01*
X0458Y034862D01*
X045792Y034903D01*
X045769Y034937D01*
X045748Y034951D01*
X045745Y034961D01*
Y034997D01*
X045748Y035007D01*
X045769Y035021D01*
X045792Y035055D01*
X0458Y035096D01*
X045792Y035136D01*
X045769Y03517D01*
X045735Y035193D01*
X045695Y035201D01*
D02*
G37*
G36*
X048886Y034875D02*
X048846Y034867D01*
X048812Y034844D01*
X048789Y034809D01*
X048781Y034769D01*
X048789Y034728D01*
X048812Y034694D01*
X048846Y034671D01*
X048886Y034663D01*
X048927Y034671D01*
X048961Y034694D01*
X048984Y034728D01*
X048992Y034769D01*
X048984Y034809D01*
X048961Y034844D01*
X048927Y034867D01*
X048886Y034875D01*
D02*
G37*
G36*
X050316Y034918D02*
X050276Y03491D01*
X050242Y034887D01*
X050219Y034853D01*
X050211Y034813D01*
X050219Y034772D01*
X050242Y034738D01*
Y03468D01*
X050219Y034646D01*
X050211Y034606D01*
X050219Y034565D01*
X050242Y034531D01*
X050276Y034508D01*
X050316Y0345D01*
X050357Y034508D01*
X050391Y034531D01*
X050414Y034565D01*
X050422Y034606D01*
X050414Y034646D01*
X050391Y03468D01*
Y034738D01*
X050414Y034772D01*
X050422Y034813D01*
X050414Y034853D01*
X050391Y034887D01*
X050357Y03491D01*
X050316Y034918D01*
D02*
G37*
G36*
X048886Y034596D02*
X048846Y034588D01*
X048812Y034565D01*
X048789Y034531D01*
X048781Y034491D01*
X048789Y03445D01*
X048812Y034416D01*
X048846Y034393D01*
X048886Y034385D01*
X048927Y034393D01*
X048961Y034416D01*
X048984Y03445D01*
X048992Y034491D01*
X048984Y034531D01*
X048961Y034565D01*
X048927Y034588D01*
X048886Y034596D01*
D02*
G37*
G36*
X047357Y034578D02*
X047301Y034567D01*
X047254Y034535D01*
X047222Y034488D01*
X047211Y034432D01*
X047222Y034376D01*
X047254Y034329D01*
X047301Y034297D01*
X047357Y034286D01*
X047413Y034297D01*
X04746Y034329D01*
X047492Y034376D01*
X047503Y034432D01*
X047492Y034488D01*
X04746Y034535D01*
X047413Y034567D01*
X047357Y034578D01*
D02*
G37*
G36*
X044864Y034287D02*
X044824Y034279D01*
X044789Y034256D01*
X044766Y034222D01*
X044758Y034182D01*
X044766Y034141D01*
X044789Y034107D01*
X044824Y034084D01*
X044864Y034076D01*
X044904Y034084D01*
X044939Y034107D01*
X044962Y034141D01*
X04497Y034182D01*
X044962Y034222D01*
X044939Y034256D01*
X044904Y034279D01*
X044864Y034287D01*
D02*
G37*
G36*
X04709Y034301D02*
X047034Y03429D01*
X046987Y034259D01*
X046955Y034211D01*
X046944Y034156D01*
X046955Y0341D01*
X046987Y034052D01*
X047034Y034021D01*
X04709Y03401D01*
X047146Y034021D01*
X047193Y034052D01*
X047225Y0341D01*
X047236Y034156D01*
X047225Y034211D01*
X047193Y034259D01*
X047146Y03429D01*
X04709Y034301D01*
D02*
G37*
G36*
X047869Y033943D02*
X047829Y033935D01*
X047794Y033912D01*
X047771Y033878D01*
X047763Y033837D01*
X047771Y033797D01*
X047784Y033778D01*
X047752Y033736D01*
X047749Y033737D01*
X047743Y033738D01*
X047708Y033745D01*
X047668Y033737D01*
X047633Y033714D01*
X04761Y033679D01*
X047602Y033639D01*
X04761Y033598D01*
X047633Y033564D01*
X047668Y033541D01*
X047708Y033533D01*
X047749Y033541D01*
X047783Y033564D01*
X047806Y033598D01*
X047814Y033639D01*
X047806Y033679D01*
X047793Y033698D01*
X047826Y03374D01*
X047829Y033739D01*
X047835Y033738D01*
X047869Y033731D01*
X04791Y033739D01*
X047944Y033762D01*
X047967Y033797D01*
X047975Y033837D01*
X047967Y033878D01*
X047944Y033912D01*
X04791Y033935D01*
X047869Y033943D01*
D02*
G37*
G36*
X046202Y033636D02*
X046161Y033628D01*
X046127Y033605D01*
X046104Y033571D01*
X046096Y033531D01*
X046104Y03349D01*
X046127Y033456D01*
X046161Y033433D01*
X046202Y033425D01*
X046242Y033433D01*
X046277Y033456D01*
X046299Y03349D01*
X046308Y033531D01*
X046299Y033571D01*
X046277Y033605D01*
X046242Y033628D01*
X046202Y033636D01*
D02*
G37*
G36*
X043508Y035992D02*
X043467Y035984D01*
X043433Y035961D01*
X04341Y035926D01*
X043402Y035886D01*
X04341Y035845D01*
X043433Y035811D01*
X043467Y035788D01*
X043508Y03578D01*
X043548Y035788D01*
X043582Y035811D01*
X043605Y035845D01*
X043608Y035858D01*
X043608Y03586D01*
X043659D01*
X04366Y035857D01*
X043663Y035841D01*
X043686Y035807D01*
X04372Y035784D01*
X043761Y035776D01*
X043801Y035784D01*
X043836Y035807D01*
X043859Y035841D01*
X043867Y035882D01*
X043859Y035922D01*
X043836Y035956D01*
X043801Y035979D01*
X043761Y035987D01*
X04372Y035979D01*
X043686Y035956D01*
X043663Y035922D01*
X043661Y03591D01*
X04366Y035907D01*
X043609D01*
X043608Y03591D01*
X043605Y035926D01*
X043582Y035961D01*
X043548Y035984D01*
X043508Y035992D01*
D02*
G37*
G36*
X043767Y035665D02*
X043726Y035657D01*
X043692Y035634D01*
X043669Y0356D01*
X043661Y035559D01*
X043669Y035519D01*
X043692Y035485D01*
X043726Y035462D01*
X043767Y035454D01*
X043807Y035462D01*
X043841Y035485D01*
X043864Y035519D01*
X043872Y035559D01*
X043864Y0356D01*
X043841Y035634D01*
X043807Y035657D01*
X043767Y035665D01*
D02*
G37*
G36*
X043508Y035394D02*
X043467Y035386D01*
X043433Y035363D01*
X04341Y035329D01*
X043402Y035289D01*
X04341Y035248D01*
X043433Y035214D01*
X043467Y035191D01*
X043508Y035183D01*
X043548Y035191D01*
X043582Y035214D01*
X043605Y035248D01*
X043613Y035289D01*
X043605Y035329D01*
X043582Y035363D01*
X043548Y035386D01*
X043508Y035394D01*
D02*
G37*
G36*
X042611Y03538D02*
X042555Y035368D01*
X042507Y035337D01*
X042476Y035289D01*
X042465Y035234D01*
X042476Y035178D01*
X042507Y03513D01*
X042555Y035099D01*
X042611Y035088D01*
X042667Y035099D01*
X042714Y03513D01*
X042745Y035178D01*
X042757Y035234D01*
X042745Y035289D01*
X042714Y035337D01*
X042667Y035368D01*
X042611Y03538D01*
D02*
G37*
G36*
X043403Y034809D02*
X043347Y034798D01*
X0433Y034766D01*
X043268Y034719D01*
X043257Y034663D01*
X043268Y034607D01*
X0433Y03456D01*
X043347Y034528D01*
X043403Y034517D01*
X043459Y034528D01*
X043506Y03456D01*
X043538Y034607D01*
X043549Y034663D01*
X043538Y034719D01*
X043506Y034766D01*
X043459Y034798D01*
X043403Y034809D01*
D02*
G37*
G36*
X043748Y03517D02*
X043708Y035162D01*
X043674Y035139D01*
X043651Y035105D01*
X043643Y035064D01*
X043651Y035024D01*
X043674Y034989D01*
X043676Y034988D01*
Y034927D01*
X043674Y034925D01*
X043651Y034891D01*
X043643Y034851D01*
X043651Y03481D01*
X043674Y034776D01*
X043703Y034756D01*
X043705Y034729D01*
X043702Y034703D01*
X043672Y034683D01*
X043649Y034649D01*
X043641Y034608D01*
X043649Y034568D01*
X043672Y034533D01*
X043706Y034511D01*
X043747Y034502D01*
X043787Y034511D01*
X043821Y034533D01*
X043844Y034568D01*
X043852Y034608D01*
X043844Y034649D01*
X043821Y034683D01*
X043792Y034703D01*
X04379Y03473D01*
X043793Y034756D01*
X043823Y034776D01*
X043846Y03481D01*
X043854Y034851D01*
X043846Y034891D01*
X043823Y034925D01*
X04382Y034927D01*
Y034988D01*
X043823Y034989D01*
X043846Y035024D01*
X043854Y035064D01*
X043846Y035105D01*
X043823Y035139D01*
X043789Y035162D01*
X043748Y03517D01*
D02*
G37*
G36*
X043766Y033834D02*
X043726Y033826D01*
X043691Y033803D01*
X043669Y033769D01*
X04366Y033728D01*
X043669Y033688D01*
X043691Y033653D01*
X043726Y03363D01*
X043762Y033623D01*
X04381Y033612D01*
X043816Y033585D01*
X043819Y033572D01*
X043842Y033538D01*
X043876Y033515D01*
X043917Y033507D01*
X043957Y033515D01*
X043991Y033538D01*
X044014Y033572D01*
X044022Y033612D01*
X044014Y033653D01*
X043991Y033687D01*
X043957Y03371D01*
X043921Y033717D01*
X043872Y033728D01*
X043867Y033755D01*
X043864Y033769D01*
X043841Y033803D01*
X043807Y033826D01*
X043766Y033834D01*
D02*
G37*
G36*
X045198Y03218D02*
X045157Y032172D01*
X045123Y032149D01*
X0451Y032115D01*
X045094Y032088D01*
X045043D01*
X04504Y032107D01*
X045017Y032141D01*
X044982Y032164D01*
X044942Y032172D01*
X044901Y032164D01*
X044867Y032141D01*
X044844Y032107D01*
X044836Y032067D01*
X044844Y032026D01*
X044867Y031992D01*
X044901Y031969D01*
X044942Y031961D01*
X044982Y031969D01*
X045017Y031992D01*
X04504Y032026D01*
X045045Y032053D01*
X045096D01*
X0451Y032034D01*
X045123Y031999D01*
X045157Y031977D01*
X045198Y031969D01*
X045238Y031977D01*
X045254Y031987D01*
X045282Y031994D01*
X045317Y031976D01*
X045325Y031965D01*
X045359Y031942D01*
X045399Y031934D01*
X04544Y031942D01*
X045474Y031965D01*
X045521Y031959D01*
X045555Y031936D01*
X045596Y031928D01*
X045636Y031936D01*
X045671Y031959D01*
X045694Y031993D01*
X045702Y032034D01*
X045694Y032074D01*
X045671Y032108D01*
X045636Y032131D01*
X045596Y032139D01*
X045555Y032131D01*
X045521Y032108D01*
X045474Y032114D01*
X04544Y032137D01*
X045399Y032145D01*
X045359Y032137D01*
X045343Y032127D01*
X045315Y03212D01*
X04528Y032138D01*
X045272Y032149D01*
X045238Y032172D01*
X045198Y03218D01*
D02*
G37*
G36*
X045788Y03159D02*
X045748Y031581D01*
X045713Y031559D01*
X04569Y031524D01*
X045682Y031484D01*
X04569Y031443D01*
X045713Y031409D01*
X045748Y031386D01*
X045788Y031378D01*
X045829Y031386D01*
X045863Y031409D01*
X045886Y031443D01*
X045894Y031484D01*
X045886Y031524D01*
X045863Y031559D01*
X045829Y031581D01*
X045788Y03159D01*
D02*
G37*
G36*
X045394D02*
X045354Y031581D01*
X04532Y031559D01*
X045297Y031524D01*
X045289Y031484D01*
X045297Y031443D01*
X04532Y031409D01*
X045354Y031386D01*
X045394Y031378D01*
X045435Y031386D01*
X045469Y031409D01*
X045492Y031443D01*
X0455Y031484D01*
X045492Y031524D01*
X045469Y031559D01*
X045435Y031581D01*
X045394Y03159D01*
D02*
G37*
G36*
X046388D02*
X046347Y031581D01*
X046313Y031559D01*
X04629Y031524D01*
X046282Y031484D01*
X04629Y031443D01*
X046313Y031409D01*
Y031362D01*
X04629Y031327D01*
X046282Y031287D01*
X04629Y031246D01*
X046313Y031212D01*
X046347Y031189D01*
X046388Y031181D01*
X046428Y031189D01*
X046463Y031212D01*
X046486Y031246D01*
X046494Y031287D01*
X046486Y031327D01*
X046463Y031362D01*
Y031409D01*
X046486Y031443D01*
X046494Y031484D01*
X046486Y031524D01*
X046463Y031559D01*
X046428Y031581D01*
X046388Y03159D01*
D02*
G37*
G36*
X045591Y031393D02*
X045551Y031385D01*
X045517Y031362D01*
X045494Y031327D01*
X045486Y031287D01*
X045494Y031246D01*
X045517Y031212D01*
X045551Y031189D01*
X045591Y031181D01*
X045632Y031189D01*
X045666Y031212D01*
X045689Y031246D01*
X045697Y031287D01*
X045689Y031327D01*
X045666Y031362D01*
X045632Y031385D01*
X045591Y031393D01*
D02*
G37*
G36*
X04599Y031196D02*
X04595Y031188D01*
X045916Y031165D01*
X045863Y031165D01*
X045829Y031188D01*
X045788Y031196D01*
X045748Y031188D01*
X045713Y031165D01*
X04569Y03113D01*
X045682Y03109D01*
X04569Y03105D01*
X045713Y031015D01*
Y030972D01*
X04569Y030938D01*
X045682Y030898D01*
X04569Y030857D01*
X045713Y030823D01*
X045748Y0308D01*
X045788Y030792D01*
X045829Y0308D01*
X045863Y030823D01*
X04591Y030818D01*
X045914Y030816D01*
X045945Y030795D01*
X045985Y030787D01*
X046025Y030795D01*
X04606Y030818D01*
X046083Y030853D01*
X046091Y030893D01*
X046083Y030934D01*
X04606Y030968D01*
X046065Y031015D01*
X046088Y03105D01*
X046096Y03109D01*
X046088Y03113D01*
X046065Y031165D01*
X046031Y031188D01*
X04599Y031196D01*
D02*
G37*
G36*
X046379Y030998D02*
X046338Y03099D01*
X046304Y030967D01*
X046281Y030932D01*
X046273Y030892D01*
X046281Y030851D01*
X046304Y030817D01*
X046338Y030794D01*
X046379Y030786D01*
X046419Y030794D01*
X046453Y030817D01*
X046476Y030851D01*
X046484Y030892D01*
X046476Y030932D01*
X046453Y030967D01*
X046419Y03099D01*
X046379Y030998D01*
D02*
G37*
G36*
X046182Y030802D02*
X046141Y030794D01*
X046107Y030771D01*
X046084Y030737D01*
X046076Y030696D01*
X046084Y030656D01*
X046107Y030622D01*
X046141Y030599D01*
X046182Y030591D01*
X046222Y030599D01*
X046257Y030622D01*
X04628Y030656D01*
X046288Y030696D01*
X04628Y030737D01*
X046257Y030771D01*
X046222Y030794D01*
X046182Y030802D01*
D02*
G37*
G36*
X045591D02*
X045551Y030794D01*
X045517Y030771D01*
X045494Y030737D01*
X045486Y030696D01*
X045494Y030656D01*
X045517Y030622D01*
X045551Y030599D01*
X045591Y030591D01*
X045632Y030599D01*
X045666Y030622D01*
X045689Y030656D01*
X045697Y030696D01*
X045689Y030737D01*
X045666Y030771D01*
X045632Y030794D01*
X045591Y030802D01*
D02*
G37*
G36*
X046377Y030605D02*
X046337Y030597D01*
X046303Y030574D01*
X04628Y03054D01*
X046272Y030499D01*
X04628Y030459D01*
X046303Y030425D01*
X046337Y030402D01*
X046377Y030394D01*
X046418Y030402D01*
X046452Y030425D01*
X046475Y030459D01*
X046483Y030499D01*
X046475Y03054D01*
X046452Y030574D01*
X046418Y030597D01*
X046377Y030605D01*
D02*
G37*
G36*
X045788Y030411D02*
X045748Y030403D01*
X045713Y03038D01*
X04569Y030345D01*
X045682Y030305D01*
X04569Y030264D01*
X045713Y03023D01*
X045748Y030207D01*
X045788Y030199D01*
X045829Y030207D01*
X045863Y03023D01*
X04591Y030228D01*
X045915Y030225D01*
X045945Y030205D01*
X045985Y030197D01*
X046025Y030205D01*
X04606Y030228D01*
X046083Y030262D01*
X046091Y030303D01*
X046083Y030343D01*
X04606Y030377D01*
X046025Y0304D01*
X045985Y030408D01*
X045945Y0304D01*
X04591Y030377D01*
X045863Y03038D01*
X045858Y030383D01*
X045829Y030403D01*
X045788Y030411D01*
D02*
G37*
G36*
X045995Y030015D02*
X045954Y030007D01*
X04592Y029984D01*
X045897Y029949D01*
X045889Y029909D01*
X045897Y029868D01*
X04592Y029834D01*
X045954Y029811D01*
X045995Y029803D01*
X046035Y029811D01*
X04607Y029834D01*
X046093Y029868D01*
X046101Y029909D01*
X046093Y029949D01*
X04607Y029984D01*
X046035Y030007D01*
X045995Y030015D01*
D02*
G37*
G36*
X045985Y029621D02*
X045945Y029613D01*
X04591Y02959D01*
X045863D01*
X045829Y029613D01*
X045788Y029621D01*
X045748Y029613D01*
X045713Y02959D01*
X04569Y029556D01*
X045682Y029515D01*
X04569Y029475D01*
X045713Y02944D01*
X045748Y029418D01*
X045788Y029409D01*
X045829Y029418D01*
X045863Y02944D01*
X04591D01*
X045945Y029418D01*
X045985Y029409D01*
X046025Y029418D01*
X04606Y02944D01*
X046083Y029475D01*
X046091Y029515D01*
X046083Y029556D01*
X04606Y02959D01*
X046025Y029613D01*
X045985Y029621D01*
D02*
G37*
G36*
X046182Y029424D02*
X046141Y029416D01*
X046107Y029393D01*
X046084Y029359D01*
X046076Y029318D01*
X046084Y029278D01*
X046107Y029244D01*
X046141Y029221D01*
X046182Y029213D01*
X046222Y029221D01*
X046257Y029244D01*
X04628Y029278D01*
X046288Y029318D01*
X04628Y029359D01*
X046257Y029393D01*
X046222Y029416D01*
X046182Y029424D01*
D02*
G37*
G36*
X045591D02*
X045551Y029416D01*
X045517Y029393D01*
X045494Y029359D01*
X045486Y029318D01*
X045494Y029278D01*
X045517Y029244D01*
X045551Y029221D01*
X045591Y029213D01*
X045632Y029221D01*
X045666Y029244D01*
X045689Y029278D01*
X045697Y029318D01*
X045689Y029359D01*
X045666Y029393D01*
X045632Y029416D01*
X045591Y029424D01*
D02*
G37*
G36*
X046381Y029227D02*
X046341Y029219D01*
X046306Y029196D01*
X046283Y029162D01*
X046275Y029122D01*
X046283Y029081D01*
X046306Y029047D01*
X046341Y029024D01*
X046381Y029016D01*
X046421Y029024D01*
X046456Y029047D01*
X046479Y029081D01*
X046487Y029122D01*
X046479Y029162D01*
X046456Y029196D01*
X046421Y029219D01*
X046381Y029227D01*
D02*
G37*
G36*
X045788D02*
X045748Y029219D01*
X045713Y029196D01*
X04569Y029162D01*
X045682Y029122D01*
X04569Y029081D01*
X045713Y029047D01*
X045748Y029024D01*
X045788Y029016D01*
X045829Y029024D01*
X045863Y029047D01*
X04591Y029041D01*
X045945Y029018D01*
X045985Y02901D01*
X046025Y029018D01*
X04606Y029041D01*
X046083Y029076D01*
X046091Y029116D01*
X046083Y029157D01*
X04606Y029191D01*
X046025Y029214D01*
X045985Y029222D01*
X045945Y029214D01*
X04591Y029191D01*
X045863Y029196D01*
X045829Y029219D01*
X045788Y029227D01*
D02*
G37*
G36*
X046182Y029036D02*
X046141Y029028D01*
X046107Y029005D01*
X046084Y028971D01*
X046076Y028931D01*
X046084Y02889D01*
X046107Y028856D01*
X046141Y028833D01*
X046182Y028825D01*
X046222Y028833D01*
X046257Y028856D01*
X04628Y02889D01*
X046288Y028931D01*
X04628Y028971D01*
X046257Y029005D01*
X046222Y029028D01*
X046182Y029036D01*
D02*
G37*
G36*
X045394Y02903D02*
X045354Y029022D01*
X04532Y028999D01*
X045297Y028965D01*
X045289Y028925D01*
X045297Y028884D01*
X04532Y02885D01*
X045354Y028827D01*
X045394Y028819D01*
X045435Y028827D01*
X045469Y02885D01*
X045492Y028884D01*
X0455Y028925D01*
X045492Y028965D01*
X045469Y028999D01*
X045435Y029022D01*
X045394Y02903D01*
D02*
G37*
G36*
X045984Y028835D02*
X045943Y028827D01*
X045916Y028809D01*
X045867Y028799D01*
X045863Y028798D01*
X045829Y028821D01*
X045788Y028829D01*
X045748Y028821D01*
X045713Y028798D01*
X04569Y028764D01*
X045682Y028724D01*
X04569Y028683D01*
X045713Y028649D01*
X045748Y028626D01*
X045788Y028618D01*
X045829Y028626D01*
X045856Y028644D01*
X045905Y028654D01*
X045909Y028654D01*
X045943Y028631D01*
X045984Y028623D01*
X046024Y028631D01*
X046059Y028654D01*
X046082Y028688D01*
X04609Y028729D01*
X046082Y028769D01*
X046059Y028804D01*
X046024Y028827D01*
X045984Y028835D01*
D02*
G37*
G36*
X046379Y028637D02*
X046338Y028629D01*
X046304Y028606D01*
X046281Y028571D01*
X046273Y028531D01*
X046281Y028491D01*
X046304Y028456D01*
X046338Y028433D01*
X046379Y028425D01*
X046419Y028433D01*
X046453Y028456D01*
X046476Y028491D01*
X046484Y028531D01*
X046476Y028571D01*
X046453Y028606D01*
X046419Y028629D01*
X046379Y028637D01*
D02*
G37*
G36*
X045394D02*
X045354Y028629D01*
X04532Y028606D01*
X045297Y028571D01*
X045289Y028531D01*
X045297Y028491D01*
X04532Y028456D01*
X045354Y028433D01*
X045394Y028425D01*
X045435Y028433D01*
X045469Y028456D01*
X045492Y028491D01*
X0455Y028531D01*
X045492Y028571D01*
X045469Y028606D01*
X045435Y028629D01*
X045394Y028637D01*
D02*
G37*
G36*
X045591Y028444D02*
X045551Y028436D01*
X045517Y028413D01*
X045494Y028379D01*
X045486Y028339D01*
X045494Y028298D01*
X045517Y028264D01*
X045551Y028241D01*
X045591Y028233D01*
X045632Y028241D01*
X045666Y028264D01*
X045689Y028298D01*
X045697Y028339D01*
X045689Y028379D01*
X045666Y028413D01*
X045632Y028436D01*
X045591Y028444D01*
D02*
G37*
G36*
X046182Y02844D02*
X046141Y028432D01*
X046107Y028409D01*
X046084Y028375D01*
X046076Y028334D01*
X046084Y028294D01*
X046107Y028259D01*
X046141Y028236D01*
X046182Y028228D01*
X046222Y028236D01*
X046257Y028259D01*
X04628Y028294D01*
X046288Y028334D01*
X04628Y028375D01*
X046257Y028409D01*
X046222Y028432D01*
X046182Y02844D01*
D02*
G37*
G36*
X044804Y02844D02*
X044763Y028432D01*
X044729Y028409D01*
X044706Y028375D01*
X044698Y028334D01*
X044706Y028294D01*
X044729Y028259D01*
X044763Y028236D01*
X044804Y028228D01*
X044844Y028236D01*
X044879Y028259D01*
X044902Y028294D01*
X04491Y028334D01*
X044902Y028375D01*
X044879Y028409D01*
X044844Y028432D01*
X044804Y02844D01*
D02*
G37*
G36*
X045394Y028243D02*
X045354Y028235D01*
X04532Y028212D01*
X045297Y028178D01*
X045289Y028137D01*
X045297Y028097D01*
X04532Y028062D01*
X045354Y02804D01*
X045394Y028031D01*
X045435Y02804D01*
X045469Y028062D01*
X045492Y028097D01*
X0455Y028137D01*
X045492Y028178D01*
X045469Y028212D01*
X045435Y028235D01*
X045394Y028243D01*
D02*
G37*
G36*
X045001D02*
X04496Y028235D01*
X044926Y028212D01*
X044903Y028178D01*
X044895Y028137D01*
X044903Y028097D01*
X044926Y028062D01*
X04496Y02804D01*
X045001Y028031D01*
X045041Y02804D01*
X045076Y028062D01*
X045098Y028097D01*
X045107Y028137D01*
X045098Y028178D01*
X045076Y028212D01*
X045041Y028235D01*
X045001Y028243D01*
D02*
G37*
G36*
X052404Y032791D02*
X052364Y032783D01*
X052329Y032761D01*
X052306Y032726D01*
X052298Y032686D01*
X052306Y032645D01*
X052329Y032611D01*
X052356Y032593D01*
X05236Y032564D01*
X052355Y032539D01*
X052328Y03252D01*
X052305Y032486D01*
X052297Y032445D01*
X052305Y032405D01*
X052328Y032371D01*
X052362Y032348D01*
X052403Y03234D01*
X052443Y032348D01*
X052477Y032371D01*
X0525Y032405D01*
X052508Y032445D01*
X0525Y032486D01*
X052477Y03252D01*
X052451Y032538D01*
X052447Y032567D01*
X052451Y032593D01*
X052479Y032611D01*
X052502Y032645D01*
X05251Y032686D01*
X052502Y032726D01*
X052479Y032761D01*
X052445Y032783D01*
X052404Y032791D01*
D02*
G37*
G36*
X050861Y032495D02*
X050821Y032487D01*
X050786Y032464D01*
X050764Y03243D01*
X050755Y03239D01*
X050764Y032349D01*
X050786Y032315D01*
X050821Y032292D01*
X050861Y032284D01*
X050902Y032292D01*
X050936Y032315D01*
X050959Y032349D01*
X050967Y03239D01*
X050959Y03243D01*
X050936Y032464D01*
X050902Y032487D01*
X050861Y032495D01*
D02*
G37*
G36*
X051177Y032335D02*
X051136Y032327D01*
X051102Y032304D01*
X051079Y03227D01*
X051071Y032229D01*
X051079Y032189D01*
X051102Y032155D01*
X051136Y032132D01*
X051177Y032124D01*
X051217Y032132D01*
X051252Y032155D01*
X051274Y032189D01*
X051283Y032229D01*
X051274Y03227D01*
X051252Y032304D01*
X051217Y032327D01*
X051177Y032335D01*
D02*
G37*
G36*
X048219Y03256D02*
X048179Y032552D01*
X048145Y032529D01*
X048122Y032494D01*
X048114Y032454D01*
X048122Y032413D01*
X048145Y032379D01*
X048166Y032365D01*
X048169Y032355D01*
Y032319D01*
X048166Y032309D01*
X048145Y032295D01*
X048122Y032261D01*
X048114Y03222D01*
X048122Y03218D01*
X048145Y032146D01*
X048179Y032123D01*
X048219Y032115D01*
X04826Y032123D01*
X048294Y032146D01*
X048317Y03218D01*
X048325Y03222D01*
X048317Y032261D01*
X048294Y032295D01*
X048273Y032309D01*
X04827Y032319D01*
Y032355D01*
X048273Y032365D01*
X048294Y032379D01*
X048317Y032413D01*
X048325Y032454D01*
X048317Y032494D01*
X048294Y032529D01*
X04826Y032552D01*
X048219Y03256D01*
D02*
G37*
G36*
X049157Y032223D02*
X049116Y032215D01*
X049082Y032192D01*
X049059Y032158D01*
X049051Y032117D01*
X049059Y032077D01*
X049082Y032043D01*
X049116Y03202D01*
X049157Y032012D01*
X049197Y03202D01*
X049232Y032043D01*
X049255Y032077D01*
X049263Y032117D01*
X049255Y032158D01*
X049232Y032192D01*
X049197Y032215D01*
X049157Y032223D01*
D02*
G37*
G36*
X0483Y032048D02*
X04826Y03204D01*
X048225Y032017D01*
X048202Y031983D01*
X048198Y031959D01*
X048147D01*
X048142Y031982D01*
X048119Y032017D01*
X048085Y03204D01*
X048044Y032048D01*
X048004Y03204D01*
X047969Y032017D01*
X047946Y031982D01*
X047938Y031942D01*
X047946Y031901D01*
X047969Y031867D01*
X048004Y031844D01*
X048044Y031836D01*
X048085Y031844D01*
X048119Y031867D01*
X048142Y031901D01*
X048147Y031925D01*
X048198D01*
X048202Y031902D01*
X048225Y031867D01*
X04826Y031844D01*
X0483Y031836D01*
X048341Y031844D01*
X048375Y031867D01*
X048398Y031902D01*
X048406Y031942D01*
X048398Y031983D01*
X048375Y032017D01*
X048341Y03204D01*
X0483Y032048D01*
D02*
G37*
G36*
X050927Y032167D02*
X050887Y032159D01*
X050852Y032136D01*
X050829Y032102D01*
X050821Y032061D01*
X050829Y032021D01*
X050852Y031987D01*
X050887Y031964D01*
X050927Y031956D01*
X050967Y031964D01*
X051002Y031987D01*
X051025Y032021D01*
X051033Y032061D01*
X051025Y032102D01*
X051002Y032136D01*
X050967Y032159D01*
X050927Y032167D01*
D02*
G37*
G36*
X052716Y032163D02*
X052676Y032155D01*
X052642Y032132D01*
X052619Y032098D01*
X052611Y032057D01*
X052619Y032017D01*
X052642Y031983D01*
X052676Y03196D01*
X052716Y031952D01*
X052757Y03196D01*
X052791Y031983D01*
X052814Y032017D01*
X052822Y032057D01*
X052814Y032098D01*
X052791Y032132D01*
X052757Y032155D01*
X052716Y032163D01*
D02*
G37*
G36*
X050579Y032069D02*
X050538Y032061D01*
X050504Y032038D01*
X050481Y032004D01*
X050473Y031963D01*
X050481Y031923D01*
X050504Y031889D01*
X050538Y031866D01*
X050579Y031858D01*
X050619Y031866D01*
X050653Y031889D01*
X050676Y031923D01*
X050684Y031963D01*
X050676Y032004D01*
X050653Y032038D01*
X050619Y032061D01*
X050579Y032069D01*
D02*
G37*
G36*
X049651Y032038D02*
X04961Y03203D01*
X049576Y032007D01*
X049553Y031973D01*
X049545Y031933D01*
X049553Y031892D01*
X049576Y031858D01*
X04961Y031835D01*
X049651Y031827D01*
X049691Y031835D01*
X049726Y031858D01*
X049749Y031892D01*
X049757Y031933D01*
X049749Y031973D01*
X049726Y032007D01*
X049691Y03203D01*
X049651Y032038D01*
D02*
G37*
G36*
X051547Y032036D02*
X051506Y032028D01*
X051472Y032005D01*
X051449Y031971D01*
X051441Y031931D01*
X051449Y03189D01*
X051472Y031856D01*
X051506Y031833D01*
X051547Y031825D01*
X051587Y031833D01*
X051621Y031856D01*
X051644Y03189D01*
X051652Y031931D01*
X051644Y031971D01*
X051621Y032005D01*
X051587Y032028D01*
X051547Y032036D01*
D02*
G37*
G36*
X051233Y032033D02*
X051193Y032025D01*
X051159Y032002D01*
X051136Y031967D01*
X051128Y031927D01*
X051136Y031886D01*
X051159Y031852D01*
X051193Y031829D01*
X051233Y031821D01*
X051274Y031829D01*
X051308Y031852D01*
X051331Y031886D01*
X051339Y031927D01*
X051331Y031967D01*
X051308Y032002D01*
X051274Y032025D01*
X051233Y032033D01*
D02*
G37*
G36*
X052376Y031997D02*
X052336Y031989D01*
X052301Y031966D01*
X052278Y031932D01*
X05227Y031891D01*
X052278Y031851D01*
X052301Y031816D01*
X052336Y031794D01*
X052376Y031786D01*
X052417Y031794D01*
X052451Y031816D01*
X052474Y031851D01*
X052482Y031891D01*
X052474Y031932D01*
X052451Y031966D01*
X052417Y031989D01*
X052376Y031997D01*
D02*
G37*
G36*
X049183Y031876D02*
X049142Y031868D01*
X049108Y031845D01*
X049085Y03181D01*
X049077Y03177D01*
X049085Y031729D01*
X049108Y031695D01*
X049142Y031672D01*
X049183Y031664D01*
X049223Y031672D01*
X049257Y031695D01*
X04928Y031729D01*
X049288Y03177D01*
X04928Y03181D01*
X049257Y031845D01*
X049223Y031868D01*
X049183Y031876D01*
D02*
G37*
G36*
X048044Y031753D02*
X048004Y031744D01*
X047969Y031722D01*
X047946Y031687D01*
X047942Y031663D01*
X047891D01*
X047886Y031687D01*
X047863Y031721D01*
X047829Y031744D01*
X047788Y031752D01*
X047748Y031744D01*
X047714Y031721D01*
X047691Y031687D01*
X047683Y031647D01*
X047691Y031606D01*
X047714Y031572D01*
X047748Y031549D01*
X047788Y031541D01*
X047829Y031549D01*
X047863Y031572D01*
X047886Y031606D01*
X047891Y03163D01*
X047942D01*
X047946Y031606D01*
X047969Y031572D01*
X048004Y031549D01*
X048044Y031541D01*
X048085Y031549D01*
X048119Y031572D01*
X048142Y031606D01*
X04815Y031647D01*
X048142Y031687D01*
X048119Y031722D01*
X048085Y031744D01*
X048044Y031753D01*
D02*
G37*
G36*
X052717Y031824D02*
X052677Y031816D01*
X052643Y031793D01*
X05262Y031758D01*
X052612Y031718D01*
X05262Y031677D01*
X052643Y031643D01*
X052677Y03162D01*
X052717Y031612D01*
X052758Y03162D01*
X052792Y031643D01*
X052812Y031672D01*
X052815Y031677D01*
X052818Y031681D01*
X05287Y031673D01*
X052871Y031671D01*
X052874Y031654D01*
X052897Y03162D01*
X052931Y031597D01*
X052972Y031589D01*
X053012Y031597D01*
X053047Y03162D01*
X05307Y031654D01*
X053078Y031695D01*
X05307Y031735D01*
X053047Y031769D01*
X053012Y031792D01*
X052972Y0318D01*
X052931Y031792D01*
X052897Y031769D01*
X052878Y03174D01*
X052874Y031735D01*
X052871Y031731D01*
X052819Y031739D01*
X052818Y031741D01*
X052815Y031758D01*
X052792Y031793D01*
X052758Y031816D01*
X052717Y031824D01*
D02*
G37*
G36*
X047166Y031599D02*
X047126Y031591D01*
X047091Y031568D01*
X047041Y031559D01*
X047006Y031581D01*
X046966Y03159D01*
X046925Y031581D01*
X046891Y031559D01*
X046868Y031524D01*
X04686Y031484D01*
X046868Y031443D01*
X046891Y031409D01*
X046925Y031386D01*
X046966Y031378D01*
X047006Y031386D01*
X047041Y031409D01*
X047045Y03141D01*
X047064Y031394D01*
X047091Y031352D01*
X047068Y031318D01*
X04706Y031278D01*
X047068Y031237D01*
X047091Y031203D01*
X047126Y03118D01*
X047166Y031172D01*
X047207Y03118D01*
X047241Y031203D01*
X047264Y031237D01*
X047272Y031278D01*
X047264Y031318D01*
X047241Y031352D01*
X047237Y031355D01*
Y031415D01*
X047241Y031418D01*
X047264Y031452D01*
X047272Y031493D01*
X047264Y031533D01*
X047241Y031568D01*
X047207Y031591D01*
X047166Y031599D01*
D02*
G37*
G36*
X051867Y031719D02*
X051827Y031711D01*
X051792Y031688D01*
X051769Y031654D01*
X051761Y031614D01*
X051769Y031573D01*
X051792Y031539D01*
X051827Y031516D01*
X051867Y031508D01*
X051908Y031516D01*
X051942Y031539D01*
X051965Y031573D01*
X051973Y031614D01*
X051965Y031654D01*
X051942Y031688D01*
X051908Y031711D01*
X051867Y031719D01*
D02*
G37*
G36*
X051233Y031718D02*
X051193Y03171D01*
X051159Y031687D01*
X051136Y031652D01*
X051128Y031612D01*
X051136Y031571D01*
X051159Y031537D01*
X051193Y031514D01*
X051233Y031506D01*
X051274Y031514D01*
X051308Y031537D01*
X051331Y031571D01*
X051339Y031612D01*
X051331Y031652D01*
X051308Y031687D01*
X051274Y03171D01*
X051233Y031718D01*
D02*
G37*
G36*
X048466Y03159D02*
X048425Y031581D01*
X048391Y031559D01*
X048368Y031524D01*
X04836Y031484D01*
X048366Y031452D01*
X048357Y031437D01*
X04835Y031429D01*
X048328Y031412D01*
X0483Y031418D01*
X04826Y03141D01*
X048225Y031387D01*
X048202Y031353D01*
X048198Y031329D01*
X048147D01*
X048142Y031353D01*
X048119Y031387D01*
X048085Y03141D01*
X048044Y031418D01*
X048004Y03141D01*
X047969Y031387D01*
X04795Y031358D01*
X047946Y031353D01*
X047942Y031347D01*
X047889Y031358D01*
X047889Y031358D01*
X047886Y031372D01*
X047863Y031407D01*
X047829Y03143D01*
X047788Y031438D01*
X047748Y03143D01*
X047714Y031407D01*
X047691Y031372D01*
X047683Y031332D01*
X047691Y031291D01*
X047714Y031257D01*
X047748Y031234D01*
X047788Y031226D01*
X047829Y031234D01*
X047863Y031257D01*
X047882Y031286D01*
X047886Y031291D01*
X04789Y031297D01*
X047944Y031286D01*
X047944Y031286D01*
X047946Y031272D01*
X047969Y031237D01*
X048004Y031214D01*
X048044Y031206D01*
X048085Y031214D01*
X048119Y031237D01*
X048142Y031272D01*
X048147Y031295D01*
X048198D01*
X048202Y031272D01*
X048225Y031237D01*
X04826Y031214D01*
X0483Y031206D01*
X048341Y031214D01*
X048375Y031237D01*
X048398Y031272D01*
X048406Y031312D01*
X0484Y031344D01*
X048409Y031359D01*
X048416Y031367D01*
X048437Y031384D01*
X048466Y031378D01*
X048506Y031386D01*
X04854Y031409D01*
X048563Y031443D01*
X048571Y031484D01*
X048563Y031524D01*
X04854Y031559D01*
X048506Y031581D01*
X048466Y03159D01*
D02*
G37*
G36*
X052376Y03139D02*
X052336Y031382D01*
X052301Y031359D01*
X052278Y031325D01*
X05227Y031285D01*
X052278Y031244D01*
X052301Y03121D01*
X052336Y031187D01*
X052376Y031179D01*
X052417Y031187D01*
X052451Y03121D01*
X052474Y031244D01*
X052482Y031285D01*
X052474Y031325D01*
X052451Y031359D01*
X052417Y031382D01*
X052376Y03139D01*
D02*
G37*
G36*
X046969Y031196D02*
X046929Y031188D01*
X046894Y031165D01*
X046872Y03113D01*
X046863Y03109D01*
X046872Y03105D01*
X046894Y031015D01*
X046929Y030992D01*
X046969Y030984D01*
X04701Y030992D01*
X047044Y031015D01*
X047067Y03105D01*
X047075Y03109D01*
X047067Y03113D01*
X047044Y031165D01*
X04701Y031188D01*
X046969Y031196D01*
D02*
G37*
G36*
X052717Y031194D02*
X052677Y031186D01*
X052643Y031163D01*
X05262Y031128D01*
X052612Y031088D01*
X05262Y031047D01*
X052643Y031013D01*
X052677Y03099D01*
X052717Y030982D01*
X052758Y03099D01*
X052792Y031013D01*
X052815Y031047D01*
X052823Y031088D01*
X052815Y031128D01*
X052792Y031163D01*
X052758Y031186D01*
X052717Y031194D01*
D02*
G37*
G36*
X051548Y031088D02*
X051508Y03108D01*
X051474Y031057D01*
X051451Y031022D01*
X051443Y030982D01*
X051451Y030941D01*
X051474Y030907D01*
X051508Y030884D01*
X051548Y030876D01*
X051589Y030884D01*
X051623Y030907D01*
X051646Y030941D01*
X051654Y030982D01*
X051646Y031022D01*
X051623Y031057D01*
X051589Y03108D01*
X051548Y031088D01*
D02*
G37*
G36*
X047165Y030802D02*
X047124Y030794D01*
X047101Y030778D01*
X047068Y030774D01*
X047035Y030778D01*
X047011Y030794D01*
X046971Y030802D01*
X04693Y030794D01*
X046896Y030771D01*
X046873Y030737D01*
X046865Y030696D01*
X046873Y030656D01*
X04689Y030631D01*
X046896Y030622D01*
X046887Y030568D01*
X04687Y030543D01*
X046862Y030502D01*
X04687Y030462D01*
X046893Y030428D01*
X046927Y030405D01*
X046968Y030397D01*
X047008Y030405D01*
X047043Y030428D01*
X047103Y030427D01*
X047103Y030427D01*
X047137Y030404D01*
X047177Y030396D01*
X047218Y030404D01*
X047252Y030427D01*
X047275Y030461D01*
X047283Y030502D01*
X047275Y030542D01*
X047252Y030577D01*
X04724Y030622D01*
X047262Y030656D01*
X04727Y030696D01*
X047262Y030737D01*
X04724Y030771D01*
X047205Y030794D01*
X047165Y030802D01*
D02*
G37*
G36*
X04775Y030764D02*
X047709Y030756D01*
X047675Y030733D01*
X047652Y030699D01*
X047644Y030659D01*
X047652Y030618D01*
X047675Y030584D01*
X047709Y030561D01*
X04775Y030553D01*
X04779Y030561D01*
X047825Y030584D01*
X047848Y030618D01*
X047856Y030659D01*
X047848Y030699D01*
X047825Y030733D01*
X04779Y030756D01*
X04775Y030764D01*
D02*
G37*
G36*
X050749Y030591D02*
X050708Y030582D01*
X050674Y03056D01*
X050651Y030525D01*
X050643Y030485D01*
X050651Y030444D01*
X050674Y03041D01*
X050708Y030387D01*
X050749Y030379D01*
X050789Y030387D01*
X050824Y03041D01*
X050847Y030444D01*
X050855Y030485D01*
X050847Y030525D01*
X050824Y03056D01*
X050789Y030582D01*
X050749Y030591D01*
D02*
G37*
G36*
X04878Y031162D02*
X04874Y031154D01*
X048706Y031131D01*
X048683Y031097D01*
X048675Y031056D01*
X048679Y031037D01*
X048648Y030996D01*
X04864Y030992D01*
X048605Y030985D01*
X04857Y030962D01*
X048548Y030927D01*
X048539Y030887D01*
X048548Y030846D01*
X04857Y030812D01*
Y030757D01*
X048548Y030723D01*
X048539Y030682D01*
X048548Y030642D01*
X04857Y030607D01*
Y030552D01*
X048548Y030518D01*
X048539Y030477D01*
X048548Y030437D01*
X04857Y030403D01*
X048605Y03038D01*
X048645Y030372D01*
X048686Y03038D01*
X04872Y030403D01*
X048743Y030437D01*
X048751Y030477D01*
X048743Y030518D01*
X04872Y030552D01*
Y030607D01*
X048743Y030642D01*
X048751Y030682D01*
X048743Y030723D01*
X04872Y030757D01*
Y030812D01*
X048743Y030846D01*
X048751Y030887D01*
X048747Y030906D01*
X048778Y030947D01*
X048785Y030951D01*
X048821Y030958D01*
X048855Y030981D01*
X048878Y031016D01*
X048886Y031056D01*
X048878Y031097D01*
X048855Y031131D01*
X048821Y031154D01*
X04878Y031162D01*
D02*
G37*
G36*
X049974Y030469D02*
X049933Y030461D01*
X049899Y030438D01*
X049876Y030404D01*
X049868Y030364D01*
X049876Y030323D01*
X049899Y030289D01*
X049933Y030266D01*
X049974Y030258D01*
X050014Y030266D01*
X050048Y030289D01*
X050071Y030323D01*
X050079Y030364D01*
X050071Y030404D01*
X050048Y030438D01*
X050014Y030461D01*
X049974Y030469D01*
D02*
G37*
G36*
X051166Y030404D02*
X051125Y030395D01*
X051091Y030373D01*
X051068Y030338D01*
X05106Y030298D01*
X051068Y030257D01*
X051091Y030223D01*
X051125Y0302D01*
X051166Y030192D01*
X051206Y0302D01*
X051241Y030223D01*
X051264Y030257D01*
X051272Y030298D01*
X051264Y030338D01*
X051241Y030373D01*
X051206Y030395D01*
X051166Y030404D01*
D02*
G37*
G36*
X052933Y030238D02*
X052892Y03023D01*
X052858Y030207D01*
X052835Y030173D01*
X052827Y030133D01*
X052835Y030092D01*
X052858Y030058D01*
X052892Y030035D01*
X052933Y030027D01*
X052973Y030035D01*
X053008Y030058D01*
X053031Y030092D01*
X053039Y030133D01*
X053031Y030173D01*
X053008Y030207D01*
X052973Y03023D01*
X052933Y030238D01*
D02*
G37*
G36*
X047168Y030212D02*
X047127Y030203D01*
X047093Y030181D01*
X04707Y030146D01*
X047062Y030106D01*
X04707Y030065D01*
X047093Y030031D01*
X047127Y030008D01*
X047168Y03D01*
X047208Y030008D01*
X047242Y030031D01*
X047265Y030065D01*
X047273Y030106D01*
X047265Y030146D01*
X047242Y030181D01*
X047208Y030203D01*
X047168Y030212D01*
D02*
G37*
G36*
X048931Y030175D02*
X048891Y030167D01*
X048857Y030145D01*
X048834Y03011D01*
X048826Y03007D01*
X048834Y030029D01*
X048857Y029995D01*
X048891Y029972D01*
X048931Y029964D01*
X048972Y029972D01*
X049006Y029995D01*
X049026Y030024D01*
X049029Y030029D01*
X049033Y030035D01*
X049086Y030024D01*
X049089Y03001D01*
X049112Y029976D01*
X049146Y029953D01*
X049187Y029945D01*
X049227Y029953D01*
X049261Y029976D01*
X049284Y03001D01*
X049292Y030051D01*
X049284Y030091D01*
X049261Y030125D01*
X049227Y030148D01*
X049187Y030156D01*
X049146Y030148D01*
X049112Y030125D01*
X049092Y030096D01*
X049089Y030091D01*
X049085Y030086D01*
X049032Y030096D01*
X049029Y03011D01*
X049006Y030145D01*
X048972Y030167D01*
X048931Y030175D01*
D02*
G37*
G36*
X049974Y030143D02*
X049933Y030135D01*
X049899Y030112D01*
X049876Y030078D01*
X049868Y030037D01*
X049876Y029997D01*
X049899Y029962D01*
X049933Y029939D01*
X049974Y029931D01*
X050014Y029939D01*
X050048Y029962D01*
X050071Y029997D01*
X050079Y030037D01*
X050071Y030078D01*
X050048Y030112D01*
X050014Y030135D01*
X049974Y030143D01*
D02*
G37*
G36*
X050298Y030469D02*
X050258Y030461D01*
X050223Y030438D01*
X0502Y030404D01*
X050192Y030364D01*
X0502Y030323D01*
X050223Y030289D01*
X050258Y030266D01*
X050298Y030258D01*
X050301Y030258D01*
X050341Y030215D01*
X050338Y030202D01*
X050346Y030162D01*
X050369Y030127D01*
X050403Y030104D01*
X050431Y030099D01*
X050449Y030086D01*
X050468Y03005D01*
X050464Y03003D01*
X050472Y029989D01*
X050495Y029955D01*
X05053Y029932D01*
X05057Y029924D01*
X05061Y029932D01*
X050645Y029955D01*
X050668Y029989D01*
X050676Y03003D01*
X050668Y03007D01*
X050645Y030105D01*
X05061Y030128D01*
X050583Y030133D01*
X050565Y030146D01*
X050546Y030182D01*
X05055Y030202D01*
X050542Y030243D01*
X050519Y030277D01*
X050484Y0303D01*
X050444Y030308D01*
X050441Y030307D01*
X050401Y03035D01*
X050404Y030364D01*
X050396Y030404D01*
X050373Y030438D01*
X050338Y030461D01*
X050298Y030469D01*
D02*
G37*
G36*
X051011Y030071D02*
X050971Y030063D01*
X050936Y03004D01*
X050914Y030006D01*
X050905Y029965D01*
X050914Y029925D01*
X050936Y029891D01*
X050971Y029868D01*
X051011Y02986D01*
X051052Y029868D01*
X051086Y029891D01*
X051109Y029925D01*
X051117Y029965D01*
X051109Y030006D01*
X051086Y03004D01*
X051052Y030063D01*
X051011Y030071D01*
D02*
G37*
G36*
X046969Y030015D02*
X046929Y030007D01*
X046894Y029984D01*
X046872Y029949D01*
X046863Y029909D01*
X046872Y029868D01*
X046894Y029834D01*
X046929Y029811D01*
X046969Y029803D01*
X04701Y029811D01*
X047044Y029834D01*
X047067Y029868D01*
X047075Y029909D01*
X047067Y029949D01*
X047044Y029984D01*
X04701Y030007D01*
X046969Y030015D01*
D02*
G37*
G36*
X052386Y029931D02*
X052345Y029923D01*
X052311Y0299D01*
X052288Y029866D01*
X05228Y029826D01*
X052288Y029785D01*
X052311Y029751D01*
X052345Y029728D01*
X052386Y02972D01*
X052426Y029728D01*
X05246Y029751D01*
X052483Y029785D01*
X052491Y029826D01*
X052483Y029866D01*
X05246Y0299D01*
X052426Y029923D01*
X052386Y029931D01*
D02*
G37*
G36*
X047934Y029778D02*
X047893Y02977D01*
X047859Y029747D01*
X047836Y029713D01*
X047831Y029685D01*
X047799Y029662D01*
X04778Y029655D01*
X047747Y029662D01*
X047707Y029654D01*
X047673Y029631D01*
X04765Y029597D01*
X047642Y029556D01*
X04765Y029516D01*
X047673Y029481D01*
X047707Y029458D01*
X047747Y02945D01*
X047788Y029458D01*
X04783Y029432D01*
X047853Y029398D01*
X047887Y029375D01*
X047928Y029367D01*
X047968Y029375D01*
X048003Y029398D01*
X048026Y029432D01*
X048034Y029473D01*
X048026Y029513D01*
X048003Y029548D01*
X048009Y029597D01*
X048031Y029632D01*
X04804Y029672D01*
X048031Y029713D01*
X048009Y029747D01*
X047974Y02977D01*
X047934Y029778D01*
D02*
G37*
G36*
X050289Y029845D02*
X050248Y029837D01*
X050214Y029814D01*
X050191Y029779D01*
X050183Y029739D01*
X050191Y029698D01*
X050214Y029664D01*
X050248Y029641D01*
X050289Y029633D01*
X050329Y029641D01*
X050363Y029664D01*
X050386Y029698D01*
X050394Y029739D01*
X050386Y029779D01*
X050363Y029814D01*
X050329Y029837D01*
X050289Y029845D01*
D02*
G37*
G36*
X051548Y029828D02*
X051508Y02982D01*
X051474Y029797D01*
X051451Y029763D01*
X051443Y029722D01*
X051451Y029682D01*
X051474Y029647D01*
X051508Y029624D01*
X051548Y029616D01*
X051589Y029624D01*
X051623Y029647D01*
X051646Y029682D01*
X051654Y029722D01*
X051646Y029763D01*
X051623Y029797D01*
X051589Y02982D01*
X051548Y029828D01*
D02*
G37*
G36*
X047167Y029828D02*
X047127Y02982D01*
X047093Y029797D01*
X04707Y029762D01*
X047062Y029722D01*
X04707Y029681D01*
X047093Y029647D01*
X047127Y029624D01*
X047167Y029616D01*
X047208Y029624D01*
X047242Y029647D01*
X047265Y029681D01*
X047273Y029722D01*
X047265Y029762D01*
X047242Y029797D01*
X047208Y02982D01*
X047167Y029828D01*
D02*
G37*
G36*
X051151Y029763D02*
X051111Y029755D01*
X051077Y029732D01*
X051054Y029698D01*
X051046Y029657D01*
X051054Y029617D01*
X051077Y029582D01*
X051111Y029559D01*
X051151Y029551D01*
X051192Y029559D01*
X051226Y029582D01*
X051249Y029617D01*
X051257Y029657D01*
X051249Y029698D01*
X051226Y029732D01*
X051192Y029755D01*
X051151Y029763D01*
D02*
G37*
G36*
X048234Y029698D02*
X048194Y02969D01*
X048159Y029667D01*
X048136Y029633D01*
X048128Y029592D01*
X048136Y029552D01*
X048159Y029518D01*
X048194Y029495D01*
X048234Y029487D01*
X048275Y029495D01*
X048309Y029518D01*
X048332Y029552D01*
X04834Y029592D01*
X048332Y029633D01*
X048309Y029667D01*
X048275Y02969D01*
X048234Y029698D01*
D02*
G37*
G36*
X052717Y029609D02*
X052677Y029601D01*
X052643Y029578D01*
X05262Y029544D01*
X052612Y029503D01*
X05262Y029463D01*
X052643Y029428D01*
X052677Y029406D01*
X052717Y029398D01*
X052758Y029406D01*
X052792Y029428D01*
X052815Y029463D01*
X052823Y029503D01*
X052815Y029544D01*
X052792Y029578D01*
X052758Y029601D01*
X052717Y029609D01*
D02*
G37*
G36*
X051556Y02952D02*
X051515Y029512D01*
X051481Y029489D01*
X051458Y029455D01*
X05145Y029414D01*
X051458Y029374D01*
X051481Y029339D01*
X051515Y029317D01*
X051556Y029309D01*
X051596Y029317D01*
X05163Y029339D01*
X051653Y029374D01*
X051661Y029414D01*
X051653Y029455D01*
X05163Y029489D01*
X051596Y029512D01*
X051556Y02952D01*
D02*
G37*
G36*
X050289Y029513D02*
X050248Y029505D01*
X050214Y029482D01*
X050191Y029448D01*
X050183Y029407D01*
X050191Y029367D01*
X050214Y029332D01*
X050248Y029309D01*
X050289Y029301D01*
X050329Y029309D01*
X050363Y029332D01*
X050386Y029367D01*
X050394Y029407D01*
X050386Y029448D01*
X050363Y029482D01*
X050329Y029505D01*
X050289Y029513D01*
D02*
G37*
G36*
X049974D02*
X049933Y029505D01*
X049899Y029482D01*
X049876Y029448D01*
X049868Y029407D01*
X049876Y029367D01*
X049899Y029332D01*
X049933Y029309D01*
X049974Y029301D01*
X050014Y029309D01*
X050048Y029332D01*
X050071Y029367D01*
X050079Y029407D01*
X050071Y029448D01*
X050048Y029482D01*
X050014Y029505D01*
X049974Y029513D01*
D02*
G37*
G36*
X049657Y029512D02*
X049617Y029504D01*
X049582Y029481D01*
X049559Y029446D01*
X049551Y029406D01*
X049559Y029365D01*
X049582Y029331D01*
X049617Y029308D01*
X049657Y0293D01*
X049698Y029308D01*
X049732Y029331D01*
X049755Y029365D01*
X049763Y029406D01*
X049755Y029446D01*
X049732Y029481D01*
X049698Y029504D01*
X049657Y029512D01*
D02*
G37*
G36*
X047168Y029432D02*
X047127Y029424D01*
X047093Y029401D01*
X04707Y029367D01*
X047062Y029327D01*
X04707Y029286D01*
X047092Y029254D01*
X047081Y029204D01*
X047043Y029197D01*
X04701Y029219D01*
X046969Y029227D01*
X046929Y029219D01*
X046894Y029196D01*
X046872Y029162D01*
X046863Y029122D01*
X046872Y029081D01*
X046894Y029047D01*
X046929Y029024D01*
X046969Y029016D01*
X04701Y029024D01*
X047044Y029047D01*
X047093D01*
X047127Y029024D01*
X047168Y029016D01*
X047208Y029024D01*
X047242Y029047D01*
X047265Y029081D01*
X047273Y029122D01*
X047265Y029162D01*
X047242Y029196D01*
X047243Y029252D01*
X047265Y029286D01*
X047274Y029327D01*
X047265Y029367D01*
X047243Y029401D01*
X047208Y029424D01*
X047168Y029432D01*
D02*
G37*
G36*
X051548Y029198D02*
X051508Y02919D01*
X051474Y029167D01*
X051451Y029133D01*
X051443Y029092D01*
X051451Y029052D01*
X051474Y029017D01*
X051508Y028994D01*
X051548Y028986D01*
X051589Y028994D01*
X051623Y029017D01*
X051646Y029052D01*
X051654Y029092D01*
X051646Y029133D01*
X051623Y029167D01*
X051589Y02919D01*
X051548Y029198D01*
D02*
G37*
G36*
X04856Y029416D02*
X04852Y029408D01*
X048485Y029385D01*
X048462Y02935D01*
X048454Y02931D01*
X048462Y029269D01*
X048485Y029235D01*
X048495Y029228D01*
X048497Y029169D01*
X04849Y029165D01*
X048467Y02913D01*
X048459Y02909D01*
X048467Y029049D01*
X04849Y029015D01*
X048524Y028992D01*
X048565Y028984D01*
X048605Y028992D01*
X04864Y029015D01*
X048663Y029049D01*
X048671Y02909D01*
X048663Y02913D01*
X04864Y029165D01*
X04863Y029171D01*
X048628Y02923D01*
X048635Y029235D01*
X048658Y029269D01*
X048666Y02931D01*
X048658Y02935D01*
X048635Y029385D01*
X0486Y029408D01*
X04856Y029416D01*
D02*
G37*
G36*
X049076Y029091D02*
X049035Y029083D01*
X049001Y029061D01*
X048978Y029026D01*
X04897Y028986D01*
X048978Y028945D01*
X049001Y028911D01*
X049035Y028888D01*
X049076Y02888D01*
X049116Y028888D01*
X04915Y028911D01*
X049173Y028945D01*
X049181Y028986D01*
X049173Y029026D01*
X04915Y029061D01*
X049116Y029083D01*
X049076Y029091D01*
D02*
G37*
G36*
X050419Y029036D02*
X050378Y029028D01*
X050344Y029005D01*
X050321Y028971D01*
X050313Y028931D01*
X050321Y02889D01*
X050344Y028856D01*
X050378Y028833D01*
X050419Y028825D01*
X050459Y028833D01*
X050494Y028856D01*
X050517Y02889D01*
X050525Y028931D01*
X050517Y028971D01*
X050494Y029005D01*
X050459Y029028D01*
X050419Y029036D01*
D02*
G37*
G36*
X048134Y028987D02*
X048094Y028978D01*
X04806Y028956D01*
X048037Y028921D01*
X048029Y028881D01*
X048037Y02884D01*
X04806Y028806D01*
X048094Y028783D01*
X048134Y028775D01*
X048175Y028783D01*
X048209Y028806D01*
X048232Y02884D01*
X04824Y028881D01*
X048232Y028921D01*
X048209Y028956D01*
X048175Y028978D01*
X048134Y028987D01*
D02*
G37*
G36*
X051548Y02889D02*
X051508Y028882D01*
X051474Y028859D01*
X051451Y028825D01*
X051443Y028784D01*
X051451Y028744D01*
X051474Y028709D01*
X051508Y028687D01*
X051548Y028679D01*
X051589Y028687D01*
X051623Y028709D01*
X051646Y028744D01*
X051654Y028784D01*
X051646Y028825D01*
X051623Y028859D01*
X051589Y028882D01*
X051548Y02889D01*
D02*
G37*
G36*
X049651Y028883D02*
X04961Y028875D01*
X049576Y028852D01*
X049553Y028818D01*
X049545Y028777D01*
X049553Y028737D01*
X049576Y028702D01*
X04961Y028679D01*
X049651Y028671D01*
X049691Y028679D01*
X049726Y028702D01*
X049749Y028737D01*
X049757Y028777D01*
X049749Y028818D01*
X049726Y028852D01*
X049691Y028875D01*
X049651Y028883D01*
D02*
G37*
G36*
X051863Y028883D02*
X051823Y028875D01*
X051789Y028852D01*
X051766Y028818D01*
X051758Y028777D01*
X051766Y028737D01*
X051789Y028702D01*
X051823Y028679D01*
X051863Y028671D01*
X051904Y028679D01*
X051938Y028702D01*
X051961Y028737D01*
X051969Y028777D01*
X051961Y028818D01*
X051938Y028852D01*
X051904Y028875D01*
X051863Y028883D01*
D02*
G37*
G36*
X051163Y029083D02*
X051122Y029075D01*
X051088Y029052D01*
X051065Y029017D01*
X051057Y028977D01*
X051065Y028936D01*
X051088Y028902D01*
X051122Y028879D01*
X051126Y028878D01*
X051148Y028823D01*
X051143Y028815D01*
X051135Y028774D01*
X051143Y028734D01*
X051166Y028699D01*
X0512Y028677D01*
X051241Y028669D01*
X051281Y028677D01*
X051315Y028699D01*
X051338Y028734D01*
X051346Y028774D01*
X051338Y028815D01*
X051315Y028849D01*
X051281Y028872D01*
X051277Y028873D01*
X051255Y028928D01*
X05126Y028936D01*
X051268Y028977D01*
X05126Y029017D01*
X051237Y029052D01*
X051203Y029075D01*
X051163Y029083D01*
D02*
G37*
G36*
X052462Y029055D02*
X052421Y029047D01*
X052387Y029024D01*
X052364Y02899D01*
X052356Y02895D01*
X052364Y028909D01*
X052387Y028875D01*
X05241Y028859D01*
X052413Y028844D01*
Y028819D01*
X05241Y028804D01*
X052387Y028788D01*
X052364Y028754D01*
X052356Y028714D01*
X052364Y028673D01*
X052387Y028639D01*
X052421Y028616D01*
X052462Y028608D01*
X052502Y028616D01*
X052536Y028639D01*
X052559Y028673D01*
X052567Y028714D01*
X052559Y028754D01*
X052536Y028788D01*
X052513Y028804D01*
X05251Y028819D01*
Y028844D01*
X052513Y028859D01*
X052536Y028875D01*
X052559Y028909D01*
X052567Y02895D01*
X052559Y02899D01*
X052536Y029024D01*
X052502Y029047D01*
X052462Y029055D01*
D02*
G37*
G36*
X047168Y028637D02*
X047127Y028629D01*
X047093Y028606D01*
X047041D01*
X047006Y028629D01*
X046966Y028637D01*
X046925Y028629D01*
X046891Y028606D01*
X046868Y028571D01*
X04686Y028531D01*
X046868Y028491D01*
X046891Y028456D01*
X046894Y02841D01*
X046889Y028402D01*
X046872Y028376D01*
X046863Y028336D01*
X046872Y028295D01*
X046894Y028261D01*
X046929Y028238D01*
X046969Y02823D01*
X04701Y028238D01*
X047044Y028261D01*
X047091Y028259D01*
X047096Y028256D01*
X047126Y028236D01*
X047166Y028228D01*
X047207Y028236D01*
X047241Y028259D01*
X047264Y028294D01*
X047272Y028334D01*
X047264Y028375D01*
X047241Y028409D01*
X047242Y028456D01*
X047246Y028461D01*
X047265Y028491D01*
X047273Y028531D01*
X047265Y028571D01*
X047242Y028606D01*
X047208Y028629D01*
X047168Y028637D01*
D02*
G37*
G36*
X048527Y028753D02*
X048486Y028745D01*
X048452Y028722D01*
X048429Y028687D01*
X048421Y028647D01*
X048429Y028607D01*
X048452Y028572D01*
X048486Y028549D01*
X048527Y028541D01*
X048567Y028549D01*
X048601Y028572D01*
X048624Y028607D01*
X048632Y028647D01*
X048624Y028687D01*
X048601Y028722D01*
X048567Y028745D01*
X048527Y028753D01*
D02*
G37*
G36*
X050363Y028747D02*
X050322Y028739D01*
X050288Y028716D01*
X050265Y028681D01*
X050257Y028641D01*
X050265Y0286D01*
X050288Y028566D01*
X050322Y028543D01*
X050363Y028535D01*
X050403Y028543D01*
X050437Y028566D01*
X05046Y0286D01*
X050468Y028641D01*
X05046Y028681D01*
X050437Y028716D01*
X050403Y028739D01*
X050363Y028747D01*
D02*
G37*
G36*
X052227Y028674D02*
X052186Y028666D01*
X052152Y028643D01*
X052129Y028608D01*
X052121Y028568D01*
X052129Y028527D01*
X052152Y028493D01*
X052186Y02847D01*
X052227Y028462D01*
X052267Y02847D01*
X052301Y028493D01*
X052324Y028527D01*
X052332Y028568D01*
X052324Y028608D01*
X052301Y028643D01*
X052267Y028666D01*
X052227Y028674D01*
D02*
G37*
G36*
X051118Y028609D02*
X051077Y028601D01*
X051043Y028578D01*
X05102Y028544D01*
X051012Y028504D01*
X05102Y028463D01*
X051043Y028429D01*
X051077Y028406D01*
X051118Y028398D01*
X051158Y028406D01*
X051192Y028429D01*
X051215Y028463D01*
X051223Y028504D01*
X051215Y028544D01*
X051192Y028578D01*
X051158Y028601D01*
X051118Y028609D01*
D02*
G37*
G36*
X051869Y028568D02*
X051828Y02856D01*
X051794Y028537D01*
X051771Y028503D01*
X051763Y028462D01*
X051771Y028422D01*
X051794Y028387D01*
X051828Y028365D01*
X051869Y028356D01*
X051909Y028365D01*
X051943Y028387D01*
X051966Y028422D01*
X051974Y028462D01*
X051966Y028503D01*
X051943Y028537D01*
X051909Y02856D01*
X051869Y028568D01*
D02*
G37*
G36*
X051548D02*
X051508Y02856D01*
X051474Y028537D01*
X051451Y028503D01*
X051443Y028462D01*
X051451Y028422D01*
X051474Y028387D01*
X051508Y028365D01*
X051548Y028356D01*
X051589Y028365D01*
X051623Y028387D01*
X051646Y028422D01*
X051654Y028462D01*
X051646Y028503D01*
X051623Y028537D01*
X051589Y02856D01*
X051548Y028568D01*
D02*
G37*
G36*
X050345Y028453D02*
X050305Y028445D01*
X050271Y028422D01*
X050248Y028388D01*
X05024Y028348D01*
X050248Y028307D01*
X050271Y028273D01*
X050305Y02825D01*
X050345Y028242D01*
X050386Y02825D01*
X05042Y028273D01*
X050443Y028307D01*
X050451Y028348D01*
X050443Y028388D01*
X05042Y028422D01*
X050386Y028445D01*
X050345Y028453D01*
D02*
G37*
G36*
X05267Y02844D02*
X05263Y028432D01*
X052595Y028409D01*
X052572Y028375D01*
X052564Y028335D01*
X052572Y028294D01*
X052595Y02826D01*
X05263Y028237D01*
X05267Y028229D01*
X05271Y028237D01*
X052745Y02826D01*
X052768Y028294D01*
X052776Y028335D01*
X052768Y028375D01*
X052745Y028409D01*
X05271Y028432D01*
X05267Y02844D01*
D02*
G37*
G36*
X051541Y02826D02*
X051501Y028252D01*
X051466Y028229D01*
X051443Y028195D01*
X051435Y028155D01*
X051443Y028114D01*
X051466Y02808D01*
X051501Y028057D01*
X051541Y028049D01*
X051582Y028057D01*
X051616Y02808D01*
X051639Y028114D01*
X051647Y028155D01*
X051639Y028195D01*
X051616Y028229D01*
X051582Y028252D01*
X051541Y02826D01*
D02*
G37*
G36*
X049981Y02825D02*
X04994Y028242D01*
X049906Y028219D01*
X049883Y028185D01*
X049875Y028144D01*
X049883Y028104D01*
X049906Y028069D01*
X04994Y028047D01*
X049981Y028039D01*
X050021Y028047D01*
X050056Y028069D01*
X050079Y028104D01*
X050087Y028144D01*
X050079Y028185D01*
X050056Y028219D01*
X050021Y028242D01*
X049981Y02825D01*
D02*
G37*
G36*
X051869Y028247D02*
X051829Y028239D01*
X051794Y028216D01*
X051771Y028182D01*
X051763Y028142D01*
X051771Y028101D01*
X051794Y028067D01*
X051829Y028044D01*
X051869Y028036D01*
X05191Y028044D01*
X051944Y028067D01*
X051967Y028101D01*
X051975Y028142D01*
X051967Y028182D01*
X051944Y028216D01*
X05191Y028239D01*
X051869Y028247D01*
D02*
G37*
G36*
X047919Y028796D02*
X047879Y028788D01*
X047845Y028765D01*
X047822Y028731D01*
X047814Y02869D01*
X04782Y028657D01*
X047807Y028633D01*
X047789Y02861D01*
X047756Y028603D01*
X047722Y02858D01*
X047699Y028546D01*
X047691Y028505D01*
X047699Y028465D01*
X047722Y028431D01*
X047756Y028408D01*
X047796Y0284D01*
X047837Y028408D01*
X047871Y028431D01*
X047894Y028465D01*
X047902Y028505D01*
X047896Y028537D01*
X047926Y028577D01*
X047947Y028577D01*
X047957Y02857D01*
X047984Y028532D01*
X047979Y028507D01*
X047987Y028466D01*
X048004Y028442D01*
X047996Y028404D01*
X047987Y028387D01*
X047983Y028387D01*
X047949Y028364D01*
X047926Y028329D01*
X047918Y028289D01*
X047926Y028248D01*
X047949Y028214D01*
X047983Y028191D01*
X048024Y028183D01*
X048058Y02819D01*
X048064Y028191D01*
X048065Y028191D01*
X048098Y028154D01*
X048094Y028147D01*
X04808Y028127D01*
X048072Y028086D01*
X04808Y028046D01*
X048103Y028011D01*
X048137Y027988D01*
X048178Y02798D01*
X048218Y027988D01*
X048253Y028011D01*
X048276Y028046D01*
X048284Y028086D01*
X048276Y028127D01*
X048253Y028161D01*
X048218Y028184D01*
X048178Y028192D01*
X048143Y028185D01*
X048137Y028184D01*
X048136Y028184D01*
X048103Y028221D01*
X048108Y028228D01*
X048121Y028248D01*
X048129Y028289D01*
X048121Y028329D01*
X048105Y028354D01*
X048113Y028392D01*
X048122Y028408D01*
X048126Y028409D01*
X04816Y028432D01*
X048183Y028466D01*
X048191Y028507D01*
X048183Y028547D01*
X04816Y028581D01*
X048126Y028604D01*
X048085Y028612D01*
X048047Y028605D01*
X04804Y02861D01*
X048012Y028643D01*
X048017Y02865D01*
X048025Y02869D01*
X048017Y028731D01*
X047994Y028765D01*
X04796Y028788D01*
X047919Y028796D01*
D02*
G37*
G36*
X046969Y028046D02*
X046929Y028038D01*
X046894Y028015D01*
X046872Y027981D01*
X046863Y02794D01*
X046872Y0279D01*
X046894Y027866D01*
X046929Y027843D01*
X046969Y027835D01*
X04701Y027843D01*
X047044Y027866D01*
X047067Y0279D01*
X047075Y02794D01*
X047067Y027981D01*
X047044Y028015D01*
X04701Y028038D01*
X046969Y028046D01*
D02*
G37*
G36*
X051881Y027961D02*
X051841Y027952D01*
X051806Y02793D01*
X051783Y027895D01*
X051775Y027855D01*
X051783Y027814D01*
X051806Y02778D01*
X051841Y027757D01*
X051881Y027749D01*
X051922Y027757D01*
X051956Y02778D01*
X051979Y027814D01*
X051987Y027855D01*
X051979Y027895D01*
X051956Y02793D01*
X051922Y027952D01*
X051881Y027961D01*
D02*
G37*
G36*
X051562Y027945D02*
X051521Y027937D01*
X051487Y027914D01*
X051464Y02788D01*
X051456Y027839D01*
X051464Y027799D01*
X051487Y027765D01*
X051521Y027742D01*
X051562Y027734D01*
X051602Y027742D01*
X051636Y027765D01*
X051659Y027799D01*
X051667Y027839D01*
X051659Y02788D01*
X051636Y027914D01*
X051602Y027937D01*
X051562Y027945D01*
D02*
G37*
G36*
X049651Y027936D02*
X04961Y027928D01*
X049576Y027905D01*
X049553Y02787D01*
X049545Y02783D01*
X049553Y027789D01*
X049576Y027755D01*
X04961Y027732D01*
X049651Y027724D01*
X049691Y027732D01*
X049726Y027755D01*
X049749Y027789D01*
X049757Y02783D01*
X049749Y02787D01*
X049726Y027905D01*
X049691Y027928D01*
X049651Y027936D01*
D02*
G37*
G36*
X051116Y02807D02*
X051076Y028062D01*
X051041Y028039D01*
X051018Y028005D01*
X05101Y027964D01*
X051018Y027924D01*
X051041Y027889D01*
X051052Y027882D01*
X051051Y027824D01*
X051041Y027817D01*
X051018Y027783D01*
X05101Y027742D01*
X051018Y027702D01*
X051041Y027668D01*
X051075Y027645D01*
X051116Y027637D01*
X051156Y027645D01*
X051191Y027668D01*
X051214Y027702D01*
X051222Y027742D01*
X051214Y027783D01*
X051191Y027817D01*
X05118Y027824D01*
X051181Y027882D01*
X051191Y027889D01*
X051214Y027924D01*
X051222Y027964D01*
X051214Y028005D01*
X051191Y028039D01*
X051157Y028062D01*
X051116Y02807D01*
D02*
G37*
G36*
X047166Y027849D02*
X047126Y027841D01*
X047091Y027818D01*
X047068Y027784D01*
X04706Y027744D01*
X047068Y027703D01*
X047085Y027678D01*
X047073Y02764D01*
X047035Y027628D01*
X04701Y027644D01*
X046969Y027652D01*
X046929Y027644D01*
X046894Y027622D01*
X046872Y027587D01*
X046863Y027547D01*
X046872Y027506D01*
X046894Y027472D01*
X046929Y027449D01*
X046969Y027441D01*
X04701Y027449D01*
X047044Y027472D01*
X047091D01*
X047126Y027449D01*
X047166Y027441D01*
X047207Y027449D01*
X047241Y027472D01*
X047264Y027506D01*
X047272Y027547D01*
X047264Y027587D01*
X047241Y027622D01*
Y027669D01*
X047264Y027703D01*
X047272Y027744D01*
X047264Y027784D01*
X047241Y027818D01*
X047207Y027841D01*
X047166Y027849D01*
D02*
G37*
G36*
X04859Y028036D02*
X04855Y028028D01*
X048515Y028005D01*
X048492Y02797D01*
X048484Y02793D01*
X048492Y027889D01*
X048515Y027855D01*
X048515Y027795D01*
X048515Y027795D01*
X048492Y027761D01*
X048484Y02772D01*
X048492Y02768D01*
X048515Y027645D01*
X048549Y027623D01*
X04859Y027615D01*
X04863Y027623D01*
X048664Y027645D01*
X048687Y02768D01*
X048695Y02772D01*
X048687Y027761D01*
X048664Y027795D01*
X048665Y027855D01*
X048665Y027855D01*
X048688Y027889D01*
X048696Y02793D01*
X048688Y02797D01*
X048665Y028005D01*
X04863Y028028D01*
X04859Y028036D01*
D02*
G37*
G36*
X047717Y027733D02*
X047676Y027725D01*
X047642Y027702D01*
X047619Y027668D01*
X047611Y027627D01*
X047619Y027587D01*
X047642Y027552D01*
X047676Y027529D01*
X047717Y027521D01*
X047757Y027529D01*
X047792Y027552D01*
X047815Y027587D01*
X047823Y027627D01*
X047815Y027668D01*
X047792Y027702D01*
X047757Y027725D01*
X047717Y027733D01*
D02*
G37*
G36*
X049206Y027701D02*
X049165Y027693D01*
X049131Y02767D01*
X049108Y027636D01*
X0491Y027596D01*
X049108Y027555D01*
X049131Y027521D01*
X049165Y027498D01*
X049206Y02749D01*
X049246Y027498D01*
X04928Y027521D01*
X049303Y027555D01*
X049311Y027596D01*
X049303Y027636D01*
X04928Y02767D01*
X049246Y027693D01*
X049206Y027701D01*
D02*
G37*
G36*
X048915Y027691D02*
X048875Y027683D01*
X048841Y02766D01*
X048818Y027626D01*
X04881Y027586D01*
X048818Y027545D01*
X048841Y027511D01*
X048875Y027488D01*
X048915Y02748D01*
X048956Y027488D01*
X04899Y027511D01*
X049013Y027545D01*
X049021Y027586D01*
X049013Y027626D01*
X04899Y02766D01*
X048956Y027683D01*
X048915Y027691D01*
D02*
G37*
G36*
X051541Y027633D02*
X051501Y027625D01*
X051467Y027602D01*
X051444Y027568D01*
X051436Y027527D01*
X051444Y027487D01*
X051467Y027453D01*
X051501Y02743D01*
X051541Y027422D01*
X051582Y02743D01*
X051616Y027453D01*
X051639Y027487D01*
X051647Y027527D01*
X051639Y027568D01*
X051616Y027602D01*
X051582Y027625D01*
X051541Y027633D01*
D02*
G37*
G36*
X049978Y027616D02*
X049938Y027608D01*
X049904Y027585D01*
X049881Y02755D01*
X049873Y02751D01*
X049881Y027469D01*
X049904Y027435D01*
X049938Y027412D01*
X049978Y027404D01*
X050019Y027412D01*
X050053Y027435D01*
X050076Y027469D01*
X050084Y02751D01*
X050076Y02755D01*
X050053Y027585D01*
X050019Y027608D01*
X049978Y027616D01*
D02*
G37*
G36*
X04966D02*
X04962Y027608D01*
X049585Y027585D01*
X049562Y02755D01*
X049554Y02751D01*
X049562Y027469D01*
X049585Y027435D01*
X04962Y027412D01*
X04966Y027404D01*
X0497Y027412D01*
X049735Y027435D01*
X049758Y027469D01*
X049766Y02751D01*
X049758Y02755D01*
X049735Y027585D01*
X0497Y027608D01*
X04966Y027616D01*
D02*
G37*
G36*
X050397Y027469D02*
X050356Y027461D01*
X050322Y027438D01*
X050299Y027403D01*
X050291Y027363D01*
X050293Y027354D01*
X050273Y027312D01*
X050256Y027305D01*
X050231Y0273D01*
X050196Y027277D01*
X050174Y027242D01*
X050166Y027202D01*
X050174Y027162D01*
X050196Y027127D01*
X050231Y027104D01*
X050271Y027096D01*
X050312Y027104D01*
X050346Y027127D01*
X050369Y027162D01*
X050377Y027202D01*
X050375Y02721D01*
X050395Y027253D01*
X050413Y02726D01*
X050437Y027265D01*
X050472Y027288D01*
X050495Y027322D01*
X050503Y027363D01*
X050495Y027403D01*
X050472Y027438D01*
X050437Y027461D01*
X050397Y027469D01*
D02*
G37*
G36*
X049978Y027303D02*
X049938Y027295D01*
X049904Y027272D01*
X049881Y027238D01*
X049873Y027198D01*
X049881Y027157D01*
X049904Y027123D01*
X049938Y0271D01*
X049978Y027092D01*
X050019Y0271D01*
X050053Y027123D01*
X050076Y027157D01*
X050084Y027198D01*
X050076Y027238D01*
X050053Y027272D01*
X050019Y027295D01*
X049978Y027303D01*
D02*
G37*
G36*
X052491Y027489D02*
X05245Y027481D01*
X052416Y027458D01*
X052393Y027424D01*
X052385Y027383D01*
X052393Y027343D01*
X052416Y027308D01*
X052412Y027251D01*
X052412Y027251D01*
X052389Y027216D01*
X052381Y027176D01*
X052389Y027135D01*
X052412Y027101D01*
X052446Y027078D01*
X052486Y02707D01*
X052527Y027078D01*
X052561Y027101D01*
X052584Y027135D01*
X052592Y027176D01*
X052584Y027216D01*
X052561Y027251D01*
X052565Y027308D01*
X052566Y027308D01*
X052588Y027343D01*
X052597Y027383D01*
X052588Y027424D01*
X052566Y027458D01*
X052531Y027481D01*
X052491Y027489D01*
D02*
G37*
G36*
X053095Y0269D02*
X053055Y026892D01*
X05302Y026869D01*
X052998Y026835D01*
X052989Y026794D01*
X052998Y026754D01*
X05302Y02672D01*
X053055Y026697D01*
X053095Y026689D01*
X053136Y026697D01*
X05317Y02672D01*
X053193Y026754D01*
X053201Y026794D01*
X053193Y026835D01*
X05317Y026869D01*
X053136Y026892D01*
X053095Y0269D01*
D02*
G37*
G36*
X052019Y026675D02*
X051978Y026667D01*
X051944Y026644D01*
X051921Y02661D01*
X051913Y026569D01*
X051921Y026529D01*
X051944Y026495D01*
X051978Y026472D01*
X052019Y026464D01*
X052059Y026472D01*
X052093Y026495D01*
X052116Y026529D01*
X052124Y026569D01*
X052116Y02661D01*
X052093Y026644D01*
X052059Y026667D01*
X052019Y026675D01*
D02*
G37*
G36*
X043457Y032136D02*
X043416Y032128D01*
X043382Y032105D01*
X043359Y032071D01*
X043351Y03203D01*
X043359Y03199D01*
X043382Y031955D01*
X043416Y031933D01*
X043457Y031924D01*
X043497Y031933D01*
X043532Y031955D01*
X043591Y031955D01*
X043626Y031932D01*
X043666Y031924D01*
X043707Y031932D01*
X043741Y031955D01*
X043764Y031989D01*
X043772Y03203D01*
X043764Y03207D01*
X043741Y032105D01*
X043707Y032128D01*
X043666Y032136D01*
X043626Y032128D01*
X043591Y032105D01*
X043532Y032105D01*
X043497Y032128D01*
X043457Y032136D01*
D02*
G37*
G36*
X044049Y032127D02*
X044009Y032119D01*
X043974Y032096D01*
X043951Y032062D01*
X043943Y032022D01*
X043951Y031981D01*
X043974Y031947D01*
X044009Y031924D01*
X044049Y031916D01*
X04409Y031924D01*
X044124Y031947D01*
X044147Y031981D01*
X044155Y032022D01*
X044147Y032062D01*
X044124Y032096D01*
X04409Y032119D01*
X044049Y032127D01*
D02*
G37*
G36*
X042702Y031874D02*
X042661Y031865D01*
X042627Y031843D01*
X042604Y031808D01*
X042596Y031768D01*
X042604Y031727D01*
X042627Y031693D01*
X042661Y03167D01*
X042702Y031662D01*
X042742Y03167D01*
X042777Y031693D01*
X042799Y031727D01*
X042808Y031768D01*
X042799Y031808D01*
X042777Y031843D01*
X042742Y031865D01*
X042702Y031874D01*
D02*
G37*
G36*
X044218Y030798D02*
X044177Y03079D01*
X044143Y030767D01*
X04412Y030733D01*
X044112Y030692D01*
X04412Y030652D01*
X044143Y030617D01*
X044177Y030594D01*
X044218Y030586D01*
X044258Y030594D01*
X044292Y030617D01*
X044315Y030652D01*
X044323Y030692D01*
X044315Y030733D01*
X044292Y030767D01*
X044258Y03079D01*
X044218Y030798D01*
D02*
G37*
G36*
X044016Y030606D02*
X043976Y030598D01*
X043942Y030575D01*
X043919Y030541D01*
X043911Y030501D01*
X043919Y03046D01*
X043942Y030426D01*
X043976Y030403D01*
X044016Y030395D01*
X044057Y030403D01*
X044091Y030426D01*
X044114Y03046D01*
X044122Y030501D01*
X044114Y030541D01*
X044091Y030575D01*
X044057Y030598D01*
X044016Y030606D01*
D02*
G37*
G36*
X04441Y030399D02*
X04437Y030391D01*
X044335Y030368D01*
X044312Y030333D01*
X044304Y030293D01*
X044312Y030252D01*
X044335Y030218D01*
X04437Y030195D01*
X04441Y030187D01*
X044451Y030195D01*
X044485Y030218D01*
X044508Y030252D01*
X044516Y030293D01*
X044508Y030333D01*
X044485Y030368D01*
X044451Y030391D01*
X04441Y030399D01*
D02*
G37*
%LPD*%
D86*
X041005Y02591D02*
D03*
Y026343D02*
D03*
Y026776D02*
D03*
Y027209D02*
D03*
Y027642D02*
D03*
Y028075D02*
D03*
Y028509D02*
D03*
Y028942D02*
D03*
Y029375D02*
D03*
Y029808D02*
D03*
Y030241D02*
D03*
Y030674D02*
D03*
Y031107D02*
D03*
Y03154D02*
D03*
Y031973D02*
D03*
Y032406D02*
D03*
Y032839D02*
D03*
Y033272D02*
D03*
Y033705D02*
D03*
Y034138D02*
D03*
Y034571D02*
D03*
Y035005D02*
D03*
Y035438D02*
D03*
Y035871D02*
D03*
Y036304D02*
D03*
Y036737D02*
D03*
Y03717D02*
D03*
Y02591D02*
D03*
Y026343D02*
D03*
Y026776D02*
D03*
Y027209D02*
D03*
Y027642D02*
D03*
Y028075D02*
D03*
Y028509D02*
D03*
Y028942D02*
D03*
Y029375D02*
D03*
Y029808D02*
D03*
Y030241D02*
D03*
Y030674D02*
D03*
Y031107D02*
D03*
Y03154D02*
D03*
Y031973D02*
D03*
Y032406D02*
D03*
Y032839D02*
D03*
Y033272D02*
D03*
Y033705D02*
D03*
Y034138D02*
D03*
Y034571D02*
D03*
Y035005D02*
D03*
Y035438D02*
D03*
Y035871D02*
D03*
Y036304D02*
D03*
Y036737D02*
D03*
Y03717D02*
D03*
X0538Y03717D02*
D03*
Y036737D02*
D03*
Y036304D02*
D03*
D87*
X053201Y036411D02*
D03*
X0532Y036862D02*
D03*
X042535Y034363D02*
D03*
X042145Y034641D02*
D03*
Y034818D02*
D03*
X046659Y03344D02*
D03*
X047922Y035219D02*
D03*
X046588Y033612D02*
D03*
X04893Y029397D02*
D03*
X052227Y026569D02*
D03*
X052717Y029295D02*
D03*
X052925Y029705D02*
D03*
X052933Y029924D02*
D03*
X052717Y030879D02*
D03*
Y031509D02*
D03*
X052716Y032266D02*
D03*
X044653Y036176D02*
D03*
X049668Y030678D02*
D03*
X048516Y029495D02*
D03*
X044605Y028133D02*
D03*
X051959Y036037D02*
D03*
X051782Y036036D02*
D03*
X048896Y031712D02*
D03*
X048824Y036891D02*
D03*
X046576Y028334D02*
D03*
X047788Y031942D02*
D03*
X041668Y035303D02*
D03*
X045001Y030884D02*
D03*
X044607Y030303D02*
D03*
X045788Y029909D02*
D03*
X049657Y027206D02*
D03*
D88*
X042884Y03596D02*
D03*
X045411Y033842D02*
D03*
X047987Y034969D02*
D03*
X042863Y035423D02*
D03*
X049138Y035813D02*
D03*
X045887Y036381D02*
D03*
X042639Y035706D02*
D03*
X044389Y034503D02*
D03*
Y034851D02*
D03*
M02*
