M48
;Layer_Color=9474304
;FILE_FORMAT=2:4
INCH,LZ
;TYPE=PLATED
T1F00S00C0.0079
T2F00S00C0.0098
T3F00S00C0.0157
T4F00S00C0.0197
%
T01
X047092Y026676
X047329Y026676
X047565Y026676
X047097Y026924
X047166Y027547
X046969
X047166Y027744
X046969Y02794
X046969Y028336
X047166Y028334
X047168Y028531
X046966
X046969Y029122
X047168
X047168Y029327
X046969Y029515
Y029909
X047167Y029722
X047168Y030106
X047177Y030502
X047165Y030696
X046971
X046968Y030502
X046969Y03109
X04775Y030659
X048645Y030682
Y030887
X04878Y031056
X048645Y030477
X048931Y03007
X049187Y030051
X049974Y030037
X049974Y030364
X050298
X050444Y030202
X05057Y03003
X051011Y029965
X051151Y029657
X051548Y029722
X051556Y029414
X051548Y029092
Y028784
X051241Y028774
X051163Y028977
X051118Y028504
X051548Y028462
X051541Y028155
X051562Y027839
X051541Y027527
X051116Y027742
X051116Y027964
X051881Y027855
X051869Y028142
X051869Y028462
X051863Y028777
X052227Y028568
X052462Y028714
Y02895
X052717Y029295
Y029503
X052925Y029705
X052933Y029924
Y030133
X052386Y029826
X052717Y030879
Y031088
X051548Y030982
X051166Y030298
X050749Y030485
X050289Y029739
Y029407
X049974
X049657Y029406
X049651Y028777
X049076Y028986
X04893Y029397
X04856Y02931
X048565Y02909
X048516Y029495
X048234Y029592
X047934Y029672
X047928Y029473
X047747Y029556
X047919Y02869
X047796Y028505
X048085Y028507
X048024Y028289
X048178Y028086
X04859Y02793
X04859Y02772
X048915Y027586
X049206Y027596
X04966Y02751
X049657Y027206
X049978Y027198
X050271Y027202
X050397Y027363
X049978Y02751
X049981Y028144
X050345Y028348
X050363Y028641
X050419Y028931
X049651Y02783
X048527Y028647
X048134Y028881
X047717Y027627
X049668Y030678
X05267Y028335
X052491Y027383
X052486Y027176
X052227Y026569
X052019
X052658Y026248
X053045Y026245
X052924Y026083
X053095Y026794
X053515Y025597
X046399Y026745
X046399Y026981
X046143
X046143Y026745
X045887
X045887Y026981
X045631Y026981
X045631Y026745
X04503Y026956
X044824
X044607
Y027547
Y02794
X044605Y028133
X044804Y028334
X045001Y028137
X045198Y02794
Y027744
X045001Y027547
X045394
X045788
X046182
X045985Y02794
Y02813
X045792
X045784Y02794
X045591Y027744
X045394Y028137
Y028531
X045591Y028339
X045788Y028724
X045984Y028729
X045985Y029116
X045788Y029122
X045591Y029318
X045788Y029515
X045985
X046182Y029318
X046379Y029508
X046379Y029712
X046576
X046763Y029515
X046576Y029318
X046381Y029122
X046182Y028931
X046576Y028925
Y028729
X046772Y028728
Y028925
X046576Y028334
X046772Y028137
X046576Y02794
X046379Y028137
X046182Y028334
X046379Y028531
X045394Y028925
X045001
X044805Y028728
X044607Y028729
X04441
X044215Y028336
X044018Y028532
X04382Y028728
X04382Y028925
X043623
X043623Y028728
X043426Y028531
X043426Y028334
X043229
X04382
X043623Y028137
X043426Y02794
X043229Y027744
X042635Y027752
X042526Y027941
X04254Y028537
Y028774
X04254Y028989
X042535Y029222
X042145Y029299
X042284Y029451
X042452Y029914
X042598Y030098
X043229Y030109
X043426Y029913
X043623Y030109
X043825Y030106
X044016Y029909
X043829Y029712
X043627Y029515
X04343
X043426Y029122
X043229Y029318
Y029712
X04382Y029318
X044016Y029122
X044607Y029122
Y029508
X04441Y029515
X04441Y029908
X044608Y029909
X0448Y030106
X044607Y030303
X04441Y030293
X044218Y030692
X04441Y030892
Y03109
X044607Y030893
X044804Y030693
X045001Y030884
Y030496
X045198Y030303
X045383Y030111
X045591Y030102
Y029722
X045394Y029712
X045001Y029712
X044804Y029711
Y029317
X045001Y029318
X045197Y029122
X045788Y029909
X045995
X046379Y029914
X046576Y030106
X046772
X046763Y030303
X046566
X046377Y030499
X046182Y030696
X046379Y030892
X046576Y030695
X046576Y03109
X046774Y030893
X045985Y030893
X045788Y030898
Y03109
X04599Y03109
X045202
X045391Y03089
X045591Y030696
X045394Y030496
X045788Y030305
X045985Y030303
X044016Y030501
X043623Y030323
X044016Y027744
X044016Y027547
X044213
Y027744
X044804
X044353Y026439
X044576Y026177
X043707Y026689
X043646Y026956
X043382Y026945
X043126
X043125Y026681
X043381Y026681
X042869Y026681
X042853Y026973
X042664Y027296
X042454Y027252
X042504Y026632
X042415Y031445
X042452Y031842
X042208Y03188
X042092Y031605
X042702Y031768
X043229Y031484
X043426Y031484
X04398Y03149
X044016Y031287
X044215
X044213Y031484
X044613
X044805Y031287
X045189
X045394Y031484
X045591Y031287
X045788Y031484
X046388
Y031287
X046772Y031287
X046536Y032218
X046674Y032355
X046369
X04634Y03205
X046133Y032139
X045946Y032306
X045739
X045596Y032034
X045399Y03204
X045198Y032074
X044942Y032067
X044515Y032074
X044049Y032022
X043666Y03203
X043457Y03203
X042607Y032766
X042463Y032938
X042525Y033915
X042526Y034084
X042535Y034363
X042145Y034641
Y034818
X041806Y034474
X041806Y034265
X041668Y035303
X041616Y035977
X041835Y035959
X041617Y036486
X043794Y036445
X043957Y0366
X043761Y035882
X043508Y035886
X043767Y035559
X043748Y035064
Y034851
X043747Y034608
X043766Y033728
X043917Y033612
X044389Y033905
X044864Y034182
X045695Y034862
Y035096
X046147Y0351
Y034862
Y035706
X045558
X044725Y035913
X044653Y036176
X04624Y036381
X04644Y03693
X046588Y033612
X046659Y03344
X046202Y033531
X04555Y032807
X043072Y033718
X043508Y035289
X047922Y035219
X047868Y035643
X04787Y036425
X048036Y036903
X047337Y03693
X047134Y03693
X04691Y03693
X048824Y036891
X049453Y036794
X049838Y037031
X050462Y036764
X050462Y036528
X050462Y036304
X051095Y036626
X051418Y036846
X051613
Y03703
X051782Y036036
X051959Y036037
X052973Y035899
X05319
X053201Y036411
X0532Y036862
X052638Y034993
X052476
X050316Y034813
Y034606
X048886Y034491
Y034769
X04893Y035234
X048931Y035438
X049138
X049137Y035234
X049216Y033394
X049472Y033391
X049737
X049528Y033084
X049342Y033237
X049157Y032117
X049183Y03177
X048896Y031712
X048466Y031484
X0483Y031312
X048044
X047788Y031332
Y031647
X048044Y031647
X048044Y031942
X047788
X0483Y031942
X048219Y03222
Y032454
X047265Y032361
X047068Y032468
X046901Y032355
X046966Y031484
X047166Y031493
Y031278
X047708Y033639
X047869Y033837
X049651Y031933
X050579Y031963
X050927Y032061
X050861Y03239
X051177Y032229
X051233Y031927
Y031612
X051547Y031931
X051867Y031614
X052376Y031891
X052716Y032057
Y032266
X052403Y032445
X052404Y032686
X052082Y032665
X051871
Y032885
X052084
X051529Y032938
X051706Y033391
X05278Y032748
X052717Y031718
Y031509
X052972Y031695
X052376Y031285
T02
X043941Y032703
X044207Y032697
X045519Y033305
X045411Y033842
X044389Y034503
Y034851
Y035198
X043403Y034663
X042863Y035423
X042611Y035234
X042639Y035706
X042884Y03596
X04254Y036588
X045887Y036381
X049021Y036387
X049023Y036161
X049138Y035813
X050431Y036018
X051424Y035743
X052716
X052848Y035396
X052558Y034451
X052004
X052574Y033785
X053095Y033794
X047987Y034969
X047357Y034432
X04709Y034156
X047068Y032978
T03
X046972Y025407
X047405
X047838
X048271
X048704
X049137
X04957
X050003
X050436
X050869
X051302
X051736
X052169
X052602
X053035
X0538Y026343
Y026776
Y027209
Y027642
Y028075
Y028509
Y028942
Y029375
Y029808
Y030241
Y030674
Y031107
X041005Y031107
Y030674
Y030241
Y029808
Y029375
Y028942
Y028509
Y028075
Y027642
Y027209
Y026776
Y026343
Y02591
X041775Y025407
X042208
X042641
X043074
X043507
X04394
X044373
X044806
X045239
X045673
X046106
X046539
X041005Y03154
Y031973
Y032406
Y032839
Y033272
Y033705
Y034138
Y034571
Y035005
Y035438
Y035871
Y036304
Y036737
Y03717
X041775Y03769
X042208
X042641
X043074
X043507
X04394
X044373
X044806
X045239
X045673
X046106
X046539
X046972
X047405
X047838
X048271
X048704
X049137
X04957
X050003
X050436
X050869
X051302
X051736
X052169
X052602
X053035
X0538Y03717
Y036737
Y036304
Y035871
Y035438
Y035005
Y034571
Y034138
Y033705
Y033272
Y032839
Y032406
Y031973
Y03154
T04
X0538Y02591
M30
