G04*
G04 #@! TF.GenerationSoftware,Altium Limited,Altium Designer,18.1.6 (161)*
G04*
G04 Layer_Color=16711935*
%FSTAX24Y24*%
%MOIN*%
G70*
G01*
G75*
%ADD78R,0.0137X0.0297*%
%ADD88R,0.0150X0.0150*%
%ADD89R,0.0150X0.0150*%
%ADD91R,0.0316X0.0277*%
%ADD93R,0.0237X0.0277*%
%ADD94R,0.0280X0.0220*%
%ADD95R,0.0277X0.0316*%
%ADD99R,0.0277X0.0237*%
%ADD109R,0.0277X0.0277*%
%ADD110R,0.0316X0.0277*%
%ADD126R,0.0277X0.0316*%
G04:AMPARAMS|DCode=128|XSize=55.6mil|YSize=30.8mil|CornerRadius=6.9mil|HoleSize=0mil|Usage=FLASHONLY|Rotation=0.000|XOffset=0mil|YOffset=0mil|HoleType=Round|Shape=RoundedRectangle|*
%AMROUNDEDRECTD128*
21,1,0.0556,0.0171,0,0,0.0*
21,1,0.0419,0.0308,0,0,0.0*
1,1,0.0137,0.0210,-0.0086*
1,1,0.0137,-0.0210,-0.0086*
1,1,0.0137,-0.0210,0.0086*
1,1,0.0137,0.0210,0.0086*
%
%ADD128ROUNDEDRECTD128*%
%ADD133R,0.0277X0.0277*%
%ADD134R,0.0592X0.0434*%
%ADD136C,0.1200*%
%ADD145C,0.0680*%
%ADD146C,0.0830*%
%ADD147C,0.1080*%
%ADD148C,0.0080*%
%ADD149R,0.0671X0.0671*%
%ADD150C,0.0671*%
%ADD151C,0.2049*%
%ADD152C,0.0434*%
%ADD153C,0.0552*%
%ADD154C,0.0690*%
G04:AMPARAMS|DCode=155|XSize=78.9mil|YSize=47.4mil|CornerRadius=13.8mil|HoleSize=0mil|Usage=FLASHONLY|Rotation=90.000|XOffset=0mil|YOffset=0mil|HoleType=Round|Shape=RoundedRectangle|*
%AMROUNDEDRECTD155*
21,1,0.0789,0.0197,0,0,90.0*
21,1,0.0512,0.0474,0,0,90.0*
1,1,0.0277,0.0098,0.0256*
1,1,0.0277,0.0098,-0.0256*
1,1,0.0277,-0.0098,-0.0256*
1,1,0.0277,-0.0098,0.0256*
%
%ADD155ROUNDEDRECTD155*%
%ADD156O,0.0474X0.0907*%
%ADD157C,0.0336*%
%ADD158R,0.0642X0.0642*%
%ADD159C,0.0642*%
%ADD160C,0.1370*%
%ADD161C,0.0730*%
%ADD162O,0.1379X0.1655*%
%ADD163C,0.1261*%
%ADD164O,0.0730X0.0980*%
%ADD165R,0.0730X0.0980*%
%ADD210R,0.0580X0.0379*%
%ADD211R,0.0710X0.0356*%
%ADD212R,0.0710X0.0631*%
%ADD213R,0.0946X0.0631*%
%ADD214R,0.0631X0.0789*%
D78*
X03315Y018042D02*
D03*
X032756D02*
D03*
Y017233D02*
D03*
X03315D02*
D03*
D88*
X056535Y028087D02*
D03*
Y027878D02*
D03*
X05747Y026343D02*
D03*
Y026135D02*
D03*
X057156Y02635D02*
D03*
Y026142D02*
D03*
X057785Y026343D02*
D03*
Y026135D02*
D03*
X056339Y032218D02*
D03*
Y032427D02*
D03*
X056102Y032218D02*
D03*
Y032427D02*
D03*
X043148Y021718D02*
D03*
Y021927D02*
D03*
X060394Y035339D02*
D03*
Y035547D02*
D03*
X060157Y035339D02*
D03*
Y035547D02*
D03*
X059705Y038902D02*
D03*
Y03911D02*
D03*
X043748Y020191D02*
D03*
Y019982D02*
D03*
X044063Y020184D02*
D03*
Y019975D02*
D03*
X044378Y020184D02*
D03*
Y019975D02*
D03*
X049193Y044148D02*
D03*
Y044356D02*
D03*
X048701Y042762D02*
D03*
Y042553D02*
D03*
X047517Y042802D02*
D03*
Y04301D02*
D03*
X048632Y044148D02*
D03*
Y044356D02*
D03*
X048898Y044148D02*
D03*
Y044356D02*
D03*
D89*
X04214Y028307D02*
D03*
X042348D02*
D03*
X04214Y028809D02*
D03*
X042348D02*
D03*
X04214Y029301D02*
D03*
X042348D02*
D03*
X04214Y029813D02*
D03*
X042348D02*
D03*
X04214Y030305D02*
D03*
X042348D02*
D03*
X04214Y030817D02*
D03*
X042348D02*
D03*
X04214Y031309D02*
D03*
X042348D02*
D03*
X04214Y031811D02*
D03*
X042348D02*
D03*
X046703Y028307D02*
D03*
X046911D02*
D03*
X046703Y028809D02*
D03*
X046911D02*
D03*
X046703Y029311D02*
D03*
X046911D02*
D03*
X046703Y029803D02*
D03*
X046911D02*
D03*
X046703Y030295D02*
D03*
X046911D02*
D03*
X046703Y030807D02*
D03*
X046911D02*
D03*
X046703Y031309D02*
D03*
X046911D02*
D03*
Y031801D02*
D03*
X046703D02*
D03*
X055445Y028642D02*
D03*
X055236D02*
D03*
X055445Y03003D02*
D03*
X055236D02*
D03*
X055445Y028927D02*
D03*
X055236D02*
D03*
X055445Y029754D02*
D03*
X055236D02*
D03*
X056896Y029892D02*
D03*
X056687D02*
D03*
X056896Y029626D02*
D03*
X056687D02*
D03*
X055445Y029478D02*
D03*
X055236D02*
D03*
X055445Y029203D02*
D03*
X055236D02*
D03*
X056551Y028346D02*
D03*
X056343D02*
D03*
X041829Y02387D02*
D03*
X042037D02*
D03*
X043488Y023467D02*
D03*
X04328D02*
D03*
X043488Y023732D02*
D03*
X04328D02*
D03*
X042935Y022217D02*
D03*
X043144D02*
D03*
X042037Y022768D02*
D03*
X041829D02*
D03*
Y022482D02*
D03*
X042037D02*
D03*
Y023319D02*
D03*
X041829D02*
D03*
X042037Y023043D02*
D03*
X041829D02*
D03*
X055486Y04185D02*
D03*
X055695D02*
D03*
X060713Y037539D02*
D03*
X060921D02*
D03*
X041829Y023594D02*
D03*
X042037D02*
D03*
X060921Y037146D02*
D03*
X060713D02*
D03*
X046911Y034921D02*
D03*
X046703D02*
D03*
X046911Y036909D02*
D03*
X046703D02*
D03*
X046911Y036427D02*
D03*
X046703D02*
D03*
X046911Y035915D02*
D03*
X046703D02*
D03*
X046911Y035423D02*
D03*
X046703D02*
D03*
X046911Y034419D02*
D03*
X046703D02*
D03*
X046911Y033917D02*
D03*
X046703D02*
D03*
X046911Y033425D02*
D03*
X046703D02*
D03*
X042348Y034931D02*
D03*
X04214D02*
D03*
X042348Y036929D02*
D03*
X04214D02*
D03*
X042348Y036427D02*
D03*
X04214D02*
D03*
X042348Y035925D02*
D03*
X04214D02*
D03*
X042348Y035423D02*
D03*
X04214D02*
D03*
X042348Y034429D02*
D03*
X04214D02*
D03*
X042348Y033927D02*
D03*
X04214D02*
D03*
X042348Y033415D02*
D03*
X04214D02*
D03*
X049136Y043839D02*
D03*
X048927D02*
D03*
X048094Y04251D02*
D03*
X048303D02*
D03*
X04897Y042057D02*
D03*
X049179D02*
D03*
X048094Y042244D02*
D03*
X048303D02*
D03*
X047978Y043159D02*
D03*
X04777D02*
D03*
D91*
X028661Y03215D02*
D03*
X029055D02*
D03*
X030059Y031142D02*
D03*
X029665D02*
D03*
X029055D02*
D03*
X028661D02*
D03*
X029665Y03215D02*
D03*
X030059D02*
D03*
X055974Y030846D02*
D03*
X055581D02*
D03*
X055984Y031339D02*
D03*
X055591D02*
D03*
X055974Y031831D02*
D03*
X055581D02*
D03*
X055974Y033287D02*
D03*
X055581D02*
D03*
X055974Y03376D02*
D03*
X055581D02*
D03*
X055974Y034232D02*
D03*
X055581D02*
D03*
X055974Y034705D02*
D03*
X055581D02*
D03*
D93*
X056919Y030207D02*
D03*
X056604D02*
D03*
X043512Y024047D02*
D03*
X043197D02*
D03*
X057067Y037795D02*
D03*
X057382D02*
D03*
D94*
X049744Y042795D02*
D03*
X050374D02*
D03*
X053465Y034803D02*
D03*
X052835D02*
D03*
X052835Y034331D02*
D03*
X053465D02*
D03*
X050374Y042323D02*
D03*
X049744D02*
D03*
Y041831D02*
D03*
X050374D02*
D03*
D95*
X047884Y043543D02*
D03*
X04749D02*
D03*
X056516Y029016D02*
D03*
X056122D02*
D03*
X042754Y022945D02*
D03*
X043148D02*
D03*
X055866Y042441D02*
D03*
X055472D02*
D03*
X053965Y042402D02*
D03*
X053571D02*
D03*
X053571Y041929D02*
D03*
X053965D02*
D03*
X055866Y043425D02*
D03*
X055472D02*
D03*
X053571Y042913D02*
D03*
X053965D02*
D03*
X053571Y043425D02*
D03*
X053965D02*
D03*
X053465Y033937D02*
D03*
X053071D02*
D03*
X048957Y043543D02*
D03*
X04935D02*
D03*
X047953Y042835D02*
D03*
X048346D02*
D03*
D99*
X055876Y028071D02*
D03*
Y027756D02*
D03*
X042469Y021596D02*
D03*
Y021911D02*
D03*
D109*
X046967Y016144D02*
D03*
Y016537D02*
D03*
X056339Y016142D02*
D03*
Y016535D02*
D03*
X062756Y02126D02*
D03*
Y021654D02*
D03*
X06315Y022244D02*
D03*
Y02185D02*
D03*
X05689Y022244D02*
D03*
Y02185D02*
D03*
X057283Y02122D02*
D03*
Y021614D02*
D03*
X05625Y027657D02*
D03*
Y028051D02*
D03*
X055748Y032244D02*
D03*
Y032638D02*
D03*
X042843Y021892D02*
D03*
Y021498D02*
D03*
X048071Y02122D02*
D03*
Y021614D02*
D03*
X053514Y02125D02*
D03*
Y021644D02*
D03*
X047677Y022244D02*
D03*
Y02185D02*
D03*
X053858Y022244D02*
D03*
Y02185D02*
D03*
X060089Y038937D02*
D03*
Y039331D02*
D03*
X047244Y042677D02*
D03*
Y043071D02*
D03*
X049567Y044045D02*
D03*
Y044439D02*
D03*
D110*
X042992Y041831D02*
D03*
Y041437D02*
D03*
Y043022D02*
D03*
Y042628D02*
D03*
Y043809D02*
D03*
Y043415D02*
D03*
X057037Y025285D02*
D03*
Y025679D02*
D03*
X05747Y025285D02*
D03*
Y025679D02*
D03*
X057904Y025285D02*
D03*
Y025679D02*
D03*
X04363Y01952D02*
D03*
Y019126D02*
D03*
X044063Y01952D02*
D03*
Y019126D02*
D03*
X044496Y01952D02*
D03*
Y019126D02*
D03*
X050118Y040551D02*
D03*
Y040945D02*
D03*
X049685Y040551D02*
D03*
Y040945D02*
D03*
X049252Y040551D02*
D03*
Y040945D02*
D03*
X048819Y040551D02*
D03*
Y040945D02*
D03*
X048386Y040551D02*
D03*
Y040945D02*
D03*
X047953Y040551D02*
D03*
Y040945D02*
D03*
X04752Y040551D02*
D03*
Y040945D02*
D03*
X047087Y040551D02*
D03*
Y040945D02*
D03*
X049882Y043209D02*
D03*
Y043602D02*
D03*
X05003Y044045D02*
D03*
Y044439D02*
D03*
X044488Y043406D02*
D03*
Y043012D02*
D03*
Y041831D02*
D03*
Y042224D02*
D03*
D126*
X052598Y046929D02*
D03*
Y047323D02*
D03*
X053465Y046929D02*
D03*
Y047323D02*
D03*
X053032Y046929D02*
D03*
Y047323D02*
D03*
X052165Y046929D02*
D03*
Y047323D02*
D03*
X053898Y046929D02*
D03*
Y047323D02*
D03*
X046614Y047008D02*
D03*
Y047402D02*
D03*
X046181Y047008D02*
D03*
Y047402D02*
D03*
X045748Y047008D02*
D03*
Y047402D02*
D03*
X045315Y047008D02*
D03*
Y047402D02*
D03*
X04126Y047126D02*
D03*
Y04752D02*
D03*
X040787Y047126D02*
D03*
Y04752D02*
D03*
D128*
X054055Y033287D02*
D03*
Y032913D02*
D03*
Y032539D02*
D03*
X053067Y033287D02*
D03*
Y032913D02*
D03*
Y032539D02*
D03*
D133*
X056122Y028632D02*
D03*
X056516D02*
D03*
X043148Y022531D02*
D03*
X042754D02*
D03*
D134*
X052283Y032618D02*
D03*
Y033366D02*
D03*
X054921Y033051D02*
D03*
Y032303D02*
D03*
D136*
X02937Y017224D02*
D03*
X063327Y026772D02*
D03*
X055354Y01437D02*
D03*
X029665Y04439D02*
D03*
D145*
X050387Y021239D02*
D03*
X049587D02*
D03*
X052387Y022239D02*
D03*
X051587D02*
D03*
X052787Y021239D02*
D03*
X048787D02*
D03*
X053187Y022239D02*
D03*
X048387D02*
D03*
X051187Y021239D02*
D03*
X051987D02*
D03*
X049187Y022239D02*
D03*
X049987D02*
D03*
X059607Y021239D02*
D03*
X058807D02*
D03*
X061607Y022239D02*
D03*
X060807D02*
D03*
X062007Y021239D02*
D03*
X058007D02*
D03*
X062407Y022239D02*
D03*
X057607D02*
D03*
X060407Y021239D02*
D03*
X061207D02*
D03*
X058407Y022239D02*
D03*
X059207D02*
D03*
D146*
X047827Y016139D02*
D03*
X053747Y015139D02*
D03*
X047827Y017139D02*
D03*
X053747Y016139D02*
D03*
X047827Y015139D02*
D03*
X057047Y016139D02*
D03*
X062967Y015139D02*
D03*
X057047Y017139D02*
D03*
X062967Y016139D02*
D03*
X057047Y015139D02*
D03*
D147*
X047327Y018639D02*
D03*
X054247D02*
D03*
X056547D02*
D03*
X063467D02*
D03*
D148*
X052687D02*
D03*
X048887D02*
D03*
X061907D02*
D03*
X058107D02*
D03*
D149*
X028709Y032992D02*
D03*
X028724Y030354D02*
D03*
X029709Y034606D02*
D03*
X041984Y048583D02*
D03*
X048331D02*
D03*
D150*
X029709Y032992D02*
D03*
X030709D02*
D03*
X031709D02*
D03*
X031724Y030354D02*
D03*
X030724D02*
D03*
X029724D02*
D03*
X030709Y034606D02*
D03*
X031709D02*
D03*
X040984Y048583D02*
D03*
X039984D02*
D03*
X038984D02*
D03*
X047331D02*
D03*
X046331D02*
D03*
X045331D02*
D03*
X044331D02*
D03*
X043331D02*
D03*
D151*
X063032Y024803D02*
D03*
X029173Y014567D02*
D03*
Y048032D02*
D03*
X063032D02*
D03*
D152*
X061457Y033858D02*
D03*
Y030709D02*
D03*
D153*
X054738Y041413D02*
D03*
X054339Y044413D02*
D03*
X055138D02*
D03*
D154*
X058858Y043892D02*
D03*
Y046648D02*
D03*
D155*
X031055Y014528D02*
D03*
X034457D02*
D03*
D156*
X031055Y016173D02*
D03*
X034457D02*
D03*
D157*
X033894Y015976D02*
D03*
X031618D02*
D03*
D158*
X039252Y018508D02*
D03*
D159*
X040236D02*
D03*
X041024D02*
D03*
X042008D02*
D03*
D160*
X038043Y017441D02*
D03*
X043217D02*
D03*
D161*
X063632Y037726D02*
D03*
Y038878D02*
D03*
Y036585D02*
D03*
D162*
X031949Y045069D02*
D03*
X037657D02*
D03*
D163*
Y047415D02*
D03*
X031949D02*
D03*
D164*
X049677Y048583D02*
D03*
X051677D02*
D03*
X054677D02*
D03*
X053677D02*
D03*
X052677D02*
D03*
X050677D02*
D03*
D165*
X055677D02*
D03*
D210*
X043008Y031809D02*
D03*
Y031309D02*
D03*
Y030809D02*
D03*
Y030309D02*
D03*
Y029809D02*
D03*
Y029309D02*
D03*
Y028809D02*
D03*
Y028309D02*
D03*
X046008D02*
D03*
Y028809D02*
D03*
Y029309D02*
D03*
Y029809D02*
D03*
Y030309D02*
D03*
Y030809D02*
D03*
Y031309D02*
D03*
Y031809D02*
D03*
X046008Y036927D02*
D03*
Y036427D02*
D03*
Y035927D02*
D03*
Y035427D02*
D03*
Y034927D02*
D03*
Y034427D02*
D03*
Y033927D02*
D03*
Y033427D02*
D03*
X043008D02*
D03*
Y033927D02*
D03*
Y034427D02*
D03*
Y034927D02*
D03*
Y035427D02*
D03*
Y035927D02*
D03*
Y036427D02*
D03*
Y036927D02*
D03*
D211*
X057323Y031024D02*
D03*
Y031457D02*
D03*
Y03189D02*
D03*
Y032323D02*
D03*
Y032756D02*
D03*
Y033189D02*
D03*
Y033622D02*
D03*
Y034055D02*
D03*
Y034488D02*
D03*
D212*
X057559Y035D02*
D03*
D213*
X061299D02*
D03*
Y028819D02*
D03*
D214*
X05752Y029173D02*
D03*
M02*
