G04*
G04 #@! TF.GenerationSoftware,Altium Limited,Altium Designer,18.1.6 (161)*
G04*
G04 Layer_Color=128*
%FSTAX24Y24*%
%MOIN*%
G70*
G01*
G75*
%ADD218C,0.0020*%
D218*
X05021Y021239D02*
X050565D01*
X050387Y021062D02*
Y021416D01*
X04941Y021239D02*
X049765D01*
X049587Y021062D02*
Y021416D01*
X05221Y022239D02*
X052565D01*
X052387Y022062D02*
Y022416D01*
X05141Y022239D02*
X051765D01*
X051587Y022062D02*
Y022416D01*
X047572Y016139D02*
X048083D01*
X047827Y015883D02*
Y016395D01*
X053492Y015139D02*
X054003D01*
X053747Y014883D02*
Y015395D01*
X05261Y021239D02*
X052965D01*
X052787Y021062D02*
Y021416D01*
X04861Y021239D02*
X048965D01*
X048787Y021062D02*
Y021416D01*
X05301Y022239D02*
X053365D01*
X053187Y022062D02*
Y022416D01*
X04821Y022239D02*
X048565D01*
X048387Y022062D02*
Y022416D01*
X047012Y018639D02*
X047642D01*
X047327Y018324D02*
Y018954D01*
X053932Y018639D02*
X054562D01*
X054247Y018324D02*
Y018954D01*
X047572Y017139D02*
X048083D01*
X047827Y016883D02*
Y017395D01*
X053492Y016139D02*
X054003D01*
X053747Y015883D02*
Y016395D01*
X047572Y015139D02*
X048083D01*
X047827Y014883D02*
Y015395D01*
X052038Y018639D02*
X053337D01*
X052687Y017989D02*
Y019289D01*
X048238Y018639D02*
X049537D01*
X048887Y017989D02*
Y019289D01*
X05101Y021239D02*
X051365D01*
X051187Y021062D02*
Y021416D01*
X05181Y021239D02*
X052165D01*
X051987Y021062D02*
Y021416D01*
X04901Y022239D02*
X049365D01*
X049187Y022062D02*
Y022416D01*
X04981Y022239D02*
X050165D01*
X049987Y022062D02*
Y022416D01*
X028531Y032992D02*
X028886D01*
X028709Y032815D02*
Y033169D01*
X029531Y032992D02*
X029886D01*
X029709Y032815D02*
Y033169D01*
X030531Y032992D02*
X030886D01*
X030709Y032815D02*
Y033169D01*
X031531Y032992D02*
X031886D01*
X031709Y032815D02*
Y033169D01*
X031547Y030354D02*
X031902D01*
X031724Y030177D02*
Y030531D01*
X030547Y030354D02*
X030902D01*
X030724Y030177D02*
Y030531D01*
X029547Y030354D02*
X029902D01*
X029724Y030177D02*
Y030531D01*
X028547Y030354D02*
X028902D01*
X028724Y030177D02*
Y030531D01*
X029531Y034606D02*
X029886D01*
X029709Y034429D02*
Y034783D01*
X030531Y034606D02*
X030886D01*
X030709Y034429D02*
Y034783D01*
X031531Y034606D02*
X031886D01*
X031709Y034429D02*
Y034783D01*
X05943Y021239D02*
X059784D01*
X059607Y021062D02*
Y021416D01*
X05863Y021239D02*
X058984D01*
X058807Y021062D02*
Y021416D01*
X06143Y022239D02*
X061784D01*
X061607Y022062D02*
Y022416D01*
X06063Y022239D02*
X060984D01*
X060807Y022062D02*
Y022416D01*
X056791Y016139D02*
X057303D01*
X057047Y015883D02*
Y016395D01*
X062711Y015139D02*
X063223D01*
X062967Y014883D02*
Y015395D01*
X06183Y021239D02*
X062184D01*
X062007Y021062D02*
Y021416D01*
X05783Y021239D02*
X058184D01*
X058007Y021062D02*
Y021416D01*
X06223Y022239D02*
X062584D01*
X062407Y022062D02*
Y022416D01*
X05743Y022239D02*
X057784D01*
X057607Y022062D02*
Y022416D01*
X056232Y018639D02*
X056862D01*
X056547Y018324D02*
Y018954D01*
X063152Y018639D02*
X063782D01*
X063467Y018324D02*
Y018954D01*
X056791Y017139D02*
X057303D01*
X057047Y016883D02*
Y017395D01*
X062711Y016139D02*
X063223D01*
X062967Y015883D02*
Y016395D01*
X056791Y015139D02*
X057303D01*
X057047Y014883D02*
Y015395D01*
X061258Y018639D02*
X062557D01*
X061907Y017989D02*
Y019289D01*
X057458Y018639D02*
X058757D01*
X058107Y017989D02*
Y019289D01*
X06023Y021239D02*
X060584D01*
X060407Y021062D02*
Y021416D01*
X06103Y021239D02*
X061384D01*
X061207Y021062D02*
Y021416D01*
X05823Y022239D02*
X058584D01*
X058407Y022062D02*
Y022416D01*
X05903Y022239D02*
X059384D01*
X059207Y022062D02*
Y022416D01*
X062343Y024803D02*
X06372D01*
X063032Y024114D02*
Y025492D01*
X06128Y033858D02*
X061634D01*
X061457Y033681D02*
Y034035D01*
X06128Y030709D02*
X061634D01*
X061457Y030531D02*
Y030886D01*
X054502Y041413D02*
X054974D01*
X054738Y041177D02*
Y04165D01*
X054102Y044413D02*
X054575D01*
X054339Y044177D02*
Y04465D01*
X054902Y044413D02*
X055374D01*
X055138Y044177D02*
Y04465D01*
X058528Y043892D02*
X059188D01*
X058858Y043562D02*
Y044222D01*
X058528Y046648D02*
X059188D01*
X058858Y046318D02*
Y046978D01*
X030937Y014528D02*
X031173D01*
X031055Y014409D02*
Y014646D01*
X034339Y014528D02*
X034575D01*
X034457Y014409D02*
Y014646D01*
X030937Y016173D02*
X031173D01*
X031055Y016055D02*
Y016291D01*
X034339Y016173D02*
X034575D01*
X034457Y016055D02*
Y016291D01*
X033766Y015976D02*
X034022D01*
X033894Y015848D02*
Y016104D01*
X03149Y015976D02*
X031746D01*
X031618Y015848D02*
Y016104D01*
X039071Y018508D02*
X039433D01*
X039252Y018327D02*
Y018689D01*
X040055Y018508D02*
X040417D01*
X040236Y018327D02*
Y018689D01*
X040843Y018508D02*
X041205D01*
X041024Y018327D02*
Y018689D01*
X041827Y018508D02*
X042189D01*
X042008Y018327D02*
Y018689D01*
X037598Y017441D02*
X038488D01*
X038043Y016996D02*
Y017886D01*
X042772Y017441D02*
X043661D01*
X043217Y016996D02*
Y017886D01*
X028484Y014567D02*
X029862D01*
X029173Y013878D02*
Y015256D01*
X063432Y037726D02*
X063832D01*
X063632Y037526D02*
Y037926D01*
X063432Y038878D02*
X063832D01*
X063632Y038678D02*
Y039078D01*
X063432Y036585D02*
X063832D01*
X063632Y036385D02*
Y036785D01*
X031358Y045069D02*
X032539D01*
X031949Y044478D02*
Y045659D01*
X037067Y045069D02*
X038248D01*
X037657Y044478D02*
Y045659D01*
X037264Y047415D02*
X038051D01*
X037657Y047022D02*
Y047809D01*
X031555Y047415D02*
X032343D01*
X031949Y047022D02*
Y047809D01*
X028484Y048032D02*
X029862D01*
X029173Y047343D02*
Y04872D01*
X062343Y048032D02*
X06372D01*
X063032Y047343D02*
Y04872D01*
X041807Y048583D02*
X042161D01*
X041984Y048406D02*
Y04876D01*
X040807Y048583D02*
X041161D01*
X040984Y048406D02*
Y04876D01*
X039807Y048583D02*
X040161D01*
X039984Y048406D02*
Y04876D01*
X038807Y048583D02*
X039161D01*
X038984Y048406D02*
Y04876D01*
X048154Y048583D02*
X048508D01*
X048331Y048406D02*
Y04876D01*
X047154Y048583D02*
X047508D01*
X047331Y048406D02*
Y04876D01*
X046154Y048583D02*
X046508D01*
X046331Y048406D02*
Y04876D01*
X045154Y048583D02*
X045508D01*
X045331Y048406D02*
Y04876D01*
X044154Y048583D02*
X044508D01*
X044331Y048406D02*
Y04876D01*
X043154Y048583D02*
X043508D01*
X043331Y048406D02*
Y04876D01*
X049467Y048583D02*
X049887D01*
X049677Y048373D02*
Y048793D01*
X051467Y048583D02*
X051887D01*
X051677Y048373D02*
Y048793D01*
X055467Y048583D02*
X055887D01*
X055677Y048373D02*
Y048793D01*
X054467Y048583D02*
X054887D01*
X054677Y048373D02*
Y048793D01*
X053467Y048583D02*
X053887D01*
X053677Y048373D02*
Y048793D01*
X052467Y048583D02*
X052887D01*
X052677Y048373D02*
Y048793D01*
X050467Y048583D02*
X050887D01*
X050677Y048373D02*
Y048793D01*
X057894Y032589D02*
X058051D01*
X057972Y03251D02*
Y032667D01*
X056929Y03622D02*
X057008D01*
X056968Y036181D02*
Y03626D01*
X056537Y033245D02*
X056655D01*
X056596Y033186D02*
Y033304D01*
X054213Y030945D02*
X054291D01*
X054252Y030906D02*
Y030984D01*
X05437Y031102D02*
X054449D01*
X054409Y031063D02*
Y031142D01*
X054606Y031102D02*
X054685D01*
X054646Y031063D02*
Y031142D01*
X040089Y028691D02*
X040167D01*
X040128Y028652D02*
Y02873D01*
X040089Y028435D02*
X040167D01*
X040128Y028396D02*
Y028474D01*
X039488Y023661D02*
X039567D01*
X039528Y023622D02*
Y023701D01*
X039134Y024213D02*
X039291D01*
X039213Y024134D02*
Y024291D01*
X041054Y020518D02*
X041133D01*
X041094Y020479D02*
Y020557D01*
X040394Y021378D02*
X040472D01*
X040433Y021339D02*
Y021417D01*
X04133Y020518D02*
X041409D01*
X041369Y020479D02*
Y020557D01*
X040669Y021378D02*
X040748D01*
X040709Y021339D02*
Y021417D01*
X040079Y031811D02*
X040157D01*
X040118Y031772D02*
Y03185D01*
X044872Y028563D02*
X044951D01*
X044911Y028524D02*
Y028602D01*
X045118Y028071D02*
X045197D01*
X045157Y028031D02*
Y02811D01*
X052756Y029213D02*
X052835D01*
X052795Y029173D02*
Y029252D01*
X052165Y029843D02*
X052244D01*
X052205Y029803D02*
Y029882D01*
X058071Y029291D02*
X05815D01*
X05811Y029252D02*
Y029331D01*
X055Y032165D02*
X055079D01*
X055039Y032126D02*
Y032205D01*
X055276Y031063D02*
X055354D01*
X055315Y031024D02*
Y031102D01*
X051417Y033819D02*
X051496D01*
X051457Y03378D02*
Y033858D01*
X051535Y033661D02*
X051614D01*
X051575Y033622D02*
Y033701D01*
X051299Y033661D02*
X051378D01*
X051339Y033622D02*
Y033701D01*
X06185Y035039D02*
X061929D01*
X06189Y035D02*
Y035079D01*
X06185Y034764D02*
X061929D01*
X06189Y034724D02*
Y034803D01*
X061457Y028386D02*
X061535D01*
X061496Y028346D02*
Y028425D01*
X06185Y028386D02*
X061929D01*
X06189Y028346D02*
Y028425D01*
X06185Y028701D02*
X061929D01*
X06189Y028661D02*
Y02874D01*
X06185Y029016D02*
X061929D01*
X06189Y028976D02*
Y029055D01*
X044468Y029469D02*
X044547D01*
X044508Y029429D02*
Y029508D01*
X044468Y029213D02*
X044547D01*
X044508Y029173D02*
Y029252D01*
X045197Y045827D02*
X045276D01*
X045236Y045787D02*
Y045866D01*
X044961Y045827D02*
X045039D01*
X045Y045787D02*
Y045866D01*
X045315Y045591D02*
X045394D01*
X045354Y045551D02*
Y04563D01*
X045079Y045591D02*
X045157D01*
X045118Y045551D02*
Y04563D01*
X044843Y045591D02*
X044921D01*
X044882Y045551D02*
Y04563D01*
X045551Y04374D02*
X04563D01*
X045591Y043701D02*
Y04378D01*
X045315Y04374D02*
X045394D01*
X045354Y043701D02*
Y04378D01*
X057087Y039646D02*
X057165D01*
X057126Y039606D02*
Y039685D01*
X041654Y046102D02*
X041811D01*
X041732Y046024D02*
Y046181D01*
X039252Y046496D02*
X039409D01*
X039331Y046417D02*
Y046575D01*
X053278Y041614D02*
X053396D01*
X053337Y041555D02*
Y041673D01*
X055532Y036043D02*
X05561D01*
X055571Y036004D02*
Y036083D01*
X055984Y028404D02*
X056063D01*
X056024Y028365D02*
Y028443D01*
X058465Y028642D02*
X058543D01*
X058504Y028602D02*
Y028681D01*
X058071Y028051D02*
X05815D01*
X05811Y028012D02*
Y028091D01*
X057677Y028051D02*
X057756D01*
X057717Y028012D02*
Y028091D01*
X057677Y028642D02*
X057756D01*
X057717Y028602D02*
Y028681D01*
X057677Y028346D02*
X057756D01*
X057717Y028307D02*
Y028386D01*
X058071Y028346D02*
X05815D01*
X05811Y028307D02*
Y028386D01*
X058465Y029035D02*
X058543D01*
X058504Y028996D02*
Y029075D01*
X058071Y029035D02*
X05815D01*
X05811Y028996D02*
Y029075D01*
X058071Y028642D02*
X05815D01*
X05811Y028602D02*
Y028681D01*
X059388Y026615D02*
X059546D01*
X059467Y026536D02*
Y026694D01*
X046024Y020472D02*
X046181D01*
X046102Y020394D02*
Y020551D01*
X033425Y026614D02*
X033504D01*
X033465Y026575D02*
Y026654D01*
X033543Y027008D02*
X033622D01*
X033583Y026969D02*
Y027047D01*
X055276Y041614D02*
X055354D01*
X055315Y041575D02*
Y041654D01*
X046413Y018933D02*
X046492D01*
X046453Y018894D02*
Y018972D01*
X044724Y019685D02*
X044803D01*
X044764Y019646D02*
Y019724D01*
X057254Y027126D02*
X057372D01*
X057313Y027067D02*
Y027185D01*
X05626Y016811D02*
X056417D01*
X056339Y016732D02*
Y01689D01*
X046888Y01673D02*
X047045D01*
X046967Y016652D02*
Y016809D01*
X055827Y021378D02*
X055906D01*
X055866Y021339D02*
Y021417D01*
X055827Y021654D02*
X055906D01*
X055866Y021614D02*
Y021693D01*
X054961Y021378D02*
X055039D01*
X055Y021339D02*
Y021417D01*
X054961Y021654D02*
X055039D01*
X055Y021614D02*
Y021693D01*
X056024Y021378D02*
X056102D01*
X056063Y021339D02*
Y021417D01*
X056024Y021654D02*
X056102D01*
X056063Y021614D02*
Y021693D01*
X054724Y021654D02*
X054803D01*
X054764Y021614D02*
Y021693D01*
X054724Y021378D02*
X054803D01*
X054764Y021339D02*
Y021417D01*
X046161Y016142D02*
X04624D01*
X046201Y016102D02*
Y016181D01*
X045768Y016142D02*
X045846D01*
X045807Y016102D02*
Y016181D01*
X045374Y016142D02*
X045453D01*
X045413Y016102D02*
Y016181D01*
X045079Y016142D02*
X045157D01*
X045118Y016102D02*
Y016181D01*
X046161Y016339D02*
X04624D01*
X046201Y016299D02*
Y016378D01*
X045768Y016339D02*
X045846D01*
X045807Y016299D02*
Y016378D01*
X045374Y016339D02*
X045453D01*
X045413Y016299D02*
Y016378D01*
X045079Y016339D02*
X045157D01*
X045118Y016299D02*
Y016378D01*
X037303Y031909D02*
X037382D01*
X037343Y03187D02*
Y031949D01*
X044282Y02815D02*
X04436D01*
X044321Y02811D02*
Y028189D01*
X032884Y039134D02*
X032963D01*
X032923Y039094D02*
Y039173D01*
X033091Y038091D02*
X033169D01*
X03313Y038051D02*
Y03813D01*
X03312Y038415D02*
X033199D01*
X033159Y038376D02*
Y038455D01*
X033848Y037953D02*
X033927D01*
X033888Y037913D02*
Y037992D01*
X033848Y038179D02*
X033927D01*
X033888Y03814D02*
Y038219D01*
X037559Y033583D02*
X037638D01*
X037598Y033543D02*
Y033622D01*
X037835Y033583D02*
X037913D01*
X037874Y033543D02*
Y033622D01*
X037283Y033583D02*
X037362D01*
X037323Y033543D02*
Y033622D01*
X043858Y039449D02*
X043937D01*
X043898Y039409D02*
Y039488D01*
X043701Y039331D02*
X04378D01*
X04374Y039291D02*
Y03937D01*
X043307Y039528D02*
X043386D01*
X043346Y039488D02*
Y039567D01*
X043307Y039331D02*
X043386D01*
X043346Y039291D02*
Y03937D01*
X043504Y039646D02*
X043583D01*
X043543Y039606D02*
Y039685D01*
X043701Y039567D02*
X04378D01*
X04374Y039528D02*
Y039606D01*
X043976D02*
X044055D01*
X044016Y039567D02*
Y039646D01*
X043504Y039449D02*
X043583D01*
X043543Y039409D02*
Y039488D01*
X043504Y039252D02*
X043583D01*
X043543Y039213D02*
Y039291D01*
X044173Y042137D02*
X044252D01*
X044213Y042098D02*
Y042176D01*
X041033Y035364D02*
X041112D01*
X041073Y035325D02*
Y035404D01*
X044173Y04192D02*
X044252D01*
X044213Y041881D02*
Y04196D01*
X041033Y03562D02*
X041112D01*
X041073Y035581D02*
Y035659D01*
X042096Y033553D02*
X042175D01*
X042136Y033514D02*
Y033593D01*
X0421Y031925D02*
X042179D01*
X04214Y031886D02*
Y031965D01*
X050659Y042323D02*
X050738D01*
X050699Y042283D02*
Y042362D01*
X050677Y041828D02*
X050756D01*
X050717Y041789D02*
Y041868D01*
X041732Y021917D02*
X041811D01*
X041772Y021878D02*
Y021957D01*
X043209Y020669D02*
X043287D01*
X043248Y02063D02*
Y020709D01*
X043012Y020669D02*
X043091D01*
X043051Y02063D02*
Y020709D01*
X042254Y022274D02*
X042333D01*
X042293Y022234D02*
Y022313D01*
X045039Y022165D02*
X045118D01*
X045079Y022126D02*
Y022205D01*
X044646Y022165D02*
X044724D01*
X044685Y022126D02*
Y022205D01*
X044252Y022165D02*
X044331D01*
X044291Y022126D02*
Y022205D01*
X045039Y022598D02*
X045118D01*
X045079Y022559D02*
Y022638D01*
X044646Y022598D02*
X044724D01*
X044685Y022559D02*
Y022638D01*
X044252Y022598D02*
X044331D01*
X044291Y022559D02*
Y022638D01*
X045039Y022992D02*
X045118D01*
X045079Y022953D02*
Y023031D01*
X044646Y022992D02*
X044724D01*
X044685Y022953D02*
Y023031D01*
X044252Y022992D02*
X044331D01*
X044291Y022953D02*
Y023031D01*
X043622Y036929D02*
X043701D01*
X043661Y03689D02*
Y036969D01*
X032382Y042126D02*
X032461D01*
X032421Y042087D02*
Y042165D01*
X030787Y039409D02*
X030866D01*
X030827Y03937D02*
Y039449D01*
X030787Y039606D02*
X030866D01*
X030827Y039567D02*
Y039646D01*
X031339Y038071D02*
X031417D01*
X031378Y038031D02*
Y03811D01*
X037244Y039331D02*
X037323D01*
X037283Y039291D02*
Y03937D01*
X044173Y043317D02*
X044252D01*
X044213Y043278D02*
Y043356D01*
X041033Y037096D02*
X041112D01*
X041073Y037057D02*
Y037136D01*
X044173Y0431D02*
X044252D01*
X044213Y043061D02*
Y04314D01*
X041033Y037352D02*
X041112D01*
X041073Y037313D02*
Y037392D01*
X043228Y041532D02*
X043307D01*
X043268Y041493D02*
Y041572D01*
X041033Y03623D02*
X041112D01*
X041073Y036191D02*
Y03627D01*
X043228Y041749D02*
X043307D01*
X043268Y04171D02*
Y041788D01*
X041033Y036486D02*
X041112D01*
X041073Y036447D02*
Y036526D01*
X041033Y034498D02*
X041112D01*
X041073Y034459D02*
Y034537D01*
X041033Y034754D02*
X041112D01*
X041073Y034715D02*
Y034793D01*
X043228Y042712D02*
X043307D01*
X043268Y042673D02*
Y042752D01*
X043228Y042929D02*
X043307D01*
X043268Y04289D02*
Y042968D01*
X037913Y031181D02*
X037992D01*
X037953Y031142D02*
Y03122D01*
X037913Y031417D02*
X037992D01*
X037953Y031378D02*
Y031457D01*
X037677Y031417D02*
X037756D01*
X037717Y031378D02*
Y031457D01*
X037677Y031181D02*
X037756D01*
X037717Y031142D02*
Y03122D01*
X041654Y024557D02*
X041732D01*
X041693Y024518D02*
Y024596D01*
X059833Y02998D02*
X059911D01*
X059872Y029941D02*
Y03002D01*
X058329Y031829D02*
X058407D01*
X058368Y031789D02*
Y031868D01*
X046575Y024341D02*
X046654D01*
X046614Y024301D02*
Y02438D01*
X046039Y025732D02*
X046118D01*
X046079Y025693D02*
Y025772D01*
X046329Y024203D02*
X046407D01*
X046368Y024163D02*
Y024242D01*
X043022Y024055D02*
X0431D01*
X043061Y024016D02*
Y024094D01*
X043159Y024242D02*
X043238D01*
X043199Y024203D02*
Y024281D01*
X043091Y023751D02*
X04317D01*
X04313Y023712D02*
Y02379D01*
X043868Y020994D02*
X043986D01*
X043927Y020935D02*
Y021053D01*
X043439Y021217D02*
X043518D01*
X043478Y021177D02*
Y021256D01*
X056846Y027376D02*
X056925D01*
X056886Y027337D02*
Y027415D01*
X052264Y030906D02*
X052343D01*
X052303Y030866D02*
Y030945D01*
X041142Y027559D02*
X04122D01*
X041181Y02752D02*
Y027598D01*
X051811Y028809D02*
X05189D01*
X05185Y02877D02*
Y028848D01*
X041545Y02626D02*
X041624D01*
X041585Y02622D02*
Y026299D01*
X042953Y025915D02*
X043032D01*
X042992Y025876D02*
Y025955D01*
X044803Y025669D02*
X044882D01*
X044843Y02563D02*
Y025709D01*
X055035Y027559D02*
X055114D01*
X055074Y02752D02*
Y027598D01*
X056417Y02685D02*
X056496D01*
X056457Y026811D02*
Y02689D01*
X056614Y02685D02*
X056693D01*
X056654Y026811D02*
Y02689D01*
X05626Y030118D02*
X056339D01*
X056299Y030079D02*
Y030157D01*
X061555Y023051D02*
X061634D01*
X061594Y023012D02*
Y023091D01*
X061555Y022815D02*
X061634D01*
X061594Y022776D02*
Y022854D01*
X050721Y021998D02*
X0508D01*
X05076Y021959D02*
Y022037D01*
X050721Y021762D02*
X0508D01*
X05076Y021722D02*
Y021801D01*
X052283Y022835D02*
X052362D01*
X052323Y022795D02*
Y022874D01*
X052283Y023071D02*
X052362D01*
X052323Y023031D02*
Y02311D01*
X055315Y038819D02*
X055394D01*
X055354Y03878D02*
Y038858D01*
X055472Y039173D02*
X055551D01*
X055512Y039134D02*
Y039213D01*
X053032Y034567D02*
X05311D01*
X053071Y034528D02*
Y034606D01*
X048413Y043603D02*
X048492D01*
X048452Y043564D02*
Y043643D01*
X044536Y038476D02*
X044615D01*
X044575Y038437D02*
Y038515D01*
X044969Y038476D02*
X045048D01*
X045008Y038437D02*
Y038515D01*
X045835Y038476D02*
X045914D01*
X045874Y038437D02*
Y038515D01*
X046268Y038476D02*
X046347D01*
X046308Y038437D02*
Y038515D01*
X046701Y038476D02*
X04678D01*
X046741Y038437D02*
Y038515D01*
X045402Y038476D02*
X045481D01*
X045441Y038437D02*
Y038515D01*
X05065Y042795D02*
X050728D01*
X050689Y042756D02*
Y042835D01*
X047134Y038476D02*
X047213D01*
X047174Y038437D02*
Y038515D01*
X047567Y038476D02*
X047646D01*
X047607Y038437D02*
Y038515D01*
X056102Y032913D02*
X056181D01*
X056142Y032874D02*
Y032953D01*
X058819Y038228D02*
X058898D01*
X058858Y038189D02*
Y038268D01*
X06Y038228D02*
X060079D01*
X060039Y038189D02*
Y038268D01*
X058819Y037835D02*
X058898D01*
X058858Y037795D02*
Y037874D01*
X06Y037441D02*
X060079D01*
X060039Y037402D02*
Y03748D01*
X059213Y037835D02*
X059291D01*
X059252Y037795D02*
Y037874D01*
X059213Y037441D02*
X059291D01*
X059252Y037402D02*
Y03748D01*
X058819Y037441D02*
X058898D01*
X058858Y037402D02*
Y03748D01*
X059606Y037441D02*
X059685D01*
X059646Y037402D02*
Y03748D01*
X06Y037047D02*
X060079D01*
X060039Y037008D02*
Y037087D01*
X058819Y037047D02*
X058898D01*
X058858Y037008D02*
Y037087D01*
X06Y037835D02*
X060079D01*
X060039Y037795D02*
Y037874D01*
X059606Y038228D02*
X059685D01*
X059646Y038189D02*
Y038268D01*
X059213Y037047D02*
X059291D01*
X059252Y037008D02*
Y037087D01*
X059213Y038228D02*
X059291D01*
X059252Y038189D02*
Y038268D01*
X059606Y037835D02*
X059685D01*
X059646Y037795D02*
Y037874D01*
X059606Y037047D02*
X059685D01*
X059646Y037008D02*
Y037087D01*
X039803Y045551D02*
X039882D01*
X039843Y045512D02*
Y045591D01*
X039803Y045787D02*
X039882D01*
X039843Y045748D02*
Y045827D01*
X038937Y045079D02*
X039016D01*
X038976Y045039D02*
Y045118D01*
X038701Y045354D02*
X03878D01*
X03874Y045315D02*
Y045394D01*
X038976Y045709D02*
X039055D01*
X039016Y045669D02*
Y045748D01*
X033189Y045394D02*
X033268D01*
X033228Y045354D02*
Y045433D01*
X03378Y045394D02*
X033858D01*
X033819Y045354D02*
Y045433D01*
X03437Y045394D02*
X034449D01*
X034409Y045354D02*
Y045433D01*
X034961Y045394D02*
X035039D01*
X035Y045354D02*
Y045433D01*
X036142Y045394D02*
X03622D01*
X036181Y045354D02*
Y045433D01*
X036486Y039921D02*
X036565D01*
X036526Y039882D02*
Y039961D01*
X037018Y040413D02*
X037096D01*
X037057Y040374D02*
Y040453D01*
X037018Y039941D02*
X037096D01*
X037057Y039902D02*
Y03998D01*
X036614Y04314D02*
X036693D01*
X036654Y0431D02*
Y043179D01*
X036614Y04373D02*
X036693D01*
X036654Y043691D02*
Y04377D01*
X037333Y043425D02*
X037411D01*
X037372Y043386D02*
Y043465D01*
X037018Y040157D02*
X037096D01*
X037057Y040118D02*
Y040197D01*
X037047Y03815D02*
X037126D01*
X037087Y03811D02*
Y038189D01*
X0315Y040518D02*
X031579D01*
X03154Y040478D02*
Y040557D01*
X036486Y040157D02*
X036565D01*
X036526Y040118D02*
Y040197D01*
X036953Y040817D02*
X037032D01*
X036992Y040778D02*
Y040857D01*
X035906Y041476D02*
X035984D01*
X035945Y041437D02*
Y041516D01*
X036457Y040384D02*
X036535D01*
X036496Y040344D02*
Y040423D01*
X037461Y036929D02*
X037539D01*
X0375Y03689D02*
Y036969D01*
X041166Y044284D02*
X041245D01*
X041205Y044245D02*
Y044323D01*
X062559Y034498D02*
X062638D01*
X062598Y034459D02*
Y034537D01*
X052785Y033612D02*
X052864D01*
X052825Y033573D02*
Y033652D01*
X062461Y034892D02*
X062539D01*
X0625Y034852D02*
Y034931D01*
X052608Y034331D02*
X052687D01*
X052648Y034291D02*
Y03437D01*
X052608Y034803D02*
X052687D01*
X052648Y034764D02*
Y034843D01*
X045888Y03754D02*
X045967D01*
X045928Y037501D02*
Y037579D01*
X056801Y031703D02*
X05688D01*
X056841Y031663D02*
Y031742D01*
X047972Y024528D02*
X048051D01*
X048012Y024488D02*
Y024567D01*
X059374Y027357D02*
X059452D01*
X059413Y027317D02*
Y027396D01*
X049656Y025295D02*
X049734D01*
X049695Y025256D02*
Y025335D01*
X046043Y021201D02*
X046122D01*
X046082Y021162D02*
Y02124D01*
X059313Y03028D02*
X059392D01*
X059352Y03024D02*
Y030319D01*
X045817Y024006D02*
X045896D01*
X045856Y023967D02*
Y024045D01*
X048228Y027096D02*
X048307D01*
X048268Y027057D02*
Y027136D01*
X046919Y027077D02*
X046998D01*
X046959Y027037D02*
Y027116D01*
X047776Y025325D02*
X047854D01*
X047815Y025285D02*
Y025364D01*
X058986Y026526D02*
X059065D01*
X059026Y026486D02*
Y026565D01*
X05937Y028287D02*
X059449D01*
X059409Y028248D02*
Y028327D01*
X05936Y029075D02*
X059439D01*
X0594Y029035D02*
Y029114D01*
X043661Y029213D02*
X04374D01*
X043701Y029173D02*
Y029252D01*
X031683Y040699D02*
X031762D01*
X031722Y040659D02*
Y040738D01*
X03186Y040915D02*
X031939D01*
X0319Y040876D02*
Y040955D01*
X04954Y027491D02*
X049619D01*
X049579Y027452D02*
Y02753D01*
X050856Y027491D02*
X050934D01*
X050895Y027452D02*
Y02753D01*
X03936Y04372D02*
X039439D01*
X0394Y043681D02*
Y04376D01*
X044113Y04134D02*
X044192D01*
X044152Y0413D02*
Y041379D01*
X043102Y04055D02*
X043181D01*
X043141Y04051D02*
Y040589D01*
X043533Y032096D02*
X043612D01*
X043573Y032057D02*
Y032136D01*
X031339Y020728D02*
X031417D01*
X031378Y020689D02*
Y020768D01*
X058563Y030876D02*
X058642D01*
X058602Y030837D02*
Y030915D01*
X045837Y026847D02*
X045915D01*
X045876Y026808D02*
Y026887D01*
X046268Y026849D02*
X046347D01*
X046308Y02681D02*
Y026888D01*
X056152Y031112D02*
X05623D01*
X056191Y031073D02*
Y031152D01*
X056831Y030492D02*
X056909D01*
X05687Y030453D02*
Y030531D01*
X056159Y028404D02*
X056238D01*
X056198Y028365D02*
Y028443D01*
X058061Y030472D02*
X05814D01*
X0581Y030433D02*
Y030512D01*
X057638Y030581D02*
X057717D01*
X057677Y030541D02*
Y03062D01*
X058573Y03062D02*
X058652D01*
X058612Y030581D02*
Y030659D01*
X058927D02*
X059006D01*
X058967Y03062D02*
Y030699D01*
X059163Y030659D02*
X059242D01*
X059203Y03062D02*
Y030699D01*
X058169Y030689D02*
X058248D01*
X058209Y03065D02*
Y030728D01*
X057205Y030197D02*
X057283D01*
X057244Y030157D02*
Y030236D01*
X057598Y030197D02*
X057677D01*
X057638Y030157D02*
Y030236D01*
X057402Y030079D02*
X05748D01*
X057441Y030039D02*
Y030118D01*
X051898Y026006D02*
X051977D01*
X051937Y025967D02*
Y026046D01*
X0493Y026006D02*
X049378D01*
X049339Y025967D02*
Y026046D01*
X049733Y026006D02*
X049812D01*
X049772Y025967D02*
Y026046D01*
X050166Y026006D02*
X050245D01*
X050205Y025967D02*
Y026046D01*
X050599Y026006D02*
X050678D01*
X050638Y025967D02*
Y026046D01*
X051032Y026006D02*
X051111D01*
X051071Y025967D02*
Y026046D01*
X051465Y026006D02*
X051544D01*
X051504Y025967D02*
Y026046D01*
X048867Y026006D02*
X048945D01*
X048906Y025967D02*
Y026046D01*
X048434Y026006D02*
X048512D01*
X048473Y025967D02*
Y026046D01*
X048Y026006D02*
X048079D01*
X04804Y025967D02*
Y026046D01*
X047567Y026006D02*
X047646D01*
X047607Y025967D02*
Y026046D01*
X047134Y026006D02*
X047213D01*
X047174Y025967D02*
Y026046D01*
X046701Y026006D02*
X04678D01*
X046741Y025967D02*
Y026046D01*
X044536Y026006D02*
X044615D01*
X044575Y025967D02*
Y026046D01*
X044409Y024331D02*
X044488D01*
X044449Y024291D02*
Y02437D01*
X044213Y024134D02*
X044291D01*
X044252Y024094D02*
Y024173D01*
X044016Y024331D02*
X044094D01*
X044055Y024291D02*
Y02437D01*
X045402Y026006D02*
X045481D01*
X045441Y025967D02*
Y026046D01*
X042371Y026006D02*
X042449D01*
X04241Y025967D02*
Y026046D01*
X041144Y02705D02*
X041223D01*
X041183Y02701D02*
Y027089D01*
X041144Y027916D02*
X041223D01*
X041183Y027876D02*
Y027955D01*
X037795Y030079D02*
X037874D01*
X037835Y030039D02*
Y030118D01*
X037795Y030315D02*
X037874D01*
X037835Y030276D02*
Y030354D01*
X03003Y035797D02*
X030108D01*
X030069Y035758D02*
Y035837D01*
X034916Y04153D02*
X034995D01*
X034955Y041491D02*
Y041569D01*
X033248Y041526D02*
X033327D01*
X033287Y041487D02*
Y041566D01*
X030827Y030945D02*
X030906D01*
X030866Y030906D02*
Y030984D01*
X030827Y032362D02*
X030906D01*
X030866Y032323D02*
Y032402D01*
X036756Y037955D02*
X036834D01*
X036795Y037915D02*
Y037994D01*
X036752Y038179D02*
X036831D01*
X036791Y03814D02*
Y038219D01*
X033313Y036504D02*
X033392D01*
X033353Y036465D02*
Y036544D01*
X02815Y021496D02*
X028228D01*
X028189Y021457D02*
Y021535D01*
X028425Y021496D02*
X028504D01*
X028465Y021457D02*
Y021535D01*
X028701Y021496D02*
X02878D01*
X02874Y021457D02*
Y021535D01*
X028701Y02189D02*
X02878D01*
X02874Y02185D02*
Y021929D01*
X028425Y024016D02*
X028504D01*
X028465Y023976D02*
Y024055D01*
X02878Y024016D02*
X028858D01*
X028819Y023976D02*
Y024055D01*
X029173Y02437D02*
X029252D01*
X029213Y024331D02*
Y024409D01*
X02878Y02437D02*
X028858D01*
X028819Y024331D02*
Y024409D01*
X02878Y024685D02*
X028858D01*
X028819Y024646D02*
Y024724D01*
X028425Y025D02*
X028504D01*
X028465Y024961D02*
Y025039D01*
X028425Y025276D02*
X028504D01*
X028465Y025236D02*
Y025315D01*
X028425Y025551D02*
X028504D01*
X028465Y025512D02*
Y025591D01*
X029134Y028386D02*
X029213D01*
X029173Y028346D02*
Y028425D01*
X029134Y028701D02*
X029213D01*
X029173Y028661D02*
Y02874D01*
X028413Y029002D02*
X028492D01*
X028453Y028963D02*
Y029042D01*
X02874Y029016D02*
X028819D01*
X02878Y028976D02*
Y029055D01*
X028728Y028687D02*
X028807D01*
X028767Y028648D02*
Y028727D01*
X028728Y028372D02*
X028807D01*
X028767Y028333D02*
Y028412D01*
X02874Y028031D02*
X028819D01*
X02878Y027992D02*
Y028071D01*
X028386Y028031D02*
X028465D01*
X028425Y027992D02*
Y028071D01*
X029449Y022638D02*
X029528D01*
X029488Y022598D02*
Y022677D01*
X029685Y026457D02*
X029764D01*
X029724Y026417D02*
Y026496D01*
X043422Y030594D02*
X043501D01*
X043461Y030554D02*
Y030633D01*
X046317Y028307D02*
X046396D01*
X046356Y028268D02*
Y028346D01*
X046316Y028809D02*
X046395D01*
X046355Y02877D02*
Y028848D01*
X046316Y031309D02*
X046395D01*
X046355Y03127D02*
Y031348D01*
X046317Y029311D02*
X046396D01*
X046356Y029272D02*
Y02935D01*
X046319Y029803D02*
X046398D01*
X046358Y029764D02*
Y029843D01*
X04687Y02999D02*
X046949D01*
X046909Y029951D02*
Y03003D01*
X046323Y030295D02*
X046402D01*
X046362Y030256D02*
Y030335D01*
X046317Y030807D02*
X046396D01*
X046356Y030768D02*
Y030846D01*
X04632Y031801D02*
X046399D01*
X046359Y031762D02*
Y031841D01*
X04687Y031939D02*
X046949D01*
X046909Y0319D02*
Y031978D01*
X052244Y031693D02*
X052323D01*
X052283Y031654D02*
Y031732D01*
X044106Y0439D02*
X044185D01*
X044146Y04386D02*
Y043939D01*
X044148Y0441D02*
X044227D01*
X044188Y04406D02*
Y044139D01*
X043287Y044488D02*
X043366D01*
X043327Y044449D02*
Y044528D01*
X045059Y042943D02*
X045138D01*
X045098Y042904D02*
Y042982D01*
X045315Y042657D02*
X045394D01*
X045354Y042618D02*
Y042697D01*
X045285Y042874D02*
X045364D01*
X045325Y042835D02*
Y042913D01*
X041033Y033888D02*
X041112D01*
X041073Y033848D02*
Y033927D01*
X041033Y033632D02*
X041112D01*
X041073Y033593D02*
Y033671D01*
X043228Y043719D02*
X043307D01*
X043268Y04368D02*
Y043758D01*
X043228Y043502D02*
X043307D01*
X043268Y043463D02*
Y043542D01*
X043258Y039963D02*
X043337D01*
X043298Y039923D02*
Y040002D01*
X040278Y043313D02*
X040357D01*
X040318Y043273D02*
Y043352D01*
X040278Y040163D02*
X040357D01*
X040318Y040123D02*
Y040202D01*
X043258Y040363D02*
X043337D01*
X043298Y040323D02*
Y040402D01*
X040079Y043509D02*
X040158D01*
X040119Y04347D02*
Y043549D01*
X040276Y045285D02*
X040354D01*
X040315Y045246D02*
Y045325D01*
X039941Y041929D02*
X04002D01*
X03998Y04189D02*
Y041968D01*
X043258Y040753D02*
X043337D01*
X043298Y040713D02*
Y040792D01*
X040079Y045079D02*
X040157D01*
X040118Y045039D02*
Y045118D01*
X040278Y042523D02*
X040357D01*
X040318Y042483D02*
Y042562D01*
X043059Y040949D02*
X043138D01*
X043099Y04091D02*
Y040989D01*
X040278Y044103D02*
X040357D01*
X040318Y044063D02*
Y044142D01*
X043258Y041143D02*
X043337D01*
X043298Y041103D02*
Y041182D01*
X039823Y042736D02*
X039902D01*
X039862Y042697D02*
Y042776D01*
X040278Y042133D02*
X040357D01*
X040318Y042093D02*
Y042172D01*
X040278Y044493D02*
X040357D01*
X040318Y044453D02*
Y044532D01*
X041191Y041732D02*
X04127D01*
X04123Y041693D02*
Y041772D01*
X043059Y044879D02*
X043138D01*
X043099Y04484D02*
Y044919D01*
X043258Y045083D02*
X043337D01*
X043298Y045043D02*
Y045122D01*
X040079Y040359D02*
X040158D01*
X040119Y04032D02*
Y040399D01*
X040079Y044689D02*
X040158D01*
X040119Y04465D02*
Y044729D01*
X040278Y043703D02*
X040357D01*
X040318Y043663D02*
Y043742D01*
X040278Y042923D02*
X040357D01*
X040318Y042883D02*
Y042962D01*
X040278Y041343D02*
X040357D01*
X040318Y041303D02*
Y041382D01*
X040079Y041139D02*
X040158D01*
X040119Y0411D02*
Y041179D01*
X040278Y040953D02*
X040357D01*
X040318Y040913D02*
Y040992D01*
X040278Y040553D02*
X040357D01*
X040318Y040513D02*
Y040592D01*
X043543Y019803D02*
X043622D01*
X043583Y019764D02*
Y019843D01*
X043356Y022147D02*
X043435D01*
X043395Y022108D02*
Y022186D01*
X041591Y023882D02*
X041669D01*
X04163Y023843D02*
Y023921D01*
X041589Y023608D02*
X041667D01*
X041628Y023569D02*
Y023648D01*
X041589Y023333D02*
X041667D01*
X041628Y023293D02*
Y023372D01*
X041589Y023057D02*
X041667D01*
X041628Y023018D02*
Y023096D01*
X041589Y022781D02*
X041667D01*
X041628Y022742D02*
Y022821D01*
X041589Y022496D02*
X041667D01*
X041628Y022457D02*
Y022535D01*
X045431Y024368D02*
X04551D01*
X04547Y024329D02*
Y024407D01*
X045667Y024368D02*
X045746D01*
X045707Y024329D02*
Y024407D01*
X056929Y025984D02*
X057008D01*
X056968Y025945D02*
Y026024D01*
X056751Y02831D02*
X056829D01*
X05679Y028271D02*
Y02835D01*
X054998Y028654D02*
X055077D01*
X055037Y028614D02*
Y028693D01*
X054998Y028939D02*
X055077D01*
X055037Y0289D02*
Y028978D01*
X054998Y029215D02*
X055077D01*
X055037Y029175D02*
Y029254D01*
X054998Y02949D02*
X055077D01*
X055037Y029451D02*
Y02953D01*
X054998Y029766D02*
X055077D01*
X055037Y029726D02*
Y029805D01*
X055Y030039D02*
X055079D01*
X055039Y03D02*
Y030079D01*
X059596Y024833D02*
X059675D01*
X059636Y024793D02*
Y024872D01*
X05815Y025866D02*
X058228D01*
X058189Y025827D02*
Y025906D01*
X053474Y021841D02*
X053553D01*
X053514Y021801D02*
Y02188D01*
X053819Y021654D02*
X053898D01*
X053858Y021614D02*
Y021693D01*
X047638Y021654D02*
X047717D01*
X047677Y021614D02*
Y021693D01*
X048032Y021811D02*
X04811D01*
X048071Y021772D02*
Y02185D01*
X062717D02*
X062795D01*
X062756Y021811D02*
Y02189D01*
X06311Y021654D02*
X063189D01*
X06315Y021614D02*
Y021693D01*
X057244Y021811D02*
X057323D01*
X057283Y021772D02*
Y02185D01*
X05685Y021654D02*
X056929D01*
X05689Y021614D02*
Y021693D01*
X050079Y024088D02*
X050157D01*
X050118Y024048D02*
Y024127D01*
X050079Y023379D02*
X050157D01*
X050118Y02334D02*
Y023418D01*
X051535Y024094D02*
X051614D01*
X051575Y024055D02*
Y024134D01*
X051535Y023386D02*
X051614D01*
X051575Y023346D02*
Y023425D01*
X030551Y019882D02*
X03063D01*
X030591Y019843D02*
Y019921D01*
X030984Y019882D02*
X031063D01*
X031024Y019843D02*
Y019921D01*
X057618Y039004D02*
X057697D01*
X057657Y038964D02*
Y039043D01*
X057775Y039161D02*
X057854D01*
X057815Y039122D02*
Y039201D01*
X0575Y039161D02*
X057578D01*
X057539Y039122D02*
Y039201D01*
X056096Y032577D02*
X056175D01*
X056135Y032538D02*
Y032616D01*
X05435Y034006D02*
X054429D01*
X05439Y033967D02*
Y034045D01*
X053994Y036577D02*
X054073D01*
X054033Y036538D02*
Y036616D01*
X054065Y034006D02*
X054144D01*
X054104Y033967D02*
Y034045D01*
X053994Y034845D02*
X054073D01*
X054033Y034805D02*
Y034884D01*
X053994Y035278D02*
X054073D01*
X054033Y035238D02*
Y035317D01*
X053994Y035711D02*
X054073D01*
X054033Y035672D02*
Y03575D01*
X053994Y036144D02*
X054073D01*
X054033Y036105D02*
Y036183D01*
X031998Y032343D02*
X032077D01*
X032037Y032303D02*
Y032382D01*
X031998Y030965D02*
X032077D01*
X032037Y030925D02*
Y031004D01*
X031437Y031142D02*
X031516D01*
X031476Y031102D02*
Y031181D01*
X031437Y032165D02*
X031516D01*
X031476Y032126D02*
Y032205D01*
X029433Y03215D02*
X029512D01*
X029472Y03211D02*
Y032189D01*
X029429Y031142D02*
X029508D01*
X029469Y031102D02*
Y031181D01*
X030217Y031142D02*
X030295D01*
X030256Y031102D02*
Y031181D01*
X03022Y03215D02*
X030299D01*
X03026Y03211D02*
Y032189D01*
X028425Y031142D02*
X028504D01*
X028465Y031102D02*
Y031181D01*
X028421Y03215D02*
X0285D01*
X028461Y03211D02*
Y032189D01*
X029217Y03215D02*
X029295D01*
X029256Y03211D02*
Y032189D01*
X029213Y031142D02*
X029291D01*
X029252Y031102D02*
Y031181D01*
X043376Y034764D02*
X043455D01*
X043415Y034724D02*
Y034803D01*
X043376Y036152D02*
X043455D01*
X043415Y036112D02*
Y036191D01*
X035404Y033858D02*
X035482D01*
X035443Y033819D02*
Y033898D01*
X035404Y033622D02*
X035482D01*
X035443Y033583D02*
Y033661D01*
X033346Y034449D02*
X033425D01*
X033386Y034409D02*
Y034488D01*
X033346Y033425D02*
X033425D01*
X033386Y033386D02*
Y033465D01*
X03485Y034682D02*
X034929D01*
X03489Y034643D02*
Y034722D01*
X035079Y034685D02*
X035158D01*
X035118Y034646D02*
Y034725D01*
X045581Y020378D02*
X045659D01*
X04562Y020339D02*
Y020417D01*
X045945Y022126D02*
X046024D01*
X045984Y022087D02*
Y022165D01*
X045945Y022913D02*
X046024D01*
X045984Y022874D02*
Y022953D01*
X059941Y021998D02*
X06002D01*
X05998Y021959D02*
Y022037D01*
X059941Y021762D02*
X06002D01*
X05998Y021722D02*
Y021801D01*
X059291Y024016D02*
X05937D01*
X059331Y023976D02*
Y024055D01*
X059291Y023307D02*
X05937D01*
X059331Y023268D02*
Y023346D01*
X060827Y023307D02*
X060906D01*
X060866Y023268D02*
Y023346D01*
X060827Y024016D02*
X060906D01*
X060866Y023976D02*
Y024055D01*
X056949Y035079D02*
X057028D01*
X056988Y035039D02*
Y035118D01*
X056953Y034822D02*
X057032D01*
X056993Y034783D02*
Y034862D01*
X057008Y035305D02*
X057087D01*
X057047Y035266D02*
Y035344D01*
X057618Y035472D02*
X057697D01*
X057657Y035433D02*
Y035512D01*
X057372Y03564D02*
X057451D01*
X057411Y0356D02*
Y035679D01*
X057589Y035846D02*
X057667D01*
X057628Y035807D02*
Y035886D01*
X057658Y036205D02*
X057736D01*
X057697Y036166D02*
Y036244D01*
X057511Y036115D02*
X05759D01*
X05755Y036075D02*
Y036154D01*
X058898Y034961D02*
X058976D01*
X058937Y034921D02*
Y035D01*
X05877Y035364D02*
X058848D01*
X058809Y035325D02*
Y035404D01*
X058307Y034961D02*
X058386D01*
X058346Y034921D02*
Y035D01*
X058228Y035354D02*
X058307D01*
X058268Y035315D02*
Y035394D01*
X032323Y017795D02*
X032402D01*
X032362Y017756D02*
Y017835D01*
X03374Y017598D02*
X033819D01*
X03378Y017559D02*
Y017638D01*
X031339Y017512D02*
X031496D01*
X031417Y017433D02*
Y017591D01*
X029823Y021634D02*
X029902D01*
X029862Y021594D02*
Y021673D01*
X043526Y046118D02*
X043605D01*
X043566Y046078D02*
Y046157D01*
X043487Y045842D02*
X043566D01*
X043526Y045803D02*
Y045881D01*
X043211Y045763D02*
X04329D01*
X043251Y045724D02*
Y045803D01*
X03935Y040059D02*
X039429D01*
X03939Y04002D02*
Y040098D01*
X03935Y04065D02*
X039429D01*
X03939Y04061D02*
Y040689D01*
X03935Y041634D02*
X039429D01*
X03939Y041594D02*
Y041673D01*
X03935Y042224D02*
X039429D01*
X03939Y042185D02*
Y042264D01*
X03935Y043209D02*
X039429D01*
X03939Y043169D02*
Y043248D01*
X047963Y042185D02*
X048041D01*
X048002Y042146D02*
Y042224D01*
X048189Y041427D02*
X048268D01*
X048228Y041388D02*
Y041467D01*
X046772Y04D02*
X046929D01*
X04685Y039921D02*
Y040079D01*
X050079Y043189D02*
X050157D01*
X050118Y04315D02*
Y043228D01*
X049646Y043583D02*
X049724D01*
X049685Y043543D02*
Y043622D01*
X049478Y043376D02*
X049557D01*
X049518Y043337D02*
Y043415D01*
X048661Y043268D02*
X04874D01*
X048701Y043228D02*
Y043307D01*
X048238Y043061D02*
X048317D01*
X048278Y043022D02*
Y0431D01*
X048483Y042165D02*
X048562D01*
X048523Y042125D02*
Y042204D01*
X049468Y042057D02*
X049547D01*
X049508Y042018D02*
Y042096D01*
X047296Y042708D02*
X047375D01*
X047336Y042668D02*
Y042747D01*
X047913Y042835D02*
X047992D01*
X047953Y042795D02*
Y042874D01*
X048268Y042106D02*
X048346D01*
X048307Y042067D02*
Y042146D01*
X048661Y042461D02*
X04874D01*
X048701Y042421D02*
Y0425D01*
X048307Y04251D02*
X048386D01*
X048346Y04247D02*
Y042549D01*
X048661Y042904D02*
X04874D01*
X048701Y042864D02*
Y042943D01*
X05Y043858D02*
X050079D01*
X050039Y043819D02*
Y043898D01*
X048465Y044528D02*
X048543D01*
X048504Y044488D02*
Y044567D01*
X048858Y044528D02*
X048937D01*
X048898Y044488D02*
Y044567D01*
X049134Y044528D02*
X049213D01*
X049173Y044488D02*
Y044567D01*
X049488Y044646D02*
X049567D01*
X049528Y044606D02*
Y044685D01*
Y044045D02*
X049606D01*
X049567Y044006D02*
Y044085D01*
X048661Y043602D02*
X04874D01*
X048701Y043563D02*
Y043642D01*
X048268Y044262D02*
X048346D01*
X048307Y044222D02*
Y044301D01*
X047947Y043201D02*
X048026D01*
X047986Y043161D02*
Y04324D01*
X048022Y043543D02*
X0481D01*
X048061Y043504D02*
Y043583D01*
X047352Y04315D02*
X047431D01*
X047392Y04311D02*
Y043189D01*
X047618Y04315D02*
X047697D01*
X047657Y04311D02*
Y043189D01*
X047274Y043543D02*
X047352D01*
X047313Y043504D02*
Y043583D01*
X056294Y032578D02*
X056372D01*
X056333Y032539D02*
Y032618D01*
X052087Y033701D02*
X052165D01*
X052126Y033661D02*
Y03374D01*
X052362Y033701D02*
X052441D01*
X052402Y033661D02*
Y03374D01*
X056142Y030846D02*
X05622D01*
X056181Y030807D02*
Y030886D01*
X056152Y031339D02*
X05623D01*
X056191Y031299D02*
Y031378D01*
X056142Y031831D02*
X05622D01*
X056181Y031791D02*
Y03187D01*
X056142Y033287D02*
X05622D01*
X056181Y033248D02*
Y033327D01*
X056142Y03376D02*
X05622D01*
X056181Y03372D02*
Y033799D01*
X056142Y034232D02*
X05622D01*
X056181Y034193D02*
Y034272D01*
X056142Y034705D02*
X05622D01*
X056181Y034665D02*
Y034744D01*
X056752Y028081D02*
X056831D01*
X056791Y028041D02*
Y02812D01*
X058486Y026346D02*
X058565D01*
X058526Y026307D02*
Y026386D01*
X055553Y030028D02*
X055632D01*
X055593Y029988D02*
Y030067D01*
X055553Y029752D02*
X055632D01*
X055593Y029713D02*
Y029791D01*
X055553Y029476D02*
X055632D01*
X055593Y029437D02*
Y029516D01*
X055553Y029201D02*
X055632D01*
X055593Y029161D02*
Y02924D01*
X055553Y028925D02*
X055632D01*
X055593Y028886D02*
Y028965D01*
X055553Y02864D02*
X055632D01*
X055593Y0286D02*
Y028679D01*
X0564Y027646D02*
X056478D01*
X056439Y027606D02*
Y027685D01*
X056587Y027646D02*
X056665D01*
X056626Y027606D02*
Y027685D01*
X056892Y029486D02*
X05697D01*
X056931Y029447D02*
Y029526D01*
X056498Y029722D02*
X056577D01*
X056537Y029683D02*
Y029762D01*
X056499Y02991D02*
X056577D01*
X056538Y029871D02*
Y02995D01*
X059904Y029073D02*
X059982D01*
X059943Y029033D02*
Y029112D01*
X059904Y028285D02*
X059982D01*
X059943Y028246D02*
Y028325D01*
X056699Y027445D02*
X056777D01*
X056738Y027406D02*
Y027484D01*
X057118Y026494D02*
X057197D01*
X057157Y026455D02*
Y026533D01*
X057433Y026487D02*
X057512D01*
X057472Y026447D02*
Y026526D01*
X057748Y026487D02*
X057827D01*
X057787Y026447D02*
Y026526D01*
X0576Y025943D02*
X057679D01*
X05764Y025904D02*
Y025982D01*
X05886Y026819D02*
X058939D01*
X0589Y02678D02*
Y026858D01*
X059106Y026819D02*
X059185D01*
X059146Y02678D02*
Y026858D01*
X045699Y020659D02*
X045778D01*
X045738Y02062D02*
Y020699D01*
X045453Y020659D02*
X045532D01*
X045492Y02062D02*
Y020699D01*
X045079Y020187D02*
X045157D01*
X045118Y020148D02*
Y020226D01*
X044193Y019783D02*
X044272D01*
X044232Y019744D02*
Y019823D01*
X044341Y020327D02*
X044419D01*
X04438Y020288D02*
Y020367D01*
X044026Y020327D02*
X044104D01*
X044065Y020288D02*
Y020367D01*
X043711Y020335D02*
X043789D01*
X04375Y020295D02*
Y020374D01*
X043291Y021286D02*
X04337D01*
X043331Y021246D02*
Y021325D01*
X046496Y022126D02*
X046575D01*
X046535Y022087D02*
Y022165D01*
X046496Y022913D02*
X046575D01*
X046535Y022874D02*
Y022953D01*
X043091Y023563D02*
X043169D01*
X04313Y023524D02*
Y023602D01*
X043484Y023327D02*
X043563D01*
X043524Y023287D02*
Y023366D01*
X042588Y022285D02*
X042667D01*
X042628Y022245D02*
Y022324D01*
X042772Y022262D02*
X04285D01*
X042811Y022223D02*
Y022302D01*
X043179Y021486D02*
X043258D01*
X043218Y021447D02*
Y021526D01*
X042992Y021486D02*
X043071D01*
X043032Y021447D02*
Y021526D01*
X043346Y021919D02*
X043425D01*
X043386Y02188D02*
Y021959D01*
X042146Y02248D02*
X042224D01*
X042185Y022441D02*
Y02252D01*
X042146Y022766D02*
X042224D01*
X042185Y022726D02*
Y022805D01*
X042146Y023041D02*
X042224D01*
X042185Y023002D02*
Y023081D01*
X042146Y023317D02*
X042224D01*
X042185Y023278D02*
Y023356D01*
X042146Y023593D02*
X042224D01*
X042185Y023553D02*
Y023632D01*
X042146Y023868D02*
X042224D01*
X042185Y023829D02*
Y023907D01*
X036663Y041102D02*
X036742D01*
X036703Y041063D02*
Y041142D01*
X036988Y041535D02*
X037067D01*
X037028Y041496D02*
Y041575D01*
X036575Y041486D02*
X036654D01*
X036614Y041447D02*
Y041526D01*
X036181Y041486D02*
X03626D01*
X03622Y041447D02*
Y041526D01*
X035654Y041092D02*
X035732D01*
X035693Y041052D02*
Y041131D01*
X037028Y039144D02*
X037106D01*
X037067Y039104D02*
Y039183D01*
X036821Y039144D02*
X0369D01*
X03686Y039104D02*
Y039183D01*
X036821Y03936D02*
X0369D01*
X03686Y039321D02*
Y0394D01*
X037264Y036929D02*
X037343D01*
X037303Y03689D02*
Y036969D01*
X03687Y036929D02*
X036949D01*
X036909Y03689D02*
Y036969D01*
X036673Y036929D02*
X036752D01*
X036713Y03689D02*
Y036969D01*
X03622Y042402D02*
X036299D01*
X03626Y042362D02*
Y042441D01*
X034675Y041526D02*
X034754D01*
X034715Y041486D02*
Y041565D01*
X033494Y041526D02*
X033573D01*
X033533Y041486D02*
Y041565D01*
X035748Y041811D02*
X035827D01*
X035787Y041772D02*
Y04185D01*
X035866Y03625D02*
X035945D01*
X035906Y036211D02*
Y036289D01*
X03376Y03625D02*
X033839D01*
X033799Y036211D02*
Y036289D01*
X033543Y03625D02*
X033622D01*
X033583Y036211D02*
Y036289D01*
X032844Y03624D02*
X032923D01*
X032884Y036201D02*
Y03628D01*
X032953Y036614D02*
X033031D01*
X032992Y036575D02*
Y036654D01*
X032904Y037185D02*
X032982D01*
X032943Y037146D02*
Y037224D01*
X032628Y03624D02*
X032707D01*
X032667Y036201D02*
Y03628D01*
X035266Y041093D02*
X035344D01*
X035305Y041053D02*
Y041132D01*
X034075Y041102D02*
X034154D01*
X034114Y041063D02*
Y041142D01*
X032795D02*
X032874D01*
X032835Y041102D02*
Y041181D01*
X030866Y04063D02*
X030945D01*
X030906Y040591D02*
Y040669D01*
X030669Y04063D02*
X030748D01*
X030709Y040591D02*
Y040669D01*
X030433Y04063D02*
X030512D01*
X030472Y040591D02*
Y040669D01*
X030915Y041968D02*
X030994D01*
X030955Y041929D02*
Y042008D01*
X030709Y041968D02*
X030787D01*
X030748Y041929D02*
Y042008D01*
X04687Y037057D02*
X046949D01*
X046909Y037018D02*
Y037096D01*
X046317Y033425D02*
X046396D01*
X046356Y033386D02*
Y033465D01*
X046321Y033917D02*
X0464D01*
X04636Y033878D02*
Y033957D01*
X04632Y034419D02*
X046399D01*
X046359Y03438D02*
Y034459D01*
X046319Y034921D02*
X046398D01*
X046358Y034882D02*
Y034961D01*
X046318Y035423D02*
X046397D01*
X046357Y035384D02*
Y035463D01*
X046322Y035915D02*
X046401D01*
X046361Y035876D02*
Y035955D01*
X046316Y036427D02*
X046395D01*
X046355Y036388D02*
Y036467D01*
X046325Y036909D02*
X046404D01*
X046364Y03687D02*
Y036949D01*
X052323Y026969D02*
X052402D01*
X052362Y026929D02*
Y027008D01*
X053071Y028346D02*
X05315D01*
X05311Y028307D02*
Y028386D01*
X052638Y026969D02*
X052717D01*
X052677Y026929D02*
Y027008D01*
X052795Y027205D02*
X052874D01*
X052835Y027165D02*
Y027244D01*
X053072Y027048D02*
X053151D01*
X053111Y027009D02*
Y027088D01*
X053072Y027481D02*
X053151D01*
X053111Y027442D02*
Y027521D01*
X053072Y027915D02*
X053151D01*
X053111Y027875D02*
Y027954D01*
X053071Y030079D02*
X05315D01*
X053111Y03004D02*
Y030119D01*
X053072Y029647D02*
X053151D01*
X053111Y029607D02*
Y029686D01*
X053072Y028781D02*
X053151D01*
X053111Y028741D02*
Y02882D01*
X053071Y030512D02*
X05315D01*
X053111Y030473D02*
Y030552D01*
X053071Y030945D02*
X05315D01*
X053111Y030906D02*
Y030985D01*
X053071Y031379D02*
X05315D01*
X053111Y031339D02*
Y031418D01*
X053071Y031812D02*
X05315D01*
X053111Y031772D02*
Y031851D01*
X053071Y032244D02*
X05315D01*
X05311Y032205D02*
Y032283D01*
X055226Y042913D02*
X055305D01*
X055266Y042874D02*
Y042953D01*
X055236Y043917D02*
X055315D01*
X055276Y043878D02*
Y043957D01*
X053346Y042402D02*
X053425D01*
X053386Y042362D02*
Y042441D01*
X055236Y042402D02*
X055315D01*
X055276Y042362D02*
Y042441D01*
X055248Y043425D02*
X055327D01*
X055287Y043386D02*
Y043465D01*
X055276Y04185D02*
X055354D01*
X055315Y041811D02*
Y04189D01*
X054134Y043425D02*
X054213D01*
X054173Y043386D02*
Y043465D01*
Y043898D02*
X054252D01*
X054213Y043858D02*
Y043937D01*
X054134Y041929D02*
X054213D01*
X054173Y04189D02*
Y041968D01*
X054134Y042402D02*
X054213D01*
X054173Y042362D02*
Y042441D01*
X054134Y042913D02*
X054213D01*
X054173Y042874D02*
Y042953D01*
X047205Y037539D02*
X047283D01*
X047244Y0375D02*
Y037579D01*
X052173Y035058D02*
X052251D01*
X052212Y035019D02*
Y035098D01*
X052173Y036448D02*
X052251D01*
X052212Y036408D02*
Y036487D01*
X052173Y037837D02*
X052251D01*
X052212Y037798D02*
Y037876D01*
X051152Y037539D02*
X051231D01*
X051191Y0375D02*
Y037579D01*
X04852Y037539D02*
X048599D01*
X04856Y0375D02*
Y037579D01*
X049836Y037539D02*
X049915D01*
X049876Y0375D02*
Y037579D01*
X030492Y03753D02*
X030571D01*
X030531Y03749D02*
Y037569D01*
X030492Y037766D02*
X030571D01*
X030531Y037726D02*
Y037805D01*
X030443Y036457D02*
X030522D01*
X030482Y036417D02*
Y036496D01*
X030866Y018268D02*
X031024D01*
X030945Y018189D02*
Y018346D01*
X030863Y018656D02*
X03102D01*
X030942Y018577D02*
Y018735D01*
X030863Y019065D02*
X03102D01*
X030942Y018986D02*
Y019144D01*
X03122Y018661D02*
X031378D01*
X031299Y018583D02*
Y01874D01*
X03122Y01907D02*
X031378D01*
X031299Y018991D02*
Y019149D01*
X030512Y018268D02*
X030669D01*
X030591Y018189D02*
Y018346D01*
X030512Y018661D02*
X030669D01*
X030591Y018583D02*
Y01874D01*
X037244Y026654D02*
X037402D01*
X037323Y026575D02*
Y026732D01*
X037244Y027441D02*
X037402D01*
X037323Y027362D02*
Y02752D01*
X037244Y027047D02*
X037402D01*
X037323Y026969D02*
Y027126D01*
X03685Y027441D02*
X037008D01*
X036929Y027362D02*
Y02752D01*
X03685Y026654D02*
X037008D01*
X036929Y026575D02*
Y026732D01*
X03685Y027047D02*
X037008D01*
X036929Y026969D02*
Y027126D01*
X033071Y024528D02*
X033228D01*
X03315Y024449D02*
Y024606D01*
X033504Y024528D02*
X033661D01*
X033583Y024449D02*
Y024606D01*
X033937Y024528D02*
X034094D01*
X034016Y024449D02*
Y024606D01*
X033268Y019055D02*
X033425D01*
X033346Y018976D02*
Y019134D01*
X032835Y019055D02*
X032992D01*
X032913Y018976D02*
Y019134D01*
X033701Y019055D02*
X033858D01*
X03378Y018976D02*
Y019134D01*
X037913Y019606D02*
X038071D01*
X037992Y019528D02*
Y019685D01*
X037913Y02D02*
X038071D01*
X037992Y019921D02*
Y020079D01*
X037382Y02125D02*
X037539D01*
X037461Y021171D02*
Y021329D01*
X03752Y021575D02*
X037677D01*
X037598Y021496D02*
Y021654D01*
X059016Y038701D02*
X059094D01*
X059055Y038661D02*
Y03874D01*
X058799Y042697D02*
X058878D01*
X058839Y042657D02*
Y042736D01*
X0594Y04248D02*
X059478D01*
X059439Y042441D02*
Y04252D01*
X059291Y035945D02*
X05937D01*
X059331Y035906D02*
Y035984D01*
X057756Y046535D02*
X057835D01*
X057795Y046496D02*
Y046575D01*
X057362Y046535D02*
X057441D01*
X057402Y046496D02*
Y046575D01*
X057008Y046535D02*
X057087D01*
X057047Y046496D02*
Y046575D01*
X060226Y035098D02*
X060305D01*
X060266Y035059D02*
Y035138D01*
X060118Y035689D02*
X060197D01*
X060157Y03565D02*
Y035728D01*
X060354Y035689D02*
X060433D01*
X060394Y03565D02*
Y035728D01*
X057274Y038396D02*
X057352D01*
X057313Y038356D02*
Y038435D01*
X057598Y039951D02*
X057677D01*
X057638Y039911D02*
Y03999D01*
X056811Y038652D02*
X05689D01*
X05685Y038612D02*
Y038691D01*
X056998Y038071D02*
X057077D01*
X057037Y038031D02*
Y03811D01*
X057874Y033081D02*
X057953D01*
X057913Y033041D02*
Y03312D01*
X059793Y035325D02*
X059872D01*
X059833Y035285D02*
Y035364D01*
X0594Y035325D02*
X059478D01*
X059439Y035285D02*
Y035364D01*
X061966Y035492D02*
X062045D01*
X062005Y035453D02*
Y035531D01*
X061535Y035502D02*
X061614D01*
X061575Y035463D02*
Y035541D01*
X060463Y037146D02*
X060541D01*
X060502Y037106D02*
Y037185D01*
X060463Y037539D02*
X060541D01*
X060502Y0375D02*
Y037579D01*
X061043Y037146D02*
X061122D01*
X061083Y037106D02*
Y037185D01*
X061043Y037539D02*
X061122D01*
X061083Y0375D02*
Y037579D01*
X059685Y038701D02*
X059764D01*
X059724Y038661D02*
Y03874D01*
X060039Y038701D02*
X060118D01*
X060079Y038661D02*
Y03874D01*
X059764Y03937D02*
X059843D01*
X059803Y039331D02*
Y039409D01*
X051732Y046772D02*
X051811D01*
X051772Y046732D02*
Y046811D01*
X050984D02*
X051063D01*
X051024Y046772D02*
Y04685D01*
X044921Y046929D02*
X045D01*
X044961Y04689D02*
Y046968D01*
X044173Y046929D02*
X044252D01*
X044213Y04689D02*
Y046968D01*
X039606Y047008D02*
X039685D01*
X039646Y046968D02*
Y047047D01*
X041457Y04752D02*
X041535D01*
X041496Y04748D02*
Y047559D01*
X054094Y047323D02*
X054173D01*
X054134Y047283D02*
Y047362D01*
X046811Y047402D02*
X04689D01*
X04685Y047362D02*
Y047441D01*
X032235Y025088D02*
X032393D01*
X032314Y025009D02*
Y025167D01*
X030748Y022382D02*
X030827D01*
X030787Y022343D02*
Y022421D01*
X032205Y019055D02*
X032362D01*
X032283Y018976D02*
Y019134D01*
X032205Y018661D02*
X032362D01*
X032283Y018583D02*
Y01874D01*
X032244Y024631D02*
X032402D01*
X032323Y024552D02*
Y024709D01*
X033066Y016924D02*
X033145D01*
X033105Y016885D02*
Y016964D01*
X030748Y022579D02*
X030827D01*
X030787Y022539D02*
Y022618D01*
X031878Y025083D02*
X032035D01*
X031956Y025004D02*
Y025161D01*
X031772Y019055D02*
X031929D01*
X03185Y018976D02*
Y019134D01*
X031886Y024625D02*
X032044D01*
X031965Y024547D02*
Y024704D01*
X032756Y016929D02*
X032835D01*
X032795Y01689D02*
Y016968D01*
X029646Y020689D02*
X029724D01*
X029685Y02065D02*
Y020728D01*
X035455Y036658D02*
X035534D01*
X035494Y036618D02*
Y036697D01*
X048494Y041122D02*
X048573D01*
X048533Y041083D02*
Y041161D01*
X047047Y041132D02*
X047126D01*
X047087Y041093D02*
Y041171D01*
X04748Y041132D02*
X047559D01*
X04752Y041093D02*
Y041171D01*
X047913Y041132D02*
X047992D01*
X047953Y041093D02*
Y041171D01*
X050079Y041132D02*
X050157D01*
X050118Y041093D02*
Y041171D01*
X049646Y041132D02*
X049724D01*
X049685Y041093D02*
Y041171D01*
X049213Y041132D02*
X049291D01*
X049252Y041093D02*
Y041171D01*
X04878Y041132D02*
X048858D01*
X048819Y041093D02*
Y041171D01*
X035061Y036658D02*
X03514D01*
X035101Y036618D02*
Y036697D01*
X034668Y036658D02*
X034746D01*
X034707Y036618D02*
Y036697D01*
X034274Y036658D02*
X034353D01*
X034313Y036618D02*
Y036697D01*
X03388Y036658D02*
X033959D01*
X033919Y036618D02*
Y036697D01*
X033486Y036658D02*
X033565D01*
X033526Y036618D02*
Y036697D01*
X032502Y036658D02*
X032581D01*
X032542Y036618D02*
Y036697D01*
X031768Y037396D02*
X031847D01*
X031807Y037357D02*
Y037435D01*
X031768Y03779D02*
X031847D01*
X031807Y03775D02*
Y037829D01*
X031768Y038183D02*
X031847D01*
X031807Y038144D02*
Y038223D01*
X031768Y038774D02*
X031847D01*
X031807Y038735D02*
Y038813D01*
X031768Y039168D02*
X031847D01*
X031807Y039128D02*
Y039207D01*
X035262Y036474D02*
X035341D01*
X035302Y036435D02*
Y036514D01*
X034869Y036474D02*
X034947D01*
X034908Y036435D02*
Y036514D01*
X034475Y036474D02*
X034554D01*
X034514Y036435D02*
Y036514D01*
X034081Y036474D02*
X03416D01*
X034121Y036435D02*
Y036514D01*
X03231Y036474D02*
X032388D01*
X032349Y036435D02*
Y036514D01*
X031585Y037195D02*
X031663D01*
X031624Y037156D02*
Y037234D01*
X031585Y037589D02*
X031663D01*
X031624Y037549D02*
Y037628D01*
X031585Y037982D02*
X031663D01*
X031624Y037943D02*
Y038022D01*
X031585Y038573D02*
X031663D01*
X031624Y038533D02*
Y038612D01*
X031585Y038967D02*
X031663D01*
X031624Y038927D02*
Y039006D01*
X031585Y03936D02*
X031663D01*
X031624Y039321D02*
Y0394D01*
X031742Y039557D02*
X031821D01*
X031781Y039518D02*
Y039596D01*
X04122Y04689D02*
X041299D01*
X04126Y04685D02*
Y046929D01*
X040748Y04689D02*
X040827D01*
X040787Y04685D02*
Y046929D01*
X045276Y046772D02*
X045354D01*
X045315Y046732D02*
Y046811D01*
X045709Y046772D02*
X045787D01*
X045748Y046732D02*
Y046811D01*
X046142Y046772D02*
X04622D01*
X046181Y046732D02*
Y046811D01*
X046575Y046772D02*
X046654D01*
X046614Y046732D02*
Y046811D01*
X040314Y047038D02*
X040393D01*
X040354Y046999D02*
Y047078D01*
X053858Y046693D02*
X053937D01*
X053898Y046654D02*
Y046732D01*
X053425Y046693D02*
X053504D01*
X053465Y046654D02*
Y046732D01*
X052992Y046693D02*
X053071D01*
X053032Y046654D02*
Y046732D01*
X052559Y046693D02*
X052638D01*
X052598Y046654D02*
Y046732D01*
X052126Y046693D02*
X052205D01*
X052165Y046654D02*
Y046732D01*
X031736Y041384D02*
X031894D01*
X031815Y041305D02*
Y041463D01*
X031766Y039957D02*
X031845D01*
X031805Y039918D02*
Y039996D01*
M02*
