G04*
G04 #@! TF.GenerationSoftware,Altium Limited,Altium Designer,18.1.6 (161)*
G04*
G04 Layer_Color=128*
%FSTAX24Y24*%
%MOIN*%
G70*
G01*
G75*
%ADD24R,0.0118X0.0118*%
%ADD25R,0.0118X0.0118*%
%ADD27R,0.0236X0.0197*%
%ADD29R,0.0157X0.0197*%
%ADD30R,0.0200X0.0140*%
%ADD32R,0.0197X0.0236*%
%ADD36R,0.0197X0.0157*%
%ADD47R,0.0197X0.0197*%
%ADD48R,0.0236X0.0197*%
%ADD64R,0.0197X0.0236*%
G04:AMPARAMS|DCode=67|XSize=47.6mil|YSize=22.8mil|CornerRadius=2.9mil|HoleSize=0mil|Usage=FLASHONLY|Rotation=0.000|XOffset=0mil|YOffset=0mil|HoleType=Round|Shape=RoundedRectangle|*
%AMROUNDEDRECTD67*
21,1,0.0476,0.0171,0,0,0.0*
21,1,0.0419,0.0228,0,0,0.0*
1,1,0.0057,0.0210,-0.0086*
1,1,0.0057,-0.0210,-0.0086*
1,1,0.0057,-0.0210,0.0086*
1,1,0.0057,0.0210,0.0086*
%
%ADD67ROUNDEDRECTD67*%
%ADD76R,0.0197X0.0197*%
%ADD77R,0.0512X0.0354*%
%ADD78R,0.0137X0.0297*%
%ADD205R,0.0500X0.0299*%
%ADD206R,0.0630X0.0276*%
%ADD207R,0.0630X0.0551*%
%ADD208R,0.0866X0.0551*%
%ADD209R,0.0551X0.0709*%
D24*
X056535Y028087D02*
D03*
Y027878D02*
D03*
X05747Y026343D02*
D03*
Y026135D02*
D03*
X057156Y02635D02*
D03*
Y026142D02*
D03*
X057785Y026343D02*
D03*
Y026135D02*
D03*
X056339Y032218D02*
D03*
Y032427D02*
D03*
X056102Y032218D02*
D03*
Y032427D02*
D03*
X043148Y021718D02*
D03*
Y021927D02*
D03*
X060394Y035339D02*
D03*
Y035547D02*
D03*
X060157Y035339D02*
D03*
Y035547D02*
D03*
X059705Y038902D02*
D03*
Y03911D02*
D03*
X043748Y020191D02*
D03*
Y019982D02*
D03*
X044063Y020184D02*
D03*
Y019975D02*
D03*
X044378Y020184D02*
D03*
Y019975D02*
D03*
X049193Y044148D02*
D03*
Y044356D02*
D03*
X048701Y042762D02*
D03*
Y042553D02*
D03*
X047517Y042802D02*
D03*
Y04301D02*
D03*
X048632Y044148D02*
D03*
Y044356D02*
D03*
X048898Y044148D02*
D03*
Y044356D02*
D03*
D25*
X04214Y028307D02*
D03*
X042348D02*
D03*
X04214Y028809D02*
D03*
X042348D02*
D03*
X04214Y029301D02*
D03*
X042348D02*
D03*
X04214Y029813D02*
D03*
X042348D02*
D03*
X04214Y030305D02*
D03*
X042348D02*
D03*
X04214Y030817D02*
D03*
X042348D02*
D03*
X04214Y031309D02*
D03*
X042348D02*
D03*
X04214Y031811D02*
D03*
X042348D02*
D03*
X046703Y028307D02*
D03*
X046911D02*
D03*
X046703Y028809D02*
D03*
X046911D02*
D03*
X046703Y029311D02*
D03*
X046911D02*
D03*
X046703Y029803D02*
D03*
X046911D02*
D03*
X046703Y030295D02*
D03*
X046911D02*
D03*
X046703Y030807D02*
D03*
X046911D02*
D03*
X046703Y031309D02*
D03*
X046911D02*
D03*
Y031801D02*
D03*
X046703D02*
D03*
X055445Y028642D02*
D03*
X055236D02*
D03*
X055445Y03003D02*
D03*
X055236D02*
D03*
X055445Y028927D02*
D03*
X055236D02*
D03*
X055445Y029754D02*
D03*
X055236D02*
D03*
X056896Y029892D02*
D03*
X056687D02*
D03*
X056896Y029626D02*
D03*
X056687D02*
D03*
X055445Y029478D02*
D03*
X055236D02*
D03*
X055445Y029203D02*
D03*
X055236D02*
D03*
X056551Y028346D02*
D03*
X056343D02*
D03*
X041829Y02387D02*
D03*
X042037D02*
D03*
X043488Y023467D02*
D03*
X04328D02*
D03*
X043488Y023732D02*
D03*
X04328D02*
D03*
X042935Y022217D02*
D03*
X043144D02*
D03*
X042037Y022768D02*
D03*
X041829D02*
D03*
Y022482D02*
D03*
X042037D02*
D03*
Y023319D02*
D03*
X041829D02*
D03*
X042037Y023043D02*
D03*
X041829D02*
D03*
X055486Y04185D02*
D03*
X055695D02*
D03*
X060713Y037539D02*
D03*
X060921D02*
D03*
X041829Y023594D02*
D03*
X042037D02*
D03*
X060921Y037146D02*
D03*
X060713D02*
D03*
X046911Y034921D02*
D03*
X046703D02*
D03*
X046911Y036909D02*
D03*
X046703D02*
D03*
X046911Y036427D02*
D03*
X046703D02*
D03*
X046911Y035915D02*
D03*
X046703D02*
D03*
X046911Y035423D02*
D03*
X046703D02*
D03*
X046911Y034419D02*
D03*
X046703D02*
D03*
X046911Y033917D02*
D03*
X046703D02*
D03*
X046911Y033425D02*
D03*
X046703D02*
D03*
X042348Y034931D02*
D03*
X04214D02*
D03*
X042348Y036929D02*
D03*
X04214D02*
D03*
X042348Y036427D02*
D03*
X04214D02*
D03*
X042348Y035925D02*
D03*
X04214D02*
D03*
X042348Y035423D02*
D03*
X04214D02*
D03*
X042348Y034429D02*
D03*
X04214D02*
D03*
X042348Y033927D02*
D03*
X04214D02*
D03*
X042348Y033415D02*
D03*
X04214D02*
D03*
X049136Y043839D02*
D03*
X048927D02*
D03*
X048094Y04251D02*
D03*
X048303D02*
D03*
X04897Y042057D02*
D03*
X049179D02*
D03*
X048094Y042244D02*
D03*
X048303D02*
D03*
X047978Y043159D02*
D03*
X04777D02*
D03*
D27*
X028661Y03215D02*
D03*
X029055D02*
D03*
X030059Y031142D02*
D03*
X029665D02*
D03*
X029055D02*
D03*
X028661D02*
D03*
X029665Y03215D02*
D03*
X030059D02*
D03*
X055974Y030846D02*
D03*
X055581D02*
D03*
X055984Y031339D02*
D03*
X055591D02*
D03*
X055974Y031831D02*
D03*
X055581D02*
D03*
X055974Y033287D02*
D03*
X055581D02*
D03*
X055974Y03376D02*
D03*
X055581D02*
D03*
X055974Y034232D02*
D03*
X055581D02*
D03*
X055974Y034705D02*
D03*
X055581D02*
D03*
D29*
X056919Y030207D02*
D03*
X056604D02*
D03*
X043512Y024047D02*
D03*
X043197D02*
D03*
X057067Y037795D02*
D03*
X057382D02*
D03*
D30*
X049744Y042795D02*
D03*
X050374D02*
D03*
X053465Y034803D02*
D03*
X052835D02*
D03*
X052835Y034331D02*
D03*
X053465D02*
D03*
X050374Y042323D02*
D03*
X049744D02*
D03*
Y041831D02*
D03*
X050374D02*
D03*
D32*
X047884Y043543D02*
D03*
X04749D02*
D03*
X056516Y029016D02*
D03*
X056122D02*
D03*
X042754Y022945D02*
D03*
X043148D02*
D03*
X055866Y042441D02*
D03*
X055472D02*
D03*
X053965Y042402D02*
D03*
X053571D02*
D03*
X053571Y041929D02*
D03*
X053965D02*
D03*
X055866Y043425D02*
D03*
X055472D02*
D03*
X053571Y042913D02*
D03*
X053965D02*
D03*
X053571Y043425D02*
D03*
X053965D02*
D03*
X053465Y033937D02*
D03*
X053071D02*
D03*
X048957Y043543D02*
D03*
X04935D02*
D03*
X047953Y042835D02*
D03*
X048346D02*
D03*
D36*
X055876Y028071D02*
D03*
Y027756D02*
D03*
X042469Y021596D02*
D03*
Y021911D02*
D03*
D47*
X046967Y016144D02*
D03*
Y016537D02*
D03*
X056339Y016142D02*
D03*
Y016535D02*
D03*
X062756Y02126D02*
D03*
Y021654D02*
D03*
X06315Y022244D02*
D03*
Y02185D02*
D03*
X05689Y022244D02*
D03*
Y02185D02*
D03*
X057283Y02122D02*
D03*
Y021614D02*
D03*
X05625Y027657D02*
D03*
Y028051D02*
D03*
X055748Y032244D02*
D03*
Y032638D02*
D03*
X042843Y021892D02*
D03*
Y021498D02*
D03*
X048071Y02122D02*
D03*
Y021614D02*
D03*
X053514Y02125D02*
D03*
Y021644D02*
D03*
X047677Y022244D02*
D03*
Y02185D02*
D03*
X053858Y022244D02*
D03*
Y02185D02*
D03*
X060089Y038937D02*
D03*
Y039331D02*
D03*
X047244Y042677D02*
D03*
Y043071D02*
D03*
X049567Y044045D02*
D03*
Y044439D02*
D03*
D48*
X042992Y041831D02*
D03*
Y041437D02*
D03*
Y043022D02*
D03*
Y042628D02*
D03*
Y043809D02*
D03*
Y043415D02*
D03*
X057037Y025285D02*
D03*
Y025679D02*
D03*
X05747Y025285D02*
D03*
Y025679D02*
D03*
X057904Y025285D02*
D03*
Y025679D02*
D03*
X04363Y01952D02*
D03*
Y019126D02*
D03*
X044063Y01952D02*
D03*
Y019126D02*
D03*
X044496Y01952D02*
D03*
Y019126D02*
D03*
X050118Y040551D02*
D03*
Y040945D02*
D03*
X049685Y040551D02*
D03*
Y040945D02*
D03*
X049252Y040551D02*
D03*
Y040945D02*
D03*
X048819Y040551D02*
D03*
Y040945D02*
D03*
X048386Y040551D02*
D03*
Y040945D02*
D03*
X047953Y040551D02*
D03*
Y040945D02*
D03*
X04752Y040551D02*
D03*
Y040945D02*
D03*
X047087Y040551D02*
D03*
Y040945D02*
D03*
X049882Y043209D02*
D03*
Y043602D02*
D03*
X05003Y044045D02*
D03*
Y044439D02*
D03*
X044488Y043406D02*
D03*
Y043012D02*
D03*
Y041831D02*
D03*
Y042224D02*
D03*
D64*
X052598Y046929D02*
D03*
Y047323D02*
D03*
X053465Y046929D02*
D03*
Y047323D02*
D03*
X053032Y046929D02*
D03*
Y047323D02*
D03*
X052165Y046929D02*
D03*
Y047323D02*
D03*
X053898Y046929D02*
D03*
Y047323D02*
D03*
X046614Y047008D02*
D03*
Y047402D02*
D03*
X046181Y047008D02*
D03*
Y047402D02*
D03*
X045748Y047008D02*
D03*
Y047402D02*
D03*
X045315Y047008D02*
D03*
Y047402D02*
D03*
X04126Y047126D02*
D03*
Y04752D02*
D03*
X040787Y047126D02*
D03*
Y04752D02*
D03*
D67*
X054055Y033287D02*
D03*
Y032913D02*
D03*
Y032539D02*
D03*
X053067Y033287D02*
D03*
Y032913D02*
D03*
Y032539D02*
D03*
D76*
X056122Y028632D02*
D03*
X056516D02*
D03*
X043148Y022531D02*
D03*
X042754D02*
D03*
D77*
X052283Y032618D02*
D03*
Y033366D02*
D03*
X054921Y033051D02*
D03*
Y032303D02*
D03*
D78*
X03315Y018042D02*
D03*
X032756D02*
D03*
Y017233D02*
D03*
X03315D02*
D03*
D205*
X043008Y031809D02*
D03*
Y031309D02*
D03*
Y030809D02*
D03*
Y030309D02*
D03*
Y029809D02*
D03*
Y029309D02*
D03*
Y028809D02*
D03*
Y028309D02*
D03*
X046008D02*
D03*
Y028809D02*
D03*
Y029309D02*
D03*
Y029809D02*
D03*
Y030309D02*
D03*
Y030809D02*
D03*
Y031309D02*
D03*
Y031809D02*
D03*
X046008Y036927D02*
D03*
Y036427D02*
D03*
Y035927D02*
D03*
Y035427D02*
D03*
Y034927D02*
D03*
Y034427D02*
D03*
Y033927D02*
D03*
Y033427D02*
D03*
X043008D02*
D03*
Y033927D02*
D03*
Y034427D02*
D03*
Y034927D02*
D03*
Y035427D02*
D03*
Y035927D02*
D03*
Y036427D02*
D03*
Y036927D02*
D03*
D206*
X057323Y031024D02*
D03*
Y031457D02*
D03*
Y03189D02*
D03*
Y032323D02*
D03*
Y032756D02*
D03*
Y033189D02*
D03*
Y033622D02*
D03*
Y034055D02*
D03*
Y034488D02*
D03*
D207*
X057559Y035D02*
D03*
D208*
X061299D02*
D03*
Y028819D02*
D03*
D209*
X05752Y029173D02*
D03*
M02*
