G04*
G04 #@! TF.GenerationSoftware,Altium Limited,Altium Designer,18.1.6 (161)*
G04*
G04 Layer_Physical_Order=3*
G04 Layer_Color=36540*
%FSTAX24Y24*%
%MOIN*%
G70*
G01*
G75*
%ADD13C,0.0157*%
%ADD17C,0.0118*%
%ADD176C,0.0048*%
%ADD177C,0.0033*%
%ADD183C,0.0750*%
%ADD189C,0.0472*%
%ADD190C,0.0610*%
%ADD202C,0.0315*%
%ADD203C,0.0157*%
%ADD204C,0.0236*%
G36*
X04Y045866D02*
Y045154D01*
X03998Y045106D01*
Y045051D01*
X04Y045004D01*
Y044882D01*
X039803Y044685D01*
Y042861D01*
X039784Y042853D01*
X039745Y042814D01*
X039724Y042764D01*
Y042709D01*
X039745Y042658D01*
X039784Y042619D01*
X039803Y042612D01*
Y040197D01*
X039567Y039961D01*
X039331D01*
X039252Y040039D01*
Y040522D01*
X039302Y040543D01*
X039312Y040533D01*
X039362Y040512D01*
X039417D01*
X039468Y040533D01*
X039507Y040572D01*
X039528Y040622D01*
Y040677D01*
X039507Y040728D01*
X039468Y040766D01*
X039417Y040787D01*
X039362D01*
X039312Y040766D01*
X039302Y040757D01*
X039252Y040777D01*
Y042097D01*
X039302Y042117D01*
X039312Y042108D01*
X039362Y042087D01*
X039417D01*
X039468Y042108D01*
X039507Y042146D01*
X039528Y042197D01*
Y042252D01*
X039507Y042302D01*
X039468Y042341D01*
X039417Y042362D01*
X039362D01*
X039312Y042341D01*
X039302Y042331D01*
X039252Y042352D01*
Y043603D01*
X039302Y043623D01*
X039322Y043604D01*
X039372Y043583D01*
X039427D01*
X039478Y043604D01*
X039516Y043642D01*
X039537Y043693D01*
Y043748D01*
X039516Y043799D01*
X039478Y043837D01*
X039427Y043858D01*
X039372D01*
X039322Y043837D01*
X039302Y043818D01*
X039252Y043838D01*
Y044724D01*
X039508Y04498D01*
Y045866D01*
X039606Y045965D01*
X039902D01*
X04Y045866D01*
D02*
G37*
G36*
X050433Y04439D02*
Y04124D01*
X050268Y041075D01*
X050226Y041103D01*
X050228Y04111D01*
Y041154D01*
X050212Y041194D01*
X050181Y041225D01*
X05014Y041242D01*
X050096D01*
X050056Y041225D01*
X050025Y041194D01*
X050008Y041154D01*
Y04111D01*
X050025Y041069D01*
X050056Y041038D01*
X050096Y041022D01*
X05014D01*
X050147Y041024D01*
X050175Y040982D01*
X047726Y038533D01*
X0477Y038538D01*
X047669Y038569D01*
X047629Y038586D01*
X047585D01*
X047544Y038569D01*
X047513Y038538D01*
X047497Y038498D01*
Y038454D01*
X047513Y038413D01*
X047524Y038402D01*
X047531Y038338D01*
X045Y035807D01*
Y032874D01*
X044311Y032185D01*
X043679D01*
X043651Y032213D01*
X0436Y032234D01*
X043545D01*
X043495Y032213D01*
X043467Y032185D01*
X038524Y032185D01*
X03813Y031791D01*
Y031102D01*
X038031Y031004D01*
X037638D01*
X037539Y031102D01*
Y032224D01*
X038386Y033071D01*
X043346D01*
X043937Y033661D01*
X043937Y037303D01*
X045Y038366D01*
X04503D01*
X045071Y038382D01*
X045102Y038413D01*
X045119Y038454D01*
Y038485D01*
X047796Y041162D01*
X047843Y041138D01*
Y04111D01*
X047859Y041069D01*
X04789Y041038D01*
X047931Y041022D01*
X047975D01*
X048015Y041038D01*
X048046Y041069D01*
X048063Y04111D01*
Y041154D01*
X048046Y041194D01*
X048015Y041225D01*
X047975Y041242D01*
X047947D01*
X047923Y041289D01*
X048041Y041407D01*
X04806Y041404D01*
X048095Y04139D01*
X048112Y041349D01*
X04815Y04131D01*
X048201Y041289D01*
X048256D01*
X048306Y04131D01*
X048345Y041349D01*
X048366Y0414D01*
Y041455D01*
X048345Y041505D01*
X048306Y041544D01*
X048266Y041561D01*
X048252Y041595D01*
X048249Y041615D01*
X048297Y041663D01*
Y042357D01*
X048319Y042372D01*
X048374D01*
X048425Y042393D01*
X048463Y042432D01*
X048484Y042482D01*
Y042537D01*
X048463Y042588D01*
X048425Y042627D01*
X048374Y042648D01*
X048319D01*
X048297Y042662D01*
Y042923D01*
X048305D01*
X048356Y042944D01*
X048394Y042983D01*
X048415Y043034D01*
Y043088D01*
X048394Y043139D01*
X048356Y043178D01*
X048305Y043199D01*
X048297D01*
Y043559D01*
X048347Y043569D01*
X048359Y043541D01*
X04839Y04351D01*
X04843Y043493D01*
X048474D01*
X048515Y04351D01*
X048546Y043541D01*
X048563Y043581D01*
Y043625D01*
X048546Y043666D01*
X048515Y043697D01*
X048474Y043714D01*
X04843D01*
X04839Y043697D01*
X048359Y043666D01*
X048347Y043638D01*
X048297Y043648D01*
Y044124D01*
X048334D01*
X048385Y044145D01*
X048424Y044184D01*
X048445Y044234D01*
Y044289D01*
X048424Y04434D01*
X048385Y044379D01*
X048334Y0444D01*
X048297D01*
Y044685D01*
X048494Y044882D01*
X049941D01*
X050433Y04439D01*
D02*
G37*
G36*
X031634Y040551D02*
Y040453D01*
X031437Y040256D01*
X030846D01*
X030354Y039764D01*
Y037303D01*
X031634Y036024D01*
X032569D01*
Y036289D01*
X032608Y036329D01*
X032717D01*
X032746Y036299D01*
Y036268D01*
Y036213D01*
Y036024D01*
X035197D01*
X03563Y036457D01*
Y036625D01*
X035632Y03663D01*
Y036685D01*
X03563Y03669D01*
Y037008D01*
X036102Y03748D01*
X036654Y03748D01*
X036965Y037791D01*
Y037853D01*
X036973Y037874D01*
Y038032D01*
X036972Y038036D01*
X036973Y03804D01*
X036965Y038054D01*
Y038304D01*
X036973Y038318D01*
X036972Y038322D01*
X036973Y038327D01*
Y038979D01*
X037002Y039006D01*
X037018Y039015D01*
X03704Y039006D01*
X037094D01*
X037145Y039027D01*
X037184Y039066D01*
X037205Y039116D01*
Y03916D01*
X037232Y039186D01*
X037249Y039196D01*
X037256Y039193D01*
X037311D01*
X037362Y039214D01*
X0374Y039253D01*
X037421Y039303D01*
Y039358D01*
X0374Y039409D01*
X037362Y039448D01*
X037311Y039469D01*
X037265D01*
X036997Y039737D01*
X036999Y039762D01*
X03703Y039803D01*
X037085D01*
X037135Y039824D01*
X037174Y039863D01*
X037195Y039914D01*
Y039968D01*
X037174Y040019D01*
X037135Y040058D01*
X037085Y040079D01*
X03703D01*
X037015Y040073D01*
X036965Y040106D01*
Y04025D01*
X03701Y040284D01*
X03703Y040276D01*
X037084D01*
X037135Y040297D01*
X037174Y040335D01*
X037195Y040386D01*
Y040441D01*
X037203Y040453D01*
X037539D01*
X037638Y040354D01*
Y037459D01*
X037345Y037165D01*
X036614D01*
X036299Y03685D01*
Y03626D01*
X035768Y035728D01*
X031437D01*
X030059Y037106D01*
Y039862D01*
X030689Y040492D01*
X030736D01*
X030787Y040513D01*
X030807Y040533D01*
X030827Y040513D01*
X030878Y040492D01*
X030933D01*
X030984Y040513D01*
X031022Y040552D01*
X031043Y040603D01*
Y04065D01*
X031535D01*
X031634Y040551D01*
D02*
G37*
G36*
X036766Y040409D02*
Y040291D01*
X036717Y040242D01*
X036636D01*
X036604Y040274D01*
X036553Y040295D01*
X036498D01*
X036448Y040274D01*
X036409Y040236D01*
X036388Y040185D01*
Y04013D01*
X036409Y040079D01*
X036416Y040072D01*
X036446Y040039D01*
X036416Y040007D01*
X036409Y039999D01*
X036388Y039949D01*
Y039894D01*
X036409Y039843D01*
X036448Y039804D01*
X036498Y039783D01*
X036553D01*
X036604Y039804D01*
X036636Y039837D01*
X036658D01*
X036909Y039585D01*
Y039296D01*
X036888Y039281D01*
X036833D01*
X036782Y039261D01*
X036743Y039222D01*
X036722Y039171D01*
Y039116D01*
X036743Y039066D01*
X036782Y039027D01*
X036833Y039006D01*
X036888D01*
X036909Y038991D01*
Y038327D01*
X036894Y038315D01*
X036859Y0383D01*
X036819Y038317D01*
X036764D01*
X036713Y038296D01*
X036675Y038257D01*
X036654Y038207D01*
Y038152D01*
X036675Y038101D01*
X036713Y038062D01*
X036764Y038041D01*
X036819D01*
X036859Y038058D01*
X036894Y038044D01*
X036909Y038032D01*
Y037874D01*
X036762Y037726D01*
X034528D01*
X034026Y037224D01*
Y036812D01*
X033976Y036784D01*
X033947Y036796D01*
X033892D01*
X033841Y036775D01*
X033803Y036736D01*
X033782Y036685D01*
Y03663D01*
X033803Y03658D01*
X033841Y036541D01*
X033892Y03652D01*
X033937D01*
X033953Y036514D01*
X033983Y036481D01*
Y036447D01*
X034004Y036396D01*
X034026Y036375D01*
Y03627D01*
X033987Y036231D01*
X033937Y036252D01*
Y036277D01*
X033916Y036328D01*
X033877Y036367D01*
X033827Y036388D01*
X033772D01*
X033721Y036367D01*
X033682Y036328D01*
X033661Y036277D01*
Y036223D01*
X033678Y036182D01*
X033664Y036148D01*
X033652Y036132D01*
X033553D01*
X033415Y03627D01*
Y036381D01*
X033431Y036387D01*
X03347Y036426D01*
X033491Y036477D01*
Y036515D01*
X033498Y03652D01*
X033553D01*
X033604Y036541D01*
X033643Y03658D01*
X033664Y03663D01*
Y036685D01*
X033643Y036736D01*
X033604Y036775D01*
X033553Y036796D01*
X033498D01*
X033465Y036782D01*
X033415Y036808D01*
Y037185D01*
X033199Y037402D01*
X032323D01*
X031945Y037779D01*
Y037817D01*
X031929Y037856D01*
Y038117D01*
X031945Y038156D01*
Y038211D01*
X031929Y038249D01*
X031929Y038708D01*
X031945Y038746D01*
Y038801D01*
X031929Y03884D01*
Y039055D01*
X031909Y039075D01*
X031924Y03909D01*
X031945Y03914D01*
Y039195D01*
X031924Y039246D01*
X031885Y039284D01*
X031835Y039305D01*
X031805D01*
X031772Y039327D01*
X031762Y039352D01*
Y039388D01*
X031803Y039419D01*
X031809D01*
X03186Y03944D01*
X031898Y039479D01*
X031919Y03953D01*
Y039585D01*
X031898Y039635D01*
X03186Y039674D01*
X031809Y039695D01*
X031754D01*
X031703Y039674D01*
X031665Y039635D01*
X031644Y039585D01*
Y03953D01*
X031603Y039498D01*
X031597D01*
X031546Y039477D01*
X031507Y039438D01*
X031486Y039388D01*
Y039333D01*
X031495Y039312D01*
X031462Y039262D01*
X030856D01*
X03062Y039498D01*
Y039754D01*
X030778Y039911D01*
X031191D01*
X031841Y040561D01*
X036614D01*
X036766Y040409D01*
D02*
G37*
G36*
X05624Y046555D02*
Y039803D01*
X057205D01*
X057244Y039764D01*
Y039606D01*
X057205Y039567D01*
X05624D01*
Y038091D01*
X054189Y036039D01*
X05415Y036066D01*
X054171Y036117D01*
Y036171D01*
X05415Y036222D01*
X054111Y036261D01*
X054061Y036282D01*
X054006D01*
X053955Y036261D01*
X053916Y036222D01*
X053895Y036171D01*
Y036117D01*
X053916Y036066D01*
X053955Y036027D01*
X054006Y036006D01*
X054061D01*
X054111Y036027D01*
X054138Y035988D01*
X053993Y035844D01*
X053955Y035828D01*
X053916Y035789D01*
X053901Y035751D01*
X052617Y034467D01*
X05257Y034448D01*
X052531Y034409D01*
X052511Y034362D01*
X051654Y033504D01*
X048504D01*
X047022Y032022D01*
X046988Y032056D01*
X046937Y032077D01*
X046882D01*
X046831Y032056D01*
X046793Y032017D01*
X046772Y031966D01*
Y031912D01*
X046793Y031861D01*
X046827Y031827D01*
X046428Y031428D01*
X046383Y031447D01*
X046328D01*
X046277Y031426D01*
X046238Y031387D01*
X046218Y031336D01*
Y031282D01*
X046236Y031236D01*
X044585Y029585D01*
X044535Y029606D01*
X04448D01*
X04443Y029585D01*
X044391Y029547D01*
X04437Y029496D01*
Y029441D01*
X044391Y029391D01*
X041476Y026476D01*
X033492D01*
X033543Y026497D01*
X033581Y026536D01*
X033602Y026587D01*
Y026642D01*
X033581Y026692D01*
X033543Y026731D01*
X033492Y026752D01*
X033437D01*
X033387Y026731D01*
X033348Y026692D01*
X033327Y026642D01*
Y026587D01*
X033348Y026536D01*
X033387Y026497D01*
X033437Y026476D01*
X029961D01*
X028513Y027924D01*
X028542Y027953D01*
X028563Y028004D01*
Y028059D01*
X028542Y02811D01*
X028503Y028148D01*
X028453Y028169D01*
X028398D01*
X028347Y028148D01*
X028318Y028119D01*
X028287Y02815D01*
Y034843D01*
X028681Y035236D01*
X029764D01*
Y035827D01*
X029862Y035925D01*
X030256D01*
X030354Y035827D01*
Y035236D01*
X035472D01*
X036555Y036319D01*
Y036909D01*
X036654Y037008D01*
X037047D01*
X037146Y036909D01*
Y029537D01*
X042372D01*
X043347Y030513D01*
X043383Y030477D01*
X043434Y030456D01*
X043489D01*
X043539Y030477D01*
X043578Y030516D01*
X043599Y030566D01*
Y030621D01*
X043578Y030672D01*
X043542Y030708D01*
X046191Y033357D01*
X046239Y033347D01*
X046278Y033308D01*
X046329Y033287D01*
X046384D01*
X046434Y033308D01*
X046473Y033347D01*
X046494Y033398D01*
Y033453D01*
X046473Y033503D01*
X046434Y033542D01*
X046425Y03359D01*
X046693Y033858D01*
Y035827D01*
X048376Y03751D01*
X04843Y037493D01*
X048443Y037461D01*
X048482Y037423D01*
X048532Y037402D01*
X048587D01*
X048638Y037423D01*
X048677Y037461D01*
X048698Y037512D01*
Y037567D01*
X048677Y037617D01*
X048638Y037656D01*
X048606Y037669D01*
X04859Y037723D01*
X05122Y040354D01*
Y044685D01*
X050433Y045472D01*
X041476D01*
X040787Y046161D01*
X039213D01*
X039114Y04626D01*
Y047244D01*
X039606Y047736D01*
X055059D01*
X05624Y046555D01*
D02*
G37*
G36*
X05998Y03937D02*
Y038797D01*
X059962Y038779D01*
X059941Y038728D01*
Y038673D01*
X059962Y038623D01*
X05998Y038604D01*
Y038353D01*
X059961Y038345D01*
X059923Y038306D01*
X059902Y038256D01*
Y038201D01*
X059923Y03815D01*
X059961Y038112D01*
X05998Y038104D01*
Y037959D01*
X059961Y037951D01*
X059923Y037913D01*
X059902Y037862D01*
Y037807D01*
X059923Y037757D01*
X059961Y037718D01*
X05998Y03771D01*
Y037566D01*
X059961Y037558D01*
X059923Y037519D01*
X059902Y037468D01*
Y037414D01*
X059923Y037363D01*
X059961Y037324D01*
X05998Y037316D01*
Y037172D01*
X059961Y037164D01*
X059923Y037125D01*
X059902Y037075D01*
Y03702D01*
X059923Y036969D01*
X059961Y03693D01*
X05998Y036923D01*
Y035236D01*
X059882Y035138D01*
X059468D01*
X059466Y035187D01*
X059517Y035208D01*
X059556Y035247D01*
X059577Y035297D01*
Y035352D01*
X059556Y035403D01*
X059517Y035442D01*
X059466Y035463D01*
X059412D01*
X059361Y035442D01*
X059322Y035403D01*
X059301Y035352D01*
Y035297D01*
X059322Y035247D01*
X059361Y035208D01*
X059412Y035187D01*
X05941Y035138D01*
X059291D01*
X059094Y035335D01*
Y036024D01*
X058307Y036811D01*
Y038287D01*
X05811Y038484D01*
X057419D01*
X057391Y038512D01*
X05734Y038533D01*
X057286D01*
X057235Y038512D01*
X057207Y038484D01*
X056831D01*
X056732Y038583D01*
X056732Y039075D01*
X057146Y039488D01*
X059862D01*
X05998Y03937D01*
D02*
G37*
G36*
X054783Y031161D02*
Y031033D01*
X054754Y031004D01*
X054439D01*
X054282Y030846D01*
X054183D01*
X054134Y030896D01*
Y031063D01*
X054272Y031201D01*
X054744D01*
X054783Y031161D01*
D02*
G37*
G36*
X059685Y030315D02*
Y027165D01*
X059488Y026969D01*
X059094Y026969D01*
X058898Y027165D01*
Y030315D01*
X059094Y030512D01*
X059488D01*
X059685Y030315D01*
D02*
G37*
G36*
X046189Y024041D02*
Y020892D01*
X045992Y020695D01*
X045873Y020695D01*
X045855Y020738D01*
X045816Y020776D01*
X045766Y020797D01*
X045711D01*
X04566Y020776D01*
X045648Y020764D01*
X045615Y020742D01*
X045582Y020764D01*
X04557Y020776D01*
X04552Y020797D01*
X045496D01*
X045402Y020892D01*
Y024041D01*
X045598Y024238D01*
X04566D01*
X045679Y02423D01*
X045734D01*
X045753Y024238D01*
X045992D01*
X046189Y024041D01*
D02*
G37*
G36*
X043327Y024291D02*
Y022268D01*
X043317Y022264D01*
X043278Y022225D01*
X043257Y022174D01*
Y022119D01*
X043278Y022069D01*
X043286Y022061D01*
X043308Y022036D01*
X043269Y021997D01*
X043248Y021947D01*
Y021892D01*
X043269Y021841D01*
X043308Y021802D01*
X043327Y021795D01*
Y021638D01*
X043277Y021611D01*
X043246Y021624D01*
X043191D01*
X04314Y021603D01*
X043125Y021588D01*
X04311Y021603D01*
X043059Y021624D01*
X043004D01*
X042953Y021603D01*
X042915Y021564D01*
X042894Y021514D01*
Y021459D01*
X042915Y021408D01*
X042953Y021369D01*
X043004Y021348D01*
X043059D01*
X04311Y021369D01*
X043125Y021385D01*
X04314Y021369D01*
X043191Y021348D01*
X043201Y021333D01*
X043193Y021313D01*
Y021258D01*
X043214Y021207D01*
X043253Y021169D01*
X043303Y021148D01*
X043327D01*
Y020846D01*
X043672Y020501D01*
X043661Y020441D01*
X043633Y020413D01*
X043612Y020362D01*
Y020307D01*
X043633Y020257D01*
X043672Y020218D01*
X043723Y020197D01*
X043777D01*
X043828Y020218D01*
X043867Y020257D01*
X043881Y020291D01*
X043933Y020286D01*
X043948Y020249D01*
X043987Y020211D01*
X044038Y02019D01*
X044092D01*
X044143Y020211D01*
X044182Y020249D01*
X044196Y020284D01*
X044249D01*
X044263Y020249D01*
X044302Y020211D01*
X044353Y02019D01*
X044407D01*
X044458Y020211D01*
X044497Y020249D01*
X044518Y0203D01*
Y020327D01*
X045145D01*
X045217Y020256D01*
X045217Y02001D01*
X045108Y019902D01*
X044307D01*
X04426Y019921D01*
X044205D01*
X044157Y019902D01*
X043679D01*
X043661Y01992D01*
X04361Y019941D01*
X043555D01*
X043533Y019932D01*
X0425Y020965D01*
Y022147D01*
X04255Y022168D01*
X0426Y022147D01*
X042655D01*
X042706Y022168D01*
X042708Y02217D01*
X042733Y022145D01*
X042784Y022124D01*
X042838D01*
X042889Y022145D01*
X042928Y022184D01*
X042949Y022235D01*
Y02229D01*
X042928Y02234D01*
X042889Y022379D01*
X042838Y0224D01*
X042784D01*
X042733Y022379D01*
X042731Y022377D01*
X042706Y022402D01*
X042655Y022423D01*
X0426D01*
X04255Y022402D01*
X0425Y022423D01*
Y023819D01*
X043022Y024341D01*
X043278D01*
X043327Y024291D01*
D02*
G37*
G36*
X032677Y025D02*
X032677Y018661D01*
X03252Y018504D01*
X031693D01*
X031575Y018622D01*
X031575Y024961D01*
X03187Y025256D01*
X032421D01*
X032677Y025D01*
D02*
G37*
%LPC*%
G36*
X049594Y044183D02*
X04954D01*
X049489Y044162D01*
X04945Y044123D01*
X049429Y044073D01*
Y044018D01*
X04945Y043967D01*
X049489Y043928D01*
X04954Y043907D01*
X049594D01*
X049645Y043928D01*
X049684Y043967D01*
X049705Y044018D01*
Y044073D01*
X049684Y044123D01*
X049645Y044162D01*
X049594Y044183D01*
D02*
G37*
G36*
X050061Y043969D02*
X050017D01*
X049977Y043952D01*
X049946Y043921D01*
X049929Y04388D01*
Y043836D01*
X049946Y043796D01*
X049977Y043765D01*
X050017Y043748D01*
X050061D01*
X050102Y043765D01*
X050133Y043796D01*
X05015Y043836D01*
Y04388D01*
X050133Y043921D01*
X050102Y043952D01*
X050061Y043969D01*
D02*
G37*
G36*
X049707Y043693D02*
X049663D01*
X049623Y043676D01*
X049592Y043645D01*
X049575Y043605D01*
Y043561D01*
X049577Y043555D01*
X049558Y04353D01*
X04954Y043514D01*
X04949D01*
X04944Y043493D01*
X049401Y043454D01*
X04938Y043403D01*
Y043349D01*
X049401Y043298D01*
X04944Y043259D01*
X04949Y043238D01*
X049545D01*
X049596Y043259D01*
X049635Y043298D01*
X049656Y043349D01*
Y043403D01*
X049646Y043426D01*
X04965Y043436D01*
X049681Y043472D01*
X049707D01*
X049747Y043489D01*
X049778Y04352D01*
X049795Y043561D01*
Y043605D01*
X049778Y043645D01*
X049747Y043676D01*
X049707Y043693D01*
D02*
G37*
G36*
X048723Y043378D02*
X048679D01*
X048638Y043361D01*
X048607Y04333D01*
X048591Y04329D01*
Y043246D01*
X048607Y043205D01*
X048638Y043174D01*
X048679Y043157D01*
X048723D01*
X048763Y043174D01*
X048794Y043205D01*
X048811Y043246D01*
Y04329D01*
X048794Y04333D01*
X048763Y043361D01*
X048723Y043378D01*
D02*
G37*
G36*
X05014Y043299D02*
X050096D01*
X050056Y043282D01*
X050025Y043251D01*
X050008Y043211D01*
Y043167D01*
X050025Y043127D01*
X050056Y043096D01*
X050096Y043079D01*
X05014D01*
X050181Y043096D01*
X050212Y043127D01*
X050228Y043167D01*
Y043211D01*
X050212Y043251D01*
X050181Y043282D01*
X05014Y043299D01*
D02*
G37*
G36*
X048728Y043041D02*
X048673D01*
X048623Y04302D01*
X048584Y042982D01*
X048563Y042931D01*
Y042876D01*
X048584Y042825D01*
X048623Y042787D01*
X048673Y042766D01*
X048728D01*
X048779Y042787D01*
X048818Y042825D01*
X048839Y042876D01*
Y042931D01*
X048818Y042982D01*
X048779Y04302D01*
X048728Y043041D01*
D02*
G37*
G36*
Y042598D02*
X048673D01*
X048623Y042577D01*
X048584Y042539D01*
X048563Y042488D01*
Y042433D01*
X048584Y042383D01*
X048623Y042344D01*
X048673Y042323D01*
X048728D01*
X048779Y042344D01*
X048818Y042383D01*
X048839Y042433D01*
Y042488D01*
X048818Y042539D01*
X048779Y042577D01*
X048728Y042598D01*
D02*
G37*
G36*
X04855Y042302D02*
X048495D01*
X048445Y042282D01*
X048406Y042243D01*
X048385Y042192D01*
Y042137D01*
X048406Y042087D01*
X048445Y042048D01*
X048495Y042027D01*
X04855D01*
X048601Y042048D01*
X04864Y042087D01*
X048661Y042137D01*
Y042192D01*
X04864Y042243D01*
X048601Y042282D01*
X04855Y042302D01*
D02*
G37*
G36*
X04953Y042167D02*
X049486D01*
X049445Y042151D01*
X049414Y04212D01*
X049398Y042079D01*
Y042035D01*
X049414Y041995D01*
X049445Y041964D01*
X049486Y041947D01*
X04953D01*
X04957Y041964D01*
X049601Y041995D01*
X049618Y042035D01*
Y042079D01*
X049601Y04212D01*
X04957Y042151D01*
X04953Y042167D01*
D02*
G37*
G36*
X049707Y041242D02*
X049663D01*
X049623Y041225D01*
X049592Y041194D01*
X049575Y041154D01*
Y04111D01*
X049592Y041069D01*
X049623Y041038D01*
X049663Y041022D01*
X049707D01*
X049747Y041038D01*
X049778Y041069D01*
X049795Y04111D01*
Y041154D01*
X049778Y041194D01*
X049747Y041225D01*
X049707Y041242D01*
D02*
G37*
G36*
X049274D02*
X04923D01*
X04919Y041225D01*
X049159Y041194D01*
X049142Y041154D01*
Y04111D01*
X049159Y041069D01*
X04919Y041038D01*
X04923Y041022D01*
X049274D01*
X049314Y041038D01*
X049345Y041069D01*
X049362Y04111D01*
Y041154D01*
X049345Y041194D01*
X049314Y041225D01*
X049274Y041242D01*
D02*
G37*
G36*
X048841D02*
X048797D01*
X048756Y041225D01*
X048725Y041194D01*
X048709Y041154D01*
Y04111D01*
X048725Y041069D01*
X048756Y041038D01*
X048797Y041022D01*
X048841D01*
X048881Y041038D01*
X048912Y041069D01*
X048929Y04111D01*
Y041154D01*
X048912Y041194D01*
X048881Y041225D01*
X048841Y041242D01*
D02*
G37*
G36*
X048555Y041232D02*
X048512D01*
X048471Y041216D01*
X04844Y041184D01*
X048423Y041144D01*
Y0411D01*
X04844Y04106D01*
X048471Y041029D01*
X048512Y041012D01*
X048555D01*
X048596Y041029D01*
X048627Y04106D01*
X048644Y0411D01*
Y041144D01*
X048627Y041184D01*
X048596Y041216D01*
X048555Y041232D01*
D02*
G37*
G36*
X047196Y038586D02*
X047152D01*
X047111Y038569D01*
X04708Y038538D01*
X047063Y038498D01*
Y038454D01*
X04708Y038413D01*
X047111Y038382D01*
X047152Y038366D01*
X047196D01*
X047236Y038382D01*
X047267Y038413D01*
X047284Y038454D01*
Y038498D01*
X047267Y038538D01*
X047236Y038569D01*
X047196Y038586D01*
D02*
G37*
G36*
X046763D02*
X046719D01*
X046678Y038569D01*
X046647Y038538D01*
X04663Y038498D01*
Y038454D01*
X046647Y038413D01*
X046678Y038382D01*
X046719Y038366D01*
X046763D01*
X046803Y038382D01*
X046834Y038413D01*
X046851Y038454D01*
Y038498D01*
X046834Y038538D01*
X046803Y038569D01*
X046763Y038586D01*
D02*
G37*
G36*
X046329D02*
X046286D01*
X046245Y038569D01*
X046214Y038538D01*
X046197Y038498D01*
Y038454D01*
X046214Y038413D01*
X046245Y038382D01*
X046286Y038366D01*
X046329D01*
X04637Y038382D01*
X046401Y038413D01*
X046418Y038454D01*
Y038498D01*
X046401Y038538D01*
X04637Y038569D01*
X046329Y038586D01*
D02*
G37*
G36*
X045896D02*
X045853D01*
X045812Y038569D01*
X045781Y038538D01*
X045764Y038498D01*
Y038454D01*
X045781Y038413D01*
X045812Y038382D01*
X045853Y038366D01*
X045896D01*
X045937Y038382D01*
X045968Y038413D01*
X045985Y038454D01*
Y038498D01*
X045968Y038538D01*
X045937Y038569D01*
X045896Y038586D01*
D02*
G37*
G36*
X045463D02*
X045419D01*
X045379Y038569D01*
X045348Y038538D01*
X045331Y038498D01*
Y038454D01*
X045348Y038413D01*
X045379Y038382D01*
X045419Y038366D01*
X045463D01*
X045504Y038382D01*
X045535Y038413D01*
X045552Y038454D01*
Y038498D01*
X045535Y038538D01*
X045504Y038569D01*
X045463Y038586D01*
D02*
G37*
G36*
X04595Y03765D02*
X045906D01*
X045865Y037633D01*
X045834Y037602D01*
X045818Y037562D01*
Y037518D01*
X045834Y037478D01*
X045865Y037447D01*
X045906Y03743D01*
X04595D01*
X04599Y037447D01*
X046021Y037478D01*
X046038Y037518D01*
Y037562D01*
X046021Y037602D01*
X04599Y037633D01*
X04595Y03765D01*
D02*
G37*
G36*
X035933Y036388D02*
X035878D01*
X035827Y036367D01*
X035789Y036328D01*
X035768Y036277D01*
Y036223D01*
X035789Y036172D01*
X035827Y036133D01*
X035878Y036112D01*
X035933D01*
X035984Y036133D01*
X036022Y036172D01*
X036043Y036223D01*
Y036277D01*
X036022Y036328D01*
X035984Y036367D01*
X035933Y036388D01*
D02*
G37*
G36*
X031833Y040095D02*
X031778D01*
X031727Y040074D01*
X031688Y040035D01*
X031668Y039984D01*
Y03993D01*
X031688Y039879D01*
X031727Y03984D01*
X031778Y039819D01*
X031833D01*
X031883Y03984D01*
X031922Y039879D01*
X031943Y03993D01*
Y039984D01*
X031922Y040035D01*
X031883Y040074D01*
X031833Y040095D01*
D02*
G37*
G36*
X032951Y039272D02*
X032896D01*
X032845Y039251D01*
X032806Y039212D01*
X032785Y039161D01*
Y039106D01*
X032806Y039056D01*
X032845Y039017D01*
X032896Y038996D01*
X032951D01*
X033001Y039017D01*
X03304Y039056D01*
X033061Y039106D01*
Y039161D01*
X03304Y039212D01*
X033001Y039251D01*
X032951Y039272D01*
D02*
G37*
G36*
X033187Y038553D02*
X033132D01*
X033081Y038532D01*
X033043Y038493D01*
X033022Y038443D01*
Y038388D01*
X033043Y038337D01*
X033081Y038299D01*
X033132Y038278D01*
X03313Y038228D01*
X033103Y038228D01*
X033052Y038207D01*
X033013Y038169D01*
X032992Y038118D01*
Y038063D01*
X033013Y038012D01*
X033052Y037974D01*
X033103Y037953D01*
X033157D01*
X033208Y037974D01*
X033247Y038012D01*
X033268Y038063D01*
Y038118D01*
X033247Y038169D01*
X033208Y038207D01*
X033157Y038228D01*
X033159Y038278D01*
X033187Y038278D01*
X033238Y038299D01*
X033276Y038337D01*
X033297Y038388D01*
Y038443D01*
X033276Y038493D01*
X033238Y038532D01*
X033187Y038553D01*
D02*
G37*
G36*
X033915Y038317D02*
X03386D01*
X03381Y038296D01*
X033771Y038257D01*
X03375Y038207D01*
Y038152D01*
X033771Y038101D01*
X033806Y038066D01*
X033771Y038031D01*
X03375Y03798D01*
Y037925D01*
X033771Y037875D01*
X03381Y037836D01*
X03386Y037815D01*
X033915D01*
X033966Y037836D01*
X034005Y037875D01*
X034026Y037925D01*
Y03798D01*
X034005Y038031D01*
X033969Y038066D01*
X034005Y038101D01*
X034026Y038152D01*
Y038207D01*
X034005Y038257D01*
X033966Y038296D01*
X033915Y038317D01*
D02*
G37*
G36*
X041523Y047657D02*
X041469D01*
X041418Y047636D01*
X041379Y047598D01*
X041358Y047547D01*
Y047492D01*
X041379Y047442D01*
X041418Y047403D01*
X041469Y047382D01*
X041523D01*
X041574Y047403D01*
X041613Y047442D01*
X041634Y047492D01*
Y047547D01*
X041613Y047598D01*
X041574Y047636D01*
X041523Y047657D01*
D02*
G37*
G36*
X046878Y047539D02*
X046823D01*
X046772Y047518D01*
X046734Y04748D01*
X046713Y047429D01*
Y047374D01*
X046734Y047324D01*
X046772Y047285D01*
X046823Y047264D01*
X046878D01*
X046928Y047285D01*
X046967Y047324D01*
X046988Y047374D01*
Y047429D01*
X046967Y04748D01*
X046928Y047518D01*
X046878Y047539D01*
D02*
G37*
G36*
X054161Y047461D02*
X054106D01*
X054056Y04744D01*
X054017Y047401D01*
X053996Y04735D01*
Y047295D01*
X054017Y047245D01*
X054056Y047206D01*
X054106Y047185D01*
X054161D01*
X054212Y047206D01*
X054251Y047245D01*
X054272Y047295D01*
Y04735D01*
X054251Y047401D01*
X054212Y04744D01*
X054161Y047461D01*
D02*
G37*
G36*
X039673Y047146D02*
X039618D01*
X039568Y047125D01*
X039529Y047086D01*
X039508Y047035D01*
Y04698D01*
X039529Y04693D01*
X039568Y046891D01*
X039618Y04687D01*
X039673D01*
X039724Y046891D01*
X039762Y04693D01*
X039783Y04698D01*
Y047035D01*
X039762Y047086D01*
X039724Y047125D01*
X039673Y047146D01*
D02*
G37*
G36*
X04424Y047067D02*
X044185D01*
X044135Y047046D01*
X044096Y047007D01*
X044075Y046957D01*
Y046902D01*
X044096Y046851D01*
X044135Y046812D01*
X044185Y046791D01*
X04424D01*
X044291Y046812D01*
X044329Y046851D01*
X04435Y046902D01*
Y046957D01*
X044329Y047007D01*
X044291Y047046D01*
X04424Y047067D01*
D02*
G37*
G36*
X041287Y047028D02*
X041232D01*
X041182Y047007D01*
X041143Y046968D01*
X041122Y046917D01*
Y046862D01*
X041143Y046812D01*
X041182Y046773D01*
X041232Y046752D01*
X041287D01*
X041338Y046773D01*
X041377Y046812D01*
X041398Y046862D01*
Y046917D01*
X041377Y046968D01*
X041338Y047007D01*
X041287Y047028D01*
D02*
G37*
G36*
X040815D02*
X04076D01*
X040709Y047007D01*
X040671Y046968D01*
X04065Y046917D01*
Y046862D01*
X040671Y046812D01*
X040709Y046773D01*
X04076Y046752D01*
X040815D01*
X040865Y046773D01*
X040904Y046812D01*
X040925Y046862D01*
Y046917D01*
X040904Y046968D01*
X040865Y047007D01*
X040815Y047028D01*
D02*
G37*
G36*
X051051Y046949D02*
X050996D01*
X050946Y046928D01*
X050907Y046889D01*
X050886Y046838D01*
Y046784D01*
X050907Y046733D01*
X050946Y046694D01*
X050996Y046673D01*
X051051D01*
X051102Y046694D01*
X05114Y046733D01*
X051161Y046784D01*
Y046838D01*
X05114Y046889D01*
X051102Y046928D01*
X051051Y046949D01*
D02*
G37*
G36*
X046642Y046909D02*
X046587D01*
X046536Y046888D01*
X046497Y04685D01*
X046476Y046799D01*
Y046744D01*
X046497Y046694D01*
X046536Y046655D01*
X046587Y046634D01*
X046642D01*
X046692Y046655D01*
X046731Y046694D01*
X046752Y046744D01*
Y046799D01*
X046731Y04685D01*
X046692Y046888D01*
X046642Y046909D01*
D02*
G37*
G36*
X046209D02*
X046154D01*
X046103Y046888D01*
X046064Y04685D01*
X046043Y046799D01*
Y046744D01*
X046064Y046694D01*
X046103Y046655D01*
X046154Y046634D01*
X046209D01*
X046259Y046655D01*
X046298Y046694D01*
X046319Y046744D01*
Y046799D01*
X046298Y04685D01*
X046259Y046888D01*
X046209Y046909D01*
D02*
G37*
G36*
X045775D02*
X045721D01*
X04567Y046888D01*
X045631Y04685D01*
X04561Y046799D01*
Y046744D01*
X045631Y046694D01*
X04567Y046655D01*
X045721Y046634D01*
X045775D01*
X045826Y046655D01*
X045865Y046694D01*
X045886Y046744D01*
Y046799D01*
X045865Y04685D01*
X045826Y046888D01*
X045775Y046909D01*
D02*
G37*
G36*
X045342D02*
X045288D01*
X045237Y046888D01*
X045198Y04685D01*
X045177Y046799D01*
Y046744D01*
X045198Y046694D01*
X045237Y046655D01*
X045288Y046634D01*
X045342D01*
X045393Y046655D01*
X045432Y046694D01*
X045453Y046744D01*
Y046799D01*
X045432Y04685D01*
X045393Y046888D01*
X045342Y046909D01*
D02*
G37*
G36*
X053925Y046831D02*
X05387D01*
X05382Y04681D01*
X053781Y046771D01*
X05376Y04672D01*
Y046666D01*
X053781Y046615D01*
X05382Y046576D01*
X05387Y046555D01*
X053925D01*
X053976Y046576D01*
X054014Y046615D01*
X054035Y046666D01*
Y04672D01*
X054014Y046771D01*
X053976Y04681D01*
X053925Y046831D01*
D02*
G37*
G36*
X053492D02*
X053437D01*
X053387Y04681D01*
X053348Y046771D01*
X053327Y04672D01*
Y046666D01*
X053348Y046615D01*
X053387Y046576D01*
X053437Y046555D01*
X053492D01*
X053543Y046576D01*
X053581Y046615D01*
X053602Y046666D01*
Y04672D01*
X053581Y046771D01*
X053543Y04681D01*
X053492Y046831D01*
D02*
G37*
G36*
X053059D02*
X053004D01*
X052953Y04681D01*
X052915Y046771D01*
X052894Y04672D01*
Y046666D01*
X052915Y046615D01*
X052953Y046576D01*
X053004Y046555D01*
X053059D01*
X05311Y046576D01*
X053148Y046615D01*
X053169Y046666D01*
Y04672D01*
X053148Y046771D01*
X05311Y04681D01*
X053059Y046831D01*
D02*
G37*
G36*
X052626D02*
X052571D01*
X05252Y04681D01*
X052482Y046771D01*
X052461Y04672D01*
Y046666D01*
X052482Y046615D01*
X05252Y046576D01*
X052571Y046555D01*
X052626D01*
X052676Y046576D01*
X052715Y046615D01*
X052736Y046666D01*
Y04672D01*
X052715Y046771D01*
X052676Y04681D01*
X052626Y046831D01*
D02*
G37*
G36*
X052193D02*
X052138D01*
X052087Y04681D01*
X052049Y046771D01*
X052028Y04672D01*
Y046666D01*
X052049Y046615D01*
X052087Y046576D01*
X052138Y046555D01*
X052193D01*
X052243Y046576D01*
X052282Y046615D01*
X052303Y046666D01*
Y04672D01*
X052282Y046771D01*
X052243Y04681D01*
X052193Y046831D01*
D02*
G37*
G36*
X043593Y046256D02*
X043538D01*
X043488Y046235D01*
X043449Y046196D01*
X043428Y046145D01*
Y04609D01*
X043449Y04604D01*
X043468Y046021D01*
X043458Y045963D01*
X043448Y045959D01*
X04341Y04592D01*
X043395Y045885D01*
X043352Y04587D01*
X043339Y04587D01*
X043329Y04588D01*
X043278Y045901D01*
X043223D01*
X043173Y04588D01*
X043134Y045841D01*
X043113Y045791D01*
Y045736D01*
X043134Y045685D01*
X043173Y045647D01*
X043223Y045626D01*
X043278D01*
X043329Y045647D01*
X043368Y045685D01*
X043382Y045721D01*
X043425Y045735D01*
X043438Y045735D01*
X043448Y045725D01*
X043499Y045704D01*
X043554D01*
X043604Y045725D01*
X043643Y045764D01*
X043664Y045815D01*
Y04587D01*
X043643Y04592D01*
X043625Y045939D01*
X043634Y045997D01*
X043644Y046001D01*
X043683Y04604D01*
X043704Y04609D01*
Y046145D01*
X043683Y046196D01*
X043644Y046235D01*
X043593Y046256D01*
D02*
G37*
G36*
X054347Y044771D02*
X054339Y044769D01*
X05433Y044771D01*
X054254Y044761D01*
X054247Y044757D01*
X054238D01*
X054167Y044727D01*
X054161Y044721D01*
X054152Y044719D01*
X054091Y044672D01*
X054087Y044665D01*
X05408Y04466D01*
X054033Y0446D01*
X054031Y044591D01*
X054025Y044585D01*
X053995Y044514D01*
Y044505D01*
X053991Y044498D01*
X053981Y044422D01*
X053983Y044413D01*
X053981Y044405D01*
X053991Y044329D01*
X053995Y044321D01*
Y044313D01*
X054025Y044242D01*
X054031Y044236D01*
X054033Y044227D01*
X05408Y044166D01*
X054087Y044162D01*
X054091Y044154D01*
X054152Y044108D01*
X054161Y044105D01*
X054167Y044099D01*
X054201Y044085D01*
X054191Y044035D01*
X054185D01*
X054135Y044014D01*
X054096Y043976D01*
X054075Y043925D01*
Y04387D01*
X054096Y04382D01*
X054135Y043781D01*
X054185Y04376D01*
X05424D01*
X054291Y043781D01*
X054329Y04382D01*
X05435Y04387D01*
Y043925D01*
X054329Y043976D01*
X054318Y043987D01*
X054325Y044047D01*
X05434Y044057D01*
X054347Y044056D01*
X054423Y044066D01*
X054431Y04407D01*
X054439D01*
X05451Y044099D01*
X054516Y044105D01*
X054525Y044108D01*
X054586Y044154D01*
X05459Y044162D01*
X054597Y044166D01*
X054644Y044227D01*
X054647Y044236D01*
X054653Y044242D01*
X054682Y044313D01*
Y044321D01*
X054686Y044329D01*
X054696Y044405D01*
X054694Y044413D01*
X054696Y044422D01*
X054686Y044498D01*
X054682Y044505D01*
Y044514D01*
X054653Y044585D01*
X054647Y044591D01*
X054644Y0446D01*
X054597Y04466D01*
X05459Y044665D01*
X054586Y044672D01*
X054525Y044719D01*
X054516Y044721D01*
X05451Y044727D01*
X054439Y044757D01*
X054431D01*
X054423Y044761D01*
X054347Y044771D01*
D02*
G37*
G36*
X055146Y04477D02*
X055138Y044768D01*
X055129Y04477D01*
X055053Y04476D01*
X055046Y044756D01*
X055037D01*
X054966Y044727D01*
X05496Y044721D01*
X054952Y044718D01*
X054891Y044672D01*
X054887Y044664D01*
X054879Y04466D01*
X054833Y044599D01*
X05483Y044591D01*
X054824Y044585D01*
X054795Y044514D01*
Y044505D01*
X054791Y044498D01*
X054781Y044422D01*
X054783Y044413D01*
X054781Y044405D01*
X054791Y044329D01*
X054795Y044322D01*
Y044313D01*
X054824Y044242D01*
X05483Y044236D01*
X054833Y044228D01*
X054879Y044167D01*
X054887Y044162D01*
X054891Y044155D01*
X054952Y044108D01*
X05496Y044106D01*
X054966Y0441D01*
X055037Y044071D01*
X055046D01*
X055053Y044066D01*
X055129Y044056D01*
X055138Y044059D01*
X055146Y044056D01*
X055149Y044057D01*
X055173Y044009D01*
X055159Y043995D01*
X055138Y043945D01*
Y04389D01*
X055159Y043839D01*
X055198Y043801D01*
X055248Y04378D01*
X055303D01*
X055354Y043801D01*
X055392Y043839D01*
X055413Y04389D01*
Y043945D01*
X055392Y043995D01*
X055354Y044034D01*
X055317Y044049D01*
X055311Y044089D01*
X055311Y044099D01*
X055311Y044102D01*
X055315Y044106D01*
X055324Y044108D01*
X055384Y044155D01*
X055389Y044162D01*
X055396Y044167D01*
X055443Y044228D01*
X055445Y044236D01*
X055451Y044242D01*
X055481Y044313D01*
Y044322D01*
X055485Y044329D01*
X055495Y044405D01*
X055493Y044413D01*
X055495Y044422D01*
X055485Y044498D01*
X055481Y044505D01*
Y044514D01*
X055451Y044585D01*
X055445Y044591D01*
X055443Y044599D01*
X055396Y04466D01*
X055389Y044664D01*
X055384Y044672D01*
X055324Y044718D01*
X055315Y044721D01*
X055309Y044727D01*
X055238Y044756D01*
X05523D01*
X055222Y04476D01*
X055146Y04477D01*
D02*
G37*
G36*
X055315Y043563D02*
X05526D01*
X055209Y043542D01*
X055171Y043503D01*
X05515Y043453D01*
Y043398D01*
X055171Y043347D01*
X055209Y043308D01*
X05526Y043287D01*
X055315D01*
X055365Y043308D01*
X055404Y043347D01*
X055425Y043398D01*
Y043453D01*
X055404Y043503D01*
X055365Y043542D01*
X055315Y043563D01*
D02*
G37*
G36*
X054201D02*
X054146D01*
X054095Y043542D01*
X054056Y043503D01*
X054035Y043453D01*
Y043398D01*
X054056Y043347D01*
X054095Y043308D01*
X054146Y043287D01*
X054201D01*
X054251Y043308D01*
X05429Y043347D01*
X054311Y043398D01*
Y043453D01*
X05429Y043503D01*
X054251Y043542D01*
X054201Y043563D01*
D02*
G37*
G36*
X055293Y043051D02*
X055238D01*
X055188Y04303D01*
X055149Y042991D01*
X055128Y042941D01*
Y042886D01*
X055149Y042835D01*
X055188Y042797D01*
X055238Y042776D01*
X055293D01*
X055344Y042797D01*
X055383Y042835D01*
X055404Y042886D01*
Y042941D01*
X055383Y042991D01*
X055344Y04303D01*
X055293Y043051D01*
D02*
G37*
G36*
X054201D02*
X054146D01*
X054095Y04303D01*
X054056Y042991D01*
X054035Y042941D01*
Y042886D01*
X054056Y042835D01*
X054095Y042797D01*
X054146Y042776D01*
X054201D01*
X054251Y042797D01*
X05429Y042835D01*
X054311Y042886D01*
Y042941D01*
X05429Y042991D01*
X054251Y04303D01*
X054201Y043051D01*
D02*
G37*
G36*
X055303Y042539D02*
X055248D01*
X055198Y042518D01*
X055159Y04248D01*
X055138Y042429D01*
Y042374D01*
X055159Y042324D01*
X055198Y042285D01*
X055248Y042264D01*
X055303D01*
X055354Y042285D01*
X055392Y042324D01*
X055413Y042374D01*
Y042429D01*
X055392Y04248D01*
X055354Y042518D01*
X055303Y042539D01*
D02*
G37*
G36*
X054201D02*
X054146D01*
X054095Y042518D01*
X054056Y04248D01*
X054035Y042429D01*
Y042374D01*
X054056Y042324D01*
X054095Y042285D01*
X054146Y042264D01*
X054201D01*
X054251Y042285D01*
X05429Y042324D01*
X054311Y042374D01*
Y042429D01*
X05429Y04248D01*
X054251Y042518D01*
X054201Y042539D01*
D02*
G37*
G36*
X053413D02*
X053358D01*
X053308Y042518D01*
X053269Y04248D01*
X053248Y042429D01*
Y042374D01*
X053269Y042324D01*
X053308Y042285D01*
X053358Y042264D01*
X053413D01*
X053464Y042285D01*
X053503Y042324D01*
X053524Y042374D01*
Y042429D01*
X053503Y04248D01*
X053464Y042518D01*
X053413Y042539D01*
D02*
G37*
G36*
X054201Y042067D02*
X054146D01*
X054095Y042046D01*
X054056Y042007D01*
X054035Y041957D01*
Y041902D01*
X054056Y041851D01*
X054095Y041812D01*
X054146Y041791D01*
X054201D01*
X054251Y041812D01*
X05429Y041851D01*
X054311Y041902D01*
Y041957D01*
X05429Y042007D01*
X054251Y042046D01*
X054201Y042067D01*
D02*
G37*
G36*
X054747Y041779D02*
X054738Y041777D01*
X05473Y041779D01*
X054652Y041769D01*
X054644Y041765D01*
X054635D01*
X054562Y041734D01*
X054556Y041728D01*
X054548Y041726D01*
X054485Y041678D01*
X054481Y041671D01*
X054474Y041666D01*
X054425Y041604D01*
X054423Y041595D01*
X054417Y041589D01*
X054387Y041516D01*
Y041508D01*
X054383Y0415D01*
X054372Y041422D01*
X054374Y041413D01*
X054372Y041405D01*
X054383Y041327D01*
X054387Y041319D01*
Y041311D01*
X054417Y041238D01*
X054423Y041232D01*
X054425Y041223D01*
X054474Y041161D01*
X054481Y041156D01*
X054485Y041149D01*
X054548Y041101D01*
X054556Y041098D01*
X054562Y041092D01*
X054635Y041062D01*
X054644D01*
X054652Y041058D01*
X05473Y041047D01*
X054738Y04105D01*
X054747Y041047D01*
X054825Y041058D01*
X054832Y041062D01*
X054841D01*
X054914Y041092D01*
X05492Y041098D01*
X054928Y041101D01*
X054991Y041149D01*
X054995Y041156D01*
X055003Y041161D01*
X055051Y041223D01*
X055053Y041232D01*
X055059Y041238D01*
X05509Y041311D01*
Y041319D01*
X055094Y041327D01*
X055104Y041405D01*
X055102Y041413D01*
X055104Y041422D01*
X055094Y0415D01*
X05509Y041508D01*
Y041516D01*
X055059Y041589D01*
X055053Y041595D01*
X055051Y041604D01*
X055003Y041666D01*
X054995Y041671D01*
X054991Y041678D01*
X054928Y041726D01*
X05492Y041728D01*
X054914Y041734D01*
X054841Y041765D01*
X054832D01*
X054825Y041769D01*
X054747Y041779D01*
D02*
G37*
G36*
X055342Y041752D02*
X055288D01*
X055237Y041731D01*
X055198Y041692D01*
X055177Y041642D01*
Y041587D01*
X055198Y041536D01*
X055237Y041497D01*
X055288Y041476D01*
X055342D01*
X055393Y041497D01*
X055432Y041536D01*
X055453Y041587D01*
Y041642D01*
X055432Y041692D01*
X055393Y041731D01*
X055342Y041752D01*
D02*
G37*
G36*
X055539Y039311D02*
X055484D01*
X055434Y03929D01*
X055395Y039251D01*
X055374Y039201D01*
Y039146D01*
X055395Y039095D01*
X055434Y039056D01*
X055484Y039035D01*
X055539D01*
X05559Y039056D01*
X055629Y039095D01*
X05565Y039146D01*
Y039201D01*
X055629Y039251D01*
X05559Y03929D01*
X055539Y039311D01*
D02*
G37*
G36*
X055382Y038957D02*
X055327D01*
X055276Y038936D01*
X055238Y038897D01*
X055217Y038846D01*
Y038791D01*
X055238Y038741D01*
X055276Y038702D01*
X055327Y038681D01*
X055382D01*
X055432Y038702D01*
X055471Y038741D01*
X055492Y038791D01*
Y038846D01*
X055471Y038897D01*
X055432Y038936D01*
X055382Y038957D01*
D02*
G37*
G36*
X052239Y037975D02*
X052184D01*
X052134Y037954D01*
X052095Y037915D01*
X052074Y037864D01*
Y03781D01*
X052095Y037759D01*
X052134Y03772D01*
X052184Y037699D01*
X052239D01*
X05229Y03772D01*
X052329Y037759D01*
X05235Y03781D01*
Y037864D01*
X052329Y037915D01*
X05229Y037954D01*
X052239Y037975D01*
D02*
G37*
G36*
X051219Y037677D02*
X051164D01*
X051113Y037656D01*
X051075Y037617D01*
X051054Y037567D01*
Y037512D01*
X051075Y037461D01*
X051113Y037423D01*
X051164Y037402D01*
X051219D01*
X051269Y037423D01*
X051308Y037461D01*
X051329Y037512D01*
Y037567D01*
X051308Y037617D01*
X051269Y037656D01*
X051219Y037677D01*
D02*
G37*
G36*
X049903D02*
X049848D01*
X049798Y037656D01*
X049759Y037617D01*
X049738Y037567D01*
Y037512D01*
X049759Y037461D01*
X049798Y037423D01*
X049848Y037402D01*
X049903D01*
X049954Y037423D01*
X049992Y037461D01*
X050013Y037512D01*
Y037567D01*
X049992Y037617D01*
X049954Y037656D01*
X049903Y037677D01*
D02*
G37*
G36*
X054061Y036715D02*
X054006D01*
X053955Y036694D01*
X053916Y036655D01*
X053895Y036604D01*
Y03655D01*
X053916Y036499D01*
X053955Y03646D01*
X054006Y036439D01*
X054061D01*
X054111Y03646D01*
X05415Y036499D01*
X054171Y03655D01*
Y036604D01*
X05415Y036655D01*
X054111Y036694D01*
X054061Y036715D01*
D02*
G37*
G36*
X052239Y036585D02*
X052184D01*
X052134Y036564D01*
X052095Y036526D01*
X052074Y036475D01*
Y03642D01*
X052095Y03637D01*
X052134Y036331D01*
X052184Y03631D01*
X052239D01*
X05229Y036331D01*
X052329Y03637D01*
X05235Y03642D01*
Y036475D01*
X052329Y036526D01*
X05229Y036564D01*
X052239Y036585D01*
D02*
G37*
G36*
Y035196D02*
X052184D01*
X052134Y035175D01*
X052095Y035136D01*
X052074Y035086D01*
Y035031D01*
X052095Y03498D01*
X052134Y034941D01*
X052184Y03492D01*
X052239D01*
X05229Y034941D01*
X052329Y03498D01*
X05235Y035031D01*
Y035086D01*
X052329Y035136D01*
X05229Y035175D01*
X052239Y035196D01*
D02*
G37*
G36*
X052675Y034941D02*
X05262D01*
X05257Y03492D01*
X052531Y034881D01*
X05251Y034831D01*
Y034776D01*
X052531Y034725D01*
X05257Y034686D01*
X05262Y034665D01*
X052675D01*
X052726Y034686D01*
X052764Y034725D01*
X052785Y034776D01*
Y034831D01*
X052764Y034881D01*
X052726Y03492D01*
X052675Y034941D01*
D02*
G37*
G36*
X034917Y03482D02*
X034862D01*
X034812Y034799D01*
X034773Y03476D01*
X034752Y03471D01*
Y034655D01*
X034773Y034604D01*
X034812Y034566D01*
X034862Y034545D01*
X034917D01*
X034968Y034566D01*
X035006Y034604D01*
X035027Y034655D01*
Y03471D01*
X035006Y03476D01*
X034968Y034799D01*
X034917Y03482D01*
D02*
G37*
G36*
X033413Y034587D02*
X033358D01*
X033308Y034566D01*
X033269Y034527D01*
X033248Y034476D01*
Y034421D01*
X033269Y034371D01*
X033308Y034332D01*
X033358Y034311D01*
X033413D01*
X033464Y034332D01*
X033503Y034371D01*
X033524Y034421D01*
Y034476D01*
X033503Y034527D01*
X033464Y034566D01*
X033413Y034587D01*
D02*
G37*
G36*
X031755Y034961D02*
X031662D01*
X031572Y034936D01*
X031491Y03489D01*
X031425Y034824D01*
X031378Y034743D01*
X031354Y034653D01*
Y03456D01*
X031378Y03447D01*
X031425Y034389D01*
X031491Y034323D01*
X031572Y034276D01*
X031662Y034252D01*
X031755D01*
X031845Y034276D01*
X031926Y034323D01*
X031992Y034389D01*
X032039Y03447D01*
X032063Y03456D01*
Y034653D01*
X032039Y034743D01*
X031992Y034824D01*
X031926Y03489D01*
X031845Y034936D01*
X031755Y034961D01*
D02*
G37*
G36*
X030755D02*
X030662D01*
X030572Y034936D01*
X030491Y03489D01*
X030425Y034824D01*
X030378Y034743D01*
X030354Y034653D01*
Y03456D01*
X030378Y03447D01*
X030425Y034389D01*
X030491Y034323D01*
X030572Y034276D01*
X030662Y034252D01*
X030755D01*
X030845Y034276D01*
X030926Y034323D01*
X030992Y034389D01*
X031039Y03447D01*
X031063Y03456D01*
Y034653D01*
X031039Y034743D01*
X030992Y034824D01*
X030926Y03489D01*
X030845Y034936D01*
X030755Y034961D01*
D02*
G37*
G36*
X030063D02*
X029354D01*
Y034252D01*
X030063D01*
Y034961D01*
D02*
G37*
G36*
X03547Y033996D02*
X035415D01*
X035365Y033975D01*
X035326Y033936D01*
X035305Y033886D01*
Y033831D01*
X035326Y03378D01*
X035365Y033741D01*
X035368Y03374D01*
X035365Y033739D01*
X035326Y0337D01*
X035305Y033649D01*
Y033595D01*
X035326Y033544D01*
X035365Y033505D01*
X035415Y033484D01*
X03547D01*
X035521Y033505D01*
X03556Y033544D01*
X035581Y033595D01*
Y033649D01*
X03556Y0337D01*
X035521Y033739D01*
X035518Y03374D01*
X035521Y033741D01*
X03556Y03378D01*
X035581Y033831D01*
Y033886D01*
X03556Y033936D01*
X035521Y033975D01*
X03547Y033996D01*
D02*
G37*
G36*
X033413Y033563D02*
X033358D01*
X033308Y033542D01*
X033269Y033503D01*
X033248Y033453D01*
Y033398D01*
X033269Y033347D01*
X033308Y033308D01*
X033358Y033287D01*
X033413D01*
X033464Y033308D01*
X033503Y033347D01*
X033524Y033398D01*
Y033453D01*
X033503Y033503D01*
X033464Y033542D01*
X033413Y033563D01*
D02*
G37*
G36*
X031755Y033346D02*
X031662D01*
X031572Y033322D01*
X031491Y033276D01*
X031425Y03321D01*
X031378Y033129D01*
X031354Y033039D01*
Y032945D01*
X031378Y032855D01*
X031425Y032775D01*
X031491Y032709D01*
X031572Y032662D01*
X031662Y032638D01*
X031755D01*
X031845Y032662D01*
X031926Y032709D01*
X031992Y032775D01*
X032039Y032855D01*
X032063Y032945D01*
Y033039D01*
X032039Y033129D01*
X031992Y03321D01*
X031926Y033276D01*
X031845Y033322D01*
X031755Y033346D01*
D02*
G37*
G36*
X030755D02*
X030662D01*
X030572Y033322D01*
X030491Y033276D01*
X030425Y03321D01*
X030378Y033129D01*
X030354Y033039D01*
Y032945D01*
X030378Y032855D01*
X030425Y032775D01*
X030491Y032709D01*
X030572Y032662D01*
X030662Y032638D01*
X030755D01*
X030845Y032662D01*
X030926Y032709D01*
X030992Y032775D01*
X031039Y032855D01*
X031063Y032945D01*
Y033039D01*
X031039Y033129D01*
X030992Y03321D01*
X030926Y033276D01*
X030845Y033322D01*
X030755Y033346D01*
D02*
G37*
G36*
X029755D02*
X029662D01*
X029572Y033322D01*
X029491Y033276D01*
X029425Y03321D01*
X029378Y033129D01*
X029354Y033039D01*
Y032945D01*
X029378Y032855D01*
X029425Y032775D01*
X029491Y032709D01*
X029572Y032662D01*
X029662Y032638D01*
X029755D01*
X029845Y032662D01*
X029926Y032709D01*
X029992Y032775D01*
X030039Y032855D01*
X030063Y032945D01*
Y033039D01*
X030039Y033129D01*
X029992Y03321D01*
X029926Y033276D01*
X029845Y033322D01*
X029755Y033346D01*
D02*
G37*
G36*
X029063D02*
X028354D01*
Y032638D01*
X029063D01*
Y033346D01*
D02*
G37*
G36*
X032065Y03248D02*
X03201D01*
X031959Y032459D01*
X031921Y032421D01*
X0319Y03237D01*
Y032315D01*
X031921Y032264D01*
X031959Y032226D01*
X03201Y032205D01*
X032065D01*
X032115Y032226D01*
X032154Y032264D01*
X032175Y032315D01*
Y03237D01*
X032154Y032421D01*
X032115Y032459D01*
X032065Y03248D01*
D02*
G37*
G36*
X031504Y032303D02*
X031449D01*
X031398Y032282D01*
X03136Y032243D01*
X031339Y032193D01*
Y032138D01*
X03136Y032087D01*
X031398Y032049D01*
X031449Y032028D01*
X031504D01*
X031554Y032049D01*
X031593Y032087D01*
X031614Y032138D01*
Y032193D01*
X031593Y032243D01*
X031554Y032282D01*
X031504Y032303D01*
D02*
G37*
G36*
X028488Y032287D02*
X028433D01*
X028383Y032266D01*
X028344Y032228D01*
X028323Y032177D01*
Y032122D01*
X028344Y032072D01*
X028383Y032033D01*
X028433Y032012D01*
X028488D01*
X028539Y032033D01*
X028577Y032072D01*
X028598Y032122D01*
Y032177D01*
X028577Y032228D01*
X028539Y032266D01*
X028488Y032287D01*
D02*
G37*
G36*
X030287Y032287D02*
X030232D01*
X030182Y032266D01*
X030143Y032228D01*
X030122Y032177D01*
Y032122D01*
X030143Y032072D01*
X030182Y032033D01*
X030232Y032012D01*
X030287D01*
X030338Y032033D01*
X030377Y032072D01*
X030398Y032122D01*
Y032177D01*
X030377Y032228D01*
X030338Y032266D01*
X030287Y032287D01*
D02*
G37*
G36*
X029283Y032287D02*
X029228D01*
X029178Y032266D01*
X029139Y032228D01*
X029118Y032177D01*
Y032122D01*
X029139Y032072D01*
X029178Y032033D01*
X029228Y032012D01*
X029283D01*
X029334Y032033D01*
X029364Y032063D01*
X029394Y032033D01*
X029445Y032012D01*
X0295D01*
X02955Y032033D01*
X029589Y032072D01*
X02961Y032122D01*
Y032177D01*
X029589Y032228D01*
X02955Y032266D01*
X0295Y032287D01*
X029445D01*
X029394Y032266D01*
X029364Y032236D01*
X029334Y032266D01*
X029283Y032287D01*
D02*
G37*
G36*
X046387Y031939D02*
X046332D01*
X046281Y031918D01*
X046242Y031879D01*
X046221Y031829D01*
Y031774D01*
X046242Y031723D01*
X046281Y031684D01*
X046332Y031663D01*
X046387D01*
X046437Y031684D01*
X046476Y031723D01*
X046497Y031774D01*
Y031829D01*
X046476Y031879D01*
X046437Y031918D01*
X046387Y031939D01*
D02*
G37*
G36*
X029496Y03128D02*
X029441D01*
X02939Y031259D01*
X02936Y031228D01*
X02933Y031259D01*
X029279Y03128D01*
X029225D01*
X029174Y031259D01*
X029135Y03122D01*
X029114Y031169D01*
Y031114D01*
X029135Y031064D01*
X029174Y031025D01*
X029225Y031004D01*
X029279D01*
X02933Y031025D01*
X02936Y031055D01*
X02939Y031025D01*
X029441Y031004D01*
X029496D01*
X029547Y031025D01*
X029585Y031064D01*
X029606Y031114D01*
Y031169D01*
X029585Y03122D01*
X029547Y031259D01*
X029496Y03128D01*
D02*
G37*
G36*
X031504D02*
X031449D01*
X031398Y031259D01*
X03136Y03122D01*
X031339Y031169D01*
Y031114D01*
X03136Y031064D01*
X031398Y031025D01*
X031449Y031004D01*
X031504D01*
X031554Y031025D01*
X031593Y031064D01*
X031614Y031114D01*
Y031169D01*
X031593Y03122D01*
X031554Y031259D01*
X031504Y03128D01*
D02*
G37*
G36*
X030283D02*
X030228D01*
X030178Y031259D01*
X030139Y03122D01*
X030118Y031169D01*
Y031114D01*
X030139Y031064D01*
X030178Y031025D01*
X030228Y031004D01*
X030283D01*
X030334Y031025D01*
X030373Y031064D01*
X030394Y031114D01*
Y031169D01*
X030373Y03122D01*
X030334Y031259D01*
X030283Y03128D01*
D02*
G37*
G36*
X028492D02*
X028437D01*
X028387Y031259D01*
X028348Y03122D01*
X028327Y031169D01*
Y031114D01*
X028348Y031064D01*
X028387Y031025D01*
X028437Y031004D01*
X028492D01*
X028543Y031025D01*
X028581Y031064D01*
X028602Y031114D01*
Y031169D01*
X028581Y03122D01*
X028543Y031259D01*
X028492Y03128D01*
D02*
G37*
G36*
X032065Y031102D02*
X03201D01*
X031959Y031081D01*
X031921Y031043D01*
X0319Y030992D01*
Y030937D01*
X031921Y030887D01*
X031959Y030848D01*
X03201Y030827D01*
X032065D01*
X032115Y030848D01*
X032154Y030887D01*
X032175Y030937D01*
Y030992D01*
X032154Y031043D01*
X032115Y031081D01*
X032065Y031102D01*
D02*
G37*
G36*
X031771Y030709D02*
X031678D01*
X031588Y030685D01*
X031507Y030638D01*
X031441Y030572D01*
X031394Y030491D01*
X03137Y030401D01*
Y030308D01*
X031394Y030218D01*
X031441Y030137D01*
X031507Y030071D01*
X031588Y030024D01*
X031678Y03D01*
X031771D01*
X031861Y030024D01*
X031942Y030071D01*
X032008Y030137D01*
X032055Y030218D01*
X032079Y030308D01*
Y030401D01*
X032055Y030491D01*
X032008Y030572D01*
X031942Y030638D01*
X031861Y030685D01*
X031771Y030709D01*
D02*
G37*
G36*
X030771D02*
X030678D01*
X030588Y030685D01*
X030507Y030638D01*
X030441Y030572D01*
X030394Y030491D01*
X03037Y030401D01*
Y030308D01*
X030394Y030218D01*
X030441Y030137D01*
X030507Y030071D01*
X030588Y030024D01*
X030678Y03D01*
X030771D01*
X030861Y030024D01*
X030942Y030071D01*
X031008Y030137D01*
X031055Y030218D01*
X031079Y030308D01*
Y030401D01*
X031055Y030491D01*
X031008Y030572D01*
X030942Y030638D01*
X030861Y030685D01*
X030771Y030709D01*
D02*
G37*
G36*
X029771D02*
X029678D01*
X029588Y030685D01*
X029507Y030638D01*
X029441Y030572D01*
X029394Y030491D01*
X02937Y030401D01*
Y030308D01*
X029394Y030218D01*
X029441Y030137D01*
X029507Y030071D01*
X029588Y030024D01*
X029678Y03D01*
X029771D01*
X029861Y030024D01*
X029942Y030071D01*
X030008Y030137D01*
X030055Y030218D01*
X030079Y030308D01*
Y030401D01*
X030055Y030491D01*
X030008Y030572D01*
X029942Y030638D01*
X029861Y030685D01*
X029771Y030709D01*
D02*
G37*
G36*
X029079D02*
X02837D01*
Y03D01*
X029079D01*
Y030709D01*
D02*
G37*
G36*
X043728Y02935D02*
X043673D01*
X043623Y029329D01*
X043584Y029291D01*
X043563Y02924D01*
Y029185D01*
X043584Y029135D01*
X043623Y029096D01*
X043673Y029075D01*
X043728D01*
X043779Y029096D01*
X043818Y029135D01*
X043839Y029185D01*
Y02924D01*
X043818Y029291D01*
X043779Y029329D01*
X043728Y02935D01*
D02*
G37*
G36*
X028807Y029154D02*
X028752D01*
X028701Y029133D01*
X028663Y029094D01*
X028642Y029043D01*
Y028988D01*
X028663Y028938D01*
X028701Y028899D01*
X028752Y028878D01*
X028807D01*
X028858Y028899D01*
X028896Y028938D01*
X028917Y028988D01*
Y029043D01*
X028896Y029094D01*
X028858Y029133D01*
X028807Y029154D01*
D02*
G37*
G36*
X02848Y02914D02*
X028425D01*
X028374Y029119D01*
X028336Y02908D01*
X028315Y02903D01*
Y028975D01*
X028336Y028924D01*
X028374Y028886D01*
X028425Y028865D01*
X02848D01*
X028531Y028886D01*
X028569Y028924D01*
X02859Y028975D01*
Y02903D01*
X028569Y02908D01*
X028531Y029119D01*
X02848Y02914D01*
D02*
G37*
G36*
X029201Y028839D02*
X029146D01*
X029095Y028818D01*
X029056Y028779D01*
X029035Y028728D01*
Y028673D01*
X029056Y028623D01*
X029095Y028584D01*
X029146Y028563D01*
X029201D01*
X029251Y028584D01*
X02929Y028623D01*
X029311Y028673D01*
Y028728D01*
X02929Y028779D01*
X029251Y028818D01*
X029201Y028839D01*
D02*
G37*
G36*
X028795Y028825D02*
X02874D01*
X028689Y028804D01*
X028651Y028765D01*
X02863Y028715D01*
Y02866D01*
X028651Y028609D01*
X028689Y028571D01*
X02874Y02855D01*
X028795D01*
X028846Y028571D01*
X028884Y028609D01*
X028905Y02866D01*
Y028715D01*
X028884Y028765D01*
X028846Y028804D01*
X028795Y028825D01*
D02*
G37*
G36*
X040155Y028829D02*
X040101D01*
X04005Y028808D01*
X040011Y028769D01*
X03999Y028718D01*
Y028664D01*
X040011Y028613D01*
X040028Y028596D01*
X040044Y028563D01*
X040028Y02853D01*
X040011Y028513D01*
X03999Y028462D01*
Y028408D01*
X040011Y028357D01*
X04005Y028318D01*
X040101Y028297D01*
X040155D01*
X040206Y028318D01*
X040245Y028357D01*
X040266Y028408D01*
Y028462D01*
X040245Y028513D01*
X040228Y02853D01*
X040211Y028563D01*
X040228Y028596D01*
X040245Y028613D01*
X040266Y028664D01*
Y028718D01*
X040245Y028769D01*
X040206Y028808D01*
X040155Y028829D01*
D02*
G37*
G36*
X029201Y028524D02*
X029146D01*
X029095Y028503D01*
X029056Y028464D01*
X029035Y028413D01*
Y028358D01*
X029056Y028308D01*
X029095Y028269D01*
X029146Y028248D01*
X029201D01*
X029251Y028269D01*
X02929Y028308D01*
X029311Y028358D01*
Y028413D01*
X02929Y028464D01*
X029251Y028503D01*
X029201Y028524D01*
D02*
G37*
G36*
X028795Y02851D02*
X02874D01*
X028689Y028489D01*
X028651Y028451D01*
X02863Y0284D01*
Y028345D01*
X028651Y028294D01*
X028689Y028256D01*
X02874Y028235D01*
X028795D01*
X028846Y028256D01*
X028884Y028294D01*
X028905Y028345D01*
Y0284D01*
X028884Y028451D01*
X028846Y028489D01*
X028795Y02851D01*
D02*
G37*
G36*
X028807Y028169D02*
X028752D01*
X028701Y028148D01*
X028663Y02811D01*
X028642Y028059D01*
Y028004D01*
X028663Y027953D01*
X028701Y027915D01*
X028752Y027894D01*
X028807D01*
X028858Y027915D01*
X028896Y027953D01*
X028917Y028004D01*
Y028059D01*
X028896Y02811D01*
X028858Y028148D01*
X028807Y028169D01*
D02*
G37*
G36*
X041211Y028053D02*
X041156D01*
X041105Y028032D01*
X041067Y027994D01*
X041046Y027943D01*
Y027888D01*
X041067Y027838D01*
X041105Y027799D01*
X041156Y027778D01*
X041211D01*
X041261Y027799D01*
X0413Y027838D01*
X041321Y027888D01*
Y027943D01*
X0413Y027994D01*
X041261Y028032D01*
X041211Y028053D01*
D02*
G37*
G36*
X041209Y027697D02*
X041154D01*
X041103Y027676D01*
X041064Y027637D01*
X041043Y027586D01*
Y027532D01*
X041064Y027481D01*
X041103Y027442D01*
X041154Y027421D01*
X041209D01*
X041259Y027442D01*
X041298Y027481D01*
X041319Y027532D01*
Y027586D01*
X041298Y027637D01*
X041259Y027676D01*
X041209Y027697D01*
D02*
G37*
G36*
X041211Y027187D02*
X041156D01*
X041105Y027166D01*
X041067Y027128D01*
X041046Y027077D01*
Y027022D01*
X041067Y026971D01*
X041105Y026933D01*
X041156Y026912D01*
X041211D01*
X041261Y026933D01*
X0413Y026971D01*
X041321Y027022D01*
Y027077D01*
X0413Y027128D01*
X041261Y027166D01*
X041211Y027187D01*
D02*
G37*
G36*
X059752Y038839D02*
X059697D01*
X059646Y038818D01*
X059608Y038779D01*
X059587Y038728D01*
Y038673D01*
X059608Y038623D01*
X059646Y038584D01*
X059697Y038563D01*
X059752D01*
X059802Y038584D01*
X059841Y038623D01*
X059862Y038673D01*
Y038728D01*
X059841Y038779D01*
X059802Y038818D01*
X059752Y038839D01*
D02*
G37*
G36*
X059083D02*
X059028D01*
X058977Y038818D01*
X058938Y038779D01*
X058917Y038728D01*
Y038673D01*
X058938Y038623D01*
X058977Y038584D01*
X059028Y038563D01*
X059083D01*
X059133Y038584D01*
X059172Y038623D01*
X059193Y038673D01*
Y038728D01*
X059172Y038779D01*
X059133Y038818D01*
X059083Y038839D01*
D02*
G37*
G36*
X059673Y038366D02*
X059618D01*
X059568Y038345D01*
X059529Y038306D01*
X059508Y038256D01*
Y038201D01*
X059529Y03815D01*
X059568Y038112D01*
X059618Y038091D01*
X059673D01*
X059724Y038112D01*
X059762Y03815D01*
X059783Y038201D01*
Y038256D01*
X059762Y038306D01*
X059724Y038345D01*
X059673Y038366D01*
D02*
G37*
G36*
X059279D02*
X059225D01*
X059174Y038345D01*
X059135Y038306D01*
X059114Y038256D01*
Y038201D01*
X059135Y03815D01*
X059174Y038112D01*
X059225Y038091D01*
X059279D01*
X05933Y038112D01*
X059369Y03815D01*
X05939Y038201D01*
Y038256D01*
X059369Y038306D01*
X05933Y038345D01*
X059279Y038366D01*
D02*
G37*
G36*
X058886D02*
X058831D01*
X05878Y038345D01*
X058741Y038306D01*
X05872Y038256D01*
Y038201D01*
X058741Y03815D01*
X05878Y038112D01*
X058831Y038091D01*
X058886D01*
X058936Y038112D01*
X058975Y03815D01*
X058996Y038201D01*
Y038256D01*
X058975Y038306D01*
X058936Y038345D01*
X058886Y038366D01*
D02*
G37*
G36*
X059673Y037972D02*
X059618D01*
X059568Y037951D01*
X059529Y037913D01*
X059508Y037862D01*
Y037807D01*
X059529Y037757D01*
X059568Y037718D01*
X059618Y037697D01*
X059673D01*
X059724Y037718D01*
X059762Y037757D01*
X059783Y037807D01*
Y037862D01*
X059762Y037913D01*
X059724Y037951D01*
X059673Y037972D01*
D02*
G37*
G36*
X059279D02*
X059225D01*
X059174Y037951D01*
X059135Y037913D01*
X059114Y037862D01*
Y037807D01*
X059135Y037757D01*
X059174Y037718D01*
X059225Y037697D01*
X059279D01*
X05933Y037718D01*
X059369Y037757D01*
X05939Y037807D01*
Y037862D01*
X059369Y037913D01*
X05933Y037951D01*
X059279Y037972D01*
D02*
G37*
G36*
X058886D02*
X058831D01*
X05878Y037951D01*
X058741Y037913D01*
X05872Y037862D01*
Y037807D01*
X058741Y037757D01*
X05878Y037718D01*
X058831Y037697D01*
X058886D01*
X058936Y037718D01*
X058975Y037757D01*
X058996Y037807D01*
Y037862D01*
X058975Y037913D01*
X058936Y037951D01*
X058886Y037972D01*
D02*
G37*
G36*
X059673Y037579D02*
X059618D01*
X059568Y037558D01*
X059529Y037519D01*
X059508Y037468D01*
Y037414D01*
X059529Y037363D01*
X059568Y037324D01*
X059618Y037303D01*
X059673D01*
X059724Y037324D01*
X059762Y037363D01*
X059783Y037414D01*
Y037468D01*
X059762Y037519D01*
X059724Y037558D01*
X059673Y037579D01*
D02*
G37*
G36*
X059279D02*
X059225D01*
X059174Y037558D01*
X059135Y037519D01*
X059114Y037468D01*
Y037414D01*
X059135Y037363D01*
X059174Y037324D01*
X059225Y037303D01*
X059279D01*
X05933Y037324D01*
X059369Y037363D01*
X05939Y037414D01*
Y037468D01*
X059369Y037519D01*
X05933Y037558D01*
X059279Y037579D01*
D02*
G37*
G36*
X058886D02*
X058831D01*
X05878Y037558D01*
X058741Y037519D01*
X05872Y037468D01*
Y037414D01*
X058741Y037363D01*
X05878Y037324D01*
X058831Y037303D01*
X058886D01*
X058936Y037324D01*
X058975Y037363D01*
X058996Y037414D01*
Y037468D01*
X058975Y037519D01*
X058936Y037558D01*
X058886Y037579D01*
D02*
G37*
G36*
X059673Y037185D02*
X059618D01*
X059568Y037164D01*
X059529Y037125D01*
X059508Y037075D01*
Y03702D01*
X059529Y036969D01*
X059568Y03693D01*
X059618Y036909D01*
X059673D01*
X059724Y03693D01*
X059762Y036969D01*
X059783Y03702D01*
Y037075D01*
X059762Y037125D01*
X059724Y037164D01*
X059673Y037185D01*
D02*
G37*
G36*
X059279D02*
X059225D01*
X059174Y037164D01*
X059135Y037125D01*
X059114Y037075D01*
Y03702D01*
X059135Y036969D01*
X059174Y03693D01*
X059225Y036909D01*
X059279D01*
X05933Y03693D01*
X059369Y036969D01*
X05939Y03702D01*
Y037075D01*
X059369Y037125D01*
X05933Y037164D01*
X059279Y037185D01*
D02*
G37*
G36*
X058886D02*
X058831D01*
X05878Y037164D01*
X058741Y037125D01*
X05872Y037075D01*
Y03702D01*
X058741Y036969D01*
X05878Y03693D01*
X058831Y036909D01*
X058886D01*
X058936Y03693D01*
X058975Y036969D01*
X058996Y03702D01*
Y037075D01*
X058975Y037125D01*
X058936Y037164D01*
X058886Y037185D01*
D02*
G37*
G36*
X059358Y036083D02*
X059303D01*
X059253Y036062D01*
X059214Y036023D01*
X059193Y035972D01*
Y035917D01*
X059214Y035867D01*
X059253Y035828D01*
X059303Y035807D01*
X059358D01*
X059409Y035828D01*
X059448Y035867D01*
X059468Y035917D01*
Y035972D01*
X059448Y036023D01*
X059409Y036062D01*
X059358Y036083D01*
D02*
G37*
G36*
X059427Y029213D02*
X059372D01*
X059322Y029192D01*
X059283Y029153D01*
X059262Y029102D01*
Y029047D01*
X059283Y028997D01*
X059322Y028958D01*
X059372Y028937D01*
X059427D01*
X059478Y028958D01*
X059516Y028997D01*
X059537Y029047D01*
Y029102D01*
X059516Y029153D01*
X059478Y029192D01*
X059427Y029213D01*
D02*
G37*
G36*
X059437Y028425D02*
X059382D01*
X059331Y028404D01*
X059293Y028365D01*
X059272Y028315D01*
Y02826D01*
X059293Y028209D01*
X059331Y028171D01*
X059382Y02815D01*
X059437D01*
X059488Y028171D01*
X059526Y028209D01*
X059547Y02826D01*
Y028315D01*
X059526Y028365D01*
X059488Y028404D01*
X059437Y028425D01*
D02*
G37*
G36*
X046012Y023051D02*
X045957D01*
X045906Y02303D01*
X045867Y022991D01*
X045846Y022941D01*
Y022886D01*
X045867Y022835D01*
X045906Y022797D01*
X045957Y022776D01*
X046012D01*
X046062Y022797D01*
X046101Y022835D01*
X046122Y022886D01*
Y022941D01*
X046101Y022991D01*
X046062Y02303D01*
X046012Y023051D01*
D02*
G37*
G36*
Y022264D02*
X045957D01*
X045906Y022243D01*
X045867Y022204D01*
X045846Y022153D01*
Y022099D01*
X045867Y022048D01*
X045906Y022009D01*
X045957Y021988D01*
X046012D01*
X046062Y022009D01*
X046101Y022048D01*
X046122Y022099D01*
Y022153D01*
X046101Y022204D01*
X046062Y022243D01*
X046012Y022264D01*
D02*
G37*
G36*
X043158Y023889D02*
X043103D01*
X043052Y023868D01*
X043014Y023829D01*
X042993Y023778D01*
Y023724D01*
X043014Y023673D01*
X043029Y023657D01*
X043013Y023641D01*
X042992Y02359D01*
Y023536D01*
X043013Y023485D01*
X043052Y023446D01*
X043103Y023425D01*
X043157D01*
X043208Y023446D01*
X043247Y023485D01*
X043268Y023536D01*
Y02359D01*
X043247Y023641D01*
X043231Y023657D01*
X043247Y023673D01*
X043268Y023724D01*
Y023778D01*
X043247Y023829D01*
X043208Y023868D01*
X043158Y023889D01*
D02*
G37*
%LPD*%
D13*
X055551Y032244D02*
X057628D01*
X057972Y032589D01*
X054646Y031339D02*
X055551Y032244D01*
X054646Y031102D02*
Y031339D01*
D17*
X046853Y016139D02*
X047827D01*
X045906Y017087D02*
X046853Y016139D01*
X045906Y017087D02*
Y019764D01*
X044675Y020994D02*
X045906Y019764D01*
X043927Y020994D02*
X044675D01*
X043927D02*
Y021378D01*
X043386Y021919D02*
X043927Y021378D01*
X055512Y016693D02*
Y025197D01*
X05729Y027103D02*
X057313Y027126D01*
X05729Y026975D02*
Y027103D01*
X055512Y025197D02*
X05729Y026975D01*
X057305Y027134D02*
Y02732D01*
Y027134D02*
X057313Y027126D01*
X056799Y027826D02*
X057305Y02732D01*
X056799Y027826D02*
Y028073D01*
X056791Y028081D02*
X056799Y028073D01*
X055512Y016693D02*
X056066Y016139D01*
X057047D01*
D176*
X052451Y029409D02*
X053819D01*
X05185Y028809D02*
X052451Y029409D01*
X053819D02*
X054055Y029646D01*
Y030423D01*
X054508Y030876D01*
X057687Y034498D02*
X062598D01*
X056673Y033484D02*
X057687Y034498D01*
X052953Y033484D02*
X056673D01*
X056171Y031604D02*
X056742D01*
X054508Y030876D02*
X055443D01*
X056171Y031604D01*
X045059Y029213D02*
X045777Y028495D01*
X044508Y029213D02*
X045059D01*
X055571Y035551D02*
Y036043D01*
X05435Y034331D02*
X055571Y035551D01*
X060148Y027234D02*
Y029705D01*
X059467Y026615D02*
X059528D01*
X060148Y027234D01*
X046102Y020472D02*
X046368D01*
X046791Y020896D01*
X043661Y033819D02*
Y036929D01*
X043228Y033386D02*
X043661Y033819D01*
X038504Y033386D02*
X043228D01*
X037913Y033976D02*
X038504Y033386D01*
X037913Y033976D02*
Y040433D01*
X037756Y040591D02*
X037913Y040433D01*
X036969Y040591D02*
X037756D01*
X03685Y040472D02*
X036969Y040591D01*
X03685Y040256D02*
Y040472D01*
X036752Y040157D02*
X03685Y040256D01*
X036526Y040157D02*
X036752D01*
X036526Y039921D02*
X036693D01*
X037283Y039331D01*
X051821Y027047D02*
X052894Y02812D01*
X049006Y027047D02*
X051821D01*
X04873Y027323D02*
X049006Y027047D01*
X045845Y027323D02*
X04873D01*
X04561Y027088D02*
X045845Y027323D01*
X04561Y026594D02*
Y027088D01*
X051929Y0269D02*
X052697Y027667D01*
X046596Y027065D02*
X046762Y0269D01*
X051929D01*
X052697Y027667D02*
X054016D01*
X045876Y026847D02*
X046094Y027065D01*
X046596D01*
X054016Y027667D02*
X054419Y028071D01*
X059872Y02998D02*
X060148Y029705D01*
X046791Y020896D02*
Y024163D01*
X046614Y024341D02*
X046791Y024163D01*
X057146Y028199D02*
Y028524D01*
X057894Y029272D02*
Y029862D01*
X057146Y028524D02*
X057894Y029272D01*
X058445Y030413D02*
X058701D01*
X057894Y029862D02*
X058445Y030413D01*
X058701D02*
X058789Y030502D01*
Y030689D01*
X058602Y030876D02*
X058789Y030689D01*
X057028Y028081D02*
X057146Y028199D01*
X056791Y028081D02*
X057028D01*
X045777Y028495D02*
X051536D01*
X05185Y028809D01*
X052894Y02812D02*
X053937D01*
X055384Y028502D02*
Y028543D01*
Y028502D02*
X055433Y028453D01*
X055547D01*
X055597Y028403D01*
Y028254D02*
Y028403D01*
X055547Y028205D02*
X055597Y028254D01*
X055393Y028205D02*
X055547D01*
X055343Y028155D02*
X055393Y028205D01*
X055343Y028006D02*
Y028155D01*
Y028006D02*
X055393Y027957D01*
X055547D01*
X055597Y027907D01*
Y027758D02*
Y027907D01*
X055547Y027709D02*
X055597Y027758D01*
X055393Y027709D02*
X055547D01*
X055343Y027659D02*
X055393Y027709D01*
X055343Y02751D02*
Y027659D01*
Y02751D02*
X055393Y027461D01*
X055547D01*
X055597Y027411D01*
Y027262D02*
Y027411D01*
X055547Y027213D02*
X055597Y027262D01*
X055433Y027213D02*
X055547D01*
X055384Y027163D02*
X055433Y027213D01*
X055384Y026988D02*
Y027163D01*
X055217Y026821D02*
X055384Y026988D01*
X054371Y02625D02*
X054577D01*
X054321Y0262D02*
X054371Y02625D01*
X054321Y025995D02*
Y0262D01*
X054272Y025945D02*
X054321Y025995D01*
X054123Y025945D02*
X054272D01*
X054073Y025995D02*
X054123Y025945D01*
X054073Y025995D02*
Y026202D01*
X054024Y026252D02*
X054073Y026202D01*
X053875Y026252D02*
X054024D01*
X053825Y026202D02*
X053875Y026252D01*
X053825Y025995D02*
Y026202D01*
X053776Y025945D02*
X053825Y025995D01*
X053627Y025945D02*
X053776D01*
X053577Y025995D02*
X053627Y025945D01*
X053577Y025995D02*
Y026202D01*
X053528Y026252D02*
X053577Y026202D01*
X053379Y026252D02*
X053528D01*
X053329Y026202D02*
X053379Y026252D01*
X053329Y025995D02*
Y026202D01*
X05328Y025945D02*
X053329Y025995D01*
X053131Y025945D02*
X05328D01*
X053081Y025995D02*
X053131Y025945D01*
X053081Y025995D02*
Y026202D01*
X053032Y026252D02*
X053081Y026202D01*
X052883Y026252D02*
X053032D01*
X052833Y026202D02*
X052883Y026252D01*
X052833Y025995D02*
Y026202D01*
X052784Y025945D02*
X052833Y025995D01*
X052635Y025945D02*
X052784D01*
X052585Y025995D02*
X052635Y025945D01*
X052585Y025995D02*
Y0262D01*
X052536Y02625D02*
X052585Y0262D01*
X052264Y02625D02*
X052536D01*
X054577D02*
X054646D01*
X04915D02*
X052264D01*
X055384Y028543D02*
Y028992D01*
X054646Y02625D02*
X055217Y026821D01*
X048268Y025226D02*
X048573D01*
X048169Y025325D02*
Y025703D01*
Y025325D02*
X048268Y025226D01*
X048169Y025703D02*
X048473Y026006D01*
X047921D02*
X04804D01*
X047805Y026122D02*
Y026358D01*
Y026122D02*
X047921Y026006D01*
X047805Y026358D02*
X048022Y026575D01*
X055315Y029833D02*
Y030128D01*
Y029833D02*
X055396Y029752D01*
X055593D01*
X048022Y026575D02*
X054449D01*
X047953Y026752D02*
X054331D01*
X047607Y026006D02*
Y026406D01*
X047953Y026752D01*
X048573Y025226D02*
X048681Y025335D01*
Y026214D01*
X048854Y026388D01*
X055236Y028363D02*
Y028553D01*
X055187Y028314D02*
X055236Y028363D01*
X055001Y028314D02*
X055187D01*
X054951Y028264D02*
X055001Y028314D01*
X054951Y028115D02*
Y028264D01*
Y028115D02*
X055001Y028066D01*
X055187D01*
X055236Y028016D01*
Y027992D02*
Y028016D01*
Y028553D02*
Y02912D01*
Y027106D02*
Y027992D01*
X055203Y030239D02*
X055315Y030128D01*
X054964Y030239D02*
X055203D01*
X054803Y030079D02*
X054964Y030239D01*
X056043Y030394D02*
X056506D01*
X055817Y030167D02*
X056043Y030394D01*
X055817Y029961D02*
Y030167D01*
Y029716D02*
Y029961D01*
Y029716D02*
X055867Y029666D01*
X056027D01*
X056077Y029617D01*
Y029468D02*
Y029617D01*
X056027Y029418D02*
X056077Y029468D01*
X055823Y029418D02*
X056027D01*
X055773Y029369D02*
X055823Y029418D01*
X055773Y02922D02*
Y029369D01*
Y02922D02*
X055823Y02917D01*
X056027D01*
X056077Y029121D01*
Y028972D02*
Y029121D01*
X056027Y028922D02*
X056077Y028972D01*
X055867Y028922D02*
X056027D01*
X055817Y028873D02*
X055867Y028922D01*
X055817Y028601D02*
Y028873D01*
Y027136D02*
Y028601D01*
X056506Y030394D02*
X05688Y030768D01*
X052648Y033258D02*
Y034331D01*
X052992Y032913D02*
X056142D01*
X052648Y033258D02*
X052992Y032913D01*
X052648Y034331D02*
X05435D01*
X036654Y04314D02*
Y04373D01*
X037023Y041531D02*
X037028Y041535D01*
X037023Y041423D02*
Y041531D01*
X036703Y041102D02*
X037023Y041423D01*
X052825Y033612D02*
X052953Y033484D01*
X056742Y031604D02*
X056841Y031703D01*
X045955Y026496D02*
X046308Y026849D01*
X045709Y026496D02*
X045955D01*
X04561Y026594D02*
X045709Y026496D01*
X053937Y02812D02*
X054272Y028455D01*
Y030305D01*
X054636Y030669D01*
X056358D01*
X056762Y031073D01*
X058159D01*
X054764Y030551D02*
X056467D01*
X05685Y030935D02*
X057963D01*
X056467Y030551D02*
X05685Y030935D01*
X05688Y030768D02*
X057805D01*
X058159Y031073D02*
X058612Y03062D01*
X054419Y028071D02*
Y030207D01*
X054764Y030551D01*
X057963Y030935D02*
X058209Y030689D01*
X057805Y030768D02*
X0581Y030472D01*
X057913Y030098D02*
Y030246D01*
X049942Y025404D02*
X054685D01*
X057648Y029262D02*
Y029833D01*
X057913Y030098D01*
X057343Y028957D02*
X057648Y029262D01*
X056919Y028957D02*
X057343D01*
X056575Y028612D02*
X056919Y028957D01*
X056575Y028219D02*
Y028612D01*
X056201Y027844D02*
X056575Y028219D01*
X056201Y026919D02*
Y027844D01*
X054685Y025404D02*
X056201Y026919D01*
X056836Y029119D02*
X05719D01*
X056422Y028351D02*
Y028706D01*
X056836Y029119D01*
X05719D02*
X057441Y02937D01*
X056014Y027943D02*
X056422Y028351D01*
X057441Y02937D02*
Y030079D01*
X056014Y026969D02*
Y027943D01*
X057431Y030384D02*
X057776D01*
X057244Y030197D02*
X057431Y030384D01*
X057776D02*
X057913Y030246D01*
X049339Y026006D02*
X049942Y025404D01*
X054606Y025561D02*
X056014Y026969D01*
X050217Y025561D02*
X054606D01*
X049772Y026006D02*
X050217Y025561D01*
X05439Y025709D02*
X055817Y027136D01*
X050503Y025709D02*
X05439D01*
X050205Y026006D02*
X050503Y025709D01*
X054636Y030148D02*
X054892Y030404D01*
X054636Y027057D02*
Y030148D01*
X054892Y030404D02*
X055364D01*
X054449Y026575D02*
X054803Y026929D01*
Y030079D01*
X055593Y030028D02*
Y030175D01*
X055364Y030404D02*
X055593Y030175D01*
X048854Y026388D02*
X054518D01*
X055236Y027106D01*
X054331Y026752D02*
X054636Y027057D01*
X055236Y02912D02*
X055593Y029476D01*
X055384Y028992D02*
X055593Y029201D01*
X048906Y026006D02*
X04915Y02625D01*
D177*
X042041Y035549D02*
X042186D01*
X041995Y035595D02*
X042041Y035549D01*
X041995Y035595D02*
Y035739D01*
X041948Y035786D02*
X041995Y035739D01*
X041808Y035786D02*
X041948D01*
X041762Y035739D02*
X041808Y035786D01*
X041762Y035595D02*
Y035739D01*
X041715Y035549D02*
X041762Y035595D01*
X041699Y035549D02*
X041715D01*
X041154D02*
X041699D01*
X042186D02*
X042229D01*
X043932Y040322D02*
Y04078D01*
Y040322D02*
X044023Y040231D01*
X043819Y040276D02*
Y040827D01*
X043932Y04078D02*
X044103Y040951D01*
X043819Y040276D02*
X043976Y040118D01*
X043819Y040827D02*
X044056Y041064D01*
X044103Y040951D02*
X044416D01*
X044056Y041064D02*
X044369D01*
X043976Y040118D02*
X044429D01*
X044023Y040231D02*
X044476D01*
X044641Y040066D01*
Y041176D02*
Y041895D01*
X044528Y041223D02*
Y041848D01*
X043066Y038499D02*
X043381D01*
X044641Y039759D01*
X044242Y042137D02*
X044294Y042085D01*
X04445D01*
X044213Y042137D02*
X044242D01*
X04445Y042085D02*
X044641Y041895D01*
X04253Y037854D02*
Y038211D01*
X042441Y039124D02*
X043066Y038499D01*
X04248Y03671D02*
Y037025D01*
Y03564D02*
Y035972D01*
X042372Y037697D02*
X04253Y037854D01*
X042305Y039124D02*
X042441D01*
X042052Y038689D02*
X04253Y038211D01*
X04188Y037697D02*
X042372D01*
X041818Y03717D02*
X042335D01*
X04248Y037025D01*
X042315Y036545D02*
X04248Y03671D01*
X041794Y036545D02*
X042315D01*
X042052Y038871D02*
X042305Y039124D01*
X042052Y038689D02*
Y038871D01*
X041747Y037564D02*
X04188Y037697D01*
X041747Y037242D02*
X041818Y03717D01*
X041767Y036518D02*
X041794Y036545D01*
X041747Y037242D02*
Y037564D01*
X041789Y036166D02*
X042286D01*
X04248Y035972D01*
X041767Y036189D02*
Y036518D01*
Y036189D02*
X041789Y036166D01*
X042276Y035436D02*
X04248Y03564D01*
X041154Y035436D02*
X042276D01*
X041083Y035364D02*
X041154Y035436D01*
X041073Y035364D02*
X041083D01*
X043113Y038612D02*
X043334D01*
X044528Y039805D01*
Y04002D01*
X044294Y041972D02*
X044403D01*
X044528Y041848D01*
X044242Y04192D02*
X044294Y041972D01*
X044213Y04192D02*
X044242D01*
X042488Y039237D02*
X043113Y038612D01*
X042417Y037901D02*
Y038164D01*
X042259Y039237D02*
X042488D01*
X041939Y038642D02*
X042417Y038164D01*
X042325Y03781D02*
X042417Y037901D01*
X042367Y036757D02*
Y036978D01*
X041833Y03781D02*
X042325D01*
X042289Y037057D02*
X042367Y036978D01*
X041939Y038917D02*
X042259Y039237D01*
X041939Y038642D02*
Y038917D01*
X041634Y037611D02*
X041833Y03781D01*
X041634Y037195D02*
Y037611D01*
X041772Y037057D02*
X042289D01*
X041747Y036658D02*
X042269D01*
X041634Y037195D02*
X041772Y037057D01*
X042269Y036658D02*
X042367Y036757D01*
X042239Y036053D02*
X042367Y035925D01*
X041654Y036565D02*
X041747Y036658D01*
X041742Y036053D02*
X042239D01*
X042367Y035687D02*
Y035925D01*
X042229Y035549D02*
X042367Y035687D01*
X041654Y036142D02*
Y036565D01*
Y036142D02*
X041742Y036053D01*
X041083Y03562D02*
X041154Y035549D01*
X041073Y03562D02*
X041083D01*
X044369Y041064D02*
X044528Y041223D01*
X044416Y040951D02*
X044641Y041176D01*
X044429Y040118D02*
X044528Y04002D01*
X044641Y039759D02*
Y040066D01*
X040802Y038016D02*
Y038297D01*
Y038016D02*
X040849Y037969D01*
X041007D01*
X041054Y037923D01*
Y037783D02*
Y037923D01*
X041007Y037736D02*
X041054Y037783D01*
X040849Y037736D02*
X041007D01*
X040802Y03769D02*
X040849Y037736D01*
X040802Y03744D02*
Y03769D01*
Y038297D02*
Y038634D01*
Y037367D02*
Y03744D01*
X04186Y042279D02*
Y04265D01*
X042298Y043088D02*
Y043657D01*
X04186Y04265D02*
X042298Y043088D01*
X042411Y043041D02*
Y04361D01*
X041973Y042603D02*
X042411Y043041D01*
X041973Y042326D02*
Y042603D01*
Y042326D02*
X042411Y041887D01*
X04186Y042279D02*
X042298Y041841D01*
Y041582D02*
Y041841D01*
X04279Y044148D02*
X043551D01*
X042298Y043657D02*
X04279Y044148D01*
X041107Y040831D02*
Y041238D01*
X041289Y04065D02*
X04234D01*
X041107Y040831D02*
X041289Y04065D01*
X04234D02*
X042466Y040524D01*
Y040362D02*
Y040524D01*
X041821Y039717D02*
X042466Y040362D01*
X041321Y041452D02*
X042168D01*
X042298Y041582D01*
X041107Y041238D02*
X041321Y041452D01*
X044183Y043317D02*
X044213D01*
X044023Y043265D02*
X044131D01*
X043551Y044148D02*
X043784Y043915D01*
Y043504D02*
Y043915D01*
Y043504D02*
X044023Y043265D01*
X044131D02*
X044183Y043317D01*
X041584Y039717D02*
X041821D01*
X041075Y040226D02*
X041584Y039717D01*
X040846Y040226D02*
X041075D01*
X040561Y039941D02*
X040846Y040226D01*
X040561Y039685D02*
X041039Y039207D01*
Y039031D02*
Y039207D01*
X040561Y039685D02*
Y039941D01*
X041063Y037096D02*
X041073D01*
X040689Y037321D02*
Y038681D01*
Y037321D02*
X040842Y037168D01*
X040689Y038681D02*
X041039Y039031D01*
X040991Y037168D02*
X041063Y037096D01*
X040842Y037168D02*
X040991D01*
X042411Y04361D02*
X042837Y044035D01*
X043504D01*
X04122Y040878D02*
X041336Y040763D01*
X042387D01*
X04122Y040878D02*
Y041191D01*
X041868Y039604D02*
X042579Y040315D01*
X042387Y040763D02*
X042579Y040571D01*
Y040315D02*
Y040571D01*
X041538Y039604D02*
X041868D01*
X042215Y041339D02*
X042411Y041535D01*
X041368Y041339D02*
X042215D01*
X044131Y043152D02*
X044183Y0431D01*
X044213D01*
X043976Y043152D02*
X044131D01*
X043504Y044035D02*
X043671Y043868D01*
Y043457D02*
X043976Y043152D01*
X043671Y043457D02*
Y043868D01*
X041028Y040113D02*
X041538Y039604D01*
X04122Y041191D02*
X041368Y041339D01*
X040674Y039894D02*
X040893Y040113D01*
X041028D01*
X040674Y039732D02*
X041152Y039254D01*
X040674Y039732D02*
Y039894D01*
X041152Y038984D02*
Y039254D01*
X040802Y038634D02*
X041152Y038984D01*
X040802Y037367D02*
X040888Y037281D01*
X040991D02*
X041063Y037352D01*
X041073D01*
X040888Y037281D02*
X040991D01*
X042411Y041535D02*
Y041887D01*
X039463Y036194D02*
Y03622D01*
Y036194D02*
X03951Y036147D01*
X03966D01*
X039707Y0361D01*
Y035961D02*
Y0361D01*
X03966Y035914D02*
X039707Y035961D01*
X03951Y035914D02*
X03966D01*
X039463Y035867D02*
X03951Y035914D01*
X039463Y035728D02*
Y035867D01*
Y035728D02*
X03951Y035681D01*
X03966D01*
X039707Y035634D01*
Y035495D02*
Y035634D01*
X03966Y035448D02*
X039707Y035495D01*
X03951Y035448D02*
X03966D01*
X039463Y035401D02*
X03951Y035448D01*
X039463Y035152D02*
Y035401D01*
Y03622D02*
Y036481D01*
Y035027D02*
Y035152D01*
X042884Y040187D02*
Y041713D01*
X041486Y038789D02*
X042884Y040187D01*
X041373Y038836D02*
X042771Y040234D01*
X041373Y037003D02*
Y038836D01*
X042771Y040234D02*
Y041759D01*
X041486Y036956D02*
Y038789D01*
X039614Y034877D02*
X040052D01*
X040541Y035366D01*
X039463Y035027D02*
X039614Y034877D01*
X039567Y034764D02*
X040098D01*
X040654Y03532D01*
X03935Y03498D02*
X039567Y034764D01*
X03935Y03498D02*
Y036528D01*
X039653Y036831D02*
X041201D01*
X03935Y036528D02*
X039653Y036831D01*
X0397Y036718D02*
X041248D01*
X039463Y036481D02*
X0397Y036718D01*
X040541Y035366D02*
Y036242D01*
X040654Y03532D02*
Y036196D01*
X043863Y041769D02*
Y041892D01*
X043169Y041998D02*
X043758D01*
X043863Y041892D01*
X043976Y041722D02*
Y041939D01*
X043804Y042111D02*
X043976Y041939D01*
X043122Y042111D02*
X043804D01*
X043838Y041584D02*
X043976Y041722D01*
X043349Y041697D02*
X043791D01*
X043349Y041584D02*
X043838D01*
X043791Y041697D02*
X043863Y041769D01*
X043298Y041532D02*
X043349Y041584D01*
X043268Y041532D02*
X043298D01*
X042771Y041759D02*
X043122Y042111D01*
X041201Y036831D02*
X041373Y037003D01*
X04076Y036302D02*
X040991D01*
X041063Y03623D01*
X041073D01*
X040654Y036196D02*
X04076Y036302D01*
X043298Y041749D02*
X043349Y041697D01*
X042884Y041713D02*
X043169Y041998D01*
X043268Y041749D02*
X043298D01*
X041248Y036718D02*
X041486Y036956D01*
X040991Y036415D02*
X041063Y036486D01*
X041073D01*
X040714Y036415D02*
X040991D01*
X040541Y036242D02*
X040714Y036415D01*
X044316Y03906D02*
X044951Y039695D01*
Y042343D01*
X044269Y039173D02*
X044838Y039742D01*
X044724Y042569D02*
X044951Y042343D01*
X044678Y042456D02*
X044838Y042296D01*
Y039742D02*
Y042296D01*
X043836Y042456D02*
X044678D01*
X043789Y042569D02*
X044724D01*
X043578Y042357D02*
X043789Y042569D01*
X043624Y042244D02*
X043836Y042456D01*
X042785Y042244D02*
X043624D01*
X042657Y042372D02*
X042785Y042244D01*
X04277Y042419D02*
X042832Y042357D01*
X043578D01*
X042657Y042372D02*
Y042717D01*
X040726Y035138D02*
X042441D01*
X042498D01*
X04277Y042419D02*
Y04267D01*
X042318Y035025D02*
X042441D01*
X042271Y034978D02*
X042318Y035025D01*
X042271Y03483D02*
Y034978D01*
X042225Y034784D02*
X042271Y03483D01*
X042085Y034784D02*
X042225D01*
X042038Y03483D02*
X042085Y034784D01*
X042038Y03483D02*
Y034978D01*
X041992Y035025D02*
X042038Y034978D01*
X041742Y035025D02*
X041992D01*
X042441D02*
X042544D01*
X040773D02*
X041742D01*
X040605Y034759D02*
X040681Y034682D01*
X040492Y034712D02*
Y034904D01*
X040605Y034857D02*
X040773Y035025D01*
X040605Y034759D02*
Y034857D01*
X040492Y034904D02*
X040726Y035138D01*
X040492Y034712D02*
X040635Y034569D01*
X040991D01*
X040681Y034682D02*
X040991D01*
X04277Y035251D02*
Y037515D01*
X042498Y035138D02*
X042657Y035298D01*
Y037561D01*
X042544Y035025D02*
X04277Y035251D01*
X044316Y03906D02*
X044316D01*
X042657Y037561D02*
X044269Y039173D01*
X04277Y037515D02*
X044316Y03906D01*
X044269Y039173D02*
X044269D01*
X04277Y04267D02*
X042865Y042764D01*
X042657Y042717D02*
X042818Y042877D01*
X042865Y042764D02*
X042955D01*
X042818Y042877D02*
X043002D01*
X041063Y034498D02*
X041073D01*
X040991Y034569D02*
X041063Y034498D01*
X041063Y034754D02*
X041073D01*
X040991Y034682D02*
X041063Y034754D01*
X043238Y042712D02*
X043268D01*
X043186Y042877D02*
X043238Y042929D01*
X043268D01*
X042955Y042764D02*
X042955Y042764D01*
X043186D01*
X043238Y042712D01*
X043002Y042877D02*
X043186D01*
X043002Y042877D02*
X043002Y042877D01*
X043037Y034926D02*
Y037448D01*
X04528Y039532D02*
Y042409D01*
X04315Y03488D02*
Y037402D01*
X043037Y037448D02*
X045167Y039579D01*
X04315Y037402D02*
X04528Y039532D01*
X045167Y039579D02*
Y042362D01*
X041973Y033703D02*
X04315Y03488D01*
X041927Y033816D02*
X043037Y034926D01*
X042881Y043272D02*
X04362D01*
X042815Y043339D02*
X042881Y043272D01*
X042702Y043292D02*
Y043551D01*
X042815Y043339D02*
Y043504D01*
X042702Y043292D02*
X042835Y043159D01*
X043573D01*
X042702Y043551D02*
X042818Y043667D01*
X04362Y043272D02*
X044063Y04283D01*
X041073Y033888D02*
X041083D01*
X041154Y033816D02*
X041927D01*
X041083Y033888D02*
X041154Y033816D01*
Y033703D02*
X041973D01*
X041073Y033632D02*
X041083D01*
X041154Y033703D01*
X043186Y043667D02*
X043238Y043719D01*
X043268D01*
X042865Y043554D02*
X043186D01*
X043238Y043502D01*
X043268D01*
X042818Y043667D02*
X043186D01*
X042815Y043504D02*
X042865Y043554D01*
X043573Y043159D02*
X044016Y042717D01*
X044063Y04283D02*
X04486D01*
X044016Y042717D02*
X044813D01*
X045167Y042362D01*
X04486Y04283D02*
X04528Y042409D01*
D183*
X047827Y016139D02*
D03*
X057047D02*
D03*
D189*
X054738Y041413D02*
D03*
X054339Y044413D02*
D03*
X055138D02*
D03*
D190*
X058858Y043892D02*
D03*
Y046648D02*
D03*
D202*
X057972Y032589D02*
D03*
X041732Y046102D02*
D03*
X039331Y046496D02*
D03*
X059467Y026615D02*
D03*
X046102Y020472D02*
D03*
X04685Y04D02*
D03*
X037323Y026654D02*
D03*
Y027441D02*
D03*
Y027047D02*
D03*
X036929Y027441D02*
D03*
Y026654D02*
D03*
Y027047D02*
D03*
X032314Y025088D02*
D03*
X032283Y019055D02*
D03*
Y018661D02*
D03*
X032323Y024631D02*
D03*
X031956Y025083D02*
D03*
X03185Y019055D02*
D03*
X031965Y024625D02*
D03*
D203*
X054252Y030945D02*
D03*
X054409Y031102D02*
D03*
X054646D02*
D03*
X051457Y033819D02*
D03*
X051575Y033661D02*
D03*
X051339D02*
D03*
X044508Y029213D02*
D03*
X045236Y045827D02*
D03*
X045D02*
D03*
X045354Y045591D02*
D03*
X045118D02*
D03*
X044882D02*
D03*
X057126Y039646D02*
D03*
X055571Y036043D02*
D03*
X033583Y027008D02*
D03*
X044213Y042137D02*
D03*
X041073Y035364D02*
D03*
X044213Y04192D02*
D03*
X041073Y03562D02*
D03*
X043248Y020669D02*
D03*
X043051D02*
D03*
X043661Y036929D02*
D03*
X030827Y039409D02*
D03*
Y039606D02*
D03*
X037283Y039331D02*
D03*
X044213Y043317D02*
D03*
X041073Y037096D02*
D03*
X044213Y0431D02*
D03*
X041073Y037352D02*
D03*
X043268Y041532D02*
D03*
X041073Y03623D02*
D03*
X043268Y041749D02*
D03*
X041073Y036486D02*
D03*
Y034498D02*
D03*
Y034754D02*
D03*
X043268Y042712D02*
D03*
Y042929D02*
D03*
X037953Y031181D02*
D03*
Y031417D02*
D03*
X037717D02*
D03*
Y031181D02*
D03*
X059872Y02998D02*
D03*
X046614Y024341D02*
D03*
X043061Y024055D02*
D03*
X043199Y024242D02*
D03*
X05185Y028809D02*
D03*
X056142Y032913D02*
D03*
X039843Y045551D02*
D03*
Y045787D02*
D03*
X036526Y039921D02*
D03*
X036654Y04314D02*
D03*
Y04373D02*
D03*
X037057Y040157D02*
D03*
X037087Y03815D02*
D03*
X03154Y040518D02*
D03*
X036526Y040157D02*
D03*
X036496Y040384D02*
D03*
X062598Y034498D02*
D03*
X052825Y033612D02*
D03*
X052648Y034331D02*
D03*
X056841Y031703D02*
D03*
X059413Y027357D02*
D03*
X046082Y021201D02*
D03*
X059352Y03028D02*
D03*
X045856Y024006D02*
D03*
X058602Y030876D02*
D03*
X045876Y026847D02*
D03*
X046308Y026849D02*
D03*
X0581Y030472D02*
D03*
X058612Y03062D02*
D03*
X058209Y030689D02*
D03*
X057244Y030197D02*
D03*
X057441Y030079D02*
D03*
X049339Y026006D02*
D03*
X049772D02*
D03*
X050205D02*
D03*
X048906D02*
D03*
X048473D02*
D03*
X04804D02*
D03*
X047607D02*
D03*
X030069Y035797D02*
D03*
X030866Y030945D02*
D03*
Y032362D02*
D03*
X036795Y037955D02*
D03*
X041073Y033888D02*
D03*
Y033632D02*
D03*
X043268Y043719D02*
D03*
Y043502D02*
D03*
X057657Y039004D02*
D03*
X057815Y039161D02*
D03*
X057539D02*
D03*
X035118Y034685D02*
D03*
X03939Y040059D02*
D03*
Y041634D02*
D03*
Y043209D02*
D03*
X048307Y042106D02*
D03*
X048504Y044528D02*
D03*
X048898D02*
D03*
X049173D02*
D03*
X049528Y044646D02*
D03*
X048701Y043602D02*
D03*
X056791Y028081D02*
D03*
X055593Y030028D02*
D03*
Y029752D02*
D03*
Y029476D02*
D03*
Y029201D02*
D03*
X045118Y020187D02*
D03*
X043386Y021919D02*
D03*
X036703Y041102D02*
D03*
X037028Y041535D02*
D03*
X03686Y03936D02*
D03*
X036909Y036929D02*
D03*
X036713D02*
D03*
X033583Y03625D02*
D03*
X032667Y03624D02*
D03*
X055315Y04185D02*
D03*
X05685Y038652D02*
D03*
X059833Y035325D02*
D03*
X059803Y03937D02*
D03*
X051772Y046772D02*
D03*
X044961Y046929D02*
D03*
X040354Y047038D02*
D03*
D204*
X053337Y041614D02*
D03*
X057313Y027126D02*
D03*
X043927Y020994D02*
D03*
M02*
