G04*
G04 #@! TF.GenerationSoftware,Altium Limited,Altium Designer,18.1.6 (161)*
G04*
G04 Layer_Color=2752767*
%FSTAX24Y24*%
%MOIN*%
G70*
G01*
G75*
%ADD214C,0.0020*%
%ADD215C,0.0027*%
%ADD216C,0.0013*%
D214*
X050307Y021159D02*
Y021319D01*
X050467D01*
Y021159D01*
X050307D01*
X049507D02*
Y021319D01*
X049667D01*
Y021159D01*
X049507D01*
X052307Y022159D02*
Y022319D01*
X052467D01*
Y022159D01*
X052307D01*
X051507D02*
Y022319D01*
X051667D01*
Y022159D01*
X051507D01*
X052707Y021159D02*
Y021319D01*
X052867D01*
Y021159D01*
X052707D01*
X048707D02*
Y021319D01*
X048867D01*
Y021159D01*
X048707D01*
X053107Y022159D02*
Y022319D01*
X053267D01*
Y022159D01*
X053107D01*
X048307D02*
Y022319D01*
X048467D01*
Y022159D01*
X048307D01*
X047327Y018559D02*
X047247Y018719D01*
X047407D01*
X047327Y018559D01*
X054247D02*
X054167Y018719D01*
X054327D01*
X054247Y018559D01*
X052687D02*
X052727Y018599D01*
X052767D01*
X052727Y018639D01*
X052767Y018679D01*
X052727D01*
X052687Y018719D01*
X052647Y018679D01*
X052607D01*
X052647Y018639D01*
X052607Y018599D01*
X052647D01*
X052687Y018559D01*
X048887D02*
X048927Y018599D01*
X048967D01*
X048927Y018639D01*
X048967Y018679D01*
X048927D01*
X048887Y018719D01*
X048847Y018679D01*
X048807D01*
X048847Y018639D01*
X048807Y018599D01*
X048847D01*
X048887Y018559D01*
X051107Y021159D02*
Y021319D01*
X051267D01*
Y021159D01*
X051107D01*
X051907D02*
Y021319D01*
X052067D01*
Y021159D01*
X051907D01*
X049107Y022159D02*
Y022319D01*
X049267D01*
Y022159D01*
X049107D01*
X049907D02*
Y022319D01*
X050067D01*
Y022159D01*
X049907D01*
X028629Y032912D02*
Y033072D01*
X028789D01*
Y032912D01*
X028629D01*
X029629D02*
Y033072D01*
X029789D01*
Y032912D01*
X029629D01*
X030629D02*
Y033072D01*
X030789D01*
Y032912D01*
X030629D01*
X031629D02*
Y033072D01*
X031789D01*
Y032912D01*
X031629D01*
X031644Y030274D02*
Y030434D01*
X031804D01*
Y030274D01*
X031644D01*
X030644D02*
Y030434D01*
X030804D01*
Y030274D01*
X030644D01*
X029644D02*
Y030434D01*
X029804D01*
Y030274D01*
X029644D01*
X028644D02*
Y030434D01*
X028804D01*
Y030274D01*
X028644D01*
X029629Y034526D02*
Y034686D01*
X029789D01*
Y034526D01*
X029629D01*
X030629D02*
Y034686D01*
X030789D01*
Y034526D01*
X030629D01*
X031629D02*
Y034686D01*
X031789D01*
Y034526D01*
X031629D01*
X059527Y021159D02*
Y021319D01*
X059687D01*
Y021159D01*
X059527D01*
X058727D02*
Y021319D01*
X058887D01*
Y021159D01*
X058727D01*
X061527Y022159D02*
Y022319D01*
X061687D01*
Y022159D01*
X061527D01*
X060727D02*
Y022319D01*
X060887D01*
Y022159D01*
X060727D01*
X061927Y021159D02*
Y021319D01*
X062087D01*
Y021159D01*
X061927D01*
X057927D02*
Y021319D01*
X058087D01*
Y021159D01*
X057927D01*
X062327Y022159D02*
Y022319D01*
X062487D01*
Y022159D01*
X062327D01*
X057527D02*
Y022319D01*
X057687D01*
Y022159D01*
X057527D01*
X056547Y018559D02*
X056467Y018719D01*
X056627D01*
X056547Y018559D01*
X063467D02*
X063387Y018719D01*
X063547D01*
X063467Y018559D01*
X061907D02*
X061947Y018599D01*
X061987D01*
X061947Y018639D01*
X061987Y018679D01*
X061947D01*
X061907Y018719D01*
X061867Y018679D01*
X061827D01*
X061867Y018639D01*
X061827Y018599D01*
X061867D01*
X061907Y018559D01*
X058107D02*
X058147Y018599D01*
X058187D01*
X058147Y018639D01*
X058187Y018679D01*
X058147D01*
X058107Y018719D01*
X058067Y018679D01*
X058027D01*
X058067Y018639D01*
X058027Y018599D01*
X058067D01*
X058107Y018559D01*
X060327Y021159D02*
Y021319D01*
X060487D01*
Y021159D01*
X060327D01*
X061127D02*
Y021319D01*
X061287D01*
Y021159D01*
X061127D01*
X058327Y022159D02*
Y022319D01*
X058487D01*
Y022159D01*
X058327D01*
X059127D02*
Y022319D01*
X059287D01*
Y022159D01*
X059127D01*
X062951Y024723D02*
X062991Y024803D01*
X062951Y024883D01*
X063032Y024843D01*
X063112Y024883D01*
X063071Y024803D01*
X063112Y024723D01*
X063032Y024763D01*
X062951Y024723D01*
X054698Y041373D02*
Y041333D01*
X054778D01*
Y041373D01*
X054818D01*
Y041453D01*
X054778D01*
Y041493D01*
X054698D01*
Y041453D01*
X054658D01*
Y041373D01*
X054698D01*
X054299Y044373D02*
Y044333D01*
X054379D01*
Y044373D01*
X054419D01*
Y044453D01*
X054379D01*
Y044493D01*
X054299D01*
Y044453D01*
X054259D01*
Y044373D01*
X054299D01*
X055098D02*
Y044333D01*
X055178D01*
Y044373D01*
X055218D01*
Y044453D01*
X055178D01*
Y044493D01*
X055098D01*
Y044453D01*
X055058D01*
Y044373D01*
X055098D01*
X058778Y043812D02*
X058818D01*
X058858Y043852D01*
X058898Y043812D01*
X058938D01*
Y043852D01*
X058898Y043892D01*
X058938Y043932D01*
Y043972D01*
X058898D01*
X058858Y043932D01*
X058818Y043972D01*
X058778D01*
Y043932D01*
X058818Y043892D01*
X058778Y043852D01*
Y043812D01*
Y046568D02*
X058818D01*
X058858Y046608D01*
X058898Y046568D01*
X058938D01*
Y046608D01*
X058898Y046648D01*
X058938Y046688D01*
Y046728D01*
X058898D01*
X058858Y046688D01*
X058818Y046728D01*
X058778D01*
Y046688D01*
X058818Y046648D01*
X058778Y046608D01*
Y046568D01*
X030975Y014528D02*
X031055Y014608D01*
X031135Y014528D01*
X031055Y014448D01*
X030975Y014528D01*
X034377D02*
X034457Y014608D01*
X034537Y014528D01*
X034457Y014448D01*
X034377Y014528D01*
X030975Y016093D02*
Y016253D01*
X031135D01*
Y016093D01*
X030975D01*
X031015Y016133D02*
Y016213D01*
X031095D01*
Y016133D01*
X031015D01*
X034377Y016093D02*
Y016253D01*
X034537D01*
Y016093D01*
X034377D01*
X034417Y016133D02*
Y016213D01*
X034497D01*
Y016133D01*
X034417D01*
X039252Y018428D02*
X039172Y018588D01*
X039332D01*
X039252Y018428D01*
Y018468D02*
X039212Y018548D01*
X039292D01*
X039252Y018468D01*
X040236Y018428D02*
X040156Y018588D01*
X040316D01*
X040236Y018428D01*
Y018468D02*
X040196Y018548D01*
X040276D01*
X040236Y018468D01*
X041024Y018428D02*
X040944Y018588D01*
X041104D01*
X041024Y018428D01*
Y018468D02*
X040984Y018548D01*
X041064D01*
X041024Y018468D01*
X042008Y018428D02*
X041928Y018588D01*
X042088D01*
X042008Y018428D01*
Y018468D02*
X041968Y018548D01*
X042048D01*
X042008Y018468D01*
X038043Y017361D02*
X038083Y017401D01*
X038123D01*
X038083Y017441D01*
X038123Y017481D01*
X038083D01*
X038043Y017521D01*
X038003Y017481D01*
X037963D01*
X038003Y017441D01*
X037963Y017401D01*
X038003D01*
X038043Y017361D01*
Y017401D02*
X038063Y017421D01*
X038083D01*
X038063Y017441D01*
X038083Y017461D01*
X038063D01*
X038043Y017481D01*
X038023Y017461D01*
X038003D01*
X038023Y017441D01*
X038003Y017421D01*
X038023D01*
X038043Y017401D01*
X043217Y017361D02*
X043257Y017401D01*
X043297D01*
X043257Y017441D01*
X043297Y017481D01*
X043257D01*
X043217Y017521D01*
X043177Y017481D01*
X043137D01*
X043177Y017441D01*
X043137Y017401D01*
X043177D01*
X043217Y017361D01*
Y017401D02*
X043237Y017421D01*
X043257D01*
X043237Y017441D01*
X043257Y017461D01*
X043237D01*
X043217Y017481D01*
X043197Y017461D01*
X043177D01*
X043197Y017441D01*
X043177Y017421D01*
X043197D01*
X043217Y017401D01*
X029093Y014487D02*
X029133Y014567D01*
X029093Y014647D01*
X029173Y014607D01*
X029253Y014647D01*
X029213Y014567D01*
X029253Y014487D01*
X029173Y014527D01*
X029093Y014487D01*
X063552Y037646D02*
X063592Y037726D01*
X063552Y037806D01*
X063632Y037766D01*
X063712Y037806D01*
X063672Y037726D01*
X063712Y037646D01*
X063632Y037686D01*
X063552Y037646D01*
X063592Y037686D02*
X063612Y037726D01*
X063592Y037766D01*
X063632Y037746D01*
X063672Y037766D01*
X063652Y037726D01*
X063672Y037686D01*
X063632Y037706D01*
X063592Y037686D01*
X063552Y038798D02*
X063592Y038878D01*
X063552Y038958D01*
X063632Y038918D01*
X063712Y038958D01*
X063672Y038878D01*
X063712Y038798D01*
X063632Y038838D01*
X063552Y038798D01*
X063592Y038838D02*
X063612Y038878D01*
X063592Y038918D01*
X063632Y038898D01*
X063672Y038918D01*
X063652Y038878D01*
X063672Y038838D01*
X063632Y038858D01*
X063592Y038838D01*
X063552Y036505D02*
X063592Y036585D01*
X063552Y036665D01*
X063632Y036625D01*
X063712Y036665D01*
X063672Y036585D01*
X063712Y036505D01*
X063632Y036545D01*
X063552Y036505D01*
X063592Y036545D02*
X063612Y036585D01*
X063592Y036625D01*
X063632Y036605D01*
X063672Y036625D01*
X063652Y036585D01*
X063672Y036545D01*
X063632Y036565D01*
X063592Y036545D01*
X031909Y045029D02*
Y044989D01*
X031989D01*
Y045029D01*
X032029D01*
Y045109D01*
X031989D01*
Y045149D01*
X031909D01*
Y045109D01*
X031869D01*
Y045029D01*
X031909D01*
X031929Y045049D02*
Y045029D01*
X031969D01*
Y045049D01*
X031989D01*
Y045089D01*
X031969D01*
Y045109D01*
X031929D01*
Y045089D01*
X031909D01*
Y045049D01*
X031929D01*
X037617Y045029D02*
Y044989D01*
X037697D01*
Y045029D01*
X037737D01*
Y045109D01*
X037697D01*
Y045149D01*
X037617D01*
Y045109D01*
X037577D01*
Y045029D01*
X037617D01*
X037637Y045049D02*
Y045029D01*
X037677D01*
Y045049D01*
X037697D01*
Y045089D01*
X037677D01*
Y045109D01*
X037637D01*
Y045089D01*
X037617D01*
Y045049D01*
X037637D01*
X037577Y047335D02*
X037617D01*
X037657Y047375D01*
X037697Y047335D01*
X037737D01*
Y047375D01*
X037697Y047415D01*
X037737Y047455D01*
Y047495D01*
X037697D01*
X037657Y047455D01*
X037617Y047495D01*
X037577D01*
Y047455D01*
X037617Y047415D01*
X037577Y047375D01*
Y047335D01*
X037617Y047375D02*
X037637D01*
X037657Y047395D01*
X037677Y047375D01*
X037697D01*
Y047395D01*
X037677Y047415D01*
X037697Y047435D01*
Y047455D01*
X037677D01*
X037657Y047435D01*
X037637Y047455D01*
X037617D01*
Y047435D01*
X037637Y047415D01*
X037617Y047395D01*
Y047375D01*
X031869Y047335D02*
X031909D01*
X031949Y047375D01*
X031989Y047335D01*
X032029D01*
Y047375D01*
X031989Y047415D01*
X032029Y047455D01*
Y047495D01*
X031989D01*
X031949Y047455D01*
X031909Y047495D01*
X031869D01*
Y047455D01*
X031909Y047415D01*
X031869Y047375D01*
Y047335D01*
X031909Y047375D02*
X031929D01*
X031949Y047395D01*
X031969Y047375D01*
X031989D01*
Y047395D01*
X031969Y047415D01*
X031989Y047435D01*
Y047455D01*
X031969D01*
X031949Y047435D01*
X031929Y047455D01*
X031909D01*
Y047435D01*
X031929Y047415D01*
X031909Y047395D01*
Y047375D01*
X029093Y047951D02*
X029133Y048032D01*
X029093Y048112D01*
X029173Y048071D01*
X029253Y048112D01*
X029213Y048032D01*
X029253Y047951D01*
X029173Y047991D01*
X029093Y047951D01*
X062951D02*
X062991Y048032D01*
X062951Y048112D01*
X063032Y048071D01*
X063112Y048112D01*
X063071Y048032D01*
X063112Y047951D01*
X063032Y047991D01*
X062951Y047951D01*
X041904Y048503D02*
Y048663D01*
X042064D01*
Y048503D01*
X041904D01*
X040904D02*
Y048663D01*
X041064D01*
Y048503D01*
X040904D01*
X039904D02*
Y048663D01*
X040064D01*
Y048503D01*
X039904D01*
X038904D02*
Y048663D01*
X039064D01*
Y048503D01*
X038904D01*
X048251D02*
Y048663D01*
X048411D01*
Y048503D01*
X048251D01*
X047251D02*
Y048663D01*
X047411D01*
Y048503D01*
X047251D01*
X046251D02*
Y048663D01*
X046411D01*
Y048503D01*
X046251D01*
X045251D02*
Y048663D01*
X045411D01*
Y048503D01*
X045251D01*
X044251D02*
Y048663D01*
X044411D01*
Y048503D01*
X044251D01*
X043251D02*
Y048663D01*
X043411D01*
Y048503D01*
X043251D01*
X049677Y048583D02*
Y048716D01*
X049744Y048783D01*
X04981Y048716D01*
Y048583D01*
Y048683D01*
X049677D01*
X051677Y048583D02*
Y048716D01*
X051744Y048783D01*
X05181Y048716D01*
Y048583D01*
Y048683D01*
X051677D01*
X055677Y048583D02*
Y048716D01*
X055744Y048783D01*
X05581Y048716D01*
Y048583D01*
Y048683D01*
X055677D01*
X054677Y048583D02*
Y048716D01*
X054744Y048783D01*
X05481Y048716D01*
Y048583D01*
Y048683D01*
X054677D01*
X053677Y048583D02*
Y048716D01*
X053744Y048783D01*
X05381Y048716D01*
Y048583D01*
Y048683D01*
X053677D01*
X052677Y048583D02*
Y048716D01*
X052744Y048783D01*
X05281Y048716D01*
Y048583D01*
Y048683D01*
X052677D01*
X050677Y048583D02*
Y048716D01*
X050744Y048783D01*
X05081Y048716D01*
Y048583D01*
Y048683D01*
X050677D01*
X055846Y033212D02*
Y033012D01*
X055946D01*
X05598Y033045D01*
Y033078D01*
X055946Y033112D01*
X055846D01*
X055946D01*
X05598Y033145D01*
Y033178D01*
X055946Y033212D01*
X055846D01*
X05623Y033025D02*
Y032825D01*
X05633D01*
X056364Y032858D01*
Y032891D01*
X05633Y032925D01*
X05623D01*
X05633D01*
X056364Y032958D01*
Y032991D01*
X05633Y033025D01*
X05623D01*
X059498Y033694D02*
Y033494D01*
X059598D01*
X059631Y033527D01*
Y033561D01*
X059598Y033594D01*
X059498D01*
X059598D01*
X059631Y033627D01*
Y033661D01*
X059598Y033694D01*
X059498D01*
X05752Y031824D02*
Y031624D01*
X05762D01*
X057653Y031657D01*
Y031691D01*
X05762Y031724D01*
X05752D01*
X05762D01*
X057653Y031757D01*
Y031791D01*
X05762Y031824D01*
X05752D01*
X056929Y036539D02*
Y036339D01*
X057029D01*
X057062Y036372D01*
Y036405D01*
X057029Y036439D01*
X056929D01*
X057029D01*
X057062Y036472D01*
Y036505D01*
X057029Y036539D01*
X056929D01*
Y036342D02*
Y036142D01*
X057029D01*
X057062Y036175D01*
Y036208D01*
X057029Y036242D01*
X056929D01*
X057029D01*
X057062Y036275D01*
Y036308D01*
X057029Y036342D01*
X056929D01*
X054252Y031145D02*
Y030945D01*
X054352D01*
X054385Y030978D01*
Y031012D01*
X054352Y031045D01*
X054252D01*
X054352D01*
X054385Y031078D01*
Y031111D01*
X054352Y031145D01*
X054252D01*
X054409Y031302D02*
Y031102D01*
X054509D01*
X054543Y031136D01*
Y031169D01*
X054509Y031202D01*
X054409D01*
X054509D01*
X054543Y031236D01*
Y031269D01*
X054509Y031302D01*
X054409D01*
X054646D02*
Y031102D01*
X054746D01*
X054779Y031136D01*
Y031169D01*
X054746Y031202D01*
X054646D01*
X054746D01*
X054779Y031236D01*
Y031269D01*
X054746Y031302D01*
X054646D01*
X040128Y028891D02*
Y028691D01*
X040228D01*
X040261Y028724D01*
Y028758D01*
X040228Y028791D01*
X040128D01*
X040228D01*
X040261Y028824D01*
Y028858D01*
X040228Y028891D01*
X040128D01*
Y028635D02*
Y028435D01*
X040228D01*
X040261Y028468D01*
Y028502D01*
X040228Y028535D01*
X040128D01*
X040228D01*
X040261Y028568D01*
Y028602D01*
X040228Y028635D01*
X040128D01*
X039528Y023861D02*
Y023661D01*
X039628D01*
X039661Y023695D01*
Y023728D01*
X039628Y023761D01*
X039528D01*
X039628D01*
X039661Y023795D01*
Y023828D01*
X039628Y023861D01*
X039528D01*
X039346Y024379D02*
X039313Y024413D01*
X039246D01*
X039213Y024379D01*
Y024246D01*
X039246Y024213D01*
X039313D01*
X039346Y024246D01*
X041094Y020718D02*
Y020518D01*
X041194D01*
X041227Y020551D01*
Y020585D01*
X041194Y020618D01*
X041094D01*
X041194D01*
X041227Y020651D01*
Y020685D01*
X041194Y020718D01*
X041094D01*
X040433Y021578D02*
Y021378D01*
X040533D01*
X040566Y021411D01*
Y021445D01*
X040533Y021478D01*
X040433D01*
X040533D01*
X040566Y021511D01*
Y021545D01*
X040533Y021578D01*
X040433D01*
X041369Y020718D02*
Y020518D01*
X041469D01*
X041502Y020551D01*
Y020585D01*
X041469Y020618D01*
X041369D01*
X041469D01*
X041502Y020651D01*
Y020685D01*
X041469Y020718D01*
X041369D01*
X040709Y021578D02*
Y021378D01*
X040809D01*
X040842Y021411D01*
Y021445D01*
X040809Y021478D01*
X040709D01*
X040809D01*
X040842Y021511D01*
Y021545D01*
X040809Y021578D01*
X040709D01*
X040118Y032011D02*
Y031811D01*
X040218D01*
X040251Y031844D01*
Y031878D01*
X040218Y031911D01*
X040118D01*
X040218D01*
X040251Y031944D01*
Y031978D01*
X040218Y032011D01*
X040118D01*
X044911Y028763D02*
Y028563D01*
X045011D01*
X045045Y028596D01*
Y02863D01*
X045011Y028663D01*
X044911D01*
X045011D01*
X045045Y028696D01*
Y02873D01*
X045011Y028763D01*
X044911D01*
X045157Y028271D02*
Y028071D01*
X045257D01*
X045291Y028104D01*
Y028138D01*
X045257Y028171D01*
X045157D01*
X045257D01*
X045291Y028204D01*
Y028237D01*
X045257Y028271D01*
X045157D01*
X052795Y029413D02*
Y029213D01*
X052895D01*
X052929Y029246D01*
Y029279D01*
X052895Y029313D01*
X052795D01*
X052895D01*
X052929Y029346D01*
Y029379D01*
X052895Y029413D01*
X052795D01*
X052205Y030042D02*
Y029843D01*
X052305D01*
X052338Y029876D01*
Y029909D01*
X052305Y029942D01*
X052205D01*
X052305D01*
X052338Y029976D01*
Y030009D01*
X052305Y030042D01*
X052205D01*
X05811Y029491D02*
Y029291D01*
X05821D01*
X058244Y029325D01*
Y029358D01*
X05821Y029391D01*
X05811D01*
X05821D01*
X058244Y029425D01*
Y029458D01*
X05821Y029491D01*
X05811D01*
X055039Y032365D02*
Y032165D01*
X055139D01*
X055173Y032199D01*
Y032232D01*
X055139Y032265D01*
X055039D01*
X055139D01*
X055173Y032299D01*
Y032332D01*
X055139Y032365D01*
X055039D01*
X055315Y031263D02*
Y031063D01*
X055415D01*
X055448Y031096D01*
Y03113D01*
X055415Y031163D01*
X055315D01*
X055415D01*
X055448Y031196D01*
Y03123D01*
X055415Y031263D01*
X055315D01*
X051457Y034019D02*
Y033819D01*
X051557D01*
X05159Y033852D01*
Y033886D01*
X051557Y033919D01*
X051457D01*
X051557D01*
X05159Y033952D01*
Y033986D01*
X051557Y034019D01*
X051457D01*
X051575Y033861D02*
Y033661D01*
X051675D01*
X051708Y033695D01*
Y033728D01*
X051675Y033761D01*
X051575D01*
X051675D01*
X051708Y033795D01*
Y033828D01*
X051675Y033861D01*
X051575D01*
X051339D02*
Y033661D01*
X051439D01*
X051472Y033695D01*
Y033728D01*
X051439Y033761D01*
X051339D01*
X051439D01*
X051472Y033795D01*
Y033828D01*
X051439Y033861D01*
X051339D01*
X044508Y029668D02*
Y029469D01*
X044608D01*
X044641Y029502D01*
Y029535D01*
X044608Y029568D01*
X044508D01*
X044608D01*
X044641Y029602D01*
Y029635D01*
X044608Y029668D01*
X044508D01*
Y029413D02*
Y029213D01*
X044608D01*
X044641Y029246D01*
Y029279D01*
X044608Y029313D01*
X044508D01*
X044608D01*
X044641Y029346D01*
Y029379D01*
X044608Y029413D01*
X044508D01*
X045236Y046027D02*
Y045827D01*
X045336D01*
X04537Y04586D01*
Y045893D01*
X045336Y045927D01*
X045236D01*
X045336D01*
X04537Y04596D01*
Y045993D01*
X045336Y046027D01*
X045236D01*
X045D02*
Y045827D01*
X0451D01*
X045133Y04586D01*
Y045893D01*
X0451Y045927D01*
X045D01*
X0451D01*
X045133Y04596D01*
Y045993D01*
X0451Y046027D01*
X045D01*
X045354Y04579D02*
Y045591D01*
X045454D01*
X045488Y045624D01*
Y045657D01*
X045454Y045691D01*
X045354D01*
X045454D01*
X045488Y045724D01*
Y045757D01*
X045454Y04579D01*
X045354D01*
X045118D02*
Y045591D01*
X045218D01*
X045251Y045624D01*
Y045657D01*
X045218Y045691D01*
X045118D01*
X045218D01*
X045251Y045724D01*
Y045757D01*
X045218Y04579D01*
X045118D01*
X044882D02*
Y045591D01*
X044982D01*
X045015Y045624D01*
Y045657D01*
X044982Y045691D01*
X044882D01*
X044982D01*
X045015Y045724D01*
Y045757D01*
X044982Y04579D01*
X044882D01*
X045591Y04394D02*
Y04374D01*
X045691D01*
X045724Y043773D01*
Y043807D01*
X045691Y04384D01*
X045591D01*
X045691D01*
X045724Y043873D01*
Y043907D01*
X045691Y04394D01*
X045591D01*
X045354D02*
Y04374D01*
X045454D01*
X045488Y043773D01*
Y043807D01*
X045454Y04384D01*
X045354D01*
X045454D01*
X045488Y043873D01*
Y043907D01*
X045454Y04394D01*
X045354D01*
X057126Y039846D02*
Y039646D01*
X057226D01*
X057259Y039679D01*
Y039712D01*
X057226Y039746D01*
X057126D01*
X057226D01*
X057259Y039779D01*
Y039812D01*
X057226Y039846D01*
X057126D01*
X041866Y046269D02*
X041832Y046302D01*
X041766D01*
X041732Y046269D01*
Y046136D01*
X041766Y046102D01*
X041832D01*
X041866Y046136D01*
X039464Y046663D02*
X039431Y046696D01*
X039364D01*
X039331Y046663D01*
Y046529D01*
X039364Y046496D01*
X039431D01*
X039464Y046529D01*
X053337Y041814D02*
Y041614D01*
X053437D01*
X05347Y041648D01*
Y041781D01*
X053437Y041814D01*
X053337D01*
X055571Y036243D02*
Y036043D01*
X055671D01*
X055704Y036077D01*
Y03611D01*
X055671Y036143D01*
X055571D01*
X055671D01*
X055704Y036177D01*
Y03621D01*
X055671Y036243D01*
X055571D01*
X056024Y028604D02*
Y028404D01*
X056124D01*
X056157Y028437D01*
Y028471D01*
X056124Y028504D01*
X056024D01*
X056124D01*
X056157Y028537D01*
Y028571D01*
X056124Y028604D01*
X056024D01*
X058504Y028842D02*
Y028642D01*
X058604D01*
X058637Y028675D01*
Y028708D01*
X058604Y028742D01*
X058504D01*
X058604D01*
X058637Y028775D01*
Y028808D01*
X058604Y028842D01*
X058504D01*
X05811Y028251D02*
Y028051D01*
X05821D01*
X058244Y028084D01*
Y028118D01*
X05821Y028151D01*
X05811D01*
X05821D01*
X058244Y028184D01*
Y028218D01*
X05821Y028251D01*
X05811D01*
X057717D02*
Y028051D01*
X057817D01*
X05785Y028084D01*
Y028118D01*
X057817Y028151D01*
X057717D01*
X057817D01*
X05785Y028184D01*
Y028218D01*
X057817Y028251D01*
X057717D01*
Y028842D02*
Y028642D01*
X057817D01*
X05785Y028675D01*
Y028708D01*
X057817Y028742D01*
X057717D01*
X057817D01*
X05785Y028775D01*
Y028808D01*
X057817Y028842D01*
X057717D01*
Y028546D02*
Y028346D01*
X057817D01*
X05785Y02838D01*
Y028413D01*
X057817Y028446D01*
X057717D01*
X057817D01*
X05785Y02848D01*
Y028513D01*
X057817Y028546D01*
X057717D01*
X05811D02*
Y028346D01*
X05821D01*
X058244Y02838D01*
Y028413D01*
X05821Y028446D01*
X05811D01*
X05821D01*
X058244Y02848D01*
Y028513D01*
X05821Y028546D01*
X05811D01*
X058504Y029235D02*
Y029035D01*
X058604D01*
X058637Y029069D01*
Y029102D01*
X058604Y029135D01*
X058504D01*
X058604D01*
X058637Y029169D01*
Y029202D01*
X058604Y029235D01*
X058504D01*
X05811D02*
Y029035D01*
X05821D01*
X058244Y029069D01*
Y029102D01*
X05821Y029135D01*
X05811D01*
X05821D01*
X058244Y029169D01*
Y029202D01*
X05821Y029235D01*
X05811D01*
Y028842D02*
Y028642D01*
X05821D01*
X058244Y028675D01*
Y028708D01*
X05821Y028742D01*
X05811D01*
X05821D01*
X058244Y028775D01*
Y028808D01*
X05821Y028842D01*
X05811D01*
X0596Y026782D02*
X059567Y026815D01*
X0595D01*
X059467Y026782D01*
Y026648D01*
X0595Y026615D01*
X059567D01*
X0596Y026648D01*
X046236Y020639D02*
X046202Y020672D01*
X046136D01*
X046102Y020639D01*
Y020506D01*
X046136Y020472D01*
X046202D01*
X046236Y020506D01*
X033465Y026814D02*
Y026614D01*
X033565D01*
X033598Y026648D01*
Y026681D01*
X033565Y026714D01*
X033465D01*
X033565D01*
X033598Y026747D01*
Y026781D01*
X033565Y026814D01*
X033465D01*
X033583Y027208D02*
Y027008D01*
X033683D01*
X033716Y027041D01*
Y027075D01*
X033683Y027108D01*
X033583D01*
X033683D01*
X033716Y027141D01*
Y027174D01*
X033683Y027208D01*
X033583D01*
X055315Y041814D02*
Y041614D01*
X055415D01*
X055448Y041648D01*
Y041681D01*
X055415Y041714D01*
X055315D01*
X055415D01*
X055448Y041747D01*
Y041781D01*
X055415Y041814D01*
X055315D01*
X046453Y019133D02*
Y018933D01*
X046553D01*
X046586Y018966D01*
Y019D01*
X046553Y019033D01*
X046453D01*
X046553D01*
X046586Y019066D01*
Y0191D01*
X046553Y019133D01*
X046453D01*
X044764Y019885D02*
Y019685D01*
X044864D01*
X044897Y019718D01*
Y019752D01*
X044864Y019785D01*
X044764D01*
X044864D01*
X044897Y019818D01*
Y019852D01*
X044864Y019885D01*
X044764D01*
X057313Y027326D02*
Y027126D01*
X057413D01*
X057446Y027159D01*
Y027293D01*
X057413Y027326D01*
X057313D01*
X056472Y016978D02*
X056439Y017011D01*
X056372D01*
X056339Y016978D01*
Y016844D01*
X056372Y016811D01*
X056439D01*
X056472Y016844D01*
X0471Y016897D02*
X047066Y01693D01*
X047D01*
X046967Y016897D01*
Y016764D01*
X047Y01673D01*
X047066D01*
X0471Y016764D01*
X055866Y021578D02*
Y021378D01*
X055966D01*
X055999Y021411D01*
Y021445D01*
X055966Y021478D01*
X055866D01*
X055966D01*
X055999Y021511D01*
Y021545D01*
X055966Y021578D01*
X055866D01*
Y021853D02*
Y021654D01*
X055966D01*
X055999Y021687D01*
Y02172D01*
X055966Y021754D01*
X055866D01*
X055966D01*
X055999Y021787D01*
Y02182D01*
X055966Y021853D01*
X055866D01*
X055Y021578D02*
Y021378D01*
X0551D01*
X055133Y021411D01*
Y021445D01*
X0551Y021478D01*
X055D01*
X0551D01*
X055133Y021511D01*
Y021545D01*
X0551Y021578D01*
X055D01*
Y021853D02*
Y021654D01*
X0551D01*
X055133Y021687D01*
Y02172D01*
X0551Y021754D01*
X055D01*
X0551D01*
X055133Y021787D01*
Y02182D01*
X0551Y021853D01*
X055D01*
X056063Y021578D02*
Y021378D01*
X056163D01*
X056196Y021411D01*
Y021445D01*
X056163Y021478D01*
X056063D01*
X056163D01*
X056196Y021511D01*
Y021545D01*
X056163Y021578D01*
X056063D01*
Y021853D02*
Y021654D01*
X056163D01*
X056196Y021687D01*
Y02172D01*
X056163Y021754D01*
X056063D01*
X056163D01*
X056196Y021787D01*
Y02182D01*
X056163Y021853D01*
X056063D01*
X054764D02*
Y021654D01*
X054864D01*
X054897Y021687D01*
Y02172D01*
X054864Y021754D01*
X054764D01*
X054864D01*
X054897Y021787D01*
Y02182D01*
X054864Y021853D01*
X054764D01*
Y021578D02*
Y021378D01*
X054864D01*
X054897Y021411D01*
Y021445D01*
X054864Y021478D01*
X054764D01*
X054864D01*
X054897Y021511D01*
Y021545D01*
X054864Y021578D01*
X054764D01*
X046201Y016342D02*
Y016142D01*
X046301D01*
X046334Y016175D01*
Y016208D01*
X046301Y016242D01*
X046201D01*
X046301D01*
X046334Y016275D01*
Y016308D01*
X046301Y016342D01*
X046201D01*
X045807D02*
Y016142D01*
X045907D01*
X04594Y016175D01*
Y016208D01*
X045907Y016242D01*
X045807D01*
X045907D01*
X04594Y016275D01*
Y016308D01*
X045907Y016342D01*
X045807D01*
X045413D02*
Y016142D01*
X045513D01*
X045547Y016175D01*
Y016208D01*
X045513Y016242D01*
X045413D01*
X045513D01*
X045547Y016275D01*
Y016308D01*
X045513Y016342D01*
X045413D01*
X045118D02*
Y016142D01*
X045218D01*
X045251Y016175D01*
Y016208D01*
X045218Y016242D01*
X045118D01*
X045218D01*
X045251Y016275D01*
Y016308D01*
X045218Y016342D01*
X045118D01*
X046201Y016539D02*
Y016339D01*
X046301D01*
X046334Y016372D01*
Y016405D01*
X046301Y016439D01*
X046201D01*
X046301D01*
X046334Y016472D01*
Y016505D01*
X046301Y016539D01*
X046201D01*
X045807D02*
Y016339D01*
X045907D01*
X04594Y016372D01*
Y016405D01*
X045907Y016439D01*
X045807D01*
X045907D01*
X04594Y016472D01*
Y016505D01*
X045907Y016539D01*
X045807D01*
X045413D02*
Y016339D01*
X045513D01*
X045547Y016372D01*
Y016405D01*
X045513Y016439D01*
X045413D01*
X045513D01*
X045547Y016472D01*
Y016505D01*
X045513Y016539D01*
X045413D01*
X045118D02*
Y016339D01*
X045218D01*
X045251Y016372D01*
Y016405D01*
X045218Y016439D01*
X045118D01*
X045218D01*
X045251Y016472D01*
Y016505D01*
X045218Y016539D01*
X045118D01*
X037343Y032109D02*
Y031909D01*
X037442D01*
X037476Y031943D01*
Y031976D01*
X037442Y032009D01*
X037343D01*
X037442D01*
X037476Y032043D01*
Y032076D01*
X037442Y032109D01*
X037343D01*
X044321Y02835D02*
Y02815D01*
X044421D01*
X044454Y028183D01*
Y028216D01*
X044421Y02825D01*
X044321D01*
X044421D01*
X044454Y028283D01*
Y028316D01*
X044421Y02835D01*
X044321D01*
X032923Y039334D02*
Y039134D01*
X033023D01*
X033057Y039167D01*
Y0392D01*
X033023Y039234D01*
X032923D01*
X033023D01*
X033057Y039267D01*
Y0393D01*
X033023Y039334D01*
X032923D01*
X03313Y03829D02*
Y038091D01*
X03323D01*
X033263Y038124D01*
Y038157D01*
X03323Y038191D01*
X03313D01*
X03323D01*
X033263Y038224D01*
Y038257D01*
X03323Y03829D01*
X03313D01*
X033159Y038615D02*
Y038415D01*
X033259D01*
X033293Y038449D01*
Y038482D01*
X033259Y038515D01*
X033159D01*
X033259D01*
X033293Y038549D01*
Y038582D01*
X033259Y038615D01*
X033159D01*
X033888Y038153D02*
Y037953D01*
X033988D01*
X034021Y037986D01*
Y038019D01*
X033988Y038053D01*
X033888D01*
X033988D01*
X034021Y038086D01*
Y038119D01*
X033988Y038153D01*
X033888D01*
Y038379D02*
Y038179D01*
X033988D01*
X034021Y038212D01*
Y038246D01*
X033988Y038279D01*
X033888D01*
X033988D01*
X034021Y038312D01*
Y038346D01*
X033988Y038379D01*
X033888D01*
X037598Y033783D02*
Y033583D01*
X037698D01*
X037732Y033616D01*
Y033649D01*
X037698Y033683D01*
X037598D01*
X037698D01*
X037732Y033716D01*
Y033749D01*
X037698Y033783D01*
X037598D01*
X037874D02*
Y033583D01*
X037974D01*
X038007Y033616D01*
Y033649D01*
X037974Y033683D01*
X037874D01*
X037974D01*
X038007Y033716D01*
Y033749D01*
X037974Y033783D01*
X037874D01*
X037323D02*
Y033583D01*
X037423D01*
X037456Y033616D01*
Y033649D01*
X037423Y033683D01*
X037323D01*
X037423D01*
X037456Y033716D01*
Y033749D01*
X037423Y033783D01*
X037323D01*
X043898Y039649D02*
Y039449D01*
X043998D01*
X044031Y039482D01*
Y039515D01*
X043998Y039549D01*
X043898D01*
X043998D01*
X044031Y039582D01*
Y039615D01*
X043998Y039649D01*
X043898D01*
X04374Y039531D02*
Y039331D01*
X04384D01*
X043873Y039364D01*
Y039397D01*
X04384Y039431D01*
X04374D01*
X04384D01*
X043873Y039464D01*
Y039497D01*
X04384Y039531D01*
X04374D01*
X043346Y039727D02*
Y039528D01*
X043446D01*
X04348Y039561D01*
Y039594D01*
X043446Y039628D01*
X043346D01*
X043446D01*
X04348Y039661D01*
Y039694D01*
X043446Y039727D01*
X043346D01*
Y039531D02*
Y039331D01*
X043446D01*
X04348Y039364D01*
Y039397D01*
X043446Y039431D01*
X043346D01*
X043446D01*
X04348Y039464D01*
Y039497D01*
X043446Y039531D01*
X043346D01*
X043543Y039846D02*
Y039646D01*
X043643D01*
X043677Y039679D01*
Y039712D01*
X043643Y039746D01*
X043543D01*
X043643D01*
X043677Y039779D01*
Y039812D01*
X043643Y039846D01*
X043543D01*
X04374Y039767D02*
Y039567D01*
X04384D01*
X043873Y0396D01*
Y039634D01*
X04384Y039667D01*
X04374D01*
X04384D01*
X043873Y0397D01*
Y039734D01*
X04384Y039767D01*
X04374D01*
X044016Y039806D02*
Y039606D01*
X044116D01*
X044149Y03964D01*
Y039673D01*
X044116Y039706D01*
X044016D01*
X044116D01*
X044149Y03974D01*
Y039773D01*
X044116Y039806D01*
X044016D01*
X043543Y039649D02*
Y039449D01*
X043643D01*
X043677Y039482D01*
Y039515D01*
X043643Y039549D01*
X043543D01*
X043643D01*
X043677Y039582D01*
Y039615D01*
X043643Y039649D01*
X043543D01*
Y039452D02*
Y039252D01*
X043643D01*
X043677Y039285D01*
Y039319D01*
X043643Y039352D01*
X043543D01*
X043643D01*
X043677Y039385D01*
Y039419D01*
X043643Y039452D01*
X043543D01*
X044213Y042337D02*
Y042137D01*
X044313D01*
X044346Y04217D01*
Y042204D01*
X044313Y042237D01*
X044213D01*
X044313D01*
X044346Y04227D01*
Y042304D01*
X044313Y042337D01*
X044213D01*
X041073Y035564D02*
Y035364D01*
X041173D01*
X041206Y035398D01*
Y035431D01*
X041173Y035464D01*
X041073D01*
X041173D01*
X041206Y035497D01*
Y035531D01*
X041173Y035564D01*
X041073D01*
X044213Y04212D02*
Y04192D01*
X044313D01*
X044346Y041954D01*
Y041987D01*
X044313Y04202D01*
X044213D01*
X044313D01*
X044346Y042054D01*
Y042087D01*
X044313Y04212D01*
X044213D01*
X041073Y03582D02*
Y03562D01*
X041173D01*
X041206Y035653D01*
Y035687D01*
X041173Y03572D01*
X041073D01*
X041173D01*
X041206Y035753D01*
Y035787D01*
X041173Y03582D01*
X041073D01*
X042136Y033753D02*
Y033553D01*
X042236D01*
X042269Y033586D01*
Y03362D01*
X042236Y033653D01*
X042136D01*
X042236D01*
X042269Y033686D01*
Y03372D01*
X042236Y033753D01*
X042136D01*
X04214Y032125D02*
Y031925D01*
X04224D01*
X042273Y031959D01*
Y031992D01*
X04224Y032025D01*
X04214D01*
X04224D01*
X042273Y032058D01*
Y032092D01*
X04224Y032125D01*
X04214D01*
X050699Y042523D02*
Y042323D01*
X050799D01*
X050832Y042356D01*
Y042389D01*
X050799Y042423D01*
X050699D01*
X050799D01*
X050832Y042456D01*
Y042489D01*
X050799Y042523D01*
X050699D01*
X050717Y042028D02*
Y041828D01*
X050817D01*
X05085Y041862D01*
Y041895D01*
X050817Y041928D01*
X050717D01*
X050817D01*
X05085Y041962D01*
Y041995D01*
X050817Y042028D01*
X050717D01*
X041772Y022117D02*
Y021917D01*
X041872D01*
X041905Y021951D01*
Y021984D01*
X041872Y022017D01*
X041772D01*
X041872D01*
X041905Y022051D01*
Y022084D01*
X041872Y022117D01*
X041772D01*
X043248Y020869D02*
Y020669D01*
X043348D01*
X043381Y020703D01*
Y020736D01*
X043348Y020769D01*
X043248D01*
X043348D01*
X043381Y020803D01*
Y020836D01*
X043348Y020869D01*
X043248D01*
X043051D02*
Y020669D01*
X043151D01*
X043184Y020703D01*
Y020736D01*
X043151Y020769D01*
X043051D01*
X043151D01*
X043184Y020803D01*
Y020836D01*
X043151Y020869D01*
X043051D01*
X042293Y022474D02*
Y022274D01*
X042393D01*
X042427Y022307D01*
Y02234D01*
X042393Y022374D01*
X042293D01*
X042393D01*
X042427Y022407D01*
Y02244D01*
X042393Y022474D01*
X042293D01*
X045079Y022365D02*
Y022165D01*
X045179D01*
X045212Y022199D01*
Y022232D01*
X045179Y022265D01*
X045079D01*
X045179D01*
X045212Y022299D01*
Y022332D01*
X045179Y022365D01*
X045079D01*
X044685D02*
Y022165D01*
X044785D01*
X044818Y022199D01*
Y022232D01*
X044785Y022265D01*
X044685D01*
X044785D01*
X044818Y022299D01*
Y022332D01*
X044785Y022365D01*
X044685D01*
X044291D02*
Y022165D01*
X044391D01*
X044425Y022199D01*
Y022232D01*
X044391Y022265D01*
X044291D01*
X044391D01*
X044425Y022299D01*
Y022332D01*
X044391Y022365D01*
X044291D01*
X045079Y022798D02*
Y022598D01*
X045179D01*
X045212Y022632D01*
Y022665D01*
X045179Y022698D01*
X045079D01*
X045179D01*
X045212Y022732D01*
Y022765D01*
X045179Y022798D01*
X045079D01*
X044685D02*
Y022598D01*
X044785D01*
X044818Y022632D01*
Y022665D01*
X044785Y022698D01*
X044685D01*
X044785D01*
X044818Y022732D01*
Y022765D01*
X044785Y022798D01*
X044685D01*
X044291D02*
Y022598D01*
X044391D01*
X044425Y022632D01*
Y022665D01*
X044391Y022698D01*
X044291D01*
X044391D01*
X044425Y022732D01*
Y022765D01*
X044391Y022798D01*
X044291D01*
X045079Y023192D02*
Y022992D01*
X045179D01*
X045212Y023025D01*
Y023059D01*
X045179Y023092D01*
X045079D01*
X045179D01*
X045212Y023125D01*
Y023159D01*
X045179Y023192D01*
X045079D01*
X044685D02*
Y022992D01*
X044785D01*
X044818Y023025D01*
Y023059D01*
X044785Y023092D01*
X044685D01*
X044785D01*
X044818Y023125D01*
Y023159D01*
X044785Y023192D01*
X044685D01*
X044291D02*
Y022992D01*
X044391D01*
X044425Y023025D01*
Y023059D01*
X044391Y023092D01*
X044291D01*
X044391D01*
X044425Y023125D01*
Y023159D01*
X044391Y023192D01*
X044291D01*
X043661Y037129D02*
Y036929D01*
X043761D01*
X043795Y036962D01*
Y036996D01*
X043761Y037029D01*
X043661D01*
X043761D01*
X043795Y037062D01*
Y037096D01*
X043761Y037129D01*
X043661D01*
X032421Y042326D02*
Y042126D01*
X032521D01*
X032555Y042159D01*
Y042193D01*
X032521Y042226D01*
X032421D01*
X032521D01*
X032555Y042259D01*
Y042293D01*
X032521Y042326D01*
X032421D01*
X030827Y039609D02*
Y039409D01*
X030927D01*
X03096Y039443D01*
Y039476D01*
X030927Y039509D01*
X030827D01*
X030927D01*
X03096Y039543D01*
Y039576D01*
X030927Y039609D01*
X030827D01*
Y039806D02*
Y039606D01*
X030927D01*
X03096Y03964D01*
Y039673D01*
X030927Y039706D01*
X030827D01*
X030927D01*
X03096Y03974D01*
Y039773D01*
X030927Y039806D01*
X030827D01*
X031378Y038271D02*
Y038071D01*
X031478D01*
X031511Y038104D01*
Y038138D01*
X031478Y038171D01*
X031378D01*
X031478D01*
X031511Y038204D01*
Y038237D01*
X031478Y038271D01*
X031378D01*
X037283Y039531D02*
Y039331D01*
X037383D01*
X037417Y039364D01*
Y039397D01*
X037383Y039431D01*
X037283D01*
X037383D01*
X037417Y039464D01*
Y039497D01*
X037383Y039531D01*
X037283D01*
X044213Y043517D02*
Y043317D01*
X044313D01*
X044346Y04335D01*
Y043384D01*
X044313Y043417D01*
X044213D01*
X044313D01*
X044346Y04345D01*
Y043484D01*
X044313Y043517D01*
X044213D01*
X041073Y037296D02*
Y037096D01*
X041173D01*
X041206Y03713D01*
Y037163D01*
X041173Y037196D01*
X041073D01*
X041173D01*
X041206Y03723D01*
Y037263D01*
X041173Y037296D01*
X041073D01*
X044213Y0433D02*
Y0431D01*
X044313D01*
X044346Y043134D01*
Y043167D01*
X044313Y0432D01*
X044213D01*
X044313D01*
X044346Y043234D01*
Y043267D01*
X044313Y0433D01*
X044213D01*
X041073Y037552D02*
Y037352D01*
X041173D01*
X041206Y037386D01*
Y037419D01*
X041173Y037452D01*
X041073D01*
X041173D01*
X041206Y037486D01*
Y037519D01*
X041173Y037552D01*
X041073D01*
X043268Y041732D02*
Y041532D01*
X043368D01*
X043401Y041566D01*
Y041599D01*
X043368Y041632D01*
X043268D01*
X043368D01*
X043401Y041666D01*
Y041699D01*
X043368Y041732D01*
X043268D01*
X041073Y03643D02*
Y03623D01*
X041173D01*
X041206Y036264D01*
Y036297D01*
X041173Y03633D01*
X041073D01*
X041173D01*
X041206Y036364D01*
Y036397D01*
X041173Y03643D01*
X041073D01*
X043268Y041949D02*
Y041749D01*
X043368D01*
X043401Y041782D01*
Y041816D01*
X043368Y041849D01*
X043268D01*
X043368D01*
X043401Y041882D01*
Y041916D01*
X043368Y041949D01*
X043268D01*
X041073Y036686D02*
Y036486D01*
X041173D01*
X041206Y03652D01*
Y036553D01*
X041173Y036586D01*
X041073D01*
X041173D01*
X041206Y03662D01*
Y036653D01*
X041173Y036686D01*
X041073D01*
Y034698D02*
Y034498D01*
X041173D01*
X041206Y034531D01*
Y034565D01*
X041173Y034598D01*
X041073D01*
X041173D01*
X041206Y034631D01*
Y034665D01*
X041173Y034698D01*
X041073D01*
Y034954D02*
Y034754D01*
X041173D01*
X041206Y034787D01*
Y034821D01*
X041173Y034854D01*
X041073D01*
X041173D01*
X041206Y034887D01*
Y034921D01*
X041173Y034954D01*
X041073D01*
X043268Y042912D02*
Y042712D01*
X043368D01*
X043401Y042746D01*
Y042779D01*
X043368Y042812D01*
X043268D01*
X043368D01*
X043401Y042846D01*
Y042879D01*
X043368Y042912D01*
X043268D01*
Y043129D02*
Y042929D01*
X043368D01*
X043401Y042962D01*
Y042996D01*
X043368Y043029D01*
X043268D01*
X043368D01*
X043401Y043062D01*
Y043096D01*
X043368Y043129D01*
X043268D01*
X037953Y031381D02*
Y031181D01*
X038053D01*
X038086Y031214D01*
Y031248D01*
X038053Y031281D01*
X037953D01*
X038053D01*
X038086Y031314D01*
Y031348D01*
X038053Y031381D01*
X037953D01*
Y031617D02*
Y031417D01*
X038053D01*
X038086Y031451D01*
Y031484D01*
X038053Y031517D01*
X037953D01*
X038053D01*
X038086Y031551D01*
Y031584D01*
X038053Y031617D01*
X037953D01*
X037717D02*
Y031417D01*
X037817D01*
X03785Y031451D01*
Y031484D01*
X037817Y031517D01*
X037717D01*
X037817D01*
X03785Y031551D01*
Y031584D01*
X037817Y031617D01*
X037717D01*
Y031381D02*
Y031181D01*
X037817D01*
X03785Y031214D01*
Y031248D01*
X037817Y031281D01*
X037717D01*
X037817D01*
X03785Y031314D01*
Y031348D01*
X037817Y031381D01*
X037717D01*
X041693Y024757D02*
Y024557D01*
X041793D01*
X041826Y02459D01*
Y024624D01*
X041793Y024657D01*
X041693D01*
X041793D01*
X041826Y02469D01*
Y024724D01*
X041793Y024757D01*
X041693D01*
X059872Y03018D02*
Y02998D01*
X059972D01*
X060005Y030014D01*
Y030047D01*
X059972Y03008D01*
X059872D01*
X059972D01*
X060005Y030114D01*
Y030147D01*
X059972Y03018D01*
X059872D01*
X058368Y032029D02*
Y031829D01*
X058468D01*
X058501Y031862D01*
Y031895D01*
X058468Y031929D01*
X058368D01*
X058468D01*
X058501Y031962D01*
Y031995D01*
X058468Y032029D01*
X058368D01*
X046614Y02454D02*
Y024341D01*
X046714D01*
X046747Y024374D01*
Y024407D01*
X046714Y024441D01*
X046614D01*
X046714D01*
X046747Y024474D01*
Y024507D01*
X046714Y02454D01*
X046614D01*
X046079Y025932D02*
Y025732D01*
X046179D01*
X046212Y025766D01*
Y025799D01*
X046179Y025832D01*
X046079D01*
X046179D01*
X046212Y025866D01*
Y025899D01*
X046179Y025932D01*
X046079D01*
X046368Y024403D02*
Y024203D01*
X046468D01*
X046501Y024236D01*
Y024269D01*
X046468Y024303D01*
X046368D01*
X046468D01*
X046501Y024336D01*
Y024369D01*
X046468Y024403D01*
X046368D01*
X043061Y024255D02*
Y024055D01*
X043161D01*
X043194Y024088D01*
Y024122D01*
X043161Y024155D01*
X043061D01*
X043161D01*
X043194Y024188D01*
Y024222D01*
X043161Y024255D01*
X043061D01*
X043199Y024442D02*
Y024242D01*
X043299D01*
X043332Y024275D01*
Y024309D01*
X043299Y024342D01*
X043199D01*
X043299D01*
X043332Y024375D01*
Y024409D01*
X043299Y024442D01*
X043199D01*
X04313Y023951D02*
Y023751D01*
X04323D01*
X043264Y023784D01*
Y023818D01*
X04323Y023851D01*
X04313D01*
X04323D01*
X043264Y023884D01*
Y023918D01*
X04323Y023951D01*
X04313D01*
X043927Y021194D02*
Y020994D01*
X044027D01*
X04406Y021027D01*
Y021161D01*
X044027Y021194D01*
X043927D01*
X043478Y021417D02*
Y021217D01*
X043578D01*
X043612Y02125D01*
Y021283D01*
X043578Y021317D01*
X043478D01*
X043578D01*
X043612Y02135D01*
Y021383D01*
X043578Y021417D01*
X043478D01*
X056886Y027576D02*
Y027376D01*
X056986D01*
X057019Y027409D01*
Y027443D01*
X056986Y027476D01*
X056886D01*
X056986D01*
X057019Y027509D01*
Y027543D01*
X056986Y027576D01*
X056886D01*
X052303Y031105D02*
Y030906D01*
X052403D01*
X052436Y030939D01*
Y030972D01*
X052403Y031005D01*
X052303D01*
X052403D01*
X052436Y031039D01*
Y031072D01*
X052403Y031105D01*
X052303D01*
X041181Y027759D02*
Y027559D01*
X041281D01*
X041314Y027592D01*
Y027626D01*
X041281Y027659D01*
X041181D01*
X041281D01*
X041314Y027692D01*
Y027726D01*
X041281Y027759D01*
X041181D01*
X05185Y029009D02*
Y028809D01*
X05195D01*
X051984Y028842D01*
Y028876D01*
X05195Y028909D01*
X05185D01*
X05195D01*
X051984Y028942D01*
Y028976D01*
X05195Y029009D01*
X05185D01*
X041585Y02646D02*
Y02626D01*
X041685D01*
X041718Y026293D01*
Y026326D01*
X041685Y02636D01*
X041585D01*
X041685D01*
X041718Y026393D01*
Y026426D01*
X041685Y02646D01*
X041585D01*
X042992Y026115D02*
Y025915D01*
X043092D01*
X043125Y025949D01*
Y025982D01*
X043092Y026015D01*
X042992D01*
X043092D01*
X043125Y026049D01*
Y026082D01*
X043092Y026115D01*
X042992D01*
X044843Y025869D02*
Y025669D01*
X044942D01*
X044976Y025703D01*
Y025736D01*
X044942Y025769D01*
X044843D01*
X044942D01*
X044976Y025803D01*
Y025836D01*
X044942Y025869D01*
X044843D01*
X055074Y027759D02*
Y027559D01*
X055174D01*
X055208Y027592D01*
Y027626D01*
X055174Y027659D01*
X055074D01*
X055174D01*
X055208Y027692D01*
Y027726D01*
X055174Y027759D01*
X055074D01*
X056457Y02705D02*
Y02685D01*
X056557D01*
X05659Y026884D01*
Y026917D01*
X056557Y02695D01*
X056457D01*
X056557D01*
X05659Y026984D01*
Y027017D01*
X056557Y02705D01*
X056457D01*
X056654D02*
Y02685D01*
X056754D01*
X056787Y026884D01*
Y026917D01*
X056754Y02695D01*
X056654D01*
X056754D01*
X056787Y026984D01*
Y027017D01*
X056754Y02705D01*
X056654D01*
X056299Y030318D02*
Y030118D01*
X056399D01*
X056432Y030151D01*
Y030185D01*
X056399Y030218D01*
X056299D01*
X056399D01*
X056432Y030251D01*
Y030285D01*
X056399Y030318D01*
X056299D01*
X061594Y023251D02*
Y023051D01*
X061694D01*
X061728Y023084D01*
Y023118D01*
X061694Y023151D01*
X061594D01*
X061694D01*
X061728Y023184D01*
Y023218D01*
X061694Y023251D01*
X061594D01*
Y023015D02*
Y022815D01*
X061694D01*
X061728Y022848D01*
Y022882D01*
X061694Y022915D01*
X061594D01*
X061694D01*
X061728Y022948D01*
Y022982D01*
X061694Y023015D01*
X061594D01*
X05076Y022198D02*
Y021998D01*
X05086D01*
X050894Y022031D01*
Y022065D01*
X05086Y022098D01*
X05076D01*
X05086D01*
X050894Y022131D01*
Y022165D01*
X05086Y022198D01*
X05076D01*
Y021962D02*
Y021762D01*
X05086D01*
X050894Y021795D01*
Y021828D01*
X05086Y021862D01*
X05076D01*
X05086D01*
X050894Y021895D01*
Y021928D01*
X05086Y021962D01*
X05076D01*
X052323Y023035D02*
Y022835D01*
X052423D01*
X052456Y022868D01*
Y022901D01*
X052423Y022935D01*
X052323D01*
X052423D01*
X052456Y022968D01*
Y023001D01*
X052423Y023035D01*
X052323D01*
Y023271D02*
Y023071D01*
X052423D01*
X052456Y023104D01*
Y023138D01*
X052423Y023171D01*
X052323D01*
X052423D01*
X052456Y023204D01*
Y023237D01*
X052423Y023271D01*
X052323D01*
X055354Y039019D02*
Y038819D01*
X055454D01*
X055488Y038852D01*
Y038886D01*
X055454Y038919D01*
X055354D01*
X055454D01*
X055488Y038952D01*
Y038986D01*
X055454Y039019D01*
X055354D01*
X055512Y039373D02*
Y039173D01*
X055612D01*
X055645Y039207D01*
Y03924D01*
X055612Y039273D01*
X055512D01*
X055612D01*
X055645Y039307D01*
Y03934D01*
X055612Y039373D01*
X055512D01*
X053071Y034767D02*
Y034567D01*
X053171D01*
X053204Y0346D01*
Y034634D01*
X053171Y034667D01*
X053071D01*
X053171D01*
X053204Y0347D01*
Y034734D01*
X053171Y034767D01*
X053071D01*
X048452Y043803D02*
Y043603D01*
X048552D01*
X048586Y043637D01*
Y04367D01*
X048552Y043703D01*
X048452D01*
X048552D01*
X048586Y043737D01*
Y04377D01*
X048552Y043803D01*
X048452D01*
X044575Y038676D02*
Y038476D01*
X044675D01*
X044709Y038509D01*
Y038543D01*
X044675Y038576D01*
X044575D01*
X044675D01*
X044709Y038609D01*
Y038643D01*
X044675Y038676D01*
X044575D01*
X045008D02*
Y038476D01*
X045108D01*
X045142Y038509D01*
Y038543D01*
X045108Y038576D01*
X045008D01*
X045108D01*
X045142Y038609D01*
Y038643D01*
X045108Y038676D01*
X045008D01*
X045874D02*
Y038476D01*
X045974D01*
X046008Y038509D01*
Y038543D01*
X045974Y038576D01*
X045874D01*
X045974D01*
X046008Y038609D01*
Y038643D01*
X045974Y038676D01*
X045874D01*
X046308D02*
Y038476D01*
X046408D01*
X046441Y038509D01*
Y038543D01*
X046408Y038576D01*
X046308D01*
X046408D01*
X046441Y038609D01*
Y038643D01*
X046408Y038676D01*
X046308D01*
X046741D02*
Y038476D01*
X046841D01*
X046874Y038509D01*
Y038543D01*
X046841Y038576D01*
X046741D01*
X046841D01*
X046874Y038609D01*
Y038643D01*
X046841Y038676D01*
X046741D01*
X045441D02*
Y038476D01*
X045541D01*
X045575Y038509D01*
Y038543D01*
X045541Y038576D01*
X045441D01*
X045541D01*
X045575Y038609D01*
Y038643D01*
X045541Y038676D01*
X045441D01*
X050689Y042995D02*
Y042795D01*
X050789D01*
X050822Y042829D01*
Y042862D01*
X050789Y042895D01*
X050689D01*
X050789D01*
X050822Y042929D01*
Y042962D01*
X050789Y042995D01*
X050689D01*
X047174Y038676D02*
Y038476D01*
X047274D01*
X047307Y038509D01*
Y038543D01*
X047274Y038576D01*
X047174D01*
X047274D01*
X047307Y038609D01*
Y038643D01*
X047274Y038676D01*
X047174D01*
X047607D02*
Y038476D01*
X047707D01*
X04774Y038509D01*
Y038543D01*
X047707Y038576D01*
X047607D01*
X047707D01*
X04774Y038609D01*
Y038643D01*
X047707Y038676D01*
X047607D01*
X058858Y038428D02*
Y038228D01*
X058958D01*
X058992Y038262D01*
Y038295D01*
X058958Y038328D01*
X058858D01*
X058958D01*
X058992Y038362D01*
Y038395D01*
X058958Y038428D01*
X058858D01*
X060039D02*
Y038228D01*
X060139D01*
X060173Y038262D01*
Y038295D01*
X060139Y038328D01*
X060039D01*
X060139D01*
X060173Y038362D01*
Y038395D01*
X060139Y038428D01*
X060039D01*
X058858Y038035D02*
Y037835D01*
X058958D01*
X058992Y037868D01*
Y037901D01*
X058958Y037935D01*
X058858D01*
X058958D01*
X058992Y037968D01*
Y038001D01*
X058958Y038035D01*
X058858D01*
X060039Y037641D02*
Y037441D01*
X060139D01*
X060173Y037474D01*
Y037508D01*
X060139Y037541D01*
X060039D01*
X060139D01*
X060173Y037574D01*
Y037608D01*
X060139Y037641D01*
X060039D01*
X059252Y038035D02*
Y037835D01*
X059352D01*
X059385Y037868D01*
Y037901D01*
X059352Y037935D01*
X059252D01*
X059352D01*
X059385Y037968D01*
Y038001D01*
X059352Y038035D01*
X059252D01*
Y037641D02*
Y037441D01*
X059352D01*
X059385Y037474D01*
Y037508D01*
X059352Y037541D01*
X059252D01*
X059352D01*
X059385Y037574D01*
Y037608D01*
X059352Y037641D01*
X059252D01*
X058858D02*
Y037441D01*
X058958D01*
X058992Y037474D01*
Y037508D01*
X058958Y037541D01*
X058858D01*
X058958D01*
X058992Y037574D01*
Y037608D01*
X058958Y037641D01*
X058858D01*
X059646D02*
Y037441D01*
X059746D01*
X059779Y037474D01*
Y037508D01*
X059746Y037541D01*
X059646D01*
X059746D01*
X059779Y037574D01*
Y037608D01*
X059746Y037641D01*
X059646D01*
X060039Y037247D02*
Y037047D01*
X060139D01*
X060173Y037081D01*
Y037114D01*
X060139Y037147D01*
X060039D01*
X060139D01*
X060173Y037181D01*
Y037214D01*
X060139Y037247D01*
X060039D01*
X058858D02*
Y037047D01*
X058958D01*
X058992Y037081D01*
Y037114D01*
X058958Y037147D01*
X058858D01*
X058958D01*
X058992Y037181D01*
Y037214D01*
X058958Y037247D01*
X058858D01*
X060039Y038035D02*
Y037835D01*
X060139D01*
X060173Y037868D01*
Y037901D01*
X060139Y037935D01*
X060039D01*
X060139D01*
X060173Y037968D01*
Y038001D01*
X060139Y038035D01*
X060039D01*
X059646Y038428D02*
Y038228D01*
X059746D01*
X059779Y038262D01*
Y038295D01*
X059746Y038328D01*
X059646D01*
X059746D01*
X059779Y038362D01*
Y038395D01*
X059746Y038428D01*
X059646D01*
X059252Y037247D02*
Y037047D01*
X059352D01*
X059385Y037081D01*
Y037114D01*
X059352Y037147D01*
X059252D01*
X059352D01*
X059385Y037181D01*
Y037214D01*
X059352Y037247D01*
X059252D01*
Y038428D02*
Y038228D01*
X059352D01*
X059385Y038262D01*
Y038295D01*
X059352Y038328D01*
X059252D01*
X059352D01*
X059385Y038362D01*
Y038395D01*
X059352Y038428D01*
X059252D01*
X059646Y038035D02*
Y037835D01*
X059746D01*
X059779Y037868D01*
Y037901D01*
X059746Y037935D01*
X059646D01*
X059746D01*
X059779Y037968D01*
Y038001D01*
X059746Y038035D01*
X059646D01*
Y037247D02*
Y037047D01*
X059746D01*
X059779Y037081D01*
Y037114D01*
X059746Y037147D01*
X059646D01*
X059746D01*
X059779Y037181D01*
Y037214D01*
X059746Y037247D01*
X059646D01*
X039843Y045751D02*
Y045551D01*
X039942D01*
X039976Y045585D01*
Y045618D01*
X039942Y045651D01*
X039843D01*
X039942D01*
X039976Y045684D01*
Y045718D01*
X039942Y045751D01*
X039843D01*
Y045987D02*
Y045787D01*
X039942D01*
X039976Y045821D01*
Y045854D01*
X039942Y045887D01*
X039843D01*
X039942D01*
X039976Y045921D01*
Y045954D01*
X039942Y045987D01*
X039843D01*
X038976Y045279D02*
Y045079D01*
X039076D01*
X03911Y045112D01*
Y045145D01*
X039076Y045179D01*
X038976D01*
X039076D01*
X03911Y045212D01*
Y045245D01*
X039076Y045279D01*
X038976D01*
X03874Y045554D02*
Y045354D01*
X03884D01*
X038873Y045388D01*
Y045421D01*
X03884Y045454D01*
X03874D01*
X03884D01*
X038873Y045488D01*
Y045521D01*
X03884Y045554D01*
X03874D01*
X039016Y045909D02*
Y045709D01*
X039116D01*
X039149Y045742D01*
Y045775D01*
X039116Y045809D01*
X039016D01*
X039116D01*
X039149Y045842D01*
Y045875D01*
X039116Y045909D01*
X039016D01*
X033228Y045594D02*
Y045394D01*
X033328D01*
X033362Y045427D01*
Y04546D01*
X033328Y045494D01*
X033228D01*
X033328D01*
X033362Y045527D01*
Y04556D01*
X033328Y045594D01*
X033228D01*
X033819D02*
Y045394D01*
X033919D01*
X033952Y045427D01*
Y04546D01*
X033919Y045494D01*
X033819D01*
X033919D01*
X033952Y045527D01*
Y04556D01*
X033919Y045594D01*
X033819D01*
X034409D02*
Y045394D01*
X034509D01*
X034543Y045427D01*
Y04546D01*
X034509Y045494D01*
X034409D01*
X034509D01*
X034543Y045527D01*
Y04556D01*
X034509Y045594D01*
X034409D01*
X035D02*
Y045394D01*
X0351D01*
X035133Y045427D01*
Y04546D01*
X0351Y045494D01*
X035D01*
X0351D01*
X035133Y045527D01*
Y04556D01*
X0351Y045594D01*
X035D01*
X036181D02*
Y045394D01*
X036281D01*
X036314Y045427D01*
Y04546D01*
X036281Y045494D01*
X036181D01*
X036281D01*
X036314Y045527D01*
Y04556D01*
X036281Y045594D01*
X036181D01*
X036526Y040121D02*
Y039921D01*
X036626D01*
X036659Y039955D01*
Y039988D01*
X036626Y040021D01*
X036526D01*
X036626D01*
X036659Y040055D01*
Y040088D01*
X036626Y040121D01*
X036526D01*
X037057Y040613D02*
Y040413D01*
X037157D01*
X03719Y040447D01*
Y04048D01*
X037157Y040513D01*
X037057D01*
X037157D01*
X03719Y040547D01*
Y04058D01*
X037157Y040613D01*
X037057D01*
X037057Y040141D02*
Y039941D01*
X037157D01*
X03719Y039974D01*
Y040008D01*
X037157Y040041D01*
X037057D01*
X037157D01*
X03719Y040074D01*
Y040108D01*
X037157Y040141D01*
X037057D01*
X036654Y04334D02*
Y04314D01*
X036754D01*
X036787Y043173D01*
Y043206D01*
X036754Y04324D01*
X036654D01*
X036754D01*
X036787Y043273D01*
Y043306D01*
X036754Y04334D01*
X036654D01*
Y04393D02*
Y04373D01*
X036754D01*
X036787Y043764D01*
Y043797D01*
X036754Y04383D01*
X036654D01*
X036754D01*
X036787Y043864D01*
Y043897D01*
X036754Y04393D01*
X036654D01*
X037372Y043625D02*
Y043425D01*
X037472D01*
X037505Y043459D01*
Y043492D01*
X037472Y043525D01*
X037372D01*
X037472D01*
X037505Y043558D01*
Y043592D01*
X037472Y043625D01*
X037372D01*
X037057Y040357D02*
Y040157D01*
X037157D01*
X03719Y040191D01*
Y040224D01*
X037157Y040257D01*
X037057D01*
X037157D01*
X03719Y040291D01*
Y040324D01*
X037157Y040357D01*
X037057D01*
X037087Y03835D02*
Y03815D01*
X037187D01*
X03722Y038183D01*
Y038216D01*
X037187Y03825D01*
X037087D01*
X037187D01*
X03722Y038283D01*
Y038316D01*
X037187Y03835D01*
X037087D01*
X03154Y040717D02*
Y040518D01*
X03164D01*
X031673Y040551D01*
Y040584D01*
X03164Y040617D01*
X03154D01*
X03164D01*
X031673Y040651D01*
Y040684D01*
X03164Y040717D01*
X03154D01*
X036526Y040357D02*
Y040157D01*
X036626D01*
X036659Y040191D01*
Y040224D01*
X036626Y040257D01*
X036526D01*
X036626D01*
X036659Y040291D01*
Y040324D01*
X036626Y040357D01*
X036526D01*
X036992Y041017D02*
Y040817D01*
X037092D01*
X037126Y040851D01*
Y040884D01*
X037092Y040917D01*
X036992D01*
X037092D01*
X037126Y040951D01*
Y040984D01*
X037092Y041017D01*
X036992D01*
X035945Y041676D02*
Y041476D01*
X036045D01*
X036078Y04151D01*
Y041543D01*
X036045Y041576D01*
X035945D01*
X036045D01*
X036078Y04161D01*
Y041643D01*
X036045Y041676D01*
X035945D01*
X036496Y040584D02*
Y040384D01*
X036596D01*
X036629Y040417D01*
Y040451D01*
X036596Y040484D01*
X036496D01*
X036596D01*
X036629Y040517D01*
Y04055D01*
X036596Y040584D01*
X036496D01*
X0375Y037129D02*
Y036929D01*
X0376D01*
X037633Y036962D01*
Y036996D01*
X0376Y037029D01*
X0375D01*
X0376D01*
X037633Y037062D01*
Y037096D01*
X0376Y037129D01*
X0375D01*
X041205Y044484D02*
Y044284D01*
X041305D01*
X041339Y044317D01*
Y044351D01*
X041305Y044384D01*
X041205D01*
X041305D01*
X041339Y044417D01*
Y044451D01*
X041305Y044484D01*
X041205D01*
X052825Y033812D02*
Y033612D01*
X052925D01*
X052958Y033646D01*
Y033679D01*
X052925Y033712D01*
X052825D01*
X052925D01*
X052958Y033745D01*
Y033779D01*
X052925Y033812D01*
X052825D01*
X052648Y034531D02*
Y034331D01*
X052748D01*
X052781Y034364D01*
Y034397D01*
X052748Y034431D01*
X052648D01*
X052748D01*
X052781Y034464D01*
Y034497D01*
X052748Y034531D01*
X052648D01*
X052648Y035003D02*
Y034803D01*
X052748D01*
X052781Y034836D01*
Y03487D01*
X052748Y034903D01*
X052648D01*
X052748D01*
X052781Y034936D01*
Y03497D01*
X052748Y035003D01*
X052648D01*
X045928Y03774D02*
Y03754D01*
X046028D01*
X046061Y037573D01*
Y037607D01*
X046028Y03764D01*
X045928D01*
X046028D01*
X046061Y037673D01*
Y037707D01*
X046028Y03774D01*
X045928D01*
X056841Y031903D02*
Y031703D01*
X056941D01*
X056974Y031736D01*
Y031769D01*
X056941Y031803D01*
X056841D01*
X056941D01*
X056974Y031836D01*
Y031869D01*
X056941Y031903D01*
X056841D01*
X048012Y024727D02*
Y024528D01*
X048112D01*
X048145Y024561D01*
Y024594D01*
X048112Y024628D01*
X048012D01*
X048112D01*
X048145Y024661D01*
Y024694D01*
X048112Y024727D01*
X048012D01*
X059413Y027556D02*
Y027357D01*
X059513D01*
X059546Y02739D01*
Y027423D01*
X059513Y027457D01*
X059413D01*
X059513D01*
X059546Y02749D01*
Y027523D01*
X059513Y027556D01*
X059413D01*
X049695Y025495D02*
Y025295D01*
X049795D01*
X049828Y025329D01*
Y025362D01*
X049795Y025395D01*
X049695D01*
X049795D01*
X049828Y025429D01*
Y025462D01*
X049795Y025495D01*
X049695D01*
X046082Y021401D02*
Y021201D01*
X046182D01*
X046216Y021234D01*
Y021268D01*
X046182Y021301D01*
X046082D01*
X046182D01*
X046216Y021334D01*
Y021368D01*
X046182Y021401D01*
X046082D01*
X059352Y030479D02*
Y03028D01*
X059452D01*
X059486Y030313D01*
Y030346D01*
X059452Y03038D01*
X059352D01*
X059452D01*
X059486Y030413D01*
Y030446D01*
X059452Y030479D01*
X059352D01*
X045856Y024206D02*
Y024006D01*
X045956D01*
X04599Y024039D01*
Y024073D01*
X045956Y024106D01*
X045856D01*
X045956D01*
X04599Y024139D01*
Y024173D01*
X045956Y024206D01*
X045856D01*
X048268Y027296D02*
Y027096D01*
X048368D01*
X048401Y02713D01*
Y027163D01*
X048368Y027196D01*
X048268D01*
X048368D01*
X048401Y02723D01*
Y027263D01*
X048368Y027296D01*
X048268D01*
X046959Y027277D02*
Y027077D01*
X047059D01*
X047092Y02711D01*
Y027143D01*
X047059Y027177D01*
X046959D01*
X047059D01*
X047092Y02721D01*
Y027243D01*
X047059Y027277D01*
X046959D01*
X047815Y025525D02*
Y025325D01*
X047915D01*
X047948Y025358D01*
Y025391D01*
X047915Y025425D01*
X047815D01*
X047915D01*
X047948Y025458D01*
Y025491D01*
X047915Y025525D01*
X047815D01*
X059026Y026726D02*
Y026526D01*
X059126D01*
X059159Y026559D01*
Y026592D01*
X059126Y026626D01*
X059026D01*
X059126D01*
X059159Y026659D01*
Y026692D01*
X059126Y026726D01*
X059026D01*
X059409Y028487D02*
Y028287D01*
X059509D01*
X059543Y028321D01*
Y028354D01*
X059509Y028387D01*
X059409D01*
X059509D01*
X059543Y028421D01*
Y028454D01*
X059509Y028487D01*
X059409D01*
X0594Y029275D02*
Y029075D01*
X0595D01*
X059533Y029108D01*
Y029141D01*
X0595Y029175D01*
X0594D01*
X0595D01*
X059533Y029208D01*
Y029241D01*
X0595Y029275D01*
X0594D01*
X043701Y029413D02*
Y029213D01*
X043801D01*
X043834Y029246D01*
Y029279D01*
X043801Y029313D01*
X043701D01*
X043801D01*
X043834Y029346D01*
Y029379D01*
X043801Y029413D01*
X043701D01*
X031722Y040899D02*
Y040699D01*
X031822D01*
X031856Y040732D01*
Y040765D01*
X031822Y040799D01*
X031722D01*
X031822D01*
X031856Y040832D01*
Y040865D01*
X031822Y040899D01*
X031722D01*
X0319Y041115D02*
Y040915D01*
X032D01*
X032033Y040949D01*
Y040982D01*
X032Y041015D01*
X0319D01*
X032D01*
X032033Y041049D01*
Y041082D01*
X032Y041115D01*
X0319D01*
X049579Y027691D02*
Y027491D01*
X049679D01*
X049713Y027524D01*
Y027558D01*
X049679Y027591D01*
X049579D01*
X049679D01*
X049713Y027624D01*
Y027657D01*
X049679Y027691D01*
X049579D01*
X050895D02*
Y027491D01*
X050995D01*
X051028Y027524D01*
Y027558D01*
X050995Y027591D01*
X050895D01*
X050995D01*
X051028Y027624D01*
Y027657D01*
X050995Y027691D01*
X050895D01*
X0394Y04392D02*
Y04372D01*
X0395D01*
X039533Y043754D01*
Y043787D01*
X0395Y04382D01*
X0394D01*
X0395D01*
X039533Y043854D01*
Y043887D01*
X0395Y04392D01*
X0394D01*
X044152Y04154D02*
Y04134D01*
X044252D01*
X044286Y041373D01*
Y041406D01*
X044252Y04144D01*
X044152D01*
X044252D01*
X044286Y041473D01*
Y041506D01*
X044252Y04154D01*
X044152D01*
X043141Y04075D02*
Y04055D01*
X043241D01*
X043275Y040583D01*
Y040616D01*
X043241Y04065D01*
X043141D01*
X043241D01*
X043275Y040683D01*
Y040716D01*
X043241Y04075D01*
X043141D01*
X043573Y032296D02*
Y032096D01*
X043673D01*
X043706Y03213D01*
Y032163D01*
X043673Y032196D01*
X043573D01*
X043673D01*
X043706Y03223D01*
Y032263D01*
X043673Y032296D01*
X043573D01*
X031378Y020928D02*
Y020728D01*
X031478D01*
X031511Y020762D01*
Y020795D01*
X031478Y020828D01*
X031378D01*
X031478D01*
X031511Y020862D01*
Y020895D01*
X031478Y020928D01*
X031378D01*
X058602Y031076D02*
Y030876D01*
X058702D01*
X058736Y030909D01*
Y030943D01*
X058702Y030976D01*
X058602D01*
X058702D01*
X058736Y031009D01*
Y031043D01*
X058702Y031076D01*
X058602D01*
X045876Y027047D02*
Y026847D01*
X045976D01*
X046009Y026881D01*
Y026914D01*
X045976Y026947D01*
X045876D01*
X045976D01*
X046009Y026981D01*
Y027014D01*
X045976Y027047D01*
X045876D01*
X046308Y027049D02*
Y026849D01*
X046408D01*
X046441Y026882D01*
Y026916D01*
X046408Y026949D01*
X046308D01*
X046408D01*
X046441Y026982D01*
Y027016D01*
X046408Y027049D01*
X046308D01*
X056191Y031312D02*
Y031112D01*
X056291D01*
X056324Y031146D01*
Y031179D01*
X056291Y031212D01*
X056191D01*
X056291D01*
X056324Y031245D01*
Y031279D01*
X056291Y031312D01*
X056191D01*
X05687Y030692D02*
Y030492D01*
X05697D01*
X057003Y030525D01*
Y030559D01*
X05697Y030592D01*
X05687D01*
X05697D01*
X057003Y030625D01*
Y030659D01*
X05697Y030692D01*
X05687D01*
X056198Y028604D02*
Y028404D01*
X056298D01*
X056332Y028437D01*
Y028471D01*
X056298Y028504D01*
X056198D01*
X056298D01*
X056332Y028537D01*
Y028571D01*
X056298Y028604D01*
X056198D01*
X0581Y030672D02*
Y030472D01*
X0582D01*
X058234Y030506D01*
Y030539D01*
X0582Y030572D01*
X0581D01*
X0582D01*
X058234Y030606D01*
Y030639D01*
X0582Y030672D01*
X0581D01*
X057677Y030781D02*
Y030581D01*
X057777D01*
X05781Y030614D01*
Y030647D01*
X057777Y030681D01*
X057677D01*
X057777D01*
X05781Y030714D01*
Y030747D01*
X057777Y030781D01*
X057677D01*
X058612Y03082D02*
Y03062D01*
X058712D01*
X058745Y030653D01*
Y030687D01*
X058712Y03072D01*
X058612D01*
X058712D01*
X058745Y030753D01*
Y030787D01*
X058712Y03082D01*
X058612D01*
X058967Y030859D02*
Y030659D01*
X059067D01*
X0591Y030693D01*
Y030726D01*
X059067Y030759D01*
X058967D01*
X059067D01*
X0591Y030793D01*
Y030826D01*
X059067Y030859D01*
X058967D01*
X059203D02*
Y030659D01*
X059303D01*
X059336Y030693D01*
Y030726D01*
X059303Y030759D01*
X059203D01*
X059303D01*
X059336Y030793D01*
Y030826D01*
X059303Y030859D01*
X059203D01*
X058209Y030889D02*
Y030689D01*
X058309D01*
X058342Y030722D01*
Y030756D01*
X058309Y030789D01*
X058209D01*
X058309D01*
X058342Y030822D01*
Y030856D01*
X058309Y030889D01*
X058209D01*
X057244Y030397D02*
Y030197D01*
X057344D01*
X057377Y03023D01*
Y030263D01*
X057344Y030297D01*
X057244D01*
X057344D01*
X057377Y03033D01*
Y030363D01*
X057344Y030397D01*
X057244D01*
X057638D02*
Y030197D01*
X057738D01*
X057771Y03023D01*
Y030263D01*
X057738Y030297D01*
X057638D01*
X057738D01*
X057771Y03033D01*
Y030363D01*
X057738Y030397D01*
X057638D01*
X057441Y030279D02*
Y030079D01*
X057541D01*
X057574Y030112D01*
Y030145D01*
X057541Y030179D01*
X057441D01*
X057541D01*
X057574Y030212D01*
Y030245D01*
X057541Y030279D01*
X057441D01*
X051937Y026206D02*
Y026006D01*
X052037D01*
X052071Y02604D01*
Y026073D01*
X052037Y026106D01*
X051937D01*
X052037D01*
X052071Y02614D01*
Y026173D01*
X052037Y026206D01*
X051937D01*
X049339D02*
Y026006D01*
X049439D01*
X049472Y02604D01*
Y026073D01*
X049439Y026106D01*
X049339D01*
X049439D01*
X049472Y02614D01*
Y026173D01*
X049439Y026206D01*
X049339D01*
X049772D02*
Y026006D01*
X049872D01*
X049905Y02604D01*
Y026073D01*
X049872Y026106D01*
X049772D01*
X049872D01*
X049905Y02614D01*
Y026173D01*
X049872Y026206D01*
X049772D01*
X050205D02*
Y026006D01*
X050305D01*
X050338Y02604D01*
Y026073D01*
X050305Y026106D01*
X050205D01*
X050305D01*
X050338Y02614D01*
Y026173D01*
X050305Y026206D01*
X050205D01*
X050638D02*
Y026006D01*
X050738D01*
X050772Y02604D01*
Y026073D01*
X050738Y026106D01*
X050638D01*
X050738D01*
X050772Y02614D01*
Y026173D01*
X050738Y026206D01*
X050638D01*
X051071D02*
Y026006D01*
X051171D01*
X051205Y02604D01*
Y026073D01*
X051171Y026106D01*
X051071D01*
X051171D01*
X051205Y02614D01*
Y026173D01*
X051171Y026206D01*
X051071D01*
X051504D02*
Y026006D01*
X051604D01*
X051638Y02604D01*
Y026073D01*
X051604Y026106D01*
X051504D01*
X051604D01*
X051638Y02614D01*
Y026173D01*
X051604Y026206D01*
X051504D01*
X048906D02*
Y026006D01*
X049006D01*
X049039Y02604D01*
Y026073D01*
X049006Y026106D01*
X048906D01*
X049006D01*
X049039Y02614D01*
Y026173D01*
X049006Y026206D01*
X048906D01*
X048473D02*
Y026006D01*
X048573D01*
X048606Y02604D01*
Y026073D01*
X048573Y026106D01*
X048473D01*
X048573D01*
X048606Y02614D01*
Y026173D01*
X048573Y026206D01*
X048473D01*
X04804D02*
Y026006D01*
X04814D01*
X048173Y02604D01*
Y026073D01*
X04814Y026106D01*
X04804D01*
X04814D01*
X048173Y02614D01*
Y026173D01*
X04814Y026206D01*
X04804D01*
X047607D02*
Y026006D01*
X047707D01*
X04774Y02604D01*
Y026073D01*
X047707Y026106D01*
X047607D01*
X047707D01*
X04774Y02614D01*
Y026173D01*
X047707Y026206D01*
X047607D01*
X047174D02*
Y026006D01*
X047274D01*
X047307Y02604D01*
Y026073D01*
X047274Y026106D01*
X047174D01*
X047274D01*
X047307Y02614D01*
Y026173D01*
X047274Y026206D01*
X047174D01*
X046741D02*
Y026006D01*
X046841D01*
X046874Y02604D01*
Y026073D01*
X046841Y026106D01*
X046741D01*
X046841D01*
X046874Y02614D01*
Y026173D01*
X046841Y026206D01*
X046741D01*
X044575D02*
Y026006D01*
X044675D01*
X044709Y02604D01*
Y026073D01*
X044675Y026106D01*
X044575D01*
X044675D01*
X044709Y02614D01*
Y026173D01*
X044675Y026206D01*
X044575D01*
X044449Y024531D02*
Y024331D01*
X044549D01*
X044582Y024364D01*
Y024397D01*
X044549Y024431D01*
X044449D01*
X044549D01*
X044582Y024464D01*
Y024497D01*
X044549Y024531D01*
X044449D01*
X044252Y024334D02*
Y024134D01*
X044352D01*
X044385Y024167D01*
Y0242D01*
X044352Y024234D01*
X044252D01*
X044352D01*
X044385Y024267D01*
Y0243D01*
X044352Y024334D01*
X044252D01*
X044055Y024531D02*
Y024331D01*
X044155D01*
X044188Y024364D01*
Y024397D01*
X044155Y024431D01*
X044055D01*
X044155D01*
X044188Y024464D01*
Y024497D01*
X044155Y024531D01*
X044055D01*
X045441Y026206D02*
Y026006D01*
X045541D01*
X045575Y02604D01*
Y026073D01*
X045541Y026106D01*
X045441D01*
X045541D01*
X045575Y02614D01*
Y026173D01*
X045541Y026206D01*
X045441D01*
X04241D02*
Y026006D01*
X04251D01*
X042543Y02604D01*
Y026073D01*
X04251Y026106D01*
X04241D01*
X04251D01*
X042543Y02614D01*
Y026173D01*
X04251Y026206D01*
X04241D01*
X041183Y027249D02*
Y02705D01*
X041283D01*
X041317Y027083D01*
Y027116D01*
X041283Y02715D01*
X041183D01*
X041283D01*
X041317Y027183D01*
Y027216D01*
X041283Y027249D01*
X041183D01*
Y028116D02*
Y027916D01*
X041283D01*
X041317Y027949D01*
Y027982D01*
X041283Y028016D01*
X041183D01*
X041283D01*
X041317Y028049D01*
Y028082D01*
X041283Y028116D01*
X041183D01*
X037835Y030279D02*
Y030079D01*
X037935D01*
X037968Y030112D01*
Y030145D01*
X037935Y030179D01*
X037835D01*
X037935D01*
X037968Y030212D01*
Y030245D01*
X037935Y030279D01*
X037835D01*
Y030515D02*
Y030315D01*
X037935D01*
X037968Y030348D01*
Y030382D01*
X037935Y030415D01*
X037835D01*
X037935D01*
X037968Y030448D01*
Y030482D01*
X037935Y030515D01*
X037835D01*
X030069Y035997D02*
Y035797D01*
X030169D01*
X030202Y035831D01*
Y035864D01*
X030169Y035897D01*
X030069D01*
X030169D01*
X030202Y035931D01*
Y035964D01*
X030169Y035997D01*
X030069D01*
X034955Y04173D02*
Y04153D01*
X035055D01*
X035089Y041563D01*
Y041597D01*
X035055Y04163D01*
X034955D01*
X035055D01*
X035089Y041663D01*
Y041697D01*
X035055Y04173D01*
X034955D01*
X033287Y041726D02*
Y041526D01*
X033387D01*
X033421Y04156D01*
Y041593D01*
X033387Y041626D01*
X033287D01*
X033387D01*
X033421Y04166D01*
Y041693D01*
X033387Y041726D01*
X033287D01*
X030866Y031145D02*
Y030945D01*
X030966D01*
X030999Y030978D01*
Y031012D01*
X030966Y031045D01*
X030866D01*
X030966D01*
X030999Y031078D01*
Y031112D01*
X030966Y031145D01*
X030866D01*
Y032562D02*
Y032362D01*
X030966D01*
X030999Y032396D01*
Y032429D01*
X030966Y032462D01*
X030866D01*
X030966D01*
X030999Y032495D01*
Y032529D01*
X030966Y032562D01*
X030866D01*
X036795Y038154D02*
Y037955D01*
X036895D01*
X036928Y037988D01*
Y038021D01*
X036895Y038055D01*
X036795D01*
X036895D01*
X036928Y038088D01*
Y038121D01*
X036895Y038154D01*
X036795D01*
X036791Y038379D02*
Y038179D01*
X036891D01*
X036925Y038212D01*
Y038246D01*
X036891Y038279D01*
X036791D01*
X036891D01*
X036925Y038312D01*
Y038346D01*
X036891Y038379D01*
X036791D01*
X033353Y036704D02*
Y036504D01*
X033453D01*
X033486Y036537D01*
Y036571D01*
X033453Y036604D01*
X033353D01*
X033453D01*
X033486Y036637D01*
Y036671D01*
X033453Y036704D01*
X033353D01*
X028189Y021696D02*
Y021496D01*
X028289D01*
X028322Y021529D01*
Y021563D01*
X028289Y021596D01*
X028189D01*
X028289D01*
X028322Y021629D01*
Y021663D01*
X028289Y021696D01*
X028189D01*
X028465D02*
Y021496D01*
X028565D01*
X028598Y021529D01*
Y021563D01*
X028565Y021596D01*
X028465D01*
X028565D01*
X028598Y021629D01*
Y021663D01*
X028565Y021696D01*
X028465D01*
X02874D02*
Y021496D01*
X02884D01*
X028873Y021529D01*
Y021563D01*
X02884Y021596D01*
X02874D01*
X02884D01*
X028873Y021629D01*
Y021663D01*
X02884Y021696D01*
X02874D01*
Y02209D02*
Y02189D01*
X02884D01*
X028873Y021923D01*
Y021956D01*
X02884Y02199D01*
X02874D01*
X02884D01*
X028873Y022023D01*
Y022056D01*
X02884Y02209D01*
X02874D01*
X028465Y024216D02*
Y024016D01*
X028565D01*
X028598Y024049D01*
Y024082D01*
X028565Y024116D01*
X028465D01*
X028565D01*
X028598Y024149D01*
Y024182D01*
X028565Y024216D01*
X028465D01*
X028819D02*
Y024016D01*
X028919D01*
X028952Y024049D01*
Y024082D01*
X028919Y024116D01*
X028819D01*
X028919D01*
X028952Y024149D01*
Y024182D01*
X028919Y024216D01*
X028819D01*
X029213Y02457D02*
Y02437D01*
X029313D01*
X029346Y024403D01*
Y024437D01*
X029313Y02447D01*
X029213D01*
X029313D01*
X029346Y024503D01*
Y024537D01*
X029313Y02457D01*
X029213D01*
X028819D02*
Y02437D01*
X028919D01*
X028952Y024403D01*
Y024437D01*
X028919Y02447D01*
X028819D01*
X028919D01*
X028952Y024503D01*
Y024537D01*
X028919Y02457D01*
X028819D01*
Y024885D02*
Y024685D01*
X028919D01*
X028952Y024718D01*
Y024752D01*
X028919Y024785D01*
X028819D01*
X028919D01*
X028952Y024818D01*
Y024852D01*
X028919Y024885D01*
X028819D01*
X028465Y0252D02*
Y025D01*
X028565D01*
X028598Y025033D01*
Y025067D01*
X028565Y0251D01*
X028465D01*
X028565D01*
X028598Y025133D01*
Y025167D01*
X028565Y0252D01*
X028465D01*
Y025476D02*
Y025276D01*
X028565D01*
X028598Y025309D01*
Y025342D01*
X028565Y025376D01*
X028465D01*
X028565D01*
X028598Y025409D01*
Y025442D01*
X028565Y025476D01*
X028465D01*
Y025751D02*
Y025551D01*
X028565D01*
X028598Y025584D01*
Y025618D01*
X028565Y025651D01*
X028465D01*
X028565D01*
X028598Y025684D01*
Y025718D01*
X028565Y025751D01*
X028465D01*
X029173Y028586D02*
Y028386D01*
X029273D01*
X029307Y028419D01*
Y028452D01*
X029273Y028486D01*
X029173D01*
X029273D01*
X029307Y028519D01*
Y028552D01*
X029273Y028586D01*
X029173D01*
Y028901D02*
Y028701D01*
X029273D01*
X029307Y028734D01*
Y028767D01*
X029273Y028801D01*
X029173D01*
X029273D01*
X029307Y028834D01*
Y028867D01*
X029273Y028901D01*
X029173D01*
X028453Y029202D02*
Y029002D01*
X028552D01*
X028586Y029036D01*
Y029069D01*
X028552Y029102D01*
X028453D01*
X028552D01*
X028586Y029136D01*
Y029169D01*
X028552Y029202D01*
X028453D01*
X02878Y029216D02*
Y029016D01*
X028879D01*
X028913Y029049D01*
Y029082D01*
X028879Y029116D01*
X02878D01*
X028879D01*
X028913Y029149D01*
Y029182D01*
X028879Y029216D01*
X02878D01*
X028767Y028887D02*
Y028687D01*
X028867D01*
X028901Y028721D01*
Y028754D01*
X028867Y028787D01*
X028767D01*
X028867D01*
X028901Y028821D01*
Y028854D01*
X028867Y028887D01*
X028767D01*
Y028572D02*
Y028372D01*
X028867D01*
X028901Y028406D01*
Y028439D01*
X028867Y028472D01*
X028767D01*
X028867D01*
X028901Y028506D01*
Y028539D01*
X028867Y028572D01*
X028767D01*
X02878Y028231D02*
Y028031D01*
X028879D01*
X028913Y028065D01*
Y028098D01*
X028879Y028131D01*
X02878D01*
X028879D01*
X028913Y028165D01*
Y028198D01*
X028879Y028231D01*
X02878D01*
X028425D02*
Y028031D01*
X028525D01*
X028558Y028065D01*
Y028098D01*
X028525Y028131D01*
X028425D01*
X028525D01*
X028558Y028165D01*
Y028198D01*
X028525Y028231D01*
X028425D01*
X029488Y022838D02*
Y022638D01*
X029588D01*
X029621Y022671D01*
Y022704D01*
X029588Y022738D01*
X029488D01*
X029588D01*
X029621Y022771D01*
Y022804D01*
X029588Y022838D01*
X029488D01*
X029724Y026657D02*
Y026457D01*
X029824D01*
X029858Y02649D01*
Y026523D01*
X029824Y026557D01*
X029724D01*
X029824D01*
X029858Y02659D01*
Y026623D01*
X029824Y026657D01*
X029724D01*
X043461Y030794D02*
Y030594D01*
X043561D01*
X043595Y030627D01*
Y03066D01*
X043561Y030694D01*
X043461D01*
X043561D01*
X043595Y030727D01*
Y03076D01*
X043561Y030794D01*
X043461D01*
X046356Y028507D02*
Y028307D01*
X046456D01*
X04649Y02834D01*
Y028374D01*
X046456Y028407D01*
X046356D01*
X046456D01*
X04649Y02844D01*
Y028474D01*
X046456Y028507D01*
X046356D01*
X046355Y029009D02*
Y028809D01*
X046455D01*
X046489Y028842D01*
Y028876D01*
X046455Y028909D01*
X046355D01*
X046455D01*
X046489Y028942D01*
Y028976D01*
X046455Y029009D01*
X046355D01*
Y031509D02*
Y031309D01*
X046455D01*
X046489Y031342D01*
Y031376D01*
X046455Y031409D01*
X046355D01*
X046455D01*
X046489Y031442D01*
Y031476D01*
X046455Y031509D01*
X046355D01*
X046356Y029511D02*
Y029311D01*
X046456D01*
X04649Y029344D01*
Y029378D01*
X046456Y029411D01*
X046356D01*
X046456D01*
X04649Y029444D01*
Y029478D01*
X046456Y029511D01*
X046356D01*
X046358Y030003D02*
Y029803D01*
X046458D01*
X046492Y029836D01*
Y02987D01*
X046458Y029903D01*
X046358D01*
X046458D01*
X046492Y029936D01*
Y02997D01*
X046458Y030003D01*
X046358D01*
X046909Y03019D02*
Y02999D01*
X047009D01*
X047043Y030023D01*
Y030057D01*
X047009Y03009D01*
X046909D01*
X047009D01*
X047043Y030123D01*
Y030157D01*
X047009Y03019D01*
X046909D01*
X046362Y030495D02*
Y030295D01*
X046462D01*
X046495Y030329D01*
Y030362D01*
X046462Y030395D01*
X046362D01*
X046462D01*
X046495Y030429D01*
Y030462D01*
X046462Y030495D01*
X046362D01*
X046356Y031007D02*
Y030807D01*
X046456D01*
X04649Y03084D01*
Y030874D01*
X046456Y030907D01*
X046356D01*
X046456D01*
X04649Y03094D01*
Y030974D01*
X046456Y031007D01*
X046356D01*
X046359Y032001D02*
Y031801D01*
X046459D01*
X046493Y031834D01*
Y031868D01*
X046459Y031901D01*
X046359D01*
X046459D01*
X046493Y031934D01*
Y031968D01*
X046459Y032001D01*
X046359D01*
X046909Y032139D02*
Y031939D01*
X047009D01*
X047043Y031972D01*
Y032006D01*
X047009Y032039D01*
X046909D01*
X047009D01*
X047043Y032072D01*
Y032106D01*
X047009Y032139D01*
X046909D01*
X052283Y031893D02*
Y031693D01*
X052383D01*
X052417Y031726D01*
Y03176D01*
X052383Y031793D01*
X052283D01*
X052383D01*
X052417Y031826D01*
Y03186D01*
X052383Y031893D01*
X052283D01*
X044146Y0441D02*
Y0439D01*
X044246D01*
X044279Y043933D01*
Y043966D01*
X044246Y044D01*
X044146D01*
X044246D01*
X044279Y044033D01*
Y044066D01*
X044246Y0441D01*
X044146D01*
X044188Y0443D02*
Y0441D01*
X044288D01*
X044321Y044133D01*
Y044166D01*
X044288Y0442D01*
X044188D01*
X044288D01*
X044321Y044233D01*
Y044266D01*
X044288Y0443D01*
X044188D01*
X043327Y044688D02*
Y044488D01*
X043427D01*
X04346Y044522D01*
Y044555D01*
X043427Y044588D01*
X043327D01*
X043427D01*
X04346Y044621D01*
Y044655D01*
X043427Y044688D01*
X043327D01*
X045098Y043143D02*
Y042943D01*
X045198D01*
X045232Y042976D01*
Y04301D01*
X045198Y043043D01*
X045098D01*
X045198D01*
X045232Y043076D01*
Y04311D01*
X045198Y043143D01*
X045098D01*
X045354Y042857D02*
Y042657D01*
X045454D01*
X045488Y042691D01*
Y042724D01*
X045454Y042757D01*
X045354D01*
X045454D01*
X045488Y042791D01*
Y042824D01*
X045454Y042857D01*
X045354D01*
X045325Y043074D02*
Y042874D01*
X045425D01*
X045458Y042907D01*
Y042941D01*
X045425Y042974D01*
X045325D01*
X045425D01*
X045458Y043007D01*
Y043041D01*
X045425Y043074D01*
X045325D01*
X041073Y034088D02*
Y033888D01*
X041173D01*
X041206Y033921D01*
Y033954D01*
X041173Y033988D01*
X041073D01*
X041173D01*
X041206Y034021D01*
Y034054D01*
X041173Y034088D01*
X041073D01*
Y033832D02*
Y033632D01*
X041173D01*
X041206Y033665D01*
Y033699D01*
X041173Y033732D01*
X041073D01*
X041173D01*
X041206Y033765D01*
Y033798D01*
X041173Y033832D01*
X041073D01*
X043268Y043919D02*
Y043719D01*
X043368D01*
X043401Y043752D01*
Y043786D01*
X043368Y043819D01*
X043268D01*
X043368D01*
X043401Y043852D01*
Y043886D01*
X043368Y043919D01*
X043268D01*
Y043702D02*
Y043502D01*
X043368D01*
X043401Y043536D01*
Y043569D01*
X043368Y043602D01*
X043268D01*
X043368D01*
X043401Y043636D01*
Y043669D01*
X043368Y043702D01*
X043268D01*
X043298Y040162D02*
Y039963D01*
X043398D01*
X043431Y039996D01*
Y040029D01*
X043398Y040063D01*
X043298D01*
X043398D01*
X043431Y040096D01*
Y040129D01*
X043398Y040162D01*
X043298D01*
X040318Y043512D02*
Y043313D01*
X040418D01*
X040451Y043346D01*
Y043379D01*
X040418Y043413D01*
X040318D01*
X040418D01*
X040451Y043446D01*
Y043479D01*
X040418Y043512D01*
X040318D01*
Y040362D02*
Y040163D01*
X040418D01*
X040451Y040196D01*
Y040229D01*
X040418Y040263D01*
X040318D01*
X040418D01*
X040451Y040296D01*
Y040329D01*
X040418Y040362D01*
X040318D01*
X043298Y040562D02*
Y040363D01*
X043398D01*
X043431Y040396D01*
Y040429D01*
X043398Y040463D01*
X043298D01*
X043398D01*
X043431Y040496D01*
Y040529D01*
X043398Y040562D01*
X043298D01*
X040119Y043709D02*
Y043509D01*
X040219D01*
X040252Y043543D01*
Y043576D01*
X040219Y043609D01*
X040119D01*
X040219D01*
X040252Y043643D01*
Y043676D01*
X040219Y043709D01*
X040119D01*
X040315Y045485D02*
Y045285D01*
X040415D01*
X040448Y045319D01*
Y045352D01*
X040415Y045385D01*
X040315D01*
X040415D01*
X040448Y045419D01*
Y045452D01*
X040415Y045485D01*
X040315D01*
X03998Y042129D02*
Y041929D01*
X04008D01*
X040114Y041962D01*
Y041996D01*
X04008Y042029D01*
X03998D01*
X04008D01*
X040114Y042062D01*
Y042096D01*
X04008Y042129D01*
X03998D01*
X043298Y040952D02*
Y040753D01*
X043398D01*
X043431Y040786D01*
Y040819D01*
X043398Y040853D01*
X043298D01*
X043398D01*
X043431Y040886D01*
Y040919D01*
X043398Y040952D01*
X043298D01*
X040118Y045279D02*
Y045079D01*
X040218D01*
X040251Y045112D01*
Y045145D01*
X040218Y045179D01*
X040118D01*
X040218D01*
X040251Y045212D01*
Y045245D01*
X040218Y045279D01*
X040118D01*
X040318Y042722D02*
Y042523D01*
X040418D01*
X040451Y042556D01*
Y042589D01*
X040418Y042623D01*
X040318D01*
X040418D01*
X040451Y042656D01*
Y042689D01*
X040418Y042722D01*
X040318D01*
X043099Y041149D02*
Y040949D01*
X043199D01*
X043232Y040983D01*
Y041016D01*
X043199Y041049D01*
X043099D01*
X043199D01*
X043232Y041083D01*
Y041116D01*
X043199Y041149D01*
X043099D01*
X040318Y044302D02*
Y044103D01*
X040418D01*
X040451Y044136D01*
Y044169D01*
X040418Y044203D01*
X040318D01*
X040418D01*
X040451Y044236D01*
Y044269D01*
X040418Y044302D01*
X040318D01*
X043298Y041342D02*
Y041143D01*
X043398D01*
X043431Y041176D01*
Y041209D01*
X043398Y041243D01*
X043298D01*
X043398D01*
X043431Y041276D01*
Y041309D01*
X043398Y041342D01*
X043298D01*
X039862Y042936D02*
Y042736D01*
X039962D01*
X039996Y04277D01*
Y042803D01*
X039962Y042836D01*
X039862D01*
X039962D01*
X039996Y04287D01*
Y042903D01*
X039962Y042936D01*
X039862D01*
X040318Y042332D02*
Y042133D01*
X040418D01*
X040451Y042166D01*
Y042199D01*
X040418Y042233D01*
X040318D01*
X040418D01*
X040451Y042266D01*
Y042299D01*
X040418Y042332D01*
X040318D01*
Y044692D02*
Y044493D01*
X040418D01*
X040451Y044526D01*
Y044559D01*
X040418Y044593D01*
X040318D01*
X040418D01*
X040451Y044626D01*
Y044659D01*
X040418Y044692D01*
X040318D01*
X04123Y041932D02*
Y041732D01*
X04133D01*
X041364Y041766D01*
Y041799D01*
X04133Y041832D01*
X04123D01*
X04133D01*
X041364Y041866D01*
Y041899D01*
X04133Y041932D01*
X04123D01*
X043099Y045079D02*
Y044879D01*
X043199D01*
X043232Y044913D01*
Y044946D01*
X043199Y044979D01*
X043099D01*
X043199D01*
X043232Y045012D01*
Y045046D01*
X043199Y045079D01*
X043099D01*
X043298Y045282D02*
Y045083D01*
X043398D01*
X043431Y045116D01*
Y045149D01*
X043398Y045183D01*
X043298D01*
X043398D01*
X043431Y045216D01*
Y045249D01*
X043398Y045282D01*
X043298D01*
X040119Y040559D02*
Y040359D01*
X040219D01*
X040252Y040393D01*
Y040426D01*
X040219Y040459D01*
X040119D01*
X040219D01*
X040252Y040493D01*
Y040526D01*
X040219Y040559D01*
X040119D01*
Y044889D02*
Y044689D01*
X040219D01*
X040252Y044723D01*
Y044756D01*
X040219Y044789D01*
X040119D01*
X040219D01*
X040252Y044823D01*
Y044856D01*
X040219Y044889D01*
X040119D01*
X040318Y043902D02*
Y043703D01*
X040418D01*
X040451Y043736D01*
Y043769D01*
X040418Y043803D01*
X040318D01*
X040418D01*
X040451Y043836D01*
Y043869D01*
X040418Y043902D01*
X040318D01*
Y043122D02*
Y042923D01*
X040418D01*
X040451Y042956D01*
Y042989D01*
X040418Y043023D01*
X040318D01*
X040418D01*
X040451Y043056D01*
Y043089D01*
X040418Y043122D01*
X040318D01*
Y041542D02*
Y041343D01*
X040418D01*
X040451Y041376D01*
Y041409D01*
X040418Y041443D01*
X040318D01*
X040418D01*
X040451Y041476D01*
Y041509D01*
X040418Y041542D01*
X040318D01*
X040119Y041339D02*
Y041139D01*
X040219D01*
X040252Y041173D01*
Y041206D01*
X040219Y041239D01*
X040119D01*
X040219D01*
X040252Y041273D01*
Y041306D01*
X040219Y041339D01*
X040119D01*
X040318Y041152D02*
Y040953D01*
X040418D01*
X040451Y040986D01*
Y041019D01*
X040418Y041053D01*
X040318D01*
X040418D01*
X040451Y041086D01*
Y041119D01*
X040418Y041152D01*
X040318D01*
Y040752D02*
Y040553D01*
X040418D01*
X040451Y040586D01*
Y040619D01*
X040418Y040653D01*
X040318D01*
X040418D01*
X040451Y040686D01*
Y040719D01*
X040418Y040752D01*
X040318D01*
X043583Y020003D02*
Y019803D01*
X043683D01*
X043716Y019836D01*
Y01987D01*
X043683Y019903D01*
X043583D01*
X043683D01*
X043716Y019936D01*
Y01997D01*
X043683Y020003D01*
X043583D01*
X043395Y022347D02*
Y022147D01*
X043495D01*
X043528Y02218D01*
Y022214D01*
X043495Y022247D01*
X043395D01*
X043495D01*
X043528Y02228D01*
Y022313D01*
X043495Y022347D01*
X043395D01*
X04163Y024082D02*
Y023882D01*
X04173D01*
X041763Y023915D01*
Y023949D01*
X04173Y023982D01*
X04163D01*
X04173D01*
X041763Y024015D01*
Y024049D01*
X04173Y024082D01*
X04163D01*
X041628Y023808D02*
Y023608D01*
X041728D01*
X041761Y023642D01*
Y023675D01*
X041728Y023708D01*
X041628D01*
X041728D01*
X041761Y023742D01*
Y023775D01*
X041728Y023808D01*
X041628D01*
Y023533D02*
Y023333D01*
X041728D01*
X041761Y023366D01*
Y023399D01*
X041728Y023433D01*
X041628D01*
X041728D01*
X041761Y023466D01*
Y023499D01*
X041728Y023533D01*
X041628D01*
Y023257D02*
Y023057D01*
X041728D01*
X041761Y02309D01*
Y023124D01*
X041728Y023157D01*
X041628D01*
X041728D01*
X041761Y02319D01*
Y023224D01*
X041728Y023257D01*
X041628D01*
Y022981D02*
Y022781D01*
X041728D01*
X041761Y022815D01*
Y022848D01*
X041728Y022881D01*
X041628D01*
X041728D01*
X041761Y022915D01*
Y022948D01*
X041728Y022981D01*
X041628D01*
Y022696D02*
Y022496D01*
X041728D01*
X041761Y022529D01*
Y022563D01*
X041728Y022596D01*
X041628D01*
X041728D01*
X041761Y022629D01*
Y022663D01*
X041728Y022696D01*
X041628D01*
X04547Y024568D02*
Y024368D01*
X04557D01*
X045604Y024401D01*
Y024435D01*
X04557Y024468D01*
X04547D01*
X04557D01*
X045604Y024501D01*
Y024535D01*
X04557Y024568D01*
X04547D01*
X045707D02*
Y024368D01*
X045807D01*
X04584Y024401D01*
Y024435D01*
X045807Y024468D01*
X045707D01*
X045807D01*
X04584Y024501D01*
Y024535D01*
X045807Y024568D01*
X045707D01*
X056968Y026184D02*
Y025984D01*
X057068D01*
X057102Y026018D01*
Y026051D01*
X057068Y026084D01*
X056968D01*
X057068D01*
X057102Y026118D01*
Y026151D01*
X057068Y026184D01*
X056968D01*
X05679Y02851D02*
Y02831D01*
X05689D01*
X056923Y028343D01*
Y028377D01*
X05689Y02841D01*
X05679D01*
X05689D01*
X056923Y028443D01*
Y028477D01*
X05689Y02851D01*
X05679D01*
X055037Y028853D02*
Y028654D01*
X055137D01*
X055171Y028687D01*
Y02872D01*
X055137Y028754D01*
X055037D01*
X055137D01*
X055171Y028787D01*
Y02882D01*
X055137Y028853D01*
X055037D01*
Y029139D02*
Y028939D01*
X055137D01*
X055171Y028972D01*
Y029006D01*
X055137Y029039D01*
X055037D01*
X055137D01*
X055171Y029072D01*
Y029106D01*
X055137Y029139D01*
X055037D01*
Y029415D02*
Y029215D01*
X055137D01*
X055171Y029248D01*
Y029281D01*
X055137Y029315D01*
X055037D01*
X055137D01*
X055171Y029348D01*
Y029381D01*
X055137Y029415D01*
X055037D01*
Y02969D02*
Y02949D01*
X055137D01*
X055171Y029523D01*
Y029557D01*
X055137Y02959D01*
X055037D01*
X055137D01*
X055171Y029623D01*
Y029657D01*
X055137Y02969D01*
X055037D01*
Y029966D02*
Y029766D01*
X055137D01*
X055171Y029799D01*
Y029832D01*
X055137Y029866D01*
X055037D01*
X055137D01*
X055171Y029899D01*
Y029932D01*
X055137Y029966D01*
X055037D01*
X055039Y030239D02*
Y030039D01*
X055139D01*
X055173Y030073D01*
Y030106D01*
X055139Y030139D01*
X055039D01*
X055139D01*
X055173Y030173D01*
Y030206D01*
X055139Y030239D01*
X055039D01*
X059636Y025033D02*
Y024833D01*
X059736D01*
X059769Y024866D01*
Y024899D01*
X059736Y024933D01*
X059636D01*
X059736D01*
X059769Y024966D01*
Y024999D01*
X059736Y025033D01*
X059636D01*
X058189Y026066D02*
Y025866D01*
X058289D01*
X058322Y025899D01*
Y025933D01*
X058289Y025966D01*
X058189D01*
X058289D01*
X058322Y025999D01*
Y026033D01*
X058289Y026066D01*
X058189D01*
X053514Y02204D02*
Y021841D01*
X053614D01*
X053647Y021874D01*
Y021907D01*
X053614Y021941D01*
X053514D01*
X053614D01*
X053647Y021974D01*
Y022007D01*
X053614Y02204D01*
X053514D01*
X053858Y021853D02*
Y021654D01*
X053958D01*
X053992Y021687D01*
Y02172D01*
X053958Y021754D01*
X053858D01*
X053958D01*
X053992Y021787D01*
Y02182D01*
X053958Y021853D01*
X053858D01*
X047677D02*
Y021654D01*
X047777D01*
X04781Y021687D01*
Y02172D01*
X047777Y021754D01*
X047677D01*
X047777D01*
X04781Y021787D01*
Y02182D01*
X047777Y021853D01*
X047677D01*
X048071Y022011D02*
Y021811D01*
X048171D01*
X048204Y021844D01*
Y021878D01*
X048171Y021911D01*
X048071D01*
X048171D01*
X048204Y021944D01*
Y021978D01*
X048171Y022011D01*
X048071D01*
X062756Y02205D02*
Y02185D01*
X062856D01*
X062889Y021884D01*
Y021917D01*
X062856Y02195D01*
X062756D01*
X062856D01*
X062889Y021984D01*
Y022017D01*
X062856Y02205D01*
X062756D01*
X06315Y021853D02*
Y021654D01*
X06325D01*
X063283Y021687D01*
Y02172D01*
X06325Y021754D01*
X06315D01*
X06325D01*
X063283Y021787D01*
Y02182D01*
X06325Y021853D01*
X06315D01*
X057283Y022011D02*
Y021811D01*
X057383D01*
X057417Y021844D01*
Y021878D01*
X057383Y021911D01*
X057283D01*
X057383D01*
X057417Y021944D01*
Y021978D01*
X057383Y022011D01*
X057283D01*
X05689Y021853D02*
Y021654D01*
X05699D01*
X057023Y021687D01*
Y02172D01*
X05699Y021754D01*
X05689D01*
X05699D01*
X057023Y021787D01*
Y02182D01*
X05699Y021853D01*
X05689D01*
X050118Y024288D02*
Y024088D01*
X050218D01*
X050251Y024121D01*
Y024154D01*
X050218Y024188D01*
X050118D01*
X050218D01*
X050251Y024221D01*
Y024254D01*
X050218Y024288D01*
X050118D01*
Y023579D02*
Y023379D01*
X050218D01*
X050251Y023412D01*
Y023446D01*
X050218Y023479D01*
X050118D01*
X050218D01*
X050251Y023512D01*
Y023546D01*
X050218Y023579D01*
X050118D01*
X051575Y024294D02*
Y024094D01*
X051675D01*
X051708Y024128D01*
Y024161D01*
X051675Y024194D01*
X051575D01*
X051675D01*
X051708Y024228D01*
Y024261D01*
X051675Y024294D01*
X051575D01*
Y023586D02*
Y023386D01*
X051675D01*
X051708Y023419D01*
Y023452D01*
X051675Y023486D01*
X051575D01*
X051675D01*
X051708Y023519D01*
Y023552D01*
X051675Y023586D01*
X051575D01*
X030591Y020082D02*
Y019882D01*
X030691D01*
X030724Y019915D01*
Y019949D01*
X030691Y019982D01*
X030591D01*
X030691D01*
X030724Y020015D01*
Y020048D01*
X030691Y020082D01*
X030591D01*
X031024Y020082D02*
Y019882D01*
X031124D01*
X031157Y019915D01*
Y019949D01*
X031124Y019982D01*
X031024D01*
X031124D01*
X031157Y020015D01*
Y020048D01*
X031124Y020082D01*
X031024D01*
X057657Y039204D02*
Y039004D01*
X057757D01*
X05779Y039037D01*
Y03907D01*
X057757Y039104D01*
X057657D01*
X057757D01*
X05779Y039137D01*
Y03917D01*
X057757Y039204D01*
X057657D01*
X057815Y039361D02*
Y039161D01*
X057915D01*
X057948Y039195D01*
Y039228D01*
X057915Y039261D01*
X057815D01*
X057915D01*
X057948Y039295D01*
Y039328D01*
X057915Y039361D01*
X057815D01*
X057539D02*
Y039161D01*
X057639D01*
X057672Y039195D01*
Y039228D01*
X057639Y039261D01*
X057539D01*
X057639D01*
X057672Y039295D01*
Y039328D01*
X057639Y039361D01*
X057539D01*
X056135Y032777D02*
Y032577D01*
X056235D01*
X056268Y03261D01*
Y032644D01*
X056235Y032677D01*
X056135D01*
X056235D01*
X056268Y03271D01*
Y032744D01*
X056235Y032777D01*
X056135D01*
X05439Y034206D02*
Y034006D01*
X05449D01*
X054523Y034039D01*
Y034073D01*
X05449Y034106D01*
X05439D01*
X05449D01*
X054523Y034139D01*
Y034173D01*
X05449Y034206D01*
X05439D01*
X054033Y036777D02*
Y036577D01*
X054133D01*
X054166Y03661D01*
Y036644D01*
X054133Y036677D01*
X054033D01*
X054133D01*
X054166Y03671D01*
Y036744D01*
X054133Y036777D01*
X054033D01*
X054104Y034206D02*
Y034006D01*
X054204D01*
X054238Y034039D01*
Y034073D01*
X054204Y034106D01*
X054104D01*
X054204D01*
X054238Y034139D01*
Y034173D01*
X054204Y034206D01*
X054104D01*
X054033Y035045D02*
Y034845D01*
X054133D01*
X054166Y034878D01*
Y034911D01*
X054133Y034945D01*
X054033D01*
X054133D01*
X054166Y034978D01*
Y035011D01*
X054133Y035045D01*
X054033D01*
Y035478D02*
Y035278D01*
X054133D01*
X054166Y035311D01*
Y035345D01*
X054133Y035378D01*
X054033D01*
X054133D01*
X054166Y035411D01*
Y035444D01*
X054133Y035478D01*
X054033D01*
Y035911D02*
Y035711D01*
X054133D01*
X054166Y035744D01*
Y035778D01*
X054133Y035811D01*
X054033D01*
X054133D01*
X054166Y035844D01*
Y035878D01*
X054133Y035911D01*
X054033D01*
Y036344D02*
Y036144D01*
X054133D01*
X054166Y036177D01*
Y036211D01*
X054133Y036244D01*
X054033D01*
X054133D01*
X054166Y036277D01*
Y036311D01*
X054133Y036344D01*
X054033D01*
X032037Y032542D02*
Y032343D01*
X032137D01*
X032171Y032376D01*
Y032409D01*
X032137Y032442D01*
X032037D01*
X032137D01*
X032171Y032476D01*
Y032509D01*
X032137Y032542D01*
X032037D01*
Y031165D02*
Y030965D01*
X032137D01*
X032171Y030998D01*
Y031031D01*
X032137Y031065D01*
X032037D01*
X032137D01*
X032171Y031098D01*
Y031131D01*
X032137Y031165D01*
X032037D01*
X031476Y031342D02*
Y031142D01*
X031576D01*
X03161Y031175D01*
Y031208D01*
X031576Y031242D01*
X031476D01*
X031576D01*
X03161Y031275D01*
Y031308D01*
X031576Y031342D01*
X031476D01*
Y032365D02*
Y032165D01*
X031576D01*
X03161Y032199D01*
Y032232D01*
X031576Y032265D01*
X031476D01*
X031576D01*
X03161Y032299D01*
Y032332D01*
X031576Y032365D01*
X031476D01*
X029472Y03235D02*
Y03215D01*
X029572D01*
X029606Y032183D01*
Y032216D01*
X029572Y03225D01*
X029472D01*
X029572D01*
X029606Y032283D01*
Y032316D01*
X029572Y03235D01*
X029472D01*
X029469Y031342D02*
Y031142D01*
X029568D01*
X029602Y031175D01*
Y031208D01*
X029568Y031242D01*
X029469D01*
X029568D01*
X029602Y031275D01*
Y031308D01*
X029568Y031342D01*
X029469D01*
X030256D02*
Y031142D01*
X030356D01*
X030389Y031175D01*
Y031208D01*
X030356Y031242D01*
X030256D01*
X030356D01*
X030389Y031275D01*
Y031308D01*
X030356Y031342D01*
X030256D01*
X03026Y03235D02*
Y03215D01*
X03036D01*
X030393Y032183D01*
Y032216D01*
X03036Y03225D01*
X03026D01*
X03036D01*
X030393Y032283D01*
Y032316D01*
X03036Y03235D01*
X03026D01*
X028465Y031342D02*
Y031142D01*
X028565D01*
X028598Y031175D01*
Y031208D01*
X028565Y031242D01*
X028465D01*
X028565D01*
X028598Y031275D01*
Y031308D01*
X028565Y031342D01*
X028465D01*
X028461Y03235D02*
Y03215D01*
X028561D01*
X028594Y032183D01*
Y032216D01*
X028561Y03225D01*
X028461D01*
X028561D01*
X028594Y032283D01*
Y032316D01*
X028561Y03235D01*
X028461D01*
X029256D02*
Y03215D01*
X029356D01*
X029389Y032183D01*
Y032216D01*
X029356Y03225D01*
X029256D01*
X029356D01*
X029389Y032283D01*
Y032316D01*
X029356Y03235D01*
X029256D01*
X029252Y031342D02*
Y031142D01*
X029352D01*
X029385Y031175D01*
Y031208D01*
X029352Y031242D01*
X029252D01*
X029352D01*
X029385Y031275D01*
Y031308D01*
X029352Y031342D01*
X029252D01*
X043415Y034964D02*
Y034764D01*
X043515D01*
X043549Y034797D01*
Y03483D01*
X043515Y034864D01*
X043415D01*
X043515D01*
X043549Y034897D01*
Y03493D01*
X043515Y034964D01*
X043415D01*
Y036352D02*
Y036152D01*
X043515D01*
X043549Y036185D01*
Y036218D01*
X043515Y036252D01*
X043415D01*
X043515D01*
X043549Y036285D01*
Y036318D01*
X043515Y036352D01*
X043415D01*
X035443Y034058D02*
Y033858D01*
X035543D01*
X035576Y033892D01*
Y033925D01*
X035543Y033958D01*
X035443D01*
X035543D01*
X035576Y033992D01*
Y034025D01*
X035543Y034058D01*
X035443D01*
Y033822D02*
Y033622D01*
X035543D01*
X035576Y033655D01*
Y033689D01*
X035543Y033722D01*
X035443D01*
X035543D01*
X035576Y033755D01*
Y033789D01*
X035543Y033822D01*
X035443D01*
X033386Y034649D02*
Y034449D01*
X033486D01*
X033519Y034482D01*
Y034515D01*
X033486Y034549D01*
X033386D01*
X033486D01*
X033519Y034582D01*
Y034615D01*
X033486Y034649D01*
X033386D01*
Y033625D02*
Y033425D01*
X033486D01*
X033519Y033459D01*
Y033492D01*
X033486Y033525D01*
X033386D01*
X033486D01*
X033519Y033558D01*
Y033592D01*
X033486Y033625D01*
X033386D01*
X03489Y034882D02*
Y034682D01*
X03499D01*
X035023Y034716D01*
Y034749D01*
X03499Y034782D01*
X03489D01*
X03499D01*
X035023Y034816D01*
Y034849D01*
X03499Y034882D01*
X03489D01*
X035118Y034885D02*
Y034685D01*
X035218D01*
X035252Y034718D01*
Y034752D01*
X035218Y034785D01*
X035118D01*
X035218D01*
X035252Y034818D01*
Y034852D01*
X035218Y034885D01*
X035118D01*
X04562Y020578D02*
Y020378D01*
X04572D01*
X045753Y020411D01*
Y020445D01*
X04572Y020478D01*
X04562D01*
X04572D01*
X045753Y020511D01*
Y020545D01*
X04572Y020578D01*
X04562D01*
X045984Y022326D02*
Y022126D01*
X046084D01*
X046118Y022159D01*
Y022193D01*
X046084Y022226D01*
X045984D01*
X046084D01*
X046118Y022259D01*
Y022293D01*
X046084Y022326D01*
X045984D01*
Y023113D02*
Y022913D01*
X046084D01*
X046118Y022947D01*
Y02298D01*
X046084Y023013D01*
X045984D01*
X046084D01*
X046118Y023047D01*
Y02308D01*
X046084Y023113D01*
X045984D01*
X05998Y022198D02*
Y021998D01*
X06008D01*
X060114Y022031D01*
Y022065D01*
X06008Y022098D01*
X05998D01*
X06008D01*
X060114Y022131D01*
Y022165D01*
X06008Y022198D01*
X05998D01*
Y021962D02*
Y021762D01*
X06008D01*
X060114Y021795D01*
Y021828D01*
X06008Y021862D01*
X05998D01*
X06008D01*
X060114Y021895D01*
Y021928D01*
X06008Y021962D01*
X05998D01*
X059331Y024216D02*
Y024016D01*
X059431D01*
X059464Y024049D01*
Y024082D01*
X059431Y024116D01*
X059331D01*
X059431D01*
X059464Y024149D01*
Y024182D01*
X059431Y024216D01*
X059331D01*
Y023507D02*
Y023307D01*
X059431D01*
X059464Y02334D01*
Y023374D01*
X059431Y023407D01*
X059331D01*
X059431D01*
X059464Y02344D01*
Y023474D01*
X059431Y023507D01*
X059331D01*
X060866D02*
Y023307D01*
X060966D01*
X060999Y02334D01*
Y023374D01*
X060966Y023407D01*
X060866D01*
X060966D01*
X060999Y02344D01*
Y023474D01*
X060966Y023507D01*
X060866D01*
Y024216D02*
Y024016D01*
X060966D01*
X060999Y024049D01*
Y024082D01*
X060966Y024116D01*
X060866D01*
X060966D01*
X060999Y024149D01*
Y024182D01*
X060966Y024216D01*
X060866D01*
X056988Y035279D02*
Y035079D01*
X057088D01*
X057121Y035112D01*
Y035145D01*
X057088Y035179D01*
X056988D01*
X057088D01*
X057121Y035212D01*
Y035245D01*
X057088Y035279D01*
X056988D01*
X056993Y035022D02*
Y034822D01*
X057093D01*
X057126Y034855D01*
Y034889D01*
X057093Y034922D01*
X056993D01*
X057093D01*
X057126Y034955D01*
Y034989D01*
X057093Y035022D01*
X056993D01*
X057047Y035505D02*
Y035305D01*
X057147D01*
X057181Y035338D01*
Y035372D01*
X057147Y035405D01*
X057047D01*
X057147D01*
X057181Y035438D01*
Y035472D01*
X057147Y035505D01*
X057047D01*
X057657Y035672D02*
Y035472D01*
X057757D01*
X057791Y035506D01*
Y035539D01*
X057757Y035572D01*
X057657D01*
X057757D01*
X057791Y035606D01*
Y035639D01*
X057757Y035672D01*
X057657D01*
X057411Y03584D02*
Y03564D01*
X057511D01*
X057545Y035673D01*
Y035706D01*
X057511Y03574D01*
X057411D01*
X057511D01*
X057545Y035773D01*
Y035806D01*
X057511Y03584D01*
X057411D01*
X057628Y036046D02*
Y035846D01*
X057728D01*
X057761Y03588D01*
Y035913D01*
X057728Y035946D01*
X057628D01*
X057728D01*
X057761Y03598D01*
Y036013D01*
X057728Y036046D01*
X057628D01*
X057697Y036405D02*
Y036205D01*
X057797D01*
X05783Y036238D01*
Y036272D01*
X057797Y036305D01*
X057697D01*
X057797D01*
X05783Y036338D01*
Y036372D01*
X057797Y036405D01*
X057697D01*
X05755Y036315D02*
Y036115D01*
X05765D01*
X057684Y036148D01*
Y036181D01*
X05765Y036215D01*
X05755D01*
X05765D01*
X057684Y036248D01*
Y036281D01*
X05765Y036315D01*
X05755D01*
X058937Y035161D02*
Y034961D01*
X059037D01*
X05907Y034994D01*
Y035027D01*
X059037Y035061D01*
X058937D01*
X059037D01*
X05907Y035094D01*
Y035127D01*
X059037Y035161D01*
X058937D01*
X058809Y035564D02*
Y035364D01*
X058909D01*
X058942Y035398D01*
Y035431D01*
X058909Y035464D01*
X058809D01*
X058909D01*
X058942Y035497D01*
Y035531D01*
X058909Y035564D01*
X058809D01*
X058346Y035161D02*
Y034961D01*
X058446D01*
X05848Y034994D01*
Y035027D01*
X058446Y035061D01*
X058346D01*
X058446D01*
X05848Y035094D01*
Y035127D01*
X058446Y035161D01*
X058346D01*
X058268Y035554D02*
Y035354D01*
X058368D01*
X058401Y035388D01*
Y035421D01*
X058368Y035454D01*
X058268D01*
X058368D01*
X058401Y035488D01*
Y035521D01*
X058368Y035554D01*
X058268D01*
X032362Y017995D02*
Y017795D01*
X032462D01*
X032496Y017829D01*
Y017862D01*
X032462Y017895D01*
X032362D01*
X032462D01*
X032496Y017929D01*
Y017962D01*
X032462Y017995D01*
X032362D01*
X03378Y017798D02*
Y017598D01*
X033879D01*
X033913Y017632D01*
Y017665D01*
X033879Y017698D01*
X03378D01*
X033879D01*
X033913Y017732D01*
Y017765D01*
X033879Y017798D01*
X03378D01*
X031551Y017679D02*
X031517Y017712D01*
X031451D01*
X031417Y017679D01*
Y017546D01*
X031451Y017512D01*
X031517D01*
X031551Y017546D01*
X029862Y021834D02*
Y021634D01*
X029962D01*
X029995Y021667D01*
Y0217D01*
X029962Y021734D01*
X029862D01*
X029962D01*
X029995Y021767D01*
Y0218D01*
X029962Y021834D01*
X029862D01*
X043566Y046318D02*
Y046118D01*
X043666D01*
X043699Y046151D01*
Y046184D01*
X043666Y046218D01*
X043566D01*
X043666D01*
X043699Y046251D01*
Y046284D01*
X043666Y046318D01*
X043566D01*
X043526Y046042D02*
Y045842D01*
X043626D01*
X04366Y045875D01*
Y045909D01*
X043626Y045942D01*
X043526D01*
X043626D01*
X04366Y045975D01*
Y046009D01*
X043626Y046042D01*
X043526D01*
X043251Y045963D02*
Y045763D01*
X043351D01*
X043384Y045797D01*
Y04583D01*
X043351Y045863D01*
X043251D01*
X043351D01*
X043384Y045897D01*
Y04593D01*
X043351Y045963D01*
X043251D01*
X03939Y040259D02*
Y040059D01*
X03949D01*
X039523Y040092D01*
Y040126D01*
X03949Y040159D01*
X03939D01*
X03949D01*
X039523Y040192D01*
Y040226D01*
X03949Y040259D01*
X03939D01*
Y04085D02*
Y04065D01*
X03949D01*
X039523Y040683D01*
Y040716D01*
X03949Y04075D01*
X03939D01*
X03949D01*
X039523Y040783D01*
Y040816D01*
X03949Y04085D01*
X03939D01*
Y041834D02*
Y041634D01*
X03949D01*
X039523Y041667D01*
Y041701D01*
X03949Y041734D01*
X03939D01*
X03949D01*
X039523Y041767D01*
Y0418D01*
X03949Y041834D01*
X03939D01*
Y042424D02*
Y042224D01*
X03949D01*
X039523Y042258D01*
Y042291D01*
X03949Y042324D01*
X03939D01*
X03949D01*
X039523Y042358D01*
Y042391D01*
X03949Y042424D01*
X03939D01*
Y043409D02*
Y043209D01*
X03949D01*
X039523Y043242D01*
Y043275D01*
X03949Y043309D01*
X03939D01*
X03949D01*
X039523Y043342D01*
Y043375D01*
X03949Y043409D01*
X03939D01*
X048002Y042385D02*
Y042185D01*
X048102D01*
X048135Y042218D01*
Y042252D01*
X048102Y042285D01*
X048002D01*
X048102D01*
X048135Y042318D01*
Y042352D01*
X048102Y042385D01*
X048002D01*
X048228Y041627D02*
Y041427D01*
X048328D01*
X048362Y04146D01*
Y041494D01*
X048328Y041527D01*
X048228D01*
X048328D01*
X048362Y04156D01*
Y041594D01*
X048328Y041627D01*
X048228D01*
X046984Y040167D02*
X04695Y0402D01*
X046884D01*
X04685Y040167D01*
Y040033D01*
X046884Y04D01*
X04695D01*
X046984Y040033D01*
X050118Y043389D02*
Y043189D01*
X050218D01*
X050251Y043222D01*
Y043256D01*
X050218Y043289D01*
X050118D01*
X050218D01*
X050251Y043322D01*
Y043356D01*
X050218Y043389D01*
X050118D01*
X049685Y043783D02*
Y043583D01*
X049785D01*
X049818Y043616D01*
Y043649D01*
X049785Y043683D01*
X049685D01*
X049785D01*
X049818Y043716D01*
Y043749D01*
X049785Y043783D01*
X049685D01*
X049518Y043576D02*
Y043376D01*
X049618D01*
X049651Y043409D01*
Y043443D01*
X049618Y043476D01*
X049518D01*
X049618D01*
X049651Y043509D01*
Y043543D01*
X049618Y043576D01*
X049518D01*
X048701Y043468D02*
Y043268D01*
X048801D01*
X048834Y043301D01*
Y043334D01*
X048801Y043368D01*
X048701D01*
X048801D01*
X048834Y043401D01*
Y043434D01*
X048801Y043468D01*
X048701D01*
X048278Y043261D02*
Y043061D01*
X048378D01*
X048411Y043094D01*
Y043128D01*
X048378Y043161D01*
X048278D01*
X048378D01*
X048411Y043194D01*
Y043228D01*
X048378Y043261D01*
X048278D01*
X048523Y042365D02*
Y042165D01*
X048623D01*
X048656Y042198D01*
Y042231D01*
X048623Y042265D01*
X048523D01*
X048623D01*
X048656Y042298D01*
Y042331D01*
X048623Y042365D01*
X048523D01*
X049508Y042257D02*
Y042057D01*
X049608D01*
X049641Y04209D01*
Y042124D01*
X049608Y042157D01*
X049508D01*
X049608D01*
X049641Y04219D01*
Y042224D01*
X049608Y042257D01*
X049508D01*
X047336Y042908D02*
Y042708D01*
X047436D01*
X047469Y042741D01*
Y042775D01*
X047436Y042808D01*
X047336D01*
X047436D01*
X047469Y042841D01*
Y042874D01*
X047436Y042908D01*
X047336D01*
X047953Y043035D02*
Y042835D01*
X048053D01*
X048086Y042868D01*
Y042901D01*
X048053Y042935D01*
X047953D01*
X048053D01*
X048086Y042968D01*
Y043001D01*
X048053Y043035D01*
X047953D01*
X048307Y042306D02*
Y042106D01*
X048407D01*
X04844Y04214D01*
Y042173D01*
X048407Y042206D01*
X048307D01*
X048407D01*
X04844Y04224D01*
Y042273D01*
X048407Y042306D01*
X048307D01*
X048701Y042661D02*
Y042461D01*
X048801D01*
X048834Y042494D01*
Y042527D01*
X048801Y042561D01*
X048701D01*
X048801D01*
X048834Y042594D01*
Y042627D01*
X048801Y042661D01*
X048701D01*
X048346Y04271D02*
Y04251D01*
X048446D01*
X04848Y042543D01*
Y042576D01*
X048446Y04261D01*
X048346D01*
X048446D01*
X04848Y042643D01*
Y042676D01*
X048446Y04271D01*
X048346D01*
X048701Y043103D02*
Y042904D01*
X048801D01*
X048834Y042937D01*
Y04297D01*
X048801Y043004D01*
X048701D01*
X048801D01*
X048834Y043037D01*
Y04307D01*
X048801Y043103D01*
X048701D01*
X050039Y044058D02*
Y043858D01*
X050139D01*
X050173Y043892D01*
Y043925D01*
X050139Y043958D01*
X050039D01*
X050139D01*
X050173Y043992D01*
Y044025D01*
X050139Y044058D01*
X050039D01*
X048504Y044727D02*
Y044528D01*
X048604D01*
X048637Y044561D01*
Y044594D01*
X048604Y044628D01*
X048504D01*
X048604D01*
X048637Y044661D01*
Y044694D01*
X048604Y044727D01*
X048504D01*
X048898D02*
Y044528D01*
X048998D01*
X049031Y044561D01*
Y044594D01*
X048998Y044628D01*
X048898D01*
X048998D01*
X049031Y044661D01*
Y044694D01*
X048998Y044727D01*
X048898D01*
X049173D02*
Y044528D01*
X049273D01*
X049307Y044561D01*
Y044594D01*
X049273Y044628D01*
X049173D01*
X049273D01*
X049307Y044661D01*
Y044694D01*
X049273Y044727D01*
X049173D01*
X049528Y044846D02*
Y044646D01*
X049628D01*
X049661Y044679D01*
Y044712D01*
X049628Y044746D01*
X049528D01*
X049628D01*
X049661Y044779D01*
Y044812D01*
X049628Y044846D01*
X049528D01*
X049567Y044245D02*
Y044045D01*
X049667D01*
X0497Y044079D01*
Y044112D01*
X049667Y044145D01*
X049567D01*
X049667D01*
X0497Y044179D01*
Y044212D01*
X049667Y044245D01*
X049567D01*
X048701Y043802D02*
Y043602D01*
X048801D01*
X048834Y043636D01*
Y043669D01*
X048801Y043702D01*
X048701D01*
X048801D01*
X048834Y043736D01*
Y043769D01*
X048801Y043802D01*
X048701D01*
X048307Y044462D02*
Y044262D01*
X048407D01*
X04844Y044295D01*
Y044328D01*
X048407Y044362D01*
X048307D01*
X048407D01*
X04844Y044395D01*
Y044428D01*
X048407Y044462D01*
X048307D01*
X047986Y0434D02*
Y043201D01*
X048086D01*
X04812Y043234D01*
Y043267D01*
X048086Y0433D01*
X047986D01*
X048086D01*
X04812Y043334D01*
Y043367D01*
X048086Y0434D01*
X047986D01*
X048061Y043743D02*
Y043543D01*
X048161D01*
X048194Y043577D01*
Y04361D01*
X048161Y043643D01*
X048061D01*
X048161D01*
X048194Y043677D01*
Y04371D01*
X048161Y043743D01*
X048061D01*
X047392Y04335D02*
Y04315D01*
X047492D01*
X047525Y043183D01*
Y043216D01*
X047492Y04325D01*
X047392D01*
X047492D01*
X047525Y043283D01*
Y043316D01*
X047492Y04335D01*
X047392D01*
X047657D02*
Y04315D01*
X047757D01*
X047791Y043183D01*
Y043216D01*
X047757Y04325D01*
X047657D01*
X047757D01*
X047791Y043283D01*
Y043316D01*
X047757Y04335D01*
X047657D01*
X047313Y043743D02*
Y043543D01*
X047413D01*
X047446Y043577D01*
Y04361D01*
X047413Y043643D01*
X047313D01*
X047413D01*
X047446Y043677D01*
Y04371D01*
X047413Y043743D01*
X047313D01*
X056333Y032778D02*
Y032578D01*
X056433D01*
X056466Y032612D01*
Y032645D01*
X056433Y032678D01*
X056333D01*
X056433D01*
X056466Y032712D01*
Y032745D01*
X056433Y032778D01*
X056333D01*
X052126Y033901D02*
Y033701D01*
X052226D01*
X052259Y033734D01*
Y033767D01*
X052226Y033801D01*
X052126D01*
X052226D01*
X052259Y033834D01*
Y033867D01*
X052226Y033901D01*
X052126D01*
X052402D02*
Y033701D01*
X052502D01*
X052535Y033734D01*
Y033767D01*
X052502Y033801D01*
X052402D01*
X052502D01*
X052535Y033834D01*
Y033867D01*
X052502Y033901D01*
X052402D01*
X056181Y031046D02*
Y030846D01*
X056281D01*
X056314Y03088D01*
Y030913D01*
X056281Y030946D01*
X056181D01*
X056281D01*
X056314Y03098D01*
Y031013D01*
X056281Y031046D01*
X056181D01*
X056191Y031539D02*
Y031339D01*
X056291D01*
X056324Y031372D01*
Y031405D01*
X056291Y031439D01*
X056191D01*
X056291D01*
X056324Y031472D01*
Y031505D01*
X056291Y031539D01*
X056191D01*
X056181Y032031D02*
Y031831D01*
X056281D01*
X056314Y031864D01*
Y031897D01*
X056281Y031931D01*
X056181D01*
X056281D01*
X056314Y031964D01*
Y031997D01*
X056281Y032031D01*
X056181D01*
Y033487D02*
Y033287D01*
X056281D01*
X056314Y033321D01*
Y033354D01*
X056281Y033387D01*
X056181D01*
X056281D01*
X056314Y033421D01*
Y033454D01*
X056281Y033487D01*
X056181D01*
Y03396D02*
Y03376D01*
X056281D01*
X056314Y033793D01*
Y033826D01*
X056281Y03386D01*
X056181D01*
X056281D01*
X056314Y033893D01*
Y033926D01*
X056281Y03396D01*
X056181D01*
Y034432D02*
Y034232D01*
X056281D01*
X056314Y034266D01*
Y034299D01*
X056281Y034332D01*
X056181D01*
X056281D01*
X056314Y034366D01*
Y034399D01*
X056281Y034432D01*
X056181D01*
Y034905D02*
Y034705D01*
X056281D01*
X056314Y034738D01*
Y034771D01*
X056281Y034805D01*
X056181D01*
X056281D01*
X056314Y034838D01*
Y034871D01*
X056281Y034905D01*
X056181D01*
X056791Y028281D02*
Y028081D01*
X056891D01*
X056925Y028114D01*
Y028147D01*
X056891Y028181D01*
X056791D01*
X056891D01*
X056925Y028214D01*
Y028247D01*
X056891Y028281D01*
X056791D01*
X058526Y026546D02*
Y026346D01*
X058626D01*
X058659Y02638D01*
Y026413D01*
X058626Y026446D01*
X058526D01*
X058626D01*
X058659Y02648D01*
Y026513D01*
X058626Y026546D01*
X058526D01*
X055593Y030227D02*
Y030028D01*
X055692D01*
X055726Y030061D01*
Y030094D01*
X055692Y030128D01*
X055593D01*
X055692D01*
X055726Y030161D01*
Y030194D01*
X055692Y030227D01*
X055593D01*
Y029952D02*
Y029752D01*
X055692D01*
X055726Y029785D01*
Y029819D01*
X055692Y029852D01*
X055593D01*
X055692D01*
X055726Y029885D01*
Y029919D01*
X055692Y029952D01*
X055593D01*
Y029676D02*
Y029476D01*
X055692D01*
X055726Y02951D01*
Y029543D01*
X055692Y029576D01*
X055593D01*
X055692D01*
X055726Y02961D01*
Y029643D01*
X055692Y029676D01*
X055593D01*
Y029401D02*
Y029201D01*
X055692D01*
X055726Y029234D01*
Y029267D01*
X055692Y029301D01*
X055593D01*
X055692D01*
X055726Y029334D01*
Y029367D01*
X055692Y029401D01*
X055593D01*
Y029125D02*
Y028925D01*
X055692D01*
X055726Y028959D01*
Y028992D01*
X055692Y029025D01*
X055593D01*
X055692D01*
X055726Y029058D01*
Y029092D01*
X055692Y029125D01*
X055593D01*
Y02884D02*
Y02864D01*
X055692D01*
X055726Y028673D01*
Y028706D01*
X055692Y02874D01*
X055593D01*
X055692D01*
X055726Y028773D01*
Y028806D01*
X055692Y02884D01*
X055593D01*
X056439Y027846D02*
Y027646D01*
X056539D01*
X056572Y027679D01*
Y027712D01*
X056539Y027746D01*
X056439D01*
X056539D01*
X056572Y027779D01*
Y027812D01*
X056539Y027846D01*
X056439D01*
X056626D02*
Y027646D01*
X056726D01*
X056759Y027679D01*
Y027712D01*
X056726Y027746D01*
X056626D01*
X056726D01*
X056759Y027779D01*
Y027812D01*
X056726Y027846D01*
X056626D01*
X056931Y029686D02*
Y029486D01*
X057031D01*
X057064Y02952D01*
Y029553D01*
X057031Y029586D01*
X056931D01*
X057031D01*
X057064Y02962D01*
Y029653D01*
X057031Y029686D01*
X056931D01*
X056537Y029922D02*
Y029722D01*
X056637D01*
X056671Y029756D01*
Y029789D01*
X056637Y029822D01*
X056537D01*
X056637D01*
X056671Y029856D01*
Y029889D01*
X056637Y029922D01*
X056537D01*
X056538Y03011D02*
Y02991D01*
X056638D01*
X056671Y029944D01*
Y029977D01*
X056638Y03001D01*
X056538D01*
X056638D01*
X056671Y030044D01*
Y030077D01*
X056638Y03011D01*
X056538D01*
X059943Y029273D02*
Y029073D01*
X060043D01*
X060076Y029106D01*
Y029139D01*
X060043Y029173D01*
X059943D01*
X060043D01*
X060076Y029206D01*
Y029239D01*
X060043Y029273D01*
X059943D01*
Y028485D02*
Y028285D01*
X060043D01*
X060076Y028319D01*
Y028352D01*
X060043Y028385D01*
X059943D01*
X060043D01*
X060076Y028419D01*
Y028452D01*
X060043Y028485D01*
X059943D01*
X056738Y027645D02*
Y027445D01*
X056838D01*
X056871Y027478D01*
Y027512D01*
X056838Y027545D01*
X056738D01*
X056838D01*
X056871Y027578D01*
Y027612D01*
X056838Y027645D01*
X056738D01*
X057157Y026694D02*
Y026494D01*
X057257D01*
X057291Y026527D01*
Y026561D01*
X057257Y026594D01*
X057157D01*
X057257D01*
X057291Y026627D01*
Y026661D01*
X057257Y026694D01*
X057157D01*
X057472Y026687D02*
Y026487D01*
X057572D01*
X057606Y02652D01*
Y026553D01*
X057572Y026587D01*
X057472D01*
X057572D01*
X057606Y02662D01*
Y026653D01*
X057572Y026687D01*
X057472D01*
X057787D02*
Y026487D01*
X057887D01*
X057921Y02652D01*
Y026553D01*
X057887Y026587D01*
X057787D01*
X057887D01*
X057921Y02662D01*
Y026653D01*
X057887Y026687D01*
X057787D01*
X05764Y026143D02*
Y025943D01*
X05774D01*
X057773Y025976D01*
Y02601D01*
X05774Y026043D01*
X05764D01*
X05774D01*
X057773Y026076D01*
Y02611D01*
X05774Y026143D01*
X05764D01*
X0589Y027019D02*
Y026819D01*
X059D01*
X059033Y026852D01*
Y026886D01*
X059Y026919D01*
X0589D01*
X059D01*
X059033Y026952D01*
Y026986D01*
X059Y027019D01*
X0589D01*
X059146D02*
Y026819D01*
X059246D01*
X059279Y026852D01*
Y026886D01*
X059246Y026919D01*
X059146D01*
X059246D01*
X059279Y026952D01*
Y026986D01*
X059246Y027019D01*
X059146D01*
X045738Y020859D02*
Y020659D01*
X045838D01*
X045871Y020693D01*
Y020726D01*
X045838Y020759D01*
X045738D01*
X045838D01*
X045871Y020793D01*
Y020826D01*
X045838Y020859D01*
X045738D01*
X045492D02*
Y020659D01*
X045592D01*
X045625Y020693D01*
Y020726D01*
X045592Y020759D01*
X045492D01*
X045592D01*
X045625Y020793D01*
Y020826D01*
X045592Y020859D01*
X045492D01*
X045118Y020387D02*
Y020187D01*
X045218D01*
X045251Y02022D01*
Y020254D01*
X045218Y020287D01*
X045118D01*
X045218D01*
X045251Y02032D01*
Y020354D01*
X045218Y020387D01*
X045118D01*
X044232Y019983D02*
Y019783D01*
X044332D01*
X044366Y019817D01*
Y01985D01*
X044332Y019883D01*
X044232D01*
X044332D01*
X044366Y019917D01*
Y01995D01*
X044332Y019983D01*
X044232D01*
X04438Y020527D02*
Y020327D01*
X04448D01*
X044513Y020361D01*
Y020394D01*
X04448Y020427D01*
X04438D01*
X04448D01*
X044513Y020461D01*
Y020494D01*
X04448Y020527D01*
X04438D01*
X044065D02*
Y020327D01*
X044165D01*
X044198Y020361D01*
Y020394D01*
X044165Y020427D01*
X044065D01*
X044165D01*
X044198Y020461D01*
Y020494D01*
X044165Y020527D01*
X044065D01*
X04375Y020535D02*
Y020335D01*
X04385D01*
X043883Y020368D01*
Y020401D01*
X04385Y020435D01*
X04375D01*
X04385D01*
X043883Y020468D01*
Y020501D01*
X04385Y020535D01*
X04375D01*
X043331Y021485D02*
Y021286D01*
X043431D01*
X043464Y021319D01*
Y021352D01*
X043431Y021386D01*
X043331D01*
X043431D01*
X043464Y021419D01*
Y021452D01*
X043431Y021485D01*
X043331D01*
X046535Y022326D02*
Y022126D01*
X046635D01*
X046669Y022159D01*
Y022193D01*
X046635Y022226D01*
X046535D01*
X046635D01*
X046669Y022259D01*
Y022293D01*
X046635Y022326D01*
X046535D01*
Y023113D02*
Y022913D01*
X046635D01*
X046669Y022947D01*
Y02298D01*
X046635Y023013D01*
X046535D01*
X046635D01*
X046669Y023047D01*
Y02308D01*
X046635Y023113D01*
X046535D01*
X04313Y023763D02*
Y023563D01*
X04323D01*
X043263Y023596D01*
Y02363D01*
X04323Y023663D01*
X04313D01*
X04323D01*
X043263Y023696D01*
Y02373D01*
X04323Y023763D01*
X04313D01*
X043524Y023527D02*
Y023327D01*
X043624D01*
X043657Y02336D01*
Y023393D01*
X043624Y023427D01*
X043524D01*
X043624D01*
X043657Y02346D01*
Y023493D01*
X043624Y023527D01*
X043524D01*
X042628Y022485D02*
Y022285D01*
X042728D01*
X042761Y022318D01*
Y022351D01*
X042728Y022385D01*
X042628D01*
X042728D01*
X042761Y022418D01*
Y022451D01*
X042728Y022485D01*
X042628D01*
X042811Y022462D02*
Y022262D01*
X042911D01*
X042944Y022296D01*
Y022329D01*
X042911Y022362D01*
X042811D01*
X042911D01*
X042944Y022395D01*
Y022429D01*
X042911Y022462D01*
X042811D01*
X043218Y021686D02*
Y021486D01*
X043318D01*
X043352Y02152D01*
Y021553D01*
X043318Y021586D01*
X043218D01*
X043318D01*
X043352Y02162D01*
Y021653D01*
X043318Y021686D01*
X043218D01*
X043032D02*
Y021486D01*
X043131D01*
X043165Y02152D01*
Y021553D01*
X043131Y021586D01*
X043032D01*
X043131D01*
X043165Y02162D01*
Y021653D01*
X043131Y021686D01*
X043032D01*
X043386Y022119D02*
Y021919D01*
X043486D01*
X043519Y021953D01*
Y021986D01*
X043486Y022019D01*
X043386D01*
X043486D01*
X043519Y022053D01*
Y022086D01*
X043486Y022119D01*
X043386D01*
X042185Y02268D02*
Y02248D01*
X042285D01*
X042318Y022514D01*
Y022547D01*
X042285Y02258D01*
X042185D01*
X042285D01*
X042318Y022614D01*
Y022647D01*
X042285Y02268D01*
X042185D01*
Y022966D02*
Y022766D01*
X042285D01*
X042318Y022799D01*
Y022832D01*
X042285Y022866D01*
X042185D01*
X042285D01*
X042318Y022899D01*
Y022932D01*
X042285Y022966D01*
X042185D01*
Y023241D02*
Y023041D01*
X042285D01*
X042318Y023075D01*
Y023108D01*
X042285Y023141D01*
X042185D01*
X042285D01*
X042318Y023175D01*
Y023208D01*
X042285Y023241D01*
X042185D01*
Y023517D02*
Y023317D01*
X042285D01*
X042318Y02335D01*
Y023384D01*
X042285Y023417D01*
X042185D01*
X042285D01*
X042318Y02345D01*
Y023484D01*
X042285Y023517D01*
X042185D01*
Y023792D02*
Y023593D01*
X042285D01*
X042318Y023626D01*
Y023659D01*
X042285Y023692D01*
X042185D01*
X042285D01*
X042318Y023726D01*
Y023759D01*
X042285Y023792D01*
X042185D01*
Y024068D02*
Y023868D01*
X042285D01*
X042318Y023901D01*
Y023935D01*
X042285Y023968D01*
X042185D01*
X042285D01*
X042318Y024001D01*
Y024035D01*
X042285Y024068D01*
X042185D01*
X036703Y041302D02*
Y041102D01*
X036803D01*
X036836Y041136D01*
Y041169D01*
X036803Y041202D01*
X036703D01*
X036803D01*
X036836Y041236D01*
Y041269D01*
X036803Y041302D01*
X036703D01*
X037028Y041735D02*
Y041535D01*
X037128D01*
X037161Y041569D01*
Y041602D01*
X037128Y041635D01*
X037028D01*
X037128D01*
X037161Y041669D01*
Y041702D01*
X037128Y041735D01*
X037028D01*
X036614Y041686D02*
Y041486D01*
X036714D01*
X036747Y04152D01*
Y041553D01*
X036714Y041586D01*
X036614D01*
X036714D01*
X036747Y04162D01*
Y041653D01*
X036714Y041686D01*
X036614D01*
X03622D02*
Y041486D01*
X03632D01*
X036354Y04152D01*
Y041553D01*
X03632Y041586D01*
X03622D01*
X03632D01*
X036354Y04162D01*
Y041653D01*
X03632Y041686D01*
X03622D01*
X035693Y041292D02*
Y041092D01*
X035793D01*
X035826Y041125D01*
Y041158D01*
X035793Y041192D01*
X035693D01*
X035793D01*
X035826Y041225D01*
Y041258D01*
X035793Y041292D01*
X035693D01*
X037067Y039344D02*
Y039144D01*
X037167D01*
X0372Y039177D01*
Y03921D01*
X037167Y039244D01*
X037067D01*
X037167D01*
X0372Y039277D01*
Y03931D01*
X037167Y039344D01*
X037067D01*
X03686D02*
Y039144D01*
X03696D01*
X036994Y039177D01*
Y03921D01*
X03696Y039244D01*
X03686D01*
X03696D01*
X036994Y039277D01*
Y03931D01*
X03696Y039344D01*
X03686D01*
Y03956D02*
Y03936D01*
X03696D01*
X036994Y039394D01*
Y039427D01*
X03696Y03946D01*
X03686D01*
X03696D01*
X036994Y039494D01*
Y039527D01*
X03696Y03956D01*
X03686D01*
X037303Y037129D02*
Y036929D01*
X037403D01*
X037436Y036962D01*
Y036996D01*
X037403Y037029D01*
X037303D01*
X037403D01*
X037436Y037062D01*
Y037096D01*
X037403Y037129D01*
X037303D01*
X036909D02*
Y036929D01*
X037009D01*
X037043Y036962D01*
Y036996D01*
X037009Y037029D01*
X036909D01*
X037009D01*
X037043Y037062D01*
Y037096D01*
X037009Y037129D01*
X036909D01*
X036713D02*
Y036929D01*
X036813D01*
X036846Y036962D01*
Y036996D01*
X036813Y037029D01*
X036713D01*
X036813D01*
X036846Y037062D01*
Y037096D01*
X036813Y037129D01*
X036713D01*
X03626Y042602D02*
Y042402D01*
X03636D01*
X036393Y042435D01*
Y042468D01*
X03636Y042502D01*
X03626D01*
X03636D01*
X036393Y042535D01*
Y042568D01*
X03636Y042602D01*
X03626D01*
X034715Y041726D02*
Y041526D01*
X034815D01*
X034848Y041559D01*
Y041592D01*
X034815Y041626D01*
X034715D01*
X034815D01*
X034848Y041659D01*
Y041692D01*
X034815Y041726D01*
X034715D01*
X033533D02*
Y041526D01*
X033633D01*
X033667Y041559D01*
Y041592D01*
X033633Y041626D01*
X033533D01*
X033633D01*
X033667Y041659D01*
Y041692D01*
X033633Y041726D01*
X033533D01*
X035787Y042011D02*
Y041811D01*
X035887D01*
X035921Y041844D01*
Y041878D01*
X035887Y041911D01*
X035787D01*
X035887D01*
X035921Y041944D01*
Y041978D01*
X035887Y042011D01*
X035787D01*
X035906Y03645D02*
Y03625D01*
X036005D01*
X036039Y036283D01*
Y036317D01*
X036005Y03635D01*
X035906D01*
X036005D01*
X036039Y036383D01*
Y036417D01*
X036005Y03645D01*
X035906D01*
X033799D02*
Y03625D01*
X033899D01*
X033932Y036283D01*
Y036317D01*
X033899Y03635D01*
X033799D01*
X033899D01*
X033932Y036383D01*
Y036417D01*
X033899Y03645D01*
X033799D01*
X033583D02*
Y03625D01*
X033683D01*
X033716Y036283D01*
Y036317D01*
X033683Y03635D01*
X033583D01*
X033683D01*
X033716Y036383D01*
Y036417D01*
X033683Y03645D01*
X033583D01*
X032884Y03644D02*
Y03624D01*
X032984D01*
X033017Y036273D01*
Y036307D01*
X032984Y03634D01*
X032884D01*
X032984D01*
X033017Y036373D01*
Y036407D01*
X032984Y03644D01*
X032884D01*
X032992Y036814D02*
Y036614D01*
X033092D01*
X033125Y036648D01*
Y036681D01*
X033092Y036714D01*
X032992D01*
X033092D01*
X033125Y036747D01*
Y036781D01*
X033092Y036814D01*
X032992D01*
X032943Y037385D02*
Y037185D01*
X033043D01*
X033076Y037218D01*
Y037252D01*
X033043Y037285D01*
X032943D01*
X033043D01*
X033076Y037318D01*
Y037352D01*
X033043Y037385D01*
X032943D01*
X032667Y03644D02*
Y03624D01*
X032767D01*
X032801Y036273D01*
Y036307D01*
X032767Y03634D01*
X032667D01*
X032767D01*
X032801Y036373D01*
Y036407D01*
X032767Y03644D01*
X032667D01*
X035305Y041292D02*
Y041093D01*
X035405D01*
X035438Y041126D01*
Y041159D01*
X035405Y041192D01*
X035305D01*
X035405D01*
X035438Y041226D01*
Y041259D01*
X035405Y041292D01*
X035305D01*
X034114Y041302D02*
Y041102D01*
X034214D01*
X034247Y041136D01*
Y041169D01*
X034214Y041202D01*
X034114D01*
X034214D01*
X034247Y041236D01*
Y041269D01*
X034214Y041302D01*
X034114D01*
X032835Y041342D02*
Y041142D01*
X032935D01*
X032968Y041175D01*
Y041208D01*
X032935Y041242D01*
X032835D01*
X032935D01*
X032968Y041275D01*
Y041308D01*
X032935Y041342D01*
X032835D01*
X030906Y04083D02*
Y04063D01*
X031005D01*
X031039Y040663D01*
Y040697D01*
X031005Y04073D01*
X030906D01*
X031005D01*
X031039Y040763D01*
Y040797D01*
X031005Y04083D01*
X030906D01*
X030709D02*
Y04063D01*
X030809D01*
X030842Y040663D01*
Y040697D01*
X030809Y04073D01*
X030709D01*
X030809D01*
X030842Y040763D01*
Y040797D01*
X030809Y04083D01*
X030709D01*
X030472D02*
Y04063D01*
X030572D01*
X030606Y040663D01*
Y040697D01*
X030572Y04073D01*
X030472D01*
X030572D01*
X030606Y040763D01*
Y040797D01*
X030572Y04083D01*
X030472D01*
X030955Y042168D02*
Y041968D01*
X031055D01*
X031088Y042002D01*
Y042035D01*
X031055Y042068D01*
X030955D01*
X031055D01*
X031088Y042102D01*
Y042135D01*
X031055Y042168D01*
X030955D01*
X030748D02*
Y041968D01*
X030848D01*
X030881Y042002D01*
Y042035D01*
X030848Y042068D01*
X030748D01*
X030848D01*
X030881Y042102D01*
Y042135D01*
X030848Y042168D01*
X030748D01*
X046909Y037257D02*
Y037057D01*
X047009D01*
X047043Y03709D01*
Y037124D01*
X047009Y037157D01*
X046909D01*
X047009D01*
X047043Y03719D01*
Y037224D01*
X047009Y037257D01*
X046909D01*
X046356Y033625D02*
Y033425D01*
X046456D01*
X04649Y033459D01*
Y033492D01*
X046456Y033525D01*
X046356D01*
X046456D01*
X04649Y033558D01*
Y033592D01*
X046456Y033625D01*
X046356D01*
X04636Y034117D02*
Y033917D01*
X04646D01*
X046494Y033951D01*
Y033984D01*
X04646Y034017D01*
X04636D01*
X04646D01*
X046494Y034051D01*
Y034084D01*
X04646Y034117D01*
X04636D01*
X046359Y034619D02*
Y034419D01*
X046459D01*
X046493Y034453D01*
Y034486D01*
X046459Y034519D01*
X046359D01*
X046459D01*
X046493Y034553D01*
Y034586D01*
X046459Y034619D01*
X046359D01*
X046358Y035121D02*
Y034921D01*
X046458D01*
X046492Y034955D01*
Y034988D01*
X046458Y035021D01*
X046358D01*
X046458D01*
X046492Y035055D01*
Y035088D01*
X046458Y035121D01*
X046358D01*
X046357Y035623D02*
Y035423D01*
X046457D01*
X046491Y035457D01*
Y03549D01*
X046457Y035523D01*
X046357D01*
X046457D01*
X046491Y035557D01*
Y03559D01*
X046457Y035623D01*
X046357D01*
X046361Y036115D02*
Y035915D01*
X046461D01*
X046495Y035949D01*
Y035982D01*
X046461Y036015D01*
X046361D01*
X046461D01*
X046495Y036049D01*
Y036082D01*
X046461Y036115D01*
X046361D01*
X046355Y036627D02*
Y036427D01*
X046455D01*
X046489Y03646D01*
Y036494D01*
X046455Y036527D01*
X046355D01*
X046455D01*
X046489Y03656D01*
Y036594D01*
X046455Y036627D01*
X046355D01*
X046364Y037109D02*
Y036909D01*
X046464D01*
X046497Y036943D01*
Y036976D01*
X046464Y037009D01*
X046364D01*
X046464D01*
X046497Y037043D01*
Y037076D01*
X046464Y037109D01*
X046364D01*
X052362Y027168D02*
Y026969D01*
X052462D01*
X052495Y027002D01*
Y027035D01*
X052462Y027068D01*
X052362D01*
X052462D01*
X052495Y027102D01*
Y027135D01*
X052462Y027168D01*
X052362D01*
X05311Y028546D02*
Y028346D01*
X05321D01*
X053244Y02838D01*
Y028413D01*
X05321Y028446D01*
X05311D01*
X05321D01*
X053244Y02848D01*
Y028513D01*
X05321Y028546D01*
X05311D01*
X052677Y027168D02*
Y026969D01*
X052777D01*
X05281Y027002D01*
Y027035D01*
X052777Y027068D01*
X052677D01*
X052777D01*
X05281Y027102D01*
Y027135D01*
X052777Y027168D01*
X052677D01*
X052835Y027405D02*
Y027205D01*
X052935D01*
X052968Y027238D01*
Y027271D01*
X052935Y027305D01*
X052835D01*
X052935D01*
X052968Y027338D01*
Y027371D01*
X052935Y027405D01*
X052835D01*
X053111Y027248D02*
Y027048D01*
X053211D01*
X053245Y027082D01*
Y027115D01*
X053211Y027148D01*
X053111D01*
X053211D01*
X053245Y027182D01*
Y027215D01*
X053211Y027248D01*
X053111D01*
Y027681D02*
Y027481D01*
X053211D01*
X053245Y027515D01*
Y027548D01*
X053211Y027581D01*
X053111D01*
X053211D01*
X053245Y027615D01*
Y027648D01*
X053211Y027681D01*
X053111D01*
Y028114D02*
Y027915D01*
X053211D01*
X053245Y027948D01*
Y027981D01*
X053211Y028014D01*
X053111D01*
X053211D01*
X053245Y028048D01*
Y028081D01*
X053211Y028114D01*
X053111D01*
X053111Y030279D02*
Y030079D01*
X053211D01*
X053244Y030113D01*
Y030146D01*
X053211Y030179D01*
X053111D01*
X053211D01*
X053244Y030213D01*
Y030246D01*
X053211Y030279D01*
X053111D01*
X053111Y029847D02*
Y029647D01*
X053211D01*
X053245Y02968D01*
Y029713D01*
X053211Y029747D01*
X053111D01*
X053211D01*
X053245Y02978D01*
Y029813D01*
X053211Y029847D01*
X053111D01*
Y028981D02*
Y028781D01*
X053211D01*
X053245Y028814D01*
Y028847D01*
X053211Y028881D01*
X053111D01*
X053211D01*
X053245Y028914D01*
Y028947D01*
X053211Y028981D01*
X053111D01*
X053111Y030712D02*
Y030512D01*
X053211D01*
X053244Y030546D01*
Y030579D01*
X053211Y030612D01*
X053111D01*
X053211D01*
X053244Y030646D01*
Y030679D01*
X053211Y030712D01*
X053111D01*
Y031145D02*
Y030945D01*
X053211D01*
X053244Y030979D01*
Y031012D01*
X053211Y031045D01*
X053111D01*
X053211D01*
X053244Y031079D01*
Y031112D01*
X053211Y031145D01*
X053111D01*
Y031578D02*
Y031379D01*
X053211D01*
X053244Y031412D01*
Y031445D01*
X053211Y031478D01*
X053111D01*
X053211D01*
X053244Y031512D01*
Y031545D01*
X053211Y031578D01*
X053111D01*
Y032012D02*
Y031812D01*
X053211D01*
X053244Y031845D01*
Y031878D01*
X053211Y031912D01*
X053111D01*
X053211D01*
X053244Y031945D01*
Y031978D01*
X053211Y032012D01*
X053111D01*
X05311Y032444D02*
Y032244D01*
X05321D01*
X053244Y032277D01*
Y032311D01*
X05321Y032344D01*
X05311D01*
X05321D01*
X053244Y032377D01*
Y032411D01*
X05321Y032444D01*
X05311D01*
X055266Y043113D02*
Y042913D01*
X055366D01*
X055399Y042947D01*
Y04298D01*
X055366Y043013D01*
X055266D01*
X055366D01*
X055399Y043047D01*
Y04308D01*
X055366Y043113D01*
X055266D01*
X055276Y044117D02*
Y043917D01*
X055376D01*
X055409Y043951D01*
Y043984D01*
X055376Y044017D01*
X055276D01*
X055376D01*
X055409Y044051D01*
Y044084D01*
X055376Y044117D01*
X055276D01*
X053386Y042602D02*
Y042402D01*
X053486D01*
X053519Y042435D01*
Y042468D01*
X053486Y042502D01*
X053386D01*
X053486D01*
X053519Y042535D01*
Y042568D01*
X053486Y042602D01*
X053386D01*
X055276D02*
Y042402D01*
X055376D01*
X055409Y042435D01*
Y042468D01*
X055376Y042502D01*
X055276D01*
X055376D01*
X055409Y042535D01*
Y042568D01*
X055376Y042602D01*
X055276D01*
X055287Y043625D02*
Y043425D01*
X055387D01*
X055421Y043459D01*
Y043492D01*
X055387Y043525D01*
X055287D01*
X055387D01*
X055421Y043558D01*
Y043592D01*
X055387Y043625D01*
X055287D01*
X055315Y04205D02*
Y04185D01*
X055415D01*
X055448Y041884D01*
Y041917D01*
X055415Y04195D01*
X055315D01*
X055415D01*
X055448Y041984D01*
Y042017D01*
X055415Y04205D01*
X055315D01*
X054173Y043625D02*
Y043425D01*
X054273D01*
X054307Y043459D01*
Y043492D01*
X054273Y043525D01*
X054173D01*
X054273D01*
X054307Y043558D01*
Y043592D01*
X054273Y043625D01*
X054173D01*
X054213Y044098D02*
Y043898D01*
X054313D01*
X054346Y043931D01*
Y043964D01*
X054313Y043998D01*
X054213D01*
X054313D01*
X054346Y044031D01*
Y044064D01*
X054313Y044098D01*
X054213D01*
X054173Y042129D02*
Y041929D01*
X054273D01*
X054307Y041962D01*
Y041996D01*
X054273Y042029D01*
X054173D01*
X054273D01*
X054307Y042062D01*
Y042096D01*
X054273Y042129D01*
X054173D01*
Y042602D02*
Y042402D01*
X054273D01*
X054307Y042435D01*
Y042468D01*
X054273Y042502D01*
X054173D01*
X054273D01*
X054307Y042535D01*
Y042568D01*
X054273Y042602D01*
X054173D01*
Y043113D02*
Y042913D01*
X054273D01*
X054307Y042947D01*
Y04298D01*
X054273Y043013D01*
X054173D01*
X054273D01*
X054307Y043047D01*
Y04308D01*
X054273Y043113D01*
X054173D01*
X047244Y037739D02*
Y037539D01*
X047344D01*
X047377Y037573D01*
Y037606D01*
X047344Y037639D01*
X047244D01*
X047344D01*
X047377Y037673D01*
Y037706D01*
X047344Y037739D01*
X047244D01*
X052212Y035258D02*
Y035058D01*
X052312D01*
X052345Y035092D01*
Y035125D01*
X052312Y035158D01*
X052212D01*
X052312D01*
X052345Y035191D01*
Y035225D01*
X052312Y035258D01*
X052212D01*
Y036647D02*
Y036448D01*
X052312D01*
X052345Y036481D01*
Y036514D01*
X052312Y036548D01*
X052212D01*
X052312D01*
X052345Y036581D01*
Y036614D01*
X052312Y036647D01*
X052212D01*
Y038037D02*
Y037837D01*
X052312D01*
X052345Y03787D01*
Y037904D01*
X052312Y037937D01*
X052212D01*
X052312D01*
X052345Y03797D01*
Y038004D01*
X052312Y038037D01*
X052212D01*
X051191Y037739D02*
Y037539D01*
X051291D01*
X051325Y037573D01*
Y037606D01*
X051291Y037639D01*
X051191D01*
X051291D01*
X051325Y037673D01*
Y037706D01*
X051291Y037739D01*
X051191D01*
X04856D02*
Y037539D01*
X04866D01*
X048693Y037573D01*
Y037606D01*
X04866Y037639D01*
X04856D01*
X04866D01*
X048693Y037673D01*
Y037706D01*
X04866Y037739D01*
X04856D01*
X049876D02*
Y037539D01*
X049976D01*
X050009Y037573D01*
Y037606D01*
X049976Y037639D01*
X049876D01*
X049976D01*
X050009Y037673D01*
Y037706D01*
X049976Y037739D01*
X049876D01*
X030531Y037729D02*
Y03753D01*
X030631D01*
X030665Y037563D01*
Y037596D01*
X030631Y037629D01*
X030531D01*
X030631D01*
X030665Y037663D01*
Y037696D01*
X030631Y037729D01*
X030531D01*
Y037966D02*
Y037766D01*
X030631D01*
X030665Y037799D01*
Y037832D01*
X030631Y037866D01*
X030531D01*
X030631D01*
X030665Y037899D01*
Y037932D01*
X030631Y037966D01*
X030531D01*
X030482Y036657D02*
Y036457D01*
X030582D01*
X030616Y03649D01*
Y036523D01*
X030582Y036557D01*
X030482D01*
X030582D01*
X030616Y03659D01*
Y036623D01*
X030582Y036657D01*
X030482D01*
X031078Y018434D02*
X031045Y018468D01*
X030978D01*
X030945Y018434D01*
Y018301D01*
X030978Y018268D01*
X031045D01*
X031078Y018301D01*
X031075Y018823D02*
X031042Y018856D01*
X030975D01*
X030942Y018823D01*
Y01869D01*
X030975Y018656D01*
X031042D01*
X031075Y01869D01*
Y019232D02*
X031042Y019265D01*
X030975D01*
X030942Y019232D01*
Y019098D01*
X030975Y019065D01*
X031042D01*
X031075Y019098D01*
X031432Y018828D02*
X031399Y018861D01*
X031333D01*
X031299Y018828D01*
Y018695D01*
X031333Y018661D01*
X031399D01*
X031432Y018695D01*
Y019237D02*
X031399Y01927D01*
X031333D01*
X031299Y019237D01*
Y019103D01*
X031333Y01907D01*
X031399D01*
X031432Y019103D01*
X030724Y018434D02*
X030691Y018468D01*
X030624D01*
X030591Y018434D01*
Y018301D01*
X030624Y018268D01*
X030691D01*
X030724Y018301D01*
Y018828D02*
X030691Y018861D01*
X030624D01*
X030591Y018828D01*
Y018695D01*
X030624Y018661D01*
X030691D01*
X030724Y018695D01*
X037456Y02682D02*
X037423Y026853D01*
X037356D01*
X037323Y02682D01*
Y026687D01*
X037356Y026654D01*
X037423D01*
X037456Y026687D01*
Y027608D02*
X037423Y027641D01*
X037356D01*
X037323Y027608D01*
Y027474D01*
X037356Y027441D01*
X037423D01*
X037456Y027474D01*
Y027214D02*
X037423Y027247D01*
X037356D01*
X037323Y027214D01*
Y027081D01*
X037356Y027047D01*
X037423D01*
X037456Y027081D01*
X037062Y027608D02*
X037029Y027641D01*
X036962D01*
X036929Y027608D01*
Y027474D01*
X036962Y027441D01*
X037029D01*
X037062Y027474D01*
Y02682D02*
X037029Y026853D01*
X036962D01*
X036929Y02682D01*
Y026687D01*
X036962Y026654D01*
X037029D01*
X037062Y026687D01*
Y027214D02*
X037029Y027247D01*
X036962D01*
X036929Y027214D01*
Y027081D01*
X036962Y027047D01*
X037029D01*
X037062Y027081D01*
X033283Y024694D02*
X03325Y024727D01*
X033183D01*
X03315Y024694D01*
Y024561D01*
X033183Y024528D01*
X03325D01*
X033283Y024561D01*
X033716Y024694D02*
X033683Y024727D01*
X033616D01*
X033583Y024694D01*
Y024561D01*
X033616Y024528D01*
X033683D01*
X033716Y024561D01*
X034149Y024694D02*
X034116Y024727D01*
X034049D01*
X034016Y024694D01*
Y024561D01*
X034049Y024528D01*
X034116D01*
X034149Y024561D01*
X03348Y019222D02*
X033446Y019255D01*
X03338D01*
X033346Y019222D01*
Y019088D01*
X03338Y019055D01*
X033446D01*
X03348Y019088D01*
X033047Y019222D02*
X033013Y019255D01*
X032947D01*
X032913Y019222D01*
Y019088D01*
X032947Y019055D01*
X033013D01*
X033047Y019088D01*
X033913Y019222D02*
X033879Y019255D01*
X033813D01*
X03378Y019222D01*
Y019088D01*
X033813Y019055D01*
X033879D01*
X033913Y019088D01*
X038125Y019773D02*
X038092Y019806D01*
X038025D01*
X037992Y019773D01*
Y01964D01*
X038025Y019606D01*
X038092D01*
X038125Y01964D01*
Y020167D02*
X038092Y0202D01*
X038025D01*
X037992Y020167D01*
Y020033D01*
X038025Y02D01*
X038092D01*
X038125Y020033D01*
X037594Y021417D02*
X037561Y02145D01*
X037494D01*
X037461Y021417D01*
Y021283D01*
X037494Y02125D01*
X037561D01*
X037594Y021283D01*
X037732Y021741D02*
X037698Y021775D01*
X037632D01*
X037598Y021741D01*
Y021608D01*
X037632Y021575D01*
X037698D01*
X037732Y021608D01*
X059055Y038901D02*
Y038701D01*
X059155D01*
X059188Y038734D01*
Y038767D01*
X059155Y038801D01*
X059055D01*
X059155D01*
X059188Y038834D01*
Y038867D01*
X059155Y038901D01*
X059055D01*
X058839Y042897D02*
Y042697D01*
X058939D01*
X058972Y04273D01*
Y042764D01*
X058939Y042797D01*
X058839D01*
X058939D01*
X058972Y04283D01*
Y042863D01*
X058939Y042897D01*
X058839D01*
X059439Y04268D02*
Y04248D01*
X059539D01*
X059572Y042514D01*
Y042547D01*
X059539Y04258D01*
X059439D01*
X059539D01*
X059572Y042614D01*
Y042647D01*
X059539Y04268D01*
X059439D01*
X059331Y036145D02*
Y035945D01*
X059431D01*
X059464Y035978D01*
Y036012D01*
X059431Y036045D01*
X059331D01*
X059431D01*
X059464Y036078D01*
Y036111D01*
X059431Y036145D01*
X059331D01*
X057795Y046735D02*
Y046535D01*
X057895D01*
X057929Y046569D01*
Y046602D01*
X057895Y046635D01*
X057795D01*
X057895D01*
X057929Y046669D01*
Y046702D01*
X057895Y046735D01*
X057795D01*
X057402D02*
Y046535D01*
X057502D01*
X057535Y046569D01*
Y046602D01*
X057502Y046635D01*
X057402D01*
X057502D01*
X057535Y046669D01*
Y046702D01*
X057502Y046735D01*
X057402D01*
X057047D02*
Y046535D01*
X057147D01*
X057181Y046569D01*
Y046602D01*
X057147Y046635D01*
X057047D01*
X057147D01*
X057181Y046669D01*
Y046702D01*
X057147Y046735D01*
X057047D01*
X060266Y035298D02*
Y035098D01*
X060366D01*
X060399Y035132D01*
Y035165D01*
X060366Y035198D01*
X060266D01*
X060366D01*
X060399Y035232D01*
Y035265D01*
X060366Y035298D01*
X060266D01*
X060157Y035889D02*
Y035689D01*
X060257D01*
X060291Y035722D01*
Y035756D01*
X060257Y035789D01*
X060157D01*
X060257D01*
X060291Y035822D01*
Y035856D01*
X060257Y035889D01*
X060157D01*
X060394D02*
Y035689D01*
X060494D01*
X060527Y035722D01*
Y035756D01*
X060494Y035789D01*
X060394D01*
X060494D01*
X060527Y035822D01*
Y035856D01*
X060494Y035889D01*
X060394D01*
X057313Y038596D02*
Y038396D01*
X057413D01*
X057446Y038429D01*
Y038462D01*
X057413Y038496D01*
X057313D01*
X057413D01*
X057446Y038529D01*
Y038562D01*
X057413Y038596D01*
X057313D01*
X057638Y040151D02*
Y039951D01*
X057738D01*
X057771Y039984D01*
Y040017D01*
X057738Y040051D01*
X057638D01*
X057738D01*
X057771Y040084D01*
Y040117D01*
X057738Y040151D01*
X057638D01*
X05685Y038852D02*
Y038652D01*
X05695D01*
X056984Y038685D01*
Y038718D01*
X05695Y038752D01*
X05685D01*
X05695D01*
X056984Y038785D01*
Y038818D01*
X05695Y038852D01*
X05685D01*
X057037Y038271D02*
Y038071D01*
X057137D01*
X057171Y038104D01*
Y038138D01*
X057137Y038171D01*
X057037D01*
X057137D01*
X057171Y038204D01*
Y038237D01*
X057137Y038271D01*
X057037D01*
X057913Y033281D02*
Y033081D01*
X058013D01*
X058047Y033114D01*
Y033147D01*
X058013Y033181D01*
X057913D01*
X058013D01*
X058047Y033214D01*
Y033247D01*
X058013Y033281D01*
X057913D01*
X059833Y035525D02*
Y035325D01*
X059933D01*
X059966Y035358D01*
Y035391D01*
X059933Y035425D01*
X059833D01*
X059933D01*
X059966Y035458D01*
Y035491D01*
X059933Y035525D01*
X059833D01*
X059439D02*
Y035325D01*
X059539D01*
X059572Y035358D01*
Y035391D01*
X059539Y035425D01*
X059439D01*
X059539D01*
X059572Y035458D01*
Y035491D01*
X059539Y035525D01*
X059439D01*
X062005Y035692D02*
Y035492D01*
X062105D01*
X062139Y035525D01*
Y035559D01*
X062105Y035592D01*
X062005D01*
X062105D01*
X062139Y035625D01*
Y035659D01*
X062105Y035692D01*
X062005D01*
X061575Y035702D02*
Y035502D01*
X061675D01*
X061708Y035535D01*
Y035569D01*
X061675Y035602D01*
X061575D01*
X061675D01*
X061708Y035635D01*
Y035669D01*
X061675Y035702D01*
X061575D01*
X060502Y037346D02*
Y037146D01*
X060602D01*
X060635Y037179D01*
Y037212D01*
X060602Y037246D01*
X060502D01*
X060602D01*
X060635Y037279D01*
Y037312D01*
X060602Y037346D01*
X060502D01*
Y037739D02*
Y037539D01*
X060602D01*
X060635Y037573D01*
Y037606D01*
X060602Y037639D01*
X060502D01*
X060602D01*
X060635Y037673D01*
Y037706D01*
X060602Y037739D01*
X060502D01*
X061083Y037346D02*
Y037146D01*
X061183D01*
X061216Y037179D01*
Y037212D01*
X061183Y037246D01*
X061083D01*
X061183D01*
X061216Y037279D01*
Y037312D01*
X061183Y037346D01*
X061083D01*
Y037739D02*
Y037539D01*
X061183D01*
X061216Y037573D01*
Y037606D01*
X061183Y037639D01*
X061083D01*
X061183D01*
X061216Y037673D01*
Y037706D01*
X061183Y037739D01*
X061083D01*
X059724Y038901D02*
Y038701D01*
X059824D01*
X059858Y038734D01*
Y038767D01*
X059824Y038801D01*
X059724D01*
X059824D01*
X059858Y038834D01*
Y038867D01*
X059824Y038901D01*
X059724D01*
X060079D02*
Y038701D01*
X060179D01*
X060212Y038734D01*
Y038767D01*
X060179Y038801D01*
X060079D01*
X060179D01*
X060212Y038834D01*
Y038867D01*
X060179Y038901D01*
X060079D01*
X059803Y03957D02*
Y03937D01*
X059903D01*
X059936Y039403D01*
Y039437D01*
X059903Y03947D01*
X059803D01*
X059903D01*
X059936Y039503D01*
Y039537D01*
X059903Y03957D01*
X059803D01*
X051772Y046972D02*
Y046772D01*
X051872D01*
X051905Y046805D01*
Y046838D01*
X051872Y046872D01*
X051772D01*
X051872D01*
X051905Y046905D01*
Y046938D01*
X051872Y046972D01*
X051772D01*
X051024Y047011D02*
Y046811D01*
X051124D01*
X051157Y046844D01*
Y046878D01*
X051124Y046911D01*
X051024D01*
X051124D01*
X051157Y046944D01*
Y046978D01*
X051124Y047011D01*
X051024D01*
X044961Y047129D02*
Y046929D01*
X045061D01*
X045094Y046962D01*
Y046996D01*
X045061Y047029D01*
X044961D01*
X045061D01*
X045094Y047062D01*
Y047096D01*
X045061Y047129D01*
X044961D01*
X044213D02*
Y046929D01*
X044313D01*
X044346Y046962D01*
Y046996D01*
X044313Y047029D01*
X044213D01*
X044313D01*
X044346Y047062D01*
Y047096D01*
X044313Y047129D01*
X044213D01*
X039646Y047208D02*
Y047008D01*
X039746D01*
X039779Y047041D01*
Y047075D01*
X039746Y047108D01*
X039646D01*
X039746D01*
X039779Y047141D01*
Y047174D01*
X039746Y047208D01*
X039646D01*
X041496Y04772D02*
Y04752D01*
X041596D01*
X041629Y047553D01*
Y047586D01*
X041596Y04762D01*
X041496D01*
X041596D01*
X041629Y047653D01*
Y047686D01*
X041596Y04772D01*
X041496D01*
X054134Y047523D02*
Y047323D01*
X054234D01*
X054267Y047356D01*
Y047389D01*
X054234Y047423D01*
X054134D01*
X054234D01*
X054267Y047456D01*
Y047489D01*
X054234Y047523D01*
X054134D01*
X04685Y047602D02*
Y047402D01*
X04695D01*
X046984Y047435D01*
Y047468D01*
X04695Y047502D01*
X04685D01*
X04695D01*
X046984Y047535D01*
Y047568D01*
X04695Y047602D01*
X04685D01*
X032447Y025254D02*
X032414Y025288D01*
X032347D01*
X032314Y025254D01*
Y025121D01*
X032347Y025088D01*
X032414D01*
X032447Y025121D01*
X030787Y022582D02*
Y022382D01*
X030887D01*
X030921Y022415D01*
Y022449D01*
X030887Y022482D01*
X030787D01*
X030887D01*
X030921Y022515D01*
Y022548D01*
X030887Y022582D01*
X030787D01*
X032417Y019222D02*
X032383Y019255D01*
X032317D01*
X032283Y019222D01*
Y019088D01*
X032317Y019055D01*
X032383D01*
X032417Y019088D01*
Y018828D02*
X032383Y018861D01*
X032317D01*
X032283Y018828D01*
Y018695D01*
X032317Y018661D01*
X032383D01*
X032417Y018695D01*
X032456Y024797D02*
X032423Y024831D01*
X032356D01*
X032323Y024797D01*
Y024664D01*
X032356Y024631D01*
X032423D01*
X032456Y024664D01*
X033105Y017124D02*
Y016924D01*
X033205D01*
X033239Y016958D01*
Y016991D01*
X033205Y017024D01*
X033105D01*
X033205D01*
X033239Y017057D01*
Y017091D01*
X033205Y017124D01*
X033105D01*
X030787Y022779D02*
Y022579D01*
X030887D01*
X030921Y022612D01*
Y022645D01*
X030887Y022679D01*
X030787D01*
X030887D01*
X030921Y022712D01*
Y022745D01*
X030887Y022779D01*
X030787D01*
X03209Y025249D02*
X032056Y025283D01*
X03199D01*
X031956Y025249D01*
Y025116D01*
X03199Y025083D01*
X032056D01*
X03209Y025116D01*
X031984Y019222D02*
X03195Y019255D01*
X031884D01*
X03185Y019222D01*
Y019088D01*
X031884Y019055D01*
X03195D01*
X031984Y019088D01*
X032099Y024792D02*
X032065Y024825D01*
X031999D01*
X031965Y024792D01*
Y024659D01*
X031999Y024625D01*
X032065D01*
X032099Y024659D01*
X032795Y017129D02*
Y016929D01*
X032895D01*
X032929Y016962D01*
Y016996D01*
X032895Y017029D01*
X032795D01*
X032895D01*
X032929Y017062D01*
Y017096D01*
X032895Y017129D01*
X032795D01*
X029685Y020889D02*
Y020689D01*
X029785D01*
X029818Y020722D01*
Y020756D01*
X029785Y020789D01*
X029685D01*
X029785D01*
X029818Y020822D01*
Y020856D01*
X029785Y020889D01*
X029685D01*
X035494Y036858D02*
Y036658D01*
X035594D01*
X035628Y036691D01*
Y036724D01*
X035594Y036758D01*
X035494D01*
X035594D01*
X035628Y036791D01*
Y036824D01*
X035594Y036858D01*
X035494D01*
X048533Y041322D02*
Y041122D01*
X048633D01*
X048667Y041155D01*
Y041189D01*
X048633Y041222D01*
X048533D01*
X048633D01*
X048667Y041255D01*
Y041289D01*
X048633Y041322D01*
X048533D01*
X047087Y041332D02*
Y041132D01*
X047187D01*
X04722Y041165D01*
Y041199D01*
X047187Y041232D01*
X047087D01*
X047187D01*
X04722Y041265D01*
Y041298D01*
X047187Y041332D01*
X047087D01*
X04752D02*
Y041132D01*
X04762D01*
X047653Y041165D01*
Y041199D01*
X04762Y041232D01*
X04752D01*
X04762D01*
X047653Y041265D01*
Y041298D01*
X04762Y041332D01*
X04752D01*
X047953D02*
Y041132D01*
X048053D01*
X048086Y041165D01*
Y041199D01*
X048053Y041232D01*
X047953D01*
X048053D01*
X048086Y041265D01*
Y041298D01*
X048053Y041332D01*
X047953D01*
X050118D02*
Y041132D01*
X050218D01*
X050251Y041165D01*
Y041199D01*
X050218Y041232D01*
X050118D01*
X050218D01*
X050251Y041265D01*
Y041298D01*
X050218Y041332D01*
X050118D01*
X049685D02*
Y041132D01*
X049785D01*
X049818Y041165D01*
Y041199D01*
X049785Y041232D01*
X049685D01*
X049785D01*
X049818Y041265D01*
Y041298D01*
X049785Y041332D01*
X049685D01*
X049252D02*
Y041132D01*
X049352D01*
X049385Y041165D01*
Y041199D01*
X049352Y041232D01*
X049252D01*
X049352D01*
X049385Y041265D01*
Y041298D01*
X049352Y041332D01*
X049252D01*
X048819D02*
Y041132D01*
X048919D01*
X048952Y041165D01*
Y041199D01*
X048919Y041232D01*
X048819D01*
X048919D01*
X048952Y041265D01*
Y041298D01*
X048919Y041332D01*
X048819D01*
X035101Y036858D02*
Y036658D01*
X035201D01*
X035234Y036691D01*
Y036724D01*
X035201Y036758D01*
X035101D01*
X035201D01*
X035234Y036791D01*
Y036824D01*
X035201Y036858D01*
X035101D01*
X034707D02*
Y036658D01*
X034807D01*
X03484Y036691D01*
Y036724D01*
X034807Y036758D01*
X034707D01*
X034807D01*
X03484Y036791D01*
Y036824D01*
X034807Y036858D01*
X034707D01*
X034313D02*
Y036658D01*
X034413D01*
X034446Y036691D01*
Y036724D01*
X034413Y036758D01*
X034313D01*
X034413D01*
X034446Y036791D01*
Y036824D01*
X034413Y036858D01*
X034313D01*
X033919D02*
Y036658D01*
X034019D01*
X034053Y036691D01*
Y036724D01*
X034019Y036758D01*
X033919D01*
X034019D01*
X034053Y036791D01*
Y036824D01*
X034019Y036858D01*
X033919D01*
X033526D02*
Y036658D01*
X033626D01*
X033659Y036691D01*
Y036724D01*
X033626Y036758D01*
X033526D01*
X033626D01*
X033659Y036791D01*
Y036824D01*
X033626Y036858D01*
X033526D01*
X032542D02*
Y036658D01*
X032641D01*
X032675Y036691D01*
Y036724D01*
X032641Y036758D01*
X032542D01*
X032641D01*
X032675Y036791D01*
Y036824D01*
X032641Y036858D01*
X032542D01*
X031807Y037596D02*
Y037396D01*
X031907D01*
X031941Y037429D01*
Y037463D01*
X031907Y037496D01*
X031807D01*
X031907D01*
X031941Y037529D01*
Y037563D01*
X031907Y037596D01*
X031807D01*
Y03799D02*
Y03779D01*
X031907D01*
X031941Y037823D01*
Y037856D01*
X031907Y03789D01*
X031807D01*
X031907D01*
X031941Y037923D01*
Y037956D01*
X031907Y03799D01*
X031807D01*
Y038383D02*
Y038183D01*
X031907D01*
X031941Y038217D01*
Y03825D01*
X031907Y038283D01*
X031807D01*
X031907D01*
X031941Y038317D01*
Y03835D01*
X031907Y038383D01*
X031807D01*
Y038974D02*
Y038774D01*
X031907D01*
X031941Y038807D01*
Y038841D01*
X031907Y038874D01*
X031807D01*
X031907D01*
X031941Y038907D01*
Y038941D01*
X031907Y038974D01*
X031807D01*
Y039368D02*
Y039168D01*
X031907D01*
X031941Y039201D01*
Y039234D01*
X031907Y039268D01*
X031807D01*
X031907D01*
X031941Y039301D01*
Y039334D01*
X031907Y039368D01*
X031807D01*
X035302Y036674D02*
Y036474D01*
X035402D01*
X035435Y036508D01*
Y036541D01*
X035402Y036574D01*
X035302D01*
X035402D01*
X035435Y036608D01*
Y036641D01*
X035402Y036674D01*
X035302D01*
X034908D02*
Y036474D01*
X035008D01*
X035041Y036508D01*
Y036541D01*
X035008Y036574D01*
X034908D01*
X035008D01*
X035041Y036608D01*
Y036641D01*
X035008Y036674D01*
X034908D01*
X034514D02*
Y036474D01*
X034614D01*
X034648Y036508D01*
Y036541D01*
X034614Y036574D01*
X034514D01*
X034614D01*
X034648Y036608D01*
Y036641D01*
X034614Y036674D01*
X034514D01*
X034121D02*
Y036474D01*
X034221D01*
X034254Y036508D01*
Y036541D01*
X034221Y036574D01*
X034121D01*
X034221D01*
X034254Y036608D01*
Y036641D01*
X034221Y036674D01*
X034121D01*
X032349D02*
Y036474D01*
X032449D01*
X032482Y036508D01*
Y036541D01*
X032449Y036574D01*
X032349D01*
X032449D01*
X032482Y036608D01*
Y036641D01*
X032449Y036674D01*
X032349D01*
X031624Y037395D02*
Y037195D01*
X031724D01*
X031757Y037228D01*
Y037262D01*
X031724Y037295D01*
X031624D01*
X031724D01*
X031757Y037328D01*
Y037361D01*
X031724Y037395D01*
X031624D01*
Y037789D02*
Y037589D01*
X031724D01*
X031757Y037622D01*
Y037655D01*
X031724Y037689D01*
X031624D01*
X031724D01*
X031757Y037722D01*
Y037755D01*
X031724Y037789D01*
X031624D01*
Y038182D02*
Y037982D01*
X031724D01*
X031757Y038016D01*
Y038049D01*
X031724Y038082D01*
X031624D01*
X031724D01*
X031757Y038116D01*
Y038149D01*
X031724Y038182D01*
X031624D01*
Y038773D02*
Y038573D01*
X031724D01*
X031757Y038606D01*
Y038639D01*
X031724Y038673D01*
X031624D01*
X031724D01*
X031757Y038706D01*
Y038739D01*
X031724Y038773D01*
X031624D01*
Y039166D02*
Y038967D01*
X031724D01*
X031757Y039D01*
Y039033D01*
X031724Y039067D01*
X031624D01*
X031724D01*
X031757Y0391D01*
Y039133D01*
X031724Y039166D01*
X031624D01*
Y03956D02*
Y03936D01*
X031724D01*
X031757Y039394D01*
Y039427D01*
X031724Y03946D01*
X031624D01*
X031724D01*
X031757Y039494D01*
Y039527D01*
X031724Y03956D01*
X031624D01*
X031781Y039757D02*
Y039557D01*
X031881D01*
X031915Y03959D01*
Y039624D01*
X031881Y039657D01*
X031781D01*
X031881D01*
X031915Y03969D01*
Y039724D01*
X031881Y039757D01*
X031781D01*
X04126Y04709D02*
Y04689D01*
X04136D01*
X041393Y046923D01*
Y046956D01*
X04136Y04699D01*
X04126D01*
X04136D01*
X041393Y047023D01*
Y047056D01*
X04136Y04709D01*
X04126D01*
X040787D02*
Y04689D01*
X040887D01*
X040921Y046923D01*
Y046956D01*
X040887Y04699D01*
X040787D01*
X040887D01*
X040921Y047023D01*
Y047056D01*
X040887Y04709D01*
X040787D01*
X045315Y046972D02*
Y046772D01*
X045415D01*
X045448Y046805D01*
Y046838D01*
X045415Y046872D01*
X045315D01*
X045415D01*
X045448Y046905D01*
Y046938D01*
X045415Y046972D01*
X045315D01*
X045748D02*
Y046772D01*
X045848D01*
X045881Y046805D01*
Y046838D01*
X045848Y046872D01*
X045748D01*
X045848D01*
X045881Y046905D01*
Y046938D01*
X045848Y046972D01*
X045748D01*
X046181D02*
Y046772D01*
X046281D01*
X046314Y046805D01*
Y046838D01*
X046281Y046872D01*
X046181D01*
X046281D01*
X046314Y046905D01*
Y046938D01*
X046281Y046972D01*
X046181D01*
X046614D02*
Y046772D01*
X046714D01*
X046747Y046805D01*
Y046838D01*
X046714Y046872D01*
X046614D01*
X046714D01*
X046747Y046905D01*
Y046938D01*
X046714Y046972D01*
X046614D01*
X040354Y047238D02*
Y047038D01*
X040453D01*
X040487Y047072D01*
Y047105D01*
X040453Y047138D01*
X040354D01*
X040453D01*
X040487Y047172D01*
Y047205D01*
X040453Y047238D01*
X040354D01*
X053898Y046893D02*
Y046693D01*
X053998D01*
X054031Y046726D01*
Y04676D01*
X053998Y046793D01*
X053898D01*
X053998D01*
X054031Y046826D01*
Y04686D01*
X053998Y046893D01*
X053898D01*
X053465D02*
Y046693D01*
X053565D01*
X053598Y046726D01*
Y04676D01*
X053565Y046793D01*
X053465D01*
X053565D01*
X053598Y046826D01*
Y04686D01*
X053565Y046893D01*
X053465D01*
X053032D02*
Y046693D01*
X053131D01*
X053165Y046726D01*
Y04676D01*
X053131Y046793D01*
X053032D01*
X053131D01*
X053165Y046826D01*
Y04686D01*
X053131Y046893D01*
X053032D01*
X052598D02*
Y046693D01*
X052698D01*
X052732Y046726D01*
Y04676D01*
X052698Y046793D01*
X052598D01*
X052698D01*
X052732Y046826D01*
Y04686D01*
X052698Y046893D01*
X052598D01*
X052165D02*
Y046693D01*
X052265D01*
X052299Y046726D01*
Y04676D01*
X052265Y046793D01*
X052165D01*
X052265D01*
X052299Y046826D01*
Y04686D01*
X052265Y046893D01*
X052165D01*
X031948Y041551D02*
X031915Y041584D01*
X031848D01*
X031815Y041551D01*
Y041417D01*
X031848Y041384D01*
X031915D01*
X031948Y041417D01*
X031805Y040157D02*
Y039957D01*
X031905D01*
X031939Y03999D01*
Y040024D01*
X031905Y040057D01*
X031805D01*
X031905D01*
X031939Y04009D01*
Y040124D01*
X031905Y040157D01*
X031805D01*
D215*
X047907Y016139D02*
G03*
X047907Y016139I-00008J0D01*
G01*
X053827Y015139D02*
G03*
X053827Y015139I-00008J0D01*
G01*
X047907Y017139D02*
G03*
X047907Y017139I-00008J0D01*
G01*
X053827Y016139D02*
G03*
X053827Y016139I-00008J0D01*
G01*
X047907Y015139D02*
G03*
X047907Y015139I-00008J0D01*
G01*
X057127Y016139D02*
G03*
X057127Y016139I-00008J0D01*
G01*
X063047Y015139D02*
G03*
X063047Y015139I-00008J0D01*
G01*
X057127Y017139D02*
G03*
X057127Y017139I-00008J0D01*
G01*
X063047Y016139D02*
G03*
X063047Y016139I-00008J0D01*
G01*
X057127Y015139D02*
G03*
X057127Y015139I-00008J0D01*
G01*
X033974Y015976D02*
G03*
X033974Y015976I-00008J0D01*
G01*
X031698D02*
G03*
X031698Y015976I-00008J0D01*
G01*
D216*
X033934D02*
G03*
X033934Y015976I-00004J0D01*
G01*
X031658D02*
G03*
X031658Y015976I-00004J0D01*
G01*
M02*
