G04*
G04 #@! TF.GenerationSoftware,Altium Limited,Altium Designer,18.1.6 (161)*
G04*
G04 Layer_Color=16711935*
%FSTAX24Y24*%
%MOIN*%
G70*
G01*
G75*
%ADD19C,0.0039*%
D19*
X031089Y043494D02*
X030892D01*
Y043592D01*
X030925Y043625D01*
X030991D01*
X031024Y043592D01*
Y043494D01*
Y043691D02*
Y043756D01*
Y043724D01*
X030827D01*
Y043691D01*
X030892Y043888D02*
Y043953D01*
X030925Y043986D01*
X031024D01*
Y043888D01*
X030991Y043855D01*
X030958Y043888D01*
Y043986D01*
X031024Y044052D02*
Y04415D01*
X030991Y044183D01*
X030958Y04415D01*
Y044084D01*
X030925Y044052D01*
X030892Y044084D01*
Y044183D01*
X03086Y044281D02*
X030892D01*
Y044248D01*
Y044314D01*
Y044281D01*
X030991D01*
X031024Y044314D01*
Y044412D02*
Y044478D01*
Y044445D01*
X030892D01*
Y044412D01*
Y044708D02*
Y044609D01*
X030925Y044576D01*
X030991D01*
X031024Y044609D01*
Y044708D01*
Y04497D02*
X030892D01*
Y045003D01*
X030925Y045036D01*
X031024D01*
X030925D01*
X030892Y045068D01*
X030925Y045101D01*
X031024D01*
X030892Y0452D02*
Y045265D01*
X030925Y045298D01*
X031024D01*
Y0452D01*
X030991Y045167D01*
X030958Y0452D01*
Y045298D01*
X030892Y045364D02*
X030991D01*
X031024Y045396D01*
Y045495D01*
X031056D01*
X031089Y045462D01*
Y045429D01*
X031024Y045495D02*
X030892D01*
X031089Y045823D02*
Y045856D01*
X031056Y045888D01*
X030892D01*
Y04579D01*
X030925Y045757D01*
X030991D01*
X031024Y04579D01*
Y045888D01*
Y045987D02*
Y046052D01*
X030991Y046085D01*
X030925D01*
X030892Y046052D01*
Y045987D01*
X030925Y045954D01*
X030991D01*
X031024Y045987D01*
Y04638D02*
Y046446D01*
X030991Y046479D01*
X030925D01*
X030892Y046446D01*
Y04638D01*
X030925Y046347D01*
X030991D01*
X031024Y04638D01*
X030892Y046544D02*
X031024Y04661D01*
X030892Y046675D01*
X031024Y046839D02*
Y046774D01*
X030991Y046741D01*
X030925D01*
X030892Y046774D01*
Y046839D01*
X030925Y046872D01*
X030958D01*
Y046741D01*
X030892Y046938D02*
X031024D01*
X030958D01*
X030925Y046971D01*
X030892Y047003D01*
Y047036D01*
X03086Y047364D02*
X030892D01*
Y047331D01*
Y047397D01*
Y047364D01*
X030991D01*
X031024Y047397D01*
X030827Y047495D02*
X031024D01*
X030925D01*
X030892Y047528D01*
Y047594D01*
X030925Y047627D01*
X031024D01*
Y047791D02*
Y047725D01*
X030991Y047692D01*
X030925D01*
X030892Y047725D01*
Y047791D01*
X030925Y047823D01*
X030958D01*
Y047692D01*
X030827Y048086D02*
X031024D01*
Y048184D01*
X030991Y048217D01*
X030958D01*
X030925D01*
X030892Y048184D01*
Y048086D01*
X031024Y048315D02*
Y048381D01*
X030991Y048414D01*
X030925D01*
X030892Y048381D01*
Y048315D01*
X030925Y048283D01*
X030991D01*
X031024Y048315D01*
X030892Y048512D02*
Y048578D01*
X030925Y048611D01*
X031024D01*
Y048512D01*
X030991Y048479D01*
X030958Y048512D01*
Y048611D01*
X030892Y048676D02*
X031024D01*
X030958D01*
X030925Y048709D01*
X030892Y048742D01*
Y048775D01*
X030827Y049004D02*
X031024D01*
Y048906D01*
X030991Y048873D01*
X030925D01*
X030892Y048906D01*
Y049004D01*
X031024Y049365D02*
Y049299D01*
X030991Y049266D01*
X030925D01*
X030892Y049299D01*
Y049365D01*
X030925Y049398D01*
X030958D01*
Y049266D01*
X030827Y049594D02*
X031024D01*
Y049496D01*
X030991Y049463D01*
X030925D01*
X030892Y049496D01*
Y049594D01*
X031089Y049726D02*
Y049758D01*
X031056Y049791D01*
X030892D01*
Y049693D01*
X030925Y04966D01*
X030991D01*
X031024Y049693D01*
Y049791D01*
Y049955D02*
Y04989D01*
X030991Y049857D01*
X030925D01*
X030892Y04989D01*
Y049955D01*
X030925Y049988D01*
X030958D01*
Y049857D01*
X030354Y043665D02*
X030551D01*
Y043566D01*
X030518Y043533D01*
X030453D01*
X03042Y043566D01*
Y043665D01*
X030551Y043763D02*
Y043829D01*
X030518Y043861D01*
X030453D01*
X03042Y043829D01*
Y043763D01*
X030453Y04373D01*
X030518D01*
X030551Y043763D01*
Y044025D02*
Y04396D01*
X030518Y043927D01*
X030453D01*
X03042Y04396D01*
Y044025D01*
X030453Y044058D01*
X030486D01*
Y043927D01*
X030551Y044124D02*
Y044222D01*
X030518Y044255D01*
X030486Y044222D01*
Y044157D01*
X030453Y044124D01*
X03042Y044157D01*
Y044255D01*
X030551Y044321D02*
X03042D01*
Y044419D01*
X030453Y044452D01*
X030551D01*
X030387Y04455D02*
X03042D01*
Y044517D01*
Y044583D01*
Y04455D01*
X030518D01*
X030551Y044583D01*
Y044911D02*
X030387D01*
X030453D01*
Y044878D01*
Y044944D01*
Y044911D01*
X030387D01*
X030354Y044944D01*
X030551Y045042D02*
Y045108D01*
Y045075D01*
X03042D01*
Y045042D01*
X030387Y045239D02*
X03042D01*
Y045206D01*
Y045272D01*
Y045239D01*
X030518D01*
X030551Y045272D01*
Y0456D02*
Y045665D01*
X030518Y045698D01*
X030453D01*
X03042Y045665D01*
Y0456D01*
X030453Y045567D01*
X030518D01*
X030551Y0456D01*
Y045764D02*
X03042D01*
Y045862D01*
X030453Y045895D01*
X030551D01*
Y04619D02*
Y046256D01*
X030518Y046288D01*
X030453D01*
X03042Y046256D01*
Y04619D01*
X030453Y046157D01*
X030518D01*
X030551Y04619D01*
Y046354D02*
X03042D01*
Y046452D01*
X030453Y046485D01*
X030551D01*
Y046649D02*
Y046584D01*
X030518Y046551D01*
X030453D01*
X03042Y046584D01*
Y046649D01*
X030453Y046682D01*
X030486D01*
Y046551D01*
X030617Y046944D02*
X03042D01*
Y047043D01*
X030453Y047076D01*
X030518D01*
X030551Y047043D01*
Y046944D01*
Y047141D02*
Y047207D01*
Y047174D01*
X030354D01*
Y047141D01*
X03042Y047338D02*
Y047404D01*
X030453Y047436D01*
X030551D01*
Y047338D01*
X030518Y047305D01*
X030486Y047338D01*
Y047436D01*
X03042Y047633D02*
Y047535D01*
X030453Y047502D01*
X030518D01*
X030551Y047535D01*
Y047633D01*
Y047797D02*
Y047732D01*
X030518Y047699D01*
X030453D01*
X03042Y047732D01*
Y047797D01*
X030453Y04783D01*
X030486D01*
Y047699D01*
X030551Y047896D02*
X030518D01*
Y047928D01*
X030551D01*
Y047896D01*
X030354Y048256D02*
X030551D01*
Y048355D01*
X030518Y048388D01*
X030486D01*
X030453Y048355D01*
Y048256D01*
Y048355D01*
X03042Y048388D01*
X030387D01*
X030354Y048355D01*
Y048256D01*
X030551Y048486D02*
Y048552D01*
X030518Y048584D01*
X030453D01*
X03042Y048552D01*
Y048486D01*
X030453Y048453D01*
X030518D01*
X030551Y048486D01*
X030387Y048683D02*
X03042D01*
Y04865D01*
Y048716D01*
Y048683D01*
X030518D01*
X030551Y048716D01*
X030387Y048847D02*
X03042D01*
Y048814D01*
Y048879D01*
Y048847D01*
X030518D01*
X030551Y048879D01*
Y049011D02*
Y049076D01*
X030518Y049109D01*
X030453D01*
X03042Y049076D01*
Y049011D01*
X030453Y048978D01*
X030518D01*
X030551Y049011D01*
Y049175D02*
X03042D01*
Y049207D01*
X030453Y04924D01*
X030551D01*
X030453D01*
X03042Y049273D01*
X030453Y049306D01*
X030551D01*
X030079Y043533D02*
X029882D01*
X030079Y043665D01*
X029882D01*
Y043829D02*
Y043763D01*
X029915Y04373D01*
X030046D01*
X030079Y043763D01*
Y043829D01*
X030046Y043861D01*
X029915D01*
X029882Y043829D01*
Y043927D02*
Y044058D01*
Y043993D01*
X030079D01*
X029882Y044255D02*
Y044124D01*
X030079D01*
Y044255D01*
X02998Y044124D02*
Y044189D01*
X029948Y044321D02*
Y044353D01*
X02998D01*
Y044321D01*
X029948D01*
X030046D02*
Y044353D01*
X030079D01*
Y044321D01*
X030046D01*
X029882Y044681D02*
X030079D01*
X02998D01*
Y044813D01*
X029882D01*
X030079D01*
Y044911D02*
Y044977D01*
X030046Y045009D01*
X02998D01*
X029948Y044977D01*
Y044911D01*
X02998Y044878D01*
X030046D01*
X030079Y044911D01*
Y045075D02*
Y045141D01*
Y045108D01*
X029882D01*
Y045075D01*
X030079Y045337D02*
Y045272D01*
X030046Y045239D01*
X02998D01*
X029948Y045272D01*
Y045337D01*
X02998Y04537D01*
X030013D01*
Y045239D01*
X030079Y045436D02*
Y045534D01*
X030046Y045567D01*
X030013Y045534D01*
Y045469D01*
X02998Y045436D01*
X029948Y045469D01*
Y045567D01*
Y045862D02*
Y045928D01*
X02998Y04596D01*
X030079D01*
Y045862D01*
X030046Y045829D01*
X030013Y045862D01*
Y04596D01*
X029948Y046026D02*
X030079D01*
X030013D01*
X02998Y046059D01*
X029948Y046092D01*
Y046124D01*
X030079Y046321D02*
Y046256D01*
X030046Y046223D01*
X02998D01*
X029948Y046256D01*
Y046321D01*
X02998Y046354D01*
X030013D01*
Y046223D01*
X029882Y046616D02*
X030079D01*
Y046715D01*
X030046Y046748D01*
X030013D01*
X02998D01*
X029948Y046715D01*
Y046616D01*
X030079Y046813D02*
Y046879D01*
Y046846D01*
X029948D01*
Y046813D01*
X030144Y047043D02*
Y047076D01*
X030112Y047108D01*
X029948D01*
Y04701D01*
X02998Y046977D01*
X030046D01*
X030079Y04701D01*
Y047108D01*
X029948Y047404D02*
Y047469D01*
X02998Y047502D01*
X030079D01*
Y047404D01*
X030046Y047371D01*
X030013Y047404D01*
Y047502D01*
X030079Y047568D02*
X029948D01*
Y047666D01*
X02998Y047699D01*
X030079D01*
X029882Y047896D02*
X030079D01*
Y047797D01*
X030046Y047764D01*
X02998D01*
X029948Y047797D01*
Y047896D01*
Y048289D02*
Y048191D01*
X02998Y048158D01*
X030046D01*
X030079Y048191D01*
Y048289D01*
Y048388D02*
Y048453D01*
X030046Y048486D01*
X02998D01*
X029948Y048453D01*
Y048388D01*
X02998Y048355D01*
X030046D01*
X030079Y048388D01*
Y048552D02*
X029948D01*
Y04865D01*
X02998Y048683D01*
X030079D01*
Y048748D02*
X029948D01*
Y048847D01*
X02998Y048879D01*
X030079D01*
Y049043D02*
Y048978D01*
X030046Y048945D01*
X02998D01*
X029948Y048978D01*
Y049043D01*
X02998Y049076D01*
X030013D01*
Y048945D01*
X029948Y049273D02*
Y049175D01*
X02998Y049142D01*
X030046D01*
X030079Y049175D01*
Y049273D01*
X029915Y049371D02*
X029948D01*
Y049339D01*
Y049404D01*
Y049371D01*
X030046D01*
X030079Y049404D01*
Y049535D02*
Y049601D01*
X030046Y049634D01*
X02998D01*
X029948Y049601D01*
Y049535D01*
X02998Y049503D01*
X030046D01*
X030079Y049535D01*
X029948Y049699D02*
X030079D01*
X030013D01*
X02998Y049732D01*
X029948Y049765D01*
Y049798D01*
M02*
