G04*
G04 #@! TF.GenerationSoftware,Altium Limited,Altium Designer,18.1.6 (161)*
G04*
G04 Layer_Physical_Order=1*
G04 Layer_Color=255*
%FSTAX24Y24*%
%MOIN*%
G70*
G01*
G75*
%ADD11C,0.0059*%
%ADD13C,0.0157*%
%ADD14C,0.0079*%
%ADD17C,0.0118*%
%ADD19C,0.0039*%
%ADD24R,0.0197X0.0236*%
%ADD25R,0.0118X0.0118*%
%ADD26R,0.0118X0.0118*%
%ADD27R,0.0580X0.0110*%
%ADD28R,0.0236X0.0197*%
%ADD29R,0.0520X0.0420*%
%ADD30R,0.0157X0.0197*%
%ADD31R,0.0200X0.0140*%
%ADD32R,0.0335X0.0118*%
%ADD33R,0.0315X0.0315*%
%ADD34R,0.0709X0.0512*%
%ADD35R,0.0728X0.0512*%
%ADD36R,0.0197X0.0157*%
%ADD37C,0.0394*%
G04:AMPARAMS|DCode=38|XSize=27.6mil|YSize=70.9mil|CornerRadius=4mil|HoleSize=0mil|Usage=FLASHONLY|Rotation=270.000|XOffset=0mil|YOffset=0mil|HoleType=Round|Shape=RoundedRectangle|*
%AMROUNDEDRECTD38*
21,1,0.0276,0.0629,0,0,270.0*
21,1,0.0196,0.0709,0,0,270.0*
1,1,0.0080,-0.0314,-0.0098*
1,1,0.0080,-0.0314,0.0098*
1,1,0.0080,0.0314,0.0098*
1,1,0.0080,0.0314,-0.0098*
%
%ADD38ROUNDEDRECTD38*%
G04:AMPARAMS|DCode=39|XSize=7.9mil|YSize=27.6mil|CornerRadius=2mil|HoleSize=0mil|Usage=FLASHONLY|Rotation=270.000|XOffset=0mil|YOffset=0mil|HoleType=Round|Shape=RoundedRectangle|*
%AMROUNDEDRECTD39*
21,1,0.0079,0.0236,0,0,270.0*
21,1,0.0039,0.0276,0,0,270.0*
1,1,0.0039,-0.0118,-0.0020*
1,1,0.0039,-0.0118,0.0020*
1,1,0.0039,0.0118,0.0020*
1,1,0.0039,0.0118,-0.0020*
%
%ADD39ROUNDEDRECTD39*%
G04:AMPARAMS|DCode=40|XSize=7.9mil|YSize=27.6mil|CornerRadius=2mil|HoleSize=0mil|Usage=FLASHONLY|Rotation=180.000|XOffset=0mil|YOffset=0mil|HoleType=Round|Shape=RoundedRectangle|*
%AMROUNDEDRECTD40*
21,1,0.0079,0.0236,0,0,180.0*
21,1,0.0039,0.0276,0,0,180.0*
1,1,0.0039,-0.0020,0.0118*
1,1,0.0039,0.0020,0.0118*
1,1,0.0039,0.0020,-0.0118*
1,1,0.0039,-0.0020,-0.0118*
%
%ADD40ROUNDEDRECTD40*%
G04:AMPARAMS|DCode=41|XSize=149.6mil|YSize=149.6mil|CornerRadius=12mil|HoleSize=0mil|Usage=FLASHONLY|Rotation=180.000|XOffset=0mil|YOffset=0mil|HoleType=Round|Shape=RoundedRectangle|*
%AMROUNDEDRECTD41*
21,1,0.1496,0.1257,0,0,180.0*
21,1,0.1257,0.1496,0,0,180.0*
1,1,0.0239,-0.0628,0.0628*
1,1,0.0239,0.0628,0.0628*
1,1,0.0239,0.0628,-0.0628*
1,1,0.0239,-0.0628,-0.0628*
%
%ADD41ROUNDEDRECTD41*%
G04:AMPARAMS|DCode=42|XSize=19.7mil|YSize=23.6mil|CornerRadius=2mil|HoleSize=0mil|Usage=FLASHONLY|Rotation=90.000|XOffset=0mil|YOffset=0mil|HoleType=Round|Shape=RoundedRectangle|*
%AMROUNDEDRECTD42*
21,1,0.0197,0.0197,0,0,90.0*
21,1,0.0157,0.0236,0,0,90.0*
1,1,0.0039,0.0098,0.0079*
1,1,0.0039,0.0098,-0.0079*
1,1,0.0039,-0.0098,-0.0079*
1,1,0.0039,-0.0098,0.0079*
%
%ADD42ROUNDEDRECTD42*%
G04:AMPARAMS|DCode=43|XSize=15.7mil|YSize=23.6mil|CornerRadius=2mil|HoleSize=0mil|Usage=FLASHONLY|Rotation=90.000|XOffset=0mil|YOffset=0mil|HoleType=Round|Shape=RoundedRectangle|*
%AMROUNDEDRECTD43*
21,1,0.0157,0.0197,0,0,90.0*
21,1,0.0118,0.0236,0,0,90.0*
1,1,0.0039,0.0098,0.0059*
1,1,0.0039,0.0098,-0.0059*
1,1,0.0039,-0.0098,-0.0059*
1,1,0.0039,-0.0098,0.0059*
%
%ADD43ROUNDEDRECTD43*%
G04:AMPARAMS|DCode=44|XSize=19.7mil|YSize=23.6mil|CornerRadius=2mil|HoleSize=0mil|Usage=FLASHONLY|Rotation=0.000|XOffset=0mil|YOffset=0mil|HoleType=Round|Shape=RoundedRectangle|*
%AMROUNDEDRECTD44*
21,1,0.0197,0.0197,0,0,0.0*
21,1,0.0157,0.0236,0,0,0.0*
1,1,0.0039,0.0079,-0.0098*
1,1,0.0039,-0.0079,-0.0098*
1,1,0.0039,-0.0079,0.0098*
1,1,0.0039,0.0079,0.0098*
%
%ADD44ROUNDEDRECTD44*%
G04:AMPARAMS|DCode=45|XSize=15.7mil|YSize=23.6mil|CornerRadius=2mil|HoleSize=0mil|Usage=FLASHONLY|Rotation=0.000|XOffset=0mil|YOffset=0mil|HoleType=Round|Shape=RoundedRectangle|*
%AMROUNDEDRECTD45*
21,1,0.0157,0.0197,0,0,0.0*
21,1,0.0118,0.0236,0,0,0.0*
1,1,0.0039,0.0059,-0.0098*
1,1,0.0039,-0.0059,-0.0098*
1,1,0.0039,-0.0059,0.0098*
1,1,0.0039,0.0059,0.0098*
%
%ADD45ROUNDEDRECTD45*%
G04:AMPARAMS|DCode=46|XSize=22.2mil|YSize=7.9mil|CornerRadius=1mil|HoleSize=0mil|Usage=FLASHONLY|Rotation=270.000|XOffset=0mil|YOffset=0mil|HoleType=Round|Shape=RoundedRectangle|*
%AMROUNDEDRECTD46*
21,1,0.0222,0.0059,0,0,270.0*
21,1,0.0203,0.0079,0,0,270.0*
1,1,0.0020,-0.0030,-0.0101*
1,1,0.0020,-0.0030,0.0101*
1,1,0.0020,0.0030,0.0101*
1,1,0.0020,0.0030,-0.0101*
%
%ADD46ROUNDEDRECTD46*%
%ADD47R,0.0197X0.0197*%
%ADD48R,0.0236X0.0197*%
%ADD49C,0.0350*%
%ADD50O,0.0630X0.0315*%
%ADD51O,0.0315X0.0630*%
%ADD52R,0.1110X0.1110*%
%ADD53R,0.1110X0.0870*%
%ADD54R,0.1110X0.0790*%
%ADD55R,0.0370X0.0410*%
%ADD56C,0.0180*%
%ADD57R,0.0340X0.0120*%
%ADD58R,0.0120X0.0340*%
%ADD59R,0.1640X0.1640*%
G04:AMPARAMS|DCode=60|XSize=11.8mil|YSize=23.6mil|CornerRadius=1.9mil|HoleSize=0mil|Usage=FLASHONLY|Rotation=90.000|XOffset=0mil|YOffset=0mil|HoleType=Round|Shape=RoundedRectangle|*
%AMROUNDEDRECTD60*
21,1,0.0118,0.0197,0,0,90.0*
21,1,0.0079,0.0236,0,0,90.0*
1,1,0.0039,0.0099,0.0040*
1,1,0.0039,0.0099,-0.0040*
1,1,0.0039,-0.0099,-0.0040*
1,1,0.0039,-0.0099,0.0040*
%
%ADD60ROUNDEDRECTD60*%
G04:AMPARAMS|DCode=61|XSize=39.4mil|YSize=63mil|CornerRadius=3.9mil|HoleSize=0mil|Usage=FLASHONLY|Rotation=0.000|XOffset=0mil|YOffset=0mil|HoleType=Round|Shape=RoundedRectangle|*
%AMROUNDEDRECTD61*
21,1,0.0394,0.0551,0,0,0.0*
21,1,0.0315,0.0630,0,0,0.0*
1,1,0.0079,0.0157,-0.0276*
1,1,0.0079,-0.0157,-0.0276*
1,1,0.0079,-0.0157,0.0276*
1,1,0.0079,0.0157,0.0276*
%
%ADD61ROUNDEDRECTD61*%
%ADD62R,0.0236X0.0453*%
%ADD63R,0.0118X0.0453*%
%ADD64R,0.0197X0.0236*%
%ADD65R,0.0630X0.2680*%
%ADD66R,0.0512X0.0728*%
G04:AMPARAMS|DCode=67|XSize=47.6mil|YSize=22.8mil|CornerRadius=2.9mil|HoleSize=0mil|Usage=FLASHONLY|Rotation=0.000|XOffset=0mil|YOffset=0mil|HoleType=Round|Shape=RoundedRectangle|*
%AMROUNDEDRECTD67*
21,1,0.0476,0.0171,0,0,0.0*
21,1,0.0419,0.0228,0,0,0.0*
1,1,0.0057,0.0210,-0.0086*
1,1,0.0057,-0.0210,-0.0086*
1,1,0.0057,-0.0210,0.0086*
1,1,0.0057,0.0210,0.0086*
%
%ADD67ROUNDEDRECTD67*%
G04:AMPARAMS|DCode=68|XSize=9.8mil|YSize=23.6mil|CornerRadius=2.5mil|HoleSize=0mil|Usage=FLASHONLY|Rotation=0.000|XOffset=0mil|YOffset=0mil|HoleType=Round|Shape=RoundedRectangle|*
%AMROUNDEDRECTD68*
21,1,0.0098,0.0187,0,0,0.0*
21,1,0.0049,0.0236,0,0,0.0*
1,1,0.0049,0.0025,-0.0094*
1,1,0.0049,-0.0025,-0.0094*
1,1,0.0049,-0.0025,0.0094*
1,1,0.0049,0.0025,0.0094*
%
%ADD68ROUNDEDRECTD68*%
%ADD69R,0.0079X0.0394*%
%ADD70R,0.0250X0.0200*%
G04:AMPARAMS|DCode=71|XSize=27.6mil|YSize=11.8mil|CornerRadius=3mil|HoleSize=0mil|Usage=FLASHONLY|Rotation=0.000|XOffset=0mil|YOffset=0mil|HoleType=Round|Shape=RoundedRectangle|*
%AMROUNDEDRECTD71*
21,1,0.0276,0.0059,0,0,0.0*
21,1,0.0217,0.0118,0,0,0.0*
1,1,0.0059,0.0108,-0.0030*
1,1,0.0059,-0.0108,-0.0030*
1,1,0.0059,-0.0108,0.0030*
1,1,0.0059,0.0108,0.0030*
%
%ADD71ROUNDEDRECTD71*%
G04:AMPARAMS|DCode=72|XSize=27.6mil|YSize=9.8mil|CornerRadius=2.5mil|HoleSize=0mil|Usage=FLASHONLY|Rotation=90.000|XOffset=0mil|YOffset=0mil|HoleType=Round|Shape=RoundedRectangle|*
%AMROUNDEDRECTD72*
21,1,0.0276,0.0049,0,0,90.0*
21,1,0.0226,0.0098,0,0,90.0*
1,1,0.0049,0.0025,0.0113*
1,1,0.0049,0.0025,-0.0113*
1,1,0.0049,-0.0025,-0.0113*
1,1,0.0049,-0.0025,0.0113*
%
%ADD72ROUNDEDRECTD72*%
G04:AMPARAMS|DCode=73|XSize=27.6mil|YSize=9.8mil|CornerRadius=2.5mil|HoleSize=0mil|Usage=FLASHONLY|Rotation=0.000|XOffset=0mil|YOffset=0mil|HoleType=Round|Shape=RoundedRectangle|*
%AMROUNDEDRECTD73*
21,1,0.0276,0.0049,0,0,0.0*
21,1,0.0226,0.0098,0,0,0.0*
1,1,0.0049,0.0113,-0.0025*
1,1,0.0049,-0.0113,-0.0025*
1,1,0.0049,-0.0113,0.0025*
1,1,0.0049,0.0113,0.0025*
%
%ADD73ROUNDEDRECTD73*%
G04:AMPARAMS|DCode=74|XSize=39.4mil|YSize=15.7mil|CornerRadius=3.9mil|HoleSize=0mil|Usage=FLASHONLY|Rotation=90.000|XOffset=0mil|YOffset=0mil|HoleType=Round|Shape=RoundedRectangle|*
%AMROUNDEDRECTD74*
21,1,0.0394,0.0079,0,0,90.0*
21,1,0.0315,0.0157,0,0,90.0*
1,1,0.0079,0.0039,0.0157*
1,1,0.0079,0.0039,-0.0157*
1,1,0.0079,-0.0039,-0.0157*
1,1,0.0079,-0.0039,0.0157*
%
%ADD74ROUNDEDRECTD74*%
%ADD75R,0.0315X0.0315*%
%ADD76R,0.0197X0.0197*%
%ADD77R,0.0512X0.0354*%
%ADD78R,0.0137X0.0297*%
%ADD79R,0.0500X0.0350*%
%ADD80R,0.0394X0.0236*%
%ADD81R,0.0236X0.0394*%
%ADD82R,0.0118X0.1024*%
%ADD83C,0.0098*%
G04:AMPARAMS|DCode=84|XSize=33.1mil|YSize=10.6mil|CornerRadius=1.3mil|HoleSize=0mil|Usage=FLASHONLY|Rotation=90.000|XOffset=0mil|YOffset=0mil|HoleType=Round|Shape=RoundedRectangle|*
%AMROUNDEDRECTD84*
21,1,0.0331,0.0080,0,0,90.0*
21,1,0.0304,0.0106,0,0,90.0*
1,1,0.0027,0.0040,0.0152*
1,1,0.0027,0.0040,-0.0152*
1,1,0.0027,-0.0040,-0.0152*
1,1,0.0027,-0.0040,0.0152*
%
%ADD84ROUNDEDRECTD84*%
G04:AMPARAMS|DCode=85|XSize=33.1mil|YSize=10.6mil|CornerRadius=1.3mil|HoleSize=0mil|Usage=FLASHONLY|Rotation=0.000|XOffset=0mil|YOffset=0mil|HoleType=Round|Shape=RoundedRectangle|*
%AMROUNDEDRECTD85*
21,1,0.0331,0.0080,0,0,0.0*
21,1,0.0304,0.0106,0,0,0.0*
1,1,0.0027,0.0152,-0.0040*
1,1,0.0027,-0.0152,-0.0040*
1,1,0.0027,-0.0152,0.0040*
1,1,0.0027,0.0152,0.0040*
%
%ADD85ROUNDEDRECTD85*%
%ADD86R,0.0140X0.0200*%
G04:AMPARAMS|DCode=87|XSize=39.4mil|YSize=39.4mil|CornerRadius=7.9mil|HoleSize=0mil|Usage=FLASHONLY|Rotation=90.000|XOffset=0mil|YOffset=0mil|HoleType=Round|Shape=RoundedRectangle|*
%AMROUNDEDRECTD87*
21,1,0.0394,0.0236,0,0,90.0*
21,1,0.0236,0.0394,0,0,90.0*
1,1,0.0157,0.0118,0.0118*
1,1,0.0157,0.0118,-0.0118*
1,1,0.0157,-0.0118,-0.0118*
1,1,0.0157,-0.0118,0.0118*
%
%ADD87ROUNDEDRECTD87*%
%ADD165C,0.0400*%
G04:AMPARAMS|DCode=166|XSize=22.2mil|YSize=15.7mil|CornerRadius=2mil|HoleSize=0mil|Usage=FLASHONLY|Rotation=270.000|XOffset=0mil|YOffset=0mil|HoleType=Round|Shape=RoundedRectangle|*
%AMROUNDEDRECTD166*
21,1,0.0222,0.0118,0,0,270.0*
21,1,0.0183,0.0157,0,0,270.0*
1,1,0.0039,-0.0059,-0.0092*
1,1,0.0039,-0.0059,0.0092*
1,1,0.0039,0.0059,0.0092*
1,1,0.0039,0.0059,-0.0092*
%
%ADD166ROUNDEDRECTD166*%
%ADD167R,0.0079X0.0079*%
G04:AMPARAMS|DCode=168|XSize=94.5mil|YSize=15.7mil|CornerRadius=3.9mil|HoleSize=0mil|Usage=FLASHONLY|Rotation=0.000|XOffset=0mil|YOffset=0mil|HoleType=Round|Shape=RoundedRectangle|*
%AMROUNDEDRECTD168*
21,1,0.0945,0.0079,0,0,0.0*
21,1,0.0866,0.0157,0,0,0.0*
1,1,0.0079,0.0433,-0.0039*
1,1,0.0079,-0.0433,-0.0039*
1,1,0.0079,-0.0433,0.0039*
1,1,0.0079,0.0433,0.0039*
%
%ADD168ROUNDEDRECTD168*%
%ADD169R,0.0320X0.0570*%
%ADD170R,0.2441X0.2441*%
%ADD171C,0.0098*%
%ADD172C,0.0048*%
%ADD173C,0.0043*%
%ADD174C,0.0042*%
%ADD175C,0.0043*%
%ADD176C,0.0033*%
%ADD177C,0.0033*%
%ADD178C,0.0048*%
%ADD179C,0.0032*%
%ADD180C,0.0138*%
%ADD181C,0.0600*%
%ADD182C,0.0750*%
%ADD183C,0.1000*%
%ADD184R,0.0591X0.0591*%
%ADD185C,0.0591*%
%ADD186C,0.1969*%
%ADD187C,0.0472*%
%ADD188C,0.0610*%
G04:AMPARAMS|DCode=189|XSize=70.9mil|YSize=39.4mil|CornerRadius=9.8mil|HoleSize=0mil|Usage=FLASHONLY|Rotation=90.000|XOffset=0mil|YOffset=0mil|HoleType=Round|Shape=RoundedRectangle|*
%AMROUNDEDRECTD189*
21,1,0.0709,0.0197,0,0,90.0*
21,1,0.0512,0.0394,0,0,90.0*
1,1,0.0197,0.0098,0.0256*
1,1,0.0197,0.0098,-0.0256*
1,1,0.0197,-0.0098,-0.0256*
1,1,0.0197,-0.0098,0.0256*
%
%ADD189ROUNDEDRECTD189*%
%ADD190O,0.0394X0.0827*%
%ADD191C,0.0256*%
%ADD192R,0.0562X0.0562*%
%ADD193C,0.0562*%
%ADD194C,0.1290*%
%ADD195C,0.0650*%
%ADD196O,0.1299X0.1575*%
%ADD197C,0.1181*%
%ADD198O,0.0650X0.0900*%
%ADD199R,0.0650X0.0900*%
%ADD200C,0.0157*%
%ADD201C,0.0315*%
%ADD202C,0.0236*%
G36*
X061063Y048819D02*
Y04751D01*
X061013Y04749D01*
X060241Y048261D01*
X060206Y048285D01*
X060163Y048293D01*
X058016D01*
Y048637D01*
X056788D01*
Y047729D01*
X058016D01*
Y048073D01*
X060118D01*
X061189Y047002D01*
Y039724D01*
X061142D01*
Y039409D01*
X061063D01*
Y039724D01*
X060748D01*
Y039657D01*
X060472D01*
X060438Y03965D01*
X060409Y039631D01*
X060258Y039481D01*
X060239Y039451D01*
X060232Y039417D01*
Y039247D01*
X060203D01*
Y038976D01*
X060048D01*
Y039247D01*
X060039D01*
Y039284D01*
X060031Y039326D01*
X060007Y039362D01*
X059949Y03942D01*
X059925Y039436D01*
X059902Y039469D01*
X059857Y0395D01*
X059818Y039508D01*
X059799Y039548D01*
X059798Y039559D01*
X06006Y039821D01*
X06006Y039821D01*
X060087Y03986D01*
X060096Y039906D01*
Y040182D01*
X060399D01*
Y040812D01*
X059552D01*
Y040182D01*
X059855D01*
Y039956D01*
X059523Y039624D01*
X059484Y039656D01*
X05951Y039696D01*
X059522Y039754D01*
X05951Y039812D01*
X059478Y039861D01*
X059428Y039894D01*
X05937Y039906D01*
X059312Y039894D01*
X059263Y039861D01*
X05923Y039812D01*
X059218Y039754D01*
X05923Y039696D01*
X059263Y039646D01*
X059264Y039646D01*
Y039247D01*
X059219D01*
Y038976D01*
X058867D01*
Y039247D01*
X058838D01*
Y039566D01*
X058877Y039606D01*
X058898Y039602D01*
X058956Y039614D01*
X059005Y039646D01*
X059038Y039696D01*
X05905Y039754D01*
X059038Y039812D01*
X059005Y039861D01*
X058956Y039894D01*
X058898Y039906D01*
X058839Y039894D01*
X05879Y039861D01*
X058757Y039812D01*
X058746Y039754D01*
X058748Y039744D01*
X058717Y039716D01*
X058671Y039735D01*
Y039849D01*
X058801Y039979D01*
X058801Y039979D01*
X058827Y040018D01*
X058836Y040064D01*
Y040182D01*
X059139D01*
Y040812D01*
X058292D01*
Y040182D01*
X058595D01*
Y040114D01*
X058466Y039984D01*
X058439Y039945D01*
X05843Y039899D01*
X05843Y039899D01*
Y039385D01*
X05838Y039364D01*
X058322Y039423D01*
X058286Y039446D01*
X058244Y039455D01*
X058051D01*
Y039463D01*
X057939D01*
X057913Y039473D01*
X057785D01*
Y039537D01*
X057495D01*
Y039616D01*
X057476Y039661D01*
X057368Y03977D01*
X057323Y039788D01*
X057047D01*
X057002Y03977D01*
X056963Y03973D01*
X056944Y039685D01*
Y039567D01*
X056963Y039522D01*
X057041Y039443D01*
X057087Y039424D01*
X057109D01*
X057143Y039374D01*
X057141Y03937D01*
Y038937D01*
X057156Y038902D01*
Y038809D01*
X057314D01*
X057455Y038668D01*
X057491Y038644D01*
X05753Y038636D01*
Y038618D01*
X057633D01*
X057661Y038613D01*
X057829D01*
Y038604D01*
X057913D01*
Y038448D01*
X057829D01*
Y038013D01*
Y03762D01*
Y037239D01*
X057594D01*
X057224Y037608D01*
X057224Y038583D01*
X056732Y039075D01*
Y048819D01*
X056929Y049016D01*
X060866D01*
X061063Y048819D01*
D02*
G37*
G36*
X043661Y04622D02*
Y045827D01*
X043386Y045551D01*
X042953D01*
X042913Y045591D01*
Y045787D01*
X043071Y045945D01*
Y04626D01*
X04311Y046299D01*
X043583D01*
X043661Y04622D01*
D02*
G37*
G36*
X039921Y046142D02*
Y045157D01*
X039724Y044961D01*
X039528D01*
X039409Y045079D01*
Y045512D01*
X039528Y04563D01*
Y046299D01*
X039567Y046339D01*
X039724D01*
X039921Y046142D01*
D02*
G37*
G36*
X03937Y045906D02*
Y045669D01*
X039213Y045512D01*
Y045079D01*
X039331Y044961D01*
Y044803D01*
X039291Y044764D01*
X039016D01*
X038661Y045118D01*
X038661Y045709D01*
X038898Y045945D01*
X039331D01*
X03937Y045906D01*
D02*
G37*
G36*
X031614Y042047D02*
Y041811D01*
X030354D01*
Y042047D01*
X030394Y042087D01*
X031575D01*
X031614Y042047D01*
D02*
G37*
G36*
X031378Y040551D02*
Y040335D01*
X031421Y040291D01*
Y040262D01*
X031451D01*
X03154Y040173D01*
X03154Y03999D01*
X031451Y039902D01*
X03124D01*
X031181Y039961D01*
Y040157D01*
X031142Y040197D01*
X030315D01*
X030276Y040236D01*
Y040551D01*
X030433Y040709D01*
X03122D01*
X031378Y040551D01*
D02*
G37*
G36*
X057431Y039616D02*
Y039518D01*
X057402Y039488D01*
X057087D01*
X057008Y039567D01*
Y039685D01*
X057047Y039724D01*
X057323D01*
X057431Y039616D01*
D02*
G37*
G36*
X031102Y039803D02*
Y039449D01*
X030984Y039331D01*
X030787Y039331D01*
X030748Y03937D01*
Y039724D01*
X030866Y039843D01*
X031063D01*
X031102Y039803D01*
D02*
G37*
G36*
X057992Y039331D02*
Y039134D01*
X057756Y038898D01*
X057244D01*
X057205Y038937D01*
Y03937D01*
X057244Y039409D01*
X057913D01*
X057992Y039331D01*
D02*
G37*
G36*
X06185Y046654D02*
X063622D01*
X064016Y04626D01*
Y037939D01*
X063971Y037922D01*
X063966Y037922D01*
X063906Y038D01*
X063826Y038062D01*
X063732Y038101D01*
X063632Y038114D01*
X063532Y038101D01*
X063438Y038062D01*
X063358Y038D01*
X063296Y03792D01*
X063258Y037827D01*
X063256Y037817D01*
X063071D01*
X063029Y037809D01*
X062993Y037785D01*
X06275Y037541D01*
X062106D01*
Y037589D01*
X061791D01*
Y037274D01*
X062106D01*
Y037321D01*
X062795D01*
X062838Y037329D01*
X062873Y037353D01*
X063117Y037596D01*
X06327D01*
X063296Y037533D01*
X063358Y037452D01*
X063438Y037391D01*
X063532Y037352D01*
X063632Y037339D01*
X063732Y037352D01*
X063826Y037391D01*
X063906Y037452D01*
X063966Y037531D01*
X063971Y037531D01*
X064016Y037514D01*
Y036797D01*
X063971Y03678D01*
X063966Y03678D01*
X063906Y036859D01*
X063826Y03692D01*
X063732Y036959D01*
X063632Y036972D01*
X063532Y036959D01*
X063438Y03692D01*
X063358Y036859D01*
X063296Y036778D01*
X063278Y036734D01*
X063087D01*
X062883Y036938D01*
X062847Y036962D01*
X062805Y036971D01*
X062106D01*
Y037018D01*
X061791D01*
Y036703D01*
X062106D01*
Y03675D01*
X062759D01*
X062963Y036546D01*
X062999Y036522D01*
X063041Y036514D01*
X063254D01*
X063258Y036484D01*
X063296Y036391D01*
X063358Y036311D01*
X063438Y036249D01*
X063532Y03621D01*
X063632Y036197D01*
X063732Y03621D01*
X063826Y036249D01*
X063906Y036311D01*
X063966Y036389D01*
X063971Y036389D01*
X064016Y036372D01*
Y03622D01*
X063819Y036024D01*
X063032D01*
X062441Y036614D01*
X061425D01*
X061378Y036661D01*
X061407Y036703D01*
X061713D01*
Y037018D01*
X061398D01*
Y037018D01*
X061369Y037006D01*
X061345Y037029D01*
X061309Y037053D01*
X061267Y037062D01*
X061248D01*
X061216Y037112D01*
X061223Y037146D01*
X061215Y037185D01*
X061244Y037235D01*
X061262D01*
X061305Y037243D01*
X06134Y037267D01*
X061348Y037274D01*
X061398Y037274D01*
Y037274D01*
X061713D01*
Y037589D01*
X061398D01*
Y037541D01*
X061348D01*
X061306Y037533D01*
X06127Y037509D01*
X061268Y037506D01*
X061222Y037531D01*
X061223Y037539D01*
X061212Y037593D01*
X061209Y037598D01*
X061236Y037648D01*
X061321D01*
X061356Y037655D01*
X061385Y037675D01*
X061573Y037862D01*
X061653D01*
X061664Y037845D01*
X061714Y037812D01*
X061772Y037801D01*
X06183Y037812D01*
X061879Y037845D01*
X061912Y037895D01*
X061924Y037953D01*
X061912Y038011D01*
X061879Y03806D01*
X06183Y038093D01*
X061772Y038105D01*
X061714Y038093D01*
X061664Y03806D01*
X061653Y038043D01*
X061539D01*
X061527Y038053D01*
X061503Y038088D01*
X061508Y03811D01*
Y038348D01*
X061607Y038447D01*
X061659Y038444D01*
X061664Y038436D01*
X061714Y038403D01*
X061772Y038391D01*
X06183Y038403D01*
X061879Y038436D01*
X061912Y038485D01*
X061924Y038543D01*
X061912Y038601D01*
X061879Y038651D01*
X06183Y038684D01*
X061772Y038695D01*
X061714Y038684D01*
X061664Y038651D01*
X061653Y038634D01*
X061575D01*
X061575Y038634D01*
X06154Y038627D01*
X061511Y038607D01*
X061353Y03845D01*
X061334Y03842D01*
X061327Y038386D01*
Y038148D01*
X061205Y038026D01*
X061063D01*
Y038633D01*
X061164D01*
X061199Y03864D01*
X061228Y038659D01*
X061324Y038755D01*
X061343Y038784D01*
X06135Y038819D01*
Y039173D01*
X061404D01*
Y039409D01*
X061457D01*
Y039724D01*
X06141D01*
Y047024D01*
X06146Y047044D01*
X06185Y046654D01*
D02*
G37*
G36*
X030748Y041457D02*
X031063D01*
X031102Y041417D01*
X031102Y04122D01*
X031063Y041181D01*
X029803D01*
X029724Y041102D01*
Y040079D01*
X029803Y04D01*
X030276D01*
X030433Y039843D01*
X030433Y039724D01*
X030276Y039567D01*
X029843D01*
X029724Y039449D01*
Y038189D01*
X029675Y03814D01*
X029498D01*
X029449Y038189D01*
Y041378D01*
X029646Y041575D01*
X03063D01*
X030748Y041457D01*
D02*
G37*
G36*
X044301Y039478D02*
Y038196D01*
X044534Y037963D01*
Y037441D01*
X044426Y037333D01*
X04417Y037333D01*
X04356Y037943D01*
Y038425D01*
X043402Y038583D01*
X043218D01*
X04312Y038681D01*
Y039498D01*
X043346Y039724D01*
X044055Y039724D01*
X044301Y039478D01*
D02*
G37*
G36*
X043002Y039163D02*
Y038179D01*
X043218Y037963D01*
Y037441D01*
X04311Y037333D01*
X042854Y037333D01*
X042244Y037943D01*
Y038425D01*
X042087Y038583D01*
X04185D01*
X041102Y038583D01*
X040197Y037677D01*
Y030063D01*
X038008Y027874D01*
X037638Y02748D01*
X037638Y022677D01*
X036969Y022008D01*
Y020512D01*
X036811Y020354D01*
X036299D01*
X036142Y020512D01*
Y027559D01*
X036339Y027756D01*
X037323Y02874D01*
X039094Y030512D01*
X039094Y037953D01*
X040394Y039252D01*
X042913D01*
X043002Y039163D01*
D02*
G37*
G36*
X037598Y037323D02*
Y03689D01*
X037559Y03685D01*
X037244D01*
X037205Y03689D01*
X037205Y037323D01*
X037244Y037362D01*
X037559D01*
X037598Y037323D01*
D02*
G37*
G36*
X037008D02*
Y03689D01*
X036969Y03685D01*
X036654D01*
X036614Y03689D01*
X036614Y037323D01*
X036654Y037362D01*
X036969D01*
X037008Y037323D01*
D02*
G37*
G36*
X030679Y038406D02*
X03063Y038356D01*
Y036447D01*
X030551Y036368D01*
X030423D01*
X030344Y036447D01*
X030344Y03749D01*
X030187Y037648D01*
X029665D01*
Y037844D01*
X030285D01*
X030443Y038002D01*
Y038612D01*
X030679D01*
Y038406D01*
D02*
G37*
G36*
X030246Y037372D02*
Y03625D01*
X030197Y036201D01*
X02998D01*
X029951Y03623D01*
Y037372D01*
X02998Y037402D01*
X030217D01*
X030246Y037372D01*
D02*
G37*
G36*
X057175Y036388D02*
Y036152D01*
X057087Y036063D01*
X05685D01*
X056811Y036102D01*
Y036378D01*
X05685Y036417D01*
X057146D01*
X057175Y036388D01*
D02*
G37*
G36*
X057785Y036348D02*
Y036161D01*
X057648Y036024D01*
X057292D01*
X057254Y036061D01*
X057254Y03623D01*
X057283Y03626D01*
X05752D01*
X057559Y036299D01*
Y036398D01*
X057579Y036417D01*
X057717D01*
X057785Y036348D01*
D02*
G37*
G36*
X054764Y031102D02*
Y030748D01*
X054724Y030709D01*
X054252D01*
X054134Y030827D01*
Y031063D01*
X054272Y031201D01*
X054665D01*
X054764Y031102D01*
D02*
G37*
G36*
X03815Y031358D02*
Y030846D01*
X037992Y030689D01*
X036378D01*
X036024Y031043D01*
X035354D01*
X035236Y031161D01*
Y031437D01*
X035335Y031535D01*
X037972D01*
X03815Y031358D01*
D02*
G37*
G36*
X037953Y030354D02*
Y03D01*
X037874Y029921D01*
X03689D01*
Y029449D01*
X03685Y029409D01*
X036654D01*
X036614Y029449D01*
Y029921D01*
X036102D01*
X035984Y029803D01*
Y029409D01*
X035906Y029331D01*
X035787D01*
X035748Y02937D01*
Y030276D01*
X035906Y030433D01*
X037874D01*
X037953Y030354D01*
D02*
G37*
G36*
X038858Y04063D02*
Y032953D01*
X037726Y031821D01*
X035167D01*
X034606Y03126D01*
Y030276D01*
X035433D01*
X035472Y030236D01*
Y029961D01*
X035433Y029921D01*
X035079D01*
X034921Y029764D01*
Y028543D01*
X035079Y028386D01*
X035787D01*
X035827Y028346D01*
Y028189D01*
X035748Y02811D01*
X033268D01*
X03252Y027362D01*
Y025197D01*
Y02378D01*
X032165Y023425D01*
X032165Y022323D01*
X032028Y022185D01*
X03187D01*
X031791Y022264D01*
X031791Y025177D01*
X031791Y025177D01*
X031791Y027815D01*
X032362Y028386D01*
X032362D01*
X033858Y029882D01*
Y031693D01*
X034646Y03248D01*
X037638D01*
X038278Y03312D01*
Y040423D01*
X037559Y041142D01*
X037323D01*
X037283Y041181D01*
Y041378D01*
X037323Y041417D01*
X038071D01*
X038858Y04063D01*
D02*
G37*
G36*
X029488Y028976D02*
Y027913D01*
X029449Y027874D01*
X028268D01*
X028189Y027953D01*
Y028976D01*
X028307Y029094D01*
X02937D01*
X029488Y028976D01*
D02*
G37*
G36*
X05636Y027931D02*
X056911D01*
X05699Y02801D01*
X057102D01*
X057117Y02796D01*
X056951Y027793D01*
X05573D01*
Y028069D01*
X056222D01*
X05636Y027931D01*
D02*
G37*
G36*
X05697Y027409D02*
X05697Y027232D01*
X056911Y027173D01*
X056783Y027173D01*
X056646Y027311D01*
X056459D01*
X056429Y027341D01*
Y027508D01*
X056449Y027528D01*
X056852D01*
X05697Y027409D01*
D02*
G37*
G36*
X05626Y027402D02*
Y027205D01*
X056339Y027126D01*
X056693D01*
X056772Y027047D01*
Y026811D01*
X056693Y026732D01*
X055945D01*
X055472Y027205D01*
Y027402D01*
X055512Y027441D01*
X05622D01*
X05626Y027402D01*
D02*
G37*
G36*
X058831Y027242D02*
Y027065D01*
X05885Y027045D01*
X059274D01*
X059283Y027035D01*
Y026839D01*
X059175Y02673D01*
X05885D01*
X058683Y026898D01*
Y027242D01*
X058693Y027252D01*
X058821D01*
X058831Y027242D01*
D02*
G37*
G36*
X02874Y02622D02*
Y025039D01*
X029488Y024291D01*
Y023858D01*
X029449Y023819D01*
X028307D01*
X028228Y023898D01*
Y02622D01*
X028307Y026299D01*
X028661D01*
X02874Y02622D01*
D02*
G37*
G36*
X030955Y022628D02*
X031157D01*
X031181Y022604D01*
X031181Y022562D01*
X031179Y022554D01*
Y022328D01*
X031181Y02232D01*
X031181Y022241D01*
X031164Y022224D01*
X031142D01*
Y022205D01*
X031142Y022204D01*
X031142Y022203D01*
X031141Y022202D01*
X031141Y022201D01*
X031141Y0222D01*
X031141Y022199D01*
X03114Y022198D01*
X03114Y022197D01*
X03114Y022196D01*
X031139Y022195D01*
X031139Y022194D01*
X031138Y022193D01*
X031137Y022192D01*
X031137Y022192D01*
X031136Y022191D01*
X031135Y02219D01*
X031134Y022189D01*
X031134Y022189D01*
X031133Y022188D01*
X031132Y022188D01*
X031131Y022187D01*
X03113Y022187D01*
X031129Y022186D01*
X031128Y022186D01*
X031127Y022186D01*
X031126Y022185D01*
X031125Y022185D01*
X031124Y022185D01*
X031123Y022185D01*
X031122Y022185D01*
X030886D01*
X030885Y022185D01*
X030884Y022185D01*
X030883Y022185D01*
X030882Y022185D01*
X030881Y022186D01*
X03088Y022186D01*
X030879Y022186D01*
X030878Y022187D01*
X030877Y022187D01*
X030876Y022188D01*
X030875Y022188D01*
X030874Y022189D01*
X030873Y022189D01*
X030873Y02219D01*
X030872Y022191D01*
X030871Y022192D01*
X030871Y022192D01*
X03087Y022193D01*
X030869Y022194D01*
X030869Y022195D01*
X030868Y022196D01*
X030868Y022197D01*
X030867Y022198D01*
X030867Y022199D01*
X030867Y0222D01*
X030867Y022201D01*
X030866Y022202D01*
X030866Y022203D01*
X030866Y022204D01*
X030866Y022205D01*
Y022224D01*
X030768D01*
X030709Y022283D01*
Y022638D01*
X030758Y022687D01*
X030896D01*
X030955Y022628D01*
D02*
G37*
G36*
X042953Y021772D02*
X043504D01*
X043583Y02185D01*
X043695D01*
X04371Y0218D01*
X043543Y021634D01*
X042323D01*
Y021909D01*
X042815D01*
X042953Y021772D01*
D02*
G37*
G36*
X028858Y022047D02*
Y021417D01*
X02874Y021299D01*
X028228D01*
X02811Y021417D01*
Y022126D01*
X028228Y022244D01*
X028661D01*
X028858Y022047D01*
D02*
G37*
G36*
X031123Y021437D02*
X031124Y021437D01*
X031125Y021437D01*
X031126Y021437D01*
X031127Y021436D01*
X031128Y021436D01*
X031129Y021436D01*
X03113Y021435D01*
X031131Y021435D01*
X031132Y021434D01*
X031133Y021434D01*
X031134Y021433D01*
X031134Y021433D01*
X031135Y021432D01*
X031136Y021431D01*
X031137Y02143D01*
X031137Y02143D01*
X031138Y021429D01*
X031139Y021428D01*
X031139Y021427D01*
X03114Y021426D01*
X03114Y021425D01*
X03114Y021424D01*
X031141Y021423D01*
X031141Y021422D01*
X031141Y021421D01*
X031141Y02142D01*
X031142Y021419D01*
X031142Y021418D01*
X031142Y021417D01*
Y021063D01*
X031142Y021062D01*
X031142Y021061D01*
X031141Y02106D01*
X031141Y021059D01*
X031141Y021058D01*
X031141Y021057D01*
X03114Y021056D01*
X03114Y021055D01*
X03114Y021054D01*
X031139Y021053D01*
X031139Y021052D01*
X031138Y021051D01*
X031137Y021051D01*
X031137Y02105D01*
X031136Y021049D01*
X031135Y021048D01*
X031134Y021048D01*
X031134Y021047D01*
X031133Y021046D01*
X031132Y021046D01*
X031131Y021045D01*
X03113Y021045D01*
X031129Y021045D01*
X031128Y021044D01*
X031127Y021044D01*
X031126Y021044D01*
X031125Y021044D01*
X031124Y021043D01*
X031123Y021043D01*
X031122Y021043D01*
X031024D01*
X031023Y021043D01*
X031022Y021043D01*
X031021Y021044D01*
X03102Y021044D01*
X031019Y021044D01*
X031018Y021044D01*
X031017Y021045D01*
X031016Y021045D01*
X031015Y021045D01*
X031014Y021046D01*
X031013Y021046D01*
X031012Y021047D01*
X031011Y021048D01*
X03101Y021048D01*
X03101Y021049D01*
X031009Y02105D01*
X031008Y021051D01*
X031008Y021051D01*
X031007Y021052D01*
X031007Y021053D01*
X031006Y021054D01*
X031006Y021055D01*
X031005Y021056D01*
X031005Y021057D01*
X031005Y021058D01*
X031004Y021059D01*
X031004Y02106D01*
X031004Y021061D01*
X031004Y021062D01*
X031004Y021063D01*
Y02124D01*
X031004Y021242D01*
X031004Y021244D01*
X031003Y021246D01*
X031003Y021248D01*
X031003Y02125D01*
X031002Y021252D01*
X031001Y021254D01*
X031001Y021256D01*
X031Y021258D01*
X030999Y02126D01*
X030998Y021262D01*
X030996Y021263D01*
X030995Y021265D01*
X030994Y021267D01*
X030992Y021268D01*
X030991Y021269D01*
X030989Y021271D01*
X030988Y021272D01*
X030986Y021273D01*
X030984Y021274D01*
X030982Y021275D01*
X030981Y021276D01*
X030979Y021277D01*
X030977Y021278D01*
X030975Y021278D01*
X030973Y021279D01*
X030971Y021279D01*
X030969Y021279D01*
X030967Y021279D01*
X030965Y02128D01*
X030886D01*
X030885Y02128D01*
X030884Y02128D01*
X030883Y02128D01*
X030882Y02128D01*
X030881Y02128D01*
X03088Y02128D01*
X030879Y021281D01*
X030878Y021281D01*
X030877Y021282D01*
X030876Y021282D01*
X030875Y021283D01*
X030874Y021283D01*
X030873Y021284D01*
X030873Y021285D01*
X030872Y021285D01*
X030871Y021286D01*
X030871Y021287D01*
X03087Y021288D01*
X030869Y021288D01*
X030869Y021289D01*
X030868Y02129D01*
X030868Y021291D01*
X030867Y021292D01*
X030867Y021293D01*
X030867Y021294D01*
X030867Y021295D01*
X030866Y021296D01*
X030866Y021297D01*
X030866Y021298D01*
X030866Y021299D01*
Y021417D01*
X030866Y021418D01*
X030866Y021419D01*
X030866Y02142D01*
X030867Y021421D01*
X030867Y021422D01*
X030867Y021423D01*
X030867Y021424D01*
X030868Y021425D01*
X030868Y021426D01*
X030869Y021427D01*
X030869Y021428D01*
X03087Y021429D01*
X030871Y02143D01*
X030871Y02143D01*
X030872Y021431D01*
X030873Y021432D01*
X030873Y021433D01*
X030874Y021433D01*
X030875Y021434D01*
X030876Y021434D01*
X030877Y021435D01*
X030878Y021435D01*
X030879Y021436D01*
X03088Y021436D01*
X030881Y021436D01*
X030882Y021437D01*
X030883Y021437D01*
X030884Y021437D01*
X030885Y021437D01*
X030886Y021437D01*
X031122D01*
X031123Y021437D01*
D02*
G37*
G36*
X043563Y02125D02*
X043563Y021073D01*
X043504Y021014D01*
X043376Y021014D01*
X043238Y021152D01*
X043051D01*
X043022Y021181D01*
Y021348D01*
X043041Y021368D01*
X043445D01*
X043563Y02125D01*
D02*
G37*
G36*
X038386Y021181D02*
X038858D01*
X038898Y021142D01*
Y020984D01*
X038858Y020945D01*
X037441D01*
X037283Y021102D01*
Y021535D01*
X03752Y021772D01*
X037795Y021772D01*
X038386Y021181D01*
D02*
G37*
G36*
X056339Y021555D02*
Y020768D01*
X05624Y020669D01*
X054567D01*
X054468Y020768D01*
X054468Y021555D01*
X054665Y021752D01*
X056142D01*
X056339Y021555D01*
D02*
G37*
G36*
X042872Y021242D02*
Y021045D01*
X042951Y020967D01*
X043305D01*
X043384Y020888D01*
Y020652D01*
X043305Y020573D01*
X042557D01*
X042085Y021045D01*
Y021242D01*
X042124Y021281D01*
X042833D01*
X042872Y021242D01*
D02*
G37*
G36*
X045423Y021083D02*
Y020906D01*
X045443Y020886D01*
X045866D01*
X045876Y020876D01*
Y020679D01*
X045768Y020571D01*
X045443D01*
X045276Y020738D01*
Y021083D01*
X045285Y021093D01*
X045413D01*
X045423Y021083D01*
D02*
G37*
G36*
X034764Y023189D02*
Y020512D01*
X034685Y020433D01*
X034016D01*
X032835Y021614D01*
X031772D01*
X031614Y021772D01*
Y02185D01*
X031772Y022008D01*
X032835D01*
X033976Y02315D01*
X034094Y023268D01*
X034685D01*
X034764Y023189D01*
D02*
G37*
G36*
X035866Y027756D02*
X035984Y027638D01*
Y027087D01*
X035866Y026969D01*
Y019921D01*
X034764Y018819D01*
X032835D01*
X032717Y018937D01*
X032717Y02D01*
X032283Y020433D01*
Y021063D01*
Y021402D01*
Y021417D01*
X032283Y021418D01*
X032284Y021419D01*
X032284Y02142D01*
X032284Y021421D01*
X032284Y021422D01*
X032284Y021423D01*
X032285Y021424D01*
X032285Y021425D01*
X032286Y021426D01*
X032286Y021427D01*
X032287Y021428D01*
X032287Y021429D01*
X032288Y02143D01*
X032289Y02143D01*
X032289Y021431D01*
X03229Y021432D01*
X032291Y021433D01*
X032292Y021433D01*
X032292Y021434D01*
X032293Y021434D01*
X032294Y021435D01*
X032295Y021435D01*
X032296Y021436D01*
X032297Y021436D01*
X032298Y021436D01*
X032299Y021437D01*
X0323Y021437D01*
X032301Y021437D01*
X032302Y021437D01*
X032303Y021437D01*
X032319D01*
X032319Y021437D01*
X032433Y021437D01*
X032579D01*
X032579Y021437D01*
X03266Y021437D01*
X032953Y021144D01*
Y020393D01*
X033267Y020079D01*
X034882D01*
X035118Y020315D01*
Y023346D01*
X034921Y023543D01*
X03374D01*
X032953Y022756D01*
X032953Y022475D01*
X032663Y022185D01*
X032303D01*
X032302Y022185D01*
X032301Y022185D01*
X0323Y022185D01*
X032299Y022185D01*
X032298Y022186D01*
X032297Y022186D01*
X032296Y022186D01*
X032295Y022187D01*
X032294Y022187D01*
X032293Y022188D01*
X032292Y022188D01*
X032292Y022189D01*
X032291Y022189D01*
X03229Y02219D01*
X032289Y022191D01*
X032289Y022192D01*
X032288Y022192D01*
X032287Y022193D01*
X032287Y022194D01*
X032286Y022195D01*
X032286Y022196D01*
X032285Y022197D01*
X032285Y022198D01*
X032284Y022199D01*
X032284Y0222D01*
X032284Y022201D01*
X032284Y022202D01*
X032284Y022203D01*
X032283Y022204D01*
X032283Y022205D01*
Y022236D01*
Y022559D01*
Y023189D01*
X032913Y023819D01*
X032913Y024567D01*
X03311Y024764D01*
X034528D01*
X034764Y025D01*
Y027402D01*
X035118Y027756D01*
X035866Y027756D01*
D02*
G37*
G36*
X038819Y020118D02*
Y019488D01*
X03874Y019409D01*
X037874D01*
X037795Y019488D01*
Y020118D01*
X037874Y020197D01*
X03874D01*
X038819Y020118D01*
D02*
G37*
G36*
X039744Y020738D02*
Y018878D01*
X039528Y018661D01*
X039291D01*
X039213Y01874D01*
Y020669D01*
X03937Y020827D01*
X039656D01*
X039744Y020738D01*
D02*
G37*
G36*
X064112Y019785D02*
Y018305D01*
X06372Y017913D01*
X062129D01*
X062121Y017963D01*
X06218Y017981D01*
X062303Y018047D01*
X062411Y018135D01*
X062499Y018243D01*
X062565Y018366D01*
X062606Y0185D01*
X062619Y018639D01*
X062606Y018778D01*
X062565Y018911D01*
X062499Y019035D01*
X062411Y019143D01*
X062303Y019231D01*
X06218Y019297D01*
X062046Y019337D01*
X061907Y019351D01*
X061768Y019337D01*
X061635Y019297D01*
X061512Y019231D01*
X061404Y019143D01*
X061315Y019035D01*
X061249Y018911D01*
X061209Y018778D01*
X061195Y018639D01*
X061209Y0185D01*
X061249Y018366D01*
X061315Y018243D01*
X061404Y018135D01*
X061512Y018047D01*
X061635Y017981D01*
X061693Y017963D01*
X061686Y017913D01*
X058329D01*
X058321Y017963D01*
X05838Y017981D01*
X058503Y018047D01*
X058611Y018135D01*
X058699Y018243D01*
X058765Y018366D01*
X058806Y0185D01*
X058819Y018639D01*
X058806Y018778D01*
X058765Y018911D01*
X058699Y019035D01*
X058611Y019143D01*
X058503Y019231D01*
X05838Y019297D01*
X058246Y019337D01*
X058107Y019351D01*
X057968Y019337D01*
X057835Y019297D01*
X057712Y019231D01*
X057604Y019143D01*
X057515Y019035D01*
X057449Y018911D01*
X057409Y018778D01*
X057395Y018639D01*
X057409Y0185D01*
X057449Y018366D01*
X057515Y018243D01*
X057604Y018135D01*
X057712Y018047D01*
X057835Y017981D01*
X057893Y017963D01*
X057886Y017913D01*
X052909D01*
X052902Y017963D01*
X05296Y017981D01*
X053083Y018047D01*
X053191Y018135D01*
X053279Y018243D01*
X053345Y018366D01*
X053386Y0185D01*
X053399Y018639D01*
X053386Y018778D01*
X053345Y018911D01*
X053279Y019035D01*
X053191Y019143D01*
X053083Y019231D01*
X05296Y019297D01*
X052826Y019337D01*
X052687Y019351D01*
X052548Y019337D01*
X052415Y019297D01*
X052292Y019231D01*
X052184Y019143D01*
X052095Y019035D01*
X05203Y018911D01*
X051989Y018778D01*
X051975Y018639D01*
X051989Y0185D01*
X05203Y018366D01*
X052095Y018243D01*
X052184Y018135D01*
X052292Y018047D01*
X052415Y017981D01*
X052473Y017963D01*
X052466Y017913D01*
X049109D01*
X049102Y017963D01*
X04916Y017981D01*
X049283Y018047D01*
X049391Y018135D01*
X049479Y018243D01*
X049545Y018366D01*
X049586Y0185D01*
X049599Y018639D01*
X049586Y018778D01*
X049545Y018911D01*
X049479Y019035D01*
X049391Y019143D01*
X049283Y019231D01*
X04916Y019297D01*
X049026Y019337D01*
X048887Y019351D01*
X048748Y019337D01*
X048615Y019297D01*
X048492Y019231D01*
X048384Y019143D01*
X048295Y019035D01*
X04823Y018911D01*
X048189Y018778D01*
X048175Y018639D01*
X048189Y0185D01*
X04823Y018366D01*
X048295Y018243D01*
X048384Y018135D01*
X048492Y018047D01*
X048615Y017981D01*
X048673Y017963D01*
X048666Y017913D01*
X047579D01*
X047283Y017618D01*
X044823D01*
X044724Y017717D01*
Y01811D01*
X044823Y018209D01*
X046496D01*
X046791Y018504D01*
Y019094D01*
X047323Y019626D01*
X047776Y020079D01*
X063819Y020079D01*
X064112Y019785D01*
D02*
G37*
G36*
X032047Y021417D02*
Y020276D01*
X032441Y019882D01*
Y018701D01*
X036654D01*
X037323Y01937D01*
Y020551D01*
X037598Y020827D01*
X038858D01*
X038898Y020787D01*
Y020591D01*
X03878Y020472D01*
X037756D01*
X037598Y020315D01*
X037598Y019213D01*
X036811Y018425D01*
X032441D01*
Y018425D01*
X031929Y017913D01*
Y016614D01*
X031693D01*
Y021378D01*
X031772Y021457D01*
X032008D01*
X032047Y021417D01*
D02*
G37*
G36*
X031614Y019016D02*
Y016614D01*
X031378D01*
X030394Y017598D01*
X030394Y01878D01*
X030864Y01925D01*
X031378Y019252D01*
X031614Y019016D01*
D02*
G37*
G36*
X046693Y016929D02*
Y016142D01*
X046594Y016043D01*
X044823D01*
X044724Y016142D01*
Y016929D01*
X044823Y017028D01*
X046594D01*
X046693Y016929D01*
D02*
G37*
%LPC*%
G36*
X058867Y047266D02*
X058858Y047264D01*
X05885Y047266D01*
X058706Y047247D01*
X058699Y047243D01*
X05869D01*
X058556Y047187D01*
X05855Y047181D01*
X058542Y047179D01*
X058427Y047091D01*
X058423Y047083D01*
X058415Y047079D01*
X058327Y046964D01*
X058325Y046956D01*
X058319Y04695D01*
X058263Y046816D01*
Y046807D01*
X058259Y0468D01*
X05824Y046656D01*
X058242Y046648D01*
X05824Y046639D01*
X058259Y046496D01*
X058263Y046488D01*
Y04648D01*
X058319Y046346D01*
X058325Y04634D01*
X058327Y046331D01*
X058415Y046216D01*
X058423Y046212D01*
X058427Y046205D01*
X058542Y046116D01*
X05855Y046114D01*
X058556Y046108D01*
X05869Y046053D01*
X058699D01*
X058706Y046048D01*
X05885Y046029D01*
X058858Y046032D01*
X058867Y046029D01*
X05901Y046048D01*
X059018Y046053D01*
X059026D01*
X05916Y046108D01*
X059166Y046114D01*
X059175Y046116D01*
X059289Y046205D01*
X059294Y046212D01*
X059301Y046216D01*
X059389Y046331D01*
X059392Y04634D01*
X059398Y046346D01*
X059453Y04648D01*
Y046488D01*
X059458Y046496D01*
X059476Y046639D01*
X059474Y046648D01*
X059476Y046656D01*
X059458Y0468D01*
X059453Y046807D01*
Y046816D01*
X059398Y04695D01*
X059392Y046956D01*
X059389Y046964D01*
X059301Y047079D01*
X059294Y047083D01*
X059289Y047091D01*
X059175Y047179D01*
X059166Y047181D01*
X05916Y047187D01*
X059026Y047243D01*
X059018D01*
X05901Y047247D01*
X058867Y047266D01*
D02*
G37*
G36*
Y04451D02*
X058858Y044508D01*
X05885Y04451D01*
X058706Y044491D01*
X058699Y044487D01*
X05869D01*
X058556Y044431D01*
X05855Y044425D01*
X058542Y044423D01*
X058427Y044335D01*
X058423Y044327D01*
X058415Y044323D01*
X058327Y044208D01*
X058325Y0442D01*
X058319Y044194D01*
X058263Y04406D01*
Y044051D01*
X058259Y044044D01*
X05824Y0439D01*
X058242Y043892D01*
X05824Y043883D01*
X058259Y04374D01*
X058263Y043732D01*
Y043724D01*
X058319Y04359D01*
X058325Y043584D01*
X058327Y043575D01*
X058415Y043461D01*
X058423Y043456D01*
X058427Y043449D01*
X058542Y043361D01*
X05855Y043358D01*
X058556Y043352D01*
X05869Y043297D01*
X058699D01*
X058706Y043292D01*
X05885Y043274D01*
X058858Y043276D01*
X058867Y043274D01*
X05901Y043292D01*
X059018Y043297D01*
X059026D01*
X05916Y043352D01*
X059166Y043358D01*
X059175Y043361D01*
X059289Y043449D01*
X059294Y043456D01*
X059301Y043461D01*
X059389Y043575D01*
X059392Y043584D01*
X059398Y04359D01*
X059453Y043724D01*
Y043732D01*
X059458Y04374D01*
X059476Y043883D01*
X059474Y043892D01*
X059476Y0439D01*
X059458Y044044D01*
X059453Y044051D01*
Y04406D01*
X059398Y044194D01*
X059392Y0442D01*
X059389Y044208D01*
X059301Y044323D01*
X059294Y044327D01*
X059289Y044335D01*
X059175Y044423D01*
X059166Y044425D01*
X05916Y044431D01*
X059026Y044487D01*
X059018D01*
X05901Y044491D01*
X058867Y04451D01*
D02*
G37*
G36*
X060929Y046827D02*
X059701D01*
Y045839D01*
X060195D01*
Y043829D01*
X059022Y042657D01*
X058976Y042682D01*
X058979Y042697D01*
X058968Y042751D01*
X058938Y042796D01*
X058892Y042827D01*
X058839Y042837D01*
X058785Y042827D01*
X058771Y042817D01*
X058134D01*
X058016Y042936D01*
Y043994D01*
X056788D01*
Y042766D01*
X057845D01*
X057999Y042612D01*
X058039Y042586D01*
X058085Y042576D01*
X058085Y042576D01*
X058771D01*
X058785Y042567D01*
X058839Y042556D01*
X058854Y042559D01*
X058878Y042513D01*
X05863Y042265D01*
X058604Y042226D01*
X058595Y04218D01*
X058595Y04218D01*
Y041954D01*
X058292D01*
Y041324D01*
X059139D01*
Y041954D01*
X058836D01*
Y04213D01*
X059268Y042562D01*
X059309Y042534D01*
X059298Y04248D01*
X059309Y042427D01*
X05934Y042381D01*
X059385Y042351D01*
X059439Y04234D01*
X059493Y042351D01*
X059496Y042352D01*
X059574D01*
X059855Y042071D01*
Y041954D01*
X059552D01*
Y041324D01*
X060399D01*
Y041954D01*
X060096D01*
Y042121D01*
X060096Y042121D01*
X060087Y042167D01*
X06006Y042206D01*
X06006Y042206D01*
X059709Y042558D01*
X05967Y042584D01*
X059624Y042593D01*
X059624Y042593D01*
X059518D01*
X059493Y04261D01*
X059439Y042621D01*
X059385Y04261D01*
X059357Y042652D01*
X0604Y043694D01*
X0604Y043694D01*
X060426Y043733D01*
X060435Y04378D01*
X060435Y04378D01*
Y045839D01*
X060929D01*
Y046827D01*
D02*
G37*
G36*
X034606Y028543D02*
X034449Y028386D01*
X033927D01*
X034449Y028386D01*
X034606Y028543D01*
D02*
G37*
%LPD*%
D11*
X044921Y044291D02*
X044921Y044291D01*
Y044764D01*
X044459Y04469D02*
X044528Y044759D01*
Y044764D01*
X04374Y04469D02*
X044459D01*
X055856Y033022D02*
X057205D01*
X055846Y033012D02*
X055856Y033022D01*
X057205D02*
X057726Y0325D01*
X05937D01*
X059675Y032805D01*
Y033091D01*
X059498Y033494D02*
X059711D01*
X060069Y033091D02*
X060111Y033133D01*
Y033494D01*
X039331Y02189D02*
X039528Y022087D01*
X038898Y02189D02*
X039331D01*
X039528Y022087D02*
Y023661D01*
X037382Y029114D02*
X038071Y029803D01*
X036732Y029114D02*
X037382D01*
X038071Y029803D02*
Y03063D01*
X0456Y027847D02*
X045632Y027815D01*
X045381Y027847D02*
X0456D01*
X045157Y028071D02*
X045157D01*
X045381Y027847D01*
X052211Y027815D02*
X052795Y0284D01*
Y029213D01*
X053147Y029215D02*
X053583D01*
X052953Y029409D02*
X053147Y029215D01*
X052638Y029409D02*
X052953D01*
X052469Y029578D02*
X052638Y029409D01*
X052469Y029578D02*
Y029578D01*
X052205Y029843D02*
X052469Y029578D01*
X055039Y032165D02*
X055039Y032165D01*
X055039Y031614D02*
Y032165D01*
Y03122D02*
X055039Y03122D01*
Y030846D02*
Y03122D01*
Y030846D02*
X055581D01*
Y031831D01*
X051811Y033287D02*
Y033917D01*
X050984Y032461D02*
X051811Y033287D01*
Y033917D02*
X052224Y034331D01*
X059439Y034872D02*
Y035325D01*
X059252Y034685D02*
X059439Y034872D01*
X058957Y034685D02*
X059252D01*
X058748Y034477D02*
X058957Y034685D01*
X058573Y034301D02*
Y034321D01*
X058728Y034477D01*
X058748D01*
X058947Y03438D02*
X059094Y034528D01*
X059606D02*
X059833Y034754D01*
Y035325D01*
X059094Y034528D02*
X059606D01*
X058947Y032864D02*
Y03438D01*
X054868Y027848D02*
X054903Y027813D01*
X054912D02*
X054961Y027764D01*
X054868Y027848D02*
Y028031D01*
X054903Y027813D02*
X054912D01*
X054961Y027724D02*
Y027764D01*
X054616Y027813D02*
X054625D01*
X054567Y027724D02*
Y027764D01*
X054616Y027813D01*
X054625D02*
X054659Y027848D01*
Y028031D01*
X054323Y027916D02*
X054439Y028031D01*
X054659D01*
X053583Y027916D02*
X054323D01*
X053112Y031812D02*
X053582D01*
X053583Y031813D01*
X053111Y031812D02*
X053112Y031812D01*
X052224Y034331D02*
X052648D01*
X04625Y032461D02*
X050984D01*
X045571Y031781D02*
X04625Y032461D01*
X043203Y031781D02*
X045571D01*
X043Y031983D02*
X043001D01*
X043203Y031781D01*
X058829Y032746D02*
X058947Y032864D01*
X058361Y03282D02*
X058435Y032746D01*
X058829D01*
X058361Y03282D02*
Y032932D01*
X05836Y032933D02*
X058361Y032932D01*
X057913Y034961D02*
X058012Y034862D01*
X058002Y034301D02*
X058012Y034311D01*
Y034862D01*
X043504Y020246D02*
Y020394D01*
Y020098D02*
Y020246D01*
X043488Y02023D02*
X043504Y020246D01*
X043307Y02023D02*
X043488D01*
X043356Y020472D02*
X043666Y020782D01*
X041494Y021175D02*
X042197Y020472D01*
X043356D01*
X041406Y021244D02*
Y021264D01*
X041474Y021175D02*
X041494D01*
X041406Y021244D02*
X041474Y021175D01*
X056949Y026422D02*
Y026585D01*
Y02626D02*
Y026422D01*
X056693Y026392D02*
X056918D01*
X056949Y026422D01*
X05626Y026614D02*
X056742D01*
X057067Y026939D01*
X055205Y027236D02*
X055827Y026614D01*
X05626D01*
X054764Y027236D02*
X055205D01*
X055238Y028423D02*
Y028642D01*
Y028423D02*
X055472Y028189D01*
X056299D01*
X055238Y028642D02*
Y028927D01*
Y029478D02*
Y029754D01*
Y028927D02*
Y029203D01*
Y029478D01*
Y029754D02*
Y030028D01*
X056299Y028189D02*
X05642Y02831D01*
X05679D01*
X033465Y026614D02*
X033776D01*
X033583Y027008D02*
X03378D01*
X034173Y026617D02*
X034176Y026614D01*
X034173Y027008D02*
X034173Y027008D01*
Y026617D02*
Y027008D01*
X046176Y018931D02*
X046319D01*
X046317Y018933D02*
X046453D01*
X044911Y0194D02*
X044961D01*
X044764Y019582D02*
Y019685D01*
X044944Y019402D02*
X044959D01*
X044764Y019582D02*
X044944Y019402D01*
X057073Y026136D02*
X057784D01*
X056417Y02563D02*
X056481Y025694D01*
X056616D01*
X056619Y025697D01*
X057669D01*
X044321Y02782D02*
Y02815D01*
X043Y027815D02*
X044316D01*
X044316D02*
X044321Y02782D01*
X037441Y030945D02*
X037756D01*
X037126Y035709D02*
Y036713D01*
X036909Y036929D02*
X037126Y036713D01*
X041604Y021793D02*
Y021965D01*
Y02175D02*
Y021793D01*
X041753Y021898D02*
X041772Y021917D01*
X041709Y021898D02*
X041753D01*
X041604Y021793D02*
X041709Y021898D01*
X042953Y019783D02*
X043189D01*
X041831Y02248D02*
Y023868D01*
X041829Y022364D02*
Y022482D01*
Y022364D02*
X041919Y022274D01*
X042293D01*
X032092Y041252D02*
Y041661D01*
X031951Y041111D02*
X032092Y041252D01*
X031702Y041111D02*
X031951D01*
X03154Y040949D02*
X031702Y041111D01*
X032092Y041661D02*
X032248Y041817D01*
X032347Y040813D02*
Y041413D01*
X032323Y041437D02*
X032347Y041413D01*
X032544Y040813D02*
Y042004D01*
X032421Y042126D02*
X032544Y042004D01*
X032248Y041817D02*
X032268D01*
X03154Y040518D02*
Y040949D01*
X031398Y038117D02*
Y038193D01*
X031378Y038071D02*
Y038098D01*
X031398Y038193D02*
X031427Y038222D01*
X031378Y038098D02*
X031398Y038117D01*
X048898Y044134D02*
X048898Y044134D01*
X048898Y044134D02*
Y044528D01*
X048898Y044528D02*
X048898Y044528D01*
X041301Y024165D02*
X041693Y024557D01*
X041301Y022059D02*
Y024165D01*
X041303Y022057D02*
Y022057D01*
X041211Y021965D02*
X041303Y022057D01*
X041209Y021752D02*
Y021965D01*
X058368Y031673D02*
Y031829D01*
X046524Y024518D02*
X046744D01*
X046524D02*
X046571Y02447D01*
X046522Y02452D02*
X046524Y024518D01*
X046571Y024411D02*
Y02447D01*
X046482Y02452D02*
X046522D01*
X046571Y024411D02*
X046614Y024367D01*
Y024341D02*
Y024367D01*
X046744Y024518D02*
X046831Y024604D01*
X045837Y025807D02*
X045841D01*
X045217Y025709D02*
X045738D01*
X045841Y025807D02*
X04587Y025837D01*
X045738Y025709D02*
X045837Y025807D01*
X045266Y025551D02*
X046181D01*
X046308Y025678D02*
Y026437D01*
X046181Y025551D02*
X046308Y025678D01*
Y026437D02*
Y026849D01*
X044843Y024213D02*
Y024478D01*
X044843Y024213D02*
X044843Y024213D01*
X04499Y024626D02*
Y025482D01*
X044843Y024478D02*
X04499Y024626D01*
X045118Y024213D02*
Y025404D01*
X045266Y025551D01*
X046225Y024204D02*
X046367D01*
X046224Y024205D02*
X046225Y024204D01*
X046367D02*
X046368Y024203D01*
X043927Y020817D02*
Y020994D01*
X043504Y020394D02*
X043927Y020817D01*
X043754Y019977D02*
X044376D01*
X043666Y020782D02*
Y021058D01*
X043976Y021368D01*
Y021555D01*
X057313Y026949D02*
Y027126D01*
X056949Y026585D02*
X057313Y026949D01*
X057067Y026939D02*
Y027224D01*
X057382Y027539D01*
Y027717D01*
X057382Y027717D01*
X056949Y02626D02*
X057073Y026136D01*
X041565Y027532D02*
X041614Y027483D01*
X041208Y027559D02*
X041235Y027532D01*
X041565D01*
X041181Y027559D02*
X041208D01*
X045876Y026436D02*
Y026847D01*
X041762Y026437D02*
X041977D01*
X041585Y02626D02*
X041762Y026437D01*
X042843Y026064D02*
Y026437D01*
Y026064D02*
X042992Y025915D01*
X044843Y025669D02*
X045008Y025835D01*
Y026437D01*
X035415Y029547D02*
Y029998D01*
X035315Y030098D02*
X035415Y029998D01*
X055581Y034232D02*
Y034705D01*
Y03376D02*
Y034232D01*
Y033287D02*
Y03376D01*
Y031831D02*
Y033287D01*
X05551Y039035D02*
X055511Y039036D01*
Y039172D01*
X055512Y039173D01*
X053071Y034567D02*
X053179Y034459D01*
X053536D02*
X053583Y034412D01*
X053179Y034459D02*
X053536D01*
X04804Y038917D02*
Y039969D01*
X048868Y040797D01*
X050089D01*
X050315Y041024D01*
X049272Y040591D02*
X050394D01*
X048473Y039792D02*
X049272Y040591D01*
X048473Y038917D02*
Y039792D01*
X044575Y038476D02*
Y038917D01*
X045008Y038476D02*
Y038917D01*
X045874Y038476D02*
Y038917D01*
X046308Y038476D02*
Y038917D01*
X046741Y038476D02*
Y038917D01*
X045441Y038476D02*
Y038917D01*
X050315Y041024D02*
Y042992D01*
X050118Y043189D02*
Y043189D01*
Y043189D02*
X050315Y042992D01*
X050512Y040709D02*
Y04374D01*
X050394Y040591D02*
X050512Y040709D01*
X050039Y043858D02*
X050394D01*
X050512Y04374D01*
X047174Y038476D02*
Y038917D01*
X047607Y038476D02*
Y038917D01*
X037234Y039547D02*
X03749Y039803D01*
X036506Y039547D02*
X037234D01*
X036321Y039362D02*
X036506Y039547D01*
X03749Y039803D02*
Y040804D01*
X03685Y041443D02*
X03749Y040804D01*
X036417Y039685D02*
X037136D01*
X036787Y041289D02*
X037326Y040751D01*
X037136Y039685D02*
X037326Y039875D01*
Y040751D01*
X036526Y039921D02*
X036544Y039902D01*
X03651Y039937D02*
X036526Y039921D01*
X035963Y039953D02*
X036467D01*
X036499Y039921D02*
X036526D01*
X036467Y039953D02*
X036499Y039921D01*
X036544Y039902D02*
X036686D01*
X036707Y039882D01*
X036945Y038967D02*
X037048Y03907D01*
Y039125D02*
X037067Y039144D01*
X037048Y03907D02*
Y039125D01*
X036945Y038967D02*
Y038967D01*
X037047Y040423D02*
X037057Y040413D01*
Y040433D02*
X037057Y040433D01*
X037057Y040413D02*
Y040433D01*
X036925Y040423D02*
X037047D01*
X036915Y040433D02*
X036925Y040423D01*
X037047Y039941D02*
X037057D01*
X037018Y039911D02*
X037047Y039941D01*
X036945Y039911D02*
X037018D01*
X036915Y039882D02*
X036945Y039911D01*
X036654Y04314D02*
X036656Y043138D01*
Y042929D02*
X036658Y042926D01*
X036656Y042929D02*
Y043138D01*
X036575Y043809D02*
X036654Y04373D01*
X036575Y043809D02*
Y04477D01*
X036461Y042926D02*
Y043145D01*
X035988Y043618D02*
Y044766D01*
Y043618D02*
X036461Y043145D01*
X035792Y043579D02*
Y044766D01*
X036067Y042926D02*
Y043303D01*
X035792Y043579D02*
X036067Y043303D01*
X035394Y04374D02*
Y04477D01*
Y04374D02*
X03587Y043264D01*
Y042926D02*
Y043264D01*
X036915Y040157D02*
X037057D01*
X03154Y04038D02*
Y040518D01*
X036014Y041746D02*
Y041919D01*
X035945Y041476D02*
Y041677D01*
X036014Y041746D01*
X052585Y033372D02*
X052825Y033612D01*
X052211Y033372D02*
X052585D01*
X045632Y037541D02*
X045927D01*
X056859Y031722D02*
X056888D01*
X056841Y031703D02*
X056859Y031722D01*
X057027Y03186D02*
X057057D01*
X056888Y031722D02*
X057027Y03186D01*
X047815Y024695D02*
X047845D01*
X048012Y024528D01*
Y024528D02*
Y024528D01*
X049114Y025295D02*
X049695D01*
X048043Y024224D02*
X049114Y025295D01*
X047813Y024224D02*
X048043D01*
X059203Y03028D02*
X059352D01*
X045707Y024006D02*
X045856D01*
X048266Y027099D02*
Y027813D01*
X048263Y027815D02*
X048266Y027813D01*
Y027099D02*
X048268Y027096D01*
X046948Y027815D02*
X046953Y027809D01*
Y027082D02*
Y027809D01*
Y027082D02*
X046959Y027077D01*
X047815Y025157D02*
Y025325D01*
X058602Y030876D02*
Y030892D01*
X058695Y030984D01*
X056191Y031112D02*
X05627D01*
X05654Y031383D01*
X057067Y030485D02*
X057158Y030394D01*
X05687Y030492D02*
X056877Y030485D01*
X057067D01*
X057158Y030394D02*
X057697D01*
X034882Y032835D02*
Y033386D01*
X029685Y020689D02*
Y020866D01*
Y020512D02*
Y020689D01*
X058642Y029955D02*
X058967Y03028D01*
X058642Y029646D02*
Y029955D01*
X058484Y029646D02*
Y030142D01*
X058622Y03028D01*
X058327Y030244D02*
X058356Y030274D01*
X058327Y029646D02*
Y030244D01*
X0581Y030457D02*
Y030472D01*
Y030457D02*
X058169Y030389D01*
Y029646D02*
Y030389D01*
X058356Y030902D02*
X058602Y031148D01*
X058901Y030982D02*
X058904Y030984D01*
X058854Y031474D02*
X058856Y031476D01*
X058904Y030984D02*
Y031474D01*
X058012Y029646D02*
Y030295D01*
X057745Y030562D02*
X058012Y030295D01*
X057696Y030562D02*
X057745D01*
X057677Y030581D02*
X057696Y030562D01*
X057697Y030394D02*
X057854Y030236D01*
X058358Y030272D02*
X058376Y030254D01*
X058799Y030412D02*
X058902Y030309D01*
X058937D02*
X058967Y03028D01*
X058902Y030309D02*
X058937D01*
X058617Y030493D02*
X058622Y030488D01*
X058617Y030493D02*
Y030615D01*
X058799Y030412D02*
Y030735D01*
X058612Y03062D02*
X058617Y030615D01*
X058799Y030735D02*
X058901Y030837D01*
Y030982D01*
X058967Y030488D02*
Y030659D01*
X059203Y030488D02*
Y030659D01*
X058356Y030482D02*
Y030693D01*
X058354Y030691D02*
X058356Y030693D01*
X058159Y030689D02*
X058161Y030691D01*
X058211D02*
X058354D01*
X057854Y029646D02*
Y030236D01*
X057244Y03D02*
Y030197D01*
X057382Y029646D02*
Y029862D01*
X057244Y03D02*
X057382Y029862D01*
X057638Y030172D02*
X057697Y030113D01*
Y029646D02*
Y030113D01*
X057638Y030172D02*
Y030197D01*
X057441Y030079D02*
X057539Y02998D01*
Y029646D02*
Y02998D01*
X05654Y031383D02*
X057052D01*
X057057Y031388D01*
X051937Y026006D02*
Y026437D01*
X049339Y026006D02*
Y026437D01*
X049772Y026006D02*
Y026437D01*
X050205Y026006D02*
Y026437D01*
X050638Y026006D02*
Y026437D01*
X051071Y026006D02*
Y026437D01*
X051504Y026006D02*
Y026437D01*
X048906Y026006D02*
Y026437D01*
X048473Y026006D02*
Y026437D01*
X04804Y026006D02*
Y026437D01*
X047607Y026006D02*
Y026437D01*
X047174Y026006D02*
Y026437D01*
X046741Y026006D02*
Y026437D01*
X043622Y01998D02*
X04375D01*
X043504Y020098D02*
X043622Y01998D01*
X045077Y023948D02*
X045077Y023948D01*
Y023982D01*
X045098Y024004D02*
X045118D01*
X045077Y023486D02*
Y023948D01*
X045077Y023982D02*
X045098Y024004D01*
X044843D02*
X044921Y023925D01*
Y023484D02*
Y023925D01*
X044575Y026006D02*
Y026437D01*
X045441Y026006D02*
Y026437D01*
X045876Y025876D02*
Y026436D01*
X04499Y025482D02*
X045217Y025709D01*
X04241Y026006D02*
Y026437D01*
X041183Y02705D02*
X041614D01*
X041183Y027916D02*
X041614D01*
X037756Y030945D02*
X038071Y03063D01*
X034917Y041388D02*
X034936Y041407D01*
Y041511D02*
X034955Y04153D01*
X034936Y041407D02*
Y041511D01*
X033287Y041526D02*
X033304Y04151D01*
Y041405D02*
X033321Y041388D01*
X033304Y041405D02*
Y04151D01*
X033613Y036486D02*
X033725Y036597D01*
Y036927D01*
X033613Y036415D02*
Y036486D01*
X033585Y036386D02*
X033613Y036415D01*
X029169Y022402D02*
X029244D01*
X02948Y022638D02*
X029488D01*
X029244Y022402D02*
X02948Y022638D01*
X029208Y026457D02*
X029208Y026457D01*
X029724D01*
X043Y030594D02*
X043461D01*
X056873Y03482D02*
X056997D01*
X041229Y041731D02*
X04123Y041732D01*
X04076Y04173D02*
X040761Y041731D01*
X041229D01*
X056683Y037362D02*
X056939D01*
X05735Y036951D01*
X060353Y036025D02*
Y036232D01*
X060758Y035187D02*
Y03562D01*
X060353Y036025D02*
X060758Y03562D01*
X043035Y022316D02*
X043499D01*
X042871Y02248D02*
X043035Y022316D01*
X043499D02*
X04353Y022285D01*
X043718D01*
X043718Y022285D01*
X045276Y024488D02*
X045504Y024717D01*
X045276Y024096D02*
Y024488D01*
Y024096D02*
X045357Y024014D01*
X04547Y024215D02*
Y024368D01*
X045707Y024215D02*
Y024368D01*
X045357Y024014D02*
X045462D01*
X04547Y024006D01*
X045994Y024717D02*
X046016Y024695D01*
Y024205D02*
Y024695D01*
X045504Y024717D02*
X045994D01*
X045234Y023659D02*
X045468Y023893D01*
Y024003D01*
X04547Y024006D01*
X045234Y023486D02*
Y023659D01*
X056441Y028478D02*
X056864D01*
X056897Y028445D02*
X057126D01*
X056864Y028478D02*
X056897Y028445D01*
X056279Y02864D02*
X056441Y028478D01*
X059584Y025091D02*
X059726D01*
X059326Y024833D02*
X059584Y025091D01*
X059326Y024833D02*
X059636D01*
X059272D02*
X059326D01*
X058189Y025738D02*
Y025866D01*
Y025738D02*
X058366Y025561D01*
X058713Y025933D02*
X058831Y025815D01*
Y025243D02*
Y025815D01*
X058437Y025933D02*
X058713D01*
X058171Y026199D02*
Y027715D01*
Y026199D02*
X058437Y025933D01*
X058329Y026238D02*
X058465Y026102D01*
X059094D01*
X059274Y025923D01*
X058329Y026238D02*
Y027715D01*
X047183Y024224D02*
Y025169D01*
X047183Y024224D02*
X047183Y024224D01*
X046732Y024911D02*
X046829Y024815D01*
X047183D01*
X05439Y034006D02*
Y034006D01*
X054193Y034203D02*
X05439Y034006D01*
X053964Y034203D02*
X054193D01*
X05374Y033979D02*
X053964Y034203D01*
X053583Y036577D02*
X054033D01*
X054104Y033664D02*
Y034006D01*
X053986Y033546D02*
X054104Y033664D01*
X053583Y033546D02*
X053986D01*
X053583Y033979D02*
X05374D01*
X053583Y034845D02*
X054033D01*
X053583Y035278D02*
X054033D01*
X053583Y035711D02*
X054033D01*
X053583Y036144D02*
X054033D01*
X054092Y03701D02*
X05436Y036742D01*
Y035876D02*
X054931Y035305D01*
X05436Y035876D02*
Y036742D01*
X054518Y036073D02*
X055118Y035472D01*
X054518Y036073D02*
Y037136D01*
X05421Y037443D02*
X054518Y037136D01*
X054368Y037876D02*
X054715Y03753D01*
Y03623D02*
X055305Y03564D01*
X054715Y03623D02*
Y03753D01*
X03002Y031142D02*
X030256D01*
X03002Y03215D02*
X03026D01*
X029707Y032152D02*
Y03299D01*
X029709Y032992D01*
X029705Y03215D02*
X029707Y032152D01*
X029715Y030364D02*
Y031132D01*
X029705Y031142D02*
X029715Y031132D01*
Y030364D02*
X029724Y030354D01*
X029016Y03215D02*
X029256D01*
X029016Y031142D02*
X029252D01*
X028701Y030378D02*
X028724Y030354D01*
X028701Y030378D02*
Y031142D01*
X028701Y032984D02*
X028709Y032992D01*
X028701Y03215D02*
Y032984D01*
X035119Y033848D02*
X035433D01*
X035109Y033839D02*
X035119Y033848D01*
X035433D02*
X035443Y033858D01*
Y033622D02*
X035463D01*
X035433Y033632D02*
X035443Y033622D01*
X035119Y033632D02*
X035433D01*
X035109Y033642D02*
X035119Y033632D01*
X033386Y034252D02*
Y034449D01*
Y033425D02*
Y033622D01*
X034537Y033159D02*
Y033199D01*
X034283Y032875D02*
Y032905D01*
X034537Y033159D01*
X034243Y032835D02*
X034283Y032875D01*
X034213Y032835D02*
X034243D01*
X034537Y033199D02*
X034606Y033268D01*
X034685Y033898D02*
X034823Y034035D01*
X035109D01*
X034685Y033583D02*
Y033898D01*
Y033583D02*
X034882Y033386D01*
X033868Y034035D02*
X034114D01*
X034213Y033937D01*
Y033268D02*
Y033937D01*
X032327Y033988D02*
X032728D01*
X032904Y034163D01*
X031709Y034606D02*
X032327Y033988D01*
X032736Y033858D02*
X032972Y033622D01*
X031457Y033858D02*
X032736D01*
X030709Y034606D02*
X031457Y033858D01*
X032904Y034183D02*
X032972Y034252D01*
X032904Y034163D02*
Y034183D01*
X032972Y034252D02*
X033012D01*
X032972Y033622D02*
X032992D01*
X033012D02*
X033228Y033839D01*
X033868D01*
X032992Y033622D02*
X033012D01*
X033386D02*
X033406Y033642D01*
X033868D01*
X033406Y034232D02*
X033868D01*
X033386Y034252D02*
X033406Y034232D01*
X033228Y034035D02*
X033868D01*
X033012Y034252D02*
X033228Y034035D01*
X058416Y024833D02*
X058827Y025243D01*
X058831D01*
X058366Y024833D02*
X058416D01*
X057913Y025093D02*
X058056D01*
X058316Y024833D01*
X058366D01*
X058056Y025301D02*
X058316Y025561D01*
X057913Y025301D02*
X058056D01*
X058316Y025561D02*
X058366D01*
X059274Y025559D02*
Y025923D01*
Y025559D02*
X059454Y025379D01*
X059588Y025299D02*
X059726D01*
X059508Y025379D02*
X059588Y025299D01*
X059454Y025379D02*
X059508D01*
X055226Y03499D02*
X056703D01*
X056997Y03482D02*
X057005Y034813D01*
X056703Y03499D02*
X056873Y03482D01*
X054941Y034705D02*
X055226Y03499D01*
X056875Y035138D02*
X056915Y035098D01*
X055138Y035138D02*
X056875D01*
X054783Y034783D02*
X055138Y035138D01*
X056915Y035098D02*
X056969D01*
X056988Y035079D01*
X054783Y033297D02*
Y034783D01*
X054478Y032992D02*
X054783Y033297D01*
X053903Y032815D02*
X054547D01*
X054941Y033209D01*
Y034705D01*
X053903Y032992D02*
X054478D01*
X053782Y033113D02*
X053903Y032992D01*
X053583Y033113D02*
X053782D01*
X053583Y032679D02*
X053767D01*
X053903Y032815D01*
X054931Y035305D02*
X057047D01*
X055118Y035472D02*
X057657D01*
X055305Y03564D02*
X057411D01*
X055413Y035846D02*
X057628D01*
X054921Y036339D02*
X055413Y035846D01*
X058937Y034961D02*
X059144D01*
X058809Y035364D02*
Y035541D01*
X058346Y034961D02*
X058543D01*
X058268Y035354D02*
Y035551D01*
X048021Y042262D02*
X04811Y042352D01*
X048002Y042185D02*
X048021Y042204D01*
X04811Y042352D02*
Y042362D01*
X048021Y042204D02*
Y042262D01*
X048247Y041504D02*
X048307Y041564D01*
X048247Y041446D02*
Y041504D01*
X048228Y041427D02*
X048247Y041446D01*
X048307Y041564D02*
Y041575D01*
X049247Y041127D02*
X049252Y041132D01*
X04863Y043339D02*
X048701Y043268D01*
X048511Y043339D02*
X04863D01*
X048504Y043346D02*
X048511Y043339D01*
X048278Y043061D02*
X048386Y042953D01*
X048504D01*
X048523Y042156D02*
Y042165D01*
X048701Y041968D02*
Y041978D01*
X048523Y042156D02*
X048701Y041978D01*
X048307Y041968D02*
Y042106D01*
X048504Y042559D02*
X048602D01*
X048701Y042461D01*
X048315Y04237D02*
Y042451D01*
X048346Y042483D02*
Y04251D01*
X048307Y042362D02*
X048315Y04237D01*
Y042451D02*
X048346Y042483D01*
Y04251D02*
X048388Y042552D01*
X048496D01*
X048504Y042559D01*
X048511Y042763D02*
X048561D01*
X048701Y042904D01*
X048504Y042756D02*
X048511Y042763D01*
X048701Y042904D02*
Y042953D01*
X048504Y04315D02*
X048701Y042953D01*
X048504Y044134D02*
X048504Y044134D01*
X048504Y044134D02*
Y044528D01*
X048701Y04374D02*
Y043937D01*
Y043602D02*
Y04374D01*
X048307Y044134D02*
Y044262D01*
X048504Y043937D02*
Y043937D01*
X048307Y044134D02*
X048504Y043937D01*
Y043937D02*
X048701Y044134D01*
Y044134D01*
X047968Y043219D02*
X047986Y043201D01*
X047968Y043219D02*
Y043282D01*
X047913Y043336D02*
X047968Y043282D01*
X047913Y043336D02*
Y043346D01*
X048129Y043562D02*
X048307Y04374D01*
X04808Y043562D02*
X048129D01*
X048061Y043543D02*
X04808Y043562D01*
X055974Y030846D02*
X056181D01*
X055984Y031339D02*
X056191D01*
X055974Y031831D02*
X056181D01*
X055974Y033287D02*
X056181D01*
X055974Y03376D02*
X056181D01*
X055974Y034232D02*
X056181D01*
X055974Y034705D02*
X055974Y034705D01*
X056181D01*
X04375Y020335D02*
X044134Y020718D01*
Y021555D01*
X04375Y020189D02*
Y020335D01*
X044291Y020554D02*
Y021555D01*
X044065Y020327D02*
X044291Y020554D01*
X044065Y020182D02*
Y020327D01*
X057157Y026498D02*
X057541Y026882D01*
Y027715D01*
X057157Y026348D02*
Y026498D01*
X057699Y026713D02*
Y027715D01*
X057472Y026487D02*
X057699Y026713D01*
X057472Y026341D02*
Y026487D01*
X057787Y026502D02*
X057856Y026571D01*
Y027715D01*
X057787Y026341D02*
Y026502D01*
X044449Y020411D02*
Y021555D01*
X04438Y020342D02*
X044449Y020411D01*
X04438Y020182D02*
Y020342D01*
X056791Y028081D02*
X056813D01*
X05977Y028297D02*
X059776Y028291D01*
X059937D01*
X059943Y028285D01*
X057687Y031388D02*
X057687Y031388D01*
X058022D01*
X057687Y031388D02*
Y03186D01*
Y030906D02*
Y031388D01*
X058368Y031673D02*
X058408D01*
X058602Y031478D01*
Y031148D02*
Y031478D01*
X05813Y031279D02*
X058368D01*
X058022Y031388D02*
X05813Y031279D01*
X058098Y031673D02*
X058368D01*
X058022Y031596D02*
X058098Y031673D01*
X055447Y030028D02*
X055593D01*
X055447Y029752D02*
X055593D01*
X055447Y029476D02*
X055593D01*
X055447Y029201D02*
X055593D01*
X055447Y028925D02*
X055593D01*
X055447Y02864D02*
X055593D01*
X056279D01*
X056209Y028925D02*
X056534Y0286D01*
X057128D01*
X055593Y028925D02*
X056209D01*
X056158Y029201D02*
X056601Y028758D01*
X057128D01*
X055593Y029201D02*
X056158D01*
X056113Y029476D02*
X056674Y028915D01*
X057128D01*
X055593Y029476D02*
X056113D01*
X056053Y029752D02*
X056732Y029073D01*
X057128D01*
X055593Y029752D02*
X056053D01*
X055983Y030028D02*
X05678Y02923D01*
X057128D01*
X055593Y030028D02*
X055983D01*
X059772Y029073D02*
X059943D01*
X057784Y026136D02*
X057787Y026133D01*
X058014Y026041D02*
Y027715D01*
X057669Y025697D02*
X058014Y026041D01*
X058644Y027429D02*
X058713Y02736D01*
X058644Y027429D02*
Y027715D01*
X058909Y02736D02*
X058988Y027281D01*
X058713Y02736D02*
X058909D01*
X058988Y027179D02*
Y027281D01*
X045581Y02102D02*
Y021122D01*
X045305Y021201D02*
X045502D01*
X045581Y021122D01*
X045236Y02127D02*
Y021555D01*
Y02127D02*
X045305Y021201D01*
X044764Y019971D02*
Y021555D01*
X044921Y02003D02*
Y021555D01*
X045059Y019892D02*
X045738D01*
X044921Y02003D02*
X045059Y019892D01*
X045738D02*
X045866Y019764D01*
X044961Y019774D02*
X045226D01*
X044764Y019971D02*
X044961Y019774D01*
X044961Y018671D02*
X045011D01*
X045423Y019084D01*
Y019577D01*
X045226Y019774D02*
X045423Y019577D01*
X046047Y019219D02*
X046101D01*
X04618Y01914D01*
X046319D01*
X045866Y0194D02*
X046047Y019219D01*
X045866Y018671D02*
X045916D01*
X046176Y018931D01*
X044531Y019154D02*
X044665D01*
X04473Y019219D02*
Y019219D01*
X044665Y019154D02*
X04473Y019219D01*
Y019219D02*
X044911Y0194D01*
X044518Y01914D02*
X044531Y019154D01*
X044518Y018931D02*
X044665D01*
X04473Y018866D01*
Y018852D02*
Y018866D01*
Y018852D02*
X044911Y018671D01*
X044961D01*
X045866Y0194D02*
Y019764D01*
X043435Y019537D02*
X044262D01*
X044606Y019882D01*
Y021555D01*
X043189Y019783D02*
X043435Y019537D01*
X04375Y01998D02*
X043754Y019977D01*
X041512Y022057D02*
X041604Y021965D01*
X046364Y022126D02*
X046364Y022126D01*
X046535D01*
X046364Y022913D02*
X046535D01*
X046484Y024911D02*
X046732D01*
X045874Y026437D02*
X045876Y026436D01*
X042185Y023868D02*
X042575D01*
X043373Y023071D02*
X04372D01*
X042575Y023868D02*
X043373Y023071D01*
X042185Y023593D02*
X042645D01*
X043325Y022913D02*
X04372D01*
X042645Y023593D02*
X043325Y022913D01*
X042185Y023317D02*
X042705D01*
X043266Y022756D02*
X04372D01*
X042705Y023317D02*
X043266Y022756D01*
X042185Y023041D02*
X04275D01*
X043193Y022598D02*
X04372D01*
X04275Y023041D02*
X043193Y022598D01*
X042185Y022766D02*
X042801D01*
X043126Y022441D02*
X04372D01*
X042801Y022766D02*
X043126Y022441D01*
X042185Y02248D02*
X042871D01*
X042039D02*
X042185D01*
X042039Y022766D02*
X042185D01*
X042039Y023041D02*
X042185D01*
X042039Y023317D02*
X042185D01*
X042039Y023593D02*
X042185D01*
X042039Y023868D02*
X042185D01*
X03685Y041443D02*
Y041722D01*
X036545Y041289D02*
X036787D01*
X036703Y041102D02*
X036705Y0411D01*
Y040711D02*
X036707Y040709D01*
X036705Y040711D02*
Y0411D01*
X037028Y041535D02*
Y041801D01*
X036658Y042171D02*
X037028Y041801D01*
X036658Y042171D02*
Y042598D01*
X036461Y042142D02*
X036614Y041988D01*
Y041837D02*
Y041988D01*
X036461Y042142D02*
Y042598D01*
X03622Y041837D02*
Y041988D01*
X036067Y042142D02*
X03622Y041988D01*
X036067Y042142D02*
Y042598D01*
X036417Y041417D02*
Y041732D01*
Y041417D02*
X036545Y041289D01*
X036614Y041486D02*
Y041628D01*
X03622Y041486D02*
Y041628D01*
X036736Y041837D02*
X03685Y041722D01*
X036614Y041837D02*
X036736D01*
X036246Y041811D02*
X036339D01*
X03622Y041837D02*
X036246Y041811D01*
X036339D02*
X036417Y041732D01*
X036535Y040709D02*
X036707D01*
X03637Y040544D02*
X036535Y040709D01*
X035963Y040544D02*
X03637D01*
X036292Y039559D02*
X036417Y039685D01*
X035963Y039559D02*
X036292D01*
X035963Y039362D02*
X036321D01*
X036915Y038937D02*
X036945Y038967D01*
X036858Y039146D02*
X03686Y039144D01*
X036713Y039148D02*
X036715Y039146D01*
X036858D01*
X036713Y039356D02*
X036715Y039358D01*
X036858D02*
X03686Y03936D01*
X03587Y042063D02*
X036014Y041919D01*
X03587Y042063D02*
Y042598D01*
X034712Y041523D02*
X034715Y041526D01*
X034709Y041388D02*
X034712Y041391D01*
Y041523D01*
X033531Y04139D02*
Y041524D01*
X03353Y041388D02*
X033531Y04139D01*
Y041524D02*
X033533Y041526D01*
X035591Y041811D02*
X035787D01*
X035585Y041817D02*
X035591Y041811D01*
X035904Y036252D02*
Y036386D01*
Y036252D02*
X035906Y03625D01*
X035902Y036388D02*
X035904Y036386D01*
X035693Y036388D02*
Y036927D01*
X035693Y036927D01*
X035693Y036388D02*
X035693Y036388D01*
X033797Y036252D02*
X033799Y03625D01*
X033795Y036388D02*
X033797Y036386D01*
Y036252D02*
Y036386D01*
X033585Y036252D02*
Y036386D01*
X033583Y03625D02*
X033585Y036252D01*
X032884Y03624D02*
X032887Y036243D01*
Y036385D02*
X03289Y036388D01*
X032887Y036243D02*
Y036385D01*
X033011Y036633D02*
X03305D01*
X03313Y036924D02*
X033134Y036927D01*
X03313Y036713D02*
Y036924D01*
X03305Y036633D02*
X03313Y036713D01*
X032992Y036614D02*
X033011Y036633D01*
X032937Y036927D02*
X03294Y03693D01*
Y037182D01*
X032943Y037185D01*
X032674Y036247D02*
Y036381D01*
X032681Y036388D01*
X032667Y03624D02*
X032674Y036247D01*
X03274Y036447D02*
Y036927D01*
X032681Y036388D02*
X03274Y036447D01*
X031142Y038593D02*
Y038888D01*
X030988Y039041D02*
Y039721D01*
Y039041D02*
X031142Y038888D01*
Y038593D02*
X031303Y038431D01*
X030988Y039721D02*
X031008D01*
X031303Y038431D02*
X031427D01*
X031433Y038425D01*
X031526D01*
X031573Y038378D02*
X032077D01*
X031526Y038425D02*
X031573Y038378D01*
X052366Y026441D02*
X052371Y026437D01*
X052366Y026441D02*
Y026964D01*
X052362Y026969D02*
X052366Y026964D01*
X053582Y028348D02*
X053583Y028349D01*
X053111Y028348D02*
X053582D01*
X05311Y028346D02*
X053111Y028348D01*
X052913Y026969D02*
X053237Y026645D01*
X052835Y0272D02*
Y027205D01*
Y0272D02*
X052913Y027121D01*
Y026969D02*
Y027121D01*
X052804Y026437D02*
Y026842D01*
X052677Y026969D02*
X052804Y026842D01*
X053237Y026437D02*
Y026645D01*
X053111Y027048D02*
X053113Y02705D01*
X053583D01*
X053584Y027051D01*
X053111Y027481D02*
X053113Y027483D01*
X053583D01*
X053584Y027484D01*
X053111Y027915D02*
X053113Y027916D01*
X053583D01*
X053111Y030079D02*
X053112Y03008D01*
X053582D01*
X053583Y030082D01*
X053583Y029648D02*
X053584Y029649D01*
X053113Y029648D02*
X053583D01*
X053111Y029647D02*
X053113Y029648D01*
X053583Y028782D02*
X053584Y028783D01*
X053113Y028782D02*
X053583D01*
X053111Y028781D02*
X053113Y028782D01*
X053111Y030512D02*
X053112Y030514D01*
X053582D01*
X053583Y030515D01*
X053111Y030945D02*
X053112Y030947D01*
X053582D01*
X053583Y030948D01*
X053111Y031379D02*
X053112Y03138D01*
X053582D01*
X053583Y031381D01*
X053582Y032245D02*
X053583Y032246D01*
X053111Y032245D02*
X053582D01*
X05311Y032244D02*
X053111Y032245D01*
X05523Y043419D02*
X055236Y043425D01*
X05527Y042407D02*
X055276Y042402D01*
X054988Y043413D02*
X054994Y043419D01*
X05523D01*
X054179Y042407D02*
X054482D01*
X054173Y042913D02*
X054488D01*
X054482Y043419D02*
X054488Y043413D01*
X054179Y043419D02*
X054482D01*
X05448Y041921D02*
X054488Y041913D01*
X054482Y042407D02*
X054488Y042413D01*
X054988D02*
X054994Y042407D01*
X054181Y041921D02*
X05448D01*
X054213Y043898D02*
X05422Y043906D01*
X05448D01*
X054488Y043913D01*
X054994Y042407D02*
X05527D01*
X054173Y041929D02*
X054181Y041921D01*
X054173Y043425D02*
X054179Y043419D01*
X054173Y042402D02*
X054179Y042407D01*
X052211Y035058D02*
X052212Y035058D01*
X052211Y034762D02*
X052211Y034762D01*
X048559Y03754D02*
X04856Y037539D01*
X049579Y037541D02*
X04958Y03754D01*
X048264D02*
X048559D01*
X052211Y037541D02*
X052211Y037541D01*
X053583Y037443D02*
X05421D01*
X052211Y034762D02*
Y035058D01*
X053583Y03701D02*
X054092D01*
X048263Y037541D02*
X048264Y03754D01*
X052211Y036151D02*
X052211Y036152D01*
X046948Y037541D02*
X046948Y03754D01*
X052211Y036152D02*
Y036447D01*
X052212Y036448D01*
X052211Y037541D02*
Y037836D01*
X052212Y037837D01*
X054921Y036339D02*
Y038031D01*
X050895Y037541D02*
X050896Y03754D01*
X054643Y038309D02*
X054921Y038031D01*
X050896Y03754D02*
X051191D01*
X051191Y037539D01*
X049875Y03754D02*
X049876Y037539D01*
X046948Y03754D02*
X047243D01*
X04958D02*
X049875D01*
X047243D02*
X047244Y037539D01*
X053583Y038309D02*
X054643D01*
X053583Y037876D02*
X054368D01*
X037795Y02124D02*
X037809Y021254D01*
Y02189D01*
X05896Y038796D02*
Y039003D01*
X058944Y039018D02*
X05896Y039003D01*
Y038796D02*
X059055Y038701D01*
X059141Y038787D01*
Y039018D01*
X058346Y03602D02*
Y036255D01*
X058232Y035906D02*
X058346Y03602D01*
X058032Y035906D02*
X058232D01*
X05793Y035804D02*
X058032Y035906D01*
X05793Y035711D02*
Y035804D01*
X057913Y035695D02*
X05793Y035711D01*
X058346Y036255D02*
X058354Y036262D01*
X057913Y034961D02*
Y035486D01*
X058268Y035699D02*
X058551Y035982D01*
X058268Y035551D02*
Y035699D01*
X058543Y035748D02*
X058748Y035952D01*
Y036262D01*
X058543Y034961D02*
Y035748D01*
X059334Y035949D02*
Y036259D01*
X059331Y035945D02*
X059334Y035949D01*
Y036259D02*
X059338Y036262D01*
X060375Y035708D02*
X060394Y035689D01*
X060125Y036016D02*
Y036262D01*
X060375Y035708D02*
Y035767D01*
X060125Y036016D02*
X060375Y035767D01*
X059929Y035918D02*
Y036262D01*
Y035918D02*
X060157Y035689D01*
X059833Y035325D02*
X05984Y035332D01*
X060151D02*
X060157Y035339D01*
X05984Y035332D02*
X060151D01*
X060157Y035339D02*
X060394D01*
X060157Y035547D02*
Y035689D01*
X060394Y035547D02*
Y035689D01*
X060322Y036262D02*
X060353Y036232D01*
X060896Y035787D02*
X061142D01*
X060561Y036122D02*
X060896Y035787D01*
X060519Y036152D02*
X06055Y036122D01*
X060519Y036152D02*
Y036262D01*
X06055Y036122D02*
X060561D01*
X055757Y037485D02*
Y037581D01*
X055541Y037785D02*
Y037874D01*
X055553Y037785D02*
X055757Y037581D01*
Y037485D02*
X055772Y03747D01*
X055541Y037785D02*
X055553D01*
X055984Y037618D02*
X05624Y037874D01*
X056319D01*
X05598Y03747D02*
X055984Y037474D01*
Y037618D01*
X056319Y037874D02*
X056831D01*
X057556Y037148D01*
X058059D01*
X056319Y038622D02*
Y038894D01*
X056177Y039035D02*
X056319Y038894D01*
X055718Y039035D02*
X055968D01*
X055374Y038622D02*
X055453D01*
X055718Y038888D02*
Y039035D01*
X055453Y038622D02*
X055718Y038888D01*
X056662Y036763D02*
X05805D01*
X056654Y036772D02*
X056662Y036763D01*
X05805D02*
X058059Y036755D01*
X05735Y036951D02*
X058059D01*
X058748Y039018D02*
Y039604D01*
X058898Y039754D01*
X059338Y039018D02*
X059354Y039034D01*
Y039738D01*
X05937Y039754D01*
X057907Y032933D02*
X05791Y032936D01*
Y033078D01*
X057913Y033081D01*
X058116Y032933D02*
Y033459D01*
X058002Y033573D02*
X058116Y033459D01*
Y032933D02*
X05836D01*
X058569D02*
Y033569D01*
X058573Y033573D01*
X059144Y034961D02*
Y035407D01*
X058944Y035913D02*
Y036262D01*
X058809Y035778D02*
X058944Y035913D01*
X058809Y035541D02*
Y035778D01*
X058551Y035982D02*
Y036262D01*
X059142Y035617D02*
X059144Y035616D01*
X059142Y035617D02*
Y036261D01*
X059141Y036262D02*
X059142Y036261D01*
X061142Y035787D02*
X06127Y035659D01*
Y035187D02*
Y035659D01*
X062005Y035492D02*
Y035689D01*
X062005Y035689D01*
X061575Y035699D02*
X061575Y035699D01*
X061575Y035502D02*
Y035699D01*
X061157Y036755D02*
X061415Y036496D01*
X060814Y036755D02*
X061157D01*
X061415Y036496D02*
X061772D01*
X062005Y036083D02*
Y036262D01*
X061772Y036496D02*
X062005Y036262D01*
X060814Y036558D02*
X06111D01*
X061555Y036093D02*
X061575D01*
X06111Y036558D02*
X061486Y036181D01*
Y036161D02*
X061555Y036093D01*
X061486Y036161D02*
Y036181D01*
X060814Y037148D02*
X060816Y037147D01*
X061081D01*
X061083Y037146D01*
X060814Y037542D02*
X060816Y037541D01*
X061081D01*
X061083Y037539D01*
X060814Y037936D02*
X061243D01*
X061417Y03811D01*
Y038386D01*
X060814Y037739D02*
X061321D01*
X061535Y037953D02*
X061772D01*
X061321Y037739D02*
X061535Y037953D01*
X061575Y038543D02*
X061772D01*
X061417Y038386D02*
X061575Y038543D01*
X06126Y038819D02*
Y039266D01*
X061285Y039291D01*
X060688D02*
X061077D01*
X06055Y039159D02*
X060556D01*
X060519Y039018D02*
Y039128D01*
X06055Y039159D01*
X060556D02*
X060688Y039291D01*
X060472Y039567D02*
X060906D01*
X060322Y039417D02*
X060472Y039567D01*
X060322Y039018D02*
Y039417D01*
X061285Y039291D02*
Y039553D01*
X061299Y039567D01*
X060814Y038723D02*
X061164D01*
X06126Y038819D01*
X029685Y020079D02*
X030157D01*
X02999Y020896D02*
X030049D01*
X029665Y02122D02*
X02999Y020896D01*
X030585Y020507D02*
Y020625D01*
X030551Y020472D02*
X030585Y020507D01*
X031024Y020512D02*
Y020709D01*
X030984Y020472D02*
X031024Y020512D01*
Y021063D02*
Y021339D01*
X030482Y020916D02*
Y021467D01*
X030689Y02311D02*
X031014Y022785D01*
X031457Y020079D02*
X031703D01*
X031289Y020974D02*
Y021181D01*
X031714Y021867D02*
Y022085D01*
X031639Y02216D02*
X031714Y022085D01*
Y021867D02*
X03177Y021811D01*
X03128Y02311D02*
X031639Y022751D01*
X031289Y022785D02*
X031368D01*
X031486Y022667D01*
X031289Y022441D02*
Y022785D01*
X031486Y022441D02*
Y022667D01*
X035236Y028642D02*
X035256D01*
X038504Y021522D02*
X038589Y021437D01*
X03864D01*
X035415Y028801D02*
Y029114D01*
X036338D02*
X036339Y029114D01*
X030049Y020896D02*
X030118Y020827D01*
Y020472D02*
Y020827D01*
X030482Y021467D02*
X03062Y021604D01*
X031004D01*
X030585Y020625D02*
X031024Y021063D01*
X031639Y02216D02*
Y022751D01*
X038504Y021522D02*
Y02189D01*
X035612Y028699D02*
X035669Y028642D01*
X035612Y028699D02*
Y029114D01*
X036339Y028681D02*
Y029114D01*
Y029587D01*
X032028Y019646D02*
Y019754D01*
X03177Y021811D02*
X032126D01*
X031014Y022785D02*
X031289D01*
X038018Y02189D02*
X038504D01*
X035809Y029114D02*
X036338D01*
X031703Y020079D02*
X032028Y019754D01*
X030394Y020827D02*
X030482Y020916D01*
X031024Y020709D02*
X031289Y020974D01*
X030118Y020827D02*
X030394D01*
X035256Y028642D02*
X035415Y028801D01*
X036732Y028681D02*
Y029114D01*
X029646Y02122D02*
X029665D01*
X035984Y04477D02*
X035988Y044766D01*
X035787Y04477D02*
X035792Y044766D01*
X035496Y036927D02*
X035498Y036929D01*
X035494Y036658D02*
X035496Y03666D01*
Y036927D01*
X030108Y036329D02*
Y037195D01*
X030069Y036289D02*
X030108Y036329D01*
X035101Y036658D02*
X035103Y03666D01*
Y036927D01*
X034709D02*
X034711Y036929D01*
X034707Y036658D02*
X034709Y03666D01*
Y036927D01*
X034313Y036658D02*
X034315Y03666D01*
Y036927D01*
X033921D02*
X033923Y036929D01*
X033919Y036658D02*
X033921Y03666D01*
Y036927D01*
X033526Y036658D02*
X033528Y03666D01*
Y036927D01*
X032544D02*
X032545Y036929D01*
X032542Y036658D02*
X032544Y03666D01*
Y036927D01*
X032077Y037394D02*
X032079Y037392D01*
X031807Y037396D02*
X031809Y037394D01*
X032077D01*
Y037788D02*
X032079Y037786D01*
X031807Y03779D02*
X031809Y037788D01*
X032077D01*
X031807Y038183D02*
X031809Y038181D01*
X032077D01*
Y038772D02*
X032079Y03877D01*
X031807Y038774D02*
X031809Y038772D01*
X032077D01*
Y039166D02*
X032079Y039164D01*
X031807Y039168D02*
X031809Y039166D01*
X032077D01*
X031807Y039955D02*
X032075D01*
X031805Y039957D02*
X031807Y039955D01*
X032075D02*
X032077Y039953D01*
X035496Y040813D02*
Y041177D01*
X035585Y041266D02*
Y041424D01*
X035496Y041177D02*
X035585Y041266D01*
X036658Y042598D02*
Y042926D01*
X036461Y042598D02*
Y042926D01*
X036067Y042598D02*
Y042926D01*
X03587Y042598D02*
Y042926D01*
D13*
X031164Y016286D02*
X031457D01*
X031496Y016326D02*
Y0164D01*
X031457Y016286D02*
X031496Y016326D01*
X031055Y016177D02*
X031164Y016286D01*
X031055Y016173D02*
Y016177D01*
X034016Y016326D02*
Y0164D01*
Y016326D02*
X034055Y016286D01*
X034348D01*
X034457Y016177D01*
Y016173D02*
Y016177D01*
X059477Y026626D02*
Y02686D01*
X059467Y026615D02*
X059477Y026626D01*
Y02686D02*
X059488D01*
X046081Y020701D02*
X046092D01*
Y020483D02*
Y020701D01*
Y020483D02*
X046102Y020472D01*
D14*
X043661Y046654D02*
X043878Y046437D01*
X045945Y045433D02*
X050236D01*
X043878Y046437D02*
X044941D01*
X045945Y045433D01*
X04378Y04689D02*
X044016Y046654D01*
X046024Y045669D02*
X050433D01*
X044016Y046654D02*
X045039D01*
X046024Y045669D01*
X045315Y046772D02*
Y046772D01*
Y046772D02*
X046181Y045906D01*
X05063D01*
X046378Y046142D02*
X050906D01*
X045748Y046772D02*
Y046772D01*
Y046772D02*
X046378Y046142D01*
X046181Y046772D02*
X046614Y046339D01*
X051102D01*
X046181Y046772D02*
Y047047D01*
X043456Y021968D02*
X04372D01*
X040763Y044287D02*
X041202D01*
X059094Y029951D02*
X059203Y030059D01*
X058888Y029951D02*
X059094D01*
X059203Y030059D02*
Y03028D01*
X058799Y029862D02*
X058888Y029951D01*
X044152Y04134D02*
X044154Y041339D01*
X04374Y04134D02*
X044152D01*
X043141Y04055D02*
X04374D01*
X047392Y04315D02*
X047657D01*
X058799Y029646D02*
Y029862D01*
X033331Y036547D02*
Y036927D01*
X033353Y036504D02*
Y036525D01*
X033331Y036547D02*
X033353Y036525D01*
X04076Y0437D02*
X040763Y043697D01*
X043298Y040363D02*
X043301Y04036D01*
Y03996D02*
X04374D01*
Y04488D02*
X043741Y04488D01*
X040321Y04449D02*
X04076D01*
X04374Y04114D02*
X043743Y041137D01*
X043298Y041143D02*
X043301Y04114D01*
X040321Y04331D02*
X04076D01*
X043298Y040753D02*
X043301Y04075D01*
X040321Y04213D02*
X04076D01*
X043298Y039963D02*
X043301Y03996D01*
X04374D02*
X043743Y039957D01*
X043099Y044879D02*
X043099Y04488D01*
X040318Y044103D02*
X040321Y0441D01*
X03987Y042728D02*
X040752D01*
X043301Y04036D02*
X04374D01*
X043743Y040357D01*
X040119Y04351D02*
X04076D01*
X040318Y042133D02*
X040321Y04213D01*
X04076Y04016D02*
X040763Y040157D01*
X04076Y04469D02*
X040761Y04469D01*
X040321Y04252D02*
X04076D01*
X043099Y040949D02*
X043099Y04095D01*
X040321Y04016D02*
X04076D01*
X03998Y041929D02*
X039981Y041929D01*
X043301Y04075D02*
X04374D01*
X043743Y040747D01*
X04076Y041929D02*
X04076Y04193D01*
X043099Y04095D02*
X04374D01*
X040318Y040553D02*
X040321Y04055D01*
X04374Y04095D02*
X043741Y04095D01*
X043301Y04508D02*
X04374D01*
X043301Y04114D02*
X04374D01*
X040119Y044689D02*
X040119Y04469D01*
X04076Y04252D02*
X040763Y042517D01*
X043099Y04488D02*
X04374D01*
X043298Y045083D02*
X043301Y04508D01*
X040315Y045285D02*
X040318Y045283D01*
X040757D01*
X04076Y04528D01*
X040118Y045079D02*
X040119Y045079D01*
X04076Y04292D02*
X040763Y042917D01*
X040119Y045079D02*
X04076D01*
X040321Y04292D02*
X04076D01*
X04076Y045079D02*
X04076Y04508D01*
X040318Y043313D02*
X040321Y04331D01*
X040119Y04469D02*
X04076D01*
X040318Y042923D02*
X040321Y04292D01*
X040318Y044493D02*
X040321Y04449D01*
X04076D02*
X040763Y044487D01*
X040752Y042728D02*
X04076Y04272D01*
Y04213D02*
X040763Y042127D01*
X040318Y042523D02*
X040321Y04252D01*
Y0441D02*
X04076D01*
X040763Y044097D01*
X040119Y043509D02*
X040119Y04351D01*
X040318Y043703D02*
X040321Y0437D01*
X04076D01*
Y04351D02*
X040761Y04351D01*
X040321Y04134D02*
X04076D01*
Y04331D02*
X040763Y043307D01*
X039862Y042736D02*
X03987Y042728D01*
X040318Y040163D02*
X040321Y04016D01*
X039981Y041929D02*
X04076D01*
X040318Y041343D02*
X040321Y04134D01*
X040119Y04114D02*
X04076D01*
X040119Y041139D02*
X040119Y04114D01*
X04076Y04095D02*
X040763Y040947D01*
X04076Y04114D02*
X040761Y04114D01*
X040321Y04095D02*
X04076D01*
X040318Y040953D02*
X040321Y04095D01*
X040119Y04036D02*
X04076D01*
X040321Y04055D02*
X04076D01*
X040763Y040547D01*
X040119Y040359D02*
X040119Y04036D01*
X04374Y04469D02*
X043742Y044687D01*
X04Y047179D02*
X040007Y047172D01*
X040308D01*
X040315Y047165D01*
X043416Y022147D02*
X043435Y022128D01*
X04362D01*
X043395Y022147D02*
X043416D01*
X045392Y023585D02*
X045392Y023585D01*
X045698Y023997D02*
X045707Y024006D01*
X045698Y023887D02*
Y023997D01*
X045396Y023585D02*
X045698Y023887D01*
X045392Y023486D02*
Y023585D01*
X045392Y023585D02*
X045396D01*
X056834Y028287D02*
X057028D01*
X056811Y02831D02*
X056834Y028287D01*
X05679Y02831D02*
X056811D01*
X051142Y039528D02*
X052008Y040394D01*
X050638Y039394D02*
X050772Y039528D01*
X051142D01*
X051102Y046339D02*
X052008Y045433D01*
Y040394D02*
Y045433D01*
X05063Y045906D02*
X051457Y045079D01*
Y040551D02*
Y045079D01*
X050866Y039961D02*
X051457Y040551D01*
X050972Y039751D02*
X051732Y040512D01*
X050906Y046142D02*
X051732Y045315D01*
Y040512D02*
Y045315D01*
X05122Y046575D02*
X052244Y045551D01*
X051154Y039225D02*
X052244Y040315D01*
Y045551D01*
X052165Y046684D02*
X05248Y04637D01*
X051529Y039285D02*
X05248Y040236D01*
Y04637D01*
X051942Y039305D02*
X052756Y040118D01*
X052598Y046693D02*
X052756Y046535D01*
X052598Y046693D02*
Y046968D01*
X052756Y040118D02*
Y046535D01*
X052804Y039346D02*
X053622Y040164D01*
X053465Y046693D02*
X053622Y046535D01*
Y040164D02*
Y046535D01*
X053465Y046693D02*
Y046968D01*
X053032Y04D02*
Y046968D01*
X052371Y039339D02*
X053032Y04D01*
X051071Y039139D02*
X051154Y039221D01*
X051071Y038917D02*
Y039139D01*
X051154Y039221D02*
Y039225D01*
X050638Y038917D02*
Y039394D01*
X050381Y039751D02*
X050972D01*
X050205Y039575D02*
X050381Y039751D01*
X050205Y038917D02*
Y039575D01*
X049685Y040157D02*
X050748D01*
X049339Y039811D02*
X049685Y040157D01*
X050748D02*
X051181Y040591D01*
X049772Y039733D02*
X05Y039961D01*
X050866D01*
X049528Y040354D02*
X050709D01*
X050906Y040551D02*
Y044764D01*
X050709Y040354D02*
X050906Y040551D01*
X051181Y040591D02*
Y044921D01*
X049772Y038917D02*
Y039733D01*
X048906D02*
X049528Y040354D01*
X048906Y038917D02*
Y039733D01*
X049339Y038917D02*
Y039811D01*
X050433Y045669D02*
X051181Y044921D01*
X050236Y045433D02*
X050906Y044764D01*
X052804Y038917D02*
Y039346D01*
X053237Y039457D02*
X053898Y040118D01*
Y046693D01*
X053237Y038917D02*
Y039457D01*
X052165Y046684D02*
Y046693D01*
X047835Y042953D02*
X047953Y042835D01*
X04752Y042953D02*
X047835D01*
X047713Y043343D02*
X047717Y043346D01*
X047713Y043226D02*
Y043343D01*
X047657Y043171D02*
X047713Y043226D01*
X047657Y04315D02*
Y043171D01*
X056813Y028081D02*
X056862Y02813D01*
X057126D01*
X058799Y027534D02*
Y027716D01*
X058799Y027717D02*
X058799Y027716D01*
X058845Y027488D02*
X059047D01*
X058799Y027534D02*
X058845Y027488D01*
X058551Y026947D02*
Y027183D01*
X058839Y026526D02*
Y026545D01*
X058563Y026821D02*
X058839Y026545D01*
X056931Y029486D02*
X056931D01*
X05703Y029388D01*
X057128D01*
X059057Y029073D02*
X059563D01*
X059057Y029073D02*
X059057Y029073D01*
X059563Y028285D02*
X059563Y028285D01*
X059057Y028285D02*
X059563D01*
X058486Y027247D02*
X058551Y027183D01*
X058486Y027247D02*
Y027715D01*
X058563Y026821D02*
Y026935D01*
X058551Y026947D02*
X058563Y026935D01*
X059215Y027178D02*
Y027321D01*
X059047Y027488D02*
X059215Y027321D01*
X059217Y027176D02*
X059488D01*
X059215Y027178D02*
X059217Y027176D01*
X045807Y021018D02*
X045809Y021016D01*
X04608D01*
X046083Y021014D01*
X045394Y021398D02*
X045463Y021329D01*
X045394Y021398D02*
Y021555D01*
X045463Y021329D02*
X04564D01*
X045807Y021161D01*
Y021018D02*
Y021161D01*
X045143Y020787D02*
X045155Y020775D01*
Y020672D02*
Y020775D01*
Y020672D02*
X045433Y020394D01*
Y020374D02*
Y020394D01*
X045143Y020787D02*
Y021024D01*
X045079Y021088D02*
Y021555D01*
Y021088D02*
X045143Y021024D01*
X04565Y022126D02*
X046156D01*
X046156Y022126D01*
X04565Y022913D02*
X04565Y022913D01*
X046156D01*
X043622Y023228D02*
X04372D01*
X043524Y023327D02*
X043622Y023228D01*
X043524Y023327D02*
X043524D01*
X041034Y046654D02*
X043661D01*
X040798Y04689D02*
X041034Y046654D01*
X046811Y046575D02*
X05122D01*
X046614Y046772D02*
X046811Y046575D01*
X040787Y04689D02*
X040798D01*
X04126D02*
X04378D01*
X051504Y038917D02*
X051529Y038942D01*
X052165Y046693D02*
Y046968D01*
X051529Y038942D02*
Y039285D01*
X051937Y038917D02*
X051942Y038922D01*
Y039305D01*
X052371Y038917D02*
Y039339D01*
X046614Y047047D02*
X046614Y047047D01*
X046614Y046772D02*
Y047047D01*
X046181D02*
X046181Y047047D01*
X045748Y046772D02*
Y047047D01*
X045748Y046772D02*
X045748Y046772D01*
X045315D02*
Y047047D01*
X045315Y046772D02*
X045315Y046772D01*
X04126Y04689D02*
Y047165D01*
X04126Y04689D02*
X04126Y04689D01*
X040787D02*
Y047165D01*
X040787Y04689D02*
X040787Y04689D01*
X035301Y036476D02*
X035302Y036474D01*
X035301Y036476D02*
Y036926D01*
X035299Y036927D02*
X035301Y036926D01*
X034907Y036476D02*
X034908Y036474D01*
X034907Y036476D02*
Y036926D01*
X034906Y036927D02*
X034907Y036926D01*
X034513Y036476D02*
X034514Y036474D01*
X034513Y036476D02*
Y036926D01*
X034512Y036927D02*
X034513Y036926D01*
X034119Y036476D02*
X034121Y036474D01*
X034119Y036476D02*
Y036926D01*
X034118Y036927D02*
X034119Y036926D01*
X032348Y036476D02*
X032349Y036474D01*
X032348Y036476D02*
Y036926D01*
X032347Y036927D02*
X032348Y036926D01*
X031624Y037195D02*
X031625Y037196D01*
X032076D01*
X032077Y037197D01*
X031624Y037589D02*
X031625Y03759D01*
X032076D01*
X032077Y037591D01*
X031624Y037982D02*
X031625Y037983D01*
X032076D01*
X032077Y037985D01*
X031624Y038573D02*
X031625Y038574D01*
X032076D01*
X032077Y038575D01*
X031624Y038967D02*
X031625Y038968D01*
X032076D01*
X032077Y038969D01*
X032076Y039361D02*
X032077Y039362D01*
X031625Y039361D02*
X032076D01*
X031624Y03936D02*
X031625Y039361D01*
X032076Y039558D02*
X032077Y039559D01*
X031783Y039558D02*
X032076D01*
X031781Y039557D02*
X031783Y039558D01*
D17*
X045472Y043583D02*
Y04374D01*
X057126Y039646D02*
X057137D01*
X057229Y039553D02*
X057313D01*
X057137Y039646D02*
X057229Y039553D01*
X041732Y046102D02*
X041968D01*
X039331Y046496D02*
X039331Y046496D01*
Y04622D02*
Y046496D01*
X059413Y027346D02*
Y027357D01*
Y027346D02*
X059449Y02731D01*
Y027195D02*
Y02731D01*
Y027195D02*
X059468Y027176D01*
X059488D01*
X046082Y021014D02*
Y021201D01*
X058839Y026526D02*
X059026D01*
X039407Y043728D02*
X039574D01*
X039646Y043799D01*
X0394Y04372D02*
X039407Y043728D01*
X030866Y030945D02*
Y031142D01*
Y032165D02*
Y032362D01*
X030591Y019882D02*
Y020079D01*
X031024Y019882D02*
Y020079D01*
X032037Y032165D02*
Y032343D01*
Y030965D02*
Y031142D01*
X031723Y030355D02*
X031724Y030354D01*
X031723Y030355D02*
Y031141D01*
X031722Y031142D02*
X031723Y031141D01*
X031709Y032992D02*
X031716Y032985D01*
Y032172D02*
Y032985D01*
Y032172D02*
X031722Y032165D01*
X031339Y031142D02*
X031476D01*
X031339Y032165D02*
X031476D01*
X030866Y031142D02*
X03113D01*
X030866Y032165D02*
X03113D01*
X030551Y030655D02*
X030724Y030482D01*
Y030354D02*
Y030482D01*
X030551Y030655D02*
Y031142D01*
Y032707D02*
X030709Y032864D01*
Y032992D01*
X030551Y032165D02*
Y032707D01*
X045433Y020378D02*
X04562D01*
X03939Y040059D02*
X039646D01*
X03939Y04065D02*
X039646D01*
X03939Y041634D02*
X039646D01*
X03939Y042224D02*
X039646D01*
X03939Y043209D02*
X039646D01*
X043148Y020868D02*
X043433D01*
X043131Y020885D02*
X043148Y020868D01*
X042953Y020885D02*
X043131D01*
X042697Y021142D02*
X042953Y020885D01*
X055866Y027303D02*
X056083D01*
X056516Y027028D02*
X056841D01*
X056161Y027196D02*
X05633Y027028D01*
X056083Y027303D02*
X056161Y027224D01*
Y027196D02*
Y027224D01*
X05633Y027028D02*
X056516D01*
X056516Y027028D01*
X058526Y026346D02*
Y026533D01*
X045118Y020187D02*
Y020374D01*
X055304Y04185D02*
X055315D01*
X055281Y041873D02*
X055304Y04185D01*
X054988Y042913D02*
X055266D01*
X054988Y043913D02*
X05499Y043915D01*
X055274D02*
X055276Y043917D01*
X05499Y043915D02*
X055274D01*
X055028Y041873D02*
X055281D01*
X054988Y041913D02*
X055028Y041873D01*
X030482Y036644D02*
X030482Y036644D01*
Y037195D01*
X030108Y03814D02*
X030108Y03814D01*
X029596Y03814D02*
X030108D01*
X030118Y038681D02*
X030128Y038691D01*
X030108Y03814D02*
X030118Y03815D01*
Y038681D01*
X037795Y02124D02*
X037972Y021063D01*
X03864D01*
X060315Y04378D02*
Y046333D01*
X058715Y04218D02*
X060315Y04378D01*
X058715Y041639D02*
Y04218D01*
X057402Y04338D02*
X058085Y042697D01*
X058839D01*
X059447Y042473D02*
X059624D01*
X059975Y042121D01*
X059439Y04248D02*
X059447Y042473D01*
X059975Y041639D02*
Y042121D01*
X05685Y038465D02*
Y038652D01*
X057037Y038071D02*
X057037Y038071D01*
X05685Y038071D02*
X057037D01*
X056722Y038199D02*
X05685Y038071D01*
X055866Y038199D02*
X056722D01*
X055541Y037874D02*
X055866Y038199D01*
X055374Y037874D02*
X055541D01*
X056398Y038622D02*
X056555Y038465D01*
X05685D01*
X056319Y038622D02*
X056398D01*
X059975Y039906D02*
Y040497D01*
X059535Y039466D02*
X059975Y039906D01*
X059535Y039018D02*
Y039466D01*
X058715Y040064D02*
Y040497D01*
X058551Y039899D02*
X058715Y040064D01*
X058551Y039018D02*
Y039899D01*
X051752Y046959D02*
X051764Y046947D01*
Y046779D02*
Y046947D01*
Y046779D02*
X051772Y046772D01*
X051378Y046957D02*
X05175D01*
X051752Y046959D01*
X051283Y047165D02*
X051378D01*
X051024Y046968D02*
X051043Y046988D01*
X051106D02*
X051283Y047165D01*
X051043Y046988D02*
X051106D01*
X051024Y046811D02*
Y046968D01*
X044961Y046929D02*
Y047087D01*
X044593D02*
X044961D01*
X044567Y047061D02*
X044593Y047087D01*
X044446Y04727D02*
X044567D01*
X044213Y047087D02*
X044232Y047106D01*
X044282D01*
X044446Y04727D01*
X044213Y046929D02*
Y047087D01*
X039917Y047388D02*
X04D01*
X039646Y047165D02*
X039665Y047185D01*
X039714D01*
X039917Y047388D01*
X039646Y047008D02*
Y047165D01*
Y04748D02*
Y047921D01*
X038984Y048583D02*
X039646Y047921D01*
X040315Y04748D02*
Y048245D01*
X039984Y048576D02*
X040315Y048245D01*
X039984Y048576D02*
Y048583D01*
X040787Y04748D02*
Y048258D01*
X040984Y048455D01*
Y048583D01*
X04126Y04748D02*
Y047858D01*
X041984Y048583D01*
X030118Y022224D02*
X030325Y022018D01*
X03561Y030689D02*
X035612Y030687D01*
Y029546D02*
Y030687D01*
X030325Y022018D02*
X031004D01*
X030561Y039085D02*
X030561Y039085D01*
X030128Y039085D02*
X030561D01*
X030561Y039085D02*
X0306Y039045D01*
X030709D01*
X030856Y038898D01*
Y03814D02*
Y038898D01*
X044823Y047736D02*
X044961Y047598D01*
X044587Y047736D02*
X044823D01*
X044331Y047992D02*
X044587Y047736D01*
X044331Y047992D02*
Y048583D01*
X044961Y047402D02*
Y047598D01*
X045323Y04737D02*
Y048575D01*
X045315Y047362D02*
X045323Y04737D01*
X04624Y04816D02*
Y048492D01*
X045748Y047667D02*
X04624Y04816D01*
X045748Y047362D02*
Y047667D01*
X047283Y048179D02*
Y048535D01*
X047116Y048012D02*
X047283Y048179D01*
X046575Y048012D02*
X047116D01*
X046181Y047618D02*
X046575Y048012D01*
X046181Y047362D02*
Y047618D01*
X048071Y047726D02*
X048331Y047986D01*
Y048583D01*
X046772Y047726D02*
X048071D01*
X046614Y047362D02*
Y047569D01*
X046772Y047726D01*
X030988Y04166D02*
X031008Y04164D01*
X031205D01*
X031471Y041374D01*
X03181Y041379D02*
X031815Y041384D01*
X031476Y041379D02*
X03181D01*
X031471Y041374D02*
X031476Y041379D01*
D19*
X048493Y043729D02*
X048504Y04374D01*
X048452Y043635D02*
X048493Y043676D01*
Y043729D01*
X048452Y043603D02*
Y043635D01*
D24*
X044921Y044764D02*
D03*
X044528D02*
D03*
X034606Y033268D02*
D03*
X034213D02*
D03*
X055039Y030846D02*
D03*
X054646D02*
D03*
X055974D02*
D03*
X055581D02*
D03*
X055974Y031831D02*
D03*
X055581D02*
D03*
X055974Y033287D02*
D03*
X055581D02*
D03*
X055974Y03376D02*
D03*
X055581D02*
D03*
Y034232D02*
D03*
X055974D02*
D03*
Y034705D02*
D03*
X055581D02*
D03*
X055984Y031339D02*
D03*
X055591D02*
D03*
X03378Y027008D02*
D03*
X034173D02*
D03*
X038898Y02189D02*
D03*
X038504D02*
D03*
X036732Y029114D02*
D03*
X036339D02*
D03*
X036732Y029587D02*
D03*
X036339D02*
D03*
X059675Y033091D02*
D03*
X060069D02*
D03*
X044921Y044291D02*
D03*
X044528D02*
D03*
D25*
X059203Y030488D02*
D03*
Y03028D02*
D03*
X058967Y030488D02*
D03*
Y03028D02*
D03*
X058622Y030488D02*
D03*
Y03028D02*
D03*
X058356Y030482D02*
D03*
Y030274D02*
D03*
Y030693D02*
D03*
Y030902D02*
D03*
X057913Y025093D02*
D03*
Y025301D02*
D03*
X059724D02*
D03*
Y025093D02*
D03*
X05747Y026135D02*
D03*
Y026343D02*
D03*
X056693Y026392D02*
D03*
Y0266D02*
D03*
X058986Y027181D02*
D03*
Y026972D02*
D03*
X059213Y026971D02*
D03*
Y02718D02*
D03*
X057156Y026142D02*
D03*
Y02635D02*
D03*
X057785Y026135D02*
D03*
Y026343D02*
D03*
X058022Y031596D02*
D03*
Y031388D02*
D03*
X056841Y027236D02*
D03*
Y027028D02*
D03*
X044063Y020184D02*
D03*
Y019975D02*
D03*
X03622Y041628D02*
D03*
Y041837D02*
D03*
X036614Y041628D02*
D03*
Y041837D02*
D03*
X060157Y035339D02*
D03*
Y035547D02*
D03*
X060394Y035339D02*
D03*
Y035547D02*
D03*
X059144Y035616D02*
D03*
Y035407D02*
D03*
X044516Y018933D02*
D03*
Y019142D02*
D03*
X045106Y02422D02*
D03*
Y024012D02*
D03*
X044841Y024215D02*
D03*
Y024006D02*
D03*
X045579Y020813D02*
D03*
Y021022D02*
D03*
X045805Y02102D02*
D03*
Y020812D02*
D03*
X045707Y024006D02*
D03*
Y024215D02*
D03*
X046317Y019142D02*
D03*
Y018933D02*
D03*
X046829Y024815D02*
D03*
Y024606D02*
D03*
X04547Y024215D02*
D03*
Y024006D02*
D03*
X043433Y020868D02*
D03*
Y021077D02*
D03*
X043307Y020439D02*
D03*
Y02023D02*
D03*
X044378Y020184D02*
D03*
Y019975D02*
D03*
X043748Y020191D02*
D03*
Y019982D02*
D03*
X057087Y036352D02*
D03*
Y036561D02*
D03*
X057313Y039553D02*
D03*
Y039344D02*
D03*
X057933D02*
D03*
Y039553D02*
D03*
X057638Y036561D02*
D03*
Y036352D02*
D03*
X057648Y038736D02*
D03*
Y038528D02*
D03*
X057913Y035695D02*
D03*
Y035486D02*
D03*
X036654Y038175D02*
D03*
Y037967D02*
D03*
X031518Y039969D02*
D03*
Y03976D02*
D03*
X031427Y038222D02*
D03*
Y038431D02*
D03*
X036713Y039148D02*
D03*
Y039356D02*
D03*
X03154Y040171D02*
D03*
Y04038D02*
D03*
X04Y047179D02*
D03*
Y047388D02*
D03*
X044567Y047061D02*
D03*
Y04727D02*
D03*
X051378Y046957D02*
D03*
Y047165D02*
D03*
D26*
X058904Y030984D02*
D03*
X058695D02*
D03*
X031339Y031142D02*
D03*
X03113D02*
D03*
Y032165D02*
D03*
X031339D02*
D03*
X034896Y034528D02*
D03*
X035104D02*
D03*
X055236Y029203D02*
D03*
X055445D02*
D03*
X055236Y029478D02*
D03*
X055445D02*
D03*
X058756Y027185D02*
D03*
X058547D02*
D03*
X05977Y028297D02*
D03*
X059561D02*
D03*
X055236Y029754D02*
D03*
X055445D02*
D03*
X055236Y03003D02*
D03*
X055445D02*
D03*
X055236Y028927D02*
D03*
X055445D02*
D03*
X055236Y028642D02*
D03*
X055445D02*
D03*
X058757Y026959D02*
D03*
X058548D02*
D03*
X05977Y029075D02*
D03*
X059561D02*
D03*
X054868Y028031D02*
D03*
X054659D02*
D03*
X041301Y022059D02*
D03*
X04151D02*
D03*
X045141Y020789D02*
D03*
X04535D02*
D03*
Y021026D02*
D03*
X045141D02*
D03*
X042037Y023319D02*
D03*
X041829D02*
D03*
X042037Y022768D02*
D03*
X041829D02*
D03*
X042037Y023043D02*
D03*
X041829D02*
D03*
X042037Y022482D02*
D03*
X041829D02*
D03*
X036707Y040709D02*
D03*
X036915D02*
D03*
Y040157D02*
D03*
X036707D02*
D03*
X032681Y036388D02*
D03*
X03289D02*
D03*
X035693D02*
D03*
X035902D02*
D03*
X041829Y023594D02*
D03*
X042037D02*
D03*
X041829Y02387D02*
D03*
X042037D02*
D03*
X04587Y025837D02*
D03*
X046079D02*
D03*
X046154Y022128D02*
D03*
X046362D02*
D03*
X046154Y022915D02*
D03*
X046362D02*
D03*
X046016Y024205D02*
D03*
X046224D02*
D03*
X031758Y01874D02*
D03*
X031549D02*
D03*
X037809Y02189D02*
D03*
X038018D02*
D03*
X058569Y032933D02*
D03*
X05836D02*
D03*
X055772Y03747D02*
D03*
X05598D02*
D03*
X057907Y032933D02*
D03*
X058116D02*
D03*
X05974Y035787D02*
D03*
X059531D02*
D03*
X061285Y039291D02*
D03*
X061077D02*
D03*
X056177Y039035D02*
D03*
X055968D02*
D03*
X055718D02*
D03*
X05551D02*
D03*
X033795Y036388D02*
D03*
X033587D02*
D03*
X033321Y041388D02*
D03*
X03353D02*
D03*
X036915Y040433D02*
D03*
X036707D02*
D03*
X036915Y039882D02*
D03*
X036707D02*
D03*
X036915Y038937D02*
D03*
X036707D02*
D03*
X034917Y041388D02*
D03*
X034709D02*
D03*
D27*
X04076Y03996D02*
D03*
Y04016D02*
D03*
Y04036D02*
D03*
Y04055D02*
D03*
Y04075D02*
D03*
Y04095D02*
D03*
Y04114D02*
D03*
Y04134D02*
D03*
Y04154D02*
D03*
Y04173D02*
D03*
Y04193D02*
D03*
Y04213D02*
D03*
Y04232D02*
D03*
Y04252D02*
D03*
Y04272D02*
D03*
Y04292D02*
D03*
Y04311D02*
D03*
Y04331D02*
D03*
Y04351D02*
D03*
Y0437D02*
D03*
Y0439D02*
D03*
Y0441D02*
D03*
Y04429D02*
D03*
Y04449D02*
D03*
Y04469D02*
D03*
Y04488D02*
D03*
Y04508D02*
D03*
Y04528D02*
D03*
X04374D02*
D03*
Y04508D02*
D03*
Y04488D02*
D03*
Y04469D02*
D03*
Y04449D02*
D03*
Y04429D02*
D03*
Y0441D02*
D03*
Y0439D02*
D03*
Y0437D02*
D03*
Y04351D02*
D03*
Y04331D02*
D03*
Y04311D02*
D03*
Y04292D02*
D03*
Y04272D02*
D03*
Y04252D02*
D03*
Y04232D02*
D03*
Y04213D02*
D03*
Y04193D02*
D03*
Y04173D02*
D03*
Y04154D02*
D03*
Y04134D02*
D03*
Y04114D02*
D03*
Y04095D02*
D03*
Y04075D02*
D03*
Y04055D02*
D03*
Y04036D02*
D03*
Y04016D02*
D03*
Y03996D02*
D03*
D28*
X033386Y033622D02*
D03*
X032992D02*
D03*
X033386Y034252D02*
D03*
X032992D02*
D03*
D29*
X059272Y025561D02*
D03*
Y024833D02*
D03*
X058366Y025561D02*
D03*
Y024833D02*
D03*
X045864Y019402D02*
D03*
Y018673D02*
D03*
X044959Y019402D02*
D03*
Y018673D02*
D03*
D30*
X032037Y032165D02*
D03*
X031722D02*
D03*
X030866Y031142D02*
D03*
X030551D02*
D03*
X032037D02*
D03*
X031722D02*
D03*
X030551Y032165D02*
D03*
X030866D02*
D03*
X028701Y03215D02*
D03*
X029016D02*
D03*
X029016Y031142D02*
D03*
X028701D02*
D03*
X029705D02*
D03*
X03002D02*
D03*
X03002Y03215D02*
D03*
X029705D02*
D03*
X058839Y026526D02*
D03*
X058524D02*
D03*
X045431Y020376D02*
D03*
X045116D02*
D03*
X041968Y046102D02*
D03*
X042283D02*
D03*
X039331Y04622D02*
D03*
X039646D02*
D03*
D31*
X034843Y032835D02*
D03*
X034213D02*
D03*
X057057Y030906D02*
D03*
X057687Y03186D02*
D03*
X057057D02*
D03*
X057687Y031388D02*
D03*
X057057D02*
D03*
X057687Y030906D02*
D03*
X047813Y024224D02*
D03*
X047183D02*
D03*
X047815Y025157D02*
D03*
X047185D02*
D03*
X047815Y024695D02*
D03*
X047185D02*
D03*
D32*
X035109Y034232D02*
D03*
Y034035D02*
D03*
Y033839D02*
D03*
Y033642D02*
D03*
X033868D02*
D03*
Y033839D02*
D03*
Y034035D02*
D03*
Y034232D02*
D03*
D33*
X039646Y042224D02*
D03*
Y041634D02*
D03*
Y04065D02*
D03*
Y040059D02*
D03*
Y043799D02*
D03*
Y043209D02*
D03*
X030118Y022224D02*
D03*
Y021634D02*
D03*
X037795Y02124D02*
D03*
Y02065D02*
D03*
X030477Y04037D02*
D03*
Y03978D02*
D03*
X045098Y042069D02*
D03*
Y04266D02*
D03*
X030477Y041364D02*
D03*
Y041955D02*
D03*
X031471Y041374D02*
D03*
Y041965D02*
D03*
D34*
X054872Y021004D02*
D03*
Y019823D02*
D03*
X045195Y016734D02*
D03*
Y017915D02*
D03*
D35*
X055935Y020984D02*
D03*
Y019843D02*
D03*
X046258Y016754D02*
D03*
Y017896D02*
D03*
X058715Y040497D02*
D03*
Y041639D02*
D03*
X059975Y040497D02*
D03*
Y041639D02*
D03*
D36*
X059488Y027175D02*
D03*
Y02686D02*
D03*
X046081Y020701D02*
D03*
Y021016D02*
D03*
X030069Y035974D02*
D03*
Y036289D02*
D03*
X030988Y040036D02*
D03*
Y039721D02*
D03*
X045472Y043268D02*
D03*
Y043583D02*
D03*
X037087Y037677D02*
D03*
Y037992D02*
D03*
X030988Y041345D02*
D03*
Y04166D02*
D03*
X04126Y04748D02*
D03*
Y047165D02*
D03*
X040787D02*
D03*
Y04748D02*
D03*
X040315D02*
D03*
Y047165D02*
D03*
X039646D02*
D03*
Y04748D02*
D03*
X053898Y047283D02*
D03*
Y046968D02*
D03*
X046614Y047047D02*
D03*
Y047362D02*
D03*
X053465Y047283D02*
D03*
Y046968D02*
D03*
X046181Y047047D02*
D03*
Y047362D02*
D03*
X053032Y047283D02*
D03*
Y046968D02*
D03*
X045748Y047047D02*
D03*
Y047362D02*
D03*
X052598Y047283D02*
D03*
Y046968D02*
D03*
X045315Y047047D02*
D03*
Y047362D02*
D03*
X052165Y047283D02*
D03*
Y046968D02*
D03*
X044961Y047087D02*
D03*
Y047402D02*
D03*
X051752Y047274D02*
D03*
Y046959D02*
D03*
X044213Y047087D02*
D03*
Y047402D02*
D03*
X051024Y047283D02*
D03*
Y046968D02*
D03*
D37*
X056496Y025669D02*
D03*
X043Y036151D02*
D03*
Y034762D02*
D03*
Y033372D02*
D03*
X049579Y037541D02*
D03*
X043D02*
D03*
Y031983D02*
D03*
Y030594D02*
D03*
Y029204D02*
D03*
X044316Y027815D02*
D03*
X043D02*
D03*
X048263D02*
D03*
X045632D02*
D03*
X046948D02*
D03*
X044316Y037541D02*
D03*
X045632D02*
D03*
X048263D02*
D03*
X046948D02*
D03*
X052211Y033372D02*
D03*
X050895Y037541D02*
D03*
X052211D02*
D03*
Y036151D02*
D03*
Y034762D02*
D03*
Y031983D02*
D03*
Y030594D02*
D03*
Y029204D02*
D03*
X049579Y027815D02*
D03*
X052211D02*
D03*
X050895D02*
D03*
X042953Y019783D02*
D03*
D38*
X055866Y027933D02*
D03*
Y027303D02*
D03*
X042478Y021144D02*
D03*
Y021774D02*
D03*
X03561Y030689D02*
D03*
Y031319D02*
D03*
D39*
X059055Y02876D02*
D03*
Y028602D02*
D03*
X057126Y02876D02*
D03*
Y028602D02*
D03*
X059055Y02939D02*
D03*
Y027972D02*
D03*
X057126Y02939D02*
D03*
Y027972D02*
D03*
X059055Y029232D02*
D03*
Y02813D02*
D03*
X057126Y029232D02*
D03*
Y02813D02*
D03*
X059055Y029075D02*
D03*
Y028287D02*
D03*
X057126Y029075D02*
D03*
Y028287D02*
D03*
X059055Y028917D02*
D03*
Y028445D02*
D03*
X057126Y028917D02*
D03*
Y028445D02*
D03*
X043718Y022285D02*
D03*
Y022758D02*
D03*
X045648Y022285D02*
D03*
Y022758D02*
D03*
X043718Y022128D02*
D03*
Y022915D02*
D03*
X045648Y022128D02*
D03*
Y022915D02*
D03*
X043718Y02197D02*
D03*
Y023073D02*
D03*
X045648Y02197D02*
D03*
Y023073D02*
D03*
X043718Y021813D02*
D03*
Y02323D02*
D03*
X045648Y021813D02*
D03*
Y02323D02*
D03*
X043718Y022443D02*
D03*
Y0226D02*
D03*
X045648Y022443D02*
D03*
Y0226D02*
D03*
D40*
X058169Y029646D02*
D03*
Y027717D02*
D03*
X058012Y029646D02*
D03*
Y027717D02*
D03*
X058799Y029646D02*
D03*
Y027717D02*
D03*
X057382Y029646D02*
D03*
Y027717D02*
D03*
X058642Y029646D02*
D03*
Y027717D02*
D03*
X057539Y029646D02*
D03*
Y027717D02*
D03*
X058484Y029646D02*
D03*
Y027717D02*
D03*
X057697Y029646D02*
D03*
Y027717D02*
D03*
X058327Y029646D02*
D03*
Y027717D02*
D03*
X057854Y029646D02*
D03*
Y027717D02*
D03*
X044447Y021557D02*
D03*
Y023486D02*
D03*
X044919Y021557D02*
D03*
Y023486D02*
D03*
X044289Y021557D02*
D03*
Y023486D02*
D03*
X045077Y021557D02*
D03*
Y023486D02*
D03*
X044132Y021557D02*
D03*
Y023486D02*
D03*
X045234Y021557D02*
D03*
Y023486D02*
D03*
X043974Y021557D02*
D03*
Y023486D02*
D03*
X045392Y021557D02*
D03*
Y023486D02*
D03*
X044604Y021557D02*
D03*
Y023486D02*
D03*
X044762Y021557D02*
D03*
Y023486D02*
D03*
D41*
X058091Y028681D02*
D03*
X044683Y022522D02*
D03*
D42*
X058856Y031476D02*
D03*
X045994Y024717D02*
D03*
D43*
X058368Y031673D02*
D03*
Y031279D02*
D03*
X046482Y024913D02*
D03*
Y02452D02*
D03*
D44*
X054764Y027236D02*
D03*
X041406Y021264D02*
D03*
D45*
X054961Y027724D02*
D03*
X054567D02*
D03*
X041209Y021752D02*
D03*
X041602D02*
D03*
D46*
X059724Y023826D02*
D03*
X059528D02*
D03*
X059134D02*
D03*
X058937D02*
D03*
Y023497D02*
D03*
X059134D02*
D03*
X059528D02*
D03*
X059724D02*
D03*
X060472D02*
D03*
X060669D02*
D03*
X061063D02*
D03*
X06126D02*
D03*
Y023826D02*
D03*
X061063D02*
D03*
X060669D02*
D03*
X060472D02*
D03*
X050512Y023898D02*
D03*
X050315D02*
D03*
X049921D02*
D03*
X049724D02*
D03*
Y023569D02*
D03*
X049921D02*
D03*
X050315D02*
D03*
X050512D02*
D03*
X051181Y023576D02*
D03*
X051378D02*
D03*
X051772D02*
D03*
X051968D02*
D03*
Y023905D02*
D03*
X051772D02*
D03*
X051378D02*
D03*
X051181D02*
D03*
X03587Y042598D02*
D03*
X036067D02*
D03*
X036461D02*
D03*
X036658D02*
D03*
Y042926D02*
D03*
X036461D02*
D03*
X036067D02*
D03*
X03587D02*
D03*
D47*
X056555Y027421D02*
D03*
Y027028D02*
D03*
X043148Y020868D02*
D03*
Y021262D02*
D03*
X030157Y020472D02*
D03*
Y020079D02*
D03*
X057362Y036142D02*
D03*
Y036535D02*
D03*
X057313Y038573D02*
D03*
Y038967D02*
D03*
X057628Y039774D02*
D03*
Y03938D02*
D03*
X05685Y038465D02*
D03*
Y038071D02*
D03*
X029596Y03814D02*
D03*
Y037746D02*
D03*
X044547Y042601D02*
D03*
Y042207D02*
D03*
D48*
X055039Y031614D02*
D03*
Y03122D02*
D03*
X030118Y02122D02*
D03*
Y020827D02*
D03*
X030591Y020079D02*
D03*
Y020472D02*
D03*
X031024Y020472D02*
D03*
Y020079D02*
D03*
X031457Y020472D02*
D03*
Y020079D02*
D03*
X032362Y017205D02*
D03*
Y017598D02*
D03*
X035669Y028248D02*
D03*
Y028642D02*
D03*
X033563Y017205D02*
D03*
Y017598D02*
D03*
X035236Y028642D02*
D03*
Y028248D02*
D03*
X029646Y02122D02*
D03*
Y020827D02*
D03*
X029685Y020472D02*
D03*
Y020079D02*
D03*
X061575Y035699D02*
D03*
Y036093D02*
D03*
X062005Y035689D02*
D03*
Y036083D02*
D03*
X030935Y03625D02*
D03*
Y036644D02*
D03*
X030561Y038691D02*
D03*
Y039085D02*
D03*
X030128Y039085D02*
D03*
Y038691D02*
D03*
X035585Y041424D02*
D03*
Y041817D02*
D03*
X032323Y041437D02*
D03*
Y041831D02*
D03*
X037126Y035315D02*
D03*
Y035709D02*
D03*
D49*
X054488Y041913D02*
D03*
X054988D02*
D03*
X054488Y042413D02*
D03*
X054988D02*
D03*
X054488Y042913D02*
D03*
X054988D02*
D03*
X054488Y043413D02*
D03*
X054988D02*
D03*
X054488Y043913D02*
D03*
X054988D02*
D03*
D50*
X041614Y033546D02*
D03*
Y033979D02*
D03*
Y034412D02*
D03*
Y036577D02*
D03*
Y036144D02*
D03*
Y035711D02*
D03*
Y035278D02*
D03*
Y034845D02*
D03*
Y033113D02*
D03*
Y032246D02*
D03*
X053583Y038309D02*
D03*
Y037876D02*
D03*
X041614Y038309D02*
D03*
Y037443D02*
D03*
Y03701D02*
D03*
Y037876D02*
D03*
Y030514D02*
D03*
Y030081D02*
D03*
Y029648D02*
D03*
Y029215D02*
D03*
Y028782D02*
D03*
Y028349D02*
D03*
Y027916D02*
D03*
Y027483D02*
D03*
Y02705D02*
D03*
X053583Y033113D02*
D03*
Y037443D02*
D03*
Y03701D02*
D03*
Y036577D02*
D03*
Y036144D02*
D03*
Y035711D02*
D03*
Y035278D02*
D03*
Y034845D02*
D03*
Y034412D02*
D03*
Y033979D02*
D03*
Y033546D02*
D03*
Y032246D02*
D03*
Y031813D02*
D03*
Y032679D02*
D03*
Y03138D02*
D03*
Y030947D02*
D03*
Y030514D02*
D03*
Y030081D02*
D03*
Y029648D02*
D03*
Y029215D02*
D03*
X041614Y032679D02*
D03*
Y03138D02*
D03*
Y031813D02*
D03*
Y030947D02*
D03*
X053583Y02705D02*
D03*
Y028782D02*
D03*
Y028349D02*
D03*
Y027483D02*
D03*
Y027916D02*
D03*
D51*
X048473Y038917D02*
D03*
X052371D02*
D03*
X051937D02*
D03*
X051504D02*
D03*
X051071D02*
D03*
X049772D02*
D03*
X053237D02*
D03*
X050638D02*
D03*
X050205D02*
D03*
X052804D02*
D03*
X048906D02*
D03*
X049339D02*
D03*
X042843Y026437D02*
D03*
X043709D02*
D03*
X044142D02*
D03*
X044575D02*
D03*
X045008D02*
D03*
X045441D02*
D03*
X045874D02*
D03*
X041977D02*
D03*
X04241D02*
D03*
X043276D02*
D03*
X046741D02*
D03*
X04804D02*
D03*
X046308D02*
D03*
X047607D02*
D03*
X047174D02*
D03*
X047607Y038917D02*
D03*
X04804D02*
D03*
X04241D02*
D03*
X042843D02*
D03*
X041978D02*
D03*
X044142D02*
D03*
X044575D02*
D03*
X045008D02*
D03*
X045441D02*
D03*
X045874D02*
D03*
X046308D02*
D03*
X046741D02*
D03*
X043709D02*
D03*
X043276D02*
D03*
X047174D02*
D03*
X048473Y026437D02*
D03*
X050638D02*
D03*
X050205D02*
D03*
X049772D02*
D03*
X049339D02*
D03*
X051071D02*
D03*
X051504D02*
D03*
X048906D02*
D03*
X051937D02*
D03*
X052371D02*
D03*
X053237D02*
D03*
X052804D02*
D03*
D52*
X057402Y04338D02*
D03*
D53*
X060315Y046333D02*
D03*
X057402Y047081D02*
D03*
D54*
Y048183D02*
D03*
D55*
X058573Y034301D02*
D03*
X058002D02*
D03*
X058573Y033573D02*
D03*
X058002D02*
D03*
D56*
X059144Y034961D02*
D03*
X058809Y035541D02*
D03*
X058543Y034961D02*
D03*
X058268Y035551D02*
D03*
X060758Y035187D02*
D03*
X058898Y039754D02*
D03*
X056654Y036772D02*
D03*
X06127Y035187D02*
D03*
X056654Y037362D02*
D03*
X05937Y039754D02*
D03*
X061772Y037953D02*
D03*
Y038543D02*
D03*
D57*
X058059Y038723D02*
D03*
Y038329D02*
D03*
Y038132D02*
D03*
Y037936D02*
D03*
Y037345D02*
D03*
Y037148D02*
D03*
Y036951D02*
D03*
Y036558D02*
D03*
X060814Y038723D02*
D03*
Y038329D02*
D03*
Y038132D02*
D03*
Y037936D02*
D03*
Y037345D02*
D03*
Y037148D02*
D03*
Y036951D02*
D03*
Y036558D02*
D03*
X058059Y038526D02*
D03*
Y037739D02*
D03*
Y037542D02*
D03*
Y036755D02*
D03*
X060814Y038526D02*
D03*
Y037739D02*
D03*
Y037542D02*
D03*
Y036755D02*
D03*
D58*
X058354Y039018D02*
D03*
Y036262D02*
D03*
X058748Y039018D02*
D03*
X058944D02*
D03*
X059141D02*
D03*
X058748Y036262D02*
D03*
X058944D02*
D03*
X059141D02*
D03*
X059732Y039018D02*
D03*
X059929D02*
D03*
X060125D02*
D03*
X059732Y036262D02*
D03*
X059929D02*
D03*
X060125D02*
D03*
X060519Y039018D02*
D03*
Y036262D02*
D03*
X058551Y039018D02*
D03*
Y036262D02*
D03*
X059338Y039018D02*
D03*
X059535D02*
D03*
X060322D02*
D03*
X059338Y036262D02*
D03*
X059535D02*
D03*
X060322D02*
D03*
D59*
X059436Y03764D02*
D03*
D60*
X031024Y017264D02*
D03*
Y017776D02*
D03*
X031811Y017264D02*
D03*
Y017776D02*
D03*
X031024Y01752D02*
D03*
X031811D02*
D03*
D61*
X031417D02*
D03*
D62*
X031496Y0164D02*
D03*
X034016D02*
D03*
X031811D02*
D03*
X033701D02*
D03*
D63*
X032854D02*
D03*
X032657D02*
D03*
X033051D02*
D03*
X033248D02*
D03*
X033445D02*
D03*
X032461D02*
D03*
X032264D02*
D03*
X032067D02*
D03*
D64*
X032736Y017598D02*
D03*
Y017205D02*
D03*
X033169Y017598D02*
D03*
Y017205D02*
D03*
D65*
X034447Y02185D02*
D03*
X036497D02*
D03*
D66*
X036476Y025512D02*
D03*
X035335D02*
D03*
X036476Y026614D02*
D03*
X035335D02*
D03*
X036476Y02437D02*
D03*
X035335D02*
D03*
X038484Y019803D02*
D03*
X039626D02*
D03*
X033169Y019646D02*
D03*
X032028D02*
D03*
X033219Y023957D02*
D03*
X032077D02*
D03*
D67*
X03864Y021437D02*
D03*
Y021063D02*
D03*
Y020689D02*
D03*
X039628Y021437D02*
D03*
Y021063D02*
D03*
Y020689D02*
D03*
D68*
X035415Y029114D02*
D03*
X035612D02*
D03*
X035809D02*
D03*
D69*
X035415Y029547D02*
D03*
X035612Y029546D02*
D03*
X035809Y029547D02*
D03*
D70*
X034176Y026614D02*
D03*
X033776D02*
D03*
X059711Y033494D02*
D03*
X060111D02*
D03*
D71*
X031004Y021811D02*
D03*
D72*
X031289Y022441D02*
D03*
X031486D02*
D03*
X031289Y021181D02*
D03*
X031486D02*
D03*
D73*
X031004Y022018D02*
D03*
Y021604D02*
D03*
D74*
X031909Y022382D02*
D03*
Y02124D02*
D03*
D75*
X032461Y020551D02*
D03*
X03187D02*
D03*
X035807Y027421D02*
D03*
X036398D02*
D03*
X03128Y02311D02*
D03*
X030689D02*
D03*
X031919Y023071D02*
D03*
X03251D02*
D03*
X035906Y030098D02*
D03*
X035315D02*
D03*
X03128Y018307D02*
D03*
X03187D02*
D03*
X042697Y046102D02*
D03*
X043287D02*
D03*
X036821Y037185D02*
D03*
X037411D02*
D03*
X036831Y038504D02*
D03*
X037421D02*
D03*
X039587Y045354D02*
D03*
X038996D02*
D03*
D76*
X036339Y028681D02*
D03*
X036732D02*
D03*
X061949Y03686D02*
D03*
X061555D02*
D03*
X061949Y037431D02*
D03*
X061555D02*
D03*
X059439Y035512D02*
D03*
X059833D02*
D03*
X060906Y039567D02*
D03*
X061299D02*
D03*
X030089Y036644D02*
D03*
X030482D02*
D03*
X039252Y044882D02*
D03*
X039646D02*
D03*
X039252Y045827D02*
D03*
X039646D02*
D03*
X043032Y045669D02*
D03*
X042638D02*
D03*
D77*
X036575Y030945D02*
D03*
Y030197D02*
D03*
X037441Y030945D02*
D03*
Y030197D02*
D03*
D78*
X040827Y020365D02*
D03*
X040433D02*
D03*
Y019556D02*
D03*
X040827D02*
D03*
X032799Y042358D02*
D03*
X033193D02*
D03*
Y043167D02*
D03*
X032799D02*
D03*
X033547D02*
D03*
X033941D02*
D03*
Y042358D02*
D03*
X033547D02*
D03*
X035043Y043167D02*
D03*
X035437D02*
D03*
Y042358D02*
D03*
X035043D02*
D03*
X034295Y043167D02*
D03*
X034689D02*
D03*
Y042358D02*
D03*
X034295D02*
D03*
D79*
X029208Y024055D02*
D03*
Y022402D02*
D03*
Y026457D02*
D03*
Y02811D02*
D03*
D80*
X055374Y038622D02*
D03*
Y038248D02*
D03*
Y037874D02*
D03*
X056319Y038622D02*
D03*
Y037874D02*
D03*
D81*
X030856Y03814D02*
D03*
X030108D02*
D03*
X030856Y037195D02*
D03*
X030482D02*
D03*
X030108D02*
D03*
D82*
X033031Y04477D02*
D03*
X033228D02*
D03*
X033425D02*
D03*
X033622D02*
D03*
X033819D02*
D03*
X034016D02*
D03*
X034213D02*
D03*
X034409D02*
D03*
X034606D02*
D03*
X034803D02*
D03*
X035D02*
D03*
X035197D02*
D03*
X035394D02*
D03*
X035591D02*
D03*
X035787D02*
D03*
X035984D02*
D03*
X036181D02*
D03*
X036378D02*
D03*
X036575D02*
D03*
D83*
X046732Y044134D02*
D03*
X046929D02*
D03*
X047126D02*
D03*
X047323D02*
D03*
X04752D02*
D03*
X047717D02*
D03*
X047913D02*
D03*
X04811D02*
D03*
X048307D02*
D03*
X048504D02*
D03*
X048701D02*
D03*
X048898D02*
D03*
X049094D02*
D03*
X049291D02*
D03*
X046732Y043937D02*
D03*
X046929D02*
D03*
X047126D02*
D03*
X047323D02*
D03*
X04752D02*
D03*
X047717D02*
D03*
X047913D02*
D03*
X04811D02*
D03*
X048307D02*
D03*
X048504D02*
D03*
X048701D02*
D03*
X048898D02*
D03*
X049094D02*
D03*
X049291D02*
D03*
X046732Y04374D02*
D03*
X046929D02*
D03*
X047126D02*
D03*
X047323D02*
D03*
X04752D02*
D03*
X047717D02*
D03*
X047913D02*
D03*
X04811D02*
D03*
X048307D02*
D03*
X048504D02*
D03*
X048701D02*
D03*
X048898D02*
D03*
X049094D02*
D03*
X049291D02*
D03*
X046732Y043543D02*
D03*
X046929D02*
D03*
X047126D02*
D03*
X048898D02*
D03*
X049094D02*
D03*
X049291D02*
D03*
X046732Y043346D02*
D03*
X046929D02*
D03*
X047126D02*
D03*
X04752D02*
D03*
X047717D02*
D03*
X047913D02*
D03*
X04811D02*
D03*
X048307D02*
D03*
X048504D02*
D03*
X048898D02*
D03*
X049094D02*
D03*
X049291D02*
D03*
X046732Y04315D02*
D03*
X046929D02*
D03*
X047126D02*
D03*
X04752D02*
D03*
X048504D02*
D03*
X048898D02*
D03*
X049094D02*
D03*
X049291D02*
D03*
X046732Y042953D02*
D03*
X046929D02*
D03*
X047126D02*
D03*
X04752D02*
D03*
X048504D02*
D03*
X048898D02*
D03*
X049094D02*
D03*
X049291D02*
D03*
X046732Y042756D02*
D03*
X046929D02*
D03*
X047126D02*
D03*
X04752D02*
D03*
X048504D02*
D03*
X048898D02*
D03*
X049094D02*
D03*
X049291D02*
D03*
X046732Y042559D02*
D03*
X046929D02*
D03*
X047126D02*
D03*
X04752D02*
D03*
X048504D02*
D03*
X048898D02*
D03*
X049094D02*
D03*
X049291D02*
D03*
X046732Y042362D02*
D03*
X046929D02*
D03*
X047126D02*
D03*
X04752D02*
D03*
X047717D02*
D03*
X047913D02*
D03*
X04811D02*
D03*
X048307D02*
D03*
X048504D02*
D03*
X048898D02*
D03*
X049094D02*
D03*
X049291D02*
D03*
X046732Y042165D02*
D03*
X046929D02*
D03*
X047126D02*
D03*
X048701D02*
D03*
X048898D02*
D03*
X049094D02*
D03*
X049291D02*
D03*
X046732Y041968D02*
D03*
X046929D02*
D03*
X047126D02*
D03*
X047323D02*
D03*
X04752D02*
D03*
X047717D02*
D03*
X047913D02*
D03*
X04811D02*
D03*
X048307D02*
D03*
X048504D02*
D03*
X048701D02*
D03*
X048898D02*
D03*
X049094D02*
D03*
X049291D02*
D03*
X046732Y041772D02*
D03*
X046929D02*
D03*
X047126D02*
D03*
X047323D02*
D03*
X04752D02*
D03*
X047717D02*
D03*
X047913D02*
D03*
X04811D02*
D03*
X048307D02*
D03*
X048504D02*
D03*
X048701D02*
D03*
X048898D02*
D03*
X049094D02*
D03*
X049291D02*
D03*
X046732Y041575D02*
D03*
X046929D02*
D03*
X047126D02*
D03*
X047323D02*
D03*
X04752D02*
D03*
X047717D02*
D03*
X047913D02*
D03*
X04811D02*
D03*
X048307D02*
D03*
X048504D02*
D03*
X048701D02*
D03*
X048898D02*
D03*
X049094D02*
D03*
X049291D02*
D03*
D84*
X032347Y036927D02*
D03*
X032544D02*
D03*
X03274D02*
D03*
X032937D02*
D03*
X033134D02*
D03*
X033331D02*
D03*
X033528D02*
D03*
X033725D02*
D03*
X033921D02*
D03*
X034118D02*
D03*
X034315D02*
D03*
X034512D02*
D03*
X034709D02*
D03*
X034906D02*
D03*
X035103D02*
D03*
X035299D02*
D03*
X035496D02*
D03*
X035693D02*
D03*
Y040813D02*
D03*
X035496D02*
D03*
X035299D02*
D03*
X035103D02*
D03*
X034906D02*
D03*
X034709D02*
D03*
X034512D02*
D03*
X034315D02*
D03*
X034118D02*
D03*
X033921D02*
D03*
X033725D02*
D03*
X033528D02*
D03*
X033331D02*
D03*
X033134D02*
D03*
X032937D02*
D03*
X03274D02*
D03*
X032544D02*
D03*
X032347D02*
D03*
D85*
X032077Y040544D02*
D03*
Y040347D02*
D03*
Y04015D02*
D03*
Y039953D02*
D03*
Y039756D02*
D03*
Y039559D02*
D03*
Y039362D02*
D03*
Y039166D02*
D03*
Y038969D02*
D03*
Y038772D02*
D03*
Y038575D02*
D03*
Y038378D02*
D03*
Y038181D02*
D03*
Y037985D02*
D03*
Y037788D02*
D03*
Y037591D02*
D03*
Y037394D02*
D03*
Y037197D02*
D03*
X035963D02*
D03*
Y037394D02*
D03*
Y037591D02*
D03*
Y037788D02*
D03*
Y037985D02*
D03*
Y038181D02*
D03*
Y038378D02*
D03*
Y038575D02*
D03*
Y038772D02*
D03*
Y038969D02*
D03*
Y039166D02*
D03*
Y039362D02*
D03*
Y039559D02*
D03*
Y039756D02*
D03*
Y039953D02*
D03*
Y04015D02*
D03*
Y040347D02*
D03*
Y040544D02*
D03*
D86*
X038046Y034004D02*
D03*
Y034634D02*
D03*
X037101Y034004D02*
D03*
Y034634D02*
D03*
X037573D02*
D03*
Y034004D02*
D03*
X037382Y04127D02*
D03*
Y0419D02*
D03*
D87*
X037376Y042506D02*
D03*
Y043136D02*
D03*
D165*
X063032Y032776D02*
D03*
X036358Y014862D02*
D03*
X055945Y024114D02*
D03*
X02937Y045669D02*
D03*
D166*
X059331Y023826D02*
D03*
Y023497D02*
D03*
X060866D02*
D03*
Y023826D02*
D03*
X050118Y023898D02*
D03*
Y023569D02*
D03*
X051575Y023576D02*
D03*
Y023905D02*
D03*
X036264Y042598D02*
D03*
Y042926D02*
D03*
D167*
X031024Y022283D02*
D03*
Y021339D02*
D03*
X032343Y022264D02*
D03*
Y021358D02*
D03*
D168*
X032126Y021811D02*
D03*
D169*
X028458Y024557D02*
D03*
Y0219D02*
D03*
Y025955D02*
D03*
Y028612D02*
D03*
D170*
X03402Y03887D02*
D03*
D171*
X044487Y044291D02*
X044488Y044291D01*
X043741Y044291D02*
X044487D01*
X03188Y016083D02*
X032136Y015827D01*
X031811Y0164D02*
X03188Y016331D01*
Y016083D02*
Y016331D01*
X032136Y015827D02*
X033376D01*
X033632Y016083D01*
Y016331D02*
X033701Y0164D01*
X033632Y016083D02*
Y016331D01*
X045492Y043268D02*
X045522Y043238D01*
Y043218D02*
Y043238D01*
Y043218D02*
X04563Y04311D01*
X045472Y043268D02*
X045492D01*
X04563Y042283D02*
Y04311D01*
X045416Y042069D02*
X04563Y042283D01*
X045098Y042069D02*
X045416D01*
X052267Y030854D02*
X052303Y03089D01*
Y030906D01*
X052211Y030594D02*
X052267Y03065D01*
Y030854D01*
X060115Y038753D02*
Y039008D01*
X060079Y038701D02*
Y038717D01*
X060115Y039008D02*
X060125Y039018D01*
X060079Y038717D02*
X060115Y038753D01*
X039646Y044882D02*
X039647Y044881D01*
X040759D02*
X04076Y04488D01*
X039647Y044881D02*
X040759D01*
X033228Y045394D02*
X033228Y045394D01*
X033228Y04477D02*
Y045394D01*
X033228Y04477D02*
X033228Y04477D01*
X033819Y045394D02*
X033819Y045394D01*
X033819Y04477D02*
Y045394D01*
X033819Y04477D02*
X033819Y04477D01*
X034409Y045394D02*
X034409Y045394D01*
X034409Y04477D02*
Y045394D01*
X034409Y04477D02*
X034409Y04477D01*
X035Y045394D02*
X035Y045394D01*
X035Y04477D02*
Y045394D01*
X035Y04477D02*
X035Y04477D01*
X036181Y04477D02*
X036181Y04477D01*
Y045394D01*
X036181Y045394D01*
X036378Y043701D02*
X036943Y043136D01*
X037376D01*
X036378Y043701D02*
Y04477D01*
X037076Y03816D02*
Y038259D01*
X036831Y038504D02*
X037076Y038259D01*
Y03816D02*
X037087Y03815D01*
X036929Y037293D02*
Y037539D01*
X037067Y037677D01*
X037087D01*
X036821Y037185D02*
X036929Y037293D01*
X037087Y037992D02*
Y03815D01*
X035104Y03404D02*
Y034528D01*
X030069Y035797D02*
Y035974D01*
X03666Y037961D02*
X036789D01*
X036443Y037967D02*
X036654D01*
X03666Y037961D01*
X036789D02*
X036795Y037955D01*
X036707Y038937D02*
X036722Y038921D01*
Y038573D02*
Y038921D01*
X052211Y031983D02*
X052265Y031929D01*
Y031712D02*
Y031929D01*
Y031712D02*
X052283Y031693D01*
X04374Y0439D02*
X044146D01*
X04374Y0441D02*
X044188D01*
X043328Y044489D02*
X043739D01*
X04374Y04449D01*
X043327Y044488D02*
X043328Y044489D01*
X045098Y04266D02*
X045098Y04266D01*
X045098Y04266D02*
Y042943D01*
X045098Y04266D02*
X045101Y042657D01*
X045354D01*
X045098Y04266D02*
X045313Y042874D01*
X045325D01*
X044547Y042207D02*
X044961D01*
X045098Y042069D01*
X04374Y04232D02*
X044131D01*
X044135Y042324D01*
X04443D01*
X044547Y042207D01*
Y042601D02*
X045039D01*
X045098Y04266D01*
X04374Y04252D02*
X044466D01*
X044547Y042601D01*
X04374Y04429D02*
X043741Y044291D01*
X050118Y023569D02*
Y023898D01*
Y024088D01*
Y023379D02*
Y023569D01*
X051575Y024094D02*
Y024114D01*
Y023576D02*
Y023905D01*
Y024094D01*
Y023386D02*
Y023576D01*
X034896Y034528D02*
Y034676D01*
X03489Y034682D02*
X034896Y034676D01*
X035104Y034528D02*
X035111Y034534D01*
Y034678D02*
X035118Y034685D01*
X035111Y034534D02*
Y034678D01*
X034272Y034232D02*
X034567Y034528D01*
X033868Y034232D02*
X034272D01*
X034567Y034528D02*
X034896D01*
X035104Y03404D02*
X035109Y034035D01*
X059331Y024016D02*
Y024035D01*
Y023497D02*
Y023826D01*
Y024016D01*
Y023307D02*
Y023497D01*
X060866Y023307D02*
Y023497D01*
Y023826D02*
Y024016D01*
Y023497D02*
Y023826D01*
Y024016D02*
Y024035D01*
X032362Y017598D02*
Y017795D01*
X033563Y017598D02*
X03378D01*
X033169D02*
X033563D01*
X032736D02*
X033169D01*
X032362D02*
X032736D01*
X032362Y017598D02*
X032362Y017598D01*
X029862Y021634D02*
X030118D01*
X030118Y02122D02*
Y021634D01*
X030118Y021634D01*
X030295Y021811D02*
X031004D01*
X030118Y021634D02*
X030295Y021811D01*
X043032Y045472D02*
X043224Y04528D01*
X043032Y045472D02*
Y045669D01*
X043224Y04528D02*
X04374D01*
X042283Y046102D02*
X042697D01*
X042638Y045669D02*
Y046043D01*
X042697Y046102D01*
X042638Y044695D02*
X043043Y04429D01*
X042638Y044695D02*
Y045669D01*
X043043Y04429D02*
X04374D01*
X039745Y03996D02*
X04076D01*
X039646Y040059D02*
X039745Y03996D01*
X039746Y04075D02*
X04076D01*
X039646Y04065D02*
X039746Y04075D01*
X03974Y04154D02*
X04076D01*
X039646Y041634D02*
X03974Y04154D01*
X039646Y042224D02*
X039741Y04232D01*
X04076D01*
X039745Y04311D02*
X04076D01*
X039646Y043209D02*
X039745Y04311D01*
X039746Y0439D02*
X04076D01*
X039646Y043799D02*
X039746Y0439D01*
X053898Y046693D02*
X053898Y046693D01*
X036535Y040433D02*
X036707D01*
X036449Y040347D02*
X036535Y040433D01*
X035963Y040347D02*
X036449D01*
X035693Y040813D02*
Y041092D01*
X036715Y039358D02*
X036858D01*
X036361Y039166D02*
X036551Y039356D01*
X036713D01*
X035963Y039166D02*
X036361D01*
X036654Y038175D02*
X036656Y038177D01*
X036789D01*
X036791Y038179D01*
X036707Y039142D02*
X036713Y039148D01*
X036925Y038927D02*
X036959D01*
X036915Y038937D02*
X036925Y038927D01*
X036959D02*
X037411Y038474D01*
Y037185D02*
Y038474D01*
X03651Y038175D02*
X036693D01*
X036307Y038378D02*
X03651Y038175D01*
X035963Y038378D02*
X036307D01*
X036228Y038181D02*
X036443Y037967D01*
X035963Y038181D02*
X036228D01*
X036535Y038937D02*
X036707D01*
X036504Y038969D02*
X036535Y038937D01*
X035963Y038969D02*
X036504D01*
X036262Y042404D02*
Y042596D01*
X03626Y042402D02*
X036262Y042404D01*
Y042596D02*
X036264Y042598D01*
Y042926D01*
X034709Y040813D02*
Y041388D01*
Y040813D02*
X034709Y040813D01*
X034709Y041388D02*
X034709Y041388D01*
X033528Y040813D02*
X033529Y040814D01*
Y041387D01*
X03353Y041388D01*
X031008Y039721D02*
X031047Y03976D01*
X031518D01*
X03152Y039758D01*
X032075D02*
X032077Y039756D01*
X03152Y039758D02*
X032075D01*
X035302Y04109D02*
X035305Y041093D01*
X035299Y040813D02*
X035302Y040816D01*
Y04109D01*
X032744Y040817D02*
Y041035D01*
X03274Y040813D02*
X032744Y040817D01*
Y041035D02*
X032835Y041126D01*
Y041142D01*
X032933Y040817D02*
X032937Y040813D01*
X032933Y040817D02*
Y041027D01*
X032835Y041126D02*
X032933Y041027D01*
X034116Y040815D02*
X034118Y040813D01*
X034116Y040815D02*
Y0411D01*
X034114Y041102D02*
X034116Y0411D01*
X031638Y04037D02*
X031854Y040154D01*
X03154Y04038D02*
X031549Y04037D01*
X031638D01*
X031854Y040154D02*
X032073D01*
X032077Y04015D01*
X030915Y03625D02*
X030935D01*
X030069Y035974D02*
X030659D01*
X030866Y036201D02*
X030915Y03625D01*
X030659Y035974D02*
X030866Y036182D01*
Y036201D01*
X030069Y035974D02*
X030069Y035974D01*
X053898Y046693D02*
Y046968D01*
X057402Y048183D02*
X060163D01*
X061299Y047047D01*
X057313Y038396D02*
Y038573D01*
X057628Y039774D02*
X057633Y039779D01*
Y039946D01*
X057638Y039951D01*
X057628Y039774D02*
X057677Y039724D01*
X057762D01*
X057933Y039553D01*
X057313Y038967D02*
Y039344D01*
X057323Y039354D02*
X057602D01*
X057313Y039344D02*
X057323Y039354D01*
X057602D02*
X057628Y03938D01*
X057313Y038967D02*
X057533Y038746D01*
X057638D02*
X057648Y038736D01*
X057533Y038746D02*
X057638D01*
X057348Y038537D02*
X057638D01*
X057648Y038528D01*
X057313Y038573D02*
X057348Y038537D01*
X058058Y038527D02*
X058059Y038526D01*
X057648Y038527D02*
X058058D01*
X057648Y038528D02*
X057648Y038527D01*
X057648Y038736D02*
X057661Y038723D01*
X058059D01*
X058343Y039029D02*
Y039246D01*
Y039029D02*
X058354Y039018D01*
X058244Y039344D02*
X058343Y039246D01*
X057933Y039344D02*
X058244D01*
X057654Y039354D02*
X057923D01*
X057933Y039344D01*
X057628Y03938D02*
X057654Y039354D01*
X057088Y036559D02*
X058057D01*
X057087Y036561D02*
X057088Y036559D01*
X058057D02*
X058059Y036558D01*
X059833Y035325D02*
Y035512D01*
Y035325D02*
X059833Y035325D01*
X059439Y035325D02*
Y035512D01*
Y035325D02*
X059439Y035325D01*
X059531Y035604D02*
Y035787D01*
X059439Y035512D02*
X059531Y035604D01*
X05974Y035787D02*
X05975Y035778D01*
Y035594D02*
Y035778D01*
Y035594D02*
X059833Y035512D01*
X059533Y036261D02*
X059535Y036262D01*
X059533Y035789D02*
Y036261D01*
X059531Y035787D02*
X059533Y035789D01*
X059732Y036262D02*
X059736Y036258D01*
Y035792D02*
Y036258D01*
Y035792D02*
X05974Y035787D01*
X063593Y036624D02*
X063632Y036585D01*
X063041Y036624D02*
X063593D01*
X061949Y03686D02*
X062805D01*
X063041Y036624D01*
X063612Y037707D02*
X063632Y037726D01*
X063071Y037707D02*
X063612D01*
X061949Y037431D02*
X062795D01*
X063071Y037707D01*
X061358Y03686D02*
X061555D01*
X061267Y036951D02*
X061358Y03686D01*
X060814Y036951D02*
X061267D01*
X061348Y037431D02*
X061555D01*
X061262Y037345D02*
X061348Y037431D01*
X060814Y037345D02*
X061262D01*
X061299Y039567D02*
Y047047D01*
X059803Y03937D02*
X059819D01*
X059848Y039342D01*
X059871D01*
X059929Y039018D02*
Y039284D01*
X059871Y039342D02*
X059929Y039284D01*
X059732Y039018D02*
Y039299D01*
X059803Y03937D01*
X030856Y036713D02*
Y037195D01*
Y036713D02*
X030925Y036644D01*
X030935D01*
X051019Y047283D02*
X051024D01*
X050989Y047313D02*
X051019Y047283D01*
X050777Y047651D02*
X050989Y047438D01*
Y047313D02*
Y047438D01*
X050697Y048043D02*
Y048562D01*
X050677Y048583D02*
X050697Y048562D01*
X050866Y047874D02*
X051378D01*
X050697Y048043D02*
X050866Y047874D01*
X051378D02*
X051752Y0475D01*
X049908Y047651D02*
X050777D01*
X049677Y047882D02*
X049908Y047651D01*
X049677Y047882D02*
Y048583D01*
X051752Y047274D02*
Y0475D01*
X051677Y048008D02*
Y048583D01*
Y048008D02*
X052165Y04752D01*
Y047283D02*
Y04752D01*
X044213Y047402D02*
Y047638D01*
X044055Y047795D02*
X044213Y047638D01*
X043504Y047795D02*
X044055D01*
X043331Y047969D02*
X043504Y047795D01*
X043331Y047969D02*
Y048583D01*
X053032Y047283D02*
Y04749D01*
X053592Y048051D01*
Y048498D01*
X054039Y047628D02*
X055394D01*
X053898Y047486D02*
X054039Y047628D01*
X053898Y047283D02*
Y047486D01*
X055394Y047628D02*
X055677Y047911D01*
X053848Y047844D02*
X05439D01*
X054604Y048059D01*
X053465Y047461D02*
X053848Y047844D01*
X054604Y04851D02*
X054677Y048583D01*
X054604Y048059D02*
Y04851D01*
X055677Y047911D02*
Y048583D01*
X053465Y047283D02*
Y047461D01*
X053592Y048498D02*
X053677Y048583D01*
X052598Y047283D02*
X052608D01*
X052638Y047313D01*
Y048543D01*
X052677Y048583D01*
X030732Y040036D02*
X030988D01*
X030477Y03978D02*
X030732Y040036D01*
D172*
X05623Y032825D02*
X056978D01*
X057323Y03248D01*
X044508Y029469D02*
Y029902D01*
X043Y031409D02*
X044508Y029902D01*
X043Y031409D02*
Y031983D01*
X055094Y03652D02*
Y038047D01*
X055295Y038248D01*
X055374D01*
X055094Y03652D02*
X055571Y036043D01*
X037101Y03529D02*
X037126Y035315D01*
X037101Y034634D02*
Y03529D01*
Y034634D02*
X037573D01*
Y034634D02*
X037573Y034634D01*
X037795Y034886D02*
Y038819D01*
X037573Y034664D02*
X037795Y034886D01*
X037573Y034634D02*
Y034664D01*
X037573Y034634D02*
X038046D01*
X037283Y039331D02*
X037795Y038819D01*
X037874Y033583D02*
Y033802D01*
X038046Y033974D02*
Y034004D01*
X037874Y033802D02*
X038046Y033974D01*
X037101Y033974D02*
X037323Y033752D01*
X037101Y033974D02*
Y034004D01*
X037323Y033583D02*
Y033752D01*
X037586Y033595D02*
Y033991D01*
Y033595D02*
X037598Y033583D01*
X037573Y034004D02*
X037586Y033991D01*
X035967Y040154D02*
X036703D01*
X05185Y028809D02*
Y028827D01*
X052211Y029187D02*
Y029204D01*
X05185Y028827D02*
X052211Y029187D01*
X055354Y038642D02*
Y038819D01*
Y038642D02*
X055374Y038622D01*
X057323Y031171D02*
Y03248D01*
X057057Y030906D02*
X057087D01*
X057133Y030952D01*
Y030982D01*
X057323Y031171D01*
X037372Y04314D02*
X037376Y043136D01*
X037372Y04314D02*
Y043425D01*
X043005Y029208D02*
X043697D01*
X043701Y029213D01*
X043Y029204D02*
X043005Y029208D01*
X031722Y040541D02*
Y040699D01*
Y040541D02*
X031888Y040376D01*
X032048D01*
X032077Y040347D01*
X0319Y040915D02*
X032077Y040738D01*
Y040544D02*
Y040738D01*
X049579Y027491D02*
Y027815D01*
X050895Y027491D02*
Y027815D01*
X043573Y032096D02*
X043583Y032106D01*
Y03279D01*
X043Y033372D02*
X043583Y03279D01*
X031486Y020837D02*
Y021181D01*
X031378Y020728D02*
X031486Y020837D01*
X031378Y020547D02*
Y020728D01*
X031452Y020472D02*
X031457D01*
X031378Y020547D02*
X031452Y020472D01*
X044252Y023997D02*
Y024134D01*
Y023997D02*
X044447Y023802D01*
Y023486D02*
Y023802D01*
X044055Y024016D02*
Y024331D01*
X044289Y023486D02*
Y023781D01*
X044055Y024016D02*
X044289Y023781D01*
X044449Y02397D02*
Y024331D01*
Y02397D02*
X044604Y023815D01*
Y023486D02*
Y023815D01*
X043709Y024165D02*
Y026437D01*
X044132Y023486D02*
Y023742D01*
X043709Y024165D02*
X044132Y023742D01*
X043276Y024401D02*
Y026437D01*
Y024401D02*
X043974Y023703D01*
Y023486D02*
Y023703D01*
X043415Y036151D02*
X043415Y036152D01*
X043Y036151D02*
X043001Y036151D01*
X043415D01*
X043001Y034763D02*
X043414D01*
X043Y034762D02*
X043001Y034763D01*
X043414D02*
X043415Y034764D01*
X036703Y040154D02*
X036707Y040157D01*
X035963Y04015D02*
X035967Y040154D01*
D173*
X03999Y022008D02*
X040093Y021905D01*
X03999Y022008D02*
Y022333D01*
X039764Y022559D02*
X03999Y022333D01*
X040093Y021905D02*
X040418D01*
X040522Y021801D01*
X040685Y020587D02*
Y020669D01*
Y020587D02*
X04078Y020492D01*
X04078D01*
X040827Y020445D01*
Y020365D02*
Y020445D01*
X040685Y020669D02*
X040842Y020827D01*
X040575Y020587D02*
Y020715D01*
X04048Y020492D02*
X040575Y020587D01*
X04048Y020492D02*
X04048D01*
X040433Y020445D02*
X04048Y020492D01*
X040433Y020365D02*
Y020445D01*
X039919Y020462D02*
X040118Y020662D01*
X039919Y020378D02*
X040118Y020179D01*
X039919Y020378D02*
Y020462D01*
X040118Y020662D02*
Y021116D01*
Y020082D02*
Y020179D01*
X040827Y019476D02*
Y019556D01*
X040681Y01933D02*
X040827Y019476D01*
X040681Y018851D02*
Y01933D01*
X040571Y018843D02*
Y019339D01*
X040433Y019476D02*
Y019556D01*
Y019476D02*
X040571Y019339D01*
X040236Y018508D02*
X040571Y018843D01*
X040681Y018851D02*
X041024Y018508D01*
X040433Y019556D02*
Y019636D01*
X040685Y019778D02*
Y019906D01*
X04078Y019683D02*
X04078D01*
X040685Y019778D02*
X04078Y019683D01*
X04078D02*
X040827Y019636D01*
X04048Y019683D02*
X040575Y019778D01*
Y01986D01*
X04048Y019683D02*
X04048D01*
X040433Y019636D02*
X04048Y019683D01*
X032375Y016908D02*
X032434Y016967D01*
X032486D01*
X03261Y016843D01*
X032678D01*
X032375Y016749D02*
Y016908D01*
X032459Y016402D02*
X032461Y0164D01*
X032459Y016402D02*
Y016665D01*
X032375Y016749D02*
X032459Y016665D01*
X032678Y016843D02*
X032764Y016929D01*
X032795D01*
X041498Y028782D02*
X041614D01*
X040128Y028691D02*
X040141D01*
X041338Y028622D02*
X041498Y028782D01*
X04021Y028622D02*
X041338D01*
X040141Y028691D02*
X04021Y028622D01*
Y028512D02*
X04134D01*
X040128Y028435D02*
X040133D01*
X04134Y028512D02*
X041503Y028349D01*
X041614D01*
X040133Y028435D02*
X04021Y028512D01*
X039764Y022559D02*
Y029213D01*
X039874Y022605D02*
Y029167D01*
X040083Y029376D02*
X04134D01*
X040038Y029486D02*
X04134D01*
X039764Y029213D02*
X040038Y029486D01*
X039874Y029167D02*
X040083Y029376D01*
X039874Y022605D02*
X040632Y021847D01*
X041291Y020599D02*
X041378Y020512D01*
X040433Y021382D02*
X040522Y02147D01*
X040433Y021378D02*
Y021382D01*
X04134Y029486D02*
X041501Y029648D01*
X041614D01*
X040842Y020827D02*
X041102D01*
X041181Y020748D01*
Y020591D02*
Y020748D01*
X041102Y020512D02*
X041181Y020591D01*
X040632Y021473D02*
X040709Y021396D01*
X041501Y029215D02*
X041614D01*
X04134Y029376D02*
X041501Y029215D01*
X040797Y020937D02*
X041148D01*
X041259Y020826D01*
X041291Y020599D02*
Y020794D01*
X041259Y020826D02*
X041291Y020794D01*
X040709Y021378D02*
Y021396D01*
X040575Y020715D02*
X040797Y020937D01*
X040632Y021473D02*
Y021847D01*
X040522Y02147D02*
Y021801D01*
X040228Y020127D02*
Y021162D01*
X040291Y019908D02*
X040526D01*
X040118Y020082D02*
X040291Y019908D01*
X040337Y020018D02*
X040572D01*
X040228Y020127D02*
X040337Y020018D01*
X040085Y021305D02*
X040228Y021162D01*
X040572Y020018D02*
X040685Y019906D01*
X040526Y019908D02*
X040575Y01986D01*
X040827Y019556D02*
Y019636D01*
X03984Y021335D02*
X03987Y021305D01*
X03984Y021335D02*
Y021345D01*
X03987Y021305D02*
X040085D01*
X039628Y021437D02*
X039748D01*
X03984Y021345D01*
X03987Y021195D02*
X040039D01*
X03984Y021165D02*
X03987Y021195D01*
X040039D02*
X040118Y021116D01*
X03984Y021155D02*
Y021165D01*
X039628Y021063D02*
X039748D01*
X03984Y021155D01*
X032736Y016988D02*
Y017205D01*
X033159Y016978D02*
Y017195D01*
X033169Y017205D01*
X033105Y016924D02*
X033159Y016978D01*
X033051Y01687D02*
X033105Y016924D01*
X033051Y0164D02*
Y01687D01*
X032854Y0164D02*
Y01687D01*
X032736Y016988D02*
X032795Y016929D01*
X032854Y01687D01*
D174*
X032314Y017156D02*
X032362Y017205D01*
X032264Y0164D02*
Y017018D01*
X032314Y017068D02*
Y017156D01*
X032264Y017018D02*
X032314Y017068D01*
X033525Y017166D02*
X033563Y017205D01*
X033525Y017068D02*
Y017166D01*
X033445Y0164D02*
Y016988D01*
X033525Y017068D01*
D175*
X032657Y016093D02*
Y0164D01*
X032726Y016024D02*
X032992D01*
X032657Y016093D02*
X032726Y016024D01*
X032992D02*
X033055Y016086D01*
Y016396D01*
D176*
X044188Y042137D02*
X044213D01*
X044131Y04208D02*
X044188Y042137D01*
X043975Y04213D02*
X044025Y04208D01*
X044131D01*
X04374Y04213D02*
X043975D01*
X044025Y04198D02*
X044131D01*
X04419Y04192D01*
X043975Y04193D02*
X044025Y04198D01*
X04419Y04192D02*
X044213D01*
X04374Y04193D02*
X043975D01*
X044188Y043317D02*
X044213D01*
X04374Y04331D02*
X043975D01*
X044025Y04326D02*
X044131D01*
X044188Y043317D01*
X043975Y04331D02*
X044025Y04326D01*
Y04316D02*
X044131D01*
X04419Y0431D01*
X043975Y04311D02*
X044025Y04316D01*
X04374Y04311D02*
X043975D01*
X04419Y0431D02*
X044213D01*
X043505Y04174D02*
X04374D01*
X043349Y04159D02*
X043455D01*
X043505Y04154D01*
X04374D01*
X043292Y041532D02*
X043349Y04159D01*
X043268Y041532D02*
X043292D01*
X043268Y041749D02*
X04329D01*
X043349Y04169D01*
X043455D02*
X043505Y04174D01*
X043349Y04169D02*
X043455D01*
X04329Y042929D02*
X043349Y04287D01*
X043268Y042929D02*
X04329D01*
X043505Y04292D02*
X04374D01*
X043455Y04287D02*
X043505Y04292D01*
X043349Y04287D02*
X043455D01*
Y04277D02*
X043505Y04272D01*
X04374D01*
X043349Y04277D02*
X043455D01*
X043292Y042712D02*
X043349Y04277D01*
X043268Y042712D02*
X043292D01*
X059724Y026289D02*
Y026516D01*
Y026289D02*
X059921Y026093D01*
X059724Y026516D02*
X059921Y026713D01*
Y02458D02*
Y026093D01*
Y026713D02*
Y027844D01*
X0576Y023043D02*
Y023394D01*
Y023043D02*
X05772Y022923D01*
X0576Y023394D02*
X057758Y023552D01*
X0575Y023002D02*
Y023435D01*
Y023002D02*
X057679Y022823D01*
X0575Y023435D02*
X057717Y023652D01*
X05772Y022923D02*
X058681D01*
X057679Y022823D02*
X05864D01*
X057758Y023552D02*
X057925D01*
X057717Y023652D02*
X057966D01*
X058004Y023614D02*
X058004D01*
X058074Y023543D01*
X057966Y023652D02*
X058004Y023614D01*
X057925Y023552D02*
X058396Y023081D01*
X059992Y027915D02*
Y027915D01*
Y027915D02*
X060021Y027886D01*
X059806Y028101D02*
X059992Y027915D01*
X060021Y024539D02*
Y027886D01*
X059813Y024331D02*
X060021Y024539D01*
X059216Y024331D02*
X059813D01*
X059188Y028109D02*
X059196Y028101D01*
X059806D01*
X059105Y023921D02*
X059111D01*
X059134Y023826D02*
Y023898D01*
Y023754D02*
Y023826D01*
X059111Y023921D02*
X059134Y023898D01*
X059111Y023592D02*
X059134Y023569D01*
Y023497D02*
Y023569D01*
Y023425D02*
Y023497D01*
X059111Y023402D02*
X059134Y023425D01*
X059111Y023731D02*
X059134Y023754D01*
X059105Y023592D02*
X059111D01*
X059105Y023731D02*
X059111D01*
X059105Y023402D02*
X059111D01*
X059085Y023383D02*
X059105Y023402D01*
X059076Y028109D02*
X059188D01*
X059085Y0242D02*
X059216Y024331D01*
X059085Y023712D02*
X059105Y023731D01*
X059085Y023611D02*
X059105Y023592D01*
X059085Y02394D02*
X059105Y023921D01*
X059085Y02394D02*
Y0242D01*
Y023611D02*
Y023712D01*
X059055Y02813D02*
X059076Y028109D01*
X058681Y022923D02*
X05886Y022744D01*
Y022586D02*
Y022744D01*
Y022586D02*
X059207Y022239D01*
X059196Y028001D02*
X059765D01*
X059921Y027844D01*
X059188Y027993D02*
X059196Y028001D01*
X059772Y024431D02*
X059921Y02458D01*
X059175Y024431D02*
X059772D01*
X059076Y027993D02*
X059188D01*
X059055Y027972D02*
X059076Y027993D01*
X058985Y024241D02*
X059175Y024431D01*
X058985Y02394D02*
Y024241D01*
X058966Y023921D02*
X058985Y02394D01*
X05896Y023921D02*
X058966D01*
X058985Y023611D02*
Y023712D01*
X058966Y023592D02*
X058985Y023611D01*
X058966Y023731D02*
X058985Y023712D01*
X05896Y023592D02*
X058966D01*
X058937Y023754D02*
X05896Y023731D01*
X058966D01*
X058937Y023826D02*
Y023898D01*
Y023425D02*
Y023497D01*
Y023569D02*
X05896Y023592D01*
X058937Y023898D02*
X05896Y023921D01*
X058937Y023497D02*
Y023569D01*
Y023754D02*
Y023826D01*
X058074Y023543D02*
Y023543D01*
X05864Y022823D02*
X05876Y022703D01*
Y022592D02*
Y022703D01*
X058407Y022239D02*
X05876Y022592D01*
X058074Y023543D02*
X058437Y023181D01*
X059085Y023196D02*
Y023383D01*
X05897Y023081D02*
X059085Y023196D01*
X058937Y023425D02*
X058985Y023377D01*
Y023237D02*
Y023377D01*
X058929Y023181D02*
X058985Y023237D01*
X058396Y023081D02*
X05897D01*
X058437Y023181D02*
X058929D01*
X059576Y023059D02*
Y023219D01*
X059529Y023012D02*
X059576Y023059D01*
X059478Y023012D02*
X059529D01*
X059432Y022965D02*
X059478Y023012D01*
X059432Y022826D02*
Y022965D01*
Y022826D02*
X059478Y022779D01*
X059529D01*
X059576Y022732D01*
Y022716D02*
Y022732D01*
Y023219D02*
Y023383D01*
Y02257D02*
Y022716D01*
X060315Y024439D02*
Y02836D01*
X059989Y024113D02*
X060315Y024439D01*
X059947Y024213D02*
X060215Y02448D01*
X06006Y028474D02*
X060215Y028319D01*
X060101Y028574D02*
X060315Y02836D01*
X060215Y02448D02*
Y028319D01*
X059578Y028789D02*
X059646Y02872D01*
X059922D02*
X05999Y028789D01*
X059646Y02872D02*
X059922D01*
X05999Y028789D02*
X060391D01*
X059196D02*
X059578D01*
X060394Y024321D02*
X060521Y024448D01*
X060394Y024154D02*
Y024321D01*
Y024154D02*
X060521Y024026D01*
Y024448D02*
Y024576D01*
X059705Y024213D02*
X059947D01*
X059746Y024113D02*
X059989D01*
X060521Y02394D02*
Y024026D01*
X060187Y02253D02*
X060521Y022863D01*
X060287Y022488D02*
X060621Y022822D01*
X060187Y021969D02*
X060421Y021734D01*
X060187Y021969D02*
Y02253D01*
X060287Y02201D02*
X060463Y021834D01*
X060287Y02201D02*
Y022488D01*
X060463Y021834D02*
X060755D01*
X060421Y021734D02*
X060713D01*
X060797Y024596D02*
X060906Y024705D01*
X060786Y025189D02*
X060906Y025069D01*
X060806Y024746D02*
Y025027D01*
X060744Y025089D02*
X060806Y025027D01*
X060756Y024696D02*
X060806Y024746D01*
X060906Y024705D02*
Y025069D01*
X060641Y024696D02*
X060756D01*
X060683Y024596D02*
X060797D01*
X060521Y024576D02*
X060641Y024696D01*
X06064Y025089D02*
X060744D01*
X060681Y025189D02*
X060786D01*
X060521Y025207D02*
X06064Y025089D01*
X060621Y025249D02*
Y025804D01*
Y025249D02*
X060681Y025189D01*
X060521Y025207D02*
Y025846D01*
X06064Y025965D01*
X060776Y026248D02*
X060845Y026179D01*
Y026026D02*
Y026179D01*
X060784Y025965D02*
X060845Y026026D01*
X060945Y025984D02*
Y02622D01*
X060825Y025865D02*
X060945Y025984D01*
X060817Y026348D02*
X060945Y02622D01*
X060681Y025865D02*
X060825D01*
X06064Y025965D02*
X060784D01*
X060621Y025804D02*
X060681Y025865D01*
X0607Y026348D02*
X060817D01*
X060658Y026248D02*
X060776D01*
X060621Y026427D02*
Y0287D01*
X060521Y026386D02*
Y028659D01*
X060502Y023402D02*
X060521Y023383D01*
Y022863D02*
Y023383D01*
X060502Y023592D02*
X060521Y023611D01*
X060713Y021734D02*
X060764Y021683D01*
Y021473D02*
Y021683D01*
X06053Y021239D02*
X060764Y021473D01*
X060502Y023921D02*
X060521Y02394D01*
X060495Y023921D02*
X060502D01*
Y023731D02*
X060521Y023712D01*
Y023611D02*
Y023712D01*
X060495Y023402D02*
X060502D01*
X060472Y023898D02*
X060495Y023921D01*
X060391Y028789D02*
X060521Y028659D01*
X060472Y023754D02*
X060495Y023731D01*
X060502D01*
X060472Y023754D02*
Y023826D01*
X059188Y028781D02*
X059196Y028789D01*
X059076Y028781D02*
X059188D01*
X060472Y023826D02*
Y023898D01*
X059055Y02876D02*
X059076Y028781D01*
X060495Y023592D02*
X060502D01*
X060472Y023425D02*
X060495Y023402D01*
X060407Y021239D02*
X06053D01*
X060472Y023569D02*
X060495Y023592D01*
X060472Y023497D02*
Y023569D01*
Y023425D02*
Y023497D01*
X060646Y023921D02*
X060669Y023898D01*
Y023826D02*
Y023898D01*
Y023754D02*
Y023826D01*
X06064Y023731D02*
X060646D01*
X060755Y021834D02*
X060864Y021725D01*
Y021469D02*
Y021725D01*
Y021469D02*
X061094Y021239D01*
X061207D01*
X060646Y023731D02*
X060669Y023754D01*
X060646Y023592D02*
X060669Y023569D01*
X06064Y023592D02*
X060646D01*
X060669Y023497D02*
Y023569D01*
Y023425D02*
Y023497D01*
X060646Y023402D02*
X060669Y023425D01*
X060621Y024535D02*
X060683Y024596D01*
X060621Y02394D02*
Y024535D01*
X059055Y028917D02*
X059076Y028896D01*
X059188D01*
X059196Y028889D02*
X060432D01*
X060621Y0287D01*
X059188Y028896D02*
X059196Y028889D01*
X06064Y023921D02*
X060646D01*
X060621Y023611D02*
X06064Y023592D01*
X060621Y023712D02*
X06064Y023731D01*
Y023402D02*
X060646D01*
X060621Y023383D02*
X06064Y023402D01*
X060621Y023611D02*
Y023712D01*
Y022822D02*
Y023383D01*
Y02394D02*
X06064Y023921D01*
X060521Y026386D02*
X060658Y026248D01*
X060621Y026427D02*
X0607Y026348D01*
X061111Y02394D02*
Y024085D01*
X060955Y024241D02*
X061111Y024085D01*
X060955Y024241D02*
Y024429D01*
X061111Y024586D01*
Y029125D01*
X060975Y029261D02*
X061111Y029125D01*
X061017Y029361D02*
X061211Y029166D01*
X059196Y029361D02*
X061017D01*
X061211Y02394D02*
Y029166D01*
X059196Y029261D02*
X060975D01*
X06126Y023754D02*
Y023826D01*
X061237Y023731D02*
X06126Y023754D01*
Y023497D02*
Y023569D01*
Y023425D02*
Y023497D01*
X061237Y023592D02*
X06126Y023569D01*
X061237Y023921D02*
X06126Y023898D01*
Y023826D02*
Y023898D01*
X061231Y023921D02*
X061237D01*
X061231Y023592D02*
X061237D01*
X061231Y023731D02*
X061237D01*
X061581Y023051D02*
X061594D01*
X061513Y022983D02*
X061581Y023051D01*
X061237Y023402D02*
X06126Y023425D01*
X061231Y023402D02*
X061237D01*
X061308Y022983D02*
X061513D01*
X061211Y02308D02*
X061308Y022983D01*
X061211Y02394D02*
X061231Y023921D01*
X059055Y02939D02*
X059076Y029369D01*
X059188D01*
X059196Y029361D01*
X061211Y023611D02*
X061231Y023592D01*
X061211Y023383D02*
X061231Y023402D01*
X061211Y023712D02*
X061231Y023731D01*
X061211Y02308D02*
Y023383D01*
Y023611D02*
Y023712D01*
X061111Y023611D02*
Y023712D01*
X061092Y023402D02*
X061111Y023383D01*
X061092Y023592D02*
X061111Y023611D01*
Y023038D02*
X061267Y022883D01*
X061513D01*
X061111Y023038D02*
Y023383D01*
X061092Y023921D02*
X061111Y02394D01*
X061086Y023921D02*
X061092D01*
Y023731D02*
X061111Y023712D01*
X061086Y023402D02*
X061092D01*
X061513Y022883D02*
X061581Y022815D01*
X061594D01*
X061063Y023826D02*
Y023898D01*
X061086Y023921D01*
X059188Y029253D02*
X059196Y029261D01*
X059076Y029253D02*
X059188D01*
X059055Y029232D02*
X059076Y029253D01*
X061086Y023731D02*
X061092D01*
X061086Y023592D02*
X061092D01*
X061063Y023569D02*
X061086Y023592D01*
X061063Y023425D02*
X061086Y023402D01*
X061063Y023754D02*
Y023826D01*
Y023754D02*
X061086Y023731D01*
X061063Y023425D02*
Y023497D01*
Y023569D01*
X048032Y022953D02*
X048233Y023154D01*
X047623D02*
X047825Y022953D01*
X048032D01*
X048233Y023154D02*
X048404D01*
X047485D02*
X047623D01*
X047185Y020909D02*
Y022996D01*
X046419Y020947D02*
X046665Y0207D01*
X046976D02*
X047185Y020909D01*
X047018Y0206D02*
X047285Y020868D01*
X046624Y0206D02*
X047018D01*
X046319Y020906D02*
X046624Y0206D01*
X046665Y0207D02*
X046976D01*
X046419Y020947D02*
Y021676D01*
X046319Y020906D02*
Y021635D01*
X047285Y020868D02*
Y022019D01*
X045788Y021842D02*
X046112D01*
X049352Y024092D02*
X049482Y024222D01*
X049695D01*
X049352Y023867D02*
Y024092D01*
X04884Y023453D02*
X049144Y02315D01*
X04935D01*
X049547Y023346D01*
Y023671D01*
X048703Y023453D02*
X04884D01*
X048404Y023154D02*
X048703Y023453D01*
X049508Y023711D02*
X049547Y023671D01*
X049508Y023711D02*
Y023711D01*
X049352Y023867D02*
X049508Y023711D01*
X049774Y024101D02*
Y024144D01*
X049773Y024012D02*
Y0241D01*
X049695Y024222D02*
X049774Y024144D01*
X049773Y0241D02*
X049774Y024101D01*
X049753Y023992D02*
X049773Y024012D01*
X049753Y023803D02*
X049773Y023784D01*
X049747Y023803D02*
X049753D01*
X049747Y023992D02*
X049753D01*
X049724Y023969D02*
X049747Y023992D01*
X049724Y023826D02*
Y023898D01*
Y023826D02*
X049747Y023803D01*
X049724Y023898D02*
Y023969D01*
X049773Y023683D02*
Y023784D01*
X049753Y023664D02*
X049773Y023683D01*
X049747Y023664D02*
X049753D01*
Y023474D02*
X049773Y023455D01*
Y02308D02*
Y023455D01*
X049747Y023474D02*
X049753D01*
X049724Y023641D02*
X049747Y023664D01*
X049724Y023569D02*
Y023641D01*
Y023497D02*
Y023569D01*
Y023497D02*
X049747Y023474D01*
X047285Y022954D02*
X047485Y023154D01*
X049537Y022844D02*
X049773Y02308D01*
X049537Y02249D02*
Y022844D01*
X049187Y022239D02*
X049286D01*
X049537Y02249D01*
X047285Y022019D02*
Y022954D01*
X04578Y021834D02*
X045788Y021842D01*
X045669Y021834D02*
X04578D01*
X045648Y021813D02*
X045669Y021834D01*
X049252Y023825D02*
Y024134D01*
X049441Y024322D01*
X049736D01*
X049309Y02325D02*
X049447Y023388D01*
X049185Y02325D02*
X049309D01*
X048882Y023553D02*
X049185Y02325D01*
X048661Y023553D02*
X048882D01*
X048363Y023254D02*
X048661Y023553D01*
X047444Y023254D02*
X048363D01*
X049447Y023388D02*
Y02363D01*
X049281Y023796D02*
X049447Y02363D01*
X049281Y023796D02*
Y023796D01*
X049252Y023825D02*
X049281Y023796D01*
X049921Y023898D02*
Y023969D01*
X049892Y023992D02*
X049898D01*
X049921Y023969D01*
Y023826D02*
Y023898D01*
X049898Y023803D02*
X049921Y023826D01*
X049892Y023803D02*
X049898D01*
X049844Y024214D02*
X049874Y024185D01*
Y024059D02*
Y024185D01*
X049736Y024322D02*
X049844Y024214D01*
X049844D01*
X049873Y024012D02*
Y024058D01*
Y024012D02*
X049892Y023992D01*
X049873Y024058D02*
X049874Y024059D01*
X049921Y023569D02*
Y023641D01*
Y023497D02*
Y023569D01*
X049898Y023664D02*
X049921Y023641D01*
X049892Y023474D02*
X049898D01*
X049921Y023497D01*
X049887Y022239D02*
X049987D01*
X049873Y023683D02*
Y023784D01*
Y023683D02*
X049892Y023664D01*
X049873Y023784D02*
X049892Y023803D01*
Y023664D02*
X049898D01*
X049873Y023038D02*
Y023455D01*
X049892Y023474D01*
X049637Y022803D02*
X049873Y023038D01*
X049637Y022489D02*
Y022803D01*
X047185Y022996D02*
X047444Y023254D01*
X049637Y022489D02*
X049887Y022239D01*
X045648Y02197D02*
X045669Y02195D01*
X04578D02*
X045788Y021942D01*
X045669Y02195D02*
X04578D01*
X046112Y021842D02*
X046319Y021635D01*
X046154Y021942D02*
X046419Y021676D01*
X045788Y021942D02*
X046154D01*
X047067Y022549D02*
Y023061D01*
X045788Y022314D02*
X046832D01*
X047067Y022549D01*
X049716Y024506D02*
X049862Y02436D01*
X049982D01*
X050128Y024506D01*
X049437D02*
X049716D01*
X050128D02*
X050214D01*
X050463Y023168D02*
X050738Y022894D01*
X050412Y02242D02*
X050638Y022646D01*
X050512Y022378D02*
X050738Y022605D01*
Y022894D01*
X050638Y022646D02*
Y022852D01*
X050363Y023127D02*
X050638Y022852D01*
X050463Y023168D02*
Y023455D01*
X050363Y023127D02*
Y023455D01*
X050489Y023664D02*
X050512Y023641D01*
X050489Y023803D02*
X050512Y023826D01*
Y023569D02*
Y023641D01*
Y023497D02*
Y023569D01*
X050489Y023474D02*
X050512Y023497D01*
Y023898D02*
Y023969D01*
Y023826D02*
Y023898D01*
X050483Y023992D02*
X050489D01*
X050512Y023969D01*
X050483Y023664D02*
X050489D01*
X050483Y023474D02*
X050489D01*
X050483Y023803D02*
X050489D01*
X050747Y021998D02*
X05076D01*
X050512Y022028D02*
X05061Y02193D01*
X050512Y022028D02*
Y022378D01*
X050679Y02193D02*
X050747Y021998D01*
X05061Y02193D02*
X050679D01*
X050463Y023683D02*
Y023784D01*
Y023683D02*
X050483Y023664D01*
X050463Y024012D02*
X050483Y023992D01*
X050463Y023784D02*
X050483Y023803D01*
X050463Y023455D02*
X050483Y023474D01*
X050256Y024606D02*
X050463Y024399D01*
Y024012D02*
Y024399D01*
X049396Y024606D02*
X050256D01*
X048236Y023446D02*
X049396Y024606D01*
X047311Y023446D02*
X048236D01*
X046967Y022669D02*
Y023102D01*
X047311Y023446D01*
X045669Y022422D02*
X04578D01*
X046712Y022414D02*
X046967Y022669D01*
X045648Y022443D02*
X045669Y022422D01*
X045788Y022414D02*
X046712D01*
X04578Y022422D02*
X045788Y022414D01*
X050363Y023683D02*
Y023784D01*
X050344Y023474D02*
X050363Y023455D01*
X050344Y023803D02*
X050363Y023784D01*
X050344Y023664D02*
X050363Y023683D01*
Y024012D02*
Y024357D01*
X050344Y023992D02*
X050363Y024012D01*
X050338Y023992D02*
X050344D01*
X050315Y023826D02*
X050338Y023803D01*
Y023664D02*
X050344D01*
X050338Y023474D02*
X050344D01*
X050338Y023803D02*
X050344D01*
X050747Y021762D02*
X05076D01*
X050679Y02183D02*
X050747Y021762D01*
X050412Y021987D02*
X050569Y02183D01*
X050412Y021987D02*
Y02242D01*
X050569Y02183D02*
X050679D01*
X050315Y023969D02*
X050338Y023992D01*
X050315Y023641D02*
X050338Y023664D01*
X050214Y024506D02*
X050363Y024357D01*
X050315Y023497D02*
Y023569D01*
Y023497D02*
X050338Y023474D01*
X050315Y023898D02*
Y023969D01*
Y023826D02*
Y023898D01*
X048278Y023346D02*
X049437Y024506D01*
X050315Y023569D02*
Y023641D01*
X047352Y023346D02*
X048278D01*
X047067Y023061D02*
X047352Y023346D01*
X04578Y022306D02*
X045788Y022314D01*
X045669Y022306D02*
X04578D01*
X045648Y022285D02*
X045669Y022306D01*
X05123Y02404D02*
Y024067D01*
X051183Y024114D02*
X05123Y024067D01*
X051125Y024114D02*
X051183D01*
X051078Y02416D02*
X051125Y024114D01*
X051078Y02416D02*
Y0243D01*
X051125Y024347D01*
X051183D01*
X05123Y024393D01*
Y024643D01*
Y024019D02*
Y02404D01*
X051153Y022518D02*
X051283Y022648D01*
X051053Y022559D02*
X051242Y022748D01*
X051283Y022648D02*
X051407D01*
X051153Y021961D02*
Y022518D01*
X051053Y021919D02*
Y022559D01*
X051242Y022748D02*
X051366D01*
X051407Y022648D02*
X051614Y022854D01*
X051053Y021919D02*
X051232Y021741D01*
X051153Y021961D02*
X051273Y021841D01*
X05149D01*
X05133Y024019D02*
Y024684D01*
X051159Y024713D02*
X05123Y024643D01*
X049329Y024713D02*
X051159D01*
X051201Y024813D02*
X05133Y024684D01*
X049288Y024813D02*
X051201D01*
X051378Y023905D02*
Y023976D01*
Y023833D02*
Y023905D01*
X051181D02*
Y023976D01*
X048148Y023673D02*
X049288Y024813D01*
X051181Y023833D02*
Y023905D01*
X051232Y021741D02*
X051448D01*
X048189Y023573D02*
X049329Y024713D01*
X05121Y023999D02*
X05123Y024019D01*
X051614Y022854D02*
Y023094D01*
X051514Y022896D02*
Y023053D01*
X051366Y022748D02*
X051514Y022896D01*
X051498Y02321D02*
X051614Y023094D01*
X051457Y02311D02*
X051514Y023053D01*
X05133Y023268D02*
X051388Y02321D01*
X051498D01*
X05123Y023226D02*
X051346Y02311D01*
X051457D01*
X05123Y023226D02*
Y023455D01*
X05133Y023268D02*
Y023456D01*
X051204Y02381D02*
X05121D01*
X05123Y02379D01*
Y02369D02*
Y02379D01*
X051204Y023671D02*
X05121D01*
X051204Y023999D02*
X05121D01*
X051181Y023976D02*
X051204Y023999D01*
X051181Y023833D02*
X051204Y02381D01*
X051448Y021741D02*
X051506Y021683D01*
Y021557D02*
Y021683D01*
X051187Y021239D02*
X051506Y021557D01*
X05121Y023671D02*
X05123Y02369D01*
X051181Y023648D02*
X051204Y023671D01*
X051181Y023504D02*
Y023576D01*
Y023504D02*
X05123Y023455D01*
X051181Y023576D02*
Y023648D01*
X047238Y023573D02*
X048189D01*
X04685Y023185D02*
X047238Y023573D01*
X04685Y022825D02*
Y023185D01*
X046655Y022629D02*
X04685Y022825D01*
X04578Y022621D02*
X045788Y022629D01*
X046655D01*
X045669Y022621D02*
X04578D01*
X045648Y0226D02*
X045669Y022621D01*
X051355Y023999D02*
X051378Y023976D01*
X051355Y02381D02*
X051378Y023833D01*
X051349Y023671D02*
X051355D01*
X05133Y024019D02*
X051349Y023999D01*
X051355D01*
X051349Y02381D02*
X051355D01*
X05133Y02369D02*
X051349Y023671D01*
X05133Y02369D02*
Y02379D01*
X05149Y021841D02*
X051654Y021676D01*
Y021555D02*
Y021676D01*
Y021555D02*
X05197Y021239D01*
X051987D01*
X051378Y023576D02*
Y023648D01*
Y023504D02*
Y023576D01*
X051355Y023671D02*
X051378Y023648D01*
X05133Y023456D02*
X051378Y023504D01*
X05133Y02379D02*
X051349Y02381D01*
X047196Y023673D02*
X048148D01*
X04675Y023227D02*
X047196Y023673D01*
X04675Y022866D02*
Y023227D01*
X045648Y022758D02*
X045669Y022737D01*
X046613Y022729D02*
X04675Y022866D01*
X04578Y022737D02*
X045788Y022729D01*
X046613D01*
X045669Y022737D02*
X04578D01*
X05182Y024184D02*
Y024218D01*
X051773Y024265D02*
X05182Y024218D01*
X051722Y024265D02*
X051773D01*
X051676Y024312D02*
X051722Y024265D01*
X051676Y024312D02*
Y024451D01*
X051722Y024498D01*
X051773D01*
X05182Y024545D01*
Y024794D01*
Y024019D02*
Y024184D01*
X051705Y025051D02*
X05192Y024836D01*
X051663Y024951D02*
X05182Y024794D01*
X049147Y024951D02*
X051663D01*
X05192Y024019D02*
Y024836D01*
X049106Y025051D02*
X051705D01*
X051801Y023999D02*
X05182Y024019D01*
X051801Y02381D02*
X05182Y02379D01*
Y02369D02*
Y02379D01*
X051801Y023481D02*
X05182Y023462D01*
Y023117D02*
Y023462D01*
X051801Y023671D02*
X05182Y02369D01*
X051795Y02381D02*
X051801D01*
X051795Y023999D02*
X051801D01*
X051795Y023481D02*
X051801D01*
X051772Y023976D02*
X051795Y023999D01*
Y023671D02*
X051801D01*
X051772Y023648D02*
X051795Y023671D01*
X051772Y023833D02*
X051795Y02381D01*
X051772Y023905D02*
Y023976D01*
X048055Y023858D02*
X049147Y024951D01*
X051772Y023833D02*
Y023905D01*
X047165Y023858D02*
X048055D01*
X051772Y023576D02*
Y023648D01*
X046409Y023102D02*
X047165Y023858D01*
X051772Y023504D02*
X051795Y023481D01*
X051772Y023504D02*
Y023576D01*
X045788Y023102D02*
X046409D01*
X04578Y023094D02*
X045788Y023102D01*
X045669Y023094D02*
X04578D01*
X045648Y023073D02*
X045669Y023094D01*
X051968Y023833D02*
Y023905D01*
X051946Y02381D02*
X051968Y023833D01*
Y023576D02*
Y023648D01*
Y023504D02*
Y023576D01*
X051946Y023671D02*
X051968Y023648D01*
X051946Y023999D02*
X051968Y023976D01*
Y023905D02*
Y023976D01*
X051939Y023999D02*
X051946D01*
X051939Y023671D02*
X051946D01*
X051939Y02381D02*
X051946D01*
Y023481D02*
X051968Y023504D01*
X051939Y023481D02*
X051946D01*
X05192Y024019D02*
X051939Y023999D01*
X05192Y02379D02*
X051939Y02381D01*
X05192Y02369D02*
X051939Y023671D01*
X05192Y023462D02*
X051939Y023481D01*
X05192Y02369D02*
Y02379D01*
X048013Y023958D02*
X049106Y025051D01*
X047124Y023958D02*
X048013D01*
X045648Y02323D02*
X045669Y02321D01*
X05192Y023159D02*
Y023462D01*
X045669Y02321D02*
X04578D01*
X046367Y023202D02*
X047124Y023958D01*
X045788Y023202D02*
X046367D01*
X04578Y02321D02*
X045788Y023202D01*
X052035Y022903D02*
X052241D01*
X05182Y023117D02*
X052035Y022903D01*
X052309Y023071D02*
X052323D01*
X052241Y023003D02*
X052309Y023071D01*
Y022835D02*
X052323D01*
X052241Y022903D02*
X052309Y022835D01*
X052076Y023003D02*
X052241D01*
X05192Y023159D02*
X052076Y023003D01*
X043505Y04371D02*
X04374D01*
X043455Y04366D02*
X043505Y04371D01*
X043349Y04366D02*
X043455D01*
X043268Y043719D02*
X04329D01*
X043349Y04366D01*
Y04356D02*
X043455D01*
X043505Y04351D02*
X04374D01*
X043455Y04356D02*
X043505Y04351D01*
X043292Y043502D02*
X043349Y04356D01*
X043268Y043502D02*
X043292D01*
X059676Y024042D02*
X059746Y024113D01*
X059576Y024084D02*
X059705Y024213D01*
X059196Y028574D02*
X060101D01*
X059055Y028602D02*
X059076Y028582D01*
X059188D01*
X059196Y028574D01*
X059724Y023826D02*
Y023898D01*
Y023754D02*
Y023826D01*
X059702Y023921D02*
X059724Y023898D01*
X059702Y023731D02*
X059724Y023754D01*
X059702Y023592D02*
X059724Y023569D01*
X059695Y023592D02*
X059702D01*
X059899Y021929D02*
X059968Y021998D01*
X05998D01*
X059807Y021929D02*
X059899D01*
X059724Y023497D02*
Y023569D01*
Y023425D02*
Y023497D01*
X059754Y021982D02*
Y022533D01*
Y021982D02*
X059807Y021929D01*
X059702Y023402D02*
X059724Y023425D01*
X059676Y02394D02*
X059695Y023921D01*
X059702D01*
X059695Y023731D02*
X059702D01*
X059676Y023611D02*
X059695Y023592D01*
X059676Y023712D02*
X059695Y023731D01*
X059676Y02394D02*
Y024042D01*
Y023611D02*
Y023712D01*
X059695Y023402D02*
X059702D01*
X059676Y022611D02*
Y023383D01*
X059695Y023402D01*
X059676Y022611D02*
X059754Y022533D01*
X059196Y028474D02*
X06006D01*
X059188Y028466D02*
X059196Y028474D01*
X059055Y028445D02*
X059076Y028466D01*
X059188D01*
X059557Y023592D02*
X059576Y023611D01*
Y02394D02*
Y024084D01*
X059557Y023731D02*
X059576Y023712D01*
X059557Y023921D02*
X059576Y02394D01*
Y023611D02*
Y023712D01*
X05955Y023402D02*
X059557D01*
X05955Y023592D02*
X059557D01*
X059765Y021829D02*
X059899D01*
X059966Y021762D02*
X05998D01*
X059899Y021829D02*
X059966Y021762D01*
X059576Y02257D02*
X059654Y022492D01*
X059557Y023402D02*
X059576Y023383D01*
X059654Y021941D02*
Y022492D01*
Y021941D02*
X059765Y021829D01*
X05955Y023921D02*
X059557D01*
X059528Y023898D02*
X05955Y023921D01*
X059528Y023754D02*
X05955Y023731D01*
X059557D01*
X059528Y023826D02*
Y023898D01*
Y023754D02*
Y023826D01*
Y023569D02*
X05955Y023592D01*
X059528Y023425D02*
X05955Y023402D01*
X059528Y023497D02*
Y023569D01*
Y023425D02*
Y023497D01*
X035289Y041754D02*
Y04213D01*
Y041754D02*
X035289Y041754D01*
Y041377D02*
Y041754D01*
X035189Y041419D02*
Y042132D01*
Y041419D02*
X035189Y041419D01*
X034541Y041698D02*
Y04213D01*
Y041698D02*
X034541Y041698D01*
Y041267D02*
Y041698D01*
X034441Y041308D02*
Y042132D01*
Y041308D02*
X034441Y041308D01*
X033795Y041321D02*
Y042132D01*
X033695Y04128D02*
Y04213D01*
Y04128D02*
X033773Y041202D01*
X033921Y040813D02*
Y040925D01*
X033873Y040974D02*
Y041243D01*
Y040974D02*
X033921Y040925D01*
X033795Y041321D02*
X033873Y041243D01*
X033045Y041421D02*
Y042129D01*
X032945Y04138D02*
Y042133D01*
X035055Y043873D02*
Y044043D01*
X034955Y043832D02*
Y044036D01*
X034364Y043674D02*
Y044027D01*
X034464Y043715D02*
Y044039D01*
X033866Y043677D02*
Y044042D01*
X033766Y043718D02*
Y044047D01*
X033279Y043839D02*
Y044042D01*
X033179Y043881D02*
Y044042D01*
X033693Y043646D02*
X033766Y043718D01*
X033793Y043605D02*
X033866Y043677D01*
Y044042D02*
X034016Y044193D01*
X034213Y044178D02*
X034364Y044027D01*
X034464Y044039D02*
X034606Y044181D01*
X034803Y044188D02*
X034955Y044036D01*
X035055Y044043D02*
X035197Y044185D01*
X033046Y043606D02*
X033279Y043839D01*
X033031Y044189D02*
X033179Y044042D01*
X033279Y044042D02*
X033425Y044188D01*
X032946Y043647D02*
X033179Y043881D01*
X032946Y043393D02*
Y043647D01*
X035054Y041142D02*
X035289Y041377D01*
X035054Y040974D02*
Y041142D01*
X034954Y041184D02*
X035189Y041419D01*
X034954Y040974D02*
Y041184D01*
X032945Y04138D02*
X033182Y041143D01*
X033282Y040975D02*
Y041184D01*
X033045Y041421D02*
X033282Y041184D01*
X033182Y040973D02*
Y041143D01*
X035054Y040974D02*
X035103Y040925D01*
X034906D02*
X034954Y040974D01*
X034906Y040813D02*
Y040925D01*
X035103Y040813D02*
Y040925D01*
X033773Y040974D02*
Y041202D01*
X035289Y04213D02*
X035437Y042278D01*
X035043D02*
X035189Y042132D01*
X035437Y042278D02*
Y042358D01*
X035043Y042278D02*
Y042358D01*
X033134Y040813D02*
Y040925D01*
X033182Y040973D01*
X033331Y040813D02*
Y040925D01*
X033282Y040975D02*
X033331Y040925D01*
X032799Y042278D02*
X032945Y042133D01*
X033045Y042129D02*
X033193Y042278D01*
X032799D02*
Y042358D01*
X033193Y042278D02*
Y042358D01*
X034364Y040974D02*
Y041231D01*
X034464Y040974D02*
X034512Y040925D01*
X034464Y04119D02*
X034541Y041267D01*
X034464Y040974D02*
Y04119D01*
X034315Y040925D02*
X034364Y040974D01*
Y041231D02*
X034441Y041308D01*
X034512Y040813D02*
Y040925D01*
X034315Y040813D02*
Y040925D01*
X033725D02*
X033773Y040974D01*
X033725Y040813D02*
Y040925D01*
X034541Y04213D02*
X034689Y042278D01*
X034295D02*
X034441Y042132D01*
X034689Y042278D02*
Y042358D01*
X034295Y042278D02*
Y042358D01*
X033795Y042132D02*
X033941Y042278D01*
X033547D02*
X033695Y04213D01*
X033547Y042278D02*
Y042358D01*
X033941Y042278D02*
Y042358D01*
X035055Y043873D02*
X03529Y043638D01*
X034955Y043832D02*
X03519Y043597D01*
Y043392D02*
Y043597D01*
X03529Y043394D02*
Y043638D01*
X033046Y043394D02*
Y043606D01*
Y043394D02*
X033193Y043246D01*
X032799D02*
X032946Y043393D01*
X032799Y043167D02*
Y043246D01*
X033193Y043167D02*
Y043246D01*
X035043D02*
X03519Y043392D01*
X035043Y043167D02*
Y043246D01*
X03529Y043394D02*
X035437Y043246D01*
Y043167D02*
Y043246D01*
X034545Y043389D02*
Y043635D01*
X034445Y043396D02*
Y043593D01*
X034364Y043674D02*
X034445Y043593D01*
X034464Y043715D02*
X034545Y043635D01*
X034689Y043167D02*
Y043246D01*
X034635Y043299D02*
X034637D01*
X034689Y043246D01*
X034545Y043389D02*
X034635Y043299D01*
X034295Y043246D02*
X034445Y043396D01*
X034295Y043167D02*
Y043246D01*
X033547D02*
X033693Y043392D01*
X033547Y043167D02*
Y043246D01*
X033693Y043392D02*
Y043646D01*
X033793Y043394D02*
X033941Y043246D01*
Y043167D02*
Y043246D01*
X033793Y043394D02*
Y043605D01*
X033425Y044188D02*
Y04477D01*
X033031Y044189D02*
Y04477D01*
X033622Y04419D02*
X033766Y044047D01*
X033622Y04419D02*
Y04477D01*
X034016Y044193D02*
Y04477D01*
X035197Y044185D02*
Y04477D01*
X034803Y044188D02*
Y04477D01*
X034213Y044178D02*
Y04477D01*
X034606Y044181D02*
Y04477D01*
D177*
X041073Y035354D02*
Y035364D01*
X041149Y035278D02*
X041614D01*
X041073Y035354D02*
X041149Y035278D01*
X041073Y03562D02*
X041164Y035711D01*
X041614D01*
X041073Y037087D02*
Y037096D01*
Y037087D02*
X041149Y03701D01*
X041614D01*
X041164Y037443D02*
X041614D01*
X041073Y037352D02*
X041164Y037443D01*
X041073Y03622D02*
Y03623D01*
X041149Y036144D02*
X041614D01*
X041073Y03622D02*
X041149Y036144D01*
X041164Y036577D02*
X041614D01*
X041073Y036486D02*
X041164Y036577D01*
X041073Y034488D02*
Y034498D01*
X041149Y034412D02*
X041614D01*
X041073Y034488D02*
X041149Y034412D01*
X041164Y034845D02*
X041614D01*
X041073Y034754D02*
X041164Y034845D01*
Y033979D02*
X041614D01*
X041073Y033888D02*
X041164Y033979D01*
X041149Y033546D02*
X041614D01*
X041073Y033622D02*
Y033632D01*
Y033622D02*
X041149Y033546D01*
D178*
X044646Y025326D02*
Y025443D01*
X044596Y025276D02*
X044646Y025326D01*
X044025Y025276D02*
X044596D01*
X043976Y025227D02*
X044025Y025276D01*
X043976Y025078D02*
Y025227D01*
Y025078D02*
X044025Y025028D01*
X044721D01*
X044771Y024979D01*
Y02483D02*
Y024979D01*
X044721Y02478D02*
X044771Y02483D01*
X044025Y02478D02*
X044721D01*
X043976Y024731D02*
X044025Y02478D01*
X043976Y024582D02*
Y024731D01*
Y024582D02*
X044025Y024532D01*
X044596D01*
X044646Y024483D01*
Y024459D02*
Y024483D01*
Y025443D02*
Y025561D01*
Y023945D02*
Y024459D01*
X044142Y026064D02*
Y026437D01*
Y026064D02*
X044646Y025561D01*
Y023945D02*
X044762Y023829D01*
Y023486D02*
Y023829D01*
D179*
X054961Y027683D02*
X055074Y027569D01*
X054961Y027683D02*
Y027724D01*
X055074Y027559D02*
Y027569D01*
X04732Y041395D02*
X04787D01*
X047087Y041132D02*
Y041161D01*
X04732Y041395D01*
X048337Y04127D02*
X048404Y041337D01*
X047657Y04127D02*
X048337D01*
X04752Y041132D02*
X047657Y04127D01*
X04787Y041395D02*
X048013Y041538D01*
X049508Y042049D02*
Y042057D01*
X049329Y04187D02*
X049508Y042049D01*
X049193Y04187D02*
X049329D01*
X049094Y041968D02*
X049193Y04187D01*
X049362Y043841D02*
X049567Y044045D01*
X049191Y043841D02*
X049362D01*
X049094Y043937D02*
X049191Y043841D01*
X048013Y041625D02*
X048063Y041675D01*
X048013Y041538D02*
Y041625D01*
X048063Y041675D02*
X048211D01*
X048404Y041337D02*
Y041671D01*
X048346Y041132D02*
X048504Y041289D01*
X047953Y041132D02*
X048346D01*
X048504Y041289D02*
Y041575D01*
X048533Y041122D02*
Y041132D01*
X048604Y041203D01*
Y041675D01*
X048701Y041772D01*
X049252Y041132D02*
Y04122D01*
X049065Y04128D02*
X049193D01*
X049252Y04122D01*
X048898Y041447D02*
X049065Y04128D01*
X048898Y041447D02*
Y041575D01*
X049685Y041132D02*
Y04127D01*
X049596Y041358D02*
X049685Y04127D01*
X049114Y041358D02*
X049596D01*
X048994Y041478D02*
X049114Y041358D01*
X048898Y041772D02*
X048994Y041675D01*
Y041478D02*
Y041675D01*
X050118Y041132D02*
Y04128D01*
X049961Y041437D02*
X050118Y04128D01*
X049252Y041437D02*
X049961D01*
X049193Y041496D02*
X049252Y041437D01*
X049193Y041496D02*
Y041673D01*
X049094Y041772D02*
X049193Y041673D01*
X048701Y041358D02*
Y041575D01*
Y041358D02*
X048819Y04124D01*
Y041132D02*
Y04124D01*
X048404Y041671D02*
X048504Y041772D01*
X048211Y041675D02*
X048307Y041772D01*
D180*
X037381Y041901D02*
Y042502D01*
X037376Y042506D02*
X037381Y042502D01*
Y041901D02*
X037382Y0419D01*
D181*
X050387Y021239D02*
D03*
X049587D02*
D03*
X052387Y022239D02*
D03*
X051587D02*
D03*
X052787Y021239D02*
D03*
X048787D02*
D03*
X053187Y022239D02*
D03*
X048387D02*
D03*
X051187Y021239D02*
D03*
X051987D02*
D03*
X049187Y022239D02*
D03*
X049987D02*
D03*
X059607Y021239D02*
D03*
X058807D02*
D03*
X061607Y022239D02*
D03*
X060807D02*
D03*
X062007Y021239D02*
D03*
X058007D02*
D03*
X062407Y022239D02*
D03*
X057607D02*
D03*
X060407Y021239D02*
D03*
X061207D02*
D03*
X058407Y022239D02*
D03*
X059207D02*
D03*
D182*
X047827Y016139D02*
D03*
X053747Y015139D02*
D03*
X047827Y017139D02*
D03*
X053747Y016139D02*
D03*
X047827Y015139D02*
D03*
X057047Y016139D02*
D03*
X062967Y015139D02*
D03*
X057047Y017139D02*
D03*
X062967Y016139D02*
D03*
X057047Y015139D02*
D03*
D183*
X047327Y018639D02*
D03*
X054247D02*
D03*
X056547D02*
D03*
X063467D02*
D03*
D184*
X028709Y032992D02*
D03*
X028724Y030354D02*
D03*
X029709Y034606D02*
D03*
X041984Y048583D02*
D03*
X048331D02*
D03*
D185*
X029709Y032992D02*
D03*
X030709D02*
D03*
X031709D02*
D03*
X031724Y030354D02*
D03*
X030724D02*
D03*
X029724D02*
D03*
X030709Y034606D02*
D03*
X031709D02*
D03*
X040984Y048583D02*
D03*
X039984D02*
D03*
X038984D02*
D03*
X047331D02*
D03*
X046331D02*
D03*
X045331D02*
D03*
X044331D02*
D03*
X043331D02*
D03*
D186*
X063032Y024803D02*
D03*
X029173Y014567D02*
D03*
Y048032D02*
D03*
X063032D02*
D03*
D187*
X054738Y041413D02*
D03*
X054339Y044413D02*
D03*
X055138D02*
D03*
D188*
X058858Y043892D02*
D03*
Y046648D02*
D03*
D189*
X031055Y014528D02*
D03*
X034457D02*
D03*
D190*
X031055Y016173D02*
D03*
X034457D02*
D03*
D191*
X033894Y015976D02*
D03*
X031618D02*
D03*
D192*
X039252Y018508D02*
D03*
D193*
X040236D02*
D03*
X041024D02*
D03*
X042008D02*
D03*
D194*
X038043Y017441D02*
D03*
X043217D02*
D03*
D195*
X063632Y037726D02*
D03*
Y038878D02*
D03*
Y036585D02*
D03*
D196*
X031949Y045069D02*
D03*
X037657D02*
D03*
D197*
Y047415D02*
D03*
X031949D02*
D03*
D198*
X049677Y048583D02*
D03*
X051677D02*
D03*
X054677D02*
D03*
X053677D02*
D03*
X052677D02*
D03*
X050677D02*
D03*
D199*
X055677D02*
D03*
D200*
X055846Y033012D02*
D03*
X05623Y032825D02*
D03*
X059498Y033494D02*
D03*
X05752Y031624D02*
D03*
X056929Y036339D02*
D03*
Y036142D02*
D03*
X054252Y030945D02*
D03*
X054409Y031102D02*
D03*
X054646D02*
D03*
X040128Y028691D02*
D03*
Y028435D02*
D03*
X039528Y023661D02*
D03*
X041094Y020518D02*
D03*
X040433Y021378D02*
D03*
X041369Y020518D02*
D03*
X040709Y021378D02*
D03*
X040118Y031811D02*
D03*
X044911Y028563D02*
D03*
X045157Y028071D02*
D03*
X052795Y029213D02*
D03*
X052205Y029843D02*
D03*
X05811Y029291D02*
D03*
X055039Y032165D02*
D03*
X055315Y031063D02*
D03*
X051457Y033819D02*
D03*
X051575Y033661D02*
D03*
X051339D02*
D03*
X044508Y029469D02*
D03*
Y029213D02*
D03*
X045236Y045827D02*
D03*
X045D02*
D03*
X045354Y045591D02*
D03*
X045118D02*
D03*
X044882D02*
D03*
X045591Y04374D02*
D03*
X045354D02*
D03*
X057126Y039646D02*
D03*
X055571Y036043D02*
D03*
X056024Y028404D02*
D03*
X058504Y028642D02*
D03*
X05811Y028051D02*
D03*
X057717D02*
D03*
Y028642D02*
D03*
Y028346D02*
D03*
X05811D02*
D03*
X058504Y029035D02*
D03*
X05811D02*
D03*
Y028642D02*
D03*
X033465Y026614D02*
D03*
X033583Y027008D02*
D03*
X055315Y041614D02*
D03*
X046453Y018933D02*
D03*
X044764Y019685D02*
D03*
X055866Y021378D02*
D03*
Y021654D02*
D03*
X055Y021378D02*
D03*
Y021654D02*
D03*
X056063Y021378D02*
D03*
Y021654D02*
D03*
X054764D02*
D03*
Y021378D02*
D03*
X046201Y016142D02*
D03*
X045807D02*
D03*
X045413D02*
D03*
X045118D02*
D03*
X046201Y016339D02*
D03*
X045807D02*
D03*
X045413D02*
D03*
X045118D02*
D03*
X037343Y031909D02*
D03*
X044321Y02815D02*
D03*
X032923Y039134D02*
D03*
X03313Y038091D02*
D03*
X033159Y038415D02*
D03*
X033888Y037953D02*
D03*
Y038179D02*
D03*
X037598Y033583D02*
D03*
X037874D02*
D03*
X037323D02*
D03*
X043898Y039449D02*
D03*
X04374Y039331D02*
D03*
X043346Y039528D02*
D03*
Y039331D02*
D03*
X043543Y039646D02*
D03*
X04374Y039567D02*
D03*
X044016Y039606D02*
D03*
X043543Y039449D02*
D03*
Y039252D02*
D03*
X044213Y042137D02*
D03*
X041073Y035364D02*
D03*
X044213Y04192D02*
D03*
X041073Y03562D02*
D03*
X042136Y033553D02*
D03*
X04214Y031925D02*
D03*
X050699Y042323D02*
D03*
X050717Y041828D02*
D03*
X041772Y021917D02*
D03*
X043248Y020669D02*
D03*
X043051D02*
D03*
X042293Y022274D02*
D03*
X045079Y022165D02*
D03*
X044685D02*
D03*
X044291D02*
D03*
X045079Y022598D02*
D03*
X044685D02*
D03*
X044291D02*
D03*
X045079Y022992D02*
D03*
X044685D02*
D03*
X044291D02*
D03*
X043661Y036929D02*
D03*
X032421Y042126D02*
D03*
X030827Y039409D02*
D03*
Y039606D02*
D03*
X031378Y038071D02*
D03*
X037283Y039331D02*
D03*
X044213Y043317D02*
D03*
X041073Y037096D02*
D03*
X044213Y0431D02*
D03*
X041073Y037352D02*
D03*
X043268Y041532D02*
D03*
X041073Y03623D02*
D03*
X043268Y041749D02*
D03*
X041073Y036486D02*
D03*
Y034498D02*
D03*
Y034754D02*
D03*
X043268Y042712D02*
D03*
Y042929D02*
D03*
X037953Y031181D02*
D03*
Y031417D02*
D03*
X037717D02*
D03*
Y031181D02*
D03*
X041693Y024557D02*
D03*
X059872Y02998D02*
D03*
X058368Y031829D02*
D03*
X046614Y024341D02*
D03*
X046079Y025732D02*
D03*
X046368Y024203D02*
D03*
X043061Y024055D02*
D03*
X043199Y024242D02*
D03*
X04313Y023751D02*
D03*
X043478Y021217D02*
D03*
X056886Y027376D02*
D03*
X052303Y030906D02*
D03*
X041181Y027559D02*
D03*
X05185Y028809D02*
D03*
X041585Y02626D02*
D03*
X042992Y025915D02*
D03*
X044843Y025669D02*
D03*
X055074Y027559D02*
D03*
X056457Y02685D02*
D03*
X056654D02*
D03*
X056299Y030118D02*
D03*
X061594Y023051D02*
D03*
Y022815D02*
D03*
X05076Y021998D02*
D03*
Y021762D02*
D03*
X052323Y022835D02*
D03*
Y023071D02*
D03*
X055354Y038819D02*
D03*
X055512Y039173D02*
D03*
X053071Y034567D02*
D03*
X048452Y043603D02*
D03*
X044575Y038476D02*
D03*
X045008D02*
D03*
X045874D02*
D03*
X046308D02*
D03*
X046741D02*
D03*
X045441D02*
D03*
X050689Y042795D02*
D03*
X047174Y038476D02*
D03*
X047607D02*
D03*
X058858Y038228D02*
D03*
X060039D02*
D03*
X058858Y037835D02*
D03*
X060039Y037441D02*
D03*
X059252Y037835D02*
D03*
Y037441D02*
D03*
X058858D02*
D03*
X059646D02*
D03*
X060039Y037047D02*
D03*
X058858D02*
D03*
X060039Y037835D02*
D03*
X059646Y038228D02*
D03*
X059252Y037047D02*
D03*
Y038228D02*
D03*
X059646Y037835D02*
D03*
Y037047D02*
D03*
X039843Y045551D02*
D03*
Y045787D02*
D03*
X038976Y045079D02*
D03*
X03874Y045354D02*
D03*
X039016Y045709D02*
D03*
X033228Y045394D02*
D03*
X033819D02*
D03*
X034409D02*
D03*
X035D02*
D03*
X036181D02*
D03*
X036526Y039921D02*
D03*
X037057Y040413D02*
D03*
X037057Y039941D02*
D03*
X036654Y04314D02*
D03*
Y04373D02*
D03*
X037372Y043425D02*
D03*
X037057Y040157D02*
D03*
X037087Y03815D02*
D03*
X03154Y040518D02*
D03*
X036526Y040157D02*
D03*
X036992Y040817D02*
D03*
X035945Y041476D02*
D03*
X036496Y040384D02*
D03*
X0375Y036929D02*
D03*
X041205Y044284D02*
D03*
X052825Y033612D02*
D03*
X052648Y034331D02*
D03*
X052648Y034803D02*
D03*
X045928Y03754D02*
D03*
X056841Y031703D02*
D03*
X048012Y024528D02*
D03*
X059413Y027357D02*
D03*
X049695Y025295D02*
D03*
X046082Y021201D02*
D03*
X059352Y03028D02*
D03*
X045856Y024006D02*
D03*
X048268Y027096D02*
D03*
X046959Y027077D02*
D03*
X047815Y025325D02*
D03*
X059026Y026526D02*
D03*
X059409Y028287D02*
D03*
X0594Y029075D02*
D03*
X043701Y029213D02*
D03*
X031722Y040699D02*
D03*
X0319Y040915D02*
D03*
X049579Y027491D02*
D03*
X050895D02*
D03*
X0394Y04372D02*
D03*
X044152Y04134D02*
D03*
X043141Y04055D02*
D03*
X043573Y032096D02*
D03*
X031378Y020728D02*
D03*
X058602Y030876D02*
D03*
X045876Y026847D02*
D03*
X046308Y026849D02*
D03*
X056191Y031112D02*
D03*
X05687Y030492D02*
D03*
X056198Y028404D02*
D03*
X0581Y030472D02*
D03*
X057677Y030581D02*
D03*
X058612Y03062D02*
D03*
X058967Y030659D02*
D03*
X059203D02*
D03*
X058209Y030689D02*
D03*
X057244Y030197D02*
D03*
X057638D02*
D03*
X057441Y030079D02*
D03*
X051937Y026006D02*
D03*
X049339D02*
D03*
X049772D02*
D03*
X050205D02*
D03*
X050638D02*
D03*
X051071D02*
D03*
X051504D02*
D03*
X048906D02*
D03*
X048473D02*
D03*
X04804D02*
D03*
X047607D02*
D03*
X047174D02*
D03*
X046741D02*
D03*
X044575D02*
D03*
X044449Y024331D02*
D03*
X044252Y024134D02*
D03*
X044055Y024331D02*
D03*
X045441Y026006D02*
D03*
X04241D02*
D03*
X041183Y02705D02*
D03*
Y027916D02*
D03*
X037835Y030079D02*
D03*
Y030315D02*
D03*
X030069Y035797D02*
D03*
X034955Y04153D02*
D03*
X033287Y041526D02*
D03*
X030866Y030945D02*
D03*
Y032362D02*
D03*
X036795Y037955D02*
D03*
X036791Y038179D02*
D03*
X033353Y036504D02*
D03*
X028189Y021496D02*
D03*
X028465D02*
D03*
X02874D02*
D03*
Y02189D02*
D03*
X028465Y024016D02*
D03*
X028819D02*
D03*
X029213Y02437D02*
D03*
X028819D02*
D03*
Y024685D02*
D03*
X028465Y025D02*
D03*
Y025276D02*
D03*
Y025551D02*
D03*
X029173Y028386D02*
D03*
Y028701D02*
D03*
X028453Y029002D02*
D03*
X02878Y029016D02*
D03*
X028767Y028687D02*
D03*
Y028372D02*
D03*
X02878Y028031D02*
D03*
X028425D02*
D03*
X029488Y022638D02*
D03*
X029724Y026457D02*
D03*
X043461Y030594D02*
D03*
X046356Y028307D02*
D03*
X046355Y028809D02*
D03*
Y031309D02*
D03*
X046356Y029311D02*
D03*
X046358Y029803D02*
D03*
X046909Y02999D02*
D03*
X046362Y030295D02*
D03*
X046356Y030807D02*
D03*
X046359Y031801D02*
D03*
X046909Y031939D02*
D03*
X052283Y031693D02*
D03*
X044146Y0439D02*
D03*
X044188Y0441D02*
D03*
X043327Y044488D02*
D03*
X045098Y042943D02*
D03*
X045354Y042657D02*
D03*
X045325Y042874D02*
D03*
X041073Y033888D02*
D03*
Y033632D02*
D03*
X043268Y043719D02*
D03*
Y043502D02*
D03*
X043298Y039963D02*
D03*
X040318Y043313D02*
D03*
Y040163D02*
D03*
X043298Y040363D02*
D03*
X040119Y043509D02*
D03*
X040315Y045285D02*
D03*
X03998Y041929D02*
D03*
X043298Y040753D02*
D03*
X040118Y045079D02*
D03*
X040318Y042523D02*
D03*
X043099Y040949D02*
D03*
X040318Y044103D02*
D03*
X043298Y041143D02*
D03*
X039862Y042736D02*
D03*
X040318Y042133D02*
D03*
Y044493D02*
D03*
X04123Y041732D02*
D03*
X043099Y044879D02*
D03*
X043298Y045083D02*
D03*
X040119Y040359D02*
D03*
Y044689D02*
D03*
X040318Y043703D02*
D03*
Y042923D02*
D03*
Y041343D02*
D03*
X040119Y041139D02*
D03*
X040318Y040953D02*
D03*
Y040553D02*
D03*
X043583Y019803D02*
D03*
X043395Y022147D02*
D03*
X04163Y023882D02*
D03*
X041628Y023608D02*
D03*
Y023333D02*
D03*
Y023057D02*
D03*
Y022781D02*
D03*
Y022496D02*
D03*
X04547Y024368D02*
D03*
X045707D02*
D03*
X056968Y025984D02*
D03*
X05679Y02831D02*
D03*
X055037Y028654D02*
D03*
Y028939D02*
D03*
Y029215D02*
D03*
Y02949D02*
D03*
Y029766D02*
D03*
X055039Y030039D02*
D03*
X059636Y024833D02*
D03*
X058189Y025866D02*
D03*
X053514Y021841D02*
D03*
X053858Y021654D02*
D03*
X047677D02*
D03*
X048071Y021811D02*
D03*
X062756Y02185D02*
D03*
X06315Y021654D02*
D03*
X057283Y021811D02*
D03*
X05689Y021654D02*
D03*
X050118Y024088D02*
D03*
Y023379D02*
D03*
X051575Y024094D02*
D03*
Y023386D02*
D03*
X030591Y019882D02*
D03*
X031024Y019882D02*
D03*
X057657Y039004D02*
D03*
X057815Y039161D02*
D03*
X057539D02*
D03*
X056135Y032577D02*
D03*
X05439Y034006D02*
D03*
X054033Y036577D02*
D03*
X054104Y034006D02*
D03*
X054033Y034845D02*
D03*
Y035278D02*
D03*
Y035711D02*
D03*
Y036144D02*
D03*
X032037Y032343D02*
D03*
Y030965D02*
D03*
X031476Y031142D02*
D03*
Y032165D02*
D03*
X029472Y03215D02*
D03*
X029469Y031142D02*
D03*
X030256D02*
D03*
X03026Y03215D02*
D03*
X028465Y031142D02*
D03*
X028461Y03215D02*
D03*
X029256D02*
D03*
X029252Y031142D02*
D03*
X043415Y034764D02*
D03*
Y036152D02*
D03*
X035443Y033858D02*
D03*
Y033622D02*
D03*
X033386Y034449D02*
D03*
Y033425D02*
D03*
X03489Y034682D02*
D03*
X035118Y034685D02*
D03*
X04562Y020378D02*
D03*
X045984Y022126D02*
D03*
Y022913D02*
D03*
X05998Y021998D02*
D03*
Y021762D02*
D03*
X059331Y024016D02*
D03*
Y023307D02*
D03*
X060866D02*
D03*
Y024016D02*
D03*
X056988Y035079D02*
D03*
X056993Y034822D02*
D03*
X057047Y035305D02*
D03*
X057657Y035472D02*
D03*
X057411Y03564D02*
D03*
X057628Y035846D02*
D03*
X057697Y036205D02*
D03*
X05755Y036115D02*
D03*
X058937Y034961D02*
D03*
X058809Y035364D02*
D03*
X058346Y034961D02*
D03*
X058268Y035354D02*
D03*
X032362Y017795D02*
D03*
X03378Y017598D02*
D03*
X029862Y021634D02*
D03*
X043566Y046118D02*
D03*
X043526Y045842D02*
D03*
X043251Y045763D02*
D03*
X03939Y040059D02*
D03*
Y04065D02*
D03*
Y041634D02*
D03*
Y042224D02*
D03*
Y043209D02*
D03*
X048002Y042185D02*
D03*
X048228Y041427D02*
D03*
X050118Y043189D02*
D03*
X049685Y043583D02*
D03*
X049518Y043376D02*
D03*
X048701Y043268D02*
D03*
X048278Y043061D02*
D03*
X048523Y042165D02*
D03*
X049508Y042057D02*
D03*
X047336Y042708D02*
D03*
X047953Y042835D02*
D03*
X048307Y042106D02*
D03*
X048701Y042461D02*
D03*
X048346Y04251D02*
D03*
X048701Y042904D02*
D03*
X050039Y043858D02*
D03*
X048504Y044528D02*
D03*
X048898D02*
D03*
X049173D02*
D03*
X049528Y044646D02*
D03*
X049567Y044045D02*
D03*
X048701Y043602D02*
D03*
X048307Y044262D02*
D03*
X047986Y043201D02*
D03*
X048061Y043543D02*
D03*
X047392Y04315D02*
D03*
X047657D02*
D03*
X047313Y043543D02*
D03*
X056333Y032578D02*
D03*
X052126Y033701D02*
D03*
X052402D02*
D03*
X056181Y030846D02*
D03*
X056191Y031339D02*
D03*
X056181Y031831D02*
D03*
Y033287D02*
D03*
Y03376D02*
D03*
Y034232D02*
D03*
Y034705D02*
D03*
X056791Y028081D02*
D03*
X058526Y026346D02*
D03*
X055593Y030028D02*
D03*
Y029752D02*
D03*
Y029476D02*
D03*
Y029201D02*
D03*
Y028925D02*
D03*
Y02864D02*
D03*
X056439Y027646D02*
D03*
X056626D02*
D03*
X056931Y029486D02*
D03*
X056537Y029722D02*
D03*
X056538Y02991D02*
D03*
X059943Y029073D02*
D03*
Y028285D02*
D03*
X056738Y027445D02*
D03*
X057157Y026494D02*
D03*
X057472Y026487D02*
D03*
X057787D02*
D03*
X05764Y025943D02*
D03*
X0589Y026819D02*
D03*
X059146D02*
D03*
X045738Y020659D02*
D03*
X045492D02*
D03*
X045118Y020187D02*
D03*
X044232Y019783D02*
D03*
X04438Y020327D02*
D03*
X044065D02*
D03*
X04375Y020335D02*
D03*
X043331Y021286D02*
D03*
X046535Y022126D02*
D03*
Y022913D02*
D03*
X04313Y023563D02*
D03*
X043524Y023327D02*
D03*
X042628Y022285D02*
D03*
X042811Y022262D02*
D03*
X043218Y021486D02*
D03*
X043032D02*
D03*
X043386Y021919D02*
D03*
X042185Y02248D02*
D03*
Y022766D02*
D03*
Y023041D02*
D03*
Y023317D02*
D03*
Y023593D02*
D03*
Y023868D02*
D03*
X036703Y041102D02*
D03*
X037028Y041535D02*
D03*
X036614Y041486D02*
D03*
X03622D02*
D03*
X035693Y041092D02*
D03*
X037067Y039144D02*
D03*
X03686D02*
D03*
Y03936D02*
D03*
X037303Y036929D02*
D03*
X036909D02*
D03*
X036713D02*
D03*
X03626Y042402D02*
D03*
X034715Y041526D02*
D03*
X033533D02*
D03*
X035787Y041811D02*
D03*
X035906Y03625D02*
D03*
X033799D02*
D03*
X033583D02*
D03*
X032884Y03624D02*
D03*
X032992Y036614D02*
D03*
X032943Y037185D02*
D03*
X032667Y03624D02*
D03*
X035305Y041093D02*
D03*
X034114Y041102D02*
D03*
X032835Y041142D02*
D03*
X030906Y04063D02*
D03*
X030709D02*
D03*
X030472D02*
D03*
X030955Y041968D02*
D03*
X030748D02*
D03*
X046909Y037057D02*
D03*
X046356Y033425D02*
D03*
X04636Y033917D02*
D03*
X046359Y034419D02*
D03*
X046358Y034921D02*
D03*
X046357Y035423D02*
D03*
X046361Y035915D02*
D03*
X046355Y036427D02*
D03*
X046364Y036909D02*
D03*
X052362Y026969D02*
D03*
X05311Y028346D02*
D03*
X052677Y026969D02*
D03*
X052835Y027205D02*
D03*
X053111Y027048D02*
D03*
Y027481D02*
D03*
Y027915D02*
D03*
X053111Y030079D02*
D03*
X053111Y029647D02*
D03*
Y028781D02*
D03*
X053111Y030512D02*
D03*
Y030945D02*
D03*
Y031379D02*
D03*
Y031812D02*
D03*
X05311Y032244D02*
D03*
X055266Y042913D02*
D03*
X055276Y043917D02*
D03*
X053386Y042402D02*
D03*
X055276D02*
D03*
X055287Y043425D02*
D03*
X055315Y04185D02*
D03*
X054173Y043425D02*
D03*
X054213Y043898D02*
D03*
X054173Y041929D02*
D03*
Y042402D02*
D03*
Y042913D02*
D03*
X047244Y037539D02*
D03*
X052212Y035058D02*
D03*
Y036448D02*
D03*
Y037837D02*
D03*
X051191Y037539D02*
D03*
X04856D02*
D03*
X049876D02*
D03*
X030531Y03753D02*
D03*
Y037766D02*
D03*
X030482Y036457D02*
D03*
X059055Y038701D02*
D03*
X058839Y042697D02*
D03*
X059439Y04248D02*
D03*
X059331Y035945D02*
D03*
X057795Y046535D02*
D03*
X057402D02*
D03*
X057047D02*
D03*
X060266Y035098D02*
D03*
X060157Y035689D02*
D03*
X060394D02*
D03*
X057313Y038396D02*
D03*
X057638Y039951D02*
D03*
X05685Y038652D02*
D03*
X057037Y038071D02*
D03*
X057913Y033081D02*
D03*
X059833Y035325D02*
D03*
X059439D02*
D03*
X062005Y035492D02*
D03*
X061575Y035502D02*
D03*
X060502Y037146D02*
D03*
Y037539D02*
D03*
X061083Y037146D02*
D03*
Y037539D02*
D03*
X059724Y038701D02*
D03*
X060079D02*
D03*
X059803Y03937D02*
D03*
X051772Y046772D02*
D03*
X051024Y046811D02*
D03*
X044961Y046929D02*
D03*
X044213D02*
D03*
X039646Y047008D02*
D03*
X041496Y04752D02*
D03*
X054134Y047323D02*
D03*
X04685Y047402D02*
D03*
X030787Y022382D02*
D03*
X033105Y016924D02*
D03*
X030787Y022579D02*
D03*
X032795Y016929D02*
D03*
X029685Y020689D02*
D03*
X035494Y036658D02*
D03*
X048533Y041122D02*
D03*
X047087Y041132D02*
D03*
X04752D02*
D03*
X047953D02*
D03*
X050118D02*
D03*
X049685D02*
D03*
X049252D02*
D03*
X048819D02*
D03*
X035101Y036658D02*
D03*
X034707D02*
D03*
X034313D02*
D03*
X033919D02*
D03*
X033526D02*
D03*
X032542D02*
D03*
X031807Y037396D02*
D03*
Y03779D02*
D03*
Y038183D02*
D03*
Y038774D02*
D03*
Y039168D02*
D03*
X035302Y036474D02*
D03*
X034908D02*
D03*
X034514D02*
D03*
X034121D02*
D03*
X032349D02*
D03*
X031624Y037195D02*
D03*
Y037589D02*
D03*
Y037982D02*
D03*
Y038573D02*
D03*
Y038967D02*
D03*
Y03936D02*
D03*
X031781Y039557D02*
D03*
X04126Y04689D02*
D03*
X040787D02*
D03*
X045315Y046772D02*
D03*
X045748D02*
D03*
X046181D02*
D03*
X046614D02*
D03*
X040354Y047038D02*
D03*
X053898Y046693D02*
D03*
X053465D02*
D03*
X053032D02*
D03*
X052598D02*
D03*
X052165D02*
D03*
X031805Y039957D02*
D03*
D201*
X039213Y024213D02*
D03*
X041732Y046102D02*
D03*
X039331Y046496D02*
D03*
X059467Y026615D02*
D03*
X046102Y020472D02*
D03*
X056339Y016811D02*
D03*
X046967Y01673D02*
D03*
X031417Y017512D02*
D03*
X04685Y04D02*
D03*
X030945Y018268D02*
D03*
X030942Y018656D02*
D03*
Y019065D02*
D03*
X031299Y018661D02*
D03*
Y01907D02*
D03*
X030591Y018268D02*
D03*
Y018661D02*
D03*
X037323Y026654D02*
D03*
Y027441D02*
D03*
Y027047D02*
D03*
X036929Y027441D02*
D03*
Y026654D02*
D03*
Y027047D02*
D03*
X03315Y024528D02*
D03*
X033583D02*
D03*
X034016D02*
D03*
X033346Y019055D02*
D03*
X032913D02*
D03*
X03378D02*
D03*
X037992Y019606D02*
D03*
Y02D02*
D03*
X037461Y02125D02*
D03*
X037598Y021575D02*
D03*
X032314Y025088D02*
D03*
X032283Y019055D02*
D03*
Y018661D02*
D03*
X032323Y024631D02*
D03*
X031956Y025083D02*
D03*
X03185Y019055D02*
D03*
X031965Y024625D02*
D03*
X031815Y041384D02*
D03*
D202*
X053337Y041614D02*
D03*
X057313Y027126D02*
D03*
X043927Y020994D02*
D03*
M02*
