G04*
G04 #@! TF.GenerationSoftware,Altium Limited,Altium Designer,18.1.6 (161)*
G04*
G04 Layer_Color=32896*
%FSTAX24Y24*%
%MOIN*%
G70*
G01*
G75*
%ADD10C,0.0060*%
D10*
X059244Y034961D02*
G03*
X059244Y034961I-0001J0D01*
G01*
X058909Y035541D02*
G03*
X058909Y035541I-0001J0D01*
G01*
X058643Y034961D02*
G03*
X058643Y034961I-0001J0D01*
G01*
X058368Y035551D02*
G03*
X058368Y035551I-0001J0D01*
G01*
X060858Y035187D02*
G03*
X060858Y035187I-0001J0D01*
G01*
X058998Y039754D02*
G03*
X058998Y039754I-0001J0D01*
G01*
X056754Y036772D02*
G03*
X056754Y036772I-0001J0D01*
G01*
X06137Y035187D02*
G03*
X06137Y035187I-0001J0D01*
G01*
X056754Y037362D02*
G03*
X056754Y037362I-0001J0D01*
G01*
X05947Y039754D02*
G03*
X05947Y039754I-0001J0D01*
G01*
X064106Y037726D02*
G03*
X064106Y037726I-000474J0D01*
G01*
Y038878D02*
G03*
X064106Y038878I-000474J0D01*
G01*
X061872Y037953D02*
G03*
X061872Y037953I-0001J0D01*
G01*
Y038543D02*
G03*
X061872Y038543I-0001J0D01*
G01*
X064106Y036585D02*
G03*
X064106Y036585I-000474J0D01*
G01*
X057858Y048419D02*
X059858D01*
Y049019D01*
X057858D02*
X059858D01*
X057858Y048419D02*
Y049019D01*
X057658Y048419D02*
X057858D01*
X057658Y048019D02*
Y048419D01*
X057358Y048019D02*
X057658D01*
X057358Y047619D02*
Y048019D01*
Y047619D02*
X057658D01*
Y046869D02*
Y047619D01*
X057358Y046869D02*
X057658D01*
X057358Y046069D02*
Y046869D01*
Y046069D02*
X057658D01*
Y042319D02*
Y046069D01*
Y042319D02*
X060058D01*
Y048419D01*
X057858D02*
X060058D01*
X056558Y047969D02*
X056758Y048169D01*
X056558Y047969D02*
Y048369D01*
X056758Y048169D01*
X058858Y049169D02*
X058958Y049269D01*
X058908D02*
X058958D01*
X058908D02*
Y049619D01*
X058808D02*
X058908D01*
X058808Y049269D02*
Y049619D01*
X058758Y049269D02*
X058808D01*
X058758D02*
X058858Y049169D01*
X058687Y033437D02*
Y034437D01*
X057887Y033437D02*
Y034437D01*
X058687D01*
X057887Y033437D02*
X058687D01*
X058367Y033207D02*
X058517Y033357D01*
X058667Y033207D01*
X058367D02*
X058667D01*
X060986Y03644D02*
Y03664D01*
X060887Y03654D02*
X060986Y03664D01*
X060887Y03654D02*
X060986Y03644D01*
X058036Y03624D02*
Y03904D01*
X060837Y03624D02*
Y03904D01*
X058036D02*
X060837D01*
X058036Y03624D02*
X060837D01*
M02*
