G04*
G04 #@! TF.GenerationSoftware,Altium Limited,Altium Designer,18.1.6 (161)*
G04*
G04 Layer_Physical_Order=5*
G04 Layer_Color=16737945*
%FSTAX24Y24*%
%MOIN*%
G70*
G01*
G75*
%ADD184R,0.0591X0.0591*%
%ADD187C,0.0472*%
%ADD188C,0.0610*%
G04:AMPARAMS|DCode=189|XSize=70.9mil|YSize=39.4mil|CornerRadius=9.8mil|HoleSize=0mil|Usage=FLASHONLY|Rotation=90.000|XOffset=0mil|YOffset=0mil|HoleType=Round|Shape=RoundedRectangle|*
%AMROUNDEDRECTD189*
21,1,0.0709,0.0197,0,0,90.0*
21,1,0.0512,0.0394,0,0,90.0*
1,1,0.0197,0.0098,0.0256*
1,1,0.0197,0.0098,-0.0256*
1,1,0.0197,-0.0098,-0.0256*
1,1,0.0197,-0.0098,0.0256*
%
%ADD189ROUNDEDRECTD189*%
%ADD190O,0.0394X0.0827*%
%ADD193C,0.0562*%
%ADD194C,0.1290*%
%ADD195C,0.0650*%
%ADD196O,0.1299X0.1575*%
%ADD197C,0.1181*%
%ADD200C,0.0157*%
%ADD201C,0.0315*%
G36*
X056535Y048819D02*
Y037402D01*
X05752Y036417D01*
X062343D01*
X062933Y035827D01*
X063819D01*
X064016Y03563D01*
Y025281D01*
X063967Y025272D01*
X063964Y025278D01*
X063878Y025418D01*
X063772Y025543D01*
X063647Y02565D01*
X063507Y025736D01*
X063355Y025798D01*
X063195Y025837D01*
X063032Y02585D01*
X062868Y025837D01*
X062708Y025798D01*
X062556Y025736D01*
X062416Y02565D01*
X062291Y025543D01*
X062185Y025418D01*
X062099Y025278D01*
X062036Y025127D01*
X061998Y024967D01*
X061985Y024803D01*
X061998Y024639D01*
X062036Y02448D01*
X062099Y024328D01*
X062185Y024188D01*
X062291Y024063D01*
X062416Y023956D01*
X062556Y023871D01*
X062708Y023808D01*
X062868Y02377D01*
X063032Y023757D01*
X063195Y02377D01*
X063355Y023808D01*
X063507Y023871D01*
X063647Y023956D01*
X063772Y024063D01*
X063878Y024188D01*
X063964Y024328D01*
X063967Y024335D01*
X064016Y024325D01*
Y018906D01*
X063966Y018896D01*
X063956Y018921D01*
X063866Y019038D01*
X063749Y019127D01*
X063613Y019184D01*
X063467Y019203D01*
X063321Y019184D01*
X063185Y019127D01*
X063069Y019038D01*
X062979Y018921D01*
X062923Y018785D01*
X062903Y018639D01*
X062923Y018493D01*
X062979Y018357D01*
X063069Y01824D01*
X063185Y018151D01*
X063321Y018094D01*
X063467Y018075D01*
X063613Y018094D01*
X063749Y018151D01*
X063866Y01824D01*
X063956Y018357D01*
X063966Y018382D01*
X064016Y018372D01*
Y01378D01*
X063819Y013583D01*
X029651D01*
X029642Y013632D01*
X029648Y013634D01*
X029788Y01372D01*
X029913Y013827D01*
X03002Y013952D01*
X030106Y014092D01*
X030169Y014244D01*
X030207Y014403D01*
X03022Y014567D01*
X030207Y014731D01*
X030169Y01489D01*
X030106Y015042D01*
X03002Y015182D01*
X029913Y015307D01*
X029788Y015414D01*
X029648Y015499D01*
X029497Y015562D01*
X029337Y015601D01*
X029173Y015613D01*
X02901Y015601D01*
X02885Y015562D01*
X028698Y015499D01*
X028558Y015414D01*
X028433Y015307D01*
X028327Y015182D01*
X028241Y015042D01*
X028238Y015035D01*
X028189Y015045D01*
Y047553D01*
X028238Y047563D01*
X028241Y047556D01*
X028327Y047416D01*
X028433Y047291D01*
X028558Y047185D01*
X028698Y047099D01*
X02885Y047036D01*
X02901Y046998D01*
X029173Y046985D01*
X029337Y046998D01*
X029497Y047036D01*
X029648Y047099D01*
X029788Y047185D01*
X029913Y047291D01*
X03002Y047416D01*
X030106Y047556D01*
X030169Y047708D01*
X030207Y047868D01*
X03022Y048032D01*
X030207Y048195D01*
X030169Y048355D01*
X030106Y048507D01*
X03002Y048647D01*
X029913Y048772D01*
X029788Y048878D01*
X029648Y048964D01*
X029642Y048967D01*
X029651Y049016D01*
X04937D01*
X049391Y048966D01*
X049342Y048901D01*
X049303Y048808D01*
X04929Y048708D01*
Y048458D01*
X049303Y048357D01*
X049342Y048264D01*
X049403Y048184D01*
X049483Y048122D01*
X049577Y048084D01*
X049677Y04807D01*
X049777Y048084D01*
X049871Y048122D01*
X049951Y048184D01*
X050013Y048264D01*
X050051Y048357D01*
X050065Y048458D01*
Y048708D01*
X050051Y048808D01*
X050013Y048901D01*
X049963Y048966D01*
X049984Y049016D01*
X05037D01*
X050391Y048966D01*
X050342Y048901D01*
X050303Y048808D01*
X05029Y048708D01*
Y048458D01*
X050303Y048357D01*
X050342Y048264D01*
X050403Y048184D01*
X050483Y048122D01*
X050577Y048084D01*
X050677Y04807D01*
X050777Y048084D01*
X050871Y048122D01*
X050951Y048184D01*
X051013Y048264D01*
X051051Y048357D01*
X051065Y048458D01*
Y048708D01*
X051051Y048808D01*
X051013Y048901D01*
X050963Y048966D01*
X050984Y049016D01*
X05137D01*
X051391Y048966D01*
X051342Y048901D01*
X051303Y048808D01*
X05129Y048708D01*
Y048458D01*
X051303Y048357D01*
X051342Y048264D01*
X051403Y048184D01*
X051483Y048122D01*
X051577Y048084D01*
X051677Y04807D01*
X051777Y048084D01*
X051871Y048122D01*
X051951Y048184D01*
X052013Y048264D01*
X052051Y048357D01*
X052065Y048458D01*
Y048708D01*
X052051Y048808D01*
X052013Y048901D01*
X051963Y048966D01*
X051984Y049016D01*
X05237D01*
X052391Y048966D01*
X052342Y048901D01*
X052303Y048808D01*
X05229Y048708D01*
Y048458D01*
X052303Y048357D01*
X052342Y048264D01*
X052403Y048184D01*
X052483Y048122D01*
X052577Y048084D01*
X052677Y04807D01*
X052777Y048084D01*
X052871Y048122D01*
X052951Y048184D01*
X053013Y048264D01*
X053051Y048357D01*
X053065Y048458D01*
Y048708D01*
X053051Y048808D01*
X053013Y048901D01*
X052963Y048966D01*
X052984Y049016D01*
X05337D01*
X053391Y048966D01*
X053342Y048901D01*
X053303Y048808D01*
X05329Y048708D01*
Y048458D01*
X053303Y048357D01*
X053342Y048264D01*
X053403Y048184D01*
X053483Y048122D01*
X053577Y048084D01*
X053677Y04807D01*
X053777Y048084D01*
X053871Y048122D01*
X053951Y048184D01*
X054013Y048264D01*
X054051Y048357D01*
X054065Y048458D01*
Y048708D01*
X054051Y048808D01*
X054013Y048901D01*
X053963Y048966D01*
X053984Y049016D01*
X05437D01*
X054391Y048966D01*
X054342Y048901D01*
X054303Y048808D01*
X05429Y048708D01*
Y048458D01*
X054303Y048357D01*
X054342Y048264D01*
X054403Y048184D01*
X054483Y048122D01*
X054577Y048084D01*
X054677Y04807D01*
X054777Y048084D01*
X054871Y048122D01*
X054951Y048184D01*
X055013Y048264D01*
X055051Y048357D01*
X055065Y048458D01*
Y048708D01*
X055051Y048808D01*
X055013Y048901D01*
X054963Y048966D01*
X054984Y049016D01*
X055293D01*
Y048074D01*
X056061D01*
Y049016D01*
X056339D01*
X056535Y048819D01*
D02*
G37*
G36*
X061063D02*
Y047441D01*
X06185Y046654D01*
X063622D01*
X064016Y04626D01*
Y037939D01*
X063971Y037922D01*
X063966Y037922D01*
X063906Y038D01*
X063826Y038062D01*
X063732Y038101D01*
X063632Y038114D01*
X063532Y038101D01*
X063438Y038062D01*
X063358Y038D01*
X063296Y03792D01*
X063258Y037827D01*
X063245Y037726D01*
X063258Y037626D01*
X063296Y037533D01*
X063358Y037452D01*
X063438Y037391D01*
X063532Y037352D01*
X063632Y037339D01*
X063732Y037352D01*
X063826Y037391D01*
X063906Y037452D01*
X063966Y037531D01*
X063971Y037531D01*
X064016Y037514D01*
Y036797D01*
X063971Y03678D01*
X063966Y03678D01*
X063906Y036859D01*
X063826Y03692D01*
X063732Y036959D01*
X063632Y036972D01*
X063532Y036959D01*
X063438Y03692D01*
X063358Y036859D01*
X063296Y036778D01*
X063258Y036685D01*
X063245Y036585D01*
X063258Y036484D01*
X063296Y036391D01*
X063358Y036311D01*
X063438Y036249D01*
X063532Y03621D01*
X063632Y036197D01*
X063732Y03621D01*
X063826Y036249D01*
X063906Y036311D01*
X063966Y036389D01*
X063971Y036389D01*
X064016Y036372D01*
Y03622D01*
X063819Y036024D01*
X063032D01*
X062441Y036614D01*
X057717D01*
X057224Y037106D01*
X057224Y038583D01*
X056732Y039075D01*
Y048819D01*
X056929Y049016D01*
X060866D01*
X061063Y048819D01*
D02*
G37*
%LPC*%
G36*
X048685Y048937D02*
X047976D01*
Y048228D01*
X048685D01*
Y048937D01*
D02*
G37*
G36*
X042339D02*
X04163D01*
Y048228D01*
X042339D01*
Y048937D01*
D02*
G37*
G36*
X047331Y04894D02*
X047238Y048928D01*
X047152Y048892D01*
X047078Y048835D01*
X047021Y048761D01*
X046986Y048675D01*
X046973Y048583D01*
X046986Y04849D01*
X047021Y048404D01*
X047078Y04833D01*
X047152Y048273D01*
X047238Y048237D01*
X047331Y048225D01*
X047423Y048237D01*
X047509Y048273D01*
X047583Y04833D01*
X04764Y048404D01*
X047676Y04849D01*
X047688Y048583D01*
X047676Y048675D01*
X04764Y048761D01*
X047583Y048835D01*
X047509Y048892D01*
X047423Y048928D01*
X047331Y04894D01*
D02*
G37*
G36*
X046331D02*
X046238Y048928D01*
X046152Y048892D01*
X046078Y048835D01*
X046021Y048761D01*
X045985Y048675D01*
X045973Y048583D01*
X045985Y04849D01*
X046021Y048404D01*
X046078Y04833D01*
X046152Y048273D01*
X046238Y048237D01*
X046331Y048225D01*
X046423Y048237D01*
X046509Y048273D01*
X046583Y04833D01*
X04664Y048404D01*
X046676Y04849D01*
X046688Y048583D01*
X046676Y048675D01*
X04664Y048761D01*
X046583Y048835D01*
X046509Y048892D01*
X046423Y048928D01*
X046331Y04894D01*
D02*
G37*
G36*
X045331D02*
X045238Y048928D01*
X045152Y048892D01*
X045078Y048835D01*
X045021Y048761D01*
X044985Y048675D01*
X044973Y048583D01*
X044985Y04849D01*
X045021Y048404D01*
X045078Y04833D01*
X045152Y048273D01*
X045238Y048237D01*
X045331Y048225D01*
X045423Y048237D01*
X045509Y048273D01*
X045583Y04833D01*
X04564Y048404D01*
X045676Y04849D01*
X045688Y048583D01*
X045676Y048675D01*
X04564Y048761D01*
X045583Y048835D01*
X045509Y048892D01*
X045423Y048928D01*
X045331Y04894D01*
D02*
G37*
G36*
X044331D02*
X044238Y048928D01*
X044152Y048892D01*
X044078Y048835D01*
X044021Y048761D01*
X043986Y048675D01*
X043973Y048583D01*
X043986Y04849D01*
X044021Y048404D01*
X044078Y04833D01*
X044152Y048273D01*
X044238Y048237D01*
X044331Y048225D01*
X044423Y048237D01*
X044509Y048273D01*
X044583Y04833D01*
X04464Y048404D01*
X044676Y04849D01*
X044688Y048583D01*
X044676Y048675D01*
X04464Y048761D01*
X044583Y048835D01*
X044509Y048892D01*
X044423Y048928D01*
X044331Y04894D01*
D02*
G37*
G36*
X043331D02*
X043238Y048928D01*
X043152Y048892D01*
X043078Y048835D01*
X043021Y048761D01*
X042986Y048675D01*
X042973Y048583D01*
X042986Y04849D01*
X043021Y048404D01*
X043078Y04833D01*
X043152Y048273D01*
X043238Y048237D01*
X043331Y048225D01*
X043423Y048237D01*
X043509Y048273D01*
X043583Y04833D01*
X04364Y048404D01*
X043676Y04849D01*
X043688Y048583D01*
X043676Y048675D01*
X04364Y048761D01*
X043583Y048835D01*
X043509Y048892D01*
X043423Y048928D01*
X043331Y04894D01*
D02*
G37*
G36*
X040984D02*
X040892Y048928D01*
X040806Y048892D01*
X040732Y048835D01*
X040675Y048761D01*
X040639Y048675D01*
X040627Y048583D01*
X040639Y04849D01*
X040675Y048404D01*
X040732Y04833D01*
X040806Y048273D01*
X040892Y048237D01*
X040984Y048225D01*
X041077Y048237D01*
X041163Y048273D01*
X041237Y04833D01*
X041294Y048404D01*
X041329Y04849D01*
X041342Y048583D01*
X041329Y048675D01*
X041294Y048761D01*
X041237Y048835D01*
X041163Y048892D01*
X041077Y048928D01*
X040984Y04894D01*
D02*
G37*
G36*
X039984D02*
X039892Y048928D01*
X039806Y048892D01*
X039732Y048835D01*
X039675Y048761D01*
X039639Y048675D01*
X039627Y048583D01*
X039639Y04849D01*
X039675Y048404D01*
X039732Y04833D01*
X039806Y048273D01*
X039892Y048237D01*
X039984Y048225D01*
X040077Y048237D01*
X040163Y048273D01*
X040237Y04833D01*
X040294Y048404D01*
X040329Y04849D01*
X040342Y048583D01*
X040329Y048675D01*
X040294Y048761D01*
X040237Y048835D01*
X040163Y048892D01*
X040077Y048928D01*
X039984Y04894D01*
D02*
G37*
G36*
X038984D02*
X038892Y048928D01*
X038806Y048892D01*
X038732Y048835D01*
X038675Y048761D01*
X038639Y048675D01*
X038627Y048583D01*
X038639Y04849D01*
X038675Y048404D01*
X038732Y04833D01*
X038806Y048273D01*
X038892Y048237D01*
X038984Y048225D01*
X039077Y048237D01*
X039163Y048273D01*
X039237Y04833D01*
X039294Y048404D01*
X039329Y04849D01*
X039342Y048583D01*
X039329Y048675D01*
X039294Y048761D01*
X039237Y048835D01*
X039163Y048892D01*
X039077Y048928D01*
X038984Y04894D01*
D02*
G37*
G36*
X040354Y047179D02*
X0403Y047168D01*
X040254Y047138D01*
X040224Y047092D01*
X040213Y047038D01*
X040224Y046984D01*
X040254Y046939D01*
X0403Y046908D01*
X040354Y046898D01*
X040407Y046908D01*
X040453Y046939D01*
X040483Y046984D01*
X040494Y047038D01*
X040483Y047092D01*
X040453Y047138D01*
X040407Y047168D01*
X040354Y047179D01*
D02*
G37*
G36*
X044961Y04707D02*
X044907Y047059D01*
X044861Y047028D01*
X044831Y046983D01*
X04482Y046929D01*
X044831Y046875D01*
X044861Y04683D01*
X044907Y046799D01*
X044961Y046789D01*
X045014Y046799D01*
X04506Y04683D01*
X04509Y046875D01*
X045101Y046929D01*
X04509Y046983D01*
X04506Y047028D01*
X045014Y047059D01*
X044961Y04707D01*
D02*
G37*
G36*
X04126Y04703D02*
X041206Y04702D01*
X04116Y046989D01*
X04113Y046944D01*
X041119Y04689D01*
X04113Y046836D01*
X04116Y04679D01*
X041206Y04676D01*
X04126Y046749D01*
X041314Y04676D01*
X041359Y04679D01*
X04139Y046836D01*
X0414Y04689D01*
X04139Y046944D01*
X041359Y046989D01*
X041314Y04702D01*
X04126Y04703D01*
D02*
G37*
G36*
X040787D02*
X040734Y04702D01*
X040688Y046989D01*
X040658Y046944D01*
X040647Y04689D01*
X040658Y046836D01*
X040688Y04679D01*
X040734Y04676D01*
X040787Y046749D01*
X040841Y04676D01*
X040887Y04679D01*
X040917Y046836D01*
X040928Y04689D01*
X040917Y046944D01*
X040887Y046989D01*
X040841Y04702D01*
X040787Y04703D01*
D02*
G37*
G36*
X051772Y046912D02*
X051718Y046901D01*
X051672Y046871D01*
X051642Y046825D01*
X051631Y046772D01*
X051642Y046718D01*
X051672Y046672D01*
X051718Y046642D01*
X051772Y046631D01*
X051825Y046642D01*
X051871Y046672D01*
X051901Y046718D01*
X051912Y046772D01*
X051901Y046825D01*
X051871Y046871D01*
X051825Y046901D01*
X051772Y046912D01*
D02*
G37*
G36*
X046614Y046912D02*
X04656Y046901D01*
X046515Y046871D01*
X046484Y046825D01*
X046474Y046772D01*
X046484Y046718D01*
X046515Y046672D01*
X04656Y046642D01*
X046614Y046631D01*
X046668Y046642D01*
X046714Y046672D01*
X046744Y046718D01*
X046755Y046772D01*
X046744Y046825D01*
X046714Y046871D01*
X046668Y046901D01*
X046614Y046912D01*
D02*
G37*
G36*
X046181D02*
X046127Y046901D01*
X046082Y046871D01*
X046051Y046825D01*
X046041Y046772D01*
X046051Y046718D01*
X046082Y046672D01*
X046127Y046642D01*
X046181Y046631D01*
X046235Y046642D01*
X04628Y046672D01*
X046311Y046718D01*
X046322Y046772D01*
X046311Y046825D01*
X04628Y046871D01*
X046235Y046901D01*
X046181Y046912D01*
D02*
G37*
G36*
X045748D02*
X045694Y046901D01*
X045649Y046871D01*
X045618Y046825D01*
X045608Y046772D01*
X045618Y046718D01*
X045649Y046672D01*
X045694Y046642D01*
X045748Y046631D01*
X045802Y046642D01*
X045847Y046672D01*
X045878Y046718D01*
X045889Y046772D01*
X045878Y046825D01*
X045847Y046871D01*
X045802Y046901D01*
X045748Y046912D01*
D02*
G37*
G36*
X045315D02*
X045261Y046901D01*
X045216Y046871D01*
X045185Y046825D01*
X045174Y046772D01*
X045185Y046718D01*
X045216Y046672D01*
X045261Y046642D01*
X045315Y046631D01*
X045369Y046642D01*
X045414Y046672D01*
X045445Y046718D01*
X045455Y046772D01*
X045445Y046825D01*
X045414Y046871D01*
X045369Y046901D01*
X045315Y046912D01*
D02*
G37*
G36*
X053898Y046833D02*
X053844Y046823D01*
X053798Y046792D01*
X053768Y046747D01*
X053757Y046693D01*
X053768Y046639D01*
X053798Y046594D01*
X053844Y046563D01*
X053898Y046552D01*
X053951Y046563D01*
X053997Y046594D01*
X054027Y046639D01*
X054038Y046693D01*
X054027Y046747D01*
X053997Y046792D01*
X053951Y046823D01*
X053898Y046833D01*
D02*
G37*
G36*
X053465D02*
X053411Y046823D01*
X053365Y046792D01*
X053335Y046747D01*
X053324Y046693D01*
X053335Y046639D01*
X053365Y046594D01*
X053411Y046563D01*
X053465Y046552D01*
X053518Y046563D01*
X053564Y046594D01*
X053594Y046639D01*
X053605Y046693D01*
X053594Y046747D01*
X053564Y046792D01*
X053518Y046823D01*
X053465Y046833D01*
D02*
G37*
G36*
X053032D02*
X052978Y046823D01*
X052932Y046792D01*
X052902Y046747D01*
X052891Y046693D01*
X052902Y046639D01*
X052932Y046594D01*
X052978Y046563D01*
X053032Y046552D01*
X053085Y046563D01*
X053131Y046594D01*
X053161Y046639D01*
X053172Y046693D01*
X053161Y046747D01*
X053131Y046792D01*
X053085Y046823D01*
X053032Y046833D01*
D02*
G37*
G36*
X052598D02*
X052545Y046823D01*
X052499Y046792D01*
X052469Y046747D01*
X052458Y046693D01*
X052469Y046639D01*
X052499Y046594D01*
X052545Y046563D01*
X052598Y046552D01*
X052652Y046563D01*
X052698Y046594D01*
X052728Y046639D01*
X052739Y046693D01*
X052728Y046747D01*
X052698Y046792D01*
X052652Y046823D01*
X052598Y046833D01*
D02*
G37*
G36*
X052165D02*
X052112Y046823D01*
X052066Y046792D01*
X052036Y046747D01*
X052025Y046693D01*
X052036Y046639D01*
X052066Y046594D01*
X052112Y046563D01*
X052165Y046552D01*
X052219Y046563D01*
X052265Y046594D01*
X052295Y046639D01*
X052306Y046693D01*
X052295Y046747D01*
X052265Y046792D01*
X052219Y046823D01*
X052165Y046833D01*
D02*
G37*
G36*
X039331Y046717D02*
X039246Y0467D01*
X039175Y046652D01*
X039127Y046581D01*
X03911Y046496D01*
X039127Y046412D01*
X039175Y04634D01*
X039246Y046292D01*
X039331Y046275D01*
X039415Y046292D01*
X039487Y04634D01*
X039535Y046412D01*
X039551Y046496D01*
X039535Y046581D01*
X039487Y046652D01*
X039415Y0467D01*
X039331Y046717D01*
D02*
G37*
G36*
X045236Y045967D02*
X045182Y045957D01*
X045137Y045926D01*
X045099D01*
X045054Y045957D01*
X045Y045967D01*
X044946Y045957D01*
X044901Y045926D01*
X04487Y045881D01*
X044859Y045827D01*
X04487Y045773D01*
X044843Y045723D01*
X044828Y04572D01*
X044783Y04569D01*
X044752Y045644D01*
X044741Y045591D01*
X044752Y045537D01*
X044783Y045491D01*
X044828Y045461D01*
X044882Y04545D01*
X044936Y045461D01*
X044981Y045491D01*
X045019D01*
X045064Y045461D01*
X045118Y04545D01*
X045172Y045461D01*
X045217Y045491D01*
X045255D01*
X045301Y045461D01*
X045354Y04545D01*
X045408Y045461D01*
X045454Y045491D01*
X045484Y045537D01*
X045495Y045591D01*
X045484Y045644D01*
X045454Y04569D01*
X045408Y04572D01*
X045393Y045723D01*
X045366Y045773D01*
X045377Y045827D01*
X045366Y045881D01*
X045336Y045926D01*
X04529Y045957D01*
X045236Y045967D01*
D02*
G37*
G36*
X041732Y046323D02*
X041648Y046306D01*
X041576Y046258D01*
X041528Y046187D01*
X041512Y046102D01*
X041528Y046018D01*
X041576Y045946D01*
X041648Y045898D01*
X041732Y045882D01*
X041817Y045898D01*
X041888Y045946D01*
X041936Y046018D01*
X041953Y046102D01*
X041936Y046187D01*
X041888Y046258D01*
X041817Y046306D01*
X041732Y046323D01*
D02*
G37*
G36*
X039843Y045928D02*
X039789Y045917D01*
X039743Y045887D01*
X039713Y045841D01*
X039702Y045787D01*
X039713Y045734D01*
X039743Y045688D01*
Y045651D01*
X039713Y045605D01*
X039702Y045551D01*
X039713Y045497D01*
X039743Y045452D01*
X039789Y045421D01*
X039843Y045411D01*
X039896Y045421D01*
X039942Y045452D01*
X039972Y045497D01*
X039983Y045551D01*
X039972Y045605D01*
X039942Y045651D01*
Y045688D01*
X039972Y045734D01*
X039983Y045787D01*
X039972Y045841D01*
X039942Y045887D01*
X039896Y045917D01*
X039843Y045928D01*
D02*
G37*
G36*
X040315Y045426D02*
X040261Y045415D01*
X040216Y045385D01*
X040185Y045339D01*
X040174Y045285D01*
X04018Y045258D01*
X040141Y045215D01*
X040118Y045219D01*
X040064Y045209D01*
X040019Y045178D01*
X039988Y045133D01*
X039978Y045079D01*
X039988Y045025D01*
X040019Y044979D01*
X040064Y044949D01*
X040118Y044938D01*
X040172Y044949D01*
X040217Y044979D01*
X040248Y045025D01*
X040259Y045079D01*
X040253Y045106D01*
X040292Y045149D01*
X040315Y045145D01*
X040369Y045156D01*
X040414Y045186D01*
X040445Y045232D01*
X040455Y045285D01*
X040445Y045339D01*
X040414Y045385D01*
X040369Y045415D01*
X040315Y045426D01*
D02*
G37*
G36*
X043298Y045223D02*
X043244Y045212D01*
X043198Y045182D01*
X043168Y045136D01*
X043157Y045083D01*
X043162Y045058D01*
X043122Y045015D01*
X043099Y04502D01*
X043045Y045009D01*
X042999Y044979D01*
X042969Y044933D01*
X042958Y044879D01*
X042969Y044825D01*
X042999Y04478D01*
X043045Y044749D01*
X043099Y044739D01*
X043152Y044749D01*
X043198Y04478D01*
X043228Y044825D01*
X043239Y044879D01*
X043234Y044904D01*
X043275Y044947D01*
X043298Y044942D01*
X043352Y044953D01*
X043397Y044983D01*
X043428Y045029D01*
X043438Y045083D01*
X043428Y045136D01*
X043397Y045182D01*
X043352Y045212D01*
X043298Y045223D01*
D02*
G37*
G36*
X054347Y044771D02*
X054339Y044769D01*
X05433Y044771D01*
X054254Y044761D01*
X054247Y044757D01*
X054238D01*
X054167Y044727D01*
X054161Y044721D01*
X054152Y044719D01*
X054091Y044672D01*
X054087Y044665D01*
X05408Y04466D01*
X054033Y0446D01*
X054031Y044591D01*
X054025Y044585D01*
X053995Y044514D01*
Y044505D01*
X053991Y044498D01*
X053981Y044422D01*
X053983Y044413D01*
X053981Y044405D01*
X053991Y044329D01*
X053995Y044321D01*
Y044313D01*
X054025Y044242D01*
X054031Y044236D01*
X054033Y044227D01*
X05408Y044166D01*
X054087Y044162D01*
X054091Y044154D01*
X054152Y044108D01*
X054161Y044105D01*
X054167Y044099D01*
X054198Y044086D01*
X054193Y044034D01*
X054159Y044027D01*
X054113Y043997D01*
X054083Y043951D01*
X054072Y043898D01*
X054083Y043844D01*
X054113Y043798D01*
X054159Y043768D01*
X054213Y043757D01*
X054266Y043768D01*
X054312Y043798D01*
X054342Y043844D01*
X054353Y043898D01*
X054342Y043951D01*
X054312Y043997D01*
X054292Y04401D01*
X05431Y044058D01*
X05433Y044056D01*
X054339Y044058D01*
X054347Y044056D01*
X054423Y044066D01*
X054431Y04407D01*
X054439D01*
X05451Y044099D01*
X054516Y044105D01*
X054525Y044108D01*
X054586Y044154D01*
X05459Y044162D01*
X054597Y044166D01*
X054644Y044227D01*
X054647Y044236D01*
X054653Y044242D01*
X054682Y044313D01*
Y044321D01*
X054686Y044329D01*
X054696Y044405D01*
X054694Y044413D01*
X054696Y044422D01*
X054686Y044498D01*
X054682Y044505D01*
Y044514D01*
X054653Y044585D01*
X054647Y044591D01*
X054644Y0446D01*
X054597Y04466D01*
X05459Y044665D01*
X054586Y044672D01*
X054525Y044719D01*
X054516Y044721D01*
X05451Y044727D01*
X054439Y044757D01*
X054431D01*
X054423Y044761D01*
X054347Y044771D01*
D02*
G37*
G36*
X055146Y04477D02*
X055138Y044768D01*
X055129Y04477D01*
X055053Y04476D01*
X055046Y044756D01*
X055037D01*
X054966Y044727D01*
X05496Y044721D01*
X054952Y044718D01*
X054891Y044672D01*
X054887Y044664D01*
X054879Y04466D01*
X054833Y044599D01*
X05483Y044591D01*
X054824Y044585D01*
X054795Y044514D01*
Y044505D01*
X054791Y044498D01*
X054781Y044422D01*
X054783Y044413D01*
X054781Y044405D01*
X054791Y044329D01*
X054795Y044322D01*
Y044313D01*
X054824Y044242D01*
X05483Y044236D01*
X054833Y044228D01*
X054879Y044167D01*
X054887Y044162D01*
X054891Y044155D01*
X054952Y044108D01*
X05496Y044106D01*
X054966Y0441D01*
X055037Y044071D01*
X055046D01*
X055053Y044066D01*
X055129Y044056D01*
X055138Y044059D01*
X055146Y044056D01*
X055222Y044066D01*
X05523Y044071D01*
X055238D01*
X055309Y0441D01*
X055315Y044106D01*
X055324Y044108D01*
X055384Y044155D01*
X055389Y044162D01*
X055396Y044167D01*
X055443Y044228D01*
X055445Y044236D01*
X055451Y044242D01*
X055481Y044313D01*
Y044322D01*
X055485Y044329D01*
X055495Y044405D01*
X055493Y044413D01*
X055495Y044422D01*
X055485Y044498D01*
X055481Y044505D01*
Y044514D01*
X055451Y044585D01*
X055445Y044591D01*
X055443Y044599D01*
X055396Y04466D01*
X055389Y044664D01*
X055384Y044672D01*
X055324Y044718D01*
X055315Y044721D01*
X055309Y044727D01*
X055238Y044756D01*
X05523D01*
X055222Y04476D01*
X055146Y04477D01*
D02*
G37*
G36*
X049173Y044668D02*
X049119Y044657D01*
X049074Y044627D01*
X049065Y044614D01*
X049005D01*
X048997Y044627D01*
X048951Y044657D01*
X048898Y044668D01*
X048844Y044657D01*
X048798Y044627D01*
X048768Y044581D01*
X048757Y044528D01*
X048768Y044474D01*
X048798Y044428D01*
X048844Y044398D01*
X048898Y044387D01*
X048951Y044398D01*
X048997Y044428D01*
X049005Y044441D01*
X049065D01*
X049074Y044428D01*
X049119Y044398D01*
X049173Y044387D01*
X049227Y044398D01*
X049273Y044428D01*
X049303Y044474D01*
X049314Y044528D01*
X049303Y044581D01*
X049273Y044627D01*
X049227Y044657D01*
X049173Y044668D01*
D02*
G37*
G36*
X049528Y044786D02*
X049474Y044775D01*
X049428Y044745D01*
X049398Y044699D01*
X049387Y044646D01*
X049398Y044592D01*
X049428Y044546D01*
X049474Y044516D01*
X049528Y044505D01*
X049581Y044516D01*
X049627Y044546D01*
X049657Y044592D01*
X049668Y044646D01*
X049657Y044699D01*
X049627Y044745D01*
X049581Y044775D01*
X049528Y044786D01*
D02*
G37*
G36*
X048504Y044668D02*
X04845Y044657D01*
X048405Y044627D01*
X048374Y044581D01*
X048363Y044528D01*
X048374Y044474D01*
X048405Y044428D01*
X04845Y044398D01*
X048504Y044387D01*
X048558Y044398D01*
X048603Y044428D01*
X048634Y044474D01*
X048644Y044528D01*
X048634Y044581D01*
X048603Y044627D01*
X048558Y044657D01*
X048504Y044668D01*
D02*
G37*
G36*
X040119Y04483D02*
X040065Y044819D01*
X040019Y044789D01*
X039989Y044743D01*
X039978Y044689D01*
X039989Y044635D01*
X040019Y04459D01*
X040065Y044559D01*
X040119Y044549D01*
X040138Y044553D01*
X040181Y04451D01*
X040177Y044493D01*
X040188Y044439D01*
X040218Y044393D01*
X040264Y044363D01*
X040318Y044352D01*
X040372Y044363D01*
X040417Y044393D01*
X040448Y044439D01*
X040458Y044493D01*
X040448Y044546D01*
X040417Y044592D01*
X040372Y044622D01*
X040318Y044633D01*
X040298Y044629D01*
X040256Y044672D01*
X040259Y044689D01*
X040248Y044743D01*
X040218Y044789D01*
X040172Y044819D01*
X040119Y04483D01*
D02*
G37*
G36*
X041205Y044424D02*
X041152Y044414D01*
X041106Y044383D01*
X041076Y044338D01*
X041065Y044284D01*
X041076Y04423D01*
X041106Y044185D01*
X041152Y044154D01*
X041205Y044143D01*
X041259Y044154D01*
X041305Y044185D01*
X041335Y04423D01*
X041346Y044284D01*
X041335Y044338D01*
X041305Y044383D01*
X041259Y044414D01*
X041205Y044424D01*
D02*
G37*
G36*
X040318Y044243D02*
X040264Y044232D01*
X040218Y044202D01*
X040188Y044156D01*
X040177Y044103D01*
X040188Y044049D01*
X040218Y044003D01*
X040264Y043973D01*
X040318Y043962D01*
X040372Y043973D01*
X040417Y044003D01*
X040448Y044049D01*
X040458Y044103D01*
X040448Y044156D01*
X040417Y044202D01*
X040372Y044232D01*
X040318Y044243D01*
D02*
G37*
G36*
X045591Y043881D02*
X045537Y04387D01*
X045491Y04384D01*
X045454D01*
X045408Y04387D01*
X045354Y043881D01*
X045301Y04387D01*
X045255Y04384D01*
X045225Y043794D01*
X045214Y04374D01*
X045225Y043686D01*
X045255Y043641D01*
X045301Y04361D01*
X045354Y0436D01*
X045408Y04361D01*
X045454Y043641D01*
X045491D01*
X045537Y04361D01*
X045591Y0436D01*
X045644Y04361D01*
X04569Y043641D01*
X04572Y043686D01*
X045731Y04374D01*
X04572Y043794D01*
X04569Y04384D01*
X045644Y04387D01*
X045591Y043881D01*
D02*
G37*
G36*
X050039Y043971D02*
X049996Y043962D01*
X04996Y043938D01*
X049936Y043901D01*
X049927Y043858D01*
X049936Y043815D01*
X04996Y043779D01*
X049996Y043754D01*
X050039Y043746D01*
X050082Y043754D01*
X050119Y043779D01*
X050143Y043815D01*
X050152Y043858D01*
X050143Y043901D01*
X050119Y043938D01*
X050082Y043962D01*
X050039Y043971D01*
D02*
G37*
G36*
X048701Y043743D02*
X048647Y043732D01*
X048601Y043702D01*
X04859Y043685D01*
X048532Y043683D01*
X048495Y043707D01*
X048452Y043716D01*
X048409Y043707D01*
X048373Y043683D01*
X048348Y043646D01*
X04834Y043603D01*
X048348Y04356D01*
X048373Y043524D01*
X048409Y0435D01*
X048452Y043491D01*
X048495Y0435D01*
X048532Y043524D01*
X04859Y043521D01*
X048601Y043503D01*
X048647Y043473D01*
X048701Y043462D01*
X048755Y043473D01*
X0488Y043503D01*
X048831Y043549D01*
X048841Y043602D01*
X048831Y043656D01*
X0488Y043702D01*
X048755Y043732D01*
X048701Y043743D01*
D02*
G37*
G36*
X040318Y043843D02*
X040264Y043832D01*
X040218Y043802D01*
X040188Y043756D01*
X040177Y043703D01*
X04018Y043688D01*
X040138Y043646D01*
X040119Y04365D01*
X040065Y043639D01*
X040019Y043609D01*
X039989Y043563D01*
X039978Y043509D01*
X039989Y043455D01*
X040019Y04341D01*
X040065Y043379D01*
X040119Y043369D01*
X040138Y043373D01*
X040181Y04333D01*
X040177Y043313D01*
X040188Y043259D01*
X040218Y043213D01*
X040264Y043183D01*
X040318Y043172D01*
X040372Y043183D01*
X040417Y043213D01*
X040448Y043259D01*
X040458Y043313D01*
X040448Y043366D01*
X040417Y043412D01*
X040372Y043442D01*
X040318Y043453D01*
X040307Y043451D01*
X040269Y043485D01*
X040269Y04353D01*
X040307Y043564D01*
X040318Y043562D01*
X040372Y043573D01*
X040417Y043603D01*
X040448Y043649D01*
X040458Y043703D01*
X040448Y043756D01*
X040417Y043802D01*
X040372Y043832D01*
X040318Y043843D01*
D02*
G37*
G36*
X036654Y043871D02*
X0366Y04386D01*
X036554Y04383D01*
X036524Y043784D01*
X036513Y04373D01*
X036524Y043677D01*
X036554Y043631D01*
X0366Y043601D01*
X036654Y04359D01*
X036707Y043601D01*
X036753Y043631D01*
X036783Y043677D01*
X036794Y04373D01*
X036783Y043784D01*
X036753Y04383D01*
X036707Y04386D01*
X036654Y043871D01*
D02*
G37*
G36*
X048061Y043684D02*
X048007Y043673D01*
X047962Y043643D01*
X047931Y043597D01*
X047921Y043543D01*
X047931Y04349D01*
X047962Y043444D01*
X048007Y043414D01*
X048061Y043403D01*
X048115Y043414D01*
X04816Y043444D01*
X048191Y04349D01*
X048202Y043543D01*
X048191Y043597D01*
X04816Y043643D01*
X048115Y043673D01*
X048061Y043684D01*
D02*
G37*
G36*
X043268Y043859D02*
X043214Y043849D01*
X043168Y043818D01*
X043138Y043773D01*
X043127Y043719D01*
X043138Y043665D01*
X043168Y04362D01*
Y043602D01*
X043138Y043556D01*
X043127Y043502D01*
X043138Y043449D01*
X043168Y043403D01*
X043214Y043373D01*
X043268Y043362D01*
X043321Y043373D01*
X043367Y043403D01*
X043398Y043449D01*
X043408Y043502D01*
X043398Y043556D01*
X043367Y043602D01*
Y04362D01*
X043398Y043665D01*
X043408Y043719D01*
X043398Y043773D01*
X043367Y043818D01*
X043321Y043849D01*
X043268Y043859D01*
D02*
G37*
G36*
X037372Y043566D02*
X037318Y043555D01*
X037273Y043525D01*
X037242Y043479D01*
X037232Y043425D01*
X037242Y043371D01*
X037273Y043326D01*
X037318Y043295D01*
X037372Y043285D01*
X037426Y043295D01*
X037471Y043326D01*
X037502Y043371D01*
X037513Y043425D01*
X037502Y043479D01*
X037471Y043525D01*
X037426Y043555D01*
X037372Y043566D01*
D02*
G37*
G36*
X055287Y043566D02*
X055234Y043555D01*
X055188Y043525D01*
X055158Y043479D01*
X055147Y043425D01*
X055158Y043371D01*
X055188Y043326D01*
X055234Y043295D01*
X055287Y043285D01*
X055341Y043295D01*
X055387Y043326D01*
X055417Y043371D01*
X055428Y043425D01*
X055417Y043479D01*
X055387Y043525D01*
X055341Y043555D01*
X055287Y043566D01*
D02*
G37*
G36*
X054173D02*
X054119Y043555D01*
X054074Y043525D01*
X054043Y043479D01*
X054033Y043425D01*
X054043Y043371D01*
X054074Y043326D01*
X054119Y043295D01*
X054173Y043285D01*
X054227Y043295D01*
X054273Y043326D01*
X054303Y043371D01*
X054314Y043425D01*
X054303Y043479D01*
X054273Y043525D01*
X054227Y043555D01*
X054173Y043566D01*
D02*
G37*
G36*
X047657Y04329D02*
X047604Y043279D01*
X047558Y043249D01*
X047555Y043244D01*
X047495D01*
X047491Y043249D01*
X047446Y043279D01*
X047392Y04329D01*
X047338Y043279D01*
X047292Y043249D01*
X047262Y043203D01*
X047251Y04315D01*
X047262Y043096D01*
X047292Y04305D01*
X047338Y04302D01*
X047392Y043009D01*
X047446Y04302D01*
X047491Y04305D01*
X047495Y043055D01*
X047555D01*
X047558Y04305D01*
X047604Y04302D01*
X047657Y043009D01*
X047711Y04302D01*
X047757Y04305D01*
X047787Y043096D01*
X047798Y04315D01*
X047787Y043203D01*
X047757Y043249D01*
X047711Y043279D01*
X047657Y04329D01*
D02*
G37*
G36*
X049685Y043723D02*
X049631Y043712D01*
X049586Y043682D01*
X049555Y043636D01*
X049545Y043583D01*
X049549Y043561D01*
X049518Y043517D01*
X049511Y043515D01*
X049464Y043506D01*
X049418Y043475D01*
X049388Y04343D01*
X049377Y043376D01*
X049388Y043322D01*
X049418Y043277D01*
X049464Y043246D01*
X049518Y043235D01*
X049571Y043246D01*
X049617Y043277D01*
X049648Y043322D01*
X049658Y043376D01*
X049654Y043397D01*
X049684Y043441D01*
X049692Y043444D01*
X049739Y043453D01*
X049784Y043483D01*
X049815Y043529D01*
X049826Y043583D01*
X049815Y043636D01*
X049784Y043682D01*
X049739Y043712D01*
X049685Y043723D01*
D02*
G37*
G36*
X048701Y043408D02*
X048647Y043398D01*
X048601Y043367D01*
X048571Y043321D01*
X04856Y043268D01*
X048571Y043214D01*
X048601Y043168D01*
X048647Y043138D01*
X048701Y043127D01*
X048755Y043138D01*
X0488Y043168D01*
X048831Y043214D01*
X048841Y043268D01*
X048831Y043321D01*
X0488Y043367D01*
X048755Y043398D01*
X048701Y043408D01*
D02*
G37*
G36*
X050118Y043301D02*
X050075Y043293D01*
X050039Y043268D01*
X050014Y043232D01*
X050006Y043189D01*
X050014Y043146D01*
X050039Y043109D01*
X050075Y043085D01*
X050118Y043077D01*
X050161Y043085D01*
X050198Y043109D01*
X050222Y043146D01*
X050231Y043189D01*
X050222Y043232D01*
X050198Y043268D01*
X050161Y043293D01*
X050118Y043301D01*
D02*
G37*
G36*
X03939Y043349D02*
X039336Y043338D01*
X03929Y043308D01*
X03926Y043262D01*
X039249Y043209D01*
X03926Y043155D01*
X03929Y043109D01*
X039336Y043079D01*
X03939Y043068D01*
X039444Y043079D01*
X039489Y043109D01*
X03952Y043155D01*
X03953Y043209D01*
X03952Y043262D01*
X039489Y043308D01*
X039444Y043338D01*
X03939Y043349D01*
D02*
G37*
G36*
X036654Y04328D02*
X0366Y04327D01*
X036554Y043239D01*
X036524Y043194D01*
X036513Y04314D01*
X036524Y043086D01*
X036554Y04304D01*
X0366Y04301D01*
X036654Y042999D01*
X036707Y04301D01*
X036753Y04304D01*
X036783Y043086D01*
X036794Y04314D01*
X036783Y043194D01*
X036753Y043239D01*
X036707Y04327D01*
X036654Y04328D01*
D02*
G37*
G36*
X044213Y043457D02*
X044159Y043447D01*
X044113Y043416D01*
X044083Y043371D01*
X044072Y043317D01*
X044083Y043263D01*
X044113Y043218D01*
Y0432D01*
X044083Y043154D01*
X044072Y0431D01*
X044083Y043047D01*
X044113Y043001D01*
X044159Y042971D01*
X044213Y04296D01*
X044266Y042971D01*
X044312Y043001D01*
X044342Y043047D01*
X044353Y0431D01*
X044342Y043154D01*
X044312Y0432D01*
Y043218D01*
X044342Y043263D01*
X044353Y043317D01*
X044342Y043371D01*
X044312Y043416D01*
X044266Y043447D01*
X044213Y043457D01*
D02*
G37*
G36*
X048278Y043202D02*
X048224Y043191D01*
X048178Y04316D01*
X048148Y043115D01*
X048137Y043061D01*
X048148Y043007D01*
X048178Y042962D01*
X048224Y042931D01*
X048278Y042921D01*
X048331Y042931D01*
X048377Y042962D01*
X048407Y043007D01*
X048418Y043061D01*
X048407Y043115D01*
X048377Y04316D01*
X048331Y043191D01*
X048278Y043202D01*
D02*
G37*
G36*
X040318Y043063D02*
X040264Y043052D01*
X040218Y043022D01*
X040188Y042976D01*
X040177Y042923D01*
X040188Y042869D01*
X040218Y042823D01*
X040264Y042793D01*
X040318Y042782D01*
X040372Y042793D01*
X040417Y042823D01*
X040448Y042869D01*
X040458Y042923D01*
X040448Y042976D01*
X040417Y043022D01*
X040372Y043052D01*
X040318Y043063D01*
D02*
G37*
G36*
X054173Y043054D02*
X054119Y043043D01*
X054074Y043013D01*
X054043Y042967D01*
X054033Y042913D01*
X054043Y04286D01*
X054074Y042814D01*
X054119Y042784D01*
X054173Y042773D01*
X054227Y042784D01*
X054273Y042814D01*
X054303Y04286D01*
X054314Y042913D01*
X054303Y042967D01*
X054273Y043013D01*
X054227Y043043D01*
X054173Y043054D01*
D02*
G37*
G36*
X050689Y042936D02*
X050635Y042925D01*
X05059Y042895D01*
X050559Y042849D01*
X050548Y042795D01*
X050559Y042742D01*
X05059Y042696D01*
X050635Y042665D01*
X050689Y042655D01*
X050743Y042665D01*
X050788Y042696D01*
X050819Y042742D01*
X050829Y042795D01*
X050819Y042849D01*
X050788Y042895D01*
X050743Y042925D01*
X050689Y042936D01*
D02*
G37*
G36*
X039862Y042877D02*
X039808Y042866D01*
X039763Y042836D01*
X039732Y04279D01*
X039722Y042736D01*
X039732Y042682D01*
X039763Y042637D01*
X039808Y042606D01*
X039862Y042596D01*
X039916Y042606D01*
X039962Y042637D01*
X039992Y042682D01*
X040003Y042736D01*
X039992Y04279D01*
X039962Y042836D01*
X039916Y042866D01*
X039862Y042877D01*
D02*
G37*
G36*
X043268Y043069D02*
X043214Y043059D01*
X043168Y043028D01*
X043138Y042983D01*
X043127Y042929D01*
X043138Y042875D01*
X043168Y04283D01*
Y042812D01*
X043138Y042766D01*
X043127Y042712D01*
X043138Y042659D01*
X043168Y042613D01*
X043214Y042583D01*
X043268Y042572D01*
X043321Y042583D01*
X043367Y042613D01*
X043398Y042659D01*
X043408Y042712D01*
X043398Y042766D01*
X043367Y042812D01*
Y04283D01*
X043398Y042875D01*
X043408Y042929D01*
X043398Y042983D01*
X043367Y043028D01*
X043321Y043059D01*
X043268Y043069D01*
D02*
G37*
G36*
X040318Y042663D02*
X040264Y042652D01*
X040218Y042622D01*
X040188Y042576D01*
X040177Y042523D01*
X040188Y042469D01*
X040218Y042423D01*
X040264Y042393D01*
X040318Y042382D01*
X040372Y042393D01*
X040417Y042423D01*
X040448Y042469D01*
X040458Y042523D01*
X040448Y042576D01*
X040417Y042622D01*
X040372Y042652D01*
X040318Y042663D01*
D02*
G37*
G36*
X048346Y04265D02*
X048293Y04264D01*
X048247Y042609D01*
X048217Y042564D01*
X048206Y04251D01*
X048217Y042456D01*
X048247Y04241D01*
X048293Y04238D01*
X048346Y042369D01*
X0484Y04238D01*
X048446Y04241D01*
X048476Y042456D01*
X048487Y04251D01*
X048476Y042564D01*
X048446Y042609D01*
X0484Y04264D01*
X048346Y04265D01*
D02*
G37*
G36*
X048701Y042601D02*
X048647Y04259D01*
X048601Y04256D01*
X048571Y042514D01*
X04856Y042461D01*
X048571Y042407D01*
X048601Y042361D01*
X048647Y042331D01*
X048701Y04232D01*
X048755Y042331D01*
X0488Y042361D01*
X048831Y042407D01*
X048841Y042461D01*
X048831Y042514D01*
X0488Y04256D01*
X048755Y04259D01*
X048701Y042601D01*
D02*
G37*
G36*
X055276Y042542D02*
X055222Y042531D01*
X055176Y042501D01*
X055146Y042455D01*
X055135Y042402D01*
X055146Y042348D01*
X055176Y042302D01*
X055222Y042272D01*
X055276Y042261D01*
X055329Y042272D01*
X055375Y042302D01*
X055405Y042348D01*
X055416Y042402D01*
X055405Y042455D01*
X055375Y042501D01*
X055329Y042531D01*
X055276Y042542D01*
D02*
G37*
G36*
X054173D02*
X054119Y042531D01*
X054074Y042501D01*
X054043Y042455D01*
X054033Y042402D01*
X054043Y042348D01*
X054074Y042302D01*
X054119Y042272D01*
X054173Y042261D01*
X054227Y042272D01*
X054273Y042302D01*
X054303Y042348D01*
X054314Y042402D01*
X054303Y042455D01*
X054273Y042501D01*
X054227Y042531D01*
X054173Y042542D01*
D02*
G37*
G36*
X050699Y042463D02*
X050645Y042453D01*
X050599Y042422D01*
X050569Y042377D01*
X050558Y042323D01*
X050569Y042269D01*
X050599Y042223D01*
X050645Y042193D01*
X050699Y042182D01*
X050753Y042193D01*
X050798Y042223D01*
X050829Y042269D01*
X050839Y042323D01*
X050829Y042377D01*
X050798Y042422D01*
X050753Y042453D01*
X050699Y042463D01*
D02*
G37*
G36*
X040318Y042273D02*
X040264Y042262D01*
X040218Y042232D01*
X040188Y042186D01*
X040177Y042133D01*
X040188Y042079D01*
X040218Y042033D01*
X040264Y042003D01*
X040318Y041992D01*
X040372Y042003D01*
X040417Y042033D01*
X040448Y042079D01*
X040458Y042133D01*
X040448Y042186D01*
X040417Y042232D01*
X040372Y042262D01*
X040318Y042273D01*
D02*
G37*
G36*
X032421Y042266D02*
X032367Y042256D01*
X032322Y042225D01*
X032291Y04218D01*
X032281Y042126D01*
X032291Y042072D01*
X032322Y042027D01*
X032367Y041996D01*
X032421Y041985D01*
X032475Y041996D01*
X032521Y042027D01*
X032551Y042072D01*
X032562Y042126D01*
X032551Y04218D01*
X032521Y042225D01*
X032475Y042256D01*
X032421Y042266D01*
D02*
G37*
G36*
X048307Y042247D02*
X048253Y042236D01*
X048208Y042206D01*
X048177Y04216D01*
X048167Y042106D01*
X048177Y042053D01*
X048208Y042007D01*
X048253Y041976D01*
X048307Y041966D01*
X048361Y041976D01*
X048406Y042007D01*
X048437Y042053D01*
X048448Y042106D01*
X048437Y04216D01*
X048406Y042206D01*
X048361Y042236D01*
X048307Y042247D01*
D02*
G37*
G36*
X049508Y042169D02*
X049465Y042161D01*
X049428Y042137D01*
X049404Y0421D01*
X049395Y042057D01*
X049404Y042014D01*
X049428Y041978D01*
X049465Y041953D01*
X049508Y041945D01*
X049551Y041953D01*
X049587Y041978D01*
X049612Y042014D01*
X04962Y042057D01*
X049612Y0421D01*
X049587Y042137D01*
X049551Y042161D01*
X049508Y042169D01*
D02*
G37*
G36*
X054173Y04207D02*
X054119Y042059D01*
X054074Y042028D01*
X054043Y041983D01*
X054033Y041929D01*
X054043Y041875D01*
X054074Y04183D01*
X054119Y041799D01*
X054173Y041789D01*
X054227Y041799D01*
X054273Y04183D01*
X054303Y041875D01*
X054314Y041929D01*
X054303Y041983D01*
X054273Y042028D01*
X054227Y042059D01*
X054173Y04207D01*
D02*
G37*
G36*
X03998D02*
X039927Y042059D01*
X039881Y042028D01*
X039851Y041983D01*
X03984Y041929D01*
X039851Y041875D01*
X039881Y04183D01*
X039927Y041799D01*
X03998Y041789D01*
X040034Y041799D01*
X04008Y04183D01*
X04011Y041875D01*
X040121Y041929D01*
X04011Y041983D01*
X04008Y042028D01*
X040034Y042059D01*
X03998Y04207D01*
D02*
G37*
G36*
X044213Y042277D02*
X044159Y042267D01*
X044113Y042236D01*
X044083Y042191D01*
X044072Y042137D01*
X044083Y042083D01*
X044113Y042038D01*
Y04202D01*
X044083Y041974D01*
X044072Y04192D01*
X044083Y041867D01*
X044113Y041821D01*
X044159Y041791D01*
X044213Y04178D01*
X044266Y041791D01*
X044312Y041821D01*
X044342Y041867D01*
X044353Y04192D01*
X044342Y041974D01*
X044312Y04202D01*
Y042038D01*
X044342Y042083D01*
X044353Y042137D01*
X044342Y042191D01*
X044312Y042236D01*
X044266Y042267D01*
X044213Y042277D01*
D02*
G37*
G36*
X054747Y041779D02*
X054738Y041777D01*
X05473Y041779D01*
X054652Y041769D01*
X054644Y041765D01*
X054635D01*
X054562Y041734D01*
X054556Y041728D01*
X054548Y041726D01*
X054485Y041678D01*
X054481Y041671D01*
X054474Y041666D01*
X054425Y041604D01*
X054423Y041595D01*
X054417Y041589D01*
X054387Y041516D01*
Y041508D01*
X054383Y0415D01*
X054372Y041422D01*
X054374Y041413D01*
X054372Y041405D01*
X054383Y041327D01*
X054387Y041319D01*
Y041311D01*
X054417Y041238D01*
X054423Y041232D01*
X054425Y041223D01*
X054474Y041161D01*
X054481Y041156D01*
X054485Y041149D01*
X054548Y041101D01*
X054556Y041098D01*
X054562Y041092D01*
X054635Y041062D01*
X054644D01*
X054652Y041058D01*
X05473Y041047D01*
X054738Y04105D01*
X054747Y041047D01*
X054825Y041058D01*
X054832Y041062D01*
X054841D01*
X054914Y041092D01*
X05492Y041098D01*
X054928Y041101D01*
X054991Y041149D01*
X054995Y041156D01*
X055003Y041161D01*
X055051Y041223D01*
X055053Y041232D01*
X055059Y041238D01*
X05509Y041311D01*
Y041319D01*
X055094Y041327D01*
X055104Y041405D01*
X055102Y041413D01*
X055104Y041422D01*
X055094Y0415D01*
X05509Y041508D01*
Y041516D01*
X055059Y041589D01*
X055053Y041595D01*
X055051Y041604D01*
X055003Y041666D01*
X054995Y041671D01*
X054991Y041678D01*
X054928Y041726D01*
X05492Y041728D01*
X054914Y041734D01*
X054841Y041765D01*
X054832D01*
X054825Y041769D01*
X054747Y041779D01*
D02*
G37*
G36*
X055315Y041991D02*
X055261Y04198D01*
X055216Y04195D01*
X055185Y041904D01*
X055174Y04185D01*
X055185Y041797D01*
X055216Y041751D01*
X055261Y041721D01*
X055315Y04171D01*
X055369Y041721D01*
X055414Y041751D01*
X055445Y041797D01*
X055455Y04185D01*
X055445Y041904D01*
X055414Y04195D01*
X055369Y04198D01*
X055315Y041991D01*
D02*
G37*
G36*
X050717Y041969D02*
X050663Y041958D01*
X050617Y041928D01*
X050587Y041882D01*
X050576Y041828D01*
X050587Y041775D01*
X050617Y041729D01*
X050663Y041699D01*
X050717Y041688D01*
X05077Y041699D01*
X050816Y041729D01*
X050846Y041775D01*
X050857Y041828D01*
X050846Y041882D01*
X050816Y041928D01*
X05077Y041958D01*
X050717Y041969D01*
D02*
G37*
G36*
X04123Y041873D02*
X041177Y041862D01*
X041131Y041832D01*
X041101Y041786D01*
X04109Y041732D01*
X041101Y041679D01*
X041131Y041633D01*
X041177Y041602D01*
X04123Y041592D01*
X041284Y041602D01*
X04133Y041633D01*
X04136Y041679D01*
X041371Y041732D01*
X04136Y041786D01*
X04133Y041832D01*
X041284Y041862D01*
X04123Y041873D01*
D02*
G37*
G36*
X03622Y041627D02*
X036167Y041616D01*
X036121Y041586D01*
X036109Y041568D01*
X036049D01*
X036044Y041576D01*
X035999Y041606D01*
X035945Y041617D01*
X035891Y041606D01*
X035846Y041576D01*
X035815Y04153D01*
X035804Y041476D01*
X035815Y041423D01*
X035846Y041377D01*
X035891Y041347D01*
X035945Y041336D01*
X035999Y041347D01*
X036044Y041377D01*
X036056Y041395D01*
X036116D01*
X036121Y041387D01*
X036167Y041356D01*
X03622Y041346D01*
X036274Y041356D01*
X03632Y041387D01*
X03635Y041432D01*
X036361Y041486D01*
X03635Y04154D01*
X03632Y041586D01*
X036274Y041616D01*
X03622Y041627D01*
D02*
G37*
G36*
X03939Y041774D02*
X039336Y041764D01*
X03929Y041733D01*
X03926Y041688D01*
X039249Y041634D01*
X03926Y04158D01*
X03929Y041535D01*
X039336Y041504D01*
X03939Y041493D01*
X039444Y041504D01*
X039489Y041535D01*
X03952Y04158D01*
X03953Y041634D01*
X03952Y041688D01*
X039489Y041733D01*
X039444Y041764D01*
X03939Y041774D01*
D02*
G37*
G36*
X053337Y041795D02*
X053267Y041781D01*
X053209Y041742D01*
X05317Y041683D01*
X053156Y041614D01*
X05317Y041545D01*
X053209Y041486D01*
X053267Y041447D01*
X053337Y041434D01*
X053406Y041447D01*
X053464Y041486D01*
X053503Y041545D01*
X053517Y041614D01*
X053503Y041683D01*
X053464Y041742D01*
X053406Y041781D01*
X053337Y041795D01*
D02*
G37*
G36*
X037028Y041676D02*
X036974Y041665D01*
X036928Y041635D01*
X036898Y041589D01*
X036887Y041535D01*
X036898Y041482D01*
X036928Y041436D01*
X036974Y041406D01*
X037028Y041395D01*
X037081Y041406D01*
X037127Y041436D01*
X037157Y041482D01*
X037168Y041535D01*
X037157Y041589D01*
X037127Y041635D01*
X037081Y041665D01*
X037028Y041676D01*
D02*
G37*
G36*
X043268Y041889D02*
X043214Y041879D01*
X043168Y041848D01*
X043138Y041803D01*
X043127Y041749D01*
X043138Y041695D01*
X043168Y04165D01*
Y041632D01*
X043138Y041586D01*
X043127Y041532D01*
X043138Y041479D01*
X043168Y041433D01*
X043214Y041403D01*
X043268Y041392D01*
X043321Y041403D01*
X043367Y041433D01*
X043398Y041479D01*
X043408Y041532D01*
X043398Y041586D01*
X043367Y041632D01*
Y04165D01*
X043398Y041695D01*
X043408Y041749D01*
X043398Y041803D01*
X043367Y041848D01*
X043321Y041879D01*
X043268Y041889D01*
D02*
G37*
G36*
X034715Y041666D02*
X034661Y041655D01*
X034615Y041625D01*
X034585Y041579D01*
X034574Y041526D01*
X034585Y041472D01*
X034615Y041426D01*
X034661Y041396D01*
X034715Y041385D01*
X034768Y041396D01*
X034814Y041426D01*
X034844Y041472D01*
X034855Y041526D01*
X034844Y041579D01*
X034814Y041625D01*
X034768Y041655D01*
X034715Y041666D01*
D02*
G37*
G36*
X033533D02*
X03348Y041655D01*
X033434Y041625D01*
X033404Y041579D01*
X033393Y041526D01*
X033404Y041472D01*
X033434Y041426D01*
X03348Y041396D01*
X033533Y041385D01*
X033587Y041396D01*
X033633Y041426D01*
X033663Y041472D01*
X033674Y041526D01*
X033663Y041579D01*
X033633Y041625D01*
X033587Y041655D01*
X033533Y041666D01*
D02*
G37*
G36*
X036614Y041627D02*
X03656Y041616D01*
X036515Y041586D01*
X036484Y04154D01*
X036474Y041486D01*
X036484Y041432D01*
X036515Y041387D01*
X03656Y041356D01*
X036614Y041346D01*
X036668Y041356D01*
X036714Y041387D01*
X036744Y041432D01*
X036755Y041486D01*
X036744Y04154D01*
X036714Y041586D01*
X036668Y041616D01*
X036614Y041627D01*
D02*
G37*
G36*
X040318Y041483D02*
X040264Y041472D01*
X040218Y041442D01*
X040188Y041396D01*
X040177Y041343D01*
X040182Y041318D01*
X040142Y041275D01*
X040119Y04128D01*
X040065Y041269D01*
X040019Y041239D01*
X039989Y041193D01*
X039978Y041139D01*
X039989Y041085D01*
X040019Y04104D01*
X040065Y041009D01*
X040119Y040999D01*
X040136Y041002D01*
X040179Y04096D01*
X040177Y040953D01*
X040188Y040899D01*
X040218Y040853D01*
X040264Y040823D01*
X040318Y040812D01*
X040372Y040823D01*
X040417Y040853D01*
X040448Y040899D01*
X040458Y040953D01*
X040448Y041006D01*
X040417Y041052D01*
X040372Y041082D01*
X040318Y041093D01*
X0403Y04109D01*
X040258Y041132D01*
X040259Y041139D01*
X040254Y041164D01*
X040295Y041207D01*
X040318Y041202D01*
X040372Y041213D01*
X040417Y041243D01*
X040448Y041289D01*
X040458Y041343D01*
X040448Y041396D01*
X040417Y041442D01*
X040372Y041472D01*
X040318Y041483D01*
D02*
G37*
G36*
X031815Y041605D02*
X031731Y041588D01*
X031659Y04154D01*
X031611Y041469D01*
X031594Y041384D01*
X031611Y0413D01*
X031659Y041228D01*
X031731Y04118D01*
X031815Y041163D01*
X0319Y04118D01*
X031971Y041228D01*
X032019Y0413D01*
X032036Y041384D01*
X032019Y041469D01*
X031971Y04154D01*
X0319Y041588D01*
X031815Y041605D01*
D02*
G37*
G36*
X043298Y041283D02*
X043244Y041272D01*
X043198Y041242D01*
X043168Y041196D01*
X043157Y041143D01*
X04316Y041128D01*
X043118Y041086D01*
X043099Y04109D01*
X043045Y041079D01*
X042999Y041049D01*
X042969Y041003D01*
X042958Y040949D01*
X042969Y040895D01*
X042999Y04085D01*
X043045Y040819D01*
X043099Y040809D01*
X043118Y040813D01*
X043161Y04077D01*
X043157Y040753D01*
X043168Y040699D01*
X043198Y040653D01*
X043244Y040623D01*
X043298Y040612D01*
X043352Y040623D01*
X043397Y040653D01*
X043428Y040699D01*
X043438Y040753D01*
X043428Y040806D01*
X043397Y040852D01*
X043352Y040882D01*
X043298Y040893D01*
X043278Y040889D01*
X043236Y040932D01*
X043239Y040949D01*
X043236Y040963D01*
X043279Y041006D01*
X043298Y041002D01*
X043352Y041013D01*
X043397Y041043D01*
X043428Y041089D01*
X043438Y041143D01*
X043428Y041196D01*
X043397Y041242D01*
X043352Y041272D01*
X043298Y041283D01*
D02*
G37*
G36*
X050118Y041244D02*
X050075Y041236D01*
X050039Y041211D01*
X050014Y041175D01*
X050006Y041132D01*
X050014Y041089D01*
X050039Y041052D01*
X050075Y041028D01*
X050118Y041019D01*
X050161Y041028D01*
X050198Y041052D01*
X050222Y041089D01*
X050231Y041132D01*
X050222Y041175D01*
X050198Y041211D01*
X050161Y041236D01*
X050118Y041244D01*
D02*
G37*
G36*
X049685D02*
X049642Y041236D01*
X049606Y041211D01*
X049581Y041175D01*
X049573Y041132D01*
X049581Y041089D01*
X049606Y041052D01*
X049642Y041028D01*
X049685Y041019D01*
X049728Y041028D01*
X049765Y041052D01*
X049789Y041089D01*
X049797Y041132D01*
X049789Y041175D01*
X049765Y041211D01*
X049728Y041236D01*
X049685Y041244D01*
D02*
G37*
G36*
X049252D02*
X049209Y041236D01*
X049172Y041211D01*
X049148Y041175D01*
X04914Y041132D01*
X049148Y041089D01*
X049172Y041052D01*
X049209Y041028D01*
X049252Y041019D01*
X049295Y041028D01*
X049331Y041052D01*
X049356Y041089D01*
X049364Y041132D01*
X049356Y041175D01*
X049331Y041211D01*
X049295Y041236D01*
X049252Y041244D01*
D02*
G37*
G36*
X048819D02*
X048776Y041236D01*
X048739Y041211D01*
X048715Y041175D01*
X048706Y041132D01*
X048715Y041089D01*
X048739Y041052D01*
X048776Y041028D01*
X048819Y041019D01*
X048862Y041028D01*
X048898Y041052D01*
X048923Y041089D01*
X048931Y041132D01*
X048923Y041175D01*
X048898Y041211D01*
X048862Y041236D01*
X048819Y041244D01*
D02*
G37*
G36*
X047953D02*
X04791Y041236D01*
X047873Y041211D01*
X047849Y041175D01*
X04784Y041132D01*
X047849Y041089D01*
X047873Y041052D01*
X04791Y041028D01*
X047953Y041019D01*
X047996Y041028D01*
X048032Y041052D01*
X048057Y041089D01*
X048065Y041132D01*
X048057Y041175D01*
X048032Y041211D01*
X047996Y041236D01*
X047953Y041244D01*
D02*
G37*
G36*
X04752D02*
X047477Y041236D01*
X04744Y041211D01*
X047416Y041175D01*
X047407Y041132D01*
X047416Y041089D01*
X04744Y041052D01*
X047477Y041028D01*
X04752Y041019D01*
X047563Y041028D01*
X047599Y041052D01*
X047624Y041089D01*
X047632Y041132D01*
X047624Y041175D01*
X047599Y041211D01*
X047563Y041236D01*
X04752Y041244D01*
D02*
G37*
G36*
X047087D02*
X047044Y041236D01*
X047007Y041211D01*
X046983Y041175D01*
X046974Y041132D01*
X046983Y041089D01*
X047007Y041052D01*
X047044Y041028D01*
X047087Y041019D01*
X04713Y041028D01*
X047166Y041052D01*
X04719Y041089D01*
X047199Y041132D01*
X04719Y041175D01*
X047166Y041211D01*
X04713Y041236D01*
X047087Y041244D01*
D02*
G37*
G36*
X048533Y041234D02*
X04849Y041226D01*
X048454Y041202D01*
X04843Y041165D01*
X048421Y041122D01*
X04843Y041079D01*
X048454Y041043D01*
X04849Y041018D01*
X048533Y04101D01*
X048576Y041018D01*
X048613Y041043D01*
X048637Y041079D01*
X048646Y041122D01*
X048637Y041165D01*
X048613Y041202D01*
X048576Y041226D01*
X048533Y041234D01*
D02*
G37*
G36*
X036703Y041243D02*
X036649Y041232D01*
X036603Y041202D01*
X036573Y041156D01*
X036562Y041102D01*
X036573Y041049D01*
X036603Y041003D01*
X036649Y040973D01*
X036703Y040962D01*
X036757Y040973D01*
X036802Y041003D01*
X036833Y041049D01*
X036843Y041102D01*
X036833Y041156D01*
X036802Y041202D01*
X036757Y041232D01*
X036703Y041243D01*
D02*
G37*
G36*
X0319Y041056D02*
X031846Y041045D01*
X0318Y041015D01*
X03177Y040969D01*
X031759Y040915D01*
X031766Y040882D01*
X031733Y040842D01*
X031727Y040838D01*
X031722Y040839D01*
X031669Y040829D01*
X031623Y040798D01*
X031593Y040753D01*
X031582Y0407D01*
X031578Y040687D01*
X031548Y040656D01*
X03154Y040658D01*
X031486Y040647D01*
X03144Y040617D01*
X03141Y040571D01*
X031399Y040518D01*
X03141Y040464D01*
X03144Y040418D01*
X031486Y040388D01*
X03154Y040377D01*
X031593Y040388D01*
X031639Y040418D01*
X031669Y040464D01*
X03168Y040516D01*
X031684Y04053D01*
X031714Y04056D01*
X031722Y040558D01*
X031776Y040569D01*
X031822Y040599D01*
X031852Y040645D01*
X031863Y040699D01*
X031856Y040733D01*
X031889Y040773D01*
X031895Y040776D01*
X0319Y040775D01*
X031953Y040786D01*
X031999Y040816D01*
X032029Y040862D01*
X03204Y040915D01*
X032029Y040969D01*
X031999Y041015D01*
X031953Y041045D01*
X0319Y041056D01*
D02*
G37*
G36*
X040318Y040693D02*
X040264Y040682D01*
X040218Y040652D01*
X040188Y040606D01*
X040177Y040553D01*
X04018Y040538D01*
X040138Y040496D01*
X040119Y0405D01*
X040065Y040489D01*
X040019Y040459D01*
X039989Y040413D01*
X039978Y040359D01*
X039989Y040305D01*
X040019Y04026D01*
X040065Y040229D01*
X040119Y040219D01*
X040138Y040223D01*
X040181Y04018D01*
X040177Y040163D01*
X040188Y040109D01*
X040218Y040063D01*
X040264Y040033D01*
X040318Y040022D01*
X040372Y040033D01*
X040417Y040063D01*
X040448Y040109D01*
X040458Y040163D01*
X040448Y040216D01*
X040417Y040262D01*
X040372Y040292D01*
X040318Y040303D01*
X040307Y040301D01*
X040269Y040335D01*
X040269Y04038D01*
X040307Y040414D01*
X040318Y040412D01*
X040372Y040423D01*
X040417Y040453D01*
X040448Y040499D01*
X040458Y040553D01*
X040448Y040606D01*
X040417Y040652D01*
X040372Y040682D01*
X040318Y040693D01*
D02*
G37*
G36*
X043298Y040503D02*
X043244Y040492D01*
X043198Y040462D01*
X043168Y040416D01*
X043157Y040363D01*
X043168Y040309D01*
X043198Y040263D01*
X043244Y040233D01*
X043298Y040222D01*
X043352Y040233D01*
X043397Y040263D01*
X043428Y040309D01*
X043438Y040363D01*
X043428Y040416D01*
X043397Y040462D01*
X043352Y040492D01*
X043298Y040503D01*
D02*
G37*
G36*
X037057Y040298D02*
X037003Y040287D01*
X036958Y040257D01*
X036927Y040211D01*
X036917Y040157D01*
X036927Y040104D01*
X036958Y040058D01*
X037003Y040028D01*
X037057Y040017D01*
X037111Y040028D01*
X037156Y040058D01*
X037187Y040104D01*
X037198Y040157D01*
X037187Y040211D01*
X037156Y040257D01*
X037111Y040287D01*
X037057Y040298D01*
D02*
G37*
G36*
X03939Y0402D02*
X039336Y040189D01*
X03929Y040158D01*
X03926Y040113D01*
X039249Y040059D01*
X03926Y040005D01*
X03929Y03996D01*
X039336Y039929D01*
X03939Y039919D01*
X039444Y039929D01*
X039489Y03996D01*
X03952Y040005D01*
X03953Y040059D01*
X03952Y040113D01*
X039489Y040158D01*
X039444Y040189D01*
X03939Y0402D01*
D02*
G37*
G36*
X043298Y040103D02*
X043244Y040092D01*
X043198Y040062D01*
X043168Y040016D01*
X043157Y039963D01*
X043168Y039909D01*
X043198Y039863D01*
X043244Y039833D01*
X043298Y039822D01*
X043352Y039833D01*
X043397Y039863D01*
X043428Y039909D01*
X043438Y039963D01*
X043428Y040016D01*
X043397Y040062D01*
X043352Y040092D01*
X043298Y040103D01*
D02*
G37*
G36*
X031805Y040097D02*
X031752Y040087D01*
X031706Y040056D01*
X031676Y040011D01*
X031665Y039957D01*
X031676Y039903D01*
X031706Y039858D01*
X031752Y039827D01*
X031805Y039816D01*
X031859Y039827D01*
X031905Y039858D01*
X031935Y039903D01*
X031946Y039957D01*
X031935Y040011D01*
X031905Y040056D01*
X031859Y040087D01*
X031805Y040097D01*
D02*
G37*
G36*
X036496Y040524D02*
X036442Y040514D01*
X036397Y040483D01*
X036366Y040438D01*
X036356Y040384D01*
X036366Y04033D01*
X036397Y040285D01*
X036402Y040221D01*
X036396Y040211D01*
X036385Y040157D01*
X036396Y040104D01*
X036426Y040058D01*
Y040021D01*
X036396Y039975D01*
X036385Y039921D01*
X036396Y039867D01*
X036426Y039822D01*
X036472Y039791D01*
X036526Y039781D01*
X036579Y039791D01*
X036625Y039822D01*
X036655Y039867D01*
X036666Y039921D01*
X036655Y039975D01*
X036625Y040021D01*
Y040058D01*
X036655Y040104D01*
X036666Y040157D01*
X036655Y040211D01*
X036625Y040257D01*
X03662Y040321D01*
X036626Y04033D01*
X036637Y040384D01*
X036626Y040438D01*
X036595Y040483D01*
X03655Y040514D01*
X036496Y040524D01*
D02*
G37*
G36*
X04685Y040221D02*
X046766Y040204D01*
X046694Y040156D01*
X046646Y040084D01*
X04663Y04D01*
X046646Y039916D01*
X046694Y039844D01*
X046766Y039796D01*
X04685Y039779D01*
X046935Y039796D01*
X047007Y039844D01*
X047054Y039916D01*
X047071Y04D01*
X047054Y040084D01*
X047007Y040156D01*
X046935Y040204D01*
X04685Y040221D01*
D02*
G37*
G36*
X030827Y039747D02*
X030773Y039736D01*
X030727Y039706D01*
X030697Y03966D01*
X030686Y039606D01*
X030697Y039553D01*
X030727Y039508D01*
X030697Y039463D01*
X030686Y039409D01*
X030697Y039356D01*
X030727Y03931D01*
X030773Y03928D01*
X030827Y039269D01*
X030881Y03928D01*
X030926Y03931D01*
X030957Y039356D01*
X030967Y039409D01*
X030957Y039463D01*
X030927Y039508D01*
X030957Y039553D01*
X030967Y039606D01*
X030957Y03966D01*
X030926Y039706D01*
X030881Y039736D01*
X030827Y039747D01*
D02*
G37*
G36*
X03686Y039501D02*
X036806Y03949D01*
X036761Y03946D01*
X03673Y039414D01*
X03672Y03936D01*
X03673Y039306D01*
X036761Y039261D01*
X036806Y03923D01*
X03686Y03922D01*
X036914Y03923D01*
X03696Y039261D01*
X03699Y039306D01*
X037001Y03936D01*
X03699Y039414D01*
X03696Y03946D01*
X036914Y03949D01*
X03686Y039501D01*
D02*
G37*
G36*
X037283Y039471D02*
X03723Y039461D01*
X037184Y03943D01*
X037154Y039384D01*
X037143Y039331D01*
X037154Y039277D01*
X037184Y039231D01*
X03723Y039201D01*
X037283Y03919D01*
X037337Y039201D01*
X037383Y039231D01*
X037413Y039277D01*
X037424Y039331D01*
X037413Y039384D01*
X037383Y03943D01*
X037337Y039461D01*
X037283Y039471D01*
D02*
G37*
G36*
X031781Y039698D02*
X031728Y039687D01*
X031682Y039656D01*
X031652Y039611D01*
X031641Y039557D01*
X031643Y039548D01*
X031624Y039501D01*
X03157Y03949D01*
X031525Y03946D01*
X031494Y039414D01*
X031484Y03936D01*
X031494Y039306D01*
X031525Y039261D01*
X03157Y03923D01*
X031624Y03922D01*
X031626Y03922D01*
X031669Y039178D01*
X031667Y039168D01*
X031671Y039149D01*
X031628Y039106D01*
X031624Y039107D01*
X03157Y039096D01*
X031525Y039066D01*
X031494Y03902D01*
X031484Y038967D01*
X031494Y038913D01*
X031525Y038867D01*
X03157Y038837D01*
X031624Y038826D01*
X031655Y03879D01*
X031655Y03875D01*
X031624Y038713D01*
X03157Y038703D01*
X031525Y038672D01*
X031494Y038627D01*
X031484Y038573D01*
X031494Y038519D01*
X031525Y038473D01*
X03157Y038443D01*
X031624Y038432D01*
X031678Y038443D01*
X031723Y038473D01*
X031754Y038519D01*
X031765Y038573D01*
X031761Y038592D01*
X031803Y038634D01*
X031807Y038633D01*
X031861Y038644D01*
X031907Y038675D01*
X031937Y03872D01*
X031948Y038774D01*
X031937Y038828D01*
X031907Y038873D01*
X031861Y038904D01*
X031807Y038914D01*
X031777Y038951D01*
X031776Y03899D01*
X031807Y039027D01*
X031861Y039038D01*
X031907Y039068D01*
X031937Y039114D01*
X031948Y039168D01*
X031937Y039221D01*
X031907Y039267D01*
X031861Y039297D01*
X031807Y039308D01*
X031805Y039308D01*
X031763Y03935D01*
X031765Y03936D01*
X031763Y039369D01*
X031781Y039417D01*
X031835Y039427D01*
X031881Y039458D01*
X031911Y039503D01*
X031922Y039557D01*
X031911Y039611D01*
X031881Y039656D01*
X031835Y039687D01*
X031781Y039698D01*
D02*
G37*
G36*
X055354Y038959D02*
X055301Y038949D01*
X055255Y038918D01*
X055225Y038873D01*
X055214Y038819D01*
X055225Y038765D01*
X055255Y03872D01*
X055301Y038689D01*
X055354Y038678D01*
X055408Y038689D01*
X055454Y03872D01*
X055484Y038765D01*
X055495Y038819D01*
X055484Y038873D01*
X055454Y038918D01*
X055408Y038949D01*
X055354Y038959D01*
D02*
G37*
G36*
X047607Y038588D02*
X047564Y03858D01*
X047527Y038555D01*
X047503Y038519D01*
X047494Y038476D01*
X047503Y038433D01*
X047527Y038396D01*
X047564Y038372D01*
X047607Y038364D01*
X04765Y038372D01*
X047686Y038396D01*
X047711Y038433D01*
X047719Y038476D01*
X047711Y038519D01*
X047686Y038555D01*
X04765Y03858D01*
X047607Y038588D01*
D02*
G37*
G36*
X047174D02*
X047131Y03858D01*
X047094Y038555D01*
X04707Y038519D01*
X047061Y038476D01*
X04707Y038433D01*
X047094Y038396D01*
X047131Y038372D01*
X047174Y038364D01*
X047217Y038372D01*
X047253Y038396D01*
X047278Y038433D01*
X047286Y038476D01*
X047278Y038519D01*
X047253Y038555D01*
X047217Y03858D01*
X047174Y038588D01*
D02*
G37*
G36*
X046741D02*
X046698Y03858D01*
X046661Y038555D01*
X046637Y038519D01*
X046628Y038476D01*
X046637Y038433D01*
X046661Y038396D01*
X046698Y038372D01*
X046741Y038364D01*
X046784Y038372D01*
X04682Y038396D01*
X046844Y038433D01*
X046853Y038476D01*
X046844Y038519D01*
X04682Y038555D01*
X046784Y03858D01*
X046741Y038588D01*
D02*
G37*
G36*
X046308D02*
X046265Y03858D01*
X046228Y038555D01*
X046204Y038519D01*
X046195Y038476D01*
X046204Y038433D01*
X046228Y038396D01*
X046265Y038372D01*
X046308Y038364D01*
X046351Y038372D01*
X046387Y038396D01*
X046411Y038433D01*
X04642Y038476D01*
X046411Y038519D01*
X046387Y038555D01*
X046351Y03858D01*
X046308Y038588D01*
D02*
G37*
G36*
X045874D02*
X045831Y03858D01*
X045795Y038555D01*
X045771Y038519D01*
X045762Y038476D01*
X045771Y038433D01*
X045795Y038396D01*
X045831Y038372D01*
X045874Y038364D01*
X045918Y038372D01*
X045954Y038396D01*
X045978Y038433D01*
X045987Y038476D01*
X045978Y038519D01*
X045954Y038555D01*
X045918Y03858D01*
X045874Y038588D01*
D02*
G37*
G36*
X045441D02*
X045398Y03858D01*
X045362Y038555D01*
X045338Y038519D01*
X045329Y038476D01*
X045338Y038433D01*
X045362Y038396D01*
X045398Y038372D01*
X045441Y038364D01*
X045484Y038372D01*
X045521Y038396D01*
X045545Y038433D01*
X045554Y038476D01*
X045545Y038519D01*
X045521Y038555D01*
X045484Y03858D01*
X045441Y038588D01*
D02*
G37*
G36*
X045008D02*
X044965Y03858D01*
X044929Y038555D01*
X044905Y038519D01*
X044896Y038476D01*
X044905Y038433D01*
X044929Y038396D01*
X044965Y038372D01*
X045008Y038364D01*
X045051Y038372D01*
X045088Y038396D01*
X045112Y038433D01*
X045121Y038476D01*
X045112Y038519D01*
X045088Y038555D01*
X045051Y03858D01*
X045008Y038588D01*
D02*
G37*
G36*
X044575D02*
X044532Y03858D01*
X044496Y038555D01*
X044471Y038519D01*
X044463Y038476D01*
X044471Y038433D01*
X044496Y038396D01*
X044532Y038372D01*
X044575Y038364D01*
X044618Y038372D01*
X044655Y038396D01*
X044679Y038433D01*
X044688Y038476D01*
X044679Y038519D01*
X044655Y038555D01*
X044618Y03858D01*
X044575Y038588D01*
D02*
G37*
G36*
X031807Y038324D02*
X031754Y038313D01*
X031708Y038283D01*
X031677Y038237D01*
X031667Y038183D01*
X031671Y038165D01*
X031628Y038122D01*
X031624Y038123D01*
X03157Y038112D01*
X031525Y038082D01*
X031494Y038036D01*
X031484Y037982D01*
X031494Y037929D01*
X031525Y037883D01*
X03157Y037852D01*
X031624Y037842D01*
X031655Y037806D01*
X031655Y037766D01*
X031624Y037729D01*
X03157Y037718D01*
X031525Y037688D01*
X031494Y037642D01*
X031484Y037589D01*
X031494Y037535D01*
X031525Y037489D01*
X03157Y037459D01*
X031624Y037448D01*
X031655Y037412D01*
X031655Y037372D01*
X031624Y037335D01*
X03157Y037325D01*
X031525Y037294D01*
X031494Y037249D01*
X031484Y037195D01*
X031494Y037141D01*
X031525Y037096D01*
X03157Y037065D01*
X031624Y037054D01*
X031678Y037065D01*
X031723Y037096D01*
X031754Y037141D01*
X031765Y037195D01*
X031761Y037214D01*
X031803Y037256D01*
X031807Y037255D01*
X031861Y037266D01*
X031907Y037297D01*
X031937Y037342D01*
X031948Y037396D01*
X031937Y03745D01*
X031907Y037495D01*
X031861Y037526D01*
X031807Y037536D01*
X031777Y037573D01*
X031776Y037612D01*
X031807Y037649D01*
X031861Y03766D01*
X031907Y03769D01*
X031937Y037736D01*
X031948Y03779D01*
X031937Y037843D01*
X031907Y037889D01*
X031861Y037919D01*
X031807Y03793D01*
X031777Y037966D01*
X031776Y038006D01*
X031807Y038043D01*
X031861Y038054D01*
X031907Y038084D01*
X031937Y03813D01*
X031948Y038183D01*
X031937Y038237D01*
X031907Y038283D01*
X031861Y038313D01*
X031807Y038324D01*
D02*
G37*
G36*
X037087Y03829D02*
X037033Y038279D01*
X036987Y038249D01*
X036957Y038203D01*
X036946Y03815D01*
X036957Y038096D01*
X036987Y03805D01*
X037033Y03802D01*
X037087Y038009D01*
X03714Y03802D01*
X037186Y03805D01*
X037216Y038096D01*
X037227Y03815D01*
X037216Y038203D01*
X037186Y038249D01*
X03714Y038279D01*
X037087Y03829D01*
D02*
G37*
G36*
X036795Y038095D02*
X036741Y038084D01*
X036696Y038054D01*
X036665Y038008D01*
X036654Y037955D01*
X036665Y037901D01*
X036696Y037855D01*
X036741Y037825D01*
X036795Y037814D01*
X036849Y037825D01*
X036894Y037855D01*
X036925Y037901D01*
X036935Y037955D01*
X036925Y038008D01*
X036894Y038054D01*
X036849Y038084D01*
X036795Y038095D01*
D02*
G37*
G36*
X052212Y037977D02*
X052158Y037967D01*
X052113Y037936D01*
X052082Y037891D01*
X052071Y037837D01*
X052082Y037783D01*
X052113Y037738D01*
X052158Y037707D01*
X052212Y037696D01*
X052266Y037707D01*
X052311Y037738D01*
X052342Y037783D01*
X052352Y037837D01*
X052342Y037891D01*
X052311Y037936D01*
X052266Y037967D01*
X052212Y037977D01*
D02*
G37*
G36*
X045928Y03768D02*
X045874Y03767D01*
X045828Y037639D01*
X045798Y037594D01*
X045787Y03754D01*
X045798Y037486D01*
X045828Y037441D01*
X045874Y03741D01*
X045928Y037399D01*
X045982Y03741D01*
X046027Y037441D01*
X046058Y037486D01*
X046068Y03754D01*
X046058Y037594D01*
X046027Y037639D01*
X045982Y03767D01*
X045928Y03768D01*
D02*
G37*
G36*
X051191Y03768D02*
X051138Y037669D01*
X051092Y037639D01*
X051062Y037593D01*
X051051Y037539D01*
X051062Y037486D01*
X051092Y03744D01*
X051138Y03741D01*
X051191Y037399D01*
X051245Y03741D01*
X051291Y03744D01*
X051321Y037486D01*
X051332Y037539D01*
X051321Y037593D01*
X051291Y037639D01*
X051245Y037669D01*
X051191Y03768D01*
D02*
G37*
G36*
X049876D02*
X049822Y037669D01*
X049776Y037639D01*
X049746Y037593D01*
X049735Y037539D01*
X049746Y037486D01*
X049776Y03744D01*
X049822Y03741D01*
X049876Y037399D01*
X049929Y03741D01*
X049975Y03744D01*
X050005Y037486D01*
X050016Y037539D01*
X050005Y037593D01*
X049975Y037639D01*
X049929Y037669D01*
X049876Y03768D01*
D02*
G37*
G36*
X04856D02*
X048506Y037669D01*
X04846Y037639D01*
X04843Y037593D01*
X048419Y037539D01*
X04843Y037486D01*
X04846Y03744D01*
X048506Y03741D01*
X04856Y037399D01*
X048614Y03741D01*
X048659Y03744D01*
X04869Y037486D01*
X0487Y037539D01*
X04869Y037593D01*
X048659Y037639D01*
X048614Y037669D01*
X04856Y03768D01*
D02*
G37*
G36*
X047244D02*
X04719Y037669D01*
X047145Y037639D01*
X047114Y037593D01*
X047104Y037539D01*
X047114Y037486D01*
X047145Y03744D01*
X04719Y03741D01*
X047244Y037399D01*
X047298Y03741D01*
X047343Y03744D01*
X047374Y037486D01*
X047385Y037539D01*
X047374Y037593D01*
X047343Y037639D01*
X047298Y037669D01*
X047244Y03768D01*
D02*
G37*
G36*
X032943Y037326D02*
X032889Y037315D01*
X032844Y037284D01*
X032813Y037239D01*
X032802Y037185D01*
X032813Y037131D01*
X032844Y037086D01*
X032889Y037055D01*
X032943Y037045D01*
X032997Y037055D01*
X033042Y037086D01*
X033073Y037131D01*
X033083Y037185D01*
X033073Y037239D01*
X033042Y037284D01*
X032997Y037315D01*
X032943Y037326D01*
D02*
G37*
G36*
X036909Y03707D02*
X036856Y037059D01*
X036811Y037029D01*
X036766Y037059D01*
X036713Y03707D01*
X036659Y037059D01*
X036613Y037028D01*
X036583Y036983D01*
X036572Y036929D01*
X036583Y036875D01*
X036613Y03683D01*
X036659Y036799D01*
X036713Y036789D01*
X036766Y036799D01*
X036811Y036829D01*
X036856Y036799D01*
X036909Y036789D01*
X036963Y036799D01*
X037009Y03683D01*
X037039Y036875D01*
X03705Y036929D01*
X037039Y036983D01*
X037009Y037028D01*
X036963Y037059D01*
X036909Y03707D01*
D02*
G37*
G36*
X041073Y037493D02*
X041019Y037482D01*
X040973Y037452D01*
X040943Y037406D01*
X040932Y037352D01*
X040943Y037299D01*
X040972Y037255D01*
X040979Y037242D01*
Y037207D01*
X040972Y037194D01*
X040943Y03715D01*
X040932Y037096D01*
X040943Y037043D01*
X040973Y036997D01*
X041019Y036967D01*
X041073Y036956D01*
X041127Y036967D01*
X041172Y036997D01*
X041203Y037043D01*
X041213Y037096D01*
X041203Y03715D01*
X041174Y037194D01*
X041167Y037207D01*
Y037242D01*
X041174Y037255D01*
X041203Y037299D01*
X041213Y037352D01*
X041203Y037406D01*
X041172Y037452D01*
X041127Y037482D01*
X041073Y037493D01*
D02*
G37*
G36*
X043661Y03707D02*
X043608Y037059D01*
X043562Y037028D01*
X043532Y036983D01*
X043521Y036929D01*
X043532Y036875D01*
X043562Y03683D01*
X043608Y036799D01*
X043661Y036789D01*
X043715Y036799D01*
X043761Y03683D01*
X043791Y036875D01*
X043802Y036929D01*
X043791Y036983D01*
X043761Y037028D01*
X043715Y037059D01*
X043661Y03707D01*
D02*
G37*
G36*
X046364Y03705D02*
X04631Y037039D01*
X046265Y037009D01*
X046234Y036963D01*
X046224Y036909D01*
X046234Y036856D01*
X046265Y03681D01*
X04631Y03678D01*
X046364Y036769D01*
X046418Y03678D01*
X046464Y03681D01*
X046494Y036856D01*
X046505Y036909D01*
X046494Y036963D01*
X046464Y037009D01*
X046418Y037039D01*
X046364Y03705D01*
D02*
G37*
G36*
X035494Y036798D02*
X035441Y036788D01*
X035395Y036757D01*
X035364Y036712D01*
X035354Y036658D01*
X035354Y036655D01*
X035312Y036613D01*
X035302Y036615D01*
X035283Y036611D01*
X03524Y036654D01*
X035241Y036658D01*
X03523Y036712D01*
X0352Y036757D01*
X035154Y036788D01*
X035101Y036798D01*
X035047Y036788D01*
X035001Y036757D01*
X034971Y036712D01*
X03496Y036658D01*
X034961Y036655D01*
X034918Y036613D01*
X034908Y036615D01*
X034889Y036611D01*
X034847Y036654D01*
X034847Y036658D01*
X034837Y036712D01*
X034806Y036757D01*
X034761Y036788D01*
X034707Y036798D01*
X034653Y036788D01*
X034608Y036757D01*
X034577Y036712D01*
X034566Y036658D01*
X034567Y036655D01*
X034524Y036613D01*
X034514Y036615D01*
X034495Y036611D01*
X034453Y036654D01*
X034454Y036658D01*
X034443Y036712D01*
X034413Y036757D01*
X034367Y036788D01*
X034313Y036798D01*
X034259Y036788D01*
X034214Y036757D01*
X034183Y036712D01*
X034173Y036658D01*
X034173Y036655D01*
X034131Y036613D01*
X034121Y036615D01*
X034102Y036611D01*
X034059Y036654D01*
X03406Y036658D01*
X034049Y036712D01*
X034019Y036757D01*
X033973Y036788D01*
X033919Y036798D01*
X033866Y036788D01*
X03382Y036757D01*
X03379Y036712D01*
X033779Y036658D01*
X03379Y036604D01*
X03382Y036558D01*
X033866Y036528D01*
X033919Y036517D01*
X033938Y036521D01*
X033981Y036478D01*
X03398Y036474D01*
X033991Y036421D01*
X034021Y036375D01*
X034067Y036345D01*
X034121Y036334D01*
X034174Y036345D01*
X03422Y036375D01*
X03425Y036421D01*
X034261Y036474D01*
X034261Y036477D01*
X034303Y036519D01*
X034313Y036517D01*
X034332Y036521D01*
X034375Y036478D01*
X034374Y036474D01*
X034384Y036421D01*
X034415Y036375D01*
X03446Y036345D01*
X034514Y036334D01*
X034568Y036345D01*
X034614Y036375D01*
X034644Y036421D01*
X034655Y036474D01*
X034654Y036477D01*
X034697Y036519D01*
X034707Y036517D01*
X034726Y036521D01*
X034768Y036478D01*
X034767Y036474D01*
X034778Y036421D01*
X034809Y036375D01*
X034854Y036345D01*
X034908Y036334D01*
X034962Y036345D01*
X035007Y036375D01*
X035038Y036421D01*
X035048Y036474D01*
X035048Y036477D01*
X035091Y036519D01*
X035101Y036517D01*
X035119Y036521D01*
X035162Y036478D01*
X035161Y036474D01*
X035172Y036421D01*
X035202Y036375D01*
X035248Y036345D01*
X035302Y036334D01*
X035355Y036345D01*
X035401Y036375D01*
X035431Y036421D01*
X035442Y036474D01*
X035442Y036477D01*
X035484Y036519D01*
X035494Y036517D01*
X035548Y036528D01*
X035594Y036558D01*
X035624Y036604D01*
X035635Y036658D01*
X035624Y036712D01*
X035594Y036757D01*
X035548Y036788D01*
X035494Y036798D01*
D02*
G37*
G36*
X032542D02*
X032488Y036788D01*
X032442Y036757D01*
X032412Y036712D01*
X032401Y036658D01*
X032401Y036655D01*
X032359Y036613D01*
X032349Y036615D01*
X032295Y036604D01*
X03225Y036574D01*
X032219Y036528D01*
X032208Y036474D01*
X032219Y036421D01*
X03225Y036375D01*
X032295Y036345D01*
X032349Y036334D01*
X032403Y036345D01*
X032448Y036375D01*
X032479Y036421D01*
X032489Y036474D01*
X032489Y036477D01*
X032531Y036519D01*
X032542Y036517D01*
X032595Y036528D01*
X032641Y036558D01*
X032671Y036604D01*
X032682Y036658D01*
X032671Y036712D01*
X032641Y036757D01*
X032595Y036788D01*
X032542Y036798D01*
D02*
G37*
G36*
X032992Y036755D02*
X032938Y036744D01*
X032893Y036714D01*
X032862Y036668D01*
X032852Y036614D01*
X032862Y03656D01*
X032893Y036515D01*
X032938Y036484D01*
X032992Y036474D01*
X033046Y036484D01*
X033091Y036515D01*
X033122Y03656D01*
X033133Y036614D01*
X033122Y036668D01*
X033091Y036714D01*
X033046Y036744D01*
X032992Y036755D01*
D02*
G37*
G36*
X054033Y036718D02*
X053979Y036707D01*
X053934Y036676D01*
X053903Y036631D01*
X053893Y036577D01*
X053903Y036523D01*
X053934Y036478D01*
X053979Y036447D01*
X054033Y036437D01*
X054087Y036447D01*
X054132Y036478D01*
X054163Y036523D01*
X054174Y036577D01*
X054163Y036631D01*
X054132Y036676D01*
X054087Y036707D01*
X054033Y036718D01*
D02*
G37*
G36*
X033526Y036798D02*
X033472Y036788D01*
X033426Y036757D01*
X033396Y036712D01*
X033391Y036688D01*
X033355Y036648D01*
X033338Y036642D01*
X033299Y036634D01*
X033253Y036604D01*
X033223Y036558D01*
X033212Y036504D01*
X033223Y03645D01*
X033253Y036405D01*
X033299Y036374D01*
X033353Y036364D01*
X033407Y036374D01*
X033452Y036405D01*
X033483Y03645D01*
X033487Y036474D01*
X033523Y036514D01*
X033541Y03652D01*
X03358Y036528D01*
X033625Y036558D01*
X033656Y036604D01*
X033666Y036658D01*
X033656Y036712D01*
X033625Y036757D01*
X03358Y036788D01*
X033526Y036798D01*
D02*
G37*
G36*
X052212Y036588D02*
X052158Y036577D01*
X052113Y036547D01*
X052082Y036501D01*
X052071Y036448D01*
X052082Y036394D01*
X052113Y036348D01*
X052158Y036318D01*
X052212Y036307D01*
X052266Y036318D01*
X052311Y036348D01*
X052342Y036394D01*
X052352Y036448D01*
X052342Y036501D01*
X052311Y036547D01*
X052266Y036577D01*
X052212Y036588D01*
D02*
G37*
G36*
X046355Y036568D02*
X046302Y036557D01*
X046256Y036527D01*
X046226Y036481D01*
X046215Y036427D01*
X046226Y036373D01*
X046256Y036328D01*
X046302Y036297D01*
X046355Y036287D01*
X046409Y036297D01*
X046455Y036328D01*
X046485Y036373D01*
X046496Y036427D01*
X046485Y036481D01*
X046455Y036527D01*
X046409Y036557D01*
X046355Y036568D01*
D02*
G37*
G36*
X033583Y036391D02*
X033529Y03638D01*
X033483Y036349D01*
X033453Y036304D01*
X033442Y03625D01*
X033453Y036196D01*
X033483Y036151D01*
X033529Y03612D01*
X033583Y036109D01*
X033636Y03612D01*
X033682Y036151D01*
X033712Y036196D01*
X033723Y03625D01*
X033712Y036304D01*
X033682Y036349D01*
X033636Y03638D01*
X033583Y036391D01*
D02*
G37*
G36*
X032667Y036381D02*
X032614Y03637D01*
X032568Y036339D01*
X032538Y036294D01*
X032527Y03624D01*
X032538Y036186D01*
X032568Y036141D01*
X032614Y03611D01*
X032667Y0361D01*
X032721Y03611D01*
X032767Y036141D01*
X032797Y036186D01*
X032808Y03624D01*
X032797Y036294D01*
X032767Y036339D01*
X032721Y03637D01*
X032667Y036381D01*
D02*
G37*
G36*
X041073Y036627D02*
X041019Y036616D01*
X040973Y036586D01*
X040943Y03654D01*
X040932Y036486D01*
X040943Y036432D01*
X040972Y036389D01*
X040979Y036376D01*
Y036341D01*
X040972Y036328D01*
X040943Y036284D01*
X040932Y03623D01*
X040943Y036177D01*
X040973Y036131D01*
X041019Y036101D01*
X041073Y03609D01*
X041127Y036101D01*
X041172Y036131D01*
X041203Y036177D01*
X041213Y03623D01*
X041203Y036284D01*
X041174Y036328D01*
X041167Y036341D01*
Y036376D01*
X041174Y036389D01*
X041203Y036432D01*
X041213Y036486D01*
X041203Y03654D01*
X041172Y036586D01*
X041127Y036616D01*
X041073Y036627D01*
D02*
G37*
G36*
X043415Y036292D02*
X043362Y036281D01*
X043316Y036251D01*
X043286Y036205D01*
X043275Y036152D01*
X043286Y036098D01*
X043316Y036052D01*
X043362Y036022D01*
X043415Y036011D01*
X043469Y036022D01*
X043515Y036052D01*
X043545Y036098D01*
X043556Y036152D01*
X043545Y036205D01*
X043515Y036251D01*
X043469Y036281D01*
X043415Y036292D01*
D02*
G37*
G36*
X054033Y036285D02*
X053979Y036274D01*
X053934Y036243D01*
X053903Y036198D01*
X053893Y036144D01*
X053903Y03609D01*
X053934Y036045D01*
X053979Y036014D01*
X054033Y036004D01*
X054087Y036014D01*
X054132Y036045D01*
X054163Y03609D01*
X054174Y036144D01*
X054163Y036198D01*
X054132Y036243D01*
X054087Y036274D01*
X054033Y036285D01*
D02*
G37*
G36*
X056929Y036479D02*
X056875Y036468D01*
X05683Y036438D01*
X056799Y036392D01*
X056789Y036339D01*
X056799Y036285D01*
X056829Y03624D01*
X056799Y036195D01*
X056789Y036142D01*
X056799Y036088D01*
X05683Y036042D01*
X056875Y036012D01*
X056929Y036001D01*
X056983Y036012D01*
X057028Y036042D01*
X057059Y036088D01*
X05707Y036142D01*
X057059Y036195D01*
X057029Y03624D01*
X057059Y036285D01*
X05707Y036339D01*
X057059Y036392D01*
X057028Y036438D01*
X056983Y036468D01*
X056929Y036479D01*
D02*
G37*
G36*
X055571Y036184D02*
X055517Y036173D01*
X055472Y036143D01*
X055441Y036097D01*
X05543Y036043D01*
X055441Y03599D01*
X055472Y035944D01*
X055517Y035914D01*
X055571Y035903D01*
X055625Y035914D01*
X05567Y035944D01*
X055701Y03599D01*
X055711Y036043D01*
X055701Y036097D01*
X05567Y036143D01*
X055625Y036173D01*
X055571Y036184D01*
D02*
G37*
G36*
X060394Y035829D02*
X06034Y035819D01*
X060294Y035788D01*
X060257D01*
X060211Y035819D01*
X060157Y035829D01*
X060104Y035819D01*
X060058Y035788D01*
X060028Y035743D01*
X060017Y035689D01*
X060028Y035635D01*
X060058Y03559D01*
X060104Y035559D01*
X060157Y035548D01*
X060211Y035559D01*
X060257Y03559D01*
X060294D01*
X06034Y035559D01*
X060394Y035548D01*
X060447Y035559D01*
X060493Y03559D01*
X060524Y035635D01*
X060534Y035689D01*
X060524Y035743D01*
X060493Y035788D01*
X060447Y035819D01*
X060394Y035829D01*
D02*
G37*
G36*
X046361Y036056D02*
X046307Y036045D01*
X046262Y036015D01*
X046231Y035969D01*
X046221Y035915D01*
X046231Y035862D01*
X046262Y035816D01*
X046307Y035786D01*
X046361Y035775D01*
X046415Y035786D01*
X046461Y035816D01*
X046491Y035862D01*
X046502Y035915D01*
X046491Y035969D01*
X046461Y036015D01*
X046415Y036045D01*
X046361Y036056D01*
D02*
G37*
G36*
X057628Y035987D02*
X057574Y035976D01*
X057529Y035946D01*
X057498Y0359D01*
X057487Y035846D01*
X057495Y03581D01*
X057482Y035793D01*
X05746Y035774D01*
X057455Y035772D01*
X057411Y03578D01*
X057358Y03577D01*
X057312Y035739D01*
X057282Y035694D01*
X057271Y03564D01*
X057282Y035586D01*
X057312Y03554D01*
X057358Y03551D01*
X057411Y035499D01*
X057465Y03551D01*
X057475Y035516D01*
X05752Y035486D01*
X057517Y035472D01*
X057528Y035419D01*
X057558Y035373D01*
X057604Y035343D01*
X057657Y035332D01*
X057711Y035343D01*
X057757Y035373D01*
X057787Y035419D01*
X057798Y035472D01*
X057787Y035526D01*
X057757Y035572D01*
X057711Y035602D01*
X057657Y035613D01*
X057604Y035602D01*
X057594Y035596D01*
X057549Y035626D01*
X057552Y03564D01*
X057545Y035676D01*
X057557Y035693D01*
X057579Y035712D01*
X057584Y035715D01*
X057628Y035706D01*
X057682Y035717D01*
X057727Y035747D01*
X057758Y035793D01*
X057768Y035846D01*
X057758Y0359D01*
X057727Y035946D01*
X057682Y035976D01*
X057628Y035987D01*
D02*
G37*
G36*
X030069Y035938D02*
X030015Y035927D01*
X02997Y035897D01*
X029939Y035851D01*
X029928Y035797D01*
X029939Y035743D01*
X02997Y035698D01*
X030015Y035667D01*
X030069Y035657D01*
X030123Y035667D01*
X030168Y035698D01*
X030199Y035743D01*
X030209Y035797D01*
X030199Y035851D01*
X030168Y035897D01*
X030123Y035927D01*
X030069Y035938D01*
D02*
G37*
G36*
X054033Y035851D02*
X053979Y035841D01*
X053934Y03581D01*
X053903Y035765D01*
X053893Y035711D01*
X053903Y035657D01*
X053934Y035612D01*
X053979Y035581D01*
X054033Y03557D01*
X054087Y035581D01*
X054132Y035612D01*
X054163Y035657D01*
X054174Y035711D01*
X054163Y035765D01*
X054132Y03581D01*
X054087Y035841D01*
X054033Y035851D01*
D02*
G37*
G36*
X061575Y035642D02*
X061521Y035632D01*
X061475Y035601D01*
X061445Y035556D01*
X061434Y035502D01*
X061445Y035448D01*
X061475Y035403D01*
X061521Y035372D01*
X061575Y035361D01*
X061629Y035372D01*
X061674Y035403D01*
X061705Y035448D01*
X061715Y035502D01*
X061705Y035556D01*
X061674Y035601D01*
X061629Y035632D01*
X061575Y035642D01*
D02*
G37*
G36*
X062005Y035633D02*
X061952Y035622D01*
X061906Y035591D01*
X061876Y035546D01*
X061865Y035492D01*
X061876Y035438D01*
X061906Y035393D01*
X061952Y035362D01*
X062005Y035352D01*
X062059Y035362D01*
X062105Y035393D01*
X062135Y035438D01*
X062146Y035492D01*
X062135Y035546D01*
X062105Y035591D01*
X062059Y035622D01*
X062005Y035633D01*
D02*
G37*
G36*
X046357Y035564D02*
X046304Y035553D01*
X046258Y035523D01*
X046227Y035477D01*
X046217Y035423D01*
X046227Y035369D01*
X046258Y035324D01*
X046304Y035293D01*
X046357Y035283D01*
X046411Y035293D01*
X046457Y035324D01*
X046487Y035369D01*
X046498Y035423D01*
X046487Y035477D01*
X046457Y035523D01*
X046411Y035553D01*
X046357Y035564D01*
D02*
G37*
G36*
X041073Y035761D02*
X041019Y03575D01*
X040973Y035719D01*
X040943Y035674D01*
X040932Y03562D01*
X040943Y035566D01*
X040972Y035523D01*
X040979Y03551D01*
Y035475D01*
X040972Y035461D01*
X040943Y035418D01*
X040932Y035364D01*
X040943Y03531D01*
X040973Y035265D01*
X041019Y035234D01*
X041073Y035224D01*
X041127Y035234D01*
X041172Y035265D01*
X041203Y03531D01*
X041213Y035364D01*
X041203Y035418D01*
X041174Y035461D01*
X041167Y035475D01*
Y03551D01*
X041174Y035523D01*
X041203Y035566D01*
X041213Y03562D01*
X041203Y035674D01*
X041172Y035719D01*
X041127Y03575D01*
X041073Y035761D01*
D02*
G37*
G36*
X058809Y035505D02*
X058755Y035494D01*
X05871Y035464D01*
X058679Y035418D01*
X058669Y035364D01*
X058679Y03531D01*
X05871Y035265D01*
X058755Y035234D01*
X058809Y035224D01*
X058863Y035234D01*
X058908Y035265D01*
X058939Y03531D01*
X05895Y035364D01*
X058939Y035418D01*
X058908Y035464D01*
X058863Y035494D01*
X058809Y035505D01*
D02*
G37*
G36*
X058268Y035495D02*
X058214Y035484D01*
X058168Y035454D01*
X058138Y035408D01*
X058127Y035354D01*
X058138Y035301D01*
X058168Y035255D01*
X058214Y035225D01*
X058268Y035214D01*
X058321Y035225D01*
X058367Y035255D01*
X058398Y035301D01*
X058408Y035354D01*
X058398Y035408D01*
X058367Y035454D01*
X058321Y035484D01*
X058268Y035495D01*
D02*
G37*
G36*
X059833Y035465D02*
X059779Y035455D01*
X059733Y035424D01*
X059703Y035379D01*
X059692Y035325D01*
X059703Y035271D01*
X059733Y035225D01*
X059779Y035195D01*
X059833Y035184D01*
X059886Y035195D01*
X059932Y035225D01*
X059962Y035271D01*
X059973Y035325D01*
X059962Y035379D01*
X059932Y035424D01*
X059886Y035455D01*
X059833Y035465D01*
D02*
G37*
G36*
X054033Y035418D02*
X053979Y035408D01*
X053934Y035377D01*
X053903Y035332D01*
X053893Y035278D01*
X053903Y035224D01*
X053934Y035179D01*
X053979Y035148D01*
X054033Y035137D01*
X054087Y035148D01*
X054132Y035179D01*
X054163Y035224D01*
X054174Y035278D01*
X054163Y035332D01*
X054132Y035377D01*
X054087Y035408D01*
X054033Y035418D01*
D02*
G37*
G36*
X052212Y035199D02*
X052158Y035188D01*
X052113Y035158D01*
X052082Y035112D01*
X052071Y035058D01*
X052082Y035004D01*
X052113Y034959D01*
X052158Y034928D01*
X052212Y034918D01*
X052266Y034928D01*
X052311Y034959D01*
X052342Y035004D01*
X052352Y035058D01*
X052342Y035112D01*
X052311Y035158D01*
X052266Y035188D01*
X052212Y035199D01*
D02*
G37*
G36*
X058937Y035101D02*
X058883Y03509D01*
X058838Y03506D01*
X058807Y035014D01*
X058797Y034961D01*
X058807Y034907D01*
X058838Y034861D01*
X058883Y034831D01*
X058937Y03482D01*
X058991Y034831D01*
X059036Y034861D01*
X059067Y034907D01*
X059078Y034961D01*
X059067Y035014D01*
X059036Y03506D01*
X058991Y03509D01*
X058937Y035101D01*
D02*
G37*
G36*
X058346D02*
X058293Y03509D01*
X058247Y03506D01*
X058217Y035014D01*
X058206Y034961D01*
X058217Y034907D01*
X058247Y034861D01*
X058293Y034831D01*
X058346Y03482D01*
X0584Y034831D01*
X058446Y034861D01*
X058476Y034907D01*
X058487Y034961D01*
X058476Y035014D01*
X058446Y03506D01*
X0584Y03509D01*
X058346Y035101D01*
D02*
G37*
G36*
X046358Y035062D02*
X046304Y035051D01*
X046259Y035021D01*
X046228Y034975D01*
X046218Y034921D01*
X046228Y034867D01*
X046259Y034822D01*
X046304Y034791D01*
X046358Y034781D01*
X046412Y034791D01*
X046458Y034822D01*
X046488Y034867D01*
X046499Y034921D01*
X046488Y034975D01*
X046458Y035021D01*
X046412Y035051D01*
X046358Y035062D01*
D02*
G37*
G36*
X054033Y034985D02*
X053979Y034975D01*
X053934Y034944D01*
X053903Y034899D01*
X053893Y034845D01*
X053903Y034791D01*
X053934Y034745D01*
X053979Y034715D01*
X054033Y034704D01*
X054087Y034715D01*
X054132Y034745D01*
X054163Y034791D01*
X054174Y034845D01*
X054163Y034899D01*
X054132Y034944D01*
X054087Y034975D01*
X054033Y034985D01*
D02*
G37*
G36*
X057047Y035446D02*
X056993Y035435D01*
X056948Y035404D01*
X056917Y035359D01*
X056907Y035305D01*
X056917Y035251D01*
X056939Y035219D01*
X056934Y035209D01*
X056889Y035178D01*
X056858Y035133D01*
X056848Y035079D01*
X056858Y035025D01*
X056889Y034979D01*
X056889Y034979D01*
X056893Y034921D01*
X056863Y034876D01*
X056852Y034822D01*
X056863Y034768D01*
X056893Y034723D01*
X056939Y034692D01*
X056993Y034682D01*
X057047Y034692D01*
X057092Y034723D01*
X057123Y034768D01*
X057133Y034822D01*
X057123Y034876D01*
X057092Y034921D01*
X057091Y034922D01*
X057088Y034979D01*
X057118Y035025D01*
X057129Y035079D01*
X057118Y035133D01*
X057097Y035165D01*
X057101Y035175D01*
X057147Y035206D01*
X057177Y035251D01*
X057188Y035305D01*
X057177Y035359D01*
X057147Y035404D01*
X057101Y035435D01*
X057047Y035446D01*
D02*
G37*
G36*
X052648Y034944D02*
X052594Y034933D01*
X052548Y034902D01*
X052518Y034857D01*
X052507Y034803D01*
X052518Y034749D01*
X052548Y034704D01*
X052594Y034673D01*
X052648Y034663D01*
X052701Y034673D01*
X052747Y034704D01*
X052777Y034749D01*
X052788Y034803D01*
X052777Y034857D01*
X052747Y034902D01*
X052701Y034933D01*
X052648Y034944D01*
D02*
G37*
G36*
X043415Y034904D02*
X043362Y034894D01*
X043316Y034863D01*
X043286Y034818D01*
X043275Y034764D01*
X043286Y03471D01*
X043316Y034664D01*
X043362Y034634D01*
X043415Y034623D01*
X043469Y034634D01*
X043515Y034664D01*
X043545Y03471D01*
X043556Y034764D01*
X043545Y034818D01*
X043515Y034863D01*
X043469Y034894D01*
X043415Y034904D01*
D02*
G37*
G36*
X056181Y034845D02*
X056127Y034835D01*
X056082Y034804D01*
X056051Y034758D01*
X056041Y034705D01*
X056051Y034651D01*
X056082Y034605D01*
X056127Y034575D01*
X056181Y034564D01*
X056235Y034575D01*
X05628Y034605D01*
X056311Y034651D01*
X056322Y034705D01*
X056311Y034758D01*
X05628Y034804D01*
X056235Y034835D01*
X056181Y034845D01*
D02*
G37*
G36*
X035118Y034826D02*
X035064Y034815D01*
X035019Y034784D01*
X034988Y034739D01*
X034978Y034685D01*
X034988Y034631D01*
X035019Y034586D01*
X035064Y034555D01*
X035118Y034545D01*
X035172Y034555D01*
X035218Y034586D01*
X035248Y034631D01*
X035259Y034685D01*
X035248Y034739D01*
X035218Y034784D01*
X035172Y034815D01*
X035118Y034826D01*
D02*
G37*
G36*
X053071Y034707D02*
X053017Y034697D01*
X052972Y034666D01*
X052941Y034621D01*
X05293Y034567D01*
X052941Y034513D01*
X052972Y034468D01*
X053017Y034437D01*
X053071Y034426D01*
X053125Y034437D01*
X05317Y034468D01*
X053201Y034513D01*
X053211Y034567D01*
X053201Y034621D01*
X05317Y034666D01*
X053125Y034697D01*
X053071Y034707D01*
D02*
G37*
G36*
X041073Y034894D02*
X041019Y034884D01*
X040973Y034853D01*
X040943Y034808D01*
X040932Y034754D01*
X040943Y0347D01*
X040972Y034657D01*
X040979Y034643D01*
Y034609D01*
X040972Y034595D01*
X040943Y034552D01*
X040932Y034498D01*
X040943Y034444D01*
X040973Y034399D01*
X041019Y034368D01*
X041073Y034358D01*
X041127Y034368D01*
X041172Y034399D01*
X041203Y034444D01*
X041213Y034498D01*
X041203Y034552D01*
X041174Y034595D01*
X041167Y034609D01*
Y034643D01*
X041174Y034657D01*
X041203Y0347D01*
X041213Y034754D01*
X041203Y034808D01*
X041172Y034853D01*
X041127Y034884D01*
X041073Y034894D01*
D02*
G37*
G36*
X046359Y03456D02*
X046305Y034549D01*
X04626Y034519D01*
X046229Y034473D01*
X046219Y034419D01*
X046229Y034366D01*
X04626Y03432D01*
X046305Y034289D01*
X046359Y034279D01*
X046413Y034289D01*
X046459Y03432D01*
X046489Y034366D01*
X0465Y034419D01*
X046489Y034473D01*
X046459Y034519D01*
X046413Y034549D01*
X046359Y03456D01*
D02*
G37*
G36*
X031709Y034964D02*
X031616Y034952D01*
X03153Y034916D01*
X031456Y034859D01*
X031399Y034785D01*
X031363Y034699D01*
X031351Y034606D01*
X031363Y034514D01*
X031399Y034428D01*
X031456Y034354D01*
X03153Y034297D01*
X031616Y034261D01*
X031709Y034249D01*
X031801Y034261D01*
X031887Y034297D01*
X031961Y034354D01*
X032018Y034428D01*
X032054Y034514D01*
X032066Y034606D01*
X032054Y034699D01*
X032018Y034785D01*
X031961Y034859D01*
X031887Y034916D01*
X031801Y034952D01*
X031709Y034964D01*
D02*
G37*
G36*
X030709D02*
X030616Y034952D01*
X03053Y034916D01*
X030456Y034859D01*
X030399Y034785D01*
X030363Y034699D01*
X030351Y034606D01*
X030363Y034514D01*
X030399Y034428D01*
X030456Y034354D01*
X03053Y034297D01*
X030616Y034261D01*
X030709Y034249D01*
X030801Y034261D01*
X030887Y034297D01*
X030961Y034354D01*
X031018Y034428D01*
X031054Y034514D01*
X031066Y034606D01*
X031054Y034699D01*
X031018Y034785D01*
X030961Y034859D01*
X030887Y034916D01*
X030801Y034952D01*
X030709Y034964D01*
D02*
G37*
G36*
X052648Y034471D02*
X052594Y034461D01*
X052548Y03443D01*
X052518Y034384D01*
X052507Y034331D01*
X052518Y034277D01*
X052548Y034231D01*
X052594Y034201D01*
X052648Y03419D01*
X052701Y034201D01*
X052747Y034231D01*
X052777Y034277D01*
X052788Y034331D01*
X052777Y034384D01*
X052747Y03443D01*
X052701Y034461D01*
X052648Y034471D01*
D02*
G37*
G36*
X056181Y034373D02*
X056127Y034362D01*
X056082Y034332D01*
X056051Y034286D01*
X056041Y034232D01*
X056051Y034179D01*
X056082Y034133D01*
X056127Y034102D01*
X056181Y034092D01*
X056235Y034102D01*
X05628Y034133D01*
X056311Y034179D01*
X056322Y034232D01*
X056311Y034286D01*
X05628Y034332D01*
X056235Y034362D01*
X056181Y034373D01*
D02*
G37*
G36*
X05439Y034146D02*
X054336Y034136D01*
X05429Y034105D01*
X054276Y034084D01*
X054218D01*
X054204Y034105D01*
X054158Y034136D01*
X054104Y034146D01*
X054051Y034136D01*
X054005Y034105D01*
X053975Y03406D01*
X053964Y034006D01*
X053975Y033952D01*
X054005Y033907D01*
X054051Y033876D01*
X054104Y033865D01*
X054158Y033876D01*
X054204Y033907D01*
X054218Y033928D01*
X054276D01*
X05429Y033907D01*
X054336Y033876D01*
X05439Y033865D01*
X054444Y033876D01*
X054489Y033907D01*
X05452Y033952D01*
X05453Y034006D01*
X05452Y03406D01*
X054489Y034105D01*
X054444Y034136D01*
X05439Y034146D01*
D02*
G37*
G36*
X04636Y034058D02*
X046306Y034047D01*
X046261Y034017D01*
X04623Y033971D01*
X04622Y033917D01*
X04623Y033864D01*
X046261Y033818D01*
X046306Y033788D01*
X04636Y033777D01*
X046414Y033788D01*
X04646Y033818D01*
X04649Y033864D01*
X046501Y033917D01*
X04649Y033971D01*
X04646Y034017D01*
X046414Y034047D01*
X04636Y034058D01*
D02*
G37*
G36*
X037874Y033723D02*
X03782Y033712D01*
X037775Y033682D01*
X037766Y033669D01*
X037706D01*
X037698Y033682D01*
X037652Y033712D01*
X037598Y033723D01*
X037545Y033712D01*
X037499Y033682D01*
X037491Y033669D01*
X037431D01*
X037422Y033682D01*
X037377Y033712D01*
X037323Y033723D01*
X037269Y033712D01*
X037223Y033682D01*
X037193Y033636D01*
X037182Y033583D01*
X037193Y033529D01*
X037223Y033483D01*
X037269Y033453D01*
X037323Y033442D01*
X037377Y033453D01*
X037422Y033483D01*
X037431Y033496D01*
X037491D01*
X037499Y033483D01*
X037545Y033453D01*
X037598Y033442D01*
X037652Y033453D01*
X037698Y033483D01*
X037706Y033496D01*
X037766D01*
X037775Y033483D01*
X03782Y033453D01*
X037874Y033442D01*
X037928Y033453D01*
X037973Y033483D01*
X038004Y033529D01*
X038015Y033583D01*
X038004Y033636D01*
X037973Y033682D01*
X037928Y033712D01*
X037874Y033723D01*
D02*
G37*
G36*
X056181Y0339D02*
X056127Y03389D01*
X056082Y033859D01*
X056051Y033814D01*
X056041Y03376D01*
X056051Y033706D01*
X056082Y033661D01*
X056127Y03363D01*
X056181Y033619D01*
X056235Y03363D01*
X05628Y033661D01*
X056311Y033706D01*
X056322Y03376D01*
X056311Y033814D01*
X05628Y033859D01*
X056235Y03389D01*
X056181Y0339D01*
D02*
G37*
G36*
X051457Y033959D02*
X051403Y033949D01*
X051357Y033918D01*
X051327Y033873D01*
X051316Y033819D01*
X05132Y033798D01*
X051285Y033791D01*
X051239Y033761D01*
X051209Y033715D01*
X051198Y033661D01*
X051209Y033608D01*
X051239Y033562D01*
X051285Y033532D01*
X051339Y033521D01*
X051392Y033532D01*
X051438Y033562D01*
X051475D01*
X051521Y033532D01*
X051575Y033521D01*
X051629Y033532D01*
X051674Y033562D01*
X051705Y033608D01*
X051715Y033661D01*
X051705Y033715D01*
X051674Y033761D01*
X051629Y033791D01*
X051593Y033798D01*
X051597Y033819D01*
X051586Y033873D01*
X051556Y033918D01*
X05151Y033949D01*
X051457Y033959D01*
D02*
G37*
G36*
X041073Y034028D02*
X041019Y034018D01*
X040973Y033987D01*
X040943Y033942D01*
X040932Y033888D01*
X040943Y033834D01*
X040972Y03379D01*
X040979Y033777D01*
Y033742D01*
X040972Y033729D01*
X040943Y033686D01*
X040932Y033632D01*
X040943Y033578D01*
X040973Y033533D01*
X041019Y033502D01*
X041073Y033491D01*
X041127Y033502D01*
X041172Y033533D01*
X041203Y033578D01*
X041213Y033632D01*
X041203Y033686D01*
X041174Y033729D01*
X041167Y033742D01*
Y033777D01*
X041174Y03379D01*
X041203Y033834D01*
X041213Y033888D01*
X041203Y033942D01*
X041172Y033987D01*
X041127Y034018D01*
X041073Y034028D01*
D02*
G37*
G36*
X035443Y033999D02*
X035389Y033988D01*
X035344Y033958D01*
X035313Y033912D01*
X035302Y033858D01*
X035313Y033805D01*
X035344Y033759D01*
Y033721D01*
X035313Y033676D01*
X035302Y033622D01*
X035313Y033568D01*
X035344Y033523D01*
X035389Y033492D01*
X035443Y033482D01*
X035497Y033492D01*
X035542Y033523D01*
X035573Y033568D01*
X035583Y033622D01*
X035573Y033676D01*
X035542Y033721D01*
Y033759D01*
X035573Y033805D01*
X035583Y033858D01*
X035573Y033912D01*
X035542Y033958D01*
X035497Y033988D01*
X035443Y033999D01*
D02*
G37*
G36*
X052825Y033753D02*
X052771Y033742D01*
X052725Y033712D01*
X052695Y033666D01*
X052684Y033612D01*
X052695Y033558D01*
X052725Y033513D01*
X052771Y033482D01*
X052825Y033472D01*
X052879Y033482D01*
X052924Y033513D01*
X052955Y033558D01*
X052965Y033612D01*
X052955Y033666D01*
X052924Y033712D01*
X052879Y033742D01*
X052825Y033753D01*
D02*
G37*
G36*
X042136Y033694D02*
X042082Y033683D01*
X042036Y033652D01*
X042006Y033607D01*
X041995Y033553D01*
X042006Y033499D01*
X042036Y033454D01*
X042082Y033423D01*
X042136Y033413D01*
X04219Y033423D01*
X042235Y033454D01*
X042266Y033499D01*
X042276Y033553D01*
X042266Y033607D01*
X042235Y033652D01*
X04219Y033683D01*
X042136Y033694D01*
D02*
G37*
G36*
X046356Y033566D02*
X046303Y033555D01*
X046257Y033525D01*
X046227Y033479D01*
X046216Y033425D01*
X046227Y033371D01*
X046257Y033326D01*
X046303Y033295D01*
X046356Y033285D01*
X04641Y033295D01*
X046456Y033326D01*
X046486Y033371D01*
X046497Y033425D01*
X046486Y033479D01*
X046456Y033525D01*
X04641Y033555D01*
X046356Y033566D01*
D02*
G37*
G36*
X056181Y033428D02*
X056127Y033417D01*
X056082Y033387D01*
X056051Y033341D01*
X056041Y033287D01*
X056051Y033234D01*
X056082Y033188D01*
X056127Y033158D01*
X056181Y033147D01*
X056235Y033158D01*
X05628Y033188D01*
X056311Y033234D01*
X056322Y033287D01*
X056311Y033341D01*
X05628Y033387D01*
X056235Y033417D01*
X056181Y033428D01*
D02*
G37*
G36*
X055846Y033152D02*
X055793Y033142D01*
X055747Y033111D01*
X055717Y033066D01*
X055706Y033012D01*
X055717Y032958D01*
X055747Y032912D01*
X055793Y032882D01*
X055846Y032871D01*
X0559Y032882D01*
X055946Y032912D01*
X055976Y032958D01*
X055987Y033012D01*
X055976Y033066D01*
X055946Y033111D01*
X0559Y033142D01*
X055846Y033152D01*
D02*
G37*
G36*
X05623Y032965D02*
X056177Y032955D01*
X056131Y032924D01*
X056101Y032879D01*
X05609Y032825D01*
X056101Y032771D01*
X056131Y032725D01*
X056177Y032695D01*
X05623Y032684D01*
X056284Y032695D01*
X05633Y032725D01*
X05636Y032771D01*
X056371Y032825D01*
X05636Y032879D01*
X05633Y032924D01*
X056284Y032955D01*
X05623Y032965D01*
D02*
G37*
G36*
X029063Y033346D02*
X028354D01*
Y032638D01*
X029063D01*
Y033346D01*
D02*
G37*
G36*
X031709Y03335D02*
X031616Y033337D01*
X03153Y033302D01*
X031456Y033245D01*
X031399Y033171D01*
X031363Y033085D01*
X031351Y032992D01*
X031363Y0329D01*
X031399Y032813D01*
X031456Y032739D01*
X03153Y032683D01*
X031616Y032647D01*
X031709Y032635D01*
X031801Y032647D01*
X031887Y032683D01*
X031961Y032739D01*
X032018Y032813D01*
X032054Y0329D01*
X032066Y032992D01*
X032054Y033085D01*
X032018Y033171D01*
X031961Y033245D01*
X031887Y033302D01*
X031801Y033337D01*
X031709Y03335D01*
D02*
G37*
G36*
X030709D02*
X030616Y033337D01*
X03053Y033302D01*
X030456Y033245D01*
X030399Y033171D01*
X030363Y033085D01*
X030351Y032992D01*
X030363Y0329D01*
X030399Y032813D01*
X030456Y032739D01*
X03053Y032683D01*
X030616Y032647D01*
X030709Y032635D01*
X030801Y032647D01*
X030887Y032683D01*
X030961Y032739D01*
X031018Y032813D01*
X031054Y0329D01*
X031066Y032992D01*
X031054Y033085D01*
X031018Y033171D01*
X030961Y033245D01*
X030887Y033302D01*
X030801Y033337D01*
X030709Y03335D01*
D02*
G37*
G36*
X029709D02*
X029616Y033337D01*
X02953Y033302D01*
X029456Y033245D01*
X029399Y033171D01*
X029363Y033085D01*
X029351Y032992D01*
X029363Y0329D01*
X029399Y032813D01*
X029456Y032739D01*
X02953Y032683D01*
X029616Y032647D01*
X029709Y032635D01*
X029801Y032647D01*
X029887Y032683D01*
X029961Y032739D01*
X030018Y032813D01*
X030054Y0329D01*
X030066Y032992D01*
X030054Y033085D01*
X030018Y033171D01*
X029961Y033245D01*
X029887Y033302D01*
X029801Y033337D01*
X029709Y03335D01*
D02*
G37*
G36*
X030866Y032503D02*
X030812Y032492D01*
X030767Y032462D01*
X030736Y032416D01*
X030726Y032362D01*
X030736Y032308D01*
X030767Y032263D01*
X030812Y032232D01*
X030866Y032222D01*
X03092Y032232D01*
X030965Y032263D01*
X030996Y032308D01*
X031007Y032362D01*
X030996Y032416D01*
X030965Y032462D01*
X03092Y032492D01*
X030866Y032503D01*
D02*
G37*
G36*
X05311Y032385D02*
X053056Y032374D01*
X053011Y032343D01*
X05298Y032298D01*
X05297Y032244D01*
X05298Y03219D01*
X053011Y032145D01*
X053056Y032114D01*
X05311Y032104D01*
X053164Y032114D01*
X05321Y032145D01*
X05324Y03219D01*
X053251Y032244D01*
X05324Y032298D01*
X05321Y032343D01*
X053164Y032374D01*
X05311Y032385D01*
D02*
G37*
G36*
X055039Y032306D02*
X054986Y032295D01*
X05494Y032265D01*
X05491Y032219D01*
X054899Y032165D01*
X05491Y032112D01*
X05494Y032066D01*
X054986Y032036D01*
X055039Y032025D01*
X055093Y032036D01*
X055139Y032066D01*
X055169Y032112D01*
X05518Y032165D01*
X055169Y032219D01*
X055139Y032265D01*
X055093Y032295D01*
X055039Y032306D01*
D02*
G37*
G36*
X029256Y03229D02*
X029202Y032279D01*
X029157Y032249D01*
X029126Y032203D01*
X029115Y03215D01*
X029126Y032096D01*
X029157Y03205D01*
X029202Y03202D01*
X029256Y032009D01*
X02931Y03202D01*
X029355Y03205D01*
X029386Y032096D01*
X029396Y03215D01*
X029386Y032203D01*
X029355Y032249D01*
X02931Y032279D01*
X029256Y03229D01*
D02*
G37*
G36*
X03026Y03229D02*
X030206Y032279D01*
X030161Y032249D01*
X03013Y032203D01*
X030119Y03215D01*
X03013Y032096D01*
X030161Y03205D01*
X030206Y03202D01*
X03026Y032009D01*
X030314Y03202D01*
X030359Y03205D01*
X03039Y032096D01*
X0304Y03215D01*
X03039Y032203D01*
X030359Y032249D01*
X030314Y032279D01*
X03026Y03229D01*
D02*
G37*
G36*
X043573Y032237D02*
X043519Y032226D01*
X043473Y032196D01*
X043443Y03215D01*
X043432Y032096D01*
X043443Y032043D01*
X043473Y031997D01*
X043519Y031967D01*
X043573Y031956D01*
X043627Y031967D01*
X043672Y031997D01*
X043703Y032043D01*
X043713Y032096D01*
X043703Y03215D01*
X043672Y032196D01*
X043627Y032226D01*
X043573Y032237D01*
D02*
G37*
G36*
X04214Y032066D02*
X042086Y032055D01*
X04204Y032025D01*
X04201Y031979D01*
X041999Y031925D01*
X04201Y031871D01*
X04204Y031826D01*
X042086Y031795D01*
X04214Y031785D01*
X042194Y031795D01*
X042239Y031826D01*
X04227Y031871D01*
X04228Y031925D01*
X04227Y031979D01*
X042239Y032025D01*
X042194Y032055D01*
X04214Y032066D01*
D02*
G37*
G36*
X037343Y03205D02*
X037289Y032039D01*
X037243Y032009D01*
X037213Y031963D01*
X037202Y031909D01*
X037213Y031856D01*
X037243Y03181D01*
X037289Y03178D01*
X037343Y031769D01*
X037396Y03178D01*
X037442Y03181D01*
X037472Y031856D01*
X037483Y031909D01*
X037472Y031963D01*
X037442Y032009D01*
X037396Y032039D01*
X037343Y03205D01*
D02*
G37*
G36*
X056181Y031971D02*
X056127Y031961D01*
X056082Y03193D01*
X056051Y031884D01*
X056041Y031831D01*
X056051Y031777D01*
X056082Y031731D01*
X056127Y031701D01*
X056181Y03169D01*
X056235Y031701D01*
X05628Y031731D01*
X056311Y031777D01*
X056322Y031831D01*
X056311Y031884D01*
X05628Y03193D01*
X056235Y031961D01*
X056181Y031971D01*
D02*
G37*
G36*
X058368Y031969D02*
X058314Y031959D01*
X058269Y031928D01*
X058238Y031883D01*
X058228Y031829D01*
X058238Y031775D01*
X058269Y031729D01*
X058314Y031699D01*
X058368Y031688D01*
X058422Y031699D01*
X058467Y031729D01*
X058498Y031775D01*
X058509Y031829D01*
X058498Y031883D01*
X058467Y031928D01*
X058422Y031959D01*
X058368Y031969D01*
D02*
G37*
G36*
X053111Y031952D02*
X053057Y031941D01*
X053011Y031911D01*
X052981Y031865D01*
X05297Y031812D01*
X052981Y031758D01*
X053011Y031712D01*
X053057Y031682D01*
X053111Y031671D01*
X053165Y031682D01*
X05321Y031712D01*
X053241Y031758D01*
X053251Y031812D01*
X053241Y031865D01*
X05321Y031911D01*
X053165Y031941D01*
X053111Y031952D01*
D02*
G37*
G36*
X040118Y031952D02*
X040064Y031941D01*
X040019Y03191D01*
X039988Y031865D01*
X039978Y031811D01*
X039988Y031757D01*
X040019Y031712D01*
X040064Y031681D01*
X040118Y031671D01*
X040172Y031681D01*
X040217Y031712D01*
X040248Y031757D01*
X040259Y031811D01*
X040248Y031865D01*
X040217Y03191D01*
X040172Y031941D01*
X040118Y031952D01*
D02*
G37*
G36*
X046359Y031942D02*
X046305Y031931D01*
X04626Y031901D01*
X046229Y031855D01*
X046219Y031801D01*
X046229Y031747D01*
X04626Y031702D01*
X046305Y031671D01*
X046359Y031661D01*
X046413Y031671D01*
X046459Y031702D01*
X046489Y031747D01*
X0465Y031801D01*
X046489Y031855D01*
X046459Y031901D01*
X046413Y031931D01*
X046359Y031942D01*
D02*
G37*
G36*
X056841Y031843D02*
X056787Y031833D01*
X056741Y031802D01*
X056711Y031757D01*
X0567Y031703D01*
X056711Y031649D01*
X056741Y031603D01*
X056787Y031573D01*
X056841Y031562D01*
X056894Y031573D01*
X05694Y031603D01*
X05697Y031649D01*
X056981Y031703D01*
X05697Y031757D01*
X05694Y031802D01*
X056894Y031833D01*
X056841Y031843D01*
D02*
G37*
G36*
X052283Y031833D02*
X05223Y031823D01*
X052184Y031792D01*
X052154Y031747D01*
X052143Y031693D01*
X052154Y031639D01*
X052184Y031594D01*
X05223Y031563D01*
X052283Y031552D01*
X052337Y031563D01*
X052383Y031594D01*
X052413Y031639D01*
X052424Y031693D01*
X052413Y031747D01*
X052383Y031792D01*
X052337Y031823D01*
X052283Y031833D01*
D02*
G37*
G36*
X037953Y031558D02*
X037899Y031547D01*
X037853Y031517D01*
X037816D01*
X03777Y031547D01*
X037717Y031558D01*
X037663Y031547D01*
X037617Y031517D01*
X037587Y031471D01*
X037576Y031417D01*
X037587Y031364D01*
X037617Y031318D01*
Y03128D01*
X037587Y031235D01*
X037576Y031181D01*
X037587Y031127D01*
X037617Y031082D01*
X037663Y031051D01*
X037717Y031041D01*
X03777Y031051D01*
X037816Y031082D01*
X037853D01*
X037899Y031051D01*
X037953Y031041D01*
X038007Y031051D01*
X038052Y031082D01*
X038083Y031127D01*
X038093Y031181D01*
X038083Y031235D01*
X038052Y03128D01*
Y031318D01*
X038083Y031364D01*
X038093Y031417D01*
X038083Y031471D01*
X038052Y031517D01*
X038007Y031547D01*
X037953Y031558D01*
D02*
G37*
G36*
X053111Y031519D02*
X053057Y031508D01*
X053011Y031478D01*
X052981Y031432D01*
X05297Y031379D01*
X052981Y031325D01*
X053011Y031279D01*
X053057Y031249D01*
X053111Y031238D01*
X053165Y031249D01*
X05321Y031279D01*
X053241Y031325D01*
X053251Y031379D01*
X053241Y031432D01*
X05321Y031478D01*
X053165Y031508D01*
X053111Y031519D01*
D02*
G37*
G36*
X054646Y031243D02*
X054592Y031232D01*
X054546Y031202D01*
X054509D01*
X054463Y031232D01*
X054409Y031243D01*
X054356Y031232D01*
X05431Y031202D01*
X05428Y031156D01*
X054269Y031102D01*
X054223Y03108D01*
X054198Y031075D01*
X054153Y031044D01*
X054122Y030999D01*
X054111Y030945D01*
X054122Y030891D01*
X054153Y030846D01*
X054198Y030815D01*
X054252Y030804D01*
X054306Y030815D01*
X054351Y030846D01*
X054382Y030891D01*
X054387Y030915D01*
X054404Y03095D01*
X054439Y030968D01*
X054463Y030973D01*
X054509Y031003D01*
X054546D01*
X054592Y030973D01*
X054646Y030962D01*
X054699Y030973D01*
X054745Y031003D01*
X054775Y031049D01*
X054786Y031102D01*
X054775Y031156D01*
X054745Y031202D01*
X054699Y031232D01*
X054646Y031243D01*
D02*
G37*
G36*
X046355Y03145D02*
X046302Y031439D01*
X046256Y031408D01*
X046226Y031363D01*
X046215Y031309D01*
X046226Y031255D01*
X046256Y03121D01*
X046302Y031179D01*
X046355Y031169D01*
X046409Y031179D01*
X046455Y03121D01*
X046485Y031255D01*
X046496Y031309D01*
X046485Y031363D01*
X046455Y031408D01*
X046409Y031439D01*
X046355Y03145D01*
D02*
G37*
G36*
X030256Y031282D02*
X030202Y031272D01*
X030157Y031241D01*
X030126Y031195D01*
X030115Y031142D01*
X030126Y031088D01*
X030157Y031042D01*
X030202Y031012D01*
X030256Y031001D01*
X03031Y031012D01*
X030355Y031042D01*
X030386Y031088D01*
X030396Y031142D01*
X030386Y031195D01*
X030355Y031241D01*
X03031Y031272D01*
X030256Y031282D01*
D02*
G37*
G36*
X029252D02*
X029198Y031272D01*
X029153Y031241D01*
X029122Y031195D01*
X029111Y031142D01*
X029122Y031088D01*
X029153Y031042D01*
X029198Y031012D01*
X029252Y031001D01*
X029306Y031012D01*
X029351Y031042D01*
X029382Y031088D01*
X029392Y031142D01*
X029382Y031195D01*
X029351Y031241D01*
X029306Y031272D01*
X029252Y031282D01*
D02*
G37*
G36*
X053111Y031086D02*
X053057Y031075D01*
X053011Y031045D01*
X052981Y030999D01*
X05297Y030945D01*
X052981Y030892D01*
X053011Y030846D01*
X053057Y030816D01*
X053111Y030805D01*
X053165Y030816D01*
X05321Y030846D01*
X053241Y030892D01*
X053251Y030945D01*
X053241Y030999D01*
X05321Y031045D01*
X053165Y031075D01*
X053111Y031086D01*
D02*
G37*
G36*
X030866Y031085D02*
X030812Y031075D01*
X030767Y031044D01*
X030736Y030999D01*
X030726Y030945D01*
X030736Y030891D01*
X030767Y030846D01*
X030812Y030815D01*
X030866Y030804D01*
X03092Y030815D01*
X030965Y030846D01*
X030996Y030891D01*
X031007Y030945D01*
X030996Y030999D01*
X030965Y031044D01*
X03092Y031075D01*
X030866Y031085D01*
D02*
G37*
G36*
X052303Y031046D02*
X052249Y031035D01*
X052204Y031005D01*
X052173Y030959D01*
X052163Y030906D01*
X052173Y030852D01*
X052204Y030806D01*
X052249Y030776D01*
X052303Y030765D01*
X052357Y030776D01*
X052402Y030806D01*
X052433Y030852D01*
X052444Y030906D01*
X052433Y030959D01*
X052402Y031005D01*
X052357Y031035D01*
X052303Y031046D01*
D02*
G37*
G36*
X056191Y031479D02*
X056137Y031468D01*
X056092Y031438D01*
X056061Y031392D01*
X05605Y031339D01*
X056061Y031285D01*
X056077Y031262D01*
X056087Y031225D01*
X056077Y031189D01*
X056061Y031166D01*
X05605Y031112D01*
X056061Y031058D01*
X056092Y031013D01*
X056092Y031013D01*
Y030953D01*
X056082Y030946D01*
X056051Y0309D01*
X056041Y030846D01*
X056051Y030793D01*
X056082Y030747D01*
X056127Y030717D01*
X056181Y030706D01*
X056235Y030717D01*
X05628Y030747D01*
X056311Y030793D01*
X056322Y030846D01*
X056311Y0309D01*
X05628Y030946D01*
X05628Y030946D01*
Y031006D01*
X05629Y031013D01*
X056321Y031058D01*
X056331Y031112D01*
X056321Y031166D01*
X056305Y031189D01*
X056294Y031225D01*
X056305Y031262D01*
X056321Y031285D01*
X056331Y031339D01*
X056321Y031392D01*
X05629Y031438D01*
X056245Y031468D01*
X056191Y031479D01*
D02*
G37*
G36*
X046356Y030948D02*
X046303Y030937D01*
X046257Y030906D01*
X046227Y030861D01*
X046216Y030807D01*
X046227Y030753D01*
X046257Y030708D01*
X046303Y030677D01*
X046356Y030667D01*
X04641Y030677D01*
X046456Y030708D01*
X046486Y030753D01*
X046497Y030807D01*
X046486Y030861D01*
X046456Y030906D01*
X04641Y030937D01*
X046356Y030948D01*
D02*
G37*
G36*
X058602Y031016D02*
X058549Y031006D01*
X058503Y030975D01*
X058473Y03093D01*
X058462Y030876D01*
X058473Y030822D01*
X058503Y030777D01*
X058506Y030775D01*
X058513Y030719D01*
X058482Y030674D01*
X058472Y03062D01*
X058482Y030566D01*
X058513Y030521D01*
X058558Y03049D01*
X058612Y03048D01*
X058666Y03049D01*
X058712Y030521D01*
X058742Y030566D01*
X058753Y03062D01*
X058742Y030674D01*
X058712Y030719D01*
X058709Y030721D01*
X058702Y030777D01*
X058732Y030822D01*
X058743Y030876D01*
X058732Y03093D01*
X058702Y030975D01*
X058656Y031006D01*
X058602Y031016D01*
D02*
G37*
G36*
X043461Y030734D02*
X043408Y030724D01*
X043362Y030693D01*
X043332Y030647D01*
X043321Y030594D01*
X043332Y03054D01*
X043362Y030494D01*
X043408Y030464D01*
X043461Y030453D01*
X043515Y030464D01*
X043561Y030494D01*
X043591Y03054D01*
X043602Y030594D01*
X043591Y030647D01*
X043561Y030693D01*
X043515Y030724D01*
X043461Y030734D01*
D02*
G37*
G36*
X057677Y030721D02*
X057623Y030711D01*
X057578Y03068D01*
X057547Y030634D01*
X057537Y030581D01*
X057547Y030527D01*
X057578Y030481D01*
X057623Y030451D01*
X057677Y03044D01*
X057731Y030451D01*
X057777Y030481D01*
X057807Y030527D01*
X057818Y030581D01*
X057807Y030634D01*
X057777Y03068D01*
X057731Y030711D01*
X057677Y030721D01*
D02*
G37*
G36*
X053111Y030653D02*
X053057Y030642D01*
X053011Y030612D01*
X052981Y030566D01*
X05297Y030512D01*
X052981Y030459D01*
X053011Y030413D01*
X053057Y030383D01*
X053111Y030372D01*
X053165Y030383D01*
X05321Y030413D01*
X053241Y030459D01*
X053251Y030512D01*
X053241Y030566D01*
X05321Y030612D01*
X053165Y030642D01*
X053111Y030653D01*
D02*
G37*
G36*
X05687Y030633D02*
X056816Y030622D01*
X056771Y030591D01*
X05674Y030546D01*
X05673Y030492D01*
X05674Y030438D01*
X056771Y030393D01*
X056816Y030362D01*
X05687Y030352D01*
X056924Y030362D01*
X056969Y030393D01*
X057Y030438D01*
X057011Y030492D01*
X057Y030546D01*
X056969Y030591D01*
X056924Y030622D01*
X05687Y030633D01*
D02*
G37*
G36*
X058209Y030829D02*
X058155Y030819D01*
X058109Y030788D01*
X058079Y030743D01*
X058068Y030689D01*
X058079Y030635D01*
X058043Y0306D01*
X058001Y030572D01*
X057971Y030526D01*
X05796Y030472D01*
X057971Y030419D01*
X058001Y030373D01*
X058047Y030343D01*
X0581Y030332D01*
X058154Y030343D01*
X0582Y030373D01*
X05823Y030419D01*
X058241Y030472D01*
X05823Y030526D01*
X058266Y030562D01*
X058308Y03059D01*
X058338Y030635D01*
X058349Y030689D01*
X058338Y030743D01*
X058308Y030788D01*
X058262Y030819D01*
X058209Y030829D01*
D02*
G37*
G36*
X057638Y030337D02*
X057584Y030327D01*
X057538Y030296D01*
X057508Y030251D01*
X057472Y030213D01*
X057441Y030219D01*
X057431Y030217D01*
X057374Y030251D01*
X057343Y030296D01*
X057298Y030327D01*
X057244Y030337D01*
X05719Y030327D01*
X057145Y030296D01*
X057114Y030251D01*
X057104Y030197D01*
X057114Y030143D01*
X057145Y030098D01*
X05719Y030067D01*
X057244Y030056D01*
X057254Y030058D01*
X057311Y030025D01*
X057342Y029979D01*
X057387Y029949D01*
X057441Y029938D01*
X057495Y029949D01*
X05754Y029979D01*
X057571Y030025D01*
X057607Y030063D01*
X057638Y030056D01*
X057692Y030067D01*
X057737Y030098D01*
X057768Y030143D01*
X057778Y030197D01*
X057768Y030251D01*
X057737Y030296D01*
X057692Y030327D01*
X057638Y030337D01*
D02*
G37*
G36*
X046362Y030436D02*
X046308Y030425D01*
X046263Y030395D01*
X046232Y030349D01*
X046222Y030295D01*
X046232Y030242D01*
X046263Y030196D01*
X046308Y030165D01*
X046362Y030155D01*
X046416Y030165D01*
X046462Y030196D01*
X046492Y030242D01*
X046503Y030295D01*
X046492Y030349D01*
X046462Y030395D01*
X046416Y030425D01*
X046362Y030436D01*
D02*
G37*
G36*
X059352Y03042D02*
X059299Y030409D01*
X059253Y030379D01*
X059223Y030333D01*
X059212Y03028D01*
X059223Y030226D01*
X059253Y03018D01*
X059299Y03015D01*
X059352Y030139D01*
X059406Y03015D01*
X059452Y03018D01*
X059482Y030226D01*
X059493Y03028D01*
X059482Y030333D01*
X059452Y030379D01*
X059406Y030409D01*
X059352Y03042D01*
D02*
G37*
G36*
X029079Y030709D02*
X02837D01*
Y03D01*
X029079D01*
Y030709D01*
D02*
G37*
G36*
X031724Y030712D02*
X031632Y0307D01*
X031546Y030664D01*
X031472Y030607D01*
X031415Y030533D01*
X031379Y030447D01*
X031367Y030354D01*
X031379Y030262D01*
X031415Y030176D01*
X031472Y030102D01*
X031546Y030045D01*
X031632Y030009D01*
X031724Y029997D01*
X031817Y030009D01*
X031903Y030045D01*
X031977Y030102D01*
X032034Y030176D01*
X03207Y030262D01*
X032082Y030354D01*
X03207Y030447D01*
X032034Y030533D01*
X031977Y030607D01*
X031903Y030664D01*
X031817Y0307D01*
X031724Y030712D01*
D02*
G37*
G36*
X030724D02*
X030632Y0307D01*
X030546Y030664D01*
X030472Y030607D01*
X030415Y030533D01*
X030379Y030447D01*
X030367Y030354D01*
X030379Y030262D01*
X030415Y030176D01*
X030472Y030102D01*
X030546Y030045D01*
X030632Y030009D01*
X030724Y029997D01*
X030817Y030009D01*
X030903Y030045D01*
X030977Y030102D01*
X031034Y030176D01*
X03107Y030262D01*
X031082Y030354D01*
X03107Y030447D01*
X031034Y030533D01*
X030977Y030607D01*
X030903Y030664D01*
X030817Y0307D01*
X030724Y030712D01*
D02*
G37*
G36*
X029724D02*
X029632Y0307D01*
X029546Y030664D01*
X029472Y030607D01*
X029415Y030533D01*
X029379Y030447D01*
X029367Y030354D01*
X029379Y030262D01*
X029415Y030176D01*
X029472Y030102D01*
X029546Y030045D01*
X029632Y030009D01*
X029724Y029997D01*
X029817Y030009D01*
X029903Y030045D01*
X029977Y030102D01*
X030034Y030176D01*
X03007Y030262D01*
X030082Y030354D01*
X03007Y030447D01*
X030034Y030533D01*
X029977Y030607D01*
X029903Y030664D01*
X029817Y0307D01*
X029724Y030712D01*
D02*
G37*
G36*
X056299Y030259D02*
X056245Y030248D01*
X0562Y030217D01*
X056169Y030172D01*
X056159Y030118D01*
X056169Y030064D01*
X0562Y030019D01*
X056245Y029988D01*
X056299Y029978D01*
X056353Y029988D01*
X056399Y030019D01*
X056429Y030064D01*
X05644Y030118D01*
X056429Y030172D01*
X056399Y030217D01*
X056353Y030248D01*
X056299Y030259D01*
D02*
G37*
G36*
X053111Y03022D02*
X053057Y030209D01*
X053011Y030179D01*
X052981Y030133D01*
X05297Y030079D01*
X052981Y030026D01*
X053011Y02998D01*
X053057Y02995D01*
X053111Y029939D01*
X053165Y02995D01*
X05321Y02998D01*
X053241Y030026D01*
X053251Y030079D01*
X053241Y030133D01*
X05321Y030179D01*
X053165Y030209D01*
X053111Y03022D01*
D02*
G37*
G36*
X059872Y030121D02*
X059818Y03011D01*
X059773Y03008D01*
X059742Y030034D01*
X059732Y02998D01*
X059742Y029927D01*
X059773Y029881D01*
X059818Y029851D01*
X059872Y02984D01*
X059926Y029851D01*
X059971Y029881D01*
X060002Y029927D01*
X060013Y02998D01*
X060002Y030034D01*
X059971Y03008D01*
X059926Y03011D01*
X059872Y030121D01*
D02*
G37*
G36*
X052205Y029983D02*
X052151Y029972D01*
X052105Y029942D01*
X052075Y029896D01*
X052064Y029843D01*
X052075Y029789D01*
X052105Y029743D01*
X052151Y029713D01*
X052205Y029702D01*
X052258Y029713D01*
X052304Y029743D01*
X052335Y029789D01*
X052345Y029843D01*
X052335Y029896D01*
X052304Y029942D01*
X052258Y029972D01*
X052205Y029983D01*
D02*
G37*
G36*
X046358Y029944D02*
X046304Y029933D01*
X046259Y029902D01*
X046228Y029857D01*
X046218Y029803D01*
X046228Y029749D01*
X046259Y029704D01*
X046304Y029673D01*
X046358Y029663D01*
X046412Y029673D01*
X046458Y029704D01*
X046488Y029749D01*
X046499Y029803D01*
X046488Y029857D01*
X046458Y029902D01*
X046412Y029933D01*
X046358Y029944D01*
D02*
G37*
G36*
X053111Y029787D02*
X053058Y029777D01*
X053012Y029746D01*
X052982Y029701D01*
X052971Y029647D01*
X052982Y029593D01*
X053012Y029547D01*
X053058Y029517D01*
X053111Y029506D01*
X053165Y029517D01*
X053211Y029547D01*
X053241Y029593D01*
X053252Y029647D01*
X053241Y029701D01*
X053211Y029746D01*
X053165Y029777D01*
X053111Y029787D01*
D02*
G37*
G36*
X056931Y029627D02*
X056877Y029616D01*
X056832Y029586D01*
X056801Y02954D01*
X056791Y029486D01*
X056801Y029432D01*
X056832Y029387D01*
X056877Y029356D01*
X056931Y029346D01*
X056985Y029356D01*
X05703Y029387D01*
X057061Y029432D01*
X057072Y029486D01*
X057061Y02954D01*
X05703Y029586D01*
X056985Y029616D01*
X056931Y029627D01*
D02*
G37*
G36*
X046356Y029452D02*
X046303Y029441D01*
X046257Y02941D01*
X046227Y029365D01*
X046216Y029311D01*
X046227Y029257D01*
X046257Y029212D01*
X046303Y029181D01*
X046356Y029171D01*
X04641Y029181D01*
X046456Y029212D01*
X046486Y029257D01*
X046497Y029311D01*
X046486Y029365D01*
X046456Y02941D01*
X04641Y029441D01*
X046356Y029452D01*
D02*
G37*
G36*
X052795Y029353D02*
X052742Y029342D01*
X052696Y029312D01*
X052665Y029266D01*
X052655Y029213D01*
X052665Y029159D01*
X052696Y029113D01*
X052742Y029083D01*
X052795Y029072D01*
X052849Y029083D01*
X052895Y029113D01*
X052925Y029159D01*
X052936Y029213D01*
X052925Y029266D01*
X052895Y029312D01*
X052849Y029342D01*
X052795Y029353D01*
D02*
G37*
G36*
X044508Y029609D02*
X044454Y029598D01*
X044409Y029568D01*
X044378Y029522D01*
X044367Y029469D01*
X044378Y029415D01*
X044409Y029369D01*
X044414Y029366D01*
Y029316D01*
X044409Y029312D01*
X044378Y029266D01*
X044367Y029213D01*
X044378Y029159D01*
X044409Y029113D01*
X044454Y029083D01*
X044508Y029072D01*
X044562Y029083D01*
X044607Y029113D01*
X044638Y029159D01*
X044648Y029213D01*
X044638Y029266D01*
X044607Y029312D01*
X044602Y029316D01*
Y029366D01*
X044607Y029369D01*
X044638Y029415D01*
X044648Y029469D01*
X044638Y029522D01*
X044607Y029568D01*
X044562Y029598D01*
X044508Y029609D01*
D02*
G37*
G36*
X043701Y029353D02*
X043647Y029342D01*
X043601Y029312D01*
X043571Y029266D01*
X04356Y029213D01*
X043571Y029159D01*
X043601Y029113D01*
X043647Y029083D01*
X043701Y029072D01*
X043755Y029083D01*
X0438Y029113D01*
X043831Y029159D01*
X043841Y029213D01*
X043831Y029266D01*
X0438Y029312D01*
X043755Y029342D01*
X043701Y029353D01*
D02*
G37*
G36*
X0594Y029215D02*
X059346Y029205D01*
X0593Y029174D01*
X05927Y029129D01*
X059259Y029075D01*
X05927Y029021D01*
X0593Y028975D01*
X059346Y028945D01*
X0594Y028934D01*
X059453Y028945D01*
X059499Y028975D01*
X059529Y029021D01*
X05954Y029075D01*
X059529Y029129D01*
X059499Y029174D01*
X059453Y029205D01*
X0594Y029215D01*
D02*
G37*
G36*
X051618Y032367D02*
X047673D01*
X047661Y032362D01*
X047649Y032362D01*
X047641Y032359D01*
X047636Y032354D01*
X047636D01*
X047632Y03235D01*
X047621Y032345D01*
X047615Y03234D01*
X04761Y032328D01*
X047601Y032319D01*
X047598Y032312D01*
X047598Y032299D01*
X047596Y032295D01*
Y032295D01*
X047593Y032287D01*
Y028736D01*
X047596Y028729D01*
Y028729D01*
X047598Y028724D01*
X047598Y028712D01*
X047601Y028704D01*
X047607Y028699D01*
Y028699D01*
X04761Y028695D01*
X047615Y028684D01*
X047621Y028678D01*
X047632Y028673D01*
X047636Y02867D01*
X047636D01*
X047641Y028664D01*
X047649Y028661D01*
X047661Y028661D01*
X047666Y028659D01*
X047666D01*
X047673Y028656D01*
X051618D01*
X051625Y028659D01*
X051625D01*
X05163Y028661D01*
X051643Y028661D01*
X05165Y028664D01*
X051655Y02867D01*
X051655D01*
X051659Y028673D01*
X051671Y028678D01*
X051676Y028684D01*
X051681Y028695D01*
X051684Y028699D01*
Y028699D01*
X05169Y028704D01*
X051692Y028709D01*
X051707Y028714D01*
X051738Y028721D01*
X051744Y02872D01*
X051751Y02871D01*
X051797Y028679D01*
X05185Y028669D01*
X051904Y028679D01*
X05195Y02871D01*
X05198Y028755D01*
X051991Y028809D01*
X05198Y028863D01*
X05195Y028908D01*
X051904Y028939D01*
X05185Y02895D01*
X051797Y028939D01*
X051751Y028908D01*
X051748Y028904D01*
X051698Y028919D01*
Y032287D01*
X051693Y032299D01*
X051693Y032312D01*
X05169Y032319D01*
X051681Y032328D01*
X051676Y03234D01*
X051671Y032345D01*
X051659Y03235D01*
X05165Y032359D01*
X051643Y032362D01*
X05163Y032362D01*
X051618Y032367D01*
D02*
G37*
G36*
X046355Y02895D02*
X046302Y028939D01*
X046256Y028908D01*
X046226Y028863D01*
X046215Y028809D01*
X046226Y028755D01*
X046256Y02871D01*
X046302Y028679D01*
X046355Y028669D01*
X046409Y028679D01*
X046455Y02871D01*
X046485Y028755D01*
X046496Y028809D01*
X046485Y028863D01*
X046455Y028908D01*
X046409Y028939D01*
X046355Y02895D01*
D02*
G37*
G36*
X053111Y028921D02*
X053058Y02891D01*
X053012Y02888D01*
X052982Y028834D01*
X052971Y028781D01*
X052982Y028727D01*
X053012Y028681D01*
X053058Y028651D01*
X053111Y02864D01*
X053165Y028651D01*
X053211Y028681D01*
X053241Y028727D01*
X053252Y028781D01*
X053241Y028834D01*
X053211Y02888D01*
X053165Y02891D01*
X053111Y028921D01*
D02*
G37*
G36*
X055593Y030168D02*
X055539Y030157D01*
X055493Y030127D01*
X055463Y030081D01*
X055452Y030028D01*
X055463Y029974D01*
X055493Y029928D01*
X055506Y02992D01*
Y02986D01*
X055493Y029851D01*
X055463Y029806D01*
X055452Y029752D01*
X055463Y029698D01*
X055493Y029653D01*
X055506Y029644D01*
Y029584D01*
X055493Y029576D01*
X055463Y02953D01*
X055452Y029476D01*
X055463Y029423D01*
X055493Y029377D01*
X055506Y029369D01*
Y029309D01*
X055493Y0293D01*
X055463Y029255D01*
X055452Y029201D01*
X055463Y029147D01*
X055493Y029101D01*
X055506Y029093D01*
Y029033D01*
X055493Y029025D01*
X055463Y028979D01*
X055452Y028925D01*
X055463Y028871D01*
X055493Y028826D01*
X055514Y028812D01*
Y028753D01*
X055493Y028739D01*
X055463Y028694D01*
X055452Y02864D01*
X055463Y028586D01*
X055493Y02854D01*
X055539Y02851D01*
X055593Y028499D01*
X055646Y02851D01*
X055692Y02854D01*
X055722Y028586D01*
X055733Y02864D01*
X055722Y028694D01*
X055692Y028739D01*
X055671Y028753D01*
Y028812D01*
X055692Y028826D01*
X055722Y028871D01*
X055733Y028925D01*
X055722Y028979D01*
X055692Y029025D01*
X055679Y029033D01*
Y029093D01*
X055692Y029101D01*
X055722Y029147D01*
X055733Y029201D01*
X055722Y029255D01*
X055692Y0293D01*
X055679Y029309D01*
Y029369D01*
X055692Y029377D01*
X055722Y029423D01*
X055733Y029476D01*
X055722Y02953D01*
X055692Y029576D01*
X055679Y029584D01*
Y029644D01*
X055692Y029653D01*
X055722Y029698D01*
X055733Y029752D01*
X055722Y029806D01*
X055692Y029851D01*
X055679Y02986D01*
Y02992D01*
X055692Y029928D01*
X055722Y029974D01*
X055733Y030028D01*
X055722Y030081D01*
X055692Y030127D01*
X055646Y030157D01*
X055593Y030168D01*
D02*
G37*
G36*
X044911Y028703D02*
X044858Y028693D01*
X044812Y028662D01*
X044782Y028617D01*
X044771Y028563D01*
X044782Y028509D01*
X044812Y028464D01*
X044858Y028433D01*
X044911Y028423D01*
X044965Y028433D01*
X045011Y028464D01*
X045041Y028509D01*
X045052Y028563D01*
X045041Y028617D01*
X045011Y028662D01*
X044965Y028693D01*
X044911Y028703D01*
D02*
G37*
G36*
X040128Y028831D02*
X040074Y028821D01*
X040029Y02879D01*
X039998Y028745D01*
X039987Y028691D01*
X039998Y028637D01*
X040027Y028594D01*
X040034Y02858D01*
Y028546D01*
X040027Y028532D01*
X039998Y028489D01*
X039987Y028435D01*
X039998Y028381D01*
X040029Y028336D01*
X040074Y028305D01*
X040128Y028295D01*
X040182Y028305D01*
X040227Y028336D01*
X040258Y028381D01*
X040268Y028435D01*
X040258Y028489D01*
X040229Y028532D01*
X040222Y028546D01*
Y02858D01*
X040229Y028594D01*
X040258Y028637D01*
X040268Y028691D01*
X040258Y028745D01*
X040227Y02879D01*
X040182Y028821D01*
X040128Y028831D01*
D02*
G37*
G36*
X05311Y028487D02*
X053056Y028476D01*
X053011Y028446D01*
X05298Y0284D01*
X05297Y028346D01*
X05298Y028293D01*
X053011Y028247D01*
X053056Y028217D01*
X05311Y028206D01*
X053164Y028217D01*
X05321Y028247D01*
X05324Y028293D01*
X053251Y028346D01*
X05324Y0284D01*
X05321Y028446D01*
X053164Y028476D01*
X05311Y028487D01*
D02*
G37*
G36*
X046356Y028448D02*
X046303Y028437D01*
X046257Y028406D01*
X046227Y028361D01*
X046216Y028307D01*
X046227Y028253D01*
X046257Y028208D01*
X046303Y028177D01*
X046356Y028167D01*
X04641Y028177D01*
X046456Y028208D01*
X046486Y028253D01*
X046497Y028307D01*
X046486Y028361D01*
X046456Y028406D01*
X04641Y028437D01*
X046356Y028448D01*
D02*
G37*
G36*
X059409Y028428D02*
X059356Y028417D01*
X05931Y028387D01*
X05928Y028341D01*
X059269Y028287D01*
X05928Y028234D01*
X05931Y028188D01*
X059356Y028158D01*
X059409Y028147D01*
X059463Y028158D01*
X059509Y028188D01*
X059539Y028234D01*
X05955Y028287D01*
X059539Y028341D01*
X059509Y028387D01*
X059463Y028417D01*
X059409Y028428D01*
D02*
G37*
G36*
X044321Y02829D02*
X044267Y028279D01*
X044222Y028249D01*
X044191Y028203D01*
X04418Y02815D01*
X044191Y028096D01*
X044222Y02805D01*
X044267Y02802D01*
X044321Y028009D01*
X044375Y02802D01*
X04442Y02805D01*
X044451Y028096D01*
X044461Y02815D01*
X044451Y028203D01*
X04442Y028249D01*
X044375Y028279D01*
X044321Y02829D01*
D02*
G37*
G36*
X05679Y028451D02*
X056736Y02844D01*
X056691Y028409D01*
X05666Y028364D01*
X056649Y02831D01*
X05666Y028256D01*
X056691Y028211D01*
X056692Y02821D01*
Y02818D01*
X056662Y028134D01*
X056651Y028081D01*
X056662Y028027D01*
X056692Y027981D01*
X056738Y027951D01*
X056791Y02794D01*
X056845Y027951D01*
X056891Y027981D01*
X056921Y028027D01*
X056932Y028081D01*
X056921Y028134D01*
X056891Y02818D01*
X056889Y028181D01*
Y028211D01*
X05692Y028256D01*
X05693Y02831D01*
X05692Y028364D01*
X056889Y028409D01*
X056844Y02844D01*
X05679Y028451D01*
D02*
G37*
G36*
X045157Y028211D02*
X045104Y028201D01*
X045058Y02817D01*
X045028Y028125D01*
X045017Y028071D01*
X045028Y028017D01*
X045058Y027972D01*
X045104Y027941D01*
X045157Y02793D01*
X045211Y027941D01*
X045257Y027972D01*
X045287Y028017D01*
X045298Y028071D01*
X045287Y028125D01*
X045257Y02817D01*
X045211Y028201D01*
X045157Y028211D01*
D02*
G37*
G36*
X041183Y028056D02*
X04113Y028045D01*
X041084Y028015D01*
X041054Y027969D01*
X041043Y027916D01*
X041054Y027862D01*
X041084Y027816D01*
X04113Y027786D01*
X041183Y027775D01*
X041237Y027786D01*
X041283Y027816D01*
X041313Y027862D01*
X041324Y027916D01*
X041313Y027969D01*
X041283Y028015D01*
X041237Y028045D01*
X041183Y028056D01*
D02*
G37*
G36*
X053111Y028055D02*
X053058Y028044D01*
X053012Y028014D01*
X052982Y027968D01*
X052971Y027915D01*
X052982Y027861D01*
X053012Y027815D01*
X053058Y027785D01*
X053111Y027774D01*
X053165Y027785D01*
X053211Y027815D01*
X053241Y027861D01*
X053252Y027915D01*
X053241Y027968D01*
X053211Y028014D01*
X053165Y028044D01*
X053111Y028055D01*
D02*
G37*
G36*
X037323Y027662D02*
X037238Y027645D01*
X037167Y027597D01*
X037151Y027574D01*
X037101D01*
X037085Y027597D01*
X037014Y027645D01*
X036929Y027662D01*
X036845Y027645D01*
X036773Y027597D01*
X036725Y027525D01*
X036708Y027441D01*
X036725Y027356D01*
X036773Y027285D01*
X036797Y027269D01*
Y027219D01*
X036773Y027203D01*
X036725Y027132D01*
X036708Y027047D01*
X036725Y026963D01*
X036773Y026891D01*
X036797Y026875D01*
Y026825D01*
X036773Y02681D01*
X036725Y026738D01*
X036708Y026654D01*
X036725Y026569D01*
X036773Y026497D01*
X036845Y02645D01*
X036929Y026433D01*
X037014Y02645D01*
X037085Y026497D01*
X037101Y026521D01*
X037151D01*
X037167Y026497D01*
X037238Y02645D01*
X037323Y026433D01*
X037407Y02645D01*
X037479Y026497D01*
X037527Y026569D01*
X037544Y026654D01*
X037527Y026738D01*
X037479Y02681D01*
X037455Y026825D01*
Y026875D01*
X037479Y026891D01*
X037527Y026963D01*
X037544Y027047D01*
X037527Y027132D01*
X037479Y027203D01*
X037455Y027219D01*
Y027269D01*
X037479Y027285D01*
X037527Y027356D01*
X037544Y027441D01*
X037527Y027525D01*
X037479Y027597D01*
X037407Y027645D01*
X037323Y027662D01*
D02*
G37*
G36*
X055074Y0277D02*
X055021Y027689D01*
X054975Y027658D01*
X054945Y027613D01*
X054934Y027559D01*
X054945Y027505D01*
X054975Y02746D01*
X055021Y027429D01*
X055074Y027419D01*
X055128Y027429D01*
X055174Y02746D01*
X055204Y027505D01*
X055215Y027559D01*
X055204Y027613D01*
X055174Y027658D01*
X055128Y027689D01*
X055074Y0277D01*
D02*
G37*
G36*
X041181D02*
X041127Y027689D01*
X041082Y027658D01*
X041051Y027613D01*
X041041Y027559D01*
X041051Y027505D01*
X041082Y02746D01*
X041127Y027429D01*
X041181Y027419D01*
X041235Y027429D01*
X04128Y02746D01*
X041311Y027505D01*
X041322Y027559D01*
X041311Y027613D01*
X04128Y027658D01*
X041235Y027689D01*
X041181Y0277D01*
D02*
G37*
G36*
X050895Y027631D02*
X050841Y027621D01*
X050796Y02759D01*
X050765Y027545D01*
X050754Y027491D01*
X050765Y027437D01*
X050796Y027392D01*
X050841Y027361D01*
X050895Y02735D01*
X050949Y027361D01*
X050994Y027392D01*
X051025Y027437D01*
X051035Y027491D01*
X051025Y027545D01*
X050994Y02759D01*
X050949Y027621D01*
X050895Y027631D01*
D02*
G37*
G36*
X049579D02*
X049525Y027621D01*
X04948Y02759D01*
X049449Y027545D01*
X049439Y027491D01*
X049449Y027437D01*
X04948Y027392D01*
X049525Y027361D01*
X049579Y02735D01*
X049633Y027361D01*
X049679Y027392D01*
X049709Y027437D01*
X04972Y027491D01*
X049709Y027545D01*
X049679Y02759D01*
X049633Y027621D01*
X049579Y027631D01*
D02*
G37*
G36*
X053111Y027622D02*
X053058Y027611D01*
X053012Y027581D01*
X052982Y027535D01*
X052971Y027481D01*
X052982Y027428D01*
X053012Y027382D01*
X053058Y027352D01*
X053111Y027341D01*
X053165Y027352D01*
X053211Y027382D01*
X053241Y027428D01*
X053252Y027481D01*
X053241Y027535D01*
X053211Y027581D01*
X053165Y027611D01*
X053111Y027622D01*
D02*
G37*
G36*
X059413Y027497D02*
X059359Y027486D01*
X059314Y027456D01*
X059283Y02741D01*
X059272Y027357D01*
X059283Y027303D01*
X059314Y027257D01*
X059359Y027227D01*
X059413Y027216D01*
X059467Y027227D01*
X059512Y027257D01*
X059543Y027303D01*
X059553Y027357D01*
X059543Y02741D01*
X059512Y027456D01*
X059467Y027486D01*
X059413Y027497D01*
D02*
G37*
G36*
X052835Y027345D02*
X052781Y027335D01*
X052735Y027304D01*
X052705Y027258D01*
X052694Y027205D01*
X052705Y027151D01*
X052677Y027109D01*
X052623Y027098D01*
X052578Y027068D01*
X052547Y027022D01*
X052545Y027011D01*
X052494D01*
X052492Y027022D01*
X052462Y027068D01*
X052416Y027098D01*
X052362Y027109D01*
X052308Y027098D01*
X052263Y027068D01*
X052232Y027022D01*
X052222Y026969D01*
X052232Y026915D01*
X052263Y026869D01*
X052308Y026839D01*
X052362Y026828D01*
X052416Y026839D01*
X052462Y026869D01*
X052492Y026915D01*
X052494Y026926D01*
X052545D01*
X052547Y026915D01*
X052578Y026869D01*
X052623Y026839D01*
X052677Y026828D01*
X052731Y026839D01*
X052777Y026869D01*
X052807Y026915D01*
X052818Y026969D01*
X052807Y027022D01*
X052835Y027064D01*
X052888Y027075D01*
X052931Y027103D01*
X052944Y0271D01*
X052977Y02708D01*
X052971Y027048D01*
X052982Y026995D01*
X053012Y026949D01*
X053058Y026919D01*
X053111Y026908D01*
X053165Y026919D01*
X053211Y026949D01*
X053241Y026995D01*
X053252Y027048D01*
X053241Y027102D01*
X053211Y027148D01*
X053165Y027178D01*
X053111Y027189D01*
X053058Y027178D01*
X053015Y02715D01*
X053002Y027153D01*
X052969Y027173D01*
X052975Y027205D01*
X052964Y027258D01*
X052934Y027304D01*
X052888Y027335D01*
X052835Y027345D01*
D02*
G37*
G36*
X048268Y027237D02*
X048214Y027226D01*
X048168Y027196D01*
X048138Y02715D01*
X048127Y027096D01*
X048138Y027043D01*
X048168Y026997D01*
X048214Y026967D01*
X048268Y026956D01*
X048321Y026967D01*
X048367Y026997D01*
X048398Y027043D01*
X048408Y027096D01*
X048398Y02715D01*
X048367Y027196D01*
X048321Y027226D01*
X048268Y027237D01*
D02*
G37*
G36*
X056654Y026991D02*
X0566Y02698D01*
X056555Y02695D01*
X05651Y02698D01*
X056457Y026991D01*
X056403Y02698D01*
X056357Y02695D01*
X056327Y026904D01*
X056316Y02685D01*
X056327Y026797D01*
X056357Y026751D01*
X056403Y026721D01*
X056457Y02671D01*
X05651Y026721D01*
X056555Y02675D01*
X0566Y026721D01*
X056654Y02671D01*
X056707Y026721D01*
X056753Y026751D01*
X056783Y026797D01*
X056794Y02685D01*
X056783Y026904D01*
X056753Y02695D01*
X056707Y02698D01*
X056654Y026991D01*
D02*
G37*
G36*
X057313Y027307D02*
X057244Y027293D01*
X057185Y027254D01*
X057146Y027195D01*
X057132Y027126D01*
X057146Y027057D01*
X057185Y026998D01*
X057244Y026959D01*
X057313Y026945D01*
X057382Y026959D01*
X057441Y026998D01*
X05748Y027057D01*
X057494Y027126D01*
X05748Y027195D01*
X057441Y027254D01*
X057382Y027293D01*
X057313Y027307D01*
D02*
G37*
G36*
X046959Y027217D02*
X046905Y027207D01*
X046859Y027176D01*
X046829Y027131D01*
X046818Y027077D01*
X046829Y027023D01*
X046859Y026977D01*
X046905Y026947D01*
X046959Y026936D01*
X047012Y026947D01*
X047058Y026977D01*
X047088Y027023D01*
X047099Y027077D01*
X047088Y027131D01*
X047058Y027176D01*
X047012Y027207D01*
X046959Y027217D01*
D02*
G37*
G36*
X041183Y02719D02*
X04113Y027179D01*
X041084Y027149D01*
X041054Y027103D01*
X041043Y02705D01*
X041054Y026996D01*
X041084Y02695D01*
X04113Y02692D01*
X041183Y026909D01*
X041237Y02692D01*
X041283Y02695D01*
X041313Y026996D01*
X041324Y02705D01*
X041313Y027103D01*
X041283Y027149D01*
X041237Y027179D01*
X041183Y02719D01*
D02*
G37*
G36*
X033583Y027148D02*
X033529Y027138D01*
X033483Y027107D01*
X033453Y027062D01*
X033442Y027008D01*
X033453Y026954D01*
X033483Y026909D01*
X033529Y026878D01*
X033583Y026867D01*
X033636Y026878D01*
X033682Y026909D01*
X033712Y026954D01*
X033723Y027008D01*
X033712Y027062D01*
X033682Y027107D01*
X033636Y027138D01*
X033583Y027148D01*
D02*
G37*
G36*
X046308Y026989D02*
X046254Y026979D01*
X046208Y026948D01*
X046178Y026903D01*
X046167Y026849D01*
X046178Y026795D01*
X046208Y02675D01*
X046254Y026719D01*
X046308Y026708D01*
X046361Y026719D01*
X046407Y02675D01*
X046437Y026795D01*
X046448Y026849D01*
X046437Y026903D01*
X046407Y026948D01*
X046361Y026979D01*
X046308Y026989D01*
D02*
G37*
G36*
X045876Y026988D02*
X045822Y026977D01*
X045777Y026947D01*
X045746Y026901D01*
X045735Y026847D01*
X045746Y026794D01*
X045777Y026748D01*
X045822Y026718D01*
X045876Y026707D01*
X04593Y026718D01*
X045975Y026748D01*
X046006Y026794D01*
X046016Y026847D01*
X046006Y026901D01*
X045975Y026947D01*
X04593Y026977D01*
X045876Y026988D01*
D02*
G37*
G36*
X059467Y026836D02*
X059382Y026819D01*
X059311Y026771D01*
X059263Y026699D01*
X059246Y026615D01*
X059263Y02653D01*
X059311Y026459D01*
X059382Y026411D01*
X059467Y026394D01*
X059551Y026411D01*
X059623Y026459D01*
X059671Y02653D01*
X059688Y026615D01*
X059671Y026699D01*
X059623Y026771D01*
X059551Y026819D01*
X059467Y026836D01*
D02*
G37*
G36*
X059026Y026666D02*
X058972Y026655D01*
X058926Y026625D01*
X058896Y026579D01*
X058885Y026526D01*
X058896Y026472D01*
X058926Y026426D01*
X058972Y026396D01*
X059026Y026385D01*
X059079Y026396D01*
X059125Y026426D01*
X059155Y026472D01*
X059166Y026526D01*
X059155Y026579D01*
X059125Y026625D01*
X059079Y026655D01*
X059026Y026666D01*
D02*
G37*
G36*
X057157Y026635D02*
X057104Y026624D01*
X057058Y026593D01*
X057028Y026548D01*
X057017Y026494D01*
X057028Y02644D01*
X057058Y026395D01*
X057104Y026364D01*
X057157Y026354D01*
X057211Y026364D01*
X057257Y026395D01*
X057287Y02644D01*
X057289Y026448D01*
X05734D01*
X057343Y026433D01*
X057373Y026388D01*
X057419Y026357D01*
X057472Y026346D01*
X057526Y026357D01*
X057572Y026388D01*
X057602Y026433D01*
X057604Y026444D01*
X057655D01*
X057658Y026433D01*
X057688Y026388D01*
X057734Y026357D01*
X057787Y026346D01*
X057841Y026357D01*
X057887Y026388D01*
X057917Y026433D01*
X057928Y026487D01*
X057917Y026541D01*
X057887Y026586D01*
X057841Y026617D01*
X057787Y026627D01*
X057734Y026617D01*
X057688Y026586D01*
X057658Y026541D01*
X057655Y02653D01*
X057604D01*
X057602Y026541D01*
X057572Y026586D01*
X057526Y026617D01*
X057472Y026627D01*
X057419Y026617D01*
X057373Y026586D01*
X057343Y026541D01*
X057341Y026533D01*
X05729D01*
X057287Y026548D01*
X057257Y026593D01*
X057211Y026624D01*
X057157Y026635D01*
D02*
G37*
G36*
X029724Y026597D02*
X029671Y026586D01*
X029625Y026556D01*
X029595Y02651D01*
X029584Y026457D01*
X029595Y026403D01*
X029625Y026357D01*
X029671Y026327D01*
X029724Y026316D01*
X029778Y026327D01*
X029824Y026357D01*
X029854Y026403D01*
X029865Y026457D01*
X029854Y02651D01*
X029824Y026556D01*
X029778Y026586D01*
X029724Y026597D01*
D02*
G37*
G36*
X058526Y026487D02*
X058472Y026476D01*
X058426Y026446D01*
X058396Y0264D01*
X058385Y026346D01*
X058396Y026293D01*
X058426Y026247D01*
X058472Y026217D01*
X058526Y026206D01*
X058579Y026217D01*
X058625Y026247D01*
X058655Y026293D01*
X058666Y026346D01*
X058655Y0264D01*
X058625Y026446D01*
X058579Y026476D01*
X058526Y026487D01*
D02*
G37*
G36*
X041585Y0264D02*
X041531Y02639D01*
X041485Y026359D01*
X041455Y026314D01*
X041444Y02626D01*
X041455Y026206D01*
X041485Y026161D01*
X041531Y02613D01*
X041585Y026119D01*
X041638Y02613D01*
X041684Y026161D01*
X041714Y026206D01*
X041725Y02626D01*
X041714Y026314D01*
X041684Y026359D01*
X041638Y02639D01*
X041585Y0264D01*
D02*
G37*
G36*
X051937Y026147D02*
X051884Y026136D01*
X051838Y026106D01*
X051808Y02606D01*
X051797Y026006D01*
X051808Y025952D01*
X051838Y025907D01*
X051884Y025876D01*
X051937Y025866D01*
X051991Y025876D01*
X052037Y025907D01*
X052067Y025952D01*
X052078Y026006D01*
X052067Y02606D01*
X052037Y026106D01*
X051991Y026136D01*
X051937Y026147D01*
D02*
G37*
G36*
X051504D02*
X051451Y026136D01*
X051405Y026106D01*
X051375Y02606D01*
X051364Y026006D01*
X051375Y025952D01*
X051405Y025907D01*
X051451Y025876D01*
X051504Y025866D01*
X051558Y025876D01*
X051604Y025907D01*
X051634Y025952D01*
X051645Y026006D01*
X051634Y02606D01*
X051604Y026106D01*
X051558Y026136D01*
X051504Y026147D01*
D02*
G37*
G36*
X051071D02*
X051018Y026136D01*
X050972Y026106D01*
X050942Y02606D01*
X050931Y026006D01*
X050942Y025952D01*
X050972Y025907D01*
X051018Y025876D01*
X051071Y025866D01*
X051125Y025876D01*
X051171Y025907D01*
X051201Y025952D01*
X051212Y026006D01*
X051201Y02606D01*
X051171Y026106D01*
X051125Y026136D01*
X051071Y026147D01*
D02*
G37*
G36*
X050638D02*
X050585Y026136D01*
X050539Y026106D01*
X050508Y02606D01*
X050498Y026006D01*
X050508Y025952D01*
X050539Y025907D01*
X050585Y025876D01*
X050638Y025866D01*
X050692Y025876D01*
X050738Y025907D01*
X050768Y025952D01*
X050779Y026006D01*
X050768Y02606D01*
X050738Y026106D01*
X050692Y026136D01*
X050638Y026147D01*
D02*
G37*
G36*
X050205D02*
X050151Y026136D01*
X050106Y026106D01*
X050075Y02606D01*
X050065Y026006D01*
X050075Y025952D01*
X050106Y025907D01*
X050151Y025876D01*
X050205Y025866D01*
X050259Y025876D01*
X050305Y025907D01*
X050335Y025952D01*
X050346Y026006D01*
X050335Y02606D01*
X050305Y026106D01*
X050259Y026136D01*
X050205Y026147D01*
D02*
G37*
G36*
X049772D02*
X049718Y026136D01*
X049673Y026106D01*
X049642Y02606D01*
X049632Y026006D01*
X049642Y025952D01*
X049673Y025907D01*
X049718Y025876D01*
X049772Y025866D01*
X049826Y025876D01*
X049871Y025907D01*
X049902Y025952D01*
X049913Y026006D01*
X049902Y02606D01*
X049871Y026106D01*
X049826Y026136D01*
X049772Y026147D01*
D02*
G37*
G36*
X049339D02*
X049285Y026136D01*
X04924Y026106D01*
X049209Y02606D01*
X049199Y026006D01*
X049209Y025952D01*
X04924Y025907D01*
X049285Y025876D01*
X049339Y025866D01*
X049393Y025876D01*
X049438Y025907D01*
X049469Y025952D01*
X04948Y026006D01*
X049469Y02606D01*
X049438Y026106D01*
X049393Y026136D01*
X049339Y026147D01*
D02*
G37*
G36*
X048906D02*
X048852Y026136D01*
X048807Y026106D01*
X048776Y02606D01*
X048765Y026006D01*
X048776Y025952D01*
X048807Y025907D01*
X048852Y025876D01*
X048906Y025866D01*
X04896Y025876D01*
X049005Y025907D01*
X049036Y025952D01*
X049046Y026006D01*
X049036Y02606D01*
X049005Y026106D01*
X04896Y026136D01*
X048906Y026147D01*
D02*
G37*
G36*
X048473D02*
X048419Y026136D01*
X048374Y026106D01*
X048343Y02606D01*
X048332Y026006D01*
X048343Y025952D01*
X048374Y025907D01*
X048419Y025876D01*
X048473Y025866D01*
X048527Y025876D01*
X048572Y025907D01*
X048603Y025952D01*
X048613Y026006D01*
X048603Y02606D01*
X048572Y026106D01*
X048527Y026136D01*
X048473Y026147D01*
D02*
G37*
G36*
X04804D02*
X047986Y026136D01*
X047941Y026106D01*
X04791Y02606D01*
X047899Y026006D01*
X04791Y025952D01*
X047941Y025907D01*
X047986Y025876D01*
X04804Y025866D01*
X048094Y025876D01*
X048139Y025907D01*
X04817Y025952D01*
X04818Y026006D01*
X04817Y02606D01*
X048139Y026106D01*
X048094Y026136D01*
X04804Y026147D01*
D02*
G37*
G36*
X047607D02*
X047553Y026136D01*
X047507Y026106D01*
X047477Y02606D01*
X047466Y026006D01*
X047477Y025952D01*
X047507Y025907D01*
X047553Y025876D01*
X047607Y025866D01*
X047661Y025876D01*
X047706Y025907D01*
X047737Y025952D01*
X047747Y026006D01*
X047737Y02606D01*
X047706Y026106D01*
X047661Y026136D01*
X047607Y026147D01*
D02*
G37*
G36*
X047174D02*
X04712Y026136D01*
X047074Y026106D01*
X047044Y02606D01*
X047033Y026006D01*
X047044Y025952D01*
X047074Y025907D01*
X04712Y025876D01*
X047174Y025866D01*
X047227Y025876D01*
X047273Y025907D01*
X047304Y025952D01*
X047314Y026006D01*
X047304Y02606D01*
X047273Y026106D01*
X047227Y026136D01*
X047174Y026147D01*
D02*
G37*
G36*
X046741D02*
X046687Y026136D01*
X046641Y026106D01*
X046611Y02606D01*
X0466Y026006D01*
X046611Y025952D01*
X046641Y025907D01*
X046687Y025876D01*
X046741Y025866D01*
X046794Y025876D01*
X04684Y025907D01*
X04687Y025952D01*
X046881Y026006D01*
X04687Y02606D01*
X04684Y026106D01*
X046794Y026136D01*
X046741Y026147D01*
D02*
G37*
G36*
X045441D02*
X045388Y026136D01*
X045342Y026106D01*
X045312Y02606D01*
X045301Y026006D01*
X045312Y025952D01*
X045342Y025907D01*
X045388Y025876D01*
X045441Y025866D01*
X045495Y025876D01*
X045541Y025907D01*
X045571Y025952D01*
X045582Y026006D01*
X045571Y02606D01*
X045541Y026106D01*
X045495Y026136D01*
X045441Y026147D01*
D02*
G37*
G36*
X044575D02*
X044522Y026136D01*
X044476Y026106D01*
X044445Y02606D01*
X044435Y026006D01*
X044445Y025952D01*
X044476Y025907D01*
X044522Y025876D01*
X044575Y025866D01*
X044629Y025876D01*
X044675Y025907D01*
X044705Y025952D01*
X044716Y026006D01*
X044705Y02606D01*
X044675Y026106D01*
X044629Y026136D01*
X044575Y026147D01*
D02*
G37*
G36*
X04241D02*
X042356Y026136D01*
X042311Y026106D01*
X04228Y02606D01*
X042269Y026006D01*
X04228Y025952D01*
X042311Y025907D01*
X042356Y025876D01*
X04241Y025866D01*
X042464Y025876D01*
X042509Y025907D01*
X04254Y025952D01*
X04255Y026006D01*
X04254Y02606D01*
X042509Y026106D01*
X042464Y026136D01*
X04241Y026147D01*
D02*
G37*
G36*
X042992Y026056D02*
X042938Y026045D01*
X042893Y026015D01*
X042862Y025969D01*
X042852Y025915D01*
X042862Y025862D01*
X042893Y025816D01*
X042938Y025786D01*
X042992Y025775D01*
X043046Y025786D01*
X043091Y025816D01*
X043122Y025862D01*
X043133Y025915D01*
X043122Y025969D01*
X043091Y026015D01*
X043046Y026045D01*
X042992Y026056D01*
D02*
G37*
G36*
X046079Y025873D02*
X046025Y025862D01*
X045979Y025832D01*
X045949Y025786D01*
X045938Y025732D01*
X045949Y025679D01*
X045979Y025633D01*
X046025Y025602D01*
X046079Y025592D01*
X046133Y025602D01*
X046178Y025633D01*
X046209Y025679D01*
X046219Y025732D01*
X046209Y025786D01*
X046178Y025832D01*
X046133Y025862D01*
X046079Y025873D01*
D02*
G37*
G36*
X044843Y02581D02*
X044789Y025799D01*
X044743Y025769D01*
X044713Y025723D01*
X044702Y025669D01*
X044713Y025616D01*
X044743Y02557D01*
X044789Y025539D01*
X044843Y025529D01*
X044896Y025539D01*
X044942Y02557D01*
X044972Y025616D01*
X044983Y025669D01*
X044972Y025723D01*
X044942Y025769D01*
X044896Y025799D01*
X044843Y02581D01*
D02*
G37*
G36*
X032314Y025309D02*
X032229Y025292D01*
X032158Y025244D01*
X0321Y025247D01*
X032041Y025287D01*
X031956Y025303D01*
X031872Y025287D01*
X0318Y025239D01*
X031752Y025167D01*
X031735Y025083D01*
X031752Y024998D01*
X0318Y024927D01*
X031872Y024879D01*
X031872Y024879D01*
X031878Y024843D01*
X031877Y024827D01*
X031809Y024782D01*
X031761Y02471D01*
X031744Y024625D01*
X031761Y024541D01*
X031809Y024469D01*
X031881Y024421D01*
X031965Y024405D01*
X03205Y024421D01*
X032121Y024469D01*
X032179Y024466D01*
X032238Y024427D01*
X032323Y02441D01*
X032407Y024427D01*
X032479Y024475D01*
X032527Y024546D01*
X032544Y024631D01*
X032527Y024715D01*
X032479Y024787D01*
X032407Y024835D01*
X032407Y024835D01*
X032401Y024871D01*
X032402Y024887D01*
X03247Y024932D01*
X032518Y025003D01*
X032535Y025088D01*
X032518Y025172D01*
X03247Y025244D01*
X032398Y025292D01*
X032314Y025309D01*
D02*
G37*
G36*
X047815Y025465D02*
X047761Y025455D01*
X047716Y025424D01*
X047685Y025379D01*
X047675Y025325D01*
X047685Y025271D01*
X047716Y025225D01*
X047761Y025195D01*
X047815Y025184D01*
X047869Y025195D01*
X047914Y025225D01*
X047945Y025271D01*
X047955Y025325D01*
X047945Y025379D01*
X047914Y025424D01*
X047869Y025455D01*
X047815Y025465D01*
D02*
G37*
G36*
X049695Y025436D02*
X049641Y025425D01*
X049596Y025395D01*
X049565Y025349D01*
X049554Y025295D01*
X049565Y025242D01*
X049596Y025196D01*
X049641Y025165D01*
X049695Y025155D01*
X049749Y025165D01*
X049794Y025196D01*
X049825Y025242D01*
X049835Y025295D01*
X049825Y025349D01*
X049794Y025395D01*
X049749Y025425D01*
X049695Y025436D01*
D02*
G37*
G36*
X041693Y024698D02*
X041639Y024687D01*
X041594Y024656D01*
X041563Y024611D01*
X041552Y024557D01*
X041563Y024503D01*
X041594Y024458D01*
X041639Y024427D01*
X041693Y024417D01*
X041747Y024427D01*
X041792Y024458D01*
X041823Y024503D01*
X041833Y024557D01*
X041823Y024611D01*
X041792Y024656D01*
X041747Y024687D01*
X041693Y024698D01*
D02*
G37*
G36*
X048012Y024668D02*
X047958Y024657D01*
X047912Y024627D01*
X047882Y024581D01*
X047871Y024528D01*
X047882Y024474D01*
X047912Y024428D01*
X047958Y024398D01*
X048012Y024387D01*
X048066Y024398D01*
X048111Y024428D01*
X048142Y024474D01*
X048152Y024528D01*
X048142Y024581D01*
X048111Y024627D01*
X048066Y024657D01*
X048012Y024668D01*
D02*
G37*
G36*
X046614Y024481D02*
X04656Y02447D01*
X046515Y02444D01*
X046484Y024394D01*
X046477Y024356D01*
X046439Y024334D01*
X046425Y024331D01*
X046422Y024333D01*
X046368Y024343D01*
X046314Y024333D01*
X046269Y024302D01*
X046238Y024257D01*
X046228Y024203D01*
X046238Y024149D01*
X046269Y024103D01*
X046314Y024073D01*
X046368Y024062D01*
X046422Y024073D01*
X046467Y024103D01*
X046498Y024149D01*
X046506Y024187D01*
X046543Y02421D01*
X046558Y024213D01*
X04656Y024211D01*
X046614Y0242D01*
X046668Y024211D01*
X046714Y024241D01*
X046744Y024287D01*
X046755Y024341D01*
X046744Y024394D01*
X046714Y02444D01*
X046668Y02447D01*
X046614Y024481D01*
D02*
G37*
G36*
X044449Y024471D02*
X044395Y024461D01*
X044349Y02443D01*
X044319Y024384D01*
X044308Y024331D01*
X044311Y024319D01*
X044277Y024282D01*
X044227D01*
X044193Y024319D01*
X044196Y024331D01*
X044185Y024384D01*
X044154Y02443D01*
X044109Y024461D01*
X044055Y024471D01*
X044001Y024461D01*
X043956Y02443D01*
X043925Y024384D01*
X043915Y024331D01*
X043925Y024277D01*
X043956Y024231D01*
X044001Y024201D01*
X044055Y02419D01*
X044072Y024194D01*
X044115Y024151D01*
X044111Y024134D01*
X044122Y02408D01*
X044153Y024035D01*
X044198Y024004D01*
X044252Y023993D01*
X044306Y024004D01*
X044351Y024035D01*
X044382Y02408D01*
X044392Y024134D01*
X044389Y024151D01*
X044432Y024194D01*
X044449Y02419D01*
X044503Y024201D01*
X044548Y024231D01*
X044579Y024277D01*
X044589Y024331D01*
X044579Y024384D01*
X044548Y02443D01*
X044503Y024461D01*
X044449Y024471D01*
D02*
G37*
G36*
X039213Y024433D02*
X039128Y024417D01*
X039056Y024369D01*
X039009Y024297D01*
X038992Y024213D01*
X039009Y024128D01*
X039056Y024056D01*
X039128Y024009D01*
X039213Y023992D01*
X039297Y024009D01*
X039369Y024056D01*
X039417Y024128D01*
X039433Y024213D01*
X039417Y024297D01*
X039369Y024369D01*
X039297Y024417D01*
X039213Y024433D01*
D02*
G37*
G36*
X043199Y024383D02*
X043145Y024372D01*
X043099Y024341D01*
X043069Y024296D01*
X043058Y024242D01*
X043018Y024187D01*
X043007Y024185D01*
X042962Y024154D01*
X042931Y024109D01*
X042921Y024055D01*
X042931Y024001D01*
X042962Y023956D01*
X043007Y023925D01*
X043061Y023915D01*
X043115Y023925D01*
X04316Y023956D01*
X043191Y024001D01*
X043202Y024055D01*
X043242Y02411D01*
X043253Y024112D01*
X043298Y024143D01*
X043329Y024188D01*
X043339Y024242D01*
X043329Y024296D01*
X043298Y024341D01*
X043253Y024372D01*
X043199Y024383D01*
D02*
G37*
G36*
X045856Y024146D02*
X045803Y024136D01*
X045757Y024105D01*
X045726Y02406D01*
X045716Y024006D01*
X045726Y023952D01*
X045757Y023907D01*
X045803Y023876D01*
X045856Y023865D01*
X04591Y023876D01*
X045956Y023907D01*
X045986Y023952D01*
X045997Y024006D01*
X045986Y02406D01*
X045956Y024105D01*
X04591Y024136D01*
X045856Y024146D01*
D02*
G37*
G36*
X039528Y023802D02*
X039474Y023791D01*
X039428Y023761D01*
X039398Y023715D01*
X039387Y023661D01*
X039398Y023608D01*
X039428Y023562D01*
X039474Y023532D01*
X039528Y023521D01*
X039581Y023532D01*
X039627Y023562D01*
X039657Y023608D01*
X039668Y023661D01*
X039657Y023715D01*
X039627Y023761D01*
X039581Y023791D01*
X039528Y023802D01*
D02*
G37*
G36*
X043524Y023467D02*
X04347Y023457D01*
X043424Y023426D01*
X043394Y023381D01*
X043383Y023327D01*
X043394Y023273D01*
X043424Y023227D01*
X04347Y023197D01*
X043524Y023186D01*
X043577Y023197D01*
X043623Y023227D01*
X043653Y023273D01*
X043664Y023327D01*
X043653Y023381D01*
X043623Y023426D01*
X043577Y023457D01*
X043524Y023467D01*
D02*
G37*
G36*
X045984Y023054D02*
X04593Y023043D01*
X045885Y023013D01*
X045854Y022967D01*
X045844Y022913D01*
X045854Y02286D01*
X045885Y022814D01*
X04593Y022784D01*
X045984Y022773D01*
X046038Y022784D01*
X046084Y022814D01*
X046114Y02286D01*
X046125Y022913D01*
X046114Y022967D01*
X046084Y023013D01*
X046038Y023043D01*
X045984Y023054D01*
D02*
G37*
G36*
X052323Y023211D02*
X052269Y023201D01*
X052223Y02317D01*
X052193Y023125D01*
X052182Y023071D01*
X052193Y023017D01*
X052223Y022972D01*
Y022934D01*
X052193Y022888D01*
X052182Y022835D01*
X052193Y022781D01*
X052223Y022735D01*
X052269Y022705D01*
X052323Y022694D01*
X052377Y022705D01*
X052422Y022735D01*
X052453Y022781D01*
X052463Y022835D01*
X052453Y022888D01*
X052422Y022934D01*
Y022972D01*
X052453Y023017D01*
X052463Y023071D01*
X052453Y023125D01*
X052422Y02317D01*
X052377Y023201D01*
X052323Y023211D01*
D02*
G37*
G36*
X061594Y023192D02*
X061541Y023181D01*
X061495Y023151D01*
X061465Y023105D01*
X061454Y023051D01*
X061465Y022997D01*
X061495Y022952D01*
Y022914D01*
X061465Y022869D01*
X061454Y022815D01*
X061465Y022761D01*
X061495Y022716D01*
X061541Y022685D01*
X061594Y022674D01*
X061648Y022685D01*
X061694Y022716D01*
X061724Y022761D01*
X061735Y022815D01*
X061724Y022869D01*
X061694Y022914D01*
Y022952D01*
X061724Y022997D01*
X061735Y023051D01*
X061724Y023105D01*
X061694Y023151D01*
X061648Y023181D01*
X061594Y023192D01*
D02*
G37*
G36*
X029488Y022778D02*
X029434Y022768D01*
X029389Y022737D01*
X029358Y022692D01*
X029348Y022638D01*
X029358Y022584D01*
X029389Y022538D01*
X029434Y022508D01*
X029488Y022497D01*
X029542Y022508D01*
X029588Y022538D01*
X029618Y022584D01*
X029629Y022638D01*
X029618Y022692D01*
X029588Y022737D01*
X029542Y022768D01*
X029488Y022778D01*
D02*
G37*
G36*
X030787Y022719D02*
X030734Y022709D01*
X030688Y022678D01*
X030658Y022633D01*
X030647Y022579D01*
X030658Y022525D01*
X030687Y02248D01*
X030658Y022436D01*
X030647Y022382D01*
X030658Y022328D01*
X030688Y022283D01*
X030734Y022252D01*
X030787Y022241D01*
X030841Y022252D01*
X030887Y022283D01*
X030917Y022328D01*
X030928Y022382D01*
X030917Y022436D01*
X030887Y02248D01*
X030917Y022525D01*
X030928Y022579D01*
X030917Y022633D01*
X030887Y022678D01*
X030841Y022709D01*
X030787Y022719D01*
D02*
G37*
G36*
X042185Y024009D02*
X042131Y023998D01*
X042086Y023967D01*
X042055Y023922D01*
X042045Y023868D01*
X042055Y023814D01*
X042086Y023769D01*
X042098Y02376D01*
Y0237D01*
X042086Y023692D01*
X042055Y023646D01*
X042045Y023593D01*
X042055Y023539D01*
X042086Y023493D01*
X042098Y023485D01*
Y023425D01*
X042086Y023416D01*
X042055Y023371D01*
X042045Y023317D01*
X042055Y023263D01*
X042086Y023218D01*
X042098Y023209D01*
Y023149D01*
X042086Y023141D01*
X042055Y023095D01*
X042045Y023041D01*
X042055Y022988D01*
X042086Y022942D01*
X042098Y022934D01*
Y022873D01*
X042086Y022865D01*
X042055Y02282D01*
X042045Y022766D01*
X042055Y022712D01*
X042086Y022666D01*
X042107Y022652D01*
Y022594D01*
X042086Y02258D01*
X042055Y022534D01*
X042045Y02248D01*
X042055Y022427D01*
X042086Y022381D01*
X042123Y022356D01*
X042164Y022327D01*
X042153Y022274D01*
X042164Y02222D01*
X042194Y022174D01*
X04224Y022144D01*
X042293Y022133D01*
X042347Y022144D01*
X042393Y022174D01*
X042423Y02222D01*
X042434Y022274D01*
X042423Y022327D01*
X042393Y022373D01*
X042356Y022398D01*
X042315Y022427D01*
X042326Y02248D01*
X042315Y022534D01*
X042284Y02258D01*
X042263Y022594D01*
Y022652D01*
X042284Y022666D01*
X042315Y022712D01*
X042326Y022766D01*
X042315Y02282D01*
X042284Y022865D01*
X042272Y022873D01*
Y022934D01*
X042284Y022942D01*
X042315Y022988D01*
X042326Y023041D01*
X042315Y023095D01*
X042284Y023141D01*
X042272Y023149D01*
Y023209D01*
X042284Y023218D01*
X042315Y023263D01*
X042326Y023317D01*
X042315Y023371D01*
X042284Y023416D01*
X042272Y023425D01*
Y023485D01*
X042284Y023493D01*
X042315Y023539D01*
X042326Y023593D01*
X042315Y023646D01*
X042284Y023692D01*
X042272Y0237D01*
Y02376D01*
X042284Y023769D01*
X042315Y023814D01*
X042326Y023868D01*
X042315Y023922D01*
X042284Y023967D01*
X042239Y023998D01*
X042185Y024009D01*
D02*
G37*
G36*
X045984Y022266D02*
X04593Y022256D01*
X045885Y022225D01*
X045854Y02218D01*
X045844Y022126D01*
X045854Y022072D01*
X045885Y022027D01*
X04593Y021996D01*
X045984Y021985D01*
X046038Y021996D01*
X046084Y022027D01*
X046114Y022072D01*
X046125Y022126D01*
X046114Y02218D01*
X046084Y022225D01*
X046038Y022256D01*
X045984Y022266D01*
D02*
G37*
G36*
X062407Y022601D02*
X062314Y022589D01*
X062226Y022553D01*
X062151Y022495D01*
X062094Y02242D01*
X062057Y022333D01*
X062045Y022239D01*
X062057Y022145D01*
X062094Y022058D01*
X062151Y021983D01*
X062226Y021925D01*
X062314Y021889D01*
X062407Y021877D01*
X062501Y021889D01*
X062588Y021925D01*
X062663Y021983D01*
X062721Y022058D01*
X062757Y022145D01*
X062769Y022239D01*
X062757Y022333D01*
X062721Y02242D01*
X062663Y022495D01*
X062588Y022553D01*
X062501Y022589D01*
X062407Y022601D01*
D02*
G37*
G36*
X061607D02*
X061514Y022589D01*
X061426Y022553D01*
X061351Y022495D01*
X061294Y02242D01*
X061257Y022333D01*
X061245Y022239D01*
X061257Y022145D01*
X061294Y022058D01*
X061351Y021983D01*
X061426Y021925D01*
X061514Y021889D01*
X061607Y021877D01*
X061701Y021889D01*
X061788Y021925D01*
X061863Y021983D01*
X061921Y022058D01*
X061957Y022145D01*
X061969Y022239D01*
X061957Y022333D01*
X061921Y02242D01*
X061863Y022495D01*
X061788Y022553D01*
X061701Y022589D01*
X061607Y022601D01*
D02*
G37*
G36*
X060807D02*
X060714Y022589D01*
X060626Y022553D01*
X060551Y022495D01*
X060494Y02242D01*
X060457Y022333D01*
X060445Y022239D01*
X060457Y022145D01*
X060494Y022058D01*
X060551Y021983D01*
X060626Y021925D01*
X060714Y021889D01*
X060807Y021877D01*
X060901Y021889D01*
X060988Y021925D01*
X061063Y021983D01*
X061121Y022058D01*
X061157Y022145D01*
X061169Y022239D01*
X061157Y022333D01*
X061121Y02242D01*
X061063Y022495D01*
X060988Y022553D01*
X060901Y022589D01*
X060807Y022601D01*
D02*
G37*
G36*
X059207D02*
X059114Y022589D01*
X059026Y022553D01*
X058951Y022495D01*
X058894Y02242D01*
X058857Y022333D01*
X058845Y022239D01*
X058857Y022145D01*
X058894Y022058D01*
X058951Y021983D01*
X059026Y021925D01*
X059114Y021889D01*
X059207Y021877D01*
X059301Y021889D01*
X059388Y021925D01*
X059463Y021983D01*
X059521Y022058D01*
X059557Y022145D01*
X059569Y022239D01*
X059557Y022333D01*
X059521Y02242D01*
X059463Y022495D01*
X059388Y022553D01*
X059301Y022589D01*
X059207Y022601D01*
D02*
G37*
G36*
X058407D02*
X058314Y022589D01*
X058226Y022553D01*
X058151Y022495D01*
X058094Y02242D01*
X058057Y022333D01*
X058045Y022239D01*
X058057Y022145D01*
X058094Y022058D01*
X058151Y021983D01*
X058226Y021925D01*
X058314Y021889D01*
X058407Y021877D01*
X058501Y021889D01*
X058588Y021925D01*
X058663Y021983D01*
X058721Y022058D01*
X058757Y022145D01*
X058769Y022239D01*
X058757Y022333D01*
X058721Y02242D01*
X058663Y022495D01*
X058588Y022553D01*
X058501Y022589D01*
X058407Y022601D01*
D02*
G37*
G36*
X057607D02*
X057514Y022589D01*
X057426Y022553D01*
X057351Y022495D01*
X057294Y02242D01*
X057257Y022333D01*
X057245Y022239D01*
X057257Y022145D01*
X057294Y022058D01*
X057351Y021983D01*
X057426Y021925D01*
X057514Y021889D01*
X057607Y021877D01*
X057701Y021889D01*
X057788Y021925D01*
X057863Y021983D01*
X057921Y022058D01*
X057957Y022145D01*
X057969Y022239D01*
X057957Y022333D01*
X057921Y02242D01*
X057863Y022495D01*
X057788Y022553D01*
X057701Y022589D01*
X057607Y022601D01*
D02*
G37*
G36*
X053187D02*
X053094Y022589D01*
X053006Y022553D01*
X052931Y022495D01*
X052874Y02242D01*
X052838Y022333D01*
X052825Y022239D01*
X052838Y022145D01*
X052874Y022058D01*
X052931Y021983D01*
X053006Y021925D01*
X053094Y021889D01*
X053187Y021877D01*
X053281Y021889D01*
X053368Y021925D01*
X053443Y021983D01*
X053501Y022058D01*
X053537Y022145D01*
X05355Y022239D01*
X053537Y022333D01*
X053501Y02242D01*
X053443Y022495D01*
X053368Y022553D01*
X053281Y022589D01*
X053187Y022601D01*
D02*
G37*
G36*
X052387D02*
X052294Y022589D01*
X052206Y022553D01*
X052131Y022495D01*
X052074Y02242D01*
X052038Y022333D01*
X052025Y022239D01*
X052038Y022145D01*
X052074Y022058D01*
X052131Y021983D01*
X052206Y021925D01*
X052294Y021889D01*
X052387Y021877D01*
X052481Y021889D01*
X052568Y021925D01*
X052643Y021983D01*
X052701Y022058D01*
X052737Y022145D01*
X05275Y022239D01*
X052737Y022333D01*
X052701Y02242D01*
X052643Y022495D01*
X052568Y022553D01*
X052481Y022589D01*
X052387Y022601D01*
D02*
G37*
G36*
X051587D02*
X051494Y022589D01*
X051406Y022553D01*
X051331Y022495D01*
X051274Y02242D01*
X051238Y022333D01*
X051225Y022239D01*
X051238Y022145D01*
X051274Y022058D01*
X051331Y021983D01*
X051406Y021925D01*
X051494Y021889D01*
X051587Y021877D01*
X051681Y021889D01*
X051768Y021925D01*
X051843Y021983D01*
X051901Y022058D01*
X051937Y022145D01*
X05195Y022239D01*
X051937Y022333D01*
X051901Y02242D01*
X051843Y022495D01*
X051768Y022553D01*
X051681Y022589D01*
X051587Y022601D01*
D02*
G37*
G36*
X049987D02*
X049894Y022589D01*
X049806Y022553D01*
X049731Y022495D01*
X049674Y02242D01*
X049638Y022333D01*
X049625Y022239D01*
X049638Y022145D01*
X049674Y022058D01*
X049731Y021983D01*
X049806Y021925D01*
X049894Y021889D01*
X049987Y021877D01*
X050081Y021889D01*
X050168Y021925D01*
X050243Y021983D01*
X050301Y022058D01*
X050337Y022145D01*
X05035Y022239D01*
X050337Y022333D01*
X050301Y02242D01*
X050243Y022495D01*
X050168Y022553D01*
X050081Y022589D01*
X049987Y022601D01*
D02*
G37*
G36*
X049187D02*
X049094Y022589D01*
X049006Y022553D01*
X048931Y022495D01*
X048874Y02242D01*
X048838Y022333D01*
X048825Y022239D01*
X048838Y022145D01*
X048874Y022058D01*
X048931Y021983D01*
X049006Y021925D01*
X049094Y021889D01*
X049187Y021877D01*
X049281Y021889D01*
X049368Y021925D01*
X049443Y021983D01*
X049501Y022058D01*
X049537Y022145D01*
X04955Y022239D01*
X049537Y022333D01*
X049501Y02242D01*
X049443Y022495D01*
X049368Y022553D01*
X049281Y022589D01*
X049187Y022601D01*
D02*
G37*
G36*
X048387D02*
X048294Y022589D01*
X048206Y022553D01*
X048131Y022495D01*
X048074Y02242D01*
X048038Y022333D01*
X048025Y022239D01*
X048038Y022145D01*
X048074Y022058D01*
X048131Y021983D01*
X048206Y021925D01*
X048294Y021889D01*
X048387Y021877D01*
X048481Y021889D01*
X048568Y021925D01*
X048643Y021983D01*
X048701Y022058D01*
X048737Y022145D01*
X04875Y022239D01*
X048737Y022333D01*
X048701Y02242D01*
X048643Y022495D01*
X048568Y022553D01*
X048481Y022589D01*
X048387Y022601D01*
D02*
G37*
G36*
X043395Y022287D02*
X043341Y022277D01*
X043296Y022246D01*
X043265Y022201D01*
X043255Y022147D01*
X043265Y022093D01*
X043279Y022073D01*
X043286Y022019D01*
X043256Y021973D01*
X043245Y021919D01*
X043256Y021866D01*
X043286Y02182D01*
X043332Y021789D01*
X043386Y021779D01*
X04344Y021789D01*
X043485Y02182D01*
X043516Y021866D01*
X043526Y021919D01*
X043516Y021973D01*
X043502Y021993D01*
X043495Y022048D01*
X043525Y022093D01*
X043536Y022147D01*
X043525Y022201D01*
X043495Y022246D01*
X043449Y022277D01*
X043395Y022287D01*
D02*
G37*
G36*
X041772Y022058D02*
X041718Y022047D01*
X041672Y022017D01*
X041642Y021971D01*
X041631Y021917D01*
X041642Y021864D01*
X041672Y021818D01*
X041718Y021787D01*
X041772Y021777D01*
X041825Y021787D01*
X041871Y021818D01*
X041901Y021864D01*
X041912Y021917D01*
X041901Y021971D01*
X041871Y022017D01*
X041825Y022047D01*
X041772Y022058D01*
D02*
G37*
G36*
X05998Y022139D02*
X059927Y022128D01*
X059881Y022097D01*
X059851Y022052D01*
X05984Y021998D01*
X059851Y021944D01*
X059881Y021899D01*
Y021861D01*
X059851Y021816D01*
X05984Y021762D01*
X059851Y021708D01*
X059881Y021662D01*
X059927Y021632D01*
X05998Y021621D01*
X060034Y021632D01*
X06008Y021662D01*
X06011Y021708D01*
X060121Y021762D01*
X06011Y021816D01*
X06008Y021861D01*
Y021899D01*
X06011Y021944D01*
X060121Y021998D01*
X06011Y022052D01*
X06008Y022097D01*
X060034Y022128D01*
X05998Y022139D01*
D02*
G37*
G36*
X05076D02*
X050707Y022128D01*
X050661Y022097D01*
X050631Y022052D01*
X05062Y021998D01*
X050631Y021944D01*
X050661Y021899D01*
Y021861D01*
X050631Y021816D01*
X05062Y021762D01*
X050631Y021708D01*
X050661Y021662D01*
X050707Y021632D01*
X05076Y021621D01*
X050814Y021632D01*
X05086Y021662D01*
X05089Y021708D01*
X050901Y021762D01*
X05089Y021816D01*
X05086Y021861D01*
Y021899D01*
X05089Y021944D01*
X050901Y021998D01*
X05089Y022052D01*
X05086Y022097D01*
X050814Y022128D01*
X05076Y022139D01*
D02*
G37*
G36*
X040709Y021518D02*
X040655Y021508D01*
X040609Y021477D01*
X040601Y021465D01*
X040541D01*
X040532Y021477D01*
X040487Y021508D01*
X040433Y021518D01*
X040379Y021508D01*
X040334Y021477D01*
X040303Y021432D01*
X040293Y021378D01*
X040303Y021324D01*
X040334Y021279D01*
X040379Y021248D01*
X040433Y021237D01*
X040487Y021248D01*
X040532Y021279D01*
X040541Y021291D01*
X040601D01*
X040609Y021279D01*
X040655Y021248D01*
X040709Y021237D01*
X040762Y021248D01*
X040808Y021279D01*
X040838Y021324D01*
X040849Y021378D01*
X040838Y021432D01*
X040808Y021477D01*
X040762Y021508D01*
X040709Y021518D01*
D02*
G37*
G36*
X046082Y021342D02*
X046029Y021331D01*
X045983Y0213D01*
X045953Y021255D01*
X045942Y021201D01*
X045953Y021147D01*
X045983Y021102D01*
X046029Y021071D01*
X046082Y021061D01*
X046136Y021071D01*
X046182Y021102D01*
X046212Y021147D01*
X046223Y021201D01*
X046212Y021255D01*
X046182Y0213D01*
X046136Y021331D01*
X046082Y021342D01*
D02*
G37*
G36*
X062007Y021601D02*
X061914Y021589D01*
X061826Y021553D01*
X061751Y021495D01*
X061694Y02142D01*
X061657Y021333D01*
X061645Y021239D01*
X061657Y021145D01*
X061694Y021058D01*
X061751Y020983D01*
X061826Y020925D01*
X061914Y020889D01*
X062007Y020877D01*
X062101Y020889D01*
X062188Y020925D01*
X062263Y020983D01*
X062321Y021058D01*
X062357Y021145D01*
X062369Y021239D01*
X062357Y021333D01*
X062321Y02142D01*
X062263Y021495D01*
X062188Y021553D01*
X062101Y021589D01*
X062007Y021601D01*
D02*
G37*
G36*
X061207D02*
X061114Y021589D01*
X061026Y021553D01*
X060951Y021495D01*
X060894Y02142D01*
X060857Y021333D01*
X060845Y021239D01*
X060857Y021145D01*
X060894Y021058D01*
X060951Y020983D01*
X061026Y020925D01*
X061114Y020889D01*
X061207Y020877D01*
X061301Y020889D01*
X061388Y020925D01*
X061463Y020983D01*
X061521Y021058D01*
X061557Y021145D01*
X061569Y021239D01*
X061557Y021333D01*
X061521Y02142D01*
X061463Y021495D01*
X061388Y021553D01*
X061301Y021589D01*
X061207Y021601D01*
D02*
G37*
G36*
X060407D02*
X060314Y021589D01*
X060226Y021553D01*
X060151Y021495D01*
X060094Y02142D01*
X060057Y021333D01*
X060045Y021239D01*
X060057Y021145D01*
X060094Y021058D01*
X060151Y020983D01*
X060226Y020925D01*
X060314Y020889D01*
X060407Y020877D01*
X060501Y020889D01*
X060588Y020925D01*
X060663Y020983D01*
X060721Y021058D01*
X060757Y021145D01*
X060769Y021239D01*
X060757Y021333D01*
X060721Y02142D01*
X060663Y021495D01*
X060588Y021553D01*
X060501Y021589D01*
X060407Y021601D01*
D02*
G37*
G36*
X059607D02*
X059514Y021589D01*
X059426Y021553D01*
X059351Y021495D01*
X059294Y02142D01*
X059257Y021333D01*
X059245Y021239D01*
X059257Y021145D01*
X059294Y021058D01*
X059351Y020983D01*
X059426Y020925D01*
X059514Y020889D01*
X059607Y020877D01*
X059701Y020889D01*
X059788Y020925D01*
X059863Y020983D01*
X059921Y021058D01*
X059957Y021145D01*
X059969Y021239D01*
X059957Y021333D01*
X059921Y02142D01*
X059863Y021495D01*
X059788Y021553D01*
X059701Y021589D01*
X059607Y021601D01*
D02*
G37*
G36*
X058807D02*
X058714Y021589D01*
X058626Y021553D01*
X058551Y021495D01*
X058494Y02142D01*
X058457Y021333D01*
X058445Y021239D01*
X058457Y021145D01*
X058494Y021058D01*
X058551Y020983D01*
X058626Y020925D01*
X058714Y020889D01*
X058807Y020877D01*
X058901Y020889D01*
X058988Y020925D01*
X059063Y020983D01*
X059121Y021058D01*
X059157Y021145D01*
X059169Y021239D01*
X059157Y021333D01*
X059121Y02142D01*
X059063Y021495D01*
X058988Y021553D01*
X058901Y021589D01*
X058807Y021601D01*
D02*
G37*
G36*
X058007D02*
X057914Y021589D01*
X057826Y021553D01*
X057751Y021495D01*
X057694Y02142D01*
X057657Y021333D01*
X057645Y021239D01*
X057657Y021145D01*
X057694Y021058D01*
X057751Y020983D01*
X057826Y020925D01*
X057914Y020889D01*
X058007Y020877D01*
X058101Y020889D01*
X058188Y020925D01*
X058263Y020983D01*
X058321Y021058D01*
X058357Y021145D01*
X058369Y021239D01*
X058357Y021333D01*
X058321Y02142D01*
X058263Y021495D01*
X058188Y021553D01*
X058101Y021589D01*
X058007Y021601D01*
D02*
G37*
G36*
X052787D02*
X052694Y021589D01*
X052606Y021553D01*
X052531Y021495D01*
X052474Y02142D01*
X052438Y021333D01*
X052425Y021239D01*
X052438Y021145D01*
X052474Y021058D01*
X052531Y020983D01*
X052606Y020925D01*
X052694Y020889D01*
X052787Y020877D01*
X052881Y020889D01*
X052968Y020925D01*
X053043Y020983D01*
X053101Y021058D01*
X053137Y021145D01*
X05315Y021239D01*
X053137Y021333D01*
X053101Y02142D01*
X053043Y021495D01*
X052968Y021553D01*
X052881Y021589D01*
X052787Y021601D01*
D02*
G37*
G36*
X051987D02*
X051894Y021589D01*
X051806Y021553D01*
X051731Y021495D01*
X051674Y02142D01*
X051638Y021333D01*
X051625Y021239D01*
X051638Y021145D01*
X051674Y021058D01*
X051731Y020983D01*
X051806Y020925D01*
X051894Y020889D01*
X051987Y020877D01*
X052081Y020889D01*
X052168Y020925D01*
X052243Y020983D01*
X052301Y021058D01*
X052337Y021145D01*
X05235Y021239D01*
X052337Y021333D01*
X052301Y02142D01*
X052243Y021495D01*
X052168Y021553D01*
X052081Y021589D01*
X051987Y021601D01*
D02*
G37*
G36*
X051187D02*
X051094Y021589D01*
X051006Y021553D01*
X050931Y021495D01*
X050874Y02142D01*
X050838Y021333D01*
X050825Y021239D01*
X050838Y021145D01*
X050874Y021058D01*
X050931Y020983D01*
X051006Y020925D01*
X051094Y020889D01*
X051187Y020877D01*
X051281Y020889D01*
X051368Y020925D01*
X051443Y020983D01*
X051501Y021058D01*
X051537Y021145D01*
X05155Y021239D01*
X051537Y021333D01*
X051501Y02142D01*
X051443Y021495D01*
X051368Y021553D01*
X051281Y021589D01*
X051187Y021601D01*
D02*
G37*
G36*
X050387D02*
X050294Y021589D01*
X050206Y021553D01*
X050131Y021495D01*
X050074Y02142D01*
X050038Y021333D01*
X050025Y021239D01*
X050038Y021145D01*
X050074Y021058D01*
X050131Y020983D01*
X050206Y020925D01*
X050294Y020889D01*
X050387Y020877D01*
X050481Y020889D01*
X050568Y020925D01*
X050643Y020983D01*
X050701Y021058D01*
X050737Y021145D01*
X05075Y021239D01*
X050737Y021333D01*
X050701Y02142D01*
X050643Y021495D01*
X050568Y021553D01*
X050481Y021589D01*
X050387Y021601D01*
D02*
G37*
G36*
X049587D02*
X049494Y021589D01*
X049406Y021553D01*
X049331Y021495D01*
X049274Y02142D01*
X049238Y021333D01*
X049225Y021239D01*
X049238Y021145D01*
X049274Y021058D01*
X049331Y020983D01*
X049406Y020925D01*
X049494Y020889D01*
X049587Y020877D01*
X049681Y020889D01*
X049768Y020925D01*
X049843Y020983D01*
X049901Y021058D01*
X049937Y021145D01*
X04995Y021239D01*
X049937Y021333D01*
X049901Y02142D01*
X049843Y021495D01*
X049768Y021553D01*
X049681Y021589D01*
X049587Y021601D01*
D02*
G37*
G36*
X048787D02*
X048694Y021589D01*
X048606Y021553D01*
X048531Y021495D01*
X048474Y02142D01*
X048438Y021333D01*
X048425Y021239D01*
X048438Y021145D01*
X048474Y021058D01*
X048531Y020983D01*
X048606Y020925D01*
X048694Y020889D01*
X048787Y020877D01*
X048881Y020889D01*
X048968Y020925D01*
X049043Y020983D01*
X049101Y021058D01*
X049137Y021145D01*
X04915Y021239D01*
X049137Y021333D01*
X049101Y02142D01*
X049043Y021495D01*
X048968Y021553D01*
X048881Y021589D01*
X048787Y021601D01*
D02*
G37*
G36*
X043927Y021175D02*
X043858Y021161D01*
X043799Y021122D01*
X04376Y021063D01*
X043747Y020994D01*
X04376Y020925D01*
X043799Y020866D01*
X043858Y020827D01*
X043927Y020813D01*
X043996Y020827D01*
X044055Y020866D01*
X044094Y020925D01*
X044108Y020994D01*
X044094Y021063D01*
X044055Y021122D01*
X043996Y021161D01*
X043927Y021175D01*
D02*
G37*
G36*
X043248Y02081D02*
X043194Y020799D01*
X04315Y020769D01*
X043105Y020799D01*
X043051Y02081D01*
X042997Y020799D01*
X042952Y020769D01*
X042921Y020723D01*
X042911Y020669D01*
X042921Y020616D01*
X042952Y02057D01*
X042997Y020539D01*
X043051Y020529D01*
X043105Y020539D01*
X04315Y020569D01*
X043194Y020539D01*
X043248Y020529D01*
X043302Y020539D01*
X043347Y02057D01*
X043378Y020616D01*
X043389Y020669D01*
X043378Y020723D01*
X043347Y020769D01*
X043302Y020799D01*
X043248Y02081D01*
D02*
G37*
G36*
X041369Y020658D02*
X041315Y020648D01*
X04127Y020617D01*
X041261Y020605D01*
X041201D01*
X041193Y020617D01*
X041147Y020648D01*
X041094Y020658D01*
X04104Y020648D01*
X040994Y020617D01*
X040964Y020572D01*
X040953Y020518D01*
X040964Y020464D01*
X040994Y020419D01*
X04104Y020388D01*
X041094Y020377D01*
X041147Y020388D01*
X041193Y020419D01*
X041201Y020431D01*
X041261D01*
X04127Y020419D01*
X041315Y020388D01*
X041369Y020377D01*
X041423Y020388D01*
X041469Y020419D01*
X041499Y020464D01*
X04151Y020518D01*
X041499Y020572D01*
X041469Y020617D01*
X041423Y020648D01*
X041369Y020658D01*
D02*
G37*
G36*
X031378Y020869D02*
X031324Y020858D01*
X031279Y020828D01*
X031248Y020782D01*
X031237Y020728D01*
X031248Y020675D01*
X031279Y020629D01*
X031324Y020599D01*
X031378Y020588D01*
X031432Y020599D01*
X031477Y020629D01*
X031508Y020675D01*
X031518Y020728D01*
X031508Y020782D01*
X031477Y020828D01*
X031432Y020858D01*
X031378Y020869D01*
D02*
G37*
G36*
X029685Y020829D02*
X029631Y020819D01*
X029586Y020788D01*
X029555Y020743D01*
X029545Y020689D01*
X029555Y020635D01*
X029586Y02059D01*
X029631Y020559D01*
X029685Y020548D01*
X029739Y020559D01*
X029784Y02059D01*
X029815Y020635D01*
X029826Y020689D01*
X029815Y020743D01*
X029784Y020788D01*
X029739Y020819D01*
X029685Y020829D01*
D02*
G37*
G36*
X046102Y020693D02*
X046018Y020676D01*
X045946Y020629D01*
X045898Y020557D01*
X045882Y020472D01*
X045898Y020388D01*
X045946Y020316D01*
X046018Y020268D01*
X046102Y020252D01*
X046187Y020268D01*
X046258Y020316D01*
X046306Y020388D01*
X046323Y020472D01*
X046306Y020557D01*
X046258Y020629D01*
X046187Y020676D01*
X046102Y020693D01*
D02*
G37*
G36*
X04562Y020518D02*
X045566Y020508D01*
X045521Y020477D01*
X04549Y020432D01*
X04548Y020378D01*
X04549Y020324D01*
X045521Y020279D01*
X045566Y020248D01*
X04562Y020237D01*
X045674Y020248D01*
X045719Y020279D01*
X04575Y020324D01*
X045761Y020378D01*
X04575Y020432D01*
X045719Y020477D01*
X045674Y020508D01*
X04562Y020518D01*
D02*
G37*
G36*
X04375Y020475D02*
X043696Y020464D01*
X043651Y020434D01*
X04362Y020388D01*
X043609Y020335D01*
X04362Y020281D01*
X043651Y020235D01*
X043696Y020205D01*
X04375Y020194D01*
X043804Y020205D01*
X043849Y020235D01*
X04388Y020281D01*
X043881Y020288D01*
X043932D01*
X043935Y020274D01*
X043966Y020228D01*
X044011Y020198D01*
X044065Y020187D01*
X044119Y020198D01*
X044164Y020228D01*
X044195Y020274D01*
X044197Y020285D01*
X044248D01*
X04425Y020274D01*
X044281Y020228D01*
X044326Y020198D01*
X04438Y020187D01*
X044434Y020198D01*
X044479Y020228D01*
X04451Y020274D01*
X04452Y020327D01*
X04451Y020381D01*
X044479Y020427D01*
X044434Y020457D01*
X04438Y020468D01*
X044326Y020457D01*
X044281Y020427D01*
X04425Y020381D01*
X044248Y02037D01*
X044197D01*
X044195Y020381D01*
X044164Y020427D01*
X044119Y020457D01*
X044065Y020468D01*
X044011Y020457D01*
X043966Y020427D01*
X043935Y020381D01*
X043934Y020374D01*
X043883D01*
X04388Y020388D01*
X043849Y020434D01*
X043804Y020464D01*
X04375Y020475D01*
D02*
G37*
G36*
X045118Y020327D02*
X045064Y020317D01*
X045019Y020286D01*
X044988Y020241D01*
X044978Y020187D01*
X044988Y020133D01*
X045019Y020088D01*
X045064Y020057D01*
X045118Y020047D01*
X045172Y020057D01*
X045217Y020088D01*
X045248Y020133D01*
X045259Y020187D01*
X045248Y020241D01*
X045217Y020286D01*
X045172Y020317D01*
X045118Y020327D01*
D02*
G37*
G36*
X030591Y020022D02*
X030537Y020012D01*
X030491Y019981D01*
X030461Y019936D01*
X03045Y019882D01*
X030461Y019828D01*
X030491Y019783D01*
X030537Y019752D01*
X030591Y019741D01*
X030644Y019752D01*
X03069Y019783D01*
X03072Y019828D01*
X030731Y019882D01*
X03072Y019936D01*
X03069Y019981D01*
X030644Y020012D01*
X030591Y020022D01*
D02*
G37*
G36*
X032283Y019276D02*
X032199Y019259D01*
X032127Y019211D01*
X032096Y019165D01*
X032037D01*
X032007Y019211D01*
X031935Y019259D01*
X03185Y019276D01*
X031766Y019259D01*
X031694Y019211D01*
X031646Y01914D01*
X03163Y019055D01*
X031646Y018971D01*
X031694Y018899D01*
X031766Y018851D01*
X03185Y018834D01*
X031935Y018851D01*
X032007Y018899D01*
X032037Y018945D01*
X032096D01*
X032127Y018899D01*
X032151Y018883D01*
Y018833D01*
X032127Y018818D01*
X032079Y018746D01*
X032063Y018661D01*
X032079Y018577D01*
X032127Y018505D01*
X032199Y018457D01*
X032283Y018441D01*
X032368Y018457D01*
X03244Y018505D01*
X032487Y018577D01*
X032504Y018661D01*
X032487Y018746D01*
X03244Y018818D01*
X032416Y018833D01*
Y018883D01*
X03244Y018899D01*
X032487Y018971D01*
X032504Y019055D01*
X032487Y01914D01*
X03244Y019211D01*
X032368Y019259D01*
X032283Y019276D01*
D02*
G37*
G36*
X041024Y018851D02*
X040935Y018839D01*
X040852Y018805D01*
X040781Y01875D01*
X040726Y018679D01*
X040692Y018597D01*
X040681Y018508D01*
X040692Y018419D01*
X040726Y018336D01*
X040781Y018265D01*
X040852Y018211D01*
X040935Y018176D01*
X041024Y018165D01*
X041112Y018176D01*
X041195Y018211D01*
X041266Y018265D01*
X041321Y018336D01*
X041355Y018419D01*
X041367Y018508D01*
X041355Y018597D01*
X041321Y018679D01*
X041266Y01875D01*
X041195Y018805D01*
X041112Y018839D01*
X041024Y018851D01*
D02*
G37*
G36*
X040236D02*
X040147Y018839D01*
X040065Y018805D01*
X039994Y01875D01*
X039939Y018679D01*
X039905Y018597D01*
X039893Y018508D01*
X039905Y018419D01*
X039939Y018336D01*
X039994Y018265D01*
X040065Y018211D01*
X040147Y018176D01*
X040236Y018165D01*
X040325Y018176D01*
X040408Y018211D01*
X040479Y018265D01*
X040533Y018336D01*
X040568Y018419D01*
X040579Y018508D01*
X040568Y018597D01*
X040533Y018679D01*
X040479Y01875D01*
X040408Y018805D01*
X040325Y018839D01*
X040236Y018851D01*
D02*
G37*
G36*
X039252D02*
X039163Y018839D01*
X03908Y018805D01*
X039009Y01875D01*
X038955Y018679D01*
X038921Y018597D01*
X038909Y018508D01*
X038921Y018419D01*
X038955Y018336D01*
X039009Y018265D01*
X03908Y018211D01*
X039163Y018176D01*
X039252Y018165D01*
X039341Y018176D01*
X039424Y018211D01*
X039495Y018265D01*
X039549Y018336D01*
X039583Y018419D01*
X039595Y018508D01*
X039583Y018597D01*
X039549Y018679D01*
X039495Y01875D01*
X039424Y018805D01*
X039341Y018839D01*
X039252Y018851D01*
D02*
G37*
G36*
X056547Y019203D02*
X056401Y019184D01*
X056265Y019127D01*
X056149Y019038D01*
X056059Y018921D01*
X056003Y018785D01*
X055983Y018639D01*
X056003Y018493D01*
X056059Y018357D01*
X056149Y01824D01*
X056265Y018151D01*
X056401Y018094D01*
X056547Y018075D01*
X056693Y018094D01*
X056829Y018151D01*
X056946Y01824D01*
X057036Y018357D01*
X057092Y018493D01*
X057111Y018639D01*
X057092Y018785D01*
X057036Y018921D01*
X056946Y019038D01*
X056829Y019127D01*
X056693Y019184D01*
X056547Y019203D01*
D02*
G37*
G36*
X054247D02*
X054101Y019184D01*
X053965Y019127D01*
X053849Y019038D01*
X053759Y018921D01*
X053703Y018785D01*
X053684Y018639D01*
X053703Y018493D01*
X053759Y018357D01*
X053849Y01824D01*
X053965Y018151D01*
X054101Y018094D01*
X054247Y018075D01*
X054393Y018094D01*
X054529Y018151D01*
X054646Y01824D01*
X054736Y018357D01*
X054792Y018493D01*
X054811Y018639D01*
X054792Y018785D01*
X054736Y018921D01*
X054646Y019038D01*
X054529Y019127D01*
X054393Y019184D01*
X054247Y019203D01*
D02*
G37*
G36*
X047327D02*
X047181Y019184D01*
X047045Y019127D01*
X046929Y019038D01*
X046839Y018921D01*
X046783Y018785D01*
X046764Y018639D01*
X046783Y018493D01*
X046839Y018357D01*
X046929Y01824D01*
X047045Y018151D01*
X047181Y018094D01*
X047327Y018075D01*
X047473Y018094D01*
X047609Y018151D01*
X047726Y01824D01*
X047816Y018357D01*
X047872Y018493D01*
X047891Y018639D01*
X047872Y018785D01*
X047816Y018921D01*
X047726Y019038D01*
X047609Y019127D01*
X047473Y019184D01*
X047327Y019203D01*
D02*
G37*
G36*
X061907Y019351D02*
X061768Y019337D01*
X061635Y019297D01*
X061512Y019231D01*
X061404Y019143D01*
X061315Y019035D01*
X061249Y018911D01*
X061209Y018778D01*
X061195Y018639D01*
X061209Y0185D01*
X061249Y018366D01*
X061315Y018243D01*
X061404Y018135D01*
X061512Y018047D01*
X061635Y017981D01*
X061768Y017941D01*
X061907Y017927D01*
X062046Y017941D01*
X06218Y017981D01*
X062303Y018047D01*
X062411Y018135D01*
X062499Y018243D01*
X062565Y018366D01*
X062606Y0185D01*
X062619Y018639D01*
X062606Y018778D01*
X062565Y018911D01*
X062499Y019035D01*
X062411Y019143D01*
X062303Y019231D01*
X06218Y019297D01*
X062046Y019337D01*
X061907Y019351D01*
D02*
G37*
G36*
X058107D02*
X057968Y019337D01*
X057835Y019297D01*
X057712Y019231D01*
X057604Y019143D01*
X057515Y019035D01*
X057449Y018911D01*
X057409Y018778D01*
X057395Y018639D01*
X057409Y0185D01*
X057449Y018366D01*
X057515Y018243D01*
X057604Y018135D01*
X057712Y018047D01*
X057835Y017981D01*
X057968Y017941D01*
X058107Y017927D01*
X058246Y017941D01*
X05838Y017981D01*
X058503Y018047D01*
X058611Y018135D01*
X058699Y018243D01*
X058765Y018366D01*
X058806Y0185D01*
X058819Y018639D01*
X058806Y018778D01*
X058765Y018911D01*
X058699Y019035D01*
X058611Y019143D01*
X058503Y019231D01*
X05838Y019297D01*
X058246Y019337D01*
X058107Y019351D01*
D02*
G37*
G36*
X052687D02*
X052548Y019337D01*
X052415Y019297D01*
X052292Y019231D01*
X052184Y019143D01*
X052095Y019035D01*
X05203Y018911D01*
X051989Y018778D01*
X051975Y018639D01*
X051989Y0185D01*
X05203Y018366D01*
X052095Y018243D01*
X052184Y018135D01*
X052292Y018047D01*
X052415Y017981D01*
X052548Y017941D01*
X052687Y017927D01*
X052826Y017941D01*
X05296Y017981D01*
X053083Y018047D01*
X053191Y018135D01*
X053279Y018243D01*
X053345Y018366D01*
X053386Y0185D01*
X053399Y018639D01*
X053386Y018778D01*
X053345Y018911D01*
X053279Y019035D01*
X053191Y019143D01*
X053083Y019231D01*
X05296Y019297D01*
X052826Y019337D01*
X052687Y019351D01*
D02*
G37*
G36*
X048887D02*
X048748Y019337D01*
X048615Y019297D01*
X048492Y019231D01*
X048384Y019143D01*
X048295Y019035D01*
X04823Y018911D01*
X048189Y018778D01*
X048175Y018639D01*
X048189Y0185D01*
X04823Y018366D01*
X048295Y018243D01*
X048384Y018135D01*
X048492Y018047D01*
X048615Y017981D01*
X048748Y017941D01*
X048887Y017927D01*
X049026Y017941D01*
X04916Y017981D01*
X049283Y018047D01*
X049391Y018135D01*
X049479Y018243D01*
X049545Y018366D01*
X049586Y0185D01*
X049599Y018639D01*
X049586Y018778D01*
X049545Y018911D01*
X049479Y019035D01*
X049391Y019143D01*
X049283Y019231D01*
X04916Y019297D01*
X049026Y019337D01*
X048887Y019351D01*
D02*
G37*
G36*
X032795Y01707D02*
X032742Y017059D01*
X032696Y017028D01*
X032665Y016983D01*
X032655Y016929D01*
X032665Y016875D01*
X032696Y01683D01*
X032742Y016799D01*
X032795Y016789D01*
X032849Y016799D01*
X032895Y01683D01*
X032924Y016874D01*
X032932Y016875D01*
X032975Y016872D01*
X032976Y01687D01*
X033006Y016825D01*
X033052Y016794D01*
X033105Y016784D01*
X033159Y016794D01*
X033205Y016825D01*
X033235Y01687D01*
X033246Y016924D01*
X033235Y016978D01*
X033205Y017024D01*
X033159Y017054D01*
X033105Y017065D01*
X033052Y017054D01*
X033006Y017024D01*
X032977Y01698D01*
X032969Y016978D01*
X032925Y016982D01*
X032925Y016983D01*
X032895Y017028D01*
X032849Y017059D01*
X032795Y01707D01*
D02*
G37*
G36*
X057047Y017577D02*
X056934Y017562D01*
X056828Y017518D01*
X056738Y017449D01*
X056668Y017358D01*
X056624Y017252D01*
X056609Y017139D01*
X056624Y017026D01*
X056668Y01692D01*
X056738Y016829D01*
X056828Y01676D01*
X056934Y016716D01*
X057047Y016701D01*
X057161Y016716D01*
X057266Y01676D01*
X057357Y016829D01*
X057426Y01692D01*
X05747Y017026D01*
X057485Y017139D01*
X05747Y017252D01*
X057426Y017358D01*
X057357Y017449D01*
X057266Y017518D01*
X057161Y017562D01*
X057047Y017577D01*
D02*
G37*
G36*
X047827D02*
X047714Y017562D01*
X047608Y017518D01*
X047518Y017449D01*
X047448Y017358D01*
X047405Y017252D01*
X04739Y017139D01*
X047405Y017026D01*
X047448Y01692D01*
X047518Y016829D01*
X047608Y01676D01*
X047714Y016716D01*
X047827Y016701D01*
X047941Y016716D01*
X048046Y01676D01*
X048137Y016829D01*
X048207Y01692D01*
X04825Y017026D01*
X048265Y017139D01*
X04825Y017252D01*
X048207Y017358D01*
X048137Y017449D01*
X048046Y017518D01*
X047941Y017562D01*
X047827Y017577D01*
D02*
G37*
G36*
X033894Y016167D02*
X033821Y016153D01*
X033759Y016111D01*
X033718Y016049D01*
X033703Y015976D01*
X033718Y015903D01*
X033759Y015842D01*
X033821Y0158D01*
X033894Y015786D01*
X033967Y0158D01*
X034029Y015842D01*
X03407Y015903D01*
X034084Y015976D01*
X03407Y016049D01*
X034029Y016111D01*
X033967Y016153D01*
X033894Y016167D01*
D02*
G37*
G36*
X031618D02*
X031545Y016153D01*
X031483Y016111D01*
X031442Y016049D01*
X031427Y015976D01*
X031442Y015903D01*
X031483Y015842D01*
X031545Y0158D01*
X031618Y015786D01*
X031691Y0158D01*
X031753Y015842D01*
X031794Y015903D01*
X031809Y015976D01*
X031794Y016049D01*
X031753Y016111D01*
X031691Y016153D01*
X031618Y016167D01*
D02*
G37*
G36*
X062967Y016577D02*
X062854Y016562D01*
X062748Y016518D01*
X062658Y016449D01*
X062588Y016358D01*
X062544Y016252D01*
X062529Y016139D01*
X062544Y016026D01*
X062588Y01592D01*
X062658Y015829D01*
X062748Y01576D01*
X062854Y015716D01*
X062967Y015701D01*
X063081Y015716D01*
X063186Y01576D01*
X063277Y015829D01*
X063346Y01592D01*
X06339Y016026D01*
X063405Y016139D01*
X06339Y016252D01*
X063346Y016358D01*
X063277Y016449D01*
X063186Y016518D01*
X063081Y016562D01*
X062967Y016577D01*
D02*
G37*
G36*
X057047D02*
X056934Y016562D01*
X056828Y016518D01*
X056738Y016449D01*
X056668Y016358D01*
X056624Y016252D01*
X056609Y016139D01*
X056624Y016026D01*
X056668Y01592D01*
X056738Y015829D01*
X056828Y01576D01*
X056934Y015716D01*
X057047Y015701D01*
X057161Y015716D01*
X057266Y01576D01*
X057357Y015829D01*
X057426Y01592D01*
X05747Y016026D01*
X057485Y016139D01*
X05747Y016252D01*
X057426Y016358D01*
X057357Y016449D01*
X057266Y016518D01*
X057161Y016562D01*
X057047Y016577D01*
D02*
G37*
G36*
X053747D02*
X053634Y016562D01*
X053528Y016518D01*
X053438Y016449D01*
X053368Y016358D01*
X053325Y016252D01*
X05331Y016139D01*
X053325Y016026D01*
X053368Y01592D01*
X053438Y015829D01*
X053528Y01576D01*
X053634Y015716D01*
X053747Y015701D01*
X053861Y015716D01*
X053966Y01576D01*
X054057Y015829D01*
X054127Y01592D01*
X05417Y016026D01*
X054185Y016139D01*
X05417Y016252D01*
X054127Y016358D01*
X054057Y016449D01*
X053966Y016518D01*
X053861Y016562D01*
X053747Y016577D01*
D02*
G37*
G36*
X047827D02*
X047714Y016562D01*
X047608Y016518D01*
X047518Y016449D01*
X047448Y016358D01*
X047405Y016252D01*
X04739Y016139D01*
X047405Y016026D01*
X047448Y01592D01*
X047518Y015829D01*
X047608Y01576D01*
X047714Y015716D01*
X047827Y015701D01*
X047941Y015716D01*
X048046Y01576D01*
X048137Y015829D01*
X048207Y01592D01*
X04825Y016026D01*
X048265Y016139D01*
X04825Y016252D01*
X048207Y016358D01*
X048137Y016449D01*
X048046Y016518D01*
X047941Y016562D01*
X047827Y016577D01*
D02*
G37*
G36*
X062967Y015577D02*
X062854Y015562D01*
X062748Y015518D01*
X062658Y015449D01*
X062588Y015358D01*
X062544Y015252D01*
X062529Y015139D01*
X062544Y015026D01*
X062588Y01492D01*
X062658Y014829D01*
X062748Y01476D01*
X062854Y014716D01*
X062967Y014701D01*
X063081Y014716D01*
X063186Y01476D01*
X063277Y014829D01*
X063346Y01492D01*
X06339Y015026D01*
X063405Y015139D01*
X06339Y015252D01*
X063346Y015358D01*
X063277Y015449D01*
X063186Y015518D01*
X063081Y015562D01*
X062967Y015577D01*
D02*
G37*
G36*
X057047D02*
X056934Y015562D01*
X056828Y015518D01*
X056738Y015449D01*
X056668Y015358D01*
X056624Y015252D01*
X056609Y015139D01*
X056624Y015026D01*
X056668Y01492D01*
X056738Y014829D01*
X056828Y01476D01*
X056934Y014716D01*
X057047Y014701D01*
X057161Y014716D01*
X057266Y01476D01*
X057357Y014829D01*
X057426Y01492D01*
X05747Y015026D01*
X057485Y015139D01*
X05747Y015252D01*
X057426Y015358D01*
X057357Y015449D01*
X057266Y015518D01*
X057161Y015562D01*
X057047Y015577D01*
D02*
G37*
G36*
X053747D02*
X053634Y015562D01*
X053528Y015518D01*
X053438Y015449D01*
X053368Y015358D01*
X053325Y015252D01*
X05331Y015139D01*
X053325Y015026D01*
X053368Y01492D01*
X053438Y014829D01*
X053528Y01476D01*
X053634Y014716D01*
X053747Y014701D01*
X053861Y014716D01*
X053966Y01476D01*
X054057Y014829D01*
X054127Y01492D01*
X05417Y015026D01*
X054185Y015139D01*
X05417Y015252D01*
X054127Y015358D01*
X054057Y015449D01*
X053966Y015518D01*
X053861Y015562D01*
X053747Y015577D01*
D02*
G37*
G36*
X047827D02*
X047714Y015562D01*
X047608Y015518D01*
X047518Y015449D01*
X047448Y015358D01*
X047405Y015252D01*
X04739Y015139D01*
X047405Y015026D01*
X047448Y01492D01*
X047518Y014829D01*
X047608Y01476D01*
X047714Y014716D01*
X047827Y014701D01*
X047941Y014716D01*
X048046Y01476D01*
X048137Y014829D01*
X048207Y01492D01*
X04825Y015026D01*
X048265Y015139D01*
X04825Y015252D01*
X048207Y015358D01*
X048137Y015449D01*
X048046Y015518D01*
X047941Y015562D01*
X047827Y015577D01*
D02*
G37*
G36*
X058867Y047266D02*
X058858Y047264D01*
X05885Y047266D01*
X058706Y047247D01*
X058699Y047243D01*
X05869D01*
X058556Y047187D01*
X05855Y047181D01*
X058542Y047179D01*
X058427Y047091D01*
X058423Y047083D01*
X058415Y047079D01*
X058327Y046964D01*
X058325Y046956D01*
X058319Y04695D01*
X058263Y046816D01*
Y046807D01*
X058259Y0468D01*
X05824Y046656D01*
X058242Y046648D01*
X05824Y046639D01*
X058259Y046496D01*
X058263Y046488D01*
Y04648D01*
X058319Y046346D01*
X058325Y04634D01*
X058327Y046331D01*
X058415Y046216D01*
X058423Y046212D01*
X058427Y046205D01*
X058542Y046116D01*
X05855Y046114D01*
X058556Y046108D01*
X05869Y046053D01*
X058699D01*
X058706Y046048D01*
X05885Y046029D01*
X058858Y046032D01*
X058867Y046029D01*
X05901Y046048D01*
X059018Y046053D01*
X059026D01*
X05916Y046108D01*
X059166Y046114D01*
X059175Y046116D01*
X059289Y046205D01*
X059294Y046212D01*
X059301Y046216D01*
X059389Y046331D01*
X059392Y04634D01*
X059398Y046346D01*
X059453Y04648D01*
Y046488D01*
X059458Y046496D01*
X059476Y046639D01*
X059474Y046648D01*
X059476Y046656D01*
X059458Y0468D01*
X059453Y046807D01*
Y046816D01*
X059398Y04695D01*
X059392Y046956D01*
X059389Y046964D01*
X059301Y047079D01*
X059294Y047083D01*
X059289Y047091D01*
X059175Y047179D01*
X059166Y047181D01*
X05916Y047187D01*
X059026Y047243D01*
X059018D01*
X05901Y047247D01*
X058867Y047266D01*
D02*
G37*
G36*
Y04451D02*
X058858Y044508D01*
X05885Y04451D01*
X058706Y044491D01*
X058699Y044487D01*
X05869D01*
X058556Y044431D01*
X05855Y044425D01*
X058542Y044423D01*
X058427Y044335D01*
X058423Y044327D01*
X058415Y044323D01*
X058327Y044208D01*
X058325Y0442D01*
X058319Y044194D01*
X058263Y04406D01*
Y044051D01*
X058259Y044044D01*
X05824Y0439D01*
X058242Y043892D01*
X05824Y043883D01*
X058259Y04374D01*
X058263Y043732D01*
Y043724D01*
X058319Y04359D01*
X058325Y043584D01*
X058327Y043575D01*
X058415Y043461D01*
X058423Y043456D01*
X058427Y043449D01*
X058542Y043361D01*
X05855Y043358D01*
X058556Y043352D01*
X05869Y043297D01*
X058699D01*
X058706Y043292D01*
X05885Y043274D01*
X058858Y043276D01*
X058867Y043274D01*
X05901Y043292D01*
X059018Y043297D01*
X059026D01*
X05916Y043352D01*
X059166Y043358D01*
X059175Y043361D01*
X059289Y043449D01*
X059294Y043456D01*
X059301Y043461D01*
X059389Y043575D01*
X059392Y043584D01*
X059398Y04359D01*
X059453Y043724D01*
Y043732D01*
X059458Y04374D01*
X059476Y043883D01*
X059474Y043892D01*
X059476Y0439D01*
X059458Y044044D01*
X059453Y044051D01*
Y04406D01*
X059398Y044194D01*
X059392Y0442D01*
X059389Y044208D01*
X059301Y044323D01*
X059294Y044327D01*
X059289Y044335D01*
X059175Y044423D01*
X059166Y044425D01*
X05916Y044431D01*
X059026Y044487D01*
X059018D01*
X05901Y044491D01*
X058867Y04451D01*
D02*
G37*
G36*
X058839Y042837D02*
X058785Y042827D01*
X058739Y042796D01*
X058709Y042751D01*
X058698Y042697D01*
X058709Y042643D01*
X058739Y042598D01*
X058785Y042567D01*
X058839Y042556D01*
X058892Y042567D01*
X058938Y042598D01*
X058968Y042643D01*
X058979Y042697D01*
X058968Y042751D01*
X058938Y042796D01*
X058892Y042827D01*
X058839Y042837D01*
D02*
G37*
G36*
X059439Y042621D02*
X059385Y04261D01*
X05934Y04258D01*
X059309Y042534D01*
X059298Y04248D01*
X059309Y042427D01*
X05934Y042381D01*
X059385Y042351D01*
X059439Y04234D01*
X059493Y042351D01*
X059538Y042381D01*
X059569Y042427D01*
X059579Y04248D01*
X059569Y042534D01*
X059538Y04258D01*
X059493Y04261D01*
X059439Y042621D01*
D02*
G37*
G36*
X057126Y039786D02*
X057072Y039775D01*
X057027Y039745D01*
X056996Y039699D01*
X056985Y039646D01*
X056996Y039592D01*
X057027Y039546D01*
X057072Y039516D01*
X057126Y039505D01*
X05718Y039516D01*
X057225Y039546D01*
X057256Y039592D01*
X057266Y039646D01*
X057256Y039699D01*
X057225Y039745D01*
X05718Y039775D01*
X057126Y039786D01*
D02*
G37*
G36*
X057815Y039302D02*
X057761Y039291D01*
X057715Y039261D01*
X057707Y039248D01*
X057647D01*
X057638Y039261D01*
X057593Y039291D01*
X057539Y039302D01*
X057485Y039291D01*
X05744Y039261D01*
X057409Y039215D01*
X057399Y039161D01*
X057409Y039108D01*
X05744Y039062D01*
X057485Y039032D01*
X057521Y039024D01*
X057517Y039004D01*
X057527Y03895D01*
X057558Y038904D01*
X057603Y038874D01*
X057657Y038863D01*
X057711Y038874D01*
X057757Y038904D01*
X057787Y03895D01*
X057798Y039004D01*
X057815Y039021D01*
X057868Y039032D01*
X057914Y039062D01*
X057944Y039108D01*
X057955Y039161D01*
X057944Y039215D01*
X057914Y039261D01*
X057868Y039291D01*
X057815Y039302D01*
D02*
G37*
G36*
X059803Y039511D02*
X059749Y0395D01*
X059704Y039469D01*
X059673Y039424D01*
X059663Y03937D01*
X059673Y039316D01*
X059704Y039271D01*
X059749Y03924D01*
X059803Y03923D01*
X059857Y03924D01*
X059902Y039271D01*
X059933Y039316D01*
X059944Y03937D01*
X059933Y039424D01*
X059902Y039469D01*
X059857Y0395D01*
X059803Y039511D01*
D02*
G37*
G36*
X061083Y03768D02*
X061029Y037669D01*
X060983Y037639D01*
X060953Y037593D01*
X060942Y037539D01*
X060953Y037486D01*
X060983Y03744D01*
X061029Y03741D01*
X061083Y037399D01*
X061136Y03741D01*
X061182Y03744D01*
X061212Y037486D01*
X061223Y037539D01*
X061212Y037593D01*
X061182Y037639D01*
X061136Y037669D01*
X061083Y03768D01*
D02*
G37*
G36*
Y037286D02*
X061029Y037275D01*
X060983Y037245D01*
X060953Y037199D01*
X060942Y037146D01*
X060953Y037092D01*
X060983Y037046D01*
X061029Y037016D01*
X061083Y037005D01*
X061136Y037016D01*
X061182Y037046D01*
X061212Y037092D01*
X061223Y037146D01*
X061212Y037199D01*
X061182Y037245D01*
X061136Y037275D01*
X061083Y037286D01*
D02*
G37*
%LPD*%
D184*
X029709Y034606D02*
D03*
D187*
X054738Y041413D02*
D03*
X054339Y044413D02*
D03*
X055138D02*
D03*
D188*
X058858Y043892D02*
D03*
Y046648D02*
D03*
D189*
X031055Y014528D02*
D03*
X034457D02*
D03*
D190*
X031055Y016173D02*
D03*
X034457D02*
D03*
D193*
X042008Y018508D02*
D03*
D194*
X038043Y017441D02*
D03*
X043217D02*
D03*
D195*
X063632Y038878D02*
D03*
D196*
X031949Y045069D02*
D03*
X037657D02*
D03*
D197*
Y047415D02*
D03*
X031949D02*
D03*
D200*
X059498Y033494D02*
D03*
X05752Y031624D02*
D03*
X05811Y029291D02*
D03*
X055315Y031063D02*
D03*
X056024Y028404D02*
D03*
X058504Y028642D02*
D03*
X05811Y028051D02*
D03*
X057717D02*
D03*
Y028642D02*
D03*
Y028346D02*
D03*
X05811D02*
D03*
X058504Y029035D02*
D03*
X05811D02*
D03*
Y028642D02*
D03*
X033465Y026614D02*
D03*
X055315Y041614D02*
D03*
X046453Y018933D02*
D03*
X044764Y019685D02*
D03*
X055866Y021378D02*
D03*
Y021654D02*
D03*
X055Y021378D02*
D03*
Y021654D02*
D03*
X056063Y021378D02*
D03*
Y021654D02*
D03*
X054764D02*
D03*
Y021378D02*
D03*
X046201Y016142D02*
D03*
X045807D02*
D03*
X045413D02*
D03*
X045118D02*
D03*
X046201Y016339D02*
D03*
X045807D02*
D03*
X045413D02*
D03*
X045118D02*
D03*
X032923Y039134D02*
D03*
X03313Y038091D02*
D03*
X033159Y038415D02*
D03*
X033888Y037953D02*
D03*
Y038179D02*
D03*
X043898Y039449D02*
D03*
X04374Y039331D02*
D03*
X043346Y039528D02*
D03*
Y039331D02*
D03*
X043543Y039646D02*
D03*
X04374Y039567D02*
D03*
X044016Y039606D02*
D03*
X043543Y039449D02*
D03*
Y039252D02*
D03*
X045079Y022165D02*
D03*
X044685D02*
D03*
X044291D02*
D03*
X045079Y022598D02*
D03*
X044685D02*
D03*
X044291D02*
D03*
X045079Y022992D02*
D03*
X044685D02*
D03*
X044291D02*
D03*
X031378Y038071D02*
D03*
X04313Y023751D02*
D03*
X043478Y021217D02*
D03*
X056886Y027376D02*
D03*
X055512Y039173D02*
D03*
X058858Y038228D02*
D03*
X060039D02*
D03*
X058858Y037835D02*
D03*
X060039Y037441D02*
D03*
X059252Y037835D02*
D03*
Y037441D02*
D03*
X058858D02*
D03*
X059646D02*
D03*
X060039Y037047D02*
D03*
X058858D02*
D03*
X060039Y037835D02*
D03*
X059646Y038228D02*
D03*
X059252Y037047D02*
D03*
Y038228D02*
D03*
X059646Y037835D02*
D03*
Y037047D02*
D03*
X038976Y045079D02*
D03*
X03874Y045354D02*
D03*
X039016Y045709D02*
D03*
X033228Y045394D02*
D03*
X033819D02*
D03*
X034409D02*
D03*
X035D02*
D03*
X036181D02*
D03*
X037057Y040413D02*
D03*
X037057Y039941D02*
D03*
X036992Y040817D02*
D03*
X0375Y036929D02*
D03*
X0394Y04372D02*
D03*
X044152Y04134D02*
D03*
X043141Y04055D02*
D03*
X056198Y028404D02*
D03*
X058967Y030659D02*
D03*
X059203D02*
D03*
X037835Y030079D02*
D03*
Y030315D02*
D03*
X034955Y04153D02*
D03*
X033287Y041526D02*
D03*
X036791Y038179D02*
D03*
X028189Y021496D02*
D03*
X028465D02*
D03*
X02874D02*
D03*
Y02189D02*
D03*
X028465Y024016D02*
D03*
X028819D02*
D03*
X029213Y02437D02*
D03*
X028819D02*
D03*
Y024685D02*
D03*
X028465Y025D02*
D03*
Y025276D02*
D03*
Y025551D02*
D03*
X029173Y028386D02*
D03*
Y028701D02*
D03*
X028453Y029002D02*
D03*
X02878Y029016D02*
D03*
X028767Y028687D02*
D03*
Y028372D02*
D03*
X02878Y028031D02*
D03*
X028425D02*
D03*
X046909Y02999D02*
D03*
Y031939D02*
D03*
X044146Y0439D02*
D03*
X044188Y0441D02*
D03*
X043327Y044488D02*
D03*
X045098Y042943D02*
D03*
X045354Y042657D02*
D03*
X045325Y042874D02*
D03*
X043583Y019803D02*
D03*
X04163Y023882D02*
D03*
X041628Y023608D02*
D03*
Y023333D02*
D03*
Y023057D02*
D03*
Y022781D02*
D03*
Y022496D02*
D03*
X04547Y024368D02*
D03*
X045707D02*
D03*
X056968Y025984D02*
D03*
X055037Y028654D02*
D03*
Y028939D02*
D03*
Y029215D02*
D03*
Y02949D02*
D03*
Y029766D02*
D03*
X055039Y030039D02*
D03*
X059636Y024833D02*
D03*
X058189Y025866D02*
D03*
X053514Y021841D02*
D03*
X053858Y021654D02*
D03*
X047677D02*
D03*
X048071Y021811D02*
D03*
X062756Y02185D02*
D03*
X06315Y021654D02*
D03*
X057283Y021811D02*
D03*
X05689Y021654D02*
D03*
X050118Y024088D02*
D03*
Y023379D02*
D03*
X051575Y024094D02*
D03*
Y023386D02*
D03*
X031024Y019882D02*
D03*
X056135Y032577D02*
D03*
X032037Y032343D02*
D03*
Y030965D02*
D03*
X031476Y031142D02*
D03*
Y032165D02*
D03*
X029472Y03215D02*
D03*
X029469Y031142D02*
D03*
X028465D02*
D03*
X028461Y03215D02*
D03*
X033386Y034449D02*
D03*
Y033425D02*
D03*
X03489Y034682D02*
D03*
X059331Y024016D02*
D03*
Y023307D02*
D03*
X060866D02*
D03*
Y024016D02*
D03*
X057697Y036205D02*
D03*
X05755Y036115D02*
D03*
X032362Y017795D02*
D03*
X03378Y017598D02*
D03*
X029862Y021634D02*
D03*
X043566Y046118D02*
D03*
X043526Y045842D02*
D03*
X043251Y045763D02*
D03*
X03939Y04065D02*
D03*
Y042224D02*
D03*
X048002Y042185D02*
D03*
X048228Y041427D02*
D03*
X048523Y042165D02*
D03*
X047336Y042708D02*
D03*
X047953Y042835D02*
D03*
X048701Y042904D02*
D03*
X049567Y044045D02*
D03*
X048307Y044262D02*
D03*
X047986Y043201D02*
D03*
X047313Y043543D02*
D03*
X056333Y032578D02*
D03*
X052126Y033701D02*
D03*
X052402D02*
D03*
X056439Y027646D02*
D03*
X056626D02*
D03*
X056537Y029722D02*
D03*
X056538Y02991D02*
D03*
X059943Y029073D02*
D03*
Y028285D02*
D03*
X056738Y027445D02*
D03*
X05764Y025943D02*
D03*
X0589Y026819D02*
D03*
X059146D02*
D03*
X045738Y020659D02*
D03*
X045492D02*
D03*
X044232Y019783D02*
D03*
X043331Y021286D02*
D03*
X046535Y022126D02*
D03*
Y022913D02*
D03*
X04313Y023563D02*
D03*
X042628Y022285D02*
D03*
X042811Y022262D02*
D03*
X043218Y021486D02*
D03*
X043032D02*
D03*
X035693Y041092D02*
D03*
X037067Y039144D02*
D03*
X03686D02*
D03*
X037303Y036929D02*
D03*
X03626Y042402D02*
D03*
X035787Y041811D02*
D03*
X035906Y03625D02*
D03*
X033799D02*
D03*
X032884Y03624D02*
D03*
X035305Y041093D02*
D03*
X034114Y041102D02*
D03*
X032835Y041142D02*
D03*
X030906Y04063D02*
D03*
X030709D02*
D03*
X030472D02*
D03*
X030955Y041968D02*
D03*
X030748D02*
D03*
X046909Y037057D02*
D03*
X055266Y042913D02*
D03*
X055276Y043917D02*
D03*
X053386Y042402D02*
D03*
X030531Y03753D02*
D03*
Y037766D02*
D03*
X030482Y036457D02*
D03*
X059055Y038701D02*
D03*
X059331Y035945D02*
D03*
X057795Y046535D02*
D03*
X057402D02*
D03*
X057047D02*
D03*
X060266Y035098D02*
D03*
X057313Y038396D02*
D03*
X057638Y039951D02*
D03*
X057913Y033081D02*
D03*
X059439Y035325D02*
D03*
X060502Y037146D02*
D03*
Y037539D02*
D03*
X059724Y038701D02*
D03*
X060079D02*
D03*
X051024Y046811D02*
D03*
X044213Y046929D02*
D03*
X039646Y047008D02*
D03*
X041496Y04752D02*
D03*
X054134Y047323D02*
D03*
X04685Y047402D02*
D03*
D201*
X056339Y016811D02*
D03*
X046967Y01673D02*
D03*
X031417Y017512D02*
D03*
X030945Y018268D02*
D03*
X030942Y018656D02*
D03*
Y019065D02*
D03*
X031299Y018661D02*
D03*
Y01907D02*
D03*
X030591Y018268D02*
D03*
Y018661D02*
D03*
X03315Y024528D02*
D03*
X033583D02*
D03*
X034016D02*
D03*
X033346Y019055D02*
D03*
X032913D02*
D03*
X03378D02*
D03*
X037992Y019606D02*
D03*
Y02D02*
D03*
X037461Y02125D02*
D03*
X037598Y021575D02*
D03*
M02*
