G04*
G04 #@! TF.GenerationSoftware,Altium Limited,Altium Designer,18.1.6 (161)*
G04*
G04 Layer_Color=16711935*
%FSTAX24Y24*%
%MOIN*%
G70*
G01*
G75*
%ADD23C,0.0010*%
D23*
X058569Y025197D02*
X059069D01*
X058819Y024947D02*
Y025447D01*
X034512Y033393D02*
X035012D01*
X034762Y033143D02*
Y033643D01*
X049575Y043354D02*
X050075D01*
X049825Y043104D02*
Y043604D01*
X057356Y032419D02*
X057856D01*
X057606Y032169D02*
Y032669D01*
X057356Y031464D02*
X057856D01*
X057356Y031947D02*
X057856D01*
X057606Y031697D02*
Y032197D01*
Y031214D02*
Y031714D01*
X045161Y019037D02*
X045661D01*
X045411Y018787D02*
Y019287D01*
X047264Y023416D02*
Y023916D01*
X047014Y023666D02*
X047514D01*
X047266Y024349D02*
Y024849D01*
X047016Y024599D02*
X047516D01*
X047266Y023886D02*
Y024386D01*
X047016Y024136D02*
X047516D01*
X053134Y034244D02*
X053634D01*
X053384Y033994D02*
Y034494D01*
X053384Y033522D02*
Y034022D01*
X053134Y033772D02*
X053634D01*
X049825Y042632D02*
Y043132D01*
X049575Y042882D02*
X050075D01*
X049575Y04239D02*
X050075D01*
X049825Y04214D02*
Y04264D01*
X037237Y034553D02*
X037737D01*
X037487Y034303D02*
Y034803D01*
X036292Y034553D02*
X036792D01*
X036542Y034303D02*
Y034803D01*
X037014Y034303D02*
Y034803D01*
X036764Y034553D02*
X037264D01*
X037941Y041101D02*
Y041601D01*
X037691Y041351D02*
X038191D01*
M02*
