G04*
G04 #@! TF.GenerationSoftware,Altium Limited,Altium Designer,18.1.6 (161)*
G04*
G04 Layer_Color=16711935*
%FSTAX24Y24*%
%MOIN*%
G70*
G01*
G75*
%ADD14C,0.0079*%
%ADD16C,0.0200*%
%ADD19C,0.0039*%
%ADD20C,0.0050*%
%ADD23C,0.0010*%
%ADD211C,0.0000*%
%ADD212C,0.0033*%
D14*
X062018Y028691D02*
G03*
X062018Y028691I-000039J0D01*
G01*
X031516Y01689D02*
G03*
X031516Y01689I-000039J0D01*
G01*
D16*
X030108Y024055D02*
G03*
X030108Y024055I-00015J0D01*
G01*
Y02811D02*
G03*
X030108Y02811I-00015J0D01*
G01*
D19*
X030996Y016398D02*
X034516D01*
Y013504D02*
Y016398D01*
X030996Y013504D02*
X034516D01*
X030996D02*
Y016398D01*
X034516Y013504D02*
X036063D01*
D20*
X057766Y029104D02*
Y034616D01*
Y029104D02*
X06375D01*
Y029498D01*
Y030856D02*
Y034616D01*
X057766D02*
X06375D01*
Y029498D02*
X064222D01*
Y030856D01*
X06375D02*
X064222D01*
D23*
X028168Y021693D02*
Y024763D01*
Y021693D02*
X029548D01*
Y024763D01*
X028168D02*
X029548D01*
X028168Y028818D02*
X029548D01*
Y025748D02*
Y028818D01*
X028168Y025748D02*
X029548D01*
X028168D02*
Y028818D01*
D211*
X04237Y03984D02*
G03*
X04213Y03984I-00012J0D01*
G01*
X04347D02*
Y0454D01*
X04237Y03984D02*
X04347D01*
X04213D02*
X04237D01*
X04103D02*
X04213D01*
X04103D02*
Y0454D01*
X04347D01*
X04062Y03991D02*
X04103D01*
X04062D02*
Y04002D01*
X04103D01*
Y03991D02*
Y04002D01*
X04062Y04011D02*
X04103D01*
X04062D02*
Y04021D01*
X04103D01*
Y04011D02*
Y04021D01*
X04062Y0403D02*
X04103D01*
X04062D02*
Y04041D01*
X04103D01*
Y0403D02*
Y04041D01*
X04062Y0405D02*
X04103D01*
X04062D02*
Y04061D01*
X04103D01*
Y0405D02*
Y04061D01*
X04062Y0407D02*
X04103D01*
X04062D02*
Y0408D01*
X04103D01*
Y0407D02*
Y0408D01*
X04062Y04089D02*
X04103D01*
X04062D02*
Y041D01*
X04103D01*
Y04089D02*
Y041D01*
X04062Y04109D02*
X04103D01*
X04062D02*
Y0412D01*
X04103D01*
Y04109D02*
Y0412D01*
X04062Y04129D02*
X04103D01*
X04062D02*
Y04139D01*
X04103D01*
Y04129D02*
Y04139D01*
X04062Y04148D02*
X04103D01*
X04062D02*
Y04159D01*
X04103D01*
Y04148D02*
Y04159D01*
X04062Y04168D02*
X04103D01*
X04062D02*
Y04179D01*
X04103D01*
Y04168D02*
Y04179D01*
X04062Y04188D02*
X04103D01*
X04062D02*
Y04198D01*
X04103D01*
Y04188D02*
Y04198D01*
X04062Y04207D02*
X04103D01*
X04062D02*
Y04218D01*
X04103D01*
Y04207D02*
Y04218D01*
X04062Y04227D02*
X04103D01*
X04062D02*
Y04238D01*
X04103D01*
Y04227D02*
Y04238D01*
X04062Y04247D02*
X04103D01*
X04062D02*
Y04257D01*
X04103D01*
Y04247D02*
Y04257D01*
X04062Y04267D02*
X04103D01*
X04062D02*
Y04277D01*
X04103D01*
Y04267D02*
Y04277D01*
X04062Y04286D02*
X04103D01*
X04062D02*
Y04297D01*
X04103D01*
Y04286D02*
Y04297D01*
X04062Y04306D02*
X04103D01*
X04062D02*
Y04317D01*
X04103D01*
Y04306D02*
Y04317D01*
X04062Y04326D02*
X04103D01*
X04062D02*
Y04336D01*
X04103D01*
Y04326D02*
Y04336D01*
X04062Y04345D02*
X04103D01*
X04062D02*
Y04356D01*
X04103D01*
Y04345D02*
Y04356D01*
X04062Y04365D02*
X04103D01*
X04062D02*
Y04376D01*
X04103D01*
Y04365D02*
Y04376D01*
X04062Y04385D02*
X04103D01*
X04062D02*
Y04395D01*
X04103D01*
Y04385D02*
Y04395D01*
X04062Y04404D02*
X04103D01*
X04062D02*
Y04415D01*
X04103D01*
Y04404D02*
Y04415D01*
X04062Y04424D02*
X04103D01*
X04062D02*
Y04435D01*
X04103D01*
Y04424D02*
Y04435D01*
X04062Y04444D02*
X04103D01*
X04062D02*
Y04454D01*
X04103D01*
Y04444D02*
Y04454D01*
X04062Y04463D02*
X04103D01*
X04062D02*
Y04474D01*
X04103D01*
Y04463D02*
Y04474D01*
X04062Y04483D02*
X04103D01*
X04062D02*
Y04494D01*
X04103D01*
Y04483D02*
Y04494D01*
X04062Y04503D02*
X04103D01*
X04062D02*
Y04513D01*
X04103D01*
Y04503D02*
Y04513D01*
X04062Y04522D02*
X04103D01*
X04062D02*
Y04533D01*
X04103D01*
Y04522D02*
Y04533D01*
X04347D02*
X04388D01*
Y04522D02*
Y04533D01*
X04347Y04522D02*
X04388D01*
X04347D02*
Y04533D01*
Y04513D02*
X04388D01*
Y04503D02*
Y04513D01*
X04347Y04503D02*
X04388D01*
X04347D02*
Y04513D01*
Y04494D02*
X04388D01*
Y04483D02*
Y04494D01*
X04347Y04483D02*
X04388D01*
X04347D02*
Y04494D01*
Y04474D02*
X04388D01*
Y04463D02*
Y04474D01*
X04347Y04463D02*
X04388D01*
X04347D02*
Y04474D01*
Y04454D02*
X04388D01*
Y04444D02*
Y04454D01*
X04347Y04444D02*
X04388D01*
X04347D02*
Y04454D01*
Y04435D02*
X04388D01*
Y04424D02*
Y04435D01*
X04347Y04424D02*
X04388D01*
X04347D02*
Y04435D01*
Y04415D02*
X04388D01*
Y04404D02*
Y04415D01*
X04347Y04404D02*
X04388D01*
X04347D02*
Y04415D01*
Y04395D02*
X04388D01*
Y04385D02*
Y04395D01*
X04347Y04385D02*
X04388D01*
X04347D02*
Y04395D01*
Y04376D02*
X04388D01*
Y04365D02*
Y04376D01*
X04347Y04365D02*
X04388D01*
X04347D02*
Y04376D01*
Y04356D02*
X04388D01*
Y04345D02*
Y04356D01*
X04347Y04345D02*
X04388D01*
X04347D02*
Y04356D01*
Y04336D02*
X04388D01*
Y04326D02*
Y04336D01*
X04347Y04326D02*
X04388D01*
X04347D02*
Y04336D01*
Y04317D02*
X04388D01*
Y04306D02*
Y04317D01*
X04347Y04306D02*
X04388D01*
X04347D02*
Y04317D01*
Y04297D02*
X04388D01*
Y04286D02*
Y04297D01*
X04347Y04286D02*
X04388D01*
X04347D02*
Y04297D01*
Y04277D02*
X04388D01*
Y04267D02*
Y04277D01*
X04347Y04267D02*
X04388D01*
X04347D02*
Y04277D01*
Y04257D02*
X04388D01*
Y04247D02*
Y04257D01*
X04347Y04247D02*
X04388D01*
X04347D02*
Y04257D01*
Y04238D02*
X04388D01*
Y04227D02*
Y04238D01*
X04347Y04227D02*
X04388D01*
X04347D02*
Y04238D01*
Y04218D02*
X04388D01*
Y04207D02*
Y04218D01*
X04347Y04207D02*
X04388D01*
X04347D02*
Y04218D01*
Y04198D02*
X04388D01*
Y04188D02*
Y04198D01*
X04347Y04188D02*
X04388D01*
X04347D02*
Y04198D01*
Y04179D02*
X04388D01*
Y04168D02*
Y04179D01*
X04347Y04168D02*
X04388D01*
X04347D02*
Y04179D01*
Y04159D02*
X04388D01*
Y04148D02*
Y04159D01*
X04347Y04148D02*
X04388D01*
X04347D02*
Y04159D01*
Y04139D02*
X04388D01*
Y04129D02*
Y04139D01*
X04347Y04129D02*
X04388D01*
X04347D02*
Y04139D01*
Y0412D02*
X04388D01*
Y04109D02*
Y0412D01*
X04347Y04109D02*
X04388D01*
X04347D02*
Y0412D01*
Y041D02*
X04388D01*
Y04089D02*
Y041D01*
X04347Y04089D02*
X04388D01*
X04347D02*
Y041D01*
Y0408D02*
X04388D01*
Y0407D02*
Y0408D01*
X04347Y0407D02*
X04388D01*
X04347D02*
Y0408D01*
Y04061D02*
X04388D01*
Y0405D02*
Y04061D01*
X04347Y0405D02*
X04388D01*
X04347D02*
Y04061D01*
Y04041D02*
X04388D01*
Y0403D02*
Y04041D01*
X04347Y0403D02*
X04388D01*
X04347D02*
Y04041D01*
Y04021D02*
X04388D01*
Y04011D02*
Y04021D01*
X04347Y04011D02*
X04388D01*
X04347D02*
Y04021D01*
Y04002D02*
X04388D01*
Y03991D02*
Y04002D01*
X04347Y03991D02*
X04388D01*
X04347D02*
Y04002D01*
D212*
X034882Y013543D02*
Y013703D01*
X034962D01*
X034989Y013677D01*
Y013623D01*
X034962Y013597D01*
X034882D01*
X035148Y013677D02*
X035122Y013703D01*
X035068D01*
X035042Y013677D01*
Y01357D01*
X035068Y013543D01*
X035122D01*
X035148Y01357D01*
X035202Y013703D02*
Y013543D01*
X035282D01*
X035308Y01357D01*
Y013597D01*
X035282Y013623D01*
X035202D01*
X035282D01*
X035308Y01365D01*
Y013677D01*
X035282Y013703D01*
X035202D01*
X035628D02*
X035522D01*
Y013543D01*
X035628D01*
X035522Y013623D02*
X035575D01*
X035682Y013703D02*
Y013543D01*
X035762D01*
X035788Y01357D01*
Y013677D01*
X035762Y013703D01*
X035682D01*
X035948Y013677D02*
X035922Y013703D01*
X035868D01*
X035842Y013677D01*
Y01357D01*
X035868Y013543D01*
X035922D01*
X035948Y01357D01*
Y013623D01*
X035895D01*
X036108Y013703D02*
X036002D01*
Y013543D01*
X036108D01*
X036002Y013623D02*
X036055D01*
M02*
