M48
;Layer_Color=9474304
;FILE_FORMAT=2:4
INCH,LZ
;TYPE=PLATED
T1F00S00C0.0079
T2F00S00C0.0118
T3F00S00C0.0157
T5F00S00C0.0354
T6F00S00C0.0362
T7F00S00C0.0400
T8F00S00C0.0420
T9F00S00C0.0512
T10F00S00C0.0630
T11F00S00C0.0787
T12F00S00C0.0890
T13F00S00C0.1181
T14F00S00C0.1299
T15F00S00C0.1378
;TYPE=NON_PLATED
T16F00S00C0.0256
T17F00S00C0.0472
T18F00S00C0.0660
%
T01
X062756Y02185
X06315Y021654
X061594Y022815
Y023051
X060866Y023307
Y024016
X059331
Y023307
X059636Y024833
X059026Y026526
X059146Y026819
X0589
X058526Y026346
X058189Y025866
X05764Y025943
X057787Y026487
X057472
X057157Y026494
X056968Y025984
X056654Y02685
X056457
X056439Y027646
X056626
X056738Y027445
X056886Y027376
X056791Y028081
X05679Y02831
X056198Y028404
X056024
X055593Y02864
Y028925
Y029201
Y029476
Y029752
Y030028
X055039Y030039
X055037Y029766
Y02949
Y029215
Y028939
Y028654
X055074Y027559
X053111Y027481
Y027048
X052835Y027205
X052677Y026969
X052362
X051937Y026006
X051504
X051071
X050638
X050205
X049772
X049339
X048906
X048473
X04804
X047607
X047174
X046959Y027077
X048268Y027096
X049579Y027491
X050895
X05185Y028809
X053111Y028781
X05311Y028346
X053111Y027915
X052795Y029213
X053111Y029647
X053111Y030079
Y030512
Y030945
X052303Y030906
X052205Y029843
X054252Y030945
X054409Y031102
X054646
X055315Y031063
X056191Y031112
X056181Y030846
X056299Y030118
X056538Y02991
X056537Y029722
X056931Y029486
X057244Y030197
X057441Y030079
X057638Y030197
X057677Y030581
X0581Y030472
X058209Y030689
X058612Y03062
X058602Y030876
X058967Y030659
X059203
X059352Y03028
X059872Y02998
X059943Y029073
X0594Y029075
X059409Y028287
X059943Y028285
X059413Y027357
X05811Y028051
Y028346
Y028642
X058504
Y029035
X05811
Y029291
X057717Y028642
Y028346
Y028051
X05687Y030492
X05689Y021654
X057283Y021811
X056063Y021654
X055866
Y021378
X056063
X055
X054764
Y021654
X055
X053858
X053514Y021841
X052323Y022835
Y023071
X051575Y023386
Y024094
X050118Y024088
Y023379
X05076Y021998
Y021762
X048071Y021811
X047677Y021654
X048012Y024528
X047815Y025325
X049695Y025295
X046909Y02999
X05998Y021998
Y021762
X046535Y022126
X045984
Y022913
X046535
X046368Y024203
X046614Y024341
X045707Y024368
X04547
X045856Y024006
X044449Y024331
X044252Y024134
X044055Y024331
X043199Y024242
X043061Y024055
X04313Y023751
X04313Y023563
X043524Y023327
X044291Y022992
Y022598
X044685
X045079
Y022992
X044685
Y022165
X045079
X044291
X043395Y022147
X043386Y021919
X043218Y021486
X043032
X043331Y021286
X043478Y021217
X043248Y020669
X043051
X04375Y020335
X044065Y020327
X04438
X044232Y019783
X044764Y019685
X045118Y020187
X04562Y020378
X045738Y020659
X045492
X046082Y021201
X046453Y018933
X046201Y016339
Y016142
X045807
Y016339
X045413
Y016142
X045118
Y016339
X043583Y019803
X041369Y020518
X041094
X040709Y021378
X040433
X041772Y021917
X041628Y022496
Y022781
Y023057
Y023333
Y023608
X04163Y023882
X042185Y023868
Y023593
Y023317
Y023041
Y022766
Y02248
X042293Y022274
X042628Y022285
X042811Y022262
X041693Y024557
X041585Y02626
X04241Y026006
X042992Y025915
X044575Y026006
X044843Y025669
X045441Y026006
X046079Y025732
X046741Y026006
X046308Y026849
X045876Y026847
X046356Y028307
X046355Y028809
X046356Y029311
X046358Y029803
X046362Y030295
X046356Y030807
X043461Y030594
X043701Y029213
X044508
Y029469
X044911Y028563
X045157Y028071
X044321Y02815
X041183Y027916
X041181Y027559
X041183Y02705
X040128Y028435
Y028691
X037835Y030079
Y030315
X037953Y031181
X037717
X032037Y030965
X031476Y031142
X033583Y027008
X033465Y026614
X031378Y020728
X032362Y017795
X032795Y016929
X033105Y016924
X03378Y017598
X039528Y023661
X030787Y022579
Y022382
X029488Y022638
X029862Y021634
X029685Y020689
X030591Y019882
X031024Y019882
X02874Y021496
X028465
X028189
X02874Y02189
X028819Y024016
X028465
X028819Y02437
Y024685
X028465Y025
Y025276
Y025551
X029213Y02437
X029724Y026457
X029173Y028386
Y028701
X028767Y028687
Y028372
X02878Y028031
X028425
X028453Y029002
X02878Y029016
X028465Y031142
X029252
X029469
X030256
X030866Y030945
Y032362
X03026Y03215
X029472
X029256Y03215
X028461
X030069Y035797
X030482Y036457
X030531Y03753
Y037766
X030827Y039409
Y039606
X030906Y04063
X030709
X030472
X030748Y041968
X030955
X032421Y042126
X032835Y041142
X033287Y041526
X033533Y041526
X034114Y041102
X034715Y041526
X034955Y04153
X035305Y041093
X035693Y041092
X035945Y041476
X03622Y041486
X036614
X037028Y041535
X036992Y040817
X037057Y040413
X037057Y040157
Y039941
X036526Y039921
Y040157
X036496Y040384
X036703Y041102
X035787Y041811
X03626Y042402
X036654Y04314
Y04373
X037372Y043425
X03939Y043209
X0394Y04372
X040119Y043509
X040318Y043703
Y043313
Y042923
Y042523
Y042133
X03998Y041929
X03939Y041634
Y042224
X039862Y042736
X040318Y044103
Y044493
X040119Y044689
X040118Y045079
X040315Y045285
X039843Y045551
Y045787
X039016Y045709
X03874Y045354
X038976Y045079
X041205Y044284
X043327Y044488
X043099Y044879
X043298Y045083
X043251Y045763
X043526Y045842
X043566Y046118
X045Y045827
X045236
X045354Y045591
X045118
X044882
X045315Y046772
X045748
X046181
X046614
X045591Y04374
X045354
X045325Y042874
X045354Y042657
X045098Y042943
X044213Y0431
Y043317
X044146Y0439
X044188Y0441
X043268Y043719
Y043502
Y042929
Y042712
Y041749
Y041532
X043298Y041143
Y040753
X043141Y04055
X043298Y040363
Y039963
X043346Y039528
Y039331
X043543Y039252
Y039449
Y039646
X04374Y039567
Y039331
X043898Y039449
X044016Y039606
X044575Y038476
X045008
X045441
X045874
X046308
X046741
X045928Y03754
X046364Y036909
X046355Y036427
X046361Y035915
X046357Y035423
X046358Y034921
X046359Y034419
X04636Y033917
X046356Y033425
X046359Y031801
X046355Y031309
X043573Y032096
X04214Y031925
X042136Y033553
X041073Y033632
Y033888
Y034498
Y034754
Y035364
Y03562
Y03623
Y036486
Y037096
Y037352
X043661Y036929
X043415Y036152
Y034764
X040118Y031811
X037953Y031417
X037717
X037343Y031909
X037323Y033583
X037598
X037874
X035443Y033622
Y033858
X035118Y034685
X03489Y034682
X033386Y034449
Y033425
X032037Y032343
X031476Y032165
X031624Y037195
X031807Y037396
X031624Y037589
X031807Y03779
X031624Y037982
X031378Y038071
X031807Y038183
X031624Y038573
X031807Y038774
X031624Y038967
X031807Y039168
X031624Y03936
X031781Y039557
X031805Y039957
X031722Y040699
X03154Y040518
X0319Y040915
X032923Y039134
X033159Y038415
X03313Y038091
X033888Y038179
Y037953
X033919Y036658
X034121Y036474
X034313Y036658
X034514Y036474
X034707Y036658
X034908Y036474
X035101Y036658
X035302Y036474
X035494Y036658
X035906Y03625
X036713Y036929
X036909
X037303
X0375
X037087Y03815
X036791Y038179
X036795Y037955
X03686Y039144
X037067
X037283Y039331
X03686Y03936
X03939Y040059
Y04065
X040119Y040359
X040318Y040553
Y040163
Y040953
X040119Y041139
X040318Y041343
X04123Y041732
X043099Y040949
X044152Y04134
X044213Y04192
Y042137
X036181Y045394
X035
X034409
X033819
X033228
X032943Y037185
X032992Y036614
X033353Y036504
X033526Y036658
X033583Y03625
X033799
X032884Y03624
X032667
X032542Y036658
X032349Y036474
X046909Y037057
X047244Y037539
X047174Y038476
X047607
X04856Y037539
X049876
X051191
X052212Y037837
Y036448
Y035058
X052648Y034803
X052648Y034331
X053071Y034567
X052825Y033612
X052402Y033701
X052126
X051575Y033661
X051339
X051457Y033819
X054104Y034006
X05439
X054033Y034845
Y035278
Y035711
Y036144
Y036577
X055571Y036043
X056929Y036142
Y036339
X05755Y036115
X057697Y036205
X057628Y035846
X057657Y035472
X057411Y03564
X057047Y035305
X056988Y035079
X056993Y034822
X056181Y034705
Y034232
Y03376
Y033287
X05623Y032825
X056135Y032577
X056333Y032578
X056181Y031831
X056191Y031339
X056841Y031703
X05752Y031624
X058368Y031829
X057913Y033081
X059498Y033494
X059439Y035325
X059833
X060266Y035098
X060157Y035689
X060394
X059331Y035945
X058809Y035364
X058937Y034961
X058346
X058268Y035354
X058858Y037047
Y037441
Y037835
Y038228
X059252
Y037835
Y037441
Y037047
X059646
Y037441
X060039
Y037047
X060502Y037146
Y037539
X061083
Y037146
X060039Y037835
Y038228
X059646
Y037835
X059724Y038701
X060079
X059803Y03937
X059055Y038701
X057657Y039004
X057539Y039161
X057815
X057638Y039951
X057126Y039646
X05685Y038652
X057313Y038396
X057037Y038071
X055354Y038819
X055512Y039173
X055315Y041614
Y04185
X055276Y042402
X055266Y042913
X055287Y043425
X055276Y043917
X054213Y043898
X054173Y043425
Y042913
Y042402
Y041929
X053386Y042402
X050699Y042323
X050689Y042795
X050118Y043189
X050039Y043858
X049685Y043583
X049518Y043376
X049567Y044045
X049528Y044646
X049173Y044528
X048898
X048504
X048307Y044262
X048452Y043603
X048701Y043602
X048701Y043268
Y042904
Y042461
X048346Y04251
X048307Y042106
X048523Y042165
X048002Y042185
X047953Y042835
X047986Y043201
X047657Y04315
X047392
X047313Y043543
X048061
X048278Y043061
X047336Y042708
X04752Y041132
X047087
X047953
X048228Y041427
X048533Y041122
X048819Y041132
X049252
X049685
X050118
X050717Y041828
X049508Y042057
X051024Y046811
X051772Y046772
X052165Y046693
X052598
X053032
X053465
X053898
X057047Y046535
X057402
X057795
X058839Y042697
X059439Y04248
X061575Y035502
X062005Y035492
X055846Y033012
X055039Y032165
X05311Y032244
X053111Y031812
Y031379
X052283Y031693
X046909Y031939
X054134Y047323
X04685Y047402
X044961Y046929
X044213
X04126Y04689
X040787
X040354Y047038
X039646Y047008
X041496Y04752
T02
X057313Y027126
X043927Y020994
X053337Y041614
T03
X046967Y01673
X056339Y016811
X059467Y026615
X046102Y020472
X037992Y02
Y019606
X037461Y02125
X037598Y021575
X039213Y024213
X037323Y026654
Y027047
Y027441
X036929
Y027047
Y026654
X034016Y024528
X033583
X03315
X032323Y024631
X031965Y024625
X031956Y025083
X032314Y025088
X032283Y019055
Y018661
X03185Y019055
X031299Y01907
Y018661
X031417Y017512
X032913Y019055
X033346
X03378
X030942Y019065
Y018656
X030591Y018661
Y018268
X030945
X031815Y041384
X039331Y046496
X041732Y046102
X04685Y04
T05
X048787Y021239
X049587
X050387
X051187
X051987
X052787
X052387Y022239
X051587
X053187
X049987
X049187
X048387
X057607
X058407
X059207
X059607Y021239
X058807
X058007
X060407
X061207
X062007
X061607Y022239
X060807
X062407
X031724Y030354
X030724
X029724
X028724
X028709Y032992
X029709
X030709
X030709Y034606
X029709
X031709
X031709Y032992
X047331Y048583
X048331
X046331
X045331
X044331
X043331
X041984
X040984
X039984
X038984
T06
X039252Y018508
X040236
X041024
X042008
T07
X063632Y036585
Y037726
Y038878
T08
X049677Y048583
X050677
X051677
X052677
X053677
X054677
X055677
T09
X047827Y015139
X053747
X057047
X062967
Y016139
X057047
Y017139
X053747Y016139
X047827
Y017139
T10
X063467Y018639
X056547
X054247
X047327
T11
X031949Y047415
X037657
T12
X038043Y017441
X043217
T13
X031949Y045069
X037657
T14
X048887Y018639
X052687
X058107
X061907
T15
X029173Y014567
X063032Y024803
Y048032
X029173
T16
X031618Y015976
X033894
T17
X054738Y041413
X054339Y044413
X055138
T18
X058858Y043892
Y046648
M30
