G04*
G04 #@! TF.GenerationSoftware,Altium Limited,Altium Designer,18.1.6 (161)*
G04*
G04 Layer_Color=255*
%FSTAX24Y24*%
%MOIN*%
G70*
G01*
G75*
%ADD24R,0.0197X0.0236*%
%ADD25R,0.0118X0.0118*%
%ADD26R,0.0118X0.0118*%
%ADD28R,0.0236X0.0197*%
%ADD30R,0.0157X0.0197*%
%ADD31R,0.0200X0.0140*%
%ADD36R,0.0197X0.0157*%
%ADD47R,0.0197X0.0197*%
%ADD48R,0.0236X0.0197*%
%ADD64R,0.0197X0.0236*%
G04:AMPARAMS|DCode=67|XSize=47.6mil|YSize=22.8mil|CornerRadius=2.9mil|HoleSize=0mil|Usage=FLASHONLY|Rotation=0.000|XOffset=0mil|YOffset=0mil|HoleType=Round|Shape=RoundedRectangle|*
%AMROUNDEDRECTD67*
21,1,0.0476,0.0171,0,0,0.0*
21,1,0.0419,0.0228,0,0,0.0*
1,1,0.0057,0.0210,-0.0086*
1,1,0.0057,-0.0210,-0.0086*
1,1,0.0057,-0.0210,0.0086*
1,1,0.0057,0.0210,0.0086*
%
%ADD67ROUNDEDRECTD67*%
%ADD76R,0.0197X0.0197*%
%ADD77R,0.0512X0.0354*%
%ADD78R,0.0137X0.0297*%
%ADD165C,0.0400*%
%ADD181C,0.0600*%
%ADD182C,0.0750*%
%ADD183C,0.1000*%
%ADD184R,0.0591X0.0591*%
%ADD185C,0.0591*%
%ADD186C,0.1969*%
%ADD187C,0.0472*%
%ADD188C,0.0610*%
G04:AMPARAMS|DCode=189|XSize=70.9mil|YSize=39.4mil|CornerRadius=9.8mil|HoleSize=0mil|Usage=FLASHONLY|Rotation=90.000|XOffset=0mil|YOffset=0mil|HoleType=Round|Shape=RoundedRectangle|*
%AMROUNDEDRECTD189*
21,1,0.0709,0.0197,0,0,90.0*
21,1,0.0512,0.0394,0,0,90.0*
1,1,0.0197,0.0098,0.0256*
1,1,0.0197,0.0098,-0.0256*
1,1,0.0197,-0.0098,-0.0256*
1,1,0.0197,-0.0098,0.0256*
%
%ADD189ROUNDEDRECTD189*%
%ADD190O,0.0394X0.0827*%
%ADD191C,0.0256*%
%ADD192R,0.0562X0.0562*%
%ADD193C,0.0562*%
%ADD194C,0.1290*%
%ADD195C,0.0650*%
%ADD196O,0.1299X0.1575*%
%ADD197C,0.1181*%
%ADD198O,0.0650X0.0900*%
%ADD199R,0.0650X0.0900*%
%ADD203R,0.0748X0.0551*%
%ADD204R,0.0551X0.0709*%
%ADD205R,0.0591X0.0315*%
%ADD206R,0.0500X0.0299*%
D24*
X047884Y043543D02*
D03*
X04749D02*
D03*
X056516Y029016D02*
D03*
X056122D02*
D03*
X042754Y022945D02*
D03*
X043148D02*
D03*
X055866Y042441D02*
D03*
X055472D02*
D03*
X053965Y042402D02*
D03*
X053571D02*
D03*
X053571Y041929D02*
D03*
X053965D02*
D03*
X055866Y043425D02*
D03*
X055472D02*
D03*
X053571Y042913D02*
D03*
X053965D02*
D03*
X053571Y043425D02*
D03*
X053965D02*
D03*
X053465Y033937D02*
D03*
X053071D02*
D03*
X048957Y043543D02*
D03*
X04935D02*
D03*
X047953Y042835D02*
D03*
X048346D02*
D03*
D25*
X056339Y032427D02*
D03*
Y032218D02*
D03*
X056535Y028087D02*
D03*
Y027878D02*
D03*
X05747Y026343D02*
D03*
Y026135D02*
D03*
X057156Y02635D02*
D03*
Y026142D02*
D03*
X057785Y026343D02*
D03*
Y026135D02*
D03*
X056102Y032218D02*
D03*
Y032427D02*
D03*
X043148Y021718D02*
D03*
Y021927D02*
D03*
X060394Y035339D02*
D03*
Y035547D02*
D03*
X060157Y035339D02*
D03*
Y035547D02*
D03*
X059705Y038902D02*
D03*
Y03911D02*
D03*
X043748Y020191D02*
D03*
Y019982D02*
D03*
X044063Y020184D02*
D03*
Y019975D02*
D03*
X044378Y020184D02*
D03*
Y019975D02*
D03*
X049193Y044148D02*
D03*
Y044356D02*
D03*
X048701Y042762D02*
D03*
Y042553D02*
D03*
X047517Y042802D02*
D03*
Y04301D02*
D03*
X048632Y044148D02*
D03*
Y044356D02*
D03*
X048898Y044148D02*
D03*
Y044356D02*
D03*
D26*
X04214Y028307D02*
D03*
X042348D02*
D03*
X04214Y028809D02*
D03*
X042348D02*
D03*
X04214Y029301D02*
D03*
X042348D02*
D03*
X04214Y029813D02*
D03*
X042348D02*
D03*
X04214Y030305D02*
D03*
X042348D02*
D03*
X04214Y030817D02*
D03*
X042348D02*
D03*
X04214Y031309D02*
D03*
X042348D02*
D03*
X04214Y031811D02*
D03*
X042348D02*
D03*
X046703Y028307D02*
D03*
X046911D02*
D03*
X046703Y028809D02*
D03*
X046911D02*
D03*
X046703Y029311D02*
D03*
X046911D02*
D03*
X046703Y029803D02*
D03*
X046911D02*
D03*
X046703Y030295D02*
D03*
X046911D02*
D03*
X046703Y030807D02*
D03*
X046911D02*
D03*
X046703Y031309D02*
D03*
X046911D02*
D03*
Y031801D02*
D03*
X046703D02*
D03*
X055445Y028642D02*
D03*
X055236D02*
D03*
X055445Y03003D02*
D03*
X055236D02*
D03*
X055445Y028927D02*
D03*
X055236D02*
D03*
X055445Y029754D02*
D03*
X055236D02*
D03*
X056896Y029892D02*
D03*
X056687D02*
D03*
X056896Y029626D02*
D03*
X056687D02*
D03*
X055445Y029478D02*
D03*
X055236D02*
D03*
X055445Y029203D02*
D03*
X055236D02*
D03*
X056551Y028346D02*
D03*
X056343D02*
D03*
X041829Y02387D02*
D03*
X042037D02*
D03*
X043488Y023467D02*
D03*
X04328D02*
D03*
X043488Y023732D02*
D03*
X04328D02*
D03*
X042935Y022217D02*
D03*
X043144D02*
D03*
X042037Y022768D02*
D03*
X041829D02*
D03*
Y022482D02*
D03*
X042037D02*
D03*
Y023319D02*
D03*
X041829D02*
D03*
X042037Y023043D02*
D03*
X041829D02*
D03*
X055486Y04185D02*
D03*
X055695D02*
D03*
X060713Y037539D02*
D03*
X060921D02*
D03*
X041829Y023594D02*
D03*
X042037D02*
D03*
X060921Y037146D02*
D03*
X060713D02*
D03*
X046911Y034921D02*
D03*
X046703D02*
D03*
X046911Y036909D02*
D03*
X046703D02*
D03*
X046911Y036427D02*
D03*
X046703D02*
D03*
X046911Y035915D02*
D03*
X046703D02*
D03*
X046911Y035423D02*
D03*
X046703D02*
D03*
X046911Y034419D02*
D03*
X046703D02*
D03*
X046911Y033917D02*
D03*
X046703D02*
D03*
X046911Y033425D02*
D03*
X046703D02*
D03*
X042348Y034931D02*
D03*
X04214D02*
D03*
X042348Y036929D02*
D03*
X04214D02*
D03*
X042348Y036427D02*
D03*
X04214D02*
D03*
X042348Y035925D02*
D03*
X04214D02*
D03*
X042348Y035423D02*
D03*
X04214D02*
D03*
X042348Y034429D02*
D03*
X04214D02*
D03*
X042348Y033927D02*
D03*
X04214D02*
D03*
X042348Y033415D02*
D03*
X04214D02*
D03*
X049136Y043839D02*
D03*
X048927D02*
D03*
X048094Y04251D02*
D03*
X048303D02*
D03*
X04897Y042057D02*
D03*
X049179D02*
D03*
X048094Y042244D02*
D03*
X048303D02*
D03*
X047978Y043159D02*
D03*
X04777D02*
D03*
D28*
X028661Y03215D02*
D03*
X029055D02*
D03*
X030059Y031142D02*
D03*
X029665D02*
D03*
X029055D02*
D03*
X028661D02*
D03*
X029665Y03215D02*
D03*
X030059D02*
D03*
X055974Y030846D02*
D03*
X055581D02*
D03*
X055984Y031339D02*
D03*
X055591D02*
D03*
X055974Y031831D02*
D03*
X055581D02*
D03*
X055974Y033287D02*
D03*
X055581D02*
D03*
X055974Y03376D02*
D03*
X055581D02*
D03*
X055974Y034232D02*
D03*
X055581D02*
D03*
X055974Y034705D02*
D03*
X055581D02*
D03*
D30*
X056919Y030207D02*
D03*
X056604D02*
D03*
X043512Y024047D02*
D03*
X043197D02*
D03*
X057067Y037795D02*
D03*
X057382D02*
D03*
D31*
X049744Y042795D02*
D03*
X050374D02*
D03*
X053465Y034803D02*
D03*
X052835D02*
D03*
X052835Y034331D02*
D03*
X053465D02*
D03*
X050374Y042323D02*
D03*
X049744D02*
D03*
Y041831D02*
D03*
X050374D02*
D03*
D36*
X055876Y028071D02*
D03*
Y027756D02*
D03*
X042469Y021596D02*
D03*
Y021911D02*
D03*
D47*
X046967Y016144D02*
D03*
Y016537D02*
D03*
X056339Y016142D02*
D03*
Y016535D02*
D03*
X062756Y02126D02*
D03*
Y021654D02*
D03*
X06315Y022244D02*
D03*
Y02185D02*
D03*
X05689Y022244D02*
D03*
Y02185D02*
D03*
X057283Y02122D02*
D03*
Y021614D02*
D03*
X05625Y027657D02*
D03*
Y028051D02*
D03*
X055748Y032244D02*
D03*
Y032638D02*
D03*
X042843Y021892D02*
D03*
Y021498D02*
D03*
X048071Y02122D02*
D03*
Y021614D02*
D03*
X053514Y02125D02*
D03*
Y021644D02*
D03*
X047677Y022244D02*
D03*
Y02185D02*
D03*
X053858Y022244D02*
D03*
Y02185D02*
D03*
X060089Y038937D02*
D03*
Y039331D02*
D03*
X047244Y042677D02*
D03*
Y043071D02*
D03*
X049567Y044045D02*
D03*
Y044439D02*
D03*
D48*
X042992Y041831D02*
D03*
Y041437D02*
D03*
Y043022D02*
D03*
Y042628D02*
D03*
Y043809D02*
D03*
Y043415D02*
D03*
X057037Y025285D02*
D03*
Y025679D02*
D03*
X05747Y025285D02*
D03*
Y025679D02*
D03*
X057904Y025285D02*
D03*
Y025679D02*
D03*
X04363Y01952D02*
D03*
Y019126D02*
D03*
X044063Y01952D02*
D03*
Y019126D02*
D03*
X044496Y01952D02*
D03*
Y019126D02*
D03*
X050118Y040551D02*
D03*
Y040945D02*
D03*
X049685Y040551D02*
D03*
Y040945D02*
D03*
X049252Y040551D02*
D03*
Y040945D02*
D03*
X048819Y040551D02*
D03*
Y040945D02*
D03*
X048386Y040551D02*
D03*
Y040945D02*
D03*
X047953Y040551D02*
D03*
Y040945D02*
D03*
X04752Y040551D02*
D03*
Y040945D02*
D03*
X047087Y040551D02*
D03*
Y040945D02*
D03*
X049882Y043209D02*
D03*
Y043602D02*
D03*
X05003Y044045D02*
D03*
Y044439D02*
D03*
X044488Y043406D02*
D03*
Y043012D02*
D03*
Y041831D02*
D03*
Y042224D02*
D03*
D64*
X052598Y046929D02*
D03*
Y047323D02*
D03*
X053465Y046929D02*
D03*
Y047323D02*
D03*
X053032Y046929D02*
D03*
Y047323D02*
D03*
X052165Y046929D02*
D03*
Y047323D02*
D03*
X053898Y046929D02*
D03*
Y047323D02*
D03*
X046614Y047008D02*
D03*
Y047402D02*
D03*
X046181Y047008D02*
D03*
Y047402D02*
D03*
X045748Y047008D02*
D03*
Y047402D02*
D03*
X045315Y047008D02*
D03*
Y047402D02*
D03*
X04126Y047126D02*
D03*
Y04752D02*
D03*
X040787Y047126D02*
D03*
Y04752D02*
D03*
D67*
X054055Y033287D02*
D03*
Y032913D02*
D03*
Y032539D02*
D03*
X053067Y033287D02*
D03*
Y032913D02*
D03*
Y032539D02*
D03*
D76*
X056122Y028632D02*
D03*
X056516D02*
D03*
X043148Y022531D02*
D03*
X042754D02*
D03*
D77*
X052283Y032618D02*
D03*
Y033366D02*
D03*
X054921Y033051D02*
D03*
Y032303D02*
D03*
D78*
X03315Y018042D02*
D03*
X032756D02*
D03*
Y017233D02*
D03*
X03315D02*
D03*
D165*
X02937Y017224D02*
D03*
X063327Y026772D02*
D03*
X055354Y01437D02*
D03*
X029665Y04439D02*
D03*
D181*
X050387Y021239D02*
D03*
X049587D02*
D03*
X052387Y022239D02*
D03*
X051587D02*
D03*
X052787Y021239D02*
D03*
X048787D02*
D03*
X053187Y022239D02*
D03*
X048387D02*
D03*
X051187Y021239D02*
D03*
X051987D02*
D03*
X049187Y022239D02*
D03*
X049987D02*
D03*
X059607Y021239D02*
D03*
X058807D02*
D03*
X061607Y022239D02*
D03*
X060807D02*
D03*
X062007Y021239D02*
D03*
X058007D02*
D03*
X062407Y022239D02*
D03*
X057607D02*
D03*
X060407Y021239D02*
D03*
X061207D02*
D03*
X058407Y022239D02*
D03*
X059207D02*
D03*
D182*
X047827Y016139D02*
D03*
X053747Y015139D02*
D03*
X047827Y017139D02*
D03*
X053747Y016139D02*
D03*
X047827Y015139D02*
D03*
X057047Y016139D02*
D03*
X062967Y015139D02*
D03*
X057047Y017139D02*
D03*
X062967Y016139D02*
D03*
X057047Y015139D02*
D03*
D183*
X047327Y018639D02*
D03*
X054247D02*
D03*
X056547D02*
D03*
X063467D02*
D03*
D184*
X028709Y032992D02*
D03*
X028724Y030354D02*
D03*
X029709Y034606D02*
D03*
X041984Y048583D02*
D03*
X048331D02*
D03*
D185*
X029709Y032992D02*
D03*
X030709D02*
D03*
X031709D02*
D03*
X031724Y030354D02*
D03*
X030724D02*
D03*
X029724D02*
D03*
X030709Y034606D02*
D03*
X031709D02*
D03*
X040984Y048583D02*
D03*
X039984D02*
D03*
X038984D02*
D03*
X047331D02*
D03*
X046331D02*
D03*
X045331D02*
D03*
X044331D02*
D03*
X043331D02*
D03*
D186*
X063032Y024803D02*
D03*
X029173Y014567D02*
D03*
Y048032D02*
D03*
X063032D02*
D03*
D187*
X054738Y041413D02*
D03*
X054339Y044413D02*
D03*
X055138D02*
D03*
D188*
X058858Y043892D02*
D03*
Y046648D02*
D03*
D189*
X031055Y014528D02*
D03*
X034457D02*
D03*
D190*
X031055Y016173D02*
D03*
X034457D02*
D03*
D191*
X033894Y015976D02*
D03*
X031618D02*
D03*
D192*
X039252Y018508D02*
D03*
D193*
X040236D02*
D03*
X041024D02*
D03*
X042008D02*
D03*
D194*
X038043Y017441D02*
D03*
X043217D02*
D03*
D195*
X063632Y037726D02*
D03*
Y038878D02*
D03*
Y036585D02*
D03*
D196*
X031949Y045069D02*
D03*
X037657D02*
D03*
D197*
Y047415D02*
D03*
X031949D02*
D03*
D198*
X049677Y048583D02*
D03*
X051677D02*
D03*
X054677D02*
D03*
X053677D02*
D03*
X052677D02*
D03*
X050677D02*
D03*
D199*
X055677D02*
D03*
D203*
X0631Y034439D02*
D03*
X063494Y029262D02*
D03*
D204*
X057923Y033809D02*
D03*
Y031565D02*
D03*
D205*
X061978Y031963D02*
D03*
Y032829D02*
D03*
Y033695D02*
D03*
Y034128D02*
D03*
Y031096D02*
D03*
X061821Y03153D02*
D03*
X062057Y032396D02*
D03*
Y033262D02*
D03*
D206*
X043008Y031809D02*
D03*
Y031309D02*
D03*
Y030809D02*
D03*
Y030309D02*
D03*
Y029809D02*
D03*
Y029309D02*
D03*
Y028809D02*
D03*
Y028309D02*
D03*
X046008D02*
D03*
Y028809D02*
D03*
Y029309D02*
D03*
Y029809D02*
D03*
Y030309D02*
D03*
Y030809D02*
D03*
Y031309D02*
D03*
Y031809D02*
D03*
X046008Y036927D02*
D03*
Y036427D02*
D03*
Y035927D02*
D03*
Y035427D02*
D03*
Y034927D02*
D03*
Y034427D02*
D03*
Y033927D02*
D03*
Y033427D02*
D03*
X043008D02*
D03*
Y033927D02*
D03*
Y034427D02*
D03*
Y034927D02*
D03*
Y035427D02*
D03*
Y035927D02*
D03*
Y036427D02*
D03*
Y036927D02*
D03*
M02*
