G04*
G04 #@! TF.GenerationSoftware,Altium Limited,Altium Designer,18.1.6 (161)*
G04*
G04 Layer_Physical_Order=3*
G04 Layer_Color=36540*
%FSTAX24Y24*%
%MOIN*%
G70*
G01*
G75*
%ADD13C,0.0157*%
%ADD17C,0.0118*%
%ADD172C,0.0048*%
%ADD176C,0.0033*%
%ADD182C,0.0750*%
%ADD187C,0.0472*%
%ADD188C,0.0610*%
%ADD200C,0.0157*%
%ADD201C,0.0315*%
%ADD202C,0.0236*%
G36*
X04Y045866D02*
Y04515D01*
X039988Y045133D01*
X039978Y045079D01*
X039988Y045025D01*
X04Y045007D01*
Y044882D01*
X039803Y044685D01*
Y042862D01*
X039763Y042836D01*
X039732Y04279D01*
X039722Y042736D01*
X039732Y042682D01*
X039763Y042637D01*
X039803Y04261D01*
Y040197D01*
X039567Y039961D01*
X039331D01*
X039252Y040039D01*
Y04052D01*
X039262Y040528D01*
X039302Y040543D01*
X039336Y04052D01*
X03939Y040509D01*
X039444Y04052D01*
X039489Y04055D01*
X03952Y040596D01*
X03953Y04065D01*
X03952Y040703D01*
X039489Y040749D01*
X039444Y040779D01*
X03939Y04079D01*
X039336Y040779D01*
X039302Y040757D01*
X039262Y040771D01*
X039252Y040779D01*
Y042095D01*
X039262Y042103D01*
X039302Y042117D01*
X039336Y042095D01*
X03939Y042084D01*
X039444Y042095D01*
X039489Y042125D01*
X03952Y042171D01*
X03953Y042224D01*
X03952Y042278D01*
X039489Y042324D01*
X039444Y042354D01*
X03939Y042365D01*
X039336Y042354D01*
X039302Y042331D01*
X039262Y042346D01*
X039252Y042354D01*
Y043603D01*
X039292Y043618D01*
X039302Y04362D01*
X039346Y043591D01*
X0394Y04358D01*
X039453Y043591D01*
X039499Y043621D01*
X039529Y043667D01*
X03954Y04372D01*
X039529Y043774D01*
X039499Y04382D01*
X039453Y04385D01*
X0394Y043861D01*
X039346Y04385D01*
X039302Y043821D01*
X039292Y043823D01*
X039252Y043838D01*
Y044724D01*
X039508Y04498D01*
Y045866D01*
X039606Y045965D01*
X039902D01*
X04Y045866D01*
D02*
G37*
G36*
X050433Y04439D02*
Y04124D01*
X050269Y041076D01*
X050225Y041102D01*
X050231Y041132D01*
X050222Y041175D01*
X050198Y041211D01*
X050161Y041236D01*
X050118Y041244D01*
X050075Y041236D01*
X050039Y041211D01*
X050014Y041175D01*
X050006Y041132D01*
X050014Y041089D01*
X050039Y041052D01*
X050075Y041028D01*
X050118Y041019D01*
X050148Y041025D01*
X050174Y040981D01*
X047747Y038554D01*
X047686Y038555D01*
X04765Y03858D01*
X047607Y038588D01*
X047564Y03858D01*
X047527Y038555D01*
X047503Y038519D01*
X047494Y038476D01*
X047503Y038433D01*
X047527Y038396D01*
X047528Y038336D01*
X045Y035807D01*
Y032874D01*
X044311Y032185D01*
X043679D01*
X043672Y032196D01*
X043627Y032226D01*
X043573Y032237D01*
X043519Y032226D01*
X043473Y032196D01*
X043466Y032185D01*
X038524Y032185D01*
X03813Y031791D01*
Y031102D01*
X038031Y031004D01*
X037638D01*
X037539Y031102D01*
Y032224D01*
X038386Y033071D01*
X043346D01*
X043937Y033661D01*
X043937Y037303D01*
X044999Y038365D01*
X045008Y038364D01*
X045051Y038372D01*
X045088Y038396D01*
X045112Y038433D01*
X045121Y038476D01*
X045119Y038485D01*
X047795Y041161D01*
X047841Y041137D01*
X04784Y041132D01*
X047849Y041089D01*
X047873Y041052D01*
X04791Y041028D01*
X047953Y041019D01*
X047996Y041028D01*
X048032Y041052D01*
X048057Y041089D01*
X048065Y041132D01*
X048057Y041175D01*
X048032Y041211D01*
X047996Y041236D01*
X047953Y041244D01*
X047948Y041243D01*
X047923Y041289D01*
X048041Y041407D01*
X048095Y041391D01*
X048099Y041373D01*
X048129Y041328D01*
X048175Y041297D01*
X048228Y041287D01*
X048282Y041297D01*
X048328Y041328D01*
X048358Y041373D01*
X048369Y041427D01*
X048358Y041481D01*
X048328Y041527D01*
X048282Y041557D01*
X048265Y04156D01*
X048248Y041615D01*
X048297Y041663D01*
Y04234D01*
X048336Y042371D01*
X048346Y042369D01*
X0484Y04238D01*
X048446Y04241D01*
X048476Y042456D01*
X048487Y04251D01*
X048476Y042564D01*
X048446Y042609D01*
X0484Y04264D01*
X048346Y04265D01*
X048336Y042648D01*
X048297Y04268D01*
Y042924D01*
X048331Y042931D01*
X048377Y042962D01*
X048407Y043007D01*
X048418Y043061D01*
X048407Y043115D01*
X048377Y04316D01*
X048331Y043191D01*
X048297Y043198D01*
Y043562D01*
X048347Y043566D01*
X048348Y04356D01*
X048373Y043524D01*
X048409Y0435D01*
X048452Y043491D01*
X048495Y0435D01*
X048532Y043524D01*
X048556Y04356D01*
X048565Y043603D01*
X048556Y043646D01*
X048532Y043683D01*
X048495Y043707D01*
X048452Y043716D01*
X048409Y043707D01*
X048373Y043683D01*
X048348Y043646D01*
X048347Y04364D01*
X048297Y043645D01*
Y044113D01*
X048307Y044121D01*
X048361Y044132D01*
X048406Y044162D01*
X048437Y044208D01*
X048448Y044262D01*
X048437Y044316D01*
X048406Y044361D01*
X048361Y044392D01*
X048307Y044402D01*
X048297Y04441D01*
Y044685D01*
X048494Y044882D01*
X049941D01*
X050433Y04439D01*
D02*
G37*
G36*
X031634Y040551D02*
Y040453D01*
X031437Y040256D01*
X030846D01*
X030354Y039764D01*
Y037303D01*
X031634Y036024D01*
X032569D01*
Y036289D01*
X032608Y036329D01*
X032717D01*
X032746Y036299D01*
Y036254D01*
X032743Y03624D01*
X032746Y036227D01*
Y036024D01*
X035197D01*
X03563Y036457D01*
Y036633D01*
X035635Y036658D01*
X03563Y036682D01*
Y037008D01*
X036102Y03748D01*
X036654Y03748D01*
X036965Y037791D01*
Y037853D01*
X036973Y037874D01*
Y038032D01*
X03697Y038041D01*
X036971Y038051D01*
X036965Y038058D01*
Y0383D01*
X036971Y038308D01*
X03697Y038317D01*
X036973Y038326D01*
Y038974D01*
X036972Y038977D01*
X036973Y03898D01*
X037008Y039012D01*
X037013Y039014D01*
X037015Y039014D01*
X037067Y039003D01*
X037121Y039014D01*
X037166Y039044D01*
X037197Y03909D01*
X037207Y039144D01*
X037204Y039159D01*
X03721Y039167D01*
X037248Y039197D01*
X037283Y03919D01*
X037337Y039201D01*
X037383Y039231D01*
X037413Y039277D01*
X037424Y039331D01*
X037413Y039384D01*
X037383Y03943D01*
X037337Y039461D01*
X037283Y039471D01*
X037266Y039468D01*
X036994Y03974D01*
X036997Y039765D01*
X03705Y039802D01*
X037057Y0398D01*
X037111Y039811D01*
X037156Y039842D01*
X037187Y039887D01*
X037198Y039941D01*
X037187Y039995D01*
X037156Y04004D01*
X037111Y040071D01*
X037057Y040081D01*
X037015Y040073D01*
X036965Y0401D01*
Y040249D01*
X036982Y040264D01*
X03701Y040282D01*
X037057Y040273D01*
X037111Y040284D01*
X037156Y040314D01*
X037187Y04036D01*
X037198Y040413D01*
X037197Y040414D01*
X037229Y040453D01*
X037539D01*
X037638Y040354D01*
Y037459D01*
X037345Y037165D01*
X036614D01*
X036299Y03685D01*
Y03626D01*
X035768Y035728D01*
X031437D01*
X030059Y037106D01*
Y039862D01*
X03069Y040493D01*
X030709Y040489D01*
X030762Y0405D01*
X030807Y04053D01*
X030852Y0405D01*
X030906Y040489D01*
X030959Y0405D01*
X031005Y040531D01*
X031035Y040576D01*
X031046Y04063D01*
X031062Y04065D01*
X031535D01*
X031634Y040551D01*
D02*
G37*
G36*
X036766Y040409D02*
Y040291D01*
X036717Y040242D01*
X036635D01*
X036625Y040257D01*
X036579Y040287D01*
X036526Y040298D01*
X036472Y040287D01*
X036426Y040257D01*
X036396Y040211D01*
X036385Y040157D01*
X036396Y040104D01*
X036426Y040058D01*
Y040021D01*
X036396Y039975D01*
X036385Y039921D01*
X036396Y039867D01*
X036426Y039822D01*
X036472Y039791D01*
X036526Y039781D01*
X036579Y039791D01*
X036625Y039822D01*
X036678Y039817D01*
X036909Y039585D01*
Y039314D01*
X036871Y039282D01*
X03686Y039284D01*
X036806Y039274D01*
X036761Y039243D01*
X03673Y039197D01*
X03672Y039144D01*
X03673Y03909D01*
X036761Y039044D01*
X036806Y039014D01*
X03686Y039003D01*
X036871Y039005D01*
X036909Y038974D01*
Y038326D01*
X036859Y038299D01*
X036845Y038309D01*
X036791Y03832D01*
X036738Y038309D01*
X036692Y038278D01*
X036662Y038233D01*
X036651Y038179D01*
X036662Y038125D01*
X036692Y03808D01*
X036738Y038049D01*
X036791Y038039D01*
X036845Y038049D01*
X036859Y038059D01*
X036909Y038032D01*
Y037874D01*
X036762Y037726D01*
X034528D01*
X034026Y037224D01*
Y036813D01*
X033976Y036786D01*
X033973Y036788D01*
X033919Y036798D01*
X033866Y036788D01*
X03382Y036757D01*
X03379Y036712D01*
X033779Y036658D01*
X03379Y036604D01*
X03382Y036558D01*
X033866Y036528D01*
X033919Y036517D01*
X033938Y036521D01*
X033981Y036478D01*
X03398Y036474D01*
X033991Y036421D01*
X034021Y036375D01*
X034026Y036372D01*
Y03627D01*
X033987Y036231D01*
X033954Y036244D01*
X033939Y036254D01*
X033929Y036304D01*
X033899Y036349D01*
X033853Y03638D01*
X033799Y036391D01*
X033745Y03638D01*
X0337Y036349D01*
X033669Y036304D01*
X033659Y03625D01*
X033669Y036196D01*
X033679Y036182D01*
X033652Y036132D01*
X033553D01*
X033415Y03627D01*
Y03638D01*
X033452Y036405D01*
X033483Y03645D01*
X033487Y036474D01*
X033523Y036514D01*
X033541Y03652D01*
X03358Y036528D01*
X033625Y036558D01*
X033656Y036604D01*
X033666Y036658D01*
X033656Y036712D01*
X033625Y036757D01*
X03358Y036788D01*
X033526Y036798D01*
X033472Y036788D01*
X033465Y036783D01*
X033415Y03681D01*
Y037185D01*
X033199Y037402D01*
X032323D01*
X031946Y037779D01*
X031948Y03779D01*
X031937Y037843D01*
X031929Y037855D01*
Y038118D01*
X031937Y03813D01*
X031948Y038183D01*
X031937Y038237D01*
X031929Y038249D01*
X031929Y038708D01*
X031937Y03872D01*
X031948Y038774D01*
X031937Y038828D01*
X031929Y03884D01*
Y039055D01*
X03191Y039074D01*
X031937Y039114D01*
X031948Y039168D01*
X031937Y039221D01*
X031907Y039267D01*
X031861Y039297D01*
X031807Y039308D01*
X031805Y039308D01*
X031763Y03935D01*
X031765Y03936D01*
X031763Y039369D01*
X031781Y039417D01*
X031835Y039427D01*
X031881Y039458D01*
X031911Y039503D01*
X031922Y039557D01*
X031911Y039611D01*
X031881Y039656D01*
X031835Y039687D01*
X031781Y039698D01*
X031728Y039687D01*
X031682Y039656D01*
X031652Y039611D01*
X031641Y039557D01*
X031643Y039548D01*
X031624Y039501D01*
X03157Y03949D01*
X031525Y03946D01*
X031494Y039414D01*
X031484Y03936D01*
X031493Y039312D01*
X03149Y039297D01*
X031471Y039262D01*
X030856D01*
X03062Y039498D01*
Y039754D01*
X030778Y039911D01*
X031191D01*
X031841Y040561D01*
X036614D01*
X036766Y040409D01*
D02*
G37*
G36*
X05624Y046555D02*
Y039803D01*
X057205D01*
X057244Y039764D01*
Y039606D01*
X057205Y039567D01*
X05624D01*
Y038091D01*
X054189Y03604D01*
X05415Y036072D01*
X054163Y03609D01*
X054174Y036144D01*
X054163Y036198D01*
X054132Y036243D01*
X054087Y036274D01*
X054033Y036285D01*
X053979Y036274D01*
X053934Y036243D01*
X053903Y036198D01*
X053893Y036144D01*
X053903Y03609D01*
X053934Y036045D01*
X053979Y036014D01*
X054033Y036004D01*
X054087Y036014D01*
X054106Y036027D01*
X054137Y035988D01*
X053993Y035843D01*
X053979Y035841D01*
X053934Y03581D01*
X053903Y035765D01*
X053901Y035751D01*
X052614Y034465D01*
X052594Y034461D01*
X052548Y03443D01*
X052518Y034384D01*
X052514Y034364D01*
X051654Y033504D01*
X048504D01*
X047036Y032036D01*
X047009Y032038D01*
X046963Y032069D01*
X046909Y032079D01*
X046856Y032069D01*
X04681Y032038D01*
X04678Y031993D01*
X046769Y031939D01*
X04678Y031885D01*
X04681Y03184D01*
X046813Y031813D01*
X046427Y031427D01*
X046409Y031439D01*
X046355Y03145D01*
X046302Y031439D01*
X046256Y031408D01*
X046226Y031363D01*
X046215Y031309D01*
X046226Y031255D01*
X046237Y031237D01*
X044584Y029584D01*
X044562Y029598D01*
X044508Y029609D01*
X044454Y029598D01*
X044409Y029568D01*
X044378Y029522D01*
X044367Y029469D01*
X044378Y029415D01*
X044393Y029393D01*
X041476Y026476D01*
X033478D01*
X033518Y026484D01*
X033564Y026515D01*
X033594Y02656D01*
X033605Y026614D01*
X033594Y026668D01*
X033564Y026714D01*
X033518Y026744D01*
X033465Y026755D01*
X033411Y026744D01*
X033365Y026714D01*
X033335Y026668D01*
X033324Y026614D01*
X033335Y02656D01*
X033365Y026515D01*
X033411Y026484D01*
X033451Y026476D01*
X029961D01*
X028513Y027924D01*
X028525Y027932D01*
X028555Y027978D01*
X028566Y028031D01*
X028555Y028085D01*
X028525Y028131D01*
X028479Y028161D01*
X028425Y028172D01*
X028371Y028161D01*
X028326Y028131D01*
X028318Y028119D01*
X028287Y02815D01*
Y034843D01*
X028681Y035236D01*
X029764D01*
Y035827D01*
X029862Y035925D01*
X030256D01*
X030354Y035827D01*
Y035236D01*
X035472D01*
X036555Y036319D01*
Y036909D01*
X036654Y037008D01*
X037047D01*
X037146Y036909D01*
Y029537D01*
X042372D01*
X043332Y030497D01*
X043362Y030494D01*
X043408Y030464D01*
X043461Y030453D01*
X043515Y030464D01*
X043561Y030494D01*
X043591Y03054D01*
X043602Y030594D01*
X043591Y030647D01*
X043561Y030693D01*
X043558Y030723D01*
X046184Y033349D01*
X046247Y033341D01*
X046257Y033326D01*
X046303Y033295D01*
X046356Y033285D01*
X04641Y033295D01*
X046456Y033326D01*
X046486Y033371D01*
X046497Y033425D01*
X046486Y033479D01*
X046456Y033525D01*
X04644Y033535D01*
X046432Y033598D01*
X046693Y033858D01*
Y035827D01*
X048375Y037508D01*
X048429Y037492D01*
X04843Y037486D01*
X04846Y03744D01*
X048506Y03741D01*
X04856Y037399D01*
X048614Y03741D01*
X048659Y03744D01*
X04869Y037486D01*
X0487Y037539D01*
X04869Y037593D01*
X048659Y037639D01*
X048614Y037669D01*
X048607Y03767D01*
X048591Y037725D01*
X05122Y040354D01*
Y044685D01*
X050433Y045472D01*
X041476D01*
X040787Y046161D01*
X039213D01*
X039114Y04626D01*
Y047244D01*
X039606Y047736D01*
X055059D01*
X05624Y046555D01*
D02*
G37*
G36*
X057175Y036388D02*
Y036152D01*
X057087Y036063D01*
X05685D01*
X056811Y036102D01*
Y036378D01*
X05685Y036417D01*
X057146D01*
X057175Y036388D01*
D02*
G37*
G36*
X05998Y03937D02*
Y038801D01*
X059979Y0388D01*
X059949Y038755D01*
X059938Y038701D01*
X059949Y038647D01*
X059979Y038601D01*
X05998Y038601D01*
Y038355D01*
X05994Y038328D01*
X05991Y038282D01*
X059899Y038228D01*
X05991Y038175D01*
X05994Y038129D01*
X05998Y038102D01*
Y037961D01*
X05994Y037934D01*
X05991Y037888D01*
X059899Y037835D01*
X05991Y037781D01*
X05994Y037735D01*
X05998Y037708D01*
Y037567D01*
X05994Y03754D01*
X05991Y037495D01*
X059899Y037441D01*
X05991Y037387D01*
X05994Y037342D01*
X05998Y037315D01*
Y037174D01*
X05994Y037147D01*
X05991Y037101D01*
X059899Y037047D01*
X05991Y036993D01*
X05994Y036948D01*
X05998Y036921D01*
Y035236D01*
X059882Y035138D01*
X059461D01*
X059457Y035188D01*
X059469Y03519D01*
X059493Y035195D01*
X059538Y035225D01*
X059569Y035271D01*
X059579Y035325D01*
X059569Y035379D01*
X059538Y035424D01*
X059493Y035455D01*
X059439Y035465D01*
X059385Y035455D01*
X05934Y035424D01*
X059309Y035379D01*
X059298Y035325D01*
X059309Y035271D01*
X05934Y035225D01*
X059385Y035195D01*
X059409Y03519D01*
X059421Y035188D01*
X059417Y035138D01*
X059291D01*
X059094Y035335D01*
Y036024D01*
X058307Y036811D01*
Y038287D01*
X05811Y038484D01*
X05742D01*
X057412Y038495D01*
X057367Y038525D01*
X057313Y038536D01*
X057259Y038525D01*
X057214Y038495D01*
X057206Y038484D01*
X056831D01*
X056732Y038583D01*
X056732Y039075D01*
X057146Y039488D01*
X059862D01*
X05998Y03937D01*
D02*
G37*
G36*
X054783Y031161D02*
Y031033D01*
X054754Y031004D01*
X054439D01*
X054282Y030846D01*
X054183D01*
X054134Y030896D01*
Y031063D01*
X054272Y031201D01*
X054744D01*
X054783Y031161D01*
D02*
G37*
G36*
X059685Y030315D02*
Y027165D01*
X059488Y026969D01*
X059094Y026969D01*
X058898Y027165D01*
Y030315D01*
X059094Y030512D01*
X059488D01*
X059685Y030315D01*
D02*
G37*
G36*
X046189Y024041D02*
Y020892D01*
X045992Y020695D01*
X045872Y020695D01*
X045868Y020713D01*
X045838Y020759D01*
X045792Y020789D01*
X045738Y0208D01*
X045684Y020789D01*
X045648Y020765D01*
X045615Y020761D01*
X045583Y020765D01*
X045546Y020789D01*
X045494Y0208D01*
X045402Y020892D01*
Y024041D01*
X045598Y024238D01*
X045654D01*
X045707Y024228D01*
X04576Y024238D01*
X045992D01*
X046189Y024041D01*
D02*
G37*
G36*
X043327Y024291D02*
Y022267D01*
X043296Y022246D01*
X043265Y022201D01*
X043255Y022147D01*
X043265Y022093D01*
X043296Y022048D01*
X043275Y022001D01*
X043256Y021973D01*
X043245Y021919D01*
X043256Y021866D01*
X043286Y02182D01*
X043327Y021793D01*
Y02164D01*
X043277Y021613D01*
X043272Y021616D01*
X043218Y021627D01*
X043165Y021616D01*
X043125Y021589D01*
X043085Y021616D01*
X043032Y021627D01*
X042978Y021616D01*
X042932Y021586D01*
X042902Y02154D01*
X042891Y021486D01*
X042902Y021432D01*
X042932Y021387D01*
X042978Y021356D01*
X043032Y021346D01*
X043085Y021356D01*
X043125Y021383D01*
X043165Y021356D01*
X043193Y021302D01*
X04319Y021286D01*
X043201Y021232D01*
X043231Y021186D01*
X043277Y021156D01*
X043327Y021146D01*
Y020846D01*
X043668Y020506D01*
X043661Y020441D01*
X043651Y020434D01*
X04362Y020388D01*
X043609Y020335D01*
X04362Y020281D01*
X043651Y020235D01*
X043696Y020205D01*
X04375Y020194D01*
X043804Y020205D01*
X043849Y020235D01*
X04388Y020281D01*
X043881Y020288D01*
X043932D01*
X043935Y020274D01*
X043966Y020228D01*
X044011Y020198D01*
X044065Y020187D01*
X044119Y020198D01*
X044164Y020228D01*
X044195Y020274D01*
X044197Y020285D01*
X044248D01*
X04425Y020274D01*
X044281Y020228D01*
X044326Y020198D01*
X04438Y020187D01*
X044434Y020198D01*
X044479Y020228D01*
X04451Y020274D01*
X04452Y020327D01*
X045145D01*
X045217Y020256D01*
X045217Y02001D01*
X045108Y019902D01*
X044304D01*
X044286Y019913D01*
X044232Y019924D01*
X044179Y019913D01*
X044161Y019902D01*
X043683D01*
X043682Y019902D01*
X043636Y019933D01*
X043583Y019944D01*
X043531Y019933D01*
X0425Y020965D01*
Y022145D01*
X04255Y022171D01*
X042574Y022155D01*
X042628Y022144D01*
X042682Y022155D01*
X042706Y022171D01*
X042712Y022163D01*
X042757Y022132D01*
X042811Y022122D01*
X042865Y022132D01*
X04291Y022163D01*
X042941Y022208D01*
X042951Y022262D01*
X042941Y022316D01*
X04291Y022362D01*
X042865Y022392D01*
X042811Y022403D01*
X042757Y022392D01*
X042733Y022376D01*
X042727Y022384D01*
X042682Y022415D01*
X042628Y022425D01*
X042574Y022415D01*
X04255Y022399D01*
X0425Y022425D01*
Y023819D01*
X043022Y024341D01*
X043278D01*
X043327Y024291D01*
D02*
G37*
G36*
X032677Y025D02*
X032677Y018661D01*
X03252Y018504D01*
X031693D01*
X031575Y018622D01*
X031575Y024961D01*
X03187Y025256D01*
X032421D01*
X032677Y025D01*
D02*
G37*
%LPC*%
G36*
X049567Y044186D02*
X049513Y044175D01*
X049468Y044145D01*
X049437Y044099D01*
X049426Y044045D01*
X049437Y043992D01*
X049468Y043946D01*
X049513Y043915D01*
X049567Y043905D01*
X049621Y043915D01*
X049666Y043946D01*
X049697Y043992D01*
X049707Y044045D01*
X049697Y044099D01*
X049666Y044145D01*
X049621Y044175D01*
X049567Y044186D01*
D02*
G37*
G36*
X050039Y043971D02*
X049996Y043962D01*
X04996Y043938D01*
X049936Y043901D01*
X049927Y043858D01*
X049936Y043815D01*
X04996Y043779D01*
X049996Y043754D01*
X050039Y043746D01*
X050082Y043754D01*
X050119Y043779D01*
X050143Y043815D01*
X050152Y043858D01*
X050143Y043901D01*
X050119Y043938D01*
X050082Y043962D01*
X050039Y043971D01*
D02*
G37*
G36*
X049685Y043723D02*
X049631Y043712D01*
X049586Y043682D01*
X049555Y043636D01*
X049545Y043583D01*
X049549Y043561D01*
X049518Y043517D01*
X049511Y043515D01*
X049464Y043506D01*
X049418Y043475D01*
X049388Y04343D01*
X049377Y043376D01*
X049388Y043322D01*
X049418Y043277D01*
X049464Y043246D01*
X049518Y043235D01*
X049571Y043246D01*
X049617Y043277D01*
X049648Y043322D01*
X049658Y043376D01*
X049654Y043397D01*
X049684Y043441D01*
X049692Y043444D01*
X049739Y043453D01*
X049784Y043483D01*
X049815Y043529D01*
X049826Y043583D01*
X049815Y043636D01*
X049784Y043682D01*
X049739Y043712D01*
X049685Y043723D01*
D02*
G37*
G36*
X048701Y043408D02*
X048647Y043398D01*
X048601Y043367D01*
X048571Y043321D01*
X04856Y043268D01*
X048571Y043214D01*
X048601Y043168D01*
X048647Y043138D01*
X048701Y043127D01*
X048755Y043138D01*
X0488Y043168D01*
X048831Y043214D01*
X048841Y043268D01*
X048831Y043321D01*
X0488Y043367D01*
X048755Y043398D01*
X048701Y043408D01*
D02*
G37*
G36*
X050118Y043301D02*
X050075Y043293D01*
X050039Y043268D01*
X050014Y043232D01*
X050006Y043189D01*
X050014Y043146D01*
X050039Y043109D01*
X050075Y043085D01*
X050118Y043077D01*
X050161Y043085D01*
X050198Y043109D01*
X050222Y043146D01*
X050231Y043189D01*
X050222Y043232D01*
X050198Y043268D01*
X050161Y043293D01*
X050118Y043301D01*
D02*
G37*
G36*
X048701Y043044D02*
X048647Y043033D01*
X048601Y043003D01*
X048571Y042957D01*
X04856Y042904D01*
X048571Y04285D01*
X048601Y042804D01*
X048647Y042774D01*
X048701Y042763D01*
X048755Y042774D01*
X0488Y042804D01*
X048831Y04285D01*
X048841Y042904D01*
X048831Y042957D01*
X0488Y043003D01*
X048755Y043033D01*
X048701Y043044D01*
D02*
G37*
G36*
Y042601D02*
X048647Y04259D01*
X048601Y04256D01*
X048571Y042514D01*
X04856Y042461D01*
X048571Y042407D01*
X048601Y042361D01*
X048647Y042331D01*
X048701Y04232D01*
X048755Y042331D01*
X0488Y042361D01*
X048831Y042407D01*
X048841Y042461D01*
X048831Y042514D01*
X0488Y04256D01*
X048755Y04259D01*
X048701Y042601D01*
D02*
G37*
G36*
X048523Y042305D02*
X048469Y042295D01*
X048423Y042264D01*
X048393Y042218D01*
X048382Y042165D01*
X048393Y042111D01*
X048423Y042065D01*
X048469Y042035D01*
X048523Y042024D01*
X048577Y042035D01*
X048622Y042065D01*
X048653Y042111D01*
X048663Y042165D01*
X048653Y042218D01*
X048622Y042264D01*
X048577Y042295D01*
X048523Y042305D01*
D02*
G37*
G36*
X049508Y042169D02*
X049465Y042161D01*
X049428Y042137D01*
X049404Y0421D01*
X049395Y042057D01*
X049404Y042014D01*
X049428Y041978D01*
X049465Y041953D01*
X049508Y041945D01*
X049551Y041953D01*
X049587Y041978D01*
X049612Y042014D01*
X04962Y042057D01*
X049612Y0421D01*
X049587Y042137D01*
X049551Y042161D01*
X049508Y042169D01*
D02*
G37*
G36*
X049685Y041244D02*
X049642Y041236D01*
X049606Y041211D01*
X049581Y041175D01*
X049573Y041132D01*
X049581Y041089D01*
X049606Y041052D01*
X049642Y041028D01*
X049685Y041019D01*
X049728Y041028D01*
X049765Y041052D01*
X049789Y041089D01*
X049797Y041132D01*
X049789Y041175D01*
X049765Y041211D01*
X049728Y041236D01*
X049685Y041244D01*
D02*
G37*
G36*
X049252D02*
X049209Y041236D01*
X049172Y041211D01*
X049148Y041175D01*
X04914Y041132D01*
X049148Y041089D01*
X049172Y041052D01*
X049209Y041028D01*
X049252Y041019D01*
X049295Y041028D01*
X049331Y041052D01*
X049356Y041089D01*
X049364Y041132D01*
X049356Y041175D01*
X049331Y041211D01*
X049295Y041236D01*
X049252Y041244D01*
D02*
G37*
G36*
X048819D02*
X048776Y041236D01*
X048739Y041211D01*
X048715Y041175D01*
X048706Y041132D01*
X048715Y041089D01*
X048739Y041052D01*
X048776Y041028D01*
X048819Y041019D01*
X048862Y041028D01*
X048898Y041052D01*
X048923Y041089D01*
X048931Y041132D01*
X048923Y041175D01*
X048898Y041211D01*
X048862Y041236D01*
X048819Y041244D01*
D02*
G37*
G36*
X048533Y041234D02*
X04849Y041226D01*
X048454Y041202D01*
X04843Y041165D01*
X048421Y041122D01*
X04843Y041079D01*
X048454Y041043D01*
X04849Y041018D01*
X048533Y04101D01*
X048576Y041018D01*
X048613Y041043D01*
X048637Y041079D01*
X048646Y041122D01*
X048637Y041165D01*
X048613Y041202D01*
X048576Y041226D01*
X048533Y041234D01*
D02*
G37*
G36*
X047174Y038588D02*
X047131Y03858D01*
X047094Y038555D01*
X04707Y038519D01*
X047061Y038476D01*
X04707Y038433D01*
X047094Y038396D01*
X047131Y038372D01*
X047174Y038364D01*
X047217Y038372D01*
X047253Y038396D01*
X047278Y038433D01*
X047286Y038476D01*
X047278Y038519D01*
X047253Y038555D01*
X047217Y03858D01*
X047174Y038588D01*
D02*
G37*
G36*
X046741D02*
X046698Y03858D01*
X046661Y038555D01*
X046637Y038519D01*
X046628Y038476D01*
X046637Y038433D01*
X046661Y038396D01*
X046698Y038372D01*
X046741Y038364D01*
X046784Y038372D01*
X04682Y038396D01*
X046844Y038433D01*
X046853Y038476D01*
X046844Y038519D01*
X04682Y038555D01*
X046784Y03858D01*
X046741Y038588D01*
D02*
G37*
G36*
X046308D02*
X046265Y03858D01*
X046228Y038555D01*
X046204Y038519D01*
X046195Y038476D01*
X046204Y038433D01*
X046228Y038396D01*
X046265Y038372D01*
X046308Y038364D01*
X046351Y038372D01*
X046387Y038396D01*
X046411Y038433D01*
X04642Y038476D01*
X046411Y038519D01*
X046387Y038555D01*
X046351Y03858D01*
X046308Y038588D01*
D02*
G37*
G36*
X045874D02*
X045831Y03858D01*
X045795Y038555D01*
X045771Y038519D01*
X045762Y038476D01*
X045771Y038433D01*
X045795Y038396D01*
X045831Y038372D01*
X045874Y038364D01*
X045918Y038372D01*
X045954Y038396D01*
X045978Y038433D01*
X045987Y038476D01*
X045978Y038519D01*
X045954Y038555D01*
X045918Y03858D01*
X045874Y038588D01*
D02*
G37*
G36*
X045441D02*
X045398Y03858D01*
X045362Y038555D01*
X045338Y038519D01*
X045329Y038476D01*
X045338Y038433D01*
X045362Y038396D01*
X045398Y038372D01*
X045441Y038364D01*
X045484Y038372D01*
X045521Y038396D01*
X045545Y038433D01*
X045554Y038476D01*
X045545Y038519D01*
X045521Y038555D01*
X045484Y03858D01*
X045441Y038588D01*
D02*
G37*
G36*
X045928Y03768D02*
X045874Y03767D01*
X045828Y037639D01*
X045798Y037594D01*
X045787Y03754D01*
X045798Y037486D01*
X045828Y037441D01*
X045874Y03741D01*
X045928Y037399D01*
X045982Y03741D01*
X046027Y037441D01*
X046058Y037486D01*
X046068Y03754D01*
X046058Y037594D01*
X046027Y037639D01*
X045982Y03767D01*
X045928Y03768D01*
D02*
G37*
G36*
X035906Y036391D02*
X035852Y03638D01*
X035806Y036349D01*
X035776Y036304D01*
X035765Y03625D01*
X035776Y036196D01*
X035806Y036151D01*
X035852Y03612D01*
X035906Y036109D01*
X035959Y03612D01*
X036005Y036151D01*
X036035Y036196D01*
X036046Y03625D01*
X036035Y036304D01*
X036005Y036349D01*
X035959Y03638D01*
X035906Y036391D01*
D02*
G37*
G36*
X031805Y040097D02*
X031752Y040087D01*
X031706Y040056D01*
X031676Y040011D01*
X031665Y039957D01*
X031676Y039903D01*
X031706Y039858D01*
X031752Y039827D01*
X031805Y039816D01*
X031859Y039827D01*
X031905Y039858D01*
X031935Y039903D01*
X031946Y039957D01*
X031935Y040011D01*
X031905Y040056D01*
X031859Y040087D01*
X031805Y040097D01*
D02*
G37*
G36*
X032923Y039274D02*
X032869Y039264D01*
X032824Y039233D01*
X032793Y039188D01*
X032783Y039134D01*
X032793Y03908D01*
X032824Y039035D01*
X032869Y039004D01*
X032923Y038993D01*
X032977Y039004D01*
X033023Y039035D01*
X033053Y03908D01*
X033064Y039134D01*
X033053Y039188D01*
X033023Y039233D01*
X032977Y039264D01*
X032923Y039274D01*
D02*
G37*
G36*
X033159Y038556D02*
X033106Y038545D01*
X03306Y038515D01*
X03303Y038469D01*
X033019Y038415D01*
X03303Y038362D01*
X03306Y038316D01*
X033106Y038286D01*
X033136Y038279D01*
X03313Y038231D01*
X033105Y038226D01*
X033076Y03822D01*
X033031Y03819D01*
X033Y038144D01*
X032989Y038091D01*
X033Y038037D01*
X033031Y037991D01*
X033076Y037961D01*
X03313Y03795D01*
X033184Y037961D01*
X033229Y037991D01*
X03326Y038037D01*
X03327Y038091D01*
X03326Y038144D01*
X033229Y03819D01*
X033184Y03822D01*
X033153Y038226D01*
X033159Y038275D01*
X033184Y03828D01*
X033213Y038286D01*
X033259Y038316D01*
X033289Y038362D01*
X0333Y038415D01*
X033289Y038469D01*
X033259Y038515D01*
X033213Y038545D01*
X033159Y038556D01*
D02*
G37*
G36*
X033888Y03832D02*
X033834Y038309D01*
X033788Y038278D01*
X033758Y038233D01*
X033747Y038179D01*
X033758Y038125D01*
X033788Y03808D01*
Y038052D01*
X033758Y038007D01*
X033747Y037953D01*
X033758Y037899D01*
X033788Y037853D01*
X033834Y037823D01*
X033888Y037812D01*
X033942Y037823D01*
X033987Y037853D01*
X034018Y037899D01*
X034028Y037953D01*
X034018Y038007D01*
X033987Y038052D01*
Y03808D01*
X034018Y038125D01*
X034028Y038179D01*
X034018Y038233D01*
X033987Y038278D01*
X033942Y038309D01*
X033888Y03832D01*
D02*
G37*
G36*
X041496Y04766D02*
X041442Y047649D01*
X041397Y047619D01*
X041366Y047573D01*
X041356Y04752D01*
X041366Y047466D01*
X041397Y04742D01*
X041442Y04739D01*
X041496Y047379D01*
X04155Y04739D01*
X041595Y04742D01*
X041626Y047466D01*
X041637Y04752D01*
X041626Y047573D01*
X041595Y047619D01*
X04155Y047649D01*
X041496Y04766D01*
D02*
G37*
G36*
X04685Y047542D02*
X046797Y047531D01*
X046751Y047501D01*
X046721Y047455D01*
X04671Y047402D01*
X046721Y047348D01*
X046751Y047302D01*
X046797Y047272D01*
X04685Y047261D01*
X046904Y047272D01*
X04695Y047302D01*
X04698Y047348D01*
X046991Y047402D01*
X04698Y047455D01*
X04695Y047501D01*
X046904Y047531D01*
X04685Y047542D01*
D02*
G37*
G36*
X054134Y047463D02*
X05408Y047453D01*
X054035Y047422D01*
X054004Y047377D01*
X053993Y047323D01*
X054004Y047269D01*
X054035Y047223D01*
X05408Y047193D01*
X054134Y047182D01*
X054188Y047193D01*
X054233Y047223D01*
X054264Y047269D01*
X054274Y047323D01*
X054264Y047377D01*
X054233Y047422D01*
X054188Y047453D01*
X054134Y047463D01*
D02*
G37*
G36*
X039646Y047148D02*
X039592Y047138D01*
X039546Y047107D01*
X039516Y047062D01*
X039505Y047008D01*
X039516Y046954D01*
X039546Y046909D01*
X039592Y046878D01*
X039646Y046867D01*
X039699Y046878D01*
X039745Y046909D01*
X039775Y046954D01*
X039786Y047008D01*
X039775Y047062D01*
X039745Y047107D01*
X039699Y047138D01*
X039646Y047148D01*
D02*
G37*
G36*
X044213Y04707D02*
X044159Y047059D01*
X044113Y047028D01*
X044083Y046983D01*
X044072Y046929D01*
X044083Y046875D01*
X044113Y04683D01*
X044159Y046799D01*
X044213Y046789D01*
X044266Y046799D01*
X044312Y04683D01*
X044342Y046875D01*
X044353Y046929D01*
X044342Y046983D01*
X044312Y047028D01*
X044266Y047059D01*
X044213Y04707D01*
D02*
G37*
G36*
X04126Y04703D02*
X041206Y04702D01*
X04116Y046989D01*
X04113Y046944D01*
X041119Y04689D01*
X04113Y046836D01*
X04116Y04679D01*
X041206Y04676D01*
X04126Y046749D01*
X041314Y04676D01*
X041359Y04679D01*
X04139Y046836D01*
X0414Y04689D01*
X04139Y046944D01*
X041359Y046989D01*
X041314Y04702D01*
X04126Y04703D01*
D02*
G37*
G36*
X040787D02*
X040734Y04702D01*
X040688Y046989D01*
X040658Y046944D01*
X040647Y04689D01*
X040658Y046836D01*
X040688Y04679D01*
X040734Y04676D01*
X040787Y046749D01*
X040841Y04676D01*
X040887Y04679D01*
X040917Y046836D01*
X040928Y04689D01*
X040917Y046944D01*
X040887Y046989D01*
X040841Y04702D01*
X040787Y04703D01*
D02*
G37*
G36*
X051024Y046952D02*
X05097Y046941D01*
X050924Y04691D01*
X050894Y046865D01*
X050883Y046811D01*
X050894Y046757D01*
X050924Y046712D01*
X05097Y046681D01*
X051024Y046671D01*
X051077Y046681D01*
X051123Y046712D01*
X051153Y046757D01*
X051164Y046811D01*
X051153Y046865D01*
X051123Y04691D01*
X051077Y046941D01*
X051024Y046952D01*
D02*
G37*
G36*
X046614Y046912D02*
X04656Y046901D01*
X046515Y046871D01*
X046484Y046825D01*
X046474Y046772D01*
X046484Y046718D01*
X046515Y046672D01*
X04656Y046642D01*
X046614Y046631D01*
X046668Y046642D01*
X046714Y046672D01*
X046744Y046718D01*
X046755Y046772D01*
X046744Y046825D01*
X046714Y046871D01*
X046668Y046901D01*
X046614Y046912D01*
D02*
G37*
G36*
X046181D02*
X046127Y046901D01*
X046082Y046871D01*
X046051Y046825D01*
X046041Y046772D01*
X046051Y046718D01*
X046082Y046672D01*
X046127Y046642D01*
X046181Y046631D01*
X046235Y046642D01*
X04628Y046672D01*
X046311Y046718D01*
X046322Y046772D01*
X046311Y046825D01*
X04628Y046871D01*
X046235Y046901D01*
X046181Y046912D01*
D02*
G37*
G36*
X045748D02*
X045694Y046901D01*
X045649Y046871D01*
X045618Y046825D01*
X045608Y046772D01*
X045618Y046718D01*
X045649Y046672D01*
X045694Y046642D01*
X045748Y046631D01*
X045802Y046642D01*
X045847Y046672D01*
X045878Y046718D01*
X045889Y046772D01*
X045878Y046825D01*
X045847Y046871D01*
X045802Y046901D01*
X045748Y046912D01*
D02*
G37*
G36*
X045315D02*
X045261Y046901D01*
X045216Y046871D01*
X045185Y046825D01*
X045174Y046772D01*
X045185Y046718D01*
X045216Y046672D01*
X045261Y046642D01*
X045315Y046631D01*
X045369Y046642D01*
X045414Y046672D01*
X045445Y046718D01*
X045455Y046772D01*
X045445Y046825D01*
X045414Y046871D01*
X045369Y046901D01*
X045315Y046912D01*
D02*
G37*
G36*
X053898Y046833D02*
X053844Y046823D01*
X053798Y046792D01*
X053768Y046747D01*
X053757Y046693D01*
X053768Y046639D01*
X053798Y046594D01*
X053844Y046563D01*
X053898Y046552D01*
X053951Y046563D01*
X053997Y046594D01*
X054027Y046639D01*
X054038Y046693D01*
X054027Y046747D01*
X053997Y046792D01*
X053951Y046823D01*
X053898Y046833D01*
D02*
G37*
G36*
X053465D02*
X053411Y046823D01*
X053365Y046792D01*
X053335Y046747D01*
X053324Y046693D01*
X053335Y046639D01*
X053365Y046594D01*
X053411Y046563D01*
X053465Y046552D01*
X053518Y046563D01*
X053564Y046594D01*
X053594Y046639D01*
X053605Y046693D01*
X053594Y046747D01*
X053564Y046792D01*
X053518Y046823D01*
X053465Y046833D01*
D02*
G37*
G36*
X053032D02*
X052978Y046823D01*
X052932Y046792D01*
X052902Y046747D01*
X052891Y046693D01*
X052902Y046639D01*
X052932Y046594D01*
X052978Y046563D01*
X053032Y046552D01*
X053085Y046563D01*
X053131Y046594D01*
X053161Y046639D01*
X053172Y046693D01*
X053161Y046747D01*
X053131Y046792D01*
X053085Y046823D01*
X053032Y046833D01*
D02*
G37*
G36*
X052598D02*
X052545Y046823D01*
X052499Y046792D01*
X052469Y046747D01*
X052458Y046693D01*
X052469Y046639D01*
X052499Y046594D01*
X052545Y046563D01*
X052598Y046552D01*
X052652Y046563D01*
X052698Y046594D01*
X052728Y046639D01*
X052739Y046693D01*
X052728Y046747D01*
X052698Y046792D01*
X052652Y046823D01*
X052598Y046833D01*
D02*
G37*
G36*
X052165D02*
X052112Y046823D01*
X052066Y046792D01*
X052036Y046747D01*
X052025Y046693D01*
X052036Y046639D01*
X052066Y046594D01*
X052112Y046563D01*
X052165Y046552D01*
X052219Y046563D01*
X052265Y046594D01*
X052295Y046639D01*
X052306Y046693D01*
X052295Y046747D01*
X052265Y046792D01*
X052219Y046823D01*
X052165Y046833D01*
D02*
G37*
G36*
X043566Y046258D02*
X043512Y046248D01*
X043466Y046217D01*
X043436Y046171D01*
X043425Y046118D01*
X043436Y046064D01*
X043466Y046018D01*
X043467Y046016D01*
X043459Y045963D01*
X043427Y045941D01*
X043397Y045896D01*
X043395Y045886D01*
X043378Y045878D01*
X04334Y045869D01*
X043305Y045893D01*
X043251Y045904D01*
X043197Y045893D01*
X043151Y045863D01*
X043121Y045817D01*
X04311Y045763D01*
X043121Y04571D01*
X043151Y045664D01*
X043197Y045634D01*
X043251Y045623D01*
X043305Y045634D01*
X04335Y045664D01*
X043381Y04571D01*
X043383Y045719D01*
X043399Y045728D01*
X043437Y045736D01*
X043473Y045712D01*
X043526Y045702D01*
X04358Y045712D01*
X043626Y045743D01*
X043656Y045788D01*
X043667Y045842D01*
X043656Y045896D01*
X043626Y045941D01*
X043625Y045944D01*
X043633Y045997D01*
X043665Y046018D01*
X043696Y046064D01*
X043706Y046118D01*
X043696Y046171D01*
X043665Y046217D01*
X04362Y046248D01*
X043566Y046258D01*
D02*
G37*
G36*
X054347Y044771D02*
X054339Y044769D01*
X05433Y044771D01*
X054254Y044761D01*
X054247Y044757D01*
X054238D01*
X054167Y044727D01*
X054161Y044721D01*
X054152Y044719D01*
X054091Y044672D01*
X054087Y044665D01*
X05408Y04466D01*
X054033Y0446D01*
X054031Y044591D01*
X054025Y044585D01*
X053995Y044514D01*
Y044505D01*
X053991Y044498D01*
X053981Y044422D01*
X053983Y044413D01*
X053981Y044405D01*
X053991Y044329D01*
X053995Y044321D01*
Y044313D01*
X054025Y044242D01*
X054031Y044236D01*
X054033Y044227D01*
X05408Y044166D01*
X054087Y044162D01*
X054091Y044154D01*
X054152Y044108D01*
X054161Y044105D01*
X054167Y044099D01*
X054198Y044086D01*
X054193Y044034D01*
X054159Y044027D01*
X054113Y043997D01*
X054083Y043951D01*
X054072Y043898D01*
X054083Y043844D01*
X054113Y043798D01*
X054159Y043768D01*
X054213Y043757D01*
X054266Y043768D01*
X054312Y043798D01*
X054342Y043844D01*
X054353Y043898D01*
X054342Y043951D01*
X054312Y043997D01*
X054292Y04401D01*
X05431Y044058D01*
X05433Y044056D01*
X054339Y044058D01*
X054347Y044056D01*
X054423Y044066D01*
X054431Y04407D01*
X054439D01*
X05451Y044099D01*
X054516Y044105D01*
X054525Y044108D01*
X054586Y044154D01*
X05459Y044162D01*
X054597Y044166D01*
X054644Y044227D01*
X054647Y044236D01*
X054653Y044242D01*
X054682Y044313D01*
Y044321D01*
X054686Y044329D01*
X054696Y044405D01*
X054694Y044413D01*
X054696Y044422D01*
X054686Y044498D01*
X054682Y044505D01*
Y044514D01*
X054653Y044585D01*
X054647Y044591D01*
X054644Y0446D01*
X054597Y04466D01*
X05459Y044665D01*
X054586Y044672D01*
X054525Y044719D01*
X054516Y044721D01*
X05451Y044727D01*
X054439Y044757D01*
X054431D01*
X054423Y044761D01*
X054347Y044771D01*
D02*
G37*
G36*
X055146Y04477D02*
X055138Y044768D01*
X055129Y04477D01*
X055053Y04476D01*
X055046Y044756D01*
X055037D01*
X054966Y044727D01*
X05496Y044721D01*
X054952Y044718D01*
X054891Y044672D01*
X054887Y044664D01*
X054879Y04466D01*
X054833Y044599D01*
X05483Y044591D01*
X054824Y044585D01*
X054795Y044514D01*
Y044505D01*
X054791Y044498D01*
X054781Y044422D01*
X054783Y044413D01*
X054781Y044405D01*
X054791Y044329D01*
X054795Y044322D01*
Y044313D01*
X054824Y044242D01*
X05483Y044236D01*
X054833Y044228D01*
X054879Y044167D01*
X054887Y044162D01*
X054891Y044155D01*
X054952Y044108D01*
X05496Y044106D01*
X054966Y0441D01*
X055037Y044071D01*
X055046D01*
X055053Y044066D01*
X055129Y044056D01*
X055138Y044059D01*
X055146Y044056D01*
X055147Y044056D01*
X055161Y044038D01*
X055171Y044009D01*
X055146Y043971D01*
X055135Y043917D01*
X055146Y043864D01*
X055176Y043818D01*
X055222Y043788D01*
X055276Y043777D01*
X055329Y043788D01*
X055375Y043818D01*
X055405Y043864D01*
X055416Y043917D01*
X055405Y043971D01*
X055375Y044017D01*
X055329Y044047D01*
X055318Y044049D01*
X055311Y044089D01*
X055311Y044102D01*
X055315Y044106D01*
X055324Y044108D01*
X055384Y044155D01*
X055389Y044162D01*
X055396Y044167D01*
X055443Y044228D01*
X055445Y044236D01*
X055451Y044242D01*
X055481Y044313D01*
Y044322D01*
X055485Y044329D01*
X055495Y044405D01*
X055493Y044413D01*
X055495Y044422D01*
X055485Y044498D01*
X055481Y044505D01*
Y044514D01*
X055451Y044585D01*
X055445Y044591D01*
X055443Y044599D01*
X055396Y04466D01*
X055389Y044664D01*
X055384Y044672D01*
X055324Y044718D01*
X055315Y044721D01*
X055309Y044727D01*
X055238Y044756D01*
X05523D01*
X055222Y04476D01*
X055146Y04477D01*
D02*
G37*
G36*
X055287Y043566D02*
X055234Y043555D01*
X055188Y043525D01*
X055158Y043479D01*
X055147Y043425D01*
X055158Y043371D01*
X055188Y043326D01*
X055234Y043295D01*
X055287Y043285D01*
X055341Y043295D01*
X055387Y043326D01*
X055417Y043371D01*
X055428Y043425D01*
X055417Y043479D01*
X055387Y043525D01*
X055341Y043555D01*
X055287Y043566D01*
D02*
G37*
G36*
X054173D02*
X054119Y043555D01*
X054074Y043525D01*
X054043Y043479D01*
X054033Y043425D01*
X054043Y043371D01*
X054074Y043326D01*
X054119Y043295D01*
X054173Y043285D01*
X054227Y043295D01*
X054273Y043326D01*
X054303Y043371D01*
X054314Y043425D01*
X054303Y043479D01*
X054273Y043525D01*
X054227Y043555D01*
X054173Y043566D01*
D02*
G37*
G36*
X055266Y043054D02*
X055212Y043043D01*
X055166Y043013D01*
X055136Y042967D01*
X055125Y042913D01*
X055136Y04286D01*
X055166Y042814D01*
X055212Y042784D01*
X055266Y042773D01*
X05532Y042784D01*
X055365Y042814D01*
X055396Y04286D01*
X055406Y042913D01*
X055396Y042967D01*
X055365Y043013D01*
X05532Y043043D01*
X055266Y043054D01*
D02*
G37*
G36*
X054173D02*
X054119Y043043D01*
X054074Y043013D01*
X054043Y042967D01*
X054033Y042913D01*
X054043Y04286D01*
X054074Y042814D01*
X054119Y042784D01*
X054173Y042773D01*
X054227Y042784D01*
X054273Y042814D01*
X054303Y04286D01*
X054314Y042913D01*
X054303Y042967D01*
X054273Y043013D01*
X054227Y043043D01*
X054173Y043054D01*
D02*
G37*
G36*
X055276Y042542D02*
X055222Y042531D01*
X055176Y042501D01*
X055146Y042455D01*
X055135Y042402D01*
X055146Y042348D01*
X055176Y042302D01*
X055222Y042272D01*
X055276Y042261D01*
X055329Y042272D01*
X055375Y042302D01*
X055405Y042348D01*
X055416Y042402D01*
X055405Y042455D01*
X055375Y042501D01*
X055329Y042531D01*
X055276Y042542D01*
D02*
G37*
G36*
X054173D02*
X054119Y042531D01*
X054074Y042501D01*
X054043Y042455D01*
X054033Y042402D01*
X054043Y042348D01*
X054074Y042302D01*
X054119Y042272D01*
X054173Y042261D01*
X054227Y042272D01*
X054273Y042302D01*
X054303Y042348D01*
X054314Y042402D01*
X054303Y042455D01*
X054273Y042501D01*
X054227Y042531D01*
X054173Y042542D01*
D02*
G37*
G36*
X053386D02*
X053332Y042531D01*
X053286Y042501D01*
X053256Y042455D01*
X053245Y042402D01*
X053256Y042348D01*
X053286Y042302D01*
X053332Y042272D01*
X053386Y042261D01*
X05344Y042272D01*
X053485Y042302D01*
X053516Y042348D01*
X053526Y042402D01*
X053516Y042455D01*
X053485Y042501D01*
X05344Y042531D01*
X053386Y042542D01*
D02*
G37*
G36*
X054173Y04207D02*
X054119Y042059D01*
X054074Y042028D01*
X054043Y041983D01*
X054033Y041929D01*
X054043Y041875D01*
X054074Y04183D01*
X054119Y041799D01*
X054173Y041789D01*
X054227Y041799D01*
X054273Y04183D01*
X054303Y041875D01*
X054314Y041929D01*
X054303Y041983D01*
X054273Y042028D01*
X054227Y042059D01*
X054173Y04207D01*
D02*
G37*
G36*
X054747Y041779D02*
X054738Y041777D01*
X05473Y041779D01*
X054652Y041769D01*
X054644Y041765D01*
X054635D01*
X054562Y041734D01*
X054556Y041728D01*
X054548Y041726D01*
X054485Y041678D01*
X054481Y041671D01*
X054474Y041666D01*
X054425Y041604D01*
X054423Y041595D01*
X054417Y041589D01*
X054387Y041516D01*
Y041508D01*
X054383Y0415D01*
X054372Y041422D01*
X054374Y041413D01*
X054372Y041405D01*
X054383Y041327D01*
X054387Y041319D01*
Y041311D01*
X054417Y041238D01*
X054423Y041232D01*
X054425Y041223D01*
X054474Y041161D01*
X054481Y041156D01*
X054485Y041149D01*
X054548Y041101D01*
X054556Y041098D01*
X054562Y041092D01*
X054635Y041062D01*
X054644D01*
X054652Y041058D01*
X05473Y041047D01*
X054738Y04105D01*
X054747Y041047D01*
X054825Y041058D01*
X054832Y041062D01*
X054841D01*
X054914Y041092D01*
X05492Y041098D01*
X054928Y041101D01*
X054991Y041149D01*
X054995Y041156D01*
X055003Y041161D01*
X055051Y041223D01*
X055053Y041232D01*
X055059Y041238D01*
X05509Y041311D01*
Y041319D01*
X055094Y041327D01*
X055104Y041405D01*
X055102Y041413D01*
X055104Y041422D01*
X055094Y0415D01*
X05509Y041508D01*
Y041516D01*
X055059Y041589D01*
X055053Y041595D01*
X055051Y041604D01*
X055003Y041666D01*
X054995Y041671D01*
X054991Y041678D01*
X054928Y041726D01*
X05492Y041728D01*
X054914Y041734D01*
X054841Y041765D01*
X054832D01*
X054825Y041769D01*
X054747Y041779D01*
D02*
G37*
G36*
X055315Y041755D02*
X055261Y041744D01*
X055216Y041714D01*
X055185Y041668D01*
X055174Y041614D01*
X055185Y04156D01*
X055216Y041515D01*
X055261Y041484D01*
X055315Y041474D01*
X055369Y041484D01*
X055414Y041515D01*
X055445Y04156D01*
X055455Y041614D01*
X055445Y041668D01*
X055414Y041714D01*
X055369Y041744D01*
X055315Y041755D01*
D02*
G37*
G36*
X055512Y039314D02*
X055458Y039303D01*
X055412Y039273D01*
X055382Y039227D01*
X055371Y039173D01*
X055382Y039119D01*
X055412Y039074D01*
X055458Y039043D01*
X055512Y039033D01*
X055566Y039043D01*
X055611Y039074D01*
X055642Y039119D01*
X055652Y039173D01*
X055642Y039227D01*
X055611Y039273D01*
X055566Y039303D01*
X055512Y039314D01*
D02*
G37*
G36*
X055354Y038959D02*
X055301Y038949D01*
X055255Y038918D01*
X055225Y038873D01*
X055214Y038819D01*
X055225Y038765D01*
X055255Y03872D01*
X055301Y038689D01*
X055354Y038678D01*
X055408Y038689D01*
X055454Y03872D01*
X055484Y038765D01*
X055495Y038819D01*
X055484Y038873D01*
X055454Y038918D01*
X055408Y038949D01*
X055354Y038959D01*
D02*
G37*
G36*
X052212Y037977D02*
X052158Y037967D01*
X052113Y037936D01*
X052082Y037891D01*
X052071Y037837D01*
X052082Y037783D01*
X052113Y037738D01*
X052158Y037707D01*
X052212Y037696D01*
X052266Y037707D01*
X052311Y037738D01*
X052342Y037783D01*
X052352Y037837D01*
X052342Y037891D01*
X052311Y037936D01*
X052266Y037967D01*
X052212Y037977D01*
D02*
G37*
G36*
X051191Y03768D02*
X051138Y037669D01*
X051092Y037639D01*
X051062Y037593D01*
X051051Y037539D01*
X051062Y037486D01*
X051092Y03744D01*
X051138Y03741D01*
X051191Y037399D01*
X051245Y03741D01*
X051291Y03744D01*
X051321Y037486D01*
X051332Y037539D01*
X051321Y037593D01*
X051291Y037639D01*
X051245Y037669D01*
X051191Y03768D01*
D02*
G37*
G36*
X049876D02*
X049822Y037669D01*
X049776Y037639D01*
X049746Y037593D01*
X049735Y037539D01*
X049746Y037486D01*
X049776Y03744D01*
X049822Y03741D01*
X049876Y037399D01*
X049929Y03741D01*
X049975Y03744D01*
X050005Y037486D01*
X050016Y037539D01*
X050005Y037593D01*
X049975Y037639D01*
X049929Y037669D01*
X049876Y03768D01*
D02*
G37*
G36*
X054033Y036718D02*
X053979Y036707D01*
X053934Y036676D01*
X053903Y036631D01*
X053893Y036577D01*
X053903Y036523D01*
X053934Y036478D01*
X053979Y036447D01*
X054033Y036437D01*
X054087Y036447D01*
X054132Y036478D01*
X054163Y036523D01*
X054174Y036577D01*
X054163Y036631D01*
X054132Y036676D01*
X054087Y036707D01*
X054033Y036718D01*
D02*
G37*
G36*
X052212Y036588D02*
X052158Y036577D01*
X052113Y036547D01*
X052082Y036501D01*
X052071Y036448D01*
X052082Y036394D01*
X052113Y036348D01*
X052158Y036318D01*
X052212Y036307D01*
X052266Y036318D01*
X052311Y036348D01*
X052342Y036394D01*
X052352Y036448D01*
X052342Y036501D01*
X052311Y036547D01*
X052266Y036577D01*
X052212Y036588D01*
D02*
G37*
G36*
Y035199D02*
X052158Y035188D01*
X052113Y035158D01*
X052082Y035112D01*
X052071Y035058D01*
X052082Y035004D01*
X052113Y034959D01*
X052158Y034928D01*
X052212Y034918D01*
X052266Y034928D01*
X052311Y034959D01*
X052342Y035004D01*
X052352Y035058D01*
X052342Y035112D01*
X052311Y035158D01*
X052266Y035188D01*
X052212Y035199D01*
D02*
G37*
G36*
X052648Y034944D02*
X052594Y034933D01*
X052548Y034902D01*
X052518Y034857D01*
X052507Y034803D01*
X052518Y034749D01*
X052548Y034704D01*
X052594Y034673D01*
X052648Y034663D01*
X052701Y034673D01*
X052747Y034704D01*
X052777Y034749D01*
X052788Y034803D01*
X052777Y034857D01*
X052747Y034902D01*
X052701Y034933D01*
X052648Y034944D01*
D02*
G37*
G36*
X03489Y034823D02*
X034836Y034812D01*
X03479Y034782D01*
X03476Y034736D01*
X034749Y034682D01*
X03476Y034629D01*
X03479Y034583D01*
X034836Y034553D01*
X03489Y034542D01*
X034943Y034553D01*
X034989Y034583D01*
X035019Y034629D01*
X03503Y034682D01*
X035019Y034736D01*
X034989Y034782D01*
X034943Y034812D01*
X03489Y034823D01*
D02*
G37*
G36*
X033386Y034589D02*
X033332Y034579D01*
X033286Y034548D01*
X033256Y034503D01*
X033245Y034449D01*
X033256Y034395D01*
X033286Y034349D01*
X033332Y034319D01*
X033386Y034308D01*
X03344Y034319D01*
X033485Y034349D01*
X033516Y034395D01*
X033526Y034449D01*
X033516Y034503D01*
X033485Y034548D01*
X03344Y034579D01*
X033386Y034589D01*
D02*
G37*
G36*
X030063Y034961D02*
X029354D01*
Y034252D01*
X030063D01*
Y034961D01*
D02*
G37*
G36*
X031709Y034964D02*
X031616Y034952D01*
X03153Y034916D01*
X031456Y034859D01*
X031399Y034785D01*
X031363Y034699D01*
X031351Y034606D01*
X031363Y034514D01*
X031399Y034428D01*
X031456Y034354D01*
X03153Y034297D01*
X031616Y034261D01*
X031709Y034249D01*
X031801Y034261D01*
X031887Y034297D01*
X031961Y034354D01*
X032018Y034428D01*
X032054Y034514D01*
X032066Y034606D01*
X032054Y034699D01*
X032018Y034785D01*
X031961Y034859D01*
X031887Y034916D01*
X031801Y034952D01*
X031709Y034964D01*
D02*
G37*
G36*
X030709D02*
X030616Y034952D01*
X03053Y034916D01*
X030456Y034859D01*
X030399Y034785D01*
X030363Y034699D01*
X030351Y034606D01*
X030363Y034514D01*
X030399Y034428D01*
X030456Y034354D01*
X03053Y034297D01*
X030616Y034261D01*
X030709Y034249D01*
X030801Y034261D01*
X030887Y034297D01*
X030961Y034354D01*
X031018Y034428D01*
X031054Y034514D01*
X031066Y034606D01*
X031054Y034699D01*
X031018Y034785D01*
X030961Y034859D01*
X030887Y034916D01*
X030801Y034952D01*
X030709Y034964D01*
D02*
G37*
G36*
X035443Y033999D02*
X035389Y033988D01*
X035344Y033958D01*
X035313Y033912D01*
X035302Y033858D01*
X035313Y033805D01*
X035344Y033759D01*
X035372Y03374D01*
X035344Y033721D01*
X035313Y033676D01*
X035302Y033622D01*
X035313Y033568D01*
X035344Y033523D01*
X035389Y033492D01*
X035443Y033482D01*
X035497Y033492D01*
X035542Y033523D01*
X035573Y033568D01*
X035583Y033622D01*
X035573Y033676D01*
X035542Y033721D01*
X035514Y03374D01*
X035542Y033759D01*
X035573Y033805D01*
X035583Y033858D01*
X035573Y033912D01*
X035542Y033958D01*
X035497Y033988D01*
X035443Y033999D01*
D02*
G37*
G36*
X033386Y033566D02*
X033332Y033555D01*
X033286Y033525D01*
X033256Y033479D01*
X033245Y033425D01*
X033256Y033371D01*
X033286Y033326D01*
X033332Y033295D01*
X033386Y033285D01*
X03344Y033295D01*
X033485Y033326D01*
X033516Y033371D01*
X033526Y033425D01*
X033516Y033479D01*
X033485Y033525D01*
X03344Y033555D01*
X033386Y033566D01*
D02*
G37*
G36*
X029063Y033346D02*
X028354D01*
Y032638D01*
X029063D01*
Y033346D01*
D02*
G37*
G36*
X031709Y03335D02*
X031616Y033337D01*
X03153Y033302D01*
X031456Y033245D01*
X031399Y033171D01*
X031363Y033085D01*
X031351Y032992D01*
X031363Y0329D01*
X031399Y032813D01*
X031456Y032739D01*
X03153Y032683D01*
X031616Y032647D01*
X031709Y032635D01*
X031801Y032647D01*
X031887Y032683D01*
X031961Y032739D01*
X032018Y032813D01*
X032054Y0329D01*
X032066Y032992D01*
X032054Y033085D01*
X032018Y033171D01*
X031961Y033245D01*
X031887Y033302D01*
X031801Y033337D01*
X031709Y03335D01*
D02*
G37*
G36*
X030709D02*
X030616Y033337D01*
X03053Y033302D01*
X030456Y033245D01*
X030399Y033171D01*
X030363Y033085D01*
X030351Y032992D01*
X030363Y0329D01*
X030399Y032813D01*
X030456Y032739D01*
X03053Y032683D01*
X030616Y032647D01*
X030709Y032635D01*
X030801Y032647D01*
X030887Y032683D01*
X030961Y032739D01*
X031018Y032813D01*
X031054Y0329D01*
X031066Y032992D01*
X031054Y033085D01*
X031018Y033171D01*
X030961Y033245D01*
X030887Y033302D01*
X030801Y033337D01*
X030709Y03335D01*
D02*
G37*
G36*
X029709D02*
X029616Y033337D01*
X02953Y033302D01*
X029456Y033245D01*
X029399Y033171D01*
X029363Y033085D01*
X029351Y032992D01*
X029363Y0329D01*
X029399Y032813D01*
X029456Y032739D01*
X02953Y032683D01*
X029616Y032647D01*
X029709Y032635D01*
X029801Y032647D01*
X029887Y032683D01*
X029961Y032739D01*
X030018Y032813D01*
X030054Y0329D01*
X030066Y032992D01*
X030054Y033085D01*
X030018Y033171D01*
X029961Y033245D01*
X029887Y033302D01*
X029801Y033337D01*
X029709Y03335D01*
D02*
G37*
G36*
X032037Y032483D02*
X031984Y032472D01*
X031938Y032442D01*
X031908Y032396D01*
X031897Y032343D01*
X031908Y032289D01*
X031938Y032243D01*
X031984Y032213D01*
X032037Y032202D01*
X032091Y032213D01*
X032137Y032243D01*
X032167Y032289D01*
X032178Y032343D01*
X032167Y032396D01*
X032137Y032442D01*
X032091Y032472D01*
X032037Y032483D01*
D02*
G37*
G36*
X031476Y032306D02*
X031423Y032295D01*
X031377Y032265D01*
X031347Y032219D01*
X031336Y032165D01*
X031347Y032112D01*
X031377Y032066D01*
X031423Y032036D01*
X031476Y032025D01*
X03153Y032036D01*
X031576Y032066D01*
X031606Y032112D01*
X031617Y032165D01*
X031606Y032219D01*
X031576Y032265D01*
X03153Y032295D01*
X031476Y032306D01*
D02*
G37*
G36*
X028461Y03229D02*
X028407Y032279D01*
X028361Y032249D01*
X028331Y032203D01*
X02832Y03215D01*
X028331Y032096D01*
X028361Y03205D01*
X028407Y03202D01*
X028461Y032009D01*
X028514Y03202D01*
X02856Y03205D01*
X02859Y032096D01*
X028601Y03215D01*
X02859Y032203D01*
X02856Y032249D01*
X028514Y032279D01*
X028461Y03229D01*
D02*
G37*
G36*
X03026Y03229D02*
X030206Y032279D01*
X030161Y032249D01*
X03013Y032203D01*
X030119Y03215D01*
X03013Y032096D01*
X030161Y03205D01*
X030206Y03202D01*
X03026Y032009D01*
X030314Y03202D01*
X030359Y03205D01*
X03039Y032096D01*
X0304Y03215D01*
X03039Y032203D01*
X030359Y032249D01*
X030314Y032279D01*
X03026Y03229D01*
D02*
G37*
G36*
X029256Y03229D02*
X029202Y032279D01*
X029157Y032249D01*
X029126Y032203D01*
X029115Y03215D01*
X029126Y032096D01*
X029157Y03205D01*
X029202Y03202D01*
X029256Y032009D01*
X02931Y03202D01*
X029355Y03205D01*
X029364Y032064D01*
X029373Y03205D01*
X029419Y03202D01*
X029472Y032009D01*
X029526Y03202D01*
X029572Y03205D01*
X029602Y032096D01*
X029613Y03215D01*
X029602Y032203D01*
X029572Y032249D01*
X029526Y032279D01*
X029472Y03229D01*
X029419Y032279D01*
X029373Y032249D01*
X029364Y032236D01*
X029355Y032249D01*
X02931Y032279D01*
X029256Y03229D01*
D02*
G37*
G36*
X046359Y031942D02*
X046305Y031931D01*
X04626Y031901D01*
X046229Y031855D01*
X046219Y031801D01*
X046229Y031747D01*
X04626Y031702D01*
X046305Y031671D01*
X046359Y031661D01*
X046413Y031671D01*
X046459Y031702D01*
X046489Y031747D01*
X0465Y031801D01*
X046489Y031855D01*
X046459Y031901D01*
X046413Y031931D01*
X046359Y031942D01*
D02*
G37*
G36*
X029469Y031282D02*
X029415Y031272D01*
X029369Y031241D01*
X02936Y031228D01*
X029351Y031241D01*
X029306Y031272D01*
X029252Y031282D01*
X029198Y031272D01*
X029153Y031241D01*
X029122Y031195D01*
X029111Y031142D01*
X029122Y031088D01*
X029153Y031042D01*
X029198Y031012D01*
X029252Y031001D01*
X029306Y031012D01*
X029351Y031042D01*
X02936Y031056D01*
X029369Y031042D01*
X029415Y031012D01*
X029469Y031001D01*
X029522Y031012D01*
X029568Y031042D01*
X029598Y031088D01*
X029609Y031142D01*
X029598Y031195D01*
X029568Y031241D01*
X029522Y031272D01*
X029469Y031282D01*
D02*
G37*
G36*
X031476D02*
X031423Y031272D01*
X031377Y031241D01*
X031347Y031195D01*
X031336Y031142D01*
X031347Y031088D01*
X031377Y031042D01*
X031423Y031012D01*
X031476Y031001D01*
X03153Y031012D01*
X031576Y031042D01*
X031606Y031088D01*
X031617Y031142D01*
X031606Y031195D01*
X031576Y031241D01*
X03153Y031272D01*
X031476Y031282D01*
D02*
G37*
G36*
X030256D02*
X030202Y031272D01*
X030157Y031241D01*
X030126Y031195D01*
X030115Y031142D01*
X030126Y031088D01*
X030157Y031042D01*
X030202Y031012D01*
X030256Y031001D01*
X03031Y031012D01*
X030355Y031042D01*
X030386Y031088D01*
X030396Y031142D01*
X030386Y031195D01*
X030355Y031241D01*
X03031Y031272D01*
X030256Y031282D01*
D02*
G37*
G36*
X028465D02*
X028411Y031272D01*
X028365Y031241D01*
X028335Y031195D01*
X028324Y031142D01*
X028335Y031088D01*
X028365Y031042D01*
X028411Y031012D01*
X028465Y031001D01*
X028518Y031012D01*
X028564Y031042D01*
X028594Y031088D01*
X028605Y031142D01*
X028594Y031195D01*
X028564Y031241D01*
X028518Y031272D01*
X028465Y031282D01*
D02*
G37*
G36*
X032037Y031105D02*
X031984Y031094D01*
X031938Y031064D01*
X031908Y031018D01*
X031897Y030965D01*
X031908Y030911D01*
X031938Y030865D01*
X031984Y030835D01*
X032037Y030824D01*
X032091Y030835D01*
X032137Y030865D01*
X032167Y030911D01*
X032178Y030965D01*
X032167Y031018D01*
X032137Y031064D01*
X032091Y031094D01*
X032037Y031105D01*
D02*
G37*
G36*
X029079Y030709D02*
X02837D01*
Y03D01*
X029079D01*
Y030709D01*
D02*
G37*
G36*
X031724Y030712D02*
X031632Y0307D01*
X031546Y030664D01*
X031472Y030607D01*
X031415Y030533D01*
X031379Y030447D01*
X031367Y030354D01*
X031379Y030262D01*
X031415Y030176D01*
X031472Y030102D01*
X031546Y030045D01*
X031632Y030009D01*
X031724Y029997D01*
X031817Y030009D01*
X031903Y030045D01*
X031977Y030102D01*
X032034Y030176D01*
X03207Y030262D01*
X032082Y030354D01*
X03207Y030447D01*
X032034Y030533D01*
X031977Y030607D01*
X031903Y030664D01*
X031817Y0307D01*
X031724Y030712D01*
D02*
G37*
G36*
X030724D02*
X030632Y0307D01*
X030546Y030664D01*
X030472Y030607D01*
X030415Y030533D01*
X030379Y030447D01*
X030367Y030354D01*
X030379Y030262D01*
X030415Y030176D01*
X030472Y030102D01*
X030546Y030045D01*
X030632Y030009D01*
X030724Y029997D01*
X030817Y030009D01*
X030903Y030045D01*
X030977Y030102D01*
X031034Y030176D01*
X03107Y030262D01*
X031082Y030354D01*
X03107Y030447D01*
X031034Y030533D01*
X030977Y030607D01*
X030903Y030664D01*
X030817Y0307D01*
X030724Y030712D01*
D02*
G37*
G36*
X029724D02*
X029632Y0307D01*
X029546Y030664D01*
X029472Y030607D01*
X029415Y030533D01*
X029379Y030447D01*
X029367Y030354D01*
X029379Y030262D01*
X029415Y030176D01*
X029472Y030102D01*
X029546Y030045D01*
X029632Y030009D01*
X029724Y029997D01*
X029817Y030009D01*
X029903Y030045D01*
X029977Y030102D01*
X030034Y030176D01*
X03007Y030262D01*
X030082Y030354D01*
X03007Y030447D01*
X030034Y030533D01*
X029977Y030607D01*
X029903Y030664D01*
X029817Y0307D01*
X029724Y030712D01*
D02*
G37*
G36*
X043701Y029353D02*
X043647Y029342D01*
X043601Y029312D01*
X043571Y029266D01*
X04356Y029213D01*
X043571Y029159D01*
X043601Y029113D01*
X043647Y029083D01*
X043701Y029072D01*
X043755Y029083D01*
X0438Y029113D01*
X043831Y029159D01*
X043841Y029213D01*
X043831Y029266D01*
X0438Y029312D01*
X043755Y029342D01*
X043701Y029353D01*
D02*
G37*
G36*
X02878Y029156D02*
X028726Y029146D01*
X02868Y029115D01*
X02865Y02907D01*
X028639Y029016D01*
X02865Y028962D01*
X02868Y028916D01*
X028726Y028886D01*
X02878Y028875D01*
X028833Y028886D01*
X028879Y028916D01*
X028909Y028962D01*
X02892Y029016D01*
X028909Y02907D01*
X028879Y029115D01*
X028833Y029146D01*
X02878Y029156D01*
D02*
G37*
G36*
X028453Y029143D02*
X028399Y029132D01*
X028353Y029102D01*
X028323Y029056D01*
X028312Y029002D01*
X028323Y028949D01*
X028353Y028903D01*
X028399Y028873D01*
X028453Y028862D01*
X028506Y028873D01*
X028552Y028903D01*
X028582Y028949D01*
X028593Y029002D01*
X028582Y029056D01*
X028552Y029102D01*
X028506Y029132D01*
X028453Y029143D01*
D02*
G37*
G36*
X029173Y028841D02*
X029119Y028831D01*
X029074Y0288D01*
X029043Y028755D01*
X029033Y028701D01*
X029043Y028647D01*
X029074Y028601D01*
X029119Y028571D01*
X029173Y02856D01*
X029227Y028571D01*
X029273Y028601D01*
X029303Y028647D01*
X029314Y028701D01*
X029303Y028755D01*
X029273Y0288D01*
X029227Y028831D01*
X029173Y028841D01*
D02*
G37*
G36*
X028767Y028828D02*
X028714Y028817D01*
X028668Y028787D01*
X028638Y028741D01*
X028627Y028687D01*
X028638Y028634D01*
X028668Y028588D01*
X028714Y028558D01*
X028767Y028547D01*
X028821Y028558D01*
X028867Y028588D01*
X028897Y028634D01*
X028908Y028687D01*
X028897Y028741D01*
X028867Y028787D01*
X028821Y028817D01*
X028767Y028828D01*
D02*
G37*
G36*
X040128Y028831D02*
X040074Y028821D01*
X040029Y02879D01*
X039998Y028745D01*
X039987Y028691D01*
X039998Y028637D01*
X040027Y028594D01*
X040034Y02858D01*
Y028546D01*
X040027Y028532D01*
X039998Y028489D01*
X039987Y028435D01*
X039998Y028381D01*
X040029Y028336D01*
X040074Y028305D01*
X040128Y028295D01*
X040182Y028305D01*
X040227Y028336D01*
X040258Y028381D01*
X040268Y028435D01*
X040258Y028489D01*
X040229Y028532D01*
X040222Y028546D01*
Y02858D01*
X040229Y028594D01*
X040258Y028637D01*
X040268Y028691D01*
X040258Y028745D01*
X040227Y02879D01*
X040182Y028821D01*
X040128Y028831D01*
D02*
G37*
G36*
X029173Y028526D02*
X029119Y028516D01*
X029074Y028485D01*
X029043Y02844D01*
X029033Y028386D01*
X029043Y028332D01*
X029074Y028286D01*
X029119Y028256D01*
X029173Y028245D01*
X029227Y028256D01*
X029273Y028286D01*
X029303Y028332D01*
X029314Y028386D01*
X029303Y02844D01*
X029273Y028485D01*
X029227Y028516D01*
X029173Y028526D01*
D02*
G37*
G36*
X028767Y028513D02*
X028714Y028502D01*
X028668Y028472D01*
X028638Y028426D01*
X028627Y028372D01*
X028638Y028319D01*
X028668Y028273D01*
X028714Y028243D01*
X028767Y028232D01*
X028821Y028243D01*
X028867Y028273D01*
X028897Y028319D01*
X028908Y028372D01*
X028897Y028426D01*
X028867Y028472D01*
X028821Y028502D01*
X028767Y028513D01*
D02*
G37*
G36*
X02878Y028172D02*
X028726Y028161D01*
X02868Y028131D01*
X02865Y028085D01*
X028639Y028031D01*
X02865Y027978D01*
X02868Y027932D01*
X028726Y027902D01*
X02878Y027891D01*
X028833Y027902D01*
X028879Y027932D01*
X028909Y027978D01*
X02892Y028031D01*
X028909Y028085D01*
X028879Y028131D01*
X028833Y028161D01*
X02878Y028172D01*
D02*
G37*
G36*
X041183Y028056D02*
X04113Y028045D01*
X041084Y028015D01*
X041054Y027969D01*
X041043Y027916D01*
X041054Y027862D01*
X041084Y027816D01*
X04113Y027786D01*
X041183Y027775D01*
X041237Y027786D01*
X041283Y027816D01*
X041313Y027862D01*
X041324Y027916D01*
X041313Y027969D01*
X041283Y028015D01*
X041237Y028045D01*
X041183Y028056D01*
D02*
G37*
G36*
X041181Y0277D02*
X041127Y027689D01*
X041082Y027658D01*
X041051Y027613D01*
X041041Y027559D01*
X041051Y027505D01*
X041082Y02746D01*
X041127Y027429D01*
X041181Y027419D01*
X041235Y027429D01*
X04128Y02746D01*
X041311Y027505D01*
X041322Y027559D01*
X041311Y027613D01*
X04128Y027658D01*
X041235Y027689D01*
X041181Y0277D01*
D02*
G37*
G36*
X041183Y02719D02*
X04113Y027179D01*
X041084Y027149D01*
X041054Y027103D01*
X041043Y02705D01*
X041054Y026996D01*
X041084Y02695D01*
X04113Y02692D01*
X041183Y026909D01*
X041237Y02692D01*
X041283Y02695D01*
X041313Y026996D01*
X041324Y02705D01*
X041313Y027103D01*
X041283Y027149D01*
X041237Y027179D01*
X041183Y02719D01*
D02*
G37*
G36*
X059724Y038841D02*
X059671Y038831D01*
X059625Y0388D01*
X059595Y038755D01*
X059584Y038701D01*
X059595Y038647D01*
X059625Y038601D01*
X059671Y038571D01*
X059724Y03856D01*
X059778Y038571D01*
X059824Y038601D01*
X059854Y038647D01*
X059865Y038701D01*
X059854Y038755D01*
X059824Y0388D01*
X059778Y038831D01*
X059724Y038841D01*
D02*
G37*
G36*
X059055D02*
X059001Y038831D01*
X058956Y0388D01*
X058925Y038755D01*
X058915Y038701D01*
X058925Y038647D01*
X058956Y038601D01*
X059001Y038571D01*
X059055Y03856D01*
X059109Y038571D01*
X059154Y038601D01*
X059185Y038647D01*
X059196Y038701D01*
X059185Y038755D01*
X059154Y0388D01*
X059109Y038831D01*
X059055Y038841D01*
D02*
G37*
G36*
X059646Y038369D02*
X059592Y038358D01*
X059546Y038328D01*
X059516Y038282D01*
X059505Y038228D01*
X059516Y038175D01*
X059546Y038129D01*
X059592Y038099D01*
X059646Y038088D01*
X059699Y038099D01*
X059745Y038129D01*
X059775Y038175D01*
X059786Y038228D01*
X059775Y038282D01*
X059745Y038328D01*
X059699Y038358D01*
X059646Y038369D01*
D02*
G37*
G36*
X059252D02*
X059198Y038358D01*
X059153Y038328D01*
X059122Y038282D01*
X059111Y038228D01*
X059122Y038175D01*
X059153Y038129D01*
X059198Y038099D01*
X059252Y038088D01*
X059306Y038099D01*
X059351Y038129D01*
X059382Y038175D01*
X059392Y038228D01*
X059382Y038282D01*
X059351Y038328D01*
X059306Y038358D01*
X059252Y038369D01*
D02*
G37*
G36*
X058858D02*
X058804Y038358D01*
X058759Y038328D01*
X058728Y038282D01*
X058718Y038228D01*
X058728Y038175D01*
X058759Y038129D01*
X058804Y038099D01*
X058858Y038088D01*
X058912Y038099D01*
X058958Y038129D01*
X058988Y038175D01*
X058999Y038228D01*
X058988Y038282D01*
X058958Y038328D01*
X058912Y038358D01*
X058858Y038369D01*
D02*
G37*
G36*
X059646Y037975D02*
X059592Y037964D01*
X059546Y037934D01*
X059516Y037888D01*
X059505Y037835D01*
X059516Y037781D01*
X059546Y037735D01*
X059592Y037705D01*
X059646Y037694D01*
X059699Y037705D01*
X059745Y037735D01*
X059775Y037781D01*
X059786Y037835D01*
X059775Y037888D01*
X059745Y037934D01*
X059699Y037964D01*
X059646Y037975D01*
D02*
G37*
G36*
X059252D02*
X059198Y037964D01*
X059153Y037934D01*
X059122Y037888D01*
X059111Y037835D01*
X059122Y037781D01*
X059153Y037735D01*
X059198Y037705D01*
X059252Y037694D01*
X059306Y037705D01*
X059351Y037735D01*
X059382Y037781D01*
X059392Y037835D01*
X059382Y037888D01*
X059351Y037934D01*
X059306Y037964D01*
X059252Y037975D01*
D02*
G37*
G36*
X058858D02*
X058804Y037964D01*
X058759Y037934D01*
X058728Y037888D01*
X058718Y037835D01*
X058728Y037781D01*
X058759Y037735D01*
X058804Y037705D01*
X058858Y037694D01*
X058912Y037705D01*
X058958Y037735D01*
X058988Y037781D01*
X058999Y037835D01*
X058988Y037888D01*
X058958Y037934D01*
X058912Y037964D01*
X058858Y037975D01*
D02*
G37*
G36*
X059646Y037581D02*
X059592Y037571D01*
X059546Y03754D01*
X059516Y037495D01*
X059505Y037441D01*
X059516Y037387D01*
X059546Y037342D01*
X059592Y037311D01*
X059646Y0373D01*
X059699Y037311D01*
X059745Y037342D01*
X059775Y037387D01*
X059786Y037441D01*
X059775Y037495D01*
X059745Y03754D01*
X059699Y037571D01*
X059646Y037581D01*
D02*
G37*
G36*
X059252D02*
X059198Y037571D01*
X059153Y03754D01*
X059122Y037495D01*
X059111Y037441D01*
X059122Y037387D01*
X059153Y037342D01*
X059198Y037311D01*
X059252Y0373D01*
X059306Y037311D01*
X059351Y037342D01*
X059382Y037387D01*
X059392Y037441D01*
X059382Y037495D01*
X059351Y03754D01*
X059306Y037571D01*
X059252Y037581D01*
D02*
G37*
G36*
X058858D02*
X058804Y037571D01*
X058759Y03754D01*
X058728Y037495D01*
X058718Y037441D01*
X058728Y037387D01*
X058759Y037342D01*
X058804Y037311D01*
X058858Y0373D01*
X058912Y037311D01*
X058958Y037342D01*
X058988Y037387D01*
X058999Y037441D01*
X058988Y037495D01*
X058958Y03754D01*
X058912Y037571D01*
X058858Y037581D01*
D02*
G37*
G36*
X059646Y037188D02*
X059592Y037177D01*
X059546Y037147D01*
X059516Y037101D01*
X059505Y037047D01*
X059516Y036993D01*
X059546Y036948D01*
X059592Y036917D01*
X059646Y036907D01*
X059699Y036917D01*
X059745Y036948D01*
X059775Y036993D01*
X059786Y037047D01*
X059775Y037101D01*
X059745Y037147D01*
X059699Y037177D01*
X059646Y037188D01*
D02*
G37*
G36*
X059252D02*
X059198Y037177D01*
X059153Y037147D01*
X059122Y037101D01*
X059111Y037047D01*
X059122Y036993D01*
X059153Y036948D01*
X059198Y036917D01*
X059252Y036907D01*
X059306Y036917D01*
X059351Y036948D01*
X059382Y036993D01*
X059392Y037047D01*
X059382Y037101D01*
X059351Y037147D01*
X059306Y037177D01*
X059252Y037188D01*
D02*
G37*
G36*
X058858D02*
X058804Y037177D01*
X058759Y037147D01*
X058728Y037101D01*
X058718Y037047D01*
X058728Y036993D01*
X058759Y036948D01*
X058804Y036917D01*
X058858Y036907D01*
X058912Y036917D01*
X058958Y036948D01*
X058988Y036993D01*
X058999Y037047D01*
X058988Y037101D01*
X058958Y037147D01*
X058912Y037177D01*
X058858Y037188D01*
D02*
G37*
G36*
X059331Y036085D02*
X059277Y036075D01*
X059231Y036044D01*
X059201Y035999D01*
X05919Y035945D01*
X059201Y035891D01*
X059231Y035846D01*
X059277Y035815D01*
X059331Y035804D01*
X059384Y035815D01*
X05943Y035846D01*
X059461Y035891D01*
X059471Y035945D01*
X059461Y035999D01*
X05943Y036044D01*
X059384Y036075D01*
X059331Y036085D01*
D02*
G37*
G36*
X0594Y029215D02*
X059346Y029205D01*
X0593Y029174D01*
X05927Y029129D01*
X059259Y029075D01*
X05927Y029021D01*
X0593Y028975D01*
X059346Y028945D01*
X0594Y028934D01*
X059453Y028945D01*
X059499Y028975D01*
X059529Y029021D01*
X05954Y029075D01*
X059529Y029129D01*
X059499Y029174D01*
X059453Y029205D01*
X0594Y029215D01*
D02*
G37*
G36*
X059409Y028428D02*
X059356Y028417D01*
X05931Y028387D01*
X05928Y028341D01*
X059269Y028287D01*
X05928Y028234D01*
X05931Y028188D01*
X059356Y028158D01*
X059409Y028147D01*
X059463Y028158D01*
X059509Y028188D01*
X059539Y028234D01*
X05955Y028287D01*
X059539Y028341D01*
X059509Y028387D01*
X059463Y028417D01*
X059409Y028428D01*
D02*
G37*
G36*
X045984Y023054D02*
X04593Y023043D01*
X045885Y023013D01*
X045854Y022967D01*
X045844Y022913D01*
X045854Y02286D01*
X045885Y022814D01*
X04593Y022784D01*
X045984Y022773D01*
X046038Y022784D01*
X046084Y022814D01*
X046114Y02286D01*
X046125Y022913D01*
X046114Y022967D01*
X046084Y023013D01*
X046038Y023043D01*
X045984Y023054D01*
D02*
G37*
G36*
Y022266D02*
X04593Y022256D01*
X045885Y022225D01*
X045854Y02218D01*
X045844Y022126D01*
X045854Y022072D01*
X045885Y022027D01*
X04593Y021996D01*
X045984Y021985D01*
X046038Y021996D01*
X046084Y022027D01*
X046114Y022072D01*
X046125Y022126D01*
X046114Y02218D01*
X046084Y022225D01*
X046038Y022256D01*
X045984Y022266D01*
D02*
G37*
G36*
X04313Y023891D02*
X043077Y023881D01*
X043031Y02385D01*
X043001Y023805D01*
X04299Y023751D01*
X043001Y023697D01*
X043027Y023657D01*
X043Y023617D01*
X042989Y023563D01*
X043Y023509D01*
X043031Y023464D01*
X043076Y023433D01*
X04313Y023423D01*
X043184Y023433D01*
X043229Y023464D01*
X04326Y023509D01*
X04327Y023563D01*
X04326Y023617D01*
X043233Y023657D01*
X04326Y023697D01*
X043271Y023751D01*
X04326Y023805D01*
X04323Y02385D01*
X043184Y023881D01*
X04313Y023891D01*
D02*
G37*
%LPD*%
D13*
X056654Y035866D02*
X056929Y036142D01*
X056654Y032362D02*
Y035866D01*
X054646Y031102D02*
X05563Y032087D01*
X056378D02*
X056654Y032362D01*
X05563Y032087D02*
X056378D01*
D17*
X046853Y016139D02*
X047827D01*
X045906Y017087D02*
X046853Y016139D01*
X045906Y017087D02*
Y019764D01*
X044675Y020994D02*
X045906Y019764D01*
X043927Y020994D02*
X044675D01*
X043927D02*
Y021378D01*
X043386Y021919D02*
X043927Y021378D01*
X055512Y016693D02*
Y025197D01*
X05729Y027103D02*
X057313Y027126D01*
X05729Y026975D02*
Y027103D01*
X055512Y025197D02*
X05729Y026975D01*
X057305Y027134D02*
Y02732D01*
Y027134D02*
X057313Y027126D01*
X056799Y027826D02*
X057305Y02732D01*
X056799Y027826D02*
Y028073D01*
X056791Y028081D02*
X056799Y028073D01*
X055512Y016693D02*
X056066Y016139D01*
X057047D01*
D172*
X052825Y033346D02*
X05315Y033022D01*
X055837D01*
X055846Y033012D01*
X052825Y033346D02*
Y033612D01*
X053081Y032825D02*
X05623D01*
X052648Y033258D02*
X053081Y032825D01*
X052451Y029409D02*
X053819D01*
X05185Y028809D02*
X052451Y029409D01*
X053819D02*
X054055Y029646D01*
Y030423D01*
X054508Y030876D01*
X056171Y031604D02*
X056742D01*
X054508Y030876D02*
X055443D01*
X056171Y031604D01*
X045059Y029213D02*
X045777Y028495D01*
X044508Y029213D02*
X045059D01*
X055571Y035551D02*
Y036043D01*
X05435Y034331D02*
X055571Y035551D01*
X060148Y027234D02*
Y029705D01*
X059467Y026615D02*
X059528D01*
X060148Y027234D01*
X046102Y020472D02*
X046368D01*
X046791Y020896D01*
X043661Y033819D02*
Y036929D01*
X043228Y033386D02*
X043661Y033819D01*
X038504Y033386D02*
X043228D01*
X037913Y033976D02*
X038504Y033386D01*
X037913Y033976D02*
Y040433D01*
X037756Y040591D02*
X037913Y040433D01*
X036969Y040591D02*
X037756D01*
X03685Y040472D02*
X036969Y040591D01*
X03685Y040256D02*
Y040472D01*
X036752Y040157D02*
X03685Y040256D01*
X036526Y040157D02*
X036752D01*
X036526Y039921D02*
X036693D01*
X037283Y039331D01*
X051821Y027047D02*
X052894Y02812D01*
X049006Y027047D02*
X051821D01*
X04873Y027323D02*
X049006Y027047D01*
X045845Y027323D02*
X04873D01*
X04561Y027088D02*
X045845Y027323D01*
X04561Y026594D02*
Y027088D01*
X051929Y0269D02*
X052697Y027667D01*
X046596Y027065D02*
X046762Y0269D01*
X051929D01*
X052697Y027667D02*
X054016D01*
X045876Y026847D02*
X046094Y027065D01*
X046596D01*
X054016Y027667D02*
X054419Y028071D01*
X059872Y02998D02*
X060148Y029705D01*
X046791Y020896D02*
Y024163D01*
X046614Y024341D02*
X046791Y024163D01*
X057146Y028199D02*
Y028524D01*
X057894Y029272D02*
Y029862D01*
X057146Y028524D02*
X057894Y029272D01*
X058445Y030413D02*
X058701D01*
X057894Y029862D02*
X058445Y030413D01*
X058701D02*
X058789Y030502D01*
Y030689D01*
X058602Y030876D02*
X058789Y030689D01*
X057028Y028081D02*
X057146Y028199D01*
X056791Y028081D02*
X057028D01*
X045777Y028495D02*
X051536D01*
X05185Y028809D01*
X052894Y02812D02*
X053937D01*
X055384Y028502D02*
Y028543D01*
Y028502D02*
X055433Y028453D01*
X055547D01*
X055597Y028403D01*
Y028254D02*
Y028403D01*
X055547Y028205D02*
X055597Y028254D01*
X055393Y028205D02*
X055547D01*
X055343Y028155D02*
X055393Y028205D01*
X055343Y028006D02*
Y028155D01*
Y028006D02*
X055393Y027957D01*
X055547D01*
X055597Y027907D01*
Y027758D02*
Y027907D01*
X055547Y027709D02*
X055597Y027758D01*
X055393Y027709D02*
X055547D01*
X055343Y027659D02*
X055393Y027709D01*
X055343Y02751D02*
Y027659D01*
Y02751D02*
X055393Y027461D01*
X055547D01*
X055597Y027411D01*
Y027262D02*
Y027411D01*
X055547Y027213D02*
X055597Y027262D01*
X055433Y027213D02*
X055547D01*
X055384Y027163D02*
X055433Y027213D01*
X055384Y026988D02*
Y027163D01*
X055217Y026821D02*
X055384Y026988D01*
X054371Y02625D02*
X054577D01*
X054321Y0262D02*
X054371Y02625D01*
X054321Y025995D02*
Y0262D01*
X054272Y025945D02*
X054321Y025995D01*
X054123Y025945D02*
X054272D01*
X054073Y025995D02*
X054123Y025945D01*
X054073Y025995D02*
Y026202D01*
X054024Y026252D02*
X054073Y026202D01*
X053875Y026252D02*
X054024D01*
X053825Y026202D02*
X053875Y026252D01*
X053825Y025995D02*
Y026202D01*
X053776Y025945D02*
X053825Y025995D01*
X053627Y025945D02*
X053776D01*
X053577Y025995D02*
X053627Y025945D01*
X053577Y025995D02*
Y026202D01*
X053528Y026252D02*
X053577Y026202D01*
X053379Y026252D02*
X053528D01*
X053329Y026202D02*
X053379Y026252D01*
X053329Y025995D02*
Y026202D01*
X05328Y025945D02*
X053329Y025995D01*
X053131Y025945D02*
X05328D01*
X053081Y025995D02*
X053131Y025945D01*
X053081Y025995D02*
Y026202D01*
X053032Y026252D02*
X053081Y026202D01*
X052883Y026252D02*
X053032D01*
X052833Y026202D02*
X052883Y026252D01*
X052833Y025995D02*
Y026202D01*
X052784Y025945D02*
X052833Y025995D01*
X052635Y025945D02*
X052784D01*
X052585Y025995D02*
X052635Y025945D01*
X052585Y025995D02*
Y0262D01*
X052536Y02625D02*
X052585Y0262D01*
X052264Y02625D02*
X052536D01*
X054577D02*
X054646D01*
X04915D02*
X052264D01*
X055384Y028543D02*
Y028992D01*
X054646Y02625D02*
X055217Y026821D01*
X048268Y025226D02*
X048573D01*
X048169Y025325D02*
Y025703D01*
Y025325D02*
X048268Y025226D01*
X048169Y025703D02*
X048473Y026006D01*
X047921D02*
X04804D01*
X047805Y026122D02*
Y026358D01*
Y026122D02*
X047921Y026006D01*
X047805Y026358D02*
X048022Y026575D01*
X055315Y029833D02*
Y030128D01*
Y029833D02*
X055396Y029752D01*
X055593D01*
X048022Y026575D02*
X054449D01*
X047953Y026752D02*
X054331D01*
X047607Y026006D02*
Y026406D01*
X047953Y026752D01*
X048573Y025226D02*
X048681Y025335D01*
Y026214D01*
X048854Y026388D01*
X055236Y028363D02*
Y028553D01*
X055187Y028314D02*
X055236Y028363D01*
X055001Y028314D02*
X055187D01*
X054951Y028264D02*
X055001Y028314D01*
X054951Y028115D02*
Y028264D01*
Y028115D02*
X055001Y028066D01*
X055187D01*
X055236Y028016D01*
Y027992D02*
Y028016D01*
Y028553D02*
Y02912D01*
Y027106D02*
Y027992D01*
X055203Y030239D02*
X055315Y030128D01*
X054964Y030239D02*
X055203D01*
X054803Y030079D02*
X054964Y030239D01*
X056043Y030394D02*
X056506D01*
X055817Y030167D02*
X056043Y030394D01*
X055817Y029961D02*
Y030167D01*
Y029716D02*
Y029961D01*
Y029716D02*
X055867Y029666D01*
X056027D01*
X056077Y029617D01*
Y029468D02*
Y029617D01*
X056027Y029418D02*
X056077Y029468D01*
X055823Y029418D02*
X056027D01*
X055773Y029369D02*
X055823Y029418D01*
X055773Y02922D02*
Y029369D01*
Y02922D02*
X055823Y02917D01*
X056027D01*
X056077Y029121D01*
Y028972D02*
Y029121D01*
X056027Y028922D02*
X056077Y028972D01*
X055867Y028922D02*
X056027D01*
X055817Y028873D02*
X055867Y028922D01*
X055817Y028601D02*
Y028873D01*
Y027136D02*
Y028601D01*
X056506Y030394D02*
X05688Y030768D01*
X052648Y033258D02*
Y034331D01*
X05435D01*
X036654Y04314D02*
Y04373D01*
X037023Y041531D02*
X037028Y041535D01*
X037023Y041423D02*
Y041531D01*
X036703Y041102D02*
X037023Y041423D01*
X056742Y031604D02*
X056841Y031703D01*
X045955Y026496D02*
X046308Y026849D01*
X045709Y026496D02*
X045955D01*
X04561Y026594D02*
X045709Y026496D01*
X053937Y02812D02*
X054272Y028455D01*
Y030305D01*
X054636Y030669D01*
X056358D01*
X056762Y031073D01*
X058159D01*
X054764Y030551D02*
X056467D01*
X05685Y030935D02*
X057963D01*
X056467Y030551D02*
X05685Y030935D01*
X05688Y030768D02*
X057805D01*
X058159Y031073D02*
X058612Y03062D01*
X054419Y028071D02*
Y030207D01*
X054764Y030551D01*
X057963Y030935D02*
X058209Y030689D01*
X057805Y030768D02*
X0581Y030472D01*
X057913Y030098D02*
Y030246D01*
X049942Y025404D02*
X054685D01*
X057648Y029262D02*
Y029833D01*
X057913Y030098D01*
X057343Y028957D02*
X057648Y029262D01*
X056919Y028957D02*
X057343D01*
X056575Y028612D02*
X056919Y028957D01*
X056575Y028219D02*
Y028612D01*
X056201Y027844D02*
X056575Y028219D01*
X056201Y026919D02*
Y027844D01*
X054685Y025404D02*
X056201Y026919D01*
X056836Y029119D02*
X05719D01*
X056422Y028351D02*
Y028706D01*
X056836Y029119D01*
X05719D02*
X057441Y02937D01*
X056014Y027943D02*
X056422Y028351D01*
X057441Y02937D02*
Y030079D01*
X056014Y026969D02*
Y027943D01*
X057431Y030384D02*
X057776D01*
X057244Y030197D02*
X057431Y030384D01*
X057776D02*
X057913Y030246D01*
X049339Y026006D02*
X049942Y025404D01*
X054606Y025561D02*
X056014Y026969D01*
X050217Y025561D02*
X054606D01*
X049772Y026006D02*
X050217Y025561D01*
X05439Y025709D02*
X055817Y027136D01*
X050503Y025709D02*
X05439D01*
X050205Y026006D02*
X050503Y025709D01*
X054636Y030148D02*
X054892Y030404D01*
X054636Y027057D02*
Y030148D01*
X054892Y030404D02*
X055364D01*
X054449Y026575D02*
X054803Y026929D01*
Y030079D01*
X055593Y030028D02*
Y030175D01*
X055364Y030404D02*
X055593Y030175D01*
X048854Y026388D02*
X054518D01*
X055236Y027106D01*
X054331Y026752D02*
X054636Y027057D01*
X055236Y02912D02*
X055593Y029476D01*
X055384Y028992D02*
X055593Y029201D01*
X048906Y026006D02*
X04915Y02625D01*
D176*
X042041Y035549D02*
X042186D01*
X041995Y035595D02*
X042041Y035549D01*
X041995Y035595D02*
Y035739D01*
X041948Y035786D02*
X041995Y035739D01*
X041808Y035786D02*
X041948D01*
X041762Y035739D02*
X041808Y035786D01*
X041762Y035595D02*
Y035739D01*
X041715Y035549D02*
X041762Y035595D01*
X041699Y035549D02*
X041715D01*
X041154D02*
X041699D01*
X042186D02*
X042229D01*
X043932Y040322D02*
Y04078D01*
Y040322D02*
X044023Y040231D01*
X043819Y040276D02*
Y040827D01*
X043932Y04078D02*
X044103Y040951D01*
X043819Y040276D02*
X043976Y040118D01*
X043819Y040827D02*
X044056Y041064D01*
X044103Y040951D02*
X044416D01*
X044056Y041064D02*
X044369D01*
X043976Y040118D02*
X044429D01*
X044023Y040231D02*
X044476D01*
X044641Y040066D01*
Y041176D02*
Y041895D01*
X044528Y041223D02*
Y041848D01*
X043066Y038499D02*
X043381D01*
X044641Y039759D01*
X044242Y042137D02*
X044294Y042085D01*
X04445D01*
X044213Y042137D02*
X044242D01*
X04445Y042085D02*
X044641Y041895D01*
X04253Y037854D02*
Y038211D01*
X042441Y039124D02*
X043066Y038499D01*
X04248Y03671D02*
Y037025D01*
Y03564D02*
Y035972D01*
X042372Y037697D02*
X04253Y037854D01*
X042305Y039124D02*
X042441D01*
X042052Y038689D02*
X04253Y038211D01*
X04188Y037697D02*
X042372D01*
X041818Y03717D02*
X042335D01*
X04248Y037025D01*
X042315Y036545D02*
X04248Y03671D01*
X041794Y036545D02*
X042315D01*
X042052Y038871D02*
X042305Y039124D01*
X042052Y038689D02*
Y038871D01*
X041747Y037564D02*
X04188Y037697D01*
X041747Y037242D02*
X041818Y03717D01*
X041767Y036518D02*
X041794Y036545D01*
X041747Y037242D02*
Y037564D01*
X041789Y036166D02*
X042286D01*
X04248Y035972D01*
X041767Y036189D02*
Y036518D01*
Y036189D02*
X041789Y036166D01*
X042276Y035436D02*
X04248Y03564D01*
X041154Y035436D02*
X042276D01*
X041083Y035364D02*
X041154Y035436D01*
X041073Y035364D02*
X041083D01*
X043113Y038612D02*
X043334D01*
X044528Y039805D01*
Y04002D01*
X044294Y041972D02*
X044403D01*
X044528Y041848D01*
X044242Y04192D02*
X044294Y041972D01*
X044213Y04192D02*
X044242D01*
X042488Y039237D02*
X043113Y038612D01*
X042417Y037901D02*
Y038164D01*
X042259Y039237D02*
X042488D01*
X041939Y038642D02*
X042417Y038164D01*
X042325Y03781D02*
X042417Y037901D01*
X042367Y036757D02*
Y036978D01*
X041833Y03781D02*
X042325D01*
X042289Y037057D02*
X042367Y036978D01*
X041939Y038917D02*
X042259Y039237D01*
X041939Y038642D02*
Y038917D01*
X041634Y037611D02*
X041833Y03781D01*
X041634Y037195D02*
Y037611D01*
X041772Y037057D02*
X042289D01*
X041747Y036658D02*
X042269D01*
X041634Y037195D02*
X041772Y037057D01*
X042269Y036658D02*
X042367Y036757D01*
X042239Y036053D02*
X042367Y035925D01*
X041654Y036565D02*
X041747Y036658D01*
X041742Y036053D02*
X042239D01*
X042367Y035687D02*
Y035925D01*
X042229Y035549D02*
X042367Y035687D01*
X041654Y036142D02*
Y036565D01*
Y036142D02*
X041742Y036053D01*
X041083Y03562D02*
X041154Y035549D01*
X041073Y03562D02*
X041083D01*
X044369Y041064D02*
X044528Y041223D01*
X044416Y040951D02*
X044641Y041176D01*
X044429Y040118D02*
X044528Y04002D01*
X044641Y039759D02*
Y040066D01*
X040802Y038016D02*
Y038297D01*
Y038016D02*
X040849Y037969D01*
X041007D01*
X041054Y037923D01*
Y037783D02*
Y037923D01*
X041007Y037736D02*
X041054Y037783D01*
X040849Y037736D02*
X041007D01*
X040802Y03769D02*
X040849Y037736D01*
X040802Y03744D02*
Y03769D01*
Y038297D02*
Y038634D01*
Y037367D02*
Y03744D01*
X04186Y042279D02*
Y04265D01*
X042298Y043088D02*
Y043657D01*
X04186Y04265D02*
X042298Y043088D01*
X042411Y043041D02*
Y04361D01*
X041973Y042603D02*
X042411Y043041D01*
X041973Y042326D02*
Y042603D01*
Y042326D02*
X042411Y041887D01*
X04186Y042279D02*
X042298Y041841D01*
Y041582D02*
Y041841D01*
X04279Y044148D02*
X043551D01*
X042298Y043657D02*
X04279Y044148D01*
X041107Y040831D02*
Y041238D01*
X041289Y04065D02*
X04234D01*
X041107Y040831D02*
X041289Y04065D01*
X04234D02*
X042466Y040524D01*
Y040362D02*
Y040524D01*
X041821Y039717D02*
X042466Y040362D01*
X041321Y041452D02*
X042168D01*
X042298Y041582D01*
X041107Y041238D02*
X041321Y041452D01*
X044183Y043317D02*
X044213D01*
X044023Y043265D02*
X044131D01*
X043551Y044148D02*
X043784Y043915D01*
Y043504D02*
Y043915D01*
Y043504D02*
X044023Y043265D01*
X044131D02*
X044183Y043317D01*
X041584Y039717D02*
X041821D01*
X041075Y040226D02*
X041584Y039717D01*
X040846Y040226D02*
X041075D01*
X040561Y039941D02*
X040846Y040226D01*
X040561Y039685D02*
X041039Y039207D01*
Y039031D02*
Y039207D01*
X040561Y039685D02*
Y039941D01*
X041063Y037096D02*
X041073D01*
X040689Y037321D02*
Y038681D01*
Y037321D02*
X040842Y037168D01*
X040689Y038681D02*
X041039Y039031D01*
X040991Y037168D02*
X041063Y037096D01*
X040842Y037168D02*
X040991D01*
X042411Y04361D02*
X042837Y044035D01*
X043504D01*
X04122Y040878D02*
X041336Y040763D01*
X042387D01*
X04122Y040878D02*
Y041191D01*
X041868Y039604D02*
X042579Y040315D01*
X042387Y040763D02*
X042579Y040571D01*
Y040315D02*
Y040571D01*
X041538Y039604D02*
X041868D01*
X042215Y041339D02*
X042411Y041535D01*
X041368Y041339D02*
X042215D01*
X044131Y043152D02*
X044183Y0431D01*
X044213D01*
X043976Y043152D02*
X044131D01*
X043504Y044035D02*
X043671Y043868D01*
Y043457D02*
X043976Y043152D01*
X043671Y043457D02*
Y043868D01*
X041028Y040113D02*
X041538Y039604D01*
X04122Y041191D02*
X041368Y041339D01*
X040674Y039894D02*
X040893Y040113D01*
X041028D01*
X040674Y039732D02*
X041152Y039254D01*
X040674Y039732D02*
Y039894D01*
X041152Y038984D02*
Y039254D01*
X040802Y038634D02*
X041152Y038984D01*
X040802Y037367D02*
X040888Y037281D01*
X040991D02*
X041063Y037352D01*
X041073D01*
X040888Y037281D02*
X040991D01*
X042411Y041535D02*
Y041887D01*
X039463Y036194D02*
Y03622D01*
Y036194D02*
X03951Y036147D01*
X03966D01*
X039707Y0361D01*
Y035961D02*
Y0361D01*
X03966Y035914D02*
X039707Y035961D01*
X03951Y035914D02*
X03966D01*
X039463Y035867D02*
X03951Y035914D01*
X039463Y035728D02*
Y035867D01*
Y035728D02*
X03951Y035681D01*
X03966D01*
X039707Y035634D01*
Y035495D02*
Y035634D01*
X03966Y035448D02*
X039707Y035495D01*
X03951Y035448D02*
X03966D01*
X039463Y035401D02*
X03951Y035448D01*
X039463Y035152D02*
Y035401D01*
Y03622D02*
Y036481D01*
Y035027D02*
Y035152D01*
X042884Y040187D02*
Y041713D01*
X041486Y038789D02*
X042884Y040187D01*
X041373Y038836D02*
X042771Y040234D01*
X041373Y037003D02*
Y038836D01*
X042771Y040234D02*
Y041759D01*
X041486Y036956D02*
Y038789D01*
X039614Y034877D02*
X040052D01*
X040541Y035366D01*
X039463Y035027D02*
X039614Y034877D01*
X039567Y034764D02*
X040098D01*
X040654Y03532D01*
X03935Y03498D02*
X039567Y034764D01*
X03935Y03498D02*
Y036528D01*
X039653Y036831D02*
X041201D01*
X03935Y036528D02*
X039653Y036831D01*
X0397Y036718D02*
X041248D01*
X039463Y036481D02*
X0397Y036718D01*
X040541Y035366D02*
Y036242D01*
X040654Y03532D02*
Y036196D01*
X043863Y041769D02*
Y041892D01*
X043169Y041998D02*
X043758D01*
X043863Y041892D01*
X043976Y041722D02*
Y041939D01*
X043804Y042111D02*
X043976Y041939D01*
X043122Y042111D02*
X043804D01*
X043838Y041584D02*
X043976Y041722D01*
X043349Y041697D02*
X043791D01*
X043349Y041584D02*
X043838D01*
X043791Y041697D02*
X043863Y041769D01*
X043298Y041532D02*
X043349Y041584D01*
X043268Y041532D02*
X043298D01*
X042771Y041759D02*
X043122Y042111D01*
X041201Y036831D02*
X041373Y037003D01*
X04076Y036302D02*
X040991D01*
X041063Y03623D01*
X041073D01*
X040654Y036196D02*
X04076Y036302D01*
X043298Y041749D02*
X043349Y041697D01*
X042884Y041713D02*
X043169Y041998D01*
X043268Y041749D02*
X043298D01*
X041248Y036718D02*
X041486Y036956D01*
X040991Y036415D02*
X041063Y036486D01*
X041073D01*
X040714Y036415D02*
X040991D01*
X040541Y036242D02*
X040714Y036415D01*
X044316Y03906D02*
X044951Y039695D01*
Y042343D01*
X044269Y039173D02*
X044838Y039742D01*
X044724Y042569D02*
X044951Y042343D01*
X044678Y042456D02*
X044838Y042296D01*
Y039742D02*
Y042296D01*
X043836Y042456D02*
X044678D01*
X043789Y042569D02*
X044724D01*
X043578Y042357D02*
X043789Y042569D01*
X043624Y042244D02*
X043836Y042456D01*
X042785Y042244D02*
X043624D01*
X042657Y042372D02*
X042785Y042244D01*
X04277Y042419D02*
X042832Y042357D01*
X043578D01*
X042657Y042372D02*
Y042717D01*
X040726Y035138D02*
X042441D01*
X042498D01*
X04277Y042419D02*
Y04267D01*
X042318Y035025D02*
X042441D01*
X042271Y034978D02*
X042318Y035025D01*
X042271Y03483D02*
Y034978D01*
X042225Y034784D02*
X042271Y03483D01*
X042085Y034784D02*
X042225D01*
X042038Y03483D02*
X042085Y034784D01*
X042038Y03483D02*
Y034978D01*
X041992Y035025D02*
X042038Y034978D01*
X041742Y035025D02*
X041992D01*
X042441D02*
X042544D01*
X040773D02*
X041742D01*
X040605Y034759D02*
X040681Y034682D01*
X040492Y034712D02*
Y034904D01*
X040605Y034857D02*
X040773Y035025D01*
X040605Y034759D02*
Y034857D01*
X040492Y034904D02*
X040726Y035138D01*
X040492Y034712D02*
X040635Y034569D01*
X040991D01*
X040681Y034682D02*
X040991D01*
X04277Y035251D02*
Y037515D01*
X042498Y035138D02*
X042657Y035298D01*
Y037561D01*
X042544Y035025D02*
X04277Y035251D01*
X044316Y03906D02*
X044316D01*
X042657Y037561D02*
X044269Y039173D01*
X04277Y037515D02*
X044316Y03906D01*
X044269Y039173D02*
X044269D01*
X04277Y04267D02*
X042865Y042764D01*
X042657Y042717D02*
X042818Y042877D01*
X042865Y042764D02*
X042955D01*
X042818Y042877D02*
X043002D01*
X041063Y034498D02*
X041073D01*
X040991Y034569D02*
X041063Y034498D01*
X041063Y034754D02*
X041073D01*
X040991Y034682D02*
X041063Y034754D01*
X043238Y042712D02*
X043268D01*
X043186Y042877D02*
X043238Y042929D01*
X043268D01*
X042955Y042764D02*
X042955Y042764D01*
X043186D01*
X043238Y042712D01*
X043002Y042877D02*
X043186D01*
X043002Y042877D02*
X043002Y042877D01*
X043037Y034926D02*
Y037448D01*
X04528Y039532D02*
Y042409D01*
X04315Y03488D02*
Y037402D01*
X043037Y037448D02*
X045167Y039579D01*
X04315Y037402D02*
X04528Y039532D01*
X045167Y039579D02*
Y042362D01*
X041973Y033703D02*
X04315Y03488D01*
X041927Y033816D02*
X043037Y034926D01*
X042881Y043272D02*
X04362D01*
X042815Y043339D02*
X042881Y043272D01*
X042702Y043292D02*
Y043551D01*
X042815Y043339D02*
Y043504D01*
X042702Y043292D02*
X042835Y043159D01*
X043573D01*
X042702Y043551D02*
X042818Y043667D01*
X04362Y043272D02*
X044063Y04283D01*
X041073Y033888D02*
X041083D01*
X041154Y033816D02*
X041927D01*
X041083Y033888D02*
X041154Y033816D01*
Y033703D02*
X041973D01*
X041073Y033632D02*
X041083D01*
X041154Y033703D01*
X043186Y043667D02*
X043238Y043719D01*
X043268D01*
X042865Y043554D02*
X043186D01*
X043238Y043502D01*
X043268D01*
X042818Y043667D02*
X043186D01*
X042815Y043504D02*
X042865Y043554D01*
X043573Y043159D02*
X044016Y042717D01*
X044063Y04283D02*
X04486D01*
X044016Y042717D02*
X044813D01*
X045167Y042362D01*
X04486Y04283D02*
X04528Y042409D01*
D182*
X047827Y016139D02*
D03*
X057047D02*
D03*
D187*
X054738Y041413D02*
D03*
X054339Y044413D02*
D03*
X055138D02*
D03*
D188*
X058858Y043892D02*
D03*
Y046648D02*
D03*
D200*
X055846Y033012D02*
D03*
X05623Y032825D02*
D03*
X056929Y036339D02*
D03*
Y036142D02*
D03*
X054252Y030945D02*
D03*
X054409Y031102D02*
D03*
X054646D02*
D03*
X051457Y033819D02*
D03*
X051575Y033661D02*
D03*
X051339D02*
D03*
X044508Y029213D02*
D03*
X045236Y045827D02*
D03*
X045D02*
D03*
X045354Y045591D02*
D03*
X045118D02*
D03*
X044882D02*
D03*
X057126Y039646D02*
D03*
X055571Y036043D02*
D03*
X033583Y027008D02*
D03*
X044213Y042137D02*
D03*
X041073Y035364D02*
D03*
X044213Y04192D02*
D03*
X041073Y03562D02*
D03*
X043248Y020669D02*
D03*
X043051D02*
D03*
X043661Y036929D02*
D03*
X030827Y039409D02*
D03*
Y039606D02*
D03*
X037283Y039331D02*
D03*
X044213Y043317D02*
D03*
X041073Y037096D02*
D03*
X044213Y0431D02*
D03*
X041073Y037352D02*
D03*
X043268Y041532D02*
D03*
X041073Y03623D02*
D03*
X043268Y041749D02*
D03*
X041073Y036486D02*
D03*
Y034498D02*
D03*
Y034754D02*
D03*
X043268Y042712D02*
D03*
Y042929D02*
D03*
X037953Y031181D02*
D03*
Y031417D02*
D03*
X037717D02*
D03*
Y031181D02*
D03*
X059872Y02998D02*
D03*
X046614Y024341D02*
D03*
X043061Y024055D02*
D03*
X043199Y024242D02*
D03*
X05185Y028809D02*
D03*
X039843Y045551D02*
D03*
Y045787D02*
D03*
X036526Y039921D02*
D03*
X036654Y04314D02*
D03*
Y04373D02*
D03*
X037057Y040157D02*
D03*
X037087Y03815D02*
D03*
X03154Y040518D02*
D03*
X036526Y040157D02*
D03*
X036496Y040384D02*
D03*
X052825Y033612D02*
D03*
X052648Y034331D02*
D03*
X056841Y031703D02*
D03*
X059413Y027357D02*
D03*
X046082Y021201D02*
D03*
X059352Y03028D02*
D03*
X045856Y024006D02*
D03*
X058602Y030876D02*
D03*
X045876Y026847D02*
D03*
X046308Y026849D02*
D03*
X0581Y030472D02*
D03*
X058612Y03062D02*
D03*
X058209Y030689D02*
D03*
X057244Y030197D02*
D03*
X057441Y030079D02*
D03*
X049339Y026006D02*
D03*
X049772D02*
D03*
X050205D02*
D03*
X048906D02*
D03*
X048473D02*
D03*
X04804D02*
D03*
X047607D02*
D03*
X030069Y035797D02*
D03*
X030866Y030945D02*
D03*
Y032362D02*
D03*
X036795Y037955D02*
D03*
X041073Y033888D02*
D03*
Y033632D02*
D03*
X043268Y043719D02*
D03*
Y043502D02*
D03*
X057657Y039004D02*
D03*
X057815Y039161D02*
D03*
X057539D02*
D03*
X035118Y034685D02*
D03*
X03939Y040059D02*
D03*
Y041634D02*
D03*
Y043209D02*
D03*
X048307Y042106D02*
D03*
X048504Y044528D02*
D03*
X048898D02*
D03*
X049173D02*
D03*
X049528Y044646D02*
D03*
X048701Y043602D02*
D03*
X056791Y028081D02*
D03*
X055593Y030028D02*
D03*
Y029752D02*
D03*
Y029476D02*
D03*
Y029201D02*
D03*
X045118Y020187D02*
D03*
X043386Y021919D02*
D03*
X036703Y041102D02*
D03*
X037028Y041535D02*
D03*
X03686Y03936D02*
D03*
X036909Y036929D02*
D03*
X036713D02*
D03*
X033583Y03625D02*
D03*
X032667Y03624D02*
D03*
X055315Y04185D02*
D03*
X05685Y038652D02*
D03*
X059833Y035325D02*
D03*
X059803Y03937D02*
D03*
X051772Y046772D02*
D03*
X044961Y046929D02*
D03*
X040354Y047038D02*
D03*
D201*
X041732Y046102D02*
D03*
X039331Y046496D02*
D03*
X059467Y026615D02*
D03*
X046102Y020472D02*
D03*
X04685Y04D02*
D03*
X037323Y026654D02*
D03*
Y027441D02*
D03*
Y027047D02*
D03*
X036929Y027441D02*
D03*
Y026654D02*
D03*
Y027047D02*
D03*
X032314Y025088D02*
D03*
X032283Y019055D02*
D03*
Y018661D02*
D03*
X032323Y024631D02*
D03*
X031956Y025083D02*
D03*
X03185Y019055D02*
D03*
X031965Y024625D02*
D03*
D202*
X053337Y041614D02*
D03*
X057313Y027126D02*
D03*
X043927Y020994D02*
D03*
M02*
