G04*
G04 #@! TF.GenerationSoftware,Altium Limited,Altium Designer,18.1.6 (161)*
G04*
G04 Layer_Color=16711935*
%FSTAX24Y24*%
%MOIN*%
G70*
G01*
G75*
%ADD213C,0.0008*%
D213*
X057402Y048162D02*
X057392Y048157D01*
X057378Y048143D01*
Y048243D01*
X057397Y043314D02*
Y043309D01*
X057392Y043299D01*
X057387Y043295D01*
X057378Y04329D01*
X057359D01*
X057349Y043295D01*
X057344Y043299D01*
X05734Y043309D01*
Y043318D01*
X057344Y043328D01*
X057354Y043342D01*
X057402Y04339D01*
X057335D01*
X057354Y047041D02*
X057402Y047107D01*
X05733D01*
X057354Y047041D02*
Y047141D01*
X060349Y046229D02*
X060296D01*
X060325Y046267D01*
X060311D01*
X060301Y046272D01*
X060296Y046277D01*
X060292Y046291D01*
Y046301D01*
X060296Y046315D01*
X060306Y046325D01*
X06032Y046329D01*
X060334D01*
X060349Y046325D01*
X060354Y04632D01*
X060358Y04631D01*
X058078Y034266D02*
X058083D01*
X058092Y034271D01*
X058097Y034275D01*
X058102Y034285D01*
Y034304D01*
X058097Y034314D01*
X058092Y034318D01*
X058083Y034323D01*
X058073D01*
X058064Y034318D01*
X05805Y034309D01*
X058002Y034261D01*
Y034328D01*
X058673Y03358D02*
X058606Y033533D01*
Y033604D01*
X058673Y03358D02*
X058573D01*
X058673Y034271D02*
Y034323D01*
X058635Y034295D01*
Y034309D01*
X05863Y034318D01*
X058625Y034323D01*
X058611Y034328D01*
X058601D01*
X058587Y034323D01*
X058578Y034314D01*
X058573Y034299D01*
Y034285D01*
X058578Y034271D01*
X058582Y034266D01*
X058592Y034261D01*
X058083Y033533D02*
X058088Y033542D01*
X058102Y033557D01*
X058002D01*
X059096Y035007D02*
X059091Y035016D01*
X059077Y03503D01*
X059177D01*
X058761Y035587D02*
X058757Y035597D01*
X058742Y035611D01*
X058842D01*
X058496Y035007D02*
X058491Y035016D01*
X058477Y03503D01*
X058577D01*
X05822Y035597D02*
X058215Y035607D01*
X058201Y035621D01*
X058301D01*
X06071Y035233D02*
X060705Y035242D01*
X060691Y035257D01*
X060791D01*
X05885Y0398D02*
X058845Y039809D01*
X058831Y039824D01*
X058931D01*
X056606Y036818D02*
X056601Y036827D01*
X056587Y036841D01*
X056687D01*
X061222Y035233D02*
X061217Y035242D01*
X061203Y035257D01*
X061303D01*
X056606Y037408D02*
X056601Y037418D01*
X056587Y037432D01*
X056687D01*
X059322Y0398D02*
X059318Y039809D01*
X059303Y039824D01*
X059403D01*
X063584Y037692D02*
X063579Y037702D01*
X063565Y037716D01*
X063665D01*
X063584Y038844D02*
X063579Y038853D01*
X063565Y038868D01*
X063665D01*
X061724Y037999D02*
X061719Y038008D01*
X061705Y038022D01*
X061805D01*
X061724Y038589D02*
X061719Y038599D01*
X061705Y038613D01*
X061805D01*
X063598Y036632D02*
X063607Y036637D01*
X063622Y036651D01*
Y036551D01*
M02*
