G04*
G04 #@! TF.GenerationSoftware,Altium Limited,Altium Designer,18.1.6 (161)*
G04*
G04 Layer_Color=32896*
%FSTAX24Y24*%
%MOIN*%
G70*
G01*
G75*
%ADD10C,0.0060*%
%ADD11C,0.0059*%
%ADD13C,0.0157*%
%ADD14C,0.0079*%
%ADD16C,0.0200*%
%ADD19C,0.0039*%
%ADD20C,0.0050*%
%ADD21C,0.0020*%
D10*
X03318Y017008D02*
G03*
X03318Y017008I-00003J0D01*
G01*
D11*
X028465Y03215D02*
G03*
X028465Y03215I-00003J0D01*
G01*
X029469Y031142D02*
G03*
X029469Y031142I-00003J0D01*
G01*
X028465D02*
G03*
X028465Y031142I-00003J0D01*
G01*
X029469Y03215D02*
G03*
X029469Y03215I-00003J0D01*
G01*
X055384Y030846D02*
G03*
X055384Y030846I-00003J0D01*
G01*
X055394Y031339D02*
G03*
X055394Y031339I-00003J0D01*
G01*
X055384Y031831D02*
G03*
X055384Y031831I-00003J0D01*
G01*
X055384Y033287D02*
G03*
X055384Y033287I-00003J0D01*
G01*
X055384Y03376D02*
G03*
X055384Y03376I-00003J0D01*
G01*
Y034232D02*
G03*
X055384Y034232I-00003J0D01*
G01*
Y034705D02*
G03*
X055384Y034705I-00003J0D01*
G01*
X052628Y047549D02*
G03*
X052628Y047549I-00003J0D01*
G01*
X053494D02*
G03*
X053494Y047549I-00003J0D01*
G01*
X053061D02*
G03*
X053061Y047549I-00003J0D01*
G01*
X052195D02*
G03*
X052195Y047549I-00003J0D01*
G01*
X053927D02*
G03*
X053927Y047549I-00003J0D01*
G01*
X046644Y047628D02*
G03*
X046644Y047628I-00003J0D01*
G01*
X046211D02*
G03*
X046211Y047628I-00003J0D01*
G01*
X045778D02*
G03*
X045778Y047628I-00003J0D01*
G01*
X045344D02*
G03*
X045344Y047628I-00003J0D01*
G01*
X041289Y047746D02*
G03*
X041289Y047746I-00003J0D01*
G01*
X040817D02*
G03*
X040817Y047746I-00003J0D01*
G01*
X053261Y033513D02*
X053891D01*
X052852Y032323D02*
X053876D01*
D13*
X046558Y031809D02*
G03*
X046558Y031809I-000082J0D01*
G01*
X05063Y042793D02*
G03*
X05063Y042793I-000008J0D01*
G01*
X046558Y036927D02*
G03*
X046558Y036927I-000082J0D01*
G01*
X052594Y034805D02*
G03*
X052594Y034805I-000008J0D01*
G01*
X052594Y034333D02*
G03*
X052594Y034333I-000008J0D01*
G01*
X05063Y042321D02*
G03*
X05063Y042321I-000008J0D01*
G01*
Y041828D02*
G03*
X05063Y041828I-000008J0D01*
G01*
D14*
X062018Y028691D02*
G03*
X062018Y028691I-000039J0D01*
G01*
X0527Y032513D02*
G03*
X0527Y032513I-000039J0D01*
G01*
D16*
X029358Y025063D02*
G03*
X029358Y025063I-00015J0D01*
G01*
Y029118D02*
G03*
X029358Y029118I-00015J0D01*
G01*
D19*
X028666Y032307D02*
X02905D01*
X028671Y031992D02*
X029055D01*
X029675Y030984D02*
X030059D01*
X02967Y031299D02*
X030054D01*
X028671Y030984D02*
X029055D01*
X028666Y031299D02*
X02905D01*
X02967Y032307D02*
X030054D01*
X029675Y031992D02*
X030059D01*
X049756Y04299D02*
X050366D01*
X049755Y042601D02*
X050365D01*
X055591Y030689D02*
X055974D01*
X055586Y031004D02*
X055969D01*
X0556Y031181D02*
X055984D01*
X055595Y031496D02*
X055979D01*
X055591Y031673D02*
X055974D01*
X055586Y031988D02*
X055969D01*
X055591Y03313D02*
X055974D01*
X055586Y033445D02*
X055969D01*
X055591Y033602D02*
X055974D01*
X055586Y033917D02*
X055969D01*
X055591Y034075D02*
X055974D01*
X055586Y03439D02*
X055969D01*
X055591Y034547D02*
X055974D01*
X055586Y034862D02*
X055969D01*
X033248Y0175D02*
Y017779D01*
X032648Y0175D02*
Y017779D01*
X052842Y034609D02*
X053452D01*
X052843Y034998D02*
X053453D01*
X052843Y034525D02*
X053453D01*
X052842Y034136D02*
X053452D01*
X052441Y046929D02*
Y047313D01*
X052756Y046934D02*
Y047318D01*
X053307Y046929D02*
Y047313D01*
X053622Y046934D02*
Y047318D01*
X052874Y046929D02*
Y047313D01*
X053189Y046934D02*
Y047318D01*
X052008Y046929D02*
Y047313D01*
X052323Y046934D02*
Y047318D01*
X05374Y046929D02*
Y047313D01*
X054055Y046934D02*
Y047318D01*
X046457Y047008D02*
Y047392D01*
X046772Y047013D02*
Y047397D01*
X046024Y047008D02*
Y047392D01*
X046339Y047013D02*
Y047397D01*
X045591Y047008D02*
Y047392D01*
X045906Y047013D02*
Y047397D01*
X045157Y047008D02*
Y047392D01*
X045472Y047013D02*
Y047397D01*
X041102Y047126D02*
Y04751D01*
X041417Y047131D02*
Y047515D01*
X04063Y047126D02*
Y04751D01*
X040945Y047131D02*
Y047515D01*
X049755Y042128D02*
X050365D01*
X049756Y042517D02*
X050366D01*
X049756Y042025D02*
X050366D01*
X049755Y041636D02*
X050365D01*
D20*
X057766Y032045D02*
Y033329D01*
Y034289D02*
Y034616D01*
Y029104D02*
Y031085D01*
Y029104D02*
X062994D01*
X06375Y030856D02*
Y034616D01*
X057766D02*
X0626D01*
X0636D02*
X06375D01*
Y030856D02*
X064222D01*
Y029498D02*
Y030856D01*
X063994Y029498D02*
X064222D01*
X043366Y027829D02*
X04565D01*
X043366Y032082D02*
Y032289D01*
Y027829D02*
Y028036D01*
X04565Y027829D02*
Y028036D01*
Y032082D02*
Y032289D01*
X043366D02*
X04565D01*
X043366Y037407D02*
X04565D01*
Y0372D02*
Y037407D01*
Y032947D02*
Y033154D01*
X043366Y032947D02*
Y033154D01*
Y0372D02*
Y037407D01*
Y032947D02*
X04565D01*
D21*
X056762Y030148D02*
Y030266D01*
X055817Y027913D02*
X055935D01*
X043354Y023988D02*
Y024106D01*
X042409Y021754D02*
X042528D01*
X057224Y037736D02*
Y037854D01*
M02*
