G04*
G04 #@! TF.GenerationSoftware,Altium Limited,Altium Designer,18.1.6 (161)*
G04*
G04 Layer_Color=8421504*
%FSTAX24Y24*%
%MOIN*%
G70*
G01*
G75*
%ADD23C,0.0010*%
%ADD24R,0.0197X0.0236*%
%ADD25R,0.0118X0.0118*%
%ADD26R,0.0118X0.0118*%
%ADD27R,0.0580X0.0110*%
%ADD28R,0.0236X0.0197*%
%ADD29R,0.0520X0.0420*%
%ADD30R,0.0157X0.0197*%
%ADD31R,0.0200X0.0140*%
%ADD32R,0.0335X0.0118*%
%ADD33R,0.0315X0.0315*%
%ADD34R,0.0709X0.0512*%
%ADD35R,0.0728X0.0512*%
%ADD36R,0.0197X0.0157*%
%ADD37C,0.0394*%
G04:AMPARAMS|DCode=38|XSize=27.6mil|YSize=70.9mil|CornerRadius=4mil|HoleSize=0mil|Usage=FLASHONLY|Rotation=270.000|XOffset=0mil|YOffset=0mil|HoleType=Round|Shape=RoundedRectangle|*
%AMROUNDEDRECTD38*
21,1,0.0276,0.0629,0,0,270.0*
21,1,0.0196,0.0709,0,0,270.0*
1,1,0.0080,-0.0314,-0.0098*
1,1,0.0080,-0.0314,0.0098*
1,1,0.0080,0.0314,0.0098*
1,1,0.0080,0.0314,-0.0098*
%
%ADD38ROUNDEDRECTD38*%
G04:AMPARAMS|DCode=39|XSize=7.9mil|YSize=27.6mil|CornerRadius=2mil|HoleSize=0mil|Usage=FLASHONLY|Rotation=270.000|XOffset=0mil|YOffset=0mil|HoleType=Round|Shape=RoundedRectangle|*
%AMROUNDEDRECTD39*
21,1,0.0079,0.0236,0,0,270.0*
21,1,0.0039,0.0276,0,0,270.0*
1,1,0.0039,-0.0118,-0.0020*
1,1,0.0039,-0.0118,0.0020*
1,1,0.0039,0.0118,0.0020*
1,1,0.0039,0.0118,-0.0020*
%
%ADD39ROUNDEDRECTD39*%
G04:AMPARAMS|DCode=40|XSize=7.9mil|YSize=27.6mil|CornerRadius=2mil|HoleSize=0mil|Usage=FLASHONLY|Rotation=180.000|XOffset=0mil|YOffset=0mil|HoleType=Round|Shape=RoundedRectangle|*
%AMROUNDEDRECTD40*
21,1,0.0079,0.0236,0,0,180.0*
21,1,0.0039,0.0276,0,0,180.0*
1,1,0.0039,-0.0020,0.0118*
1,1,0.0039,0.0020,0.0118*
1,1,0.0039,0.0020,-0.0118*
1,1,0.0039,-0.0020,-0.0118*
%
%ADD40ROUNDEDRECTD40*%
G04:AMPARAMS|DCode=41|XSize=149.6mil|YSize=149.6mil|CornerRadius=12mil|HoleSize=0mil|Usage=FLASHONLY|Rotation=180.000|XOffset=0mil|YOffset=0mil|HoleType=Round|Shape=RoundedRectangle|*
%AMROUNDEDRECTD41*
21,1,0.1496,0.1257,0,0,180.0*
21,1,0.1257,0.1496,0,0,180.0*
1,1,0.0239,-0.0628,0.0628*
1,1,0.0239,0.0628,0.0628*
1,1,0.0239,0.0628,-0.0628*
1,1,0.0239,-0.0628,-0.0628*
%
%ADD41ROUNDEDRECTD41*%
G04:AMPARAMS|DCode=42|XSize=19.7mil|YSize=23.6mil|CornerRadius=2mil|HoleSize=0mil|Usage=FLASHONLY|Rotation=90.000|XOffset=0mil|YOffset=0mil|HoleType=Round|Shape=RoundedRectangle|*
%AMROUNDEDRECTD42*
21,1,0.0197,0.0197,0,0,90.0*
21,1,0.0157,0.0236,0,0,90.0*
1,1,0.0039,0.0098,0.0079*
1,1,0.0039,0.0098,-0.0079*
1,1,0.0039,-0.0098,-0.0079*
1,1,0.0039,-0.0098,0.0079*
%
%ADD42ROUNDEDRECTD42*%
G04:AMPARAMS|DCode=43|XSize=15.7mil|YSize=23.6mil|CornerRadius=2mil|HoleSize=0mil|Usage=FLASHONLY|Rotation=90.000|XOffset=0mil|YOffset=0mil|HoleType=Round|Shape=RoundedRectangle|*
%AMROUNDEDRECTD43*
21,1,0.0157,0.0197,0,0,90.0*
21,1,0.0118,0.0236,0,0,90.0*
1,1,0.0039,0.0098,0.0059*
1,1,0.0039,0.0098,-0.0059*
1,1,0.0039,-0.0098,-0.0059*
1,1,0.0039,-0.0098,0.0059*
%
%ADD43ROUNDEDRECTD43*%
G04:AMPARAMS|DCode=44|XSize=19.7mil|YSize=23.6mil|CornerRadius=2mil|HoleSize=0mil|Usage=FLASHONLY|Rotation=0.000|XOffset=0mil|YOffset=0mil|HoleType=Round|Shape=RoundedRectangle|*
%AMROUNDEDRECTD44*
21,1,0.0197,0.0197,0,0,0.0*
21,1,0.0157,0.0236,0,0,0.0*
1,1,0.0039,0.0079,-0.0098*
1,1,0.0039,-0.0079,-0.0098*
1,1,0.0039,-0.0079,0.0098*
1,1,0.0039,0.0079,0.0098*
%
%ADD44ROUNDEDRECTD44*%
G04:AMPARAMS|DCode=45|XSize=15.7mil|YSize=23.6mil|CornerRadius=2mil|HoleSize=0mil|Usage=FLASHONLY|Rotation=0.000|XOffset=0mil|YOffset=0mil|HoleType=Round|Shape=RoundedRectangle|*
%AMROUNDEDRECTD45*
21,1,0.0157,0.0197,0,0,0.0*
21,1,0.0118,0.0236,0,0,0.0*
1,1,0.0039,0.0059,-0.0098*
1,1,0.0039,-0.0059,-0.0098*
1,1,0.0039,-0.0059,0.0098*
1,1,0.0039,0.0059,0.0098*
%
%ADD45ROUNDEDRECTD45*%
G04:AMPARAMS|DCode=46|XSize=22.2mil|YSize=7.9mil|CornerRadius=1mil|HoleSize=0mil|Usage=FLASHONLY|Rotation=270.000|XOffset=0mil|YOffset=0mil|HoleType=Round|Shape=RoundedRectangle|*
%AMROUNDEDRECTD46*
21,1,0.0222,0.0059,0,0,270.0*
21,1,0.0203,0.0079,0,0,270.0*
1,1,0.0020,-0.0030,-0.0101*
1,1,0.0020,-0.0030,0.0101*
1,1,0.0020,0.0030,0.0101*
1,1,0.0020,0.0030,-0.0101*
%
%ADD46ROUNDEDRECTD46*%
%ADD47R,0.0197X0.0197*%
%ADD48R,0.0236X0.0197*%
%ADD49C,0.0350*%
%ADD50O,0.0630X0.0315*%
%ADD51O,0.0315X0.0630*%
%ADD52R,0.1110X0.1110*%
%ADD53R,0.1110X0.0870*%
%ADD54R,0.1110X0.0790*%
%ADD55R,0.0370X0.0410*%
%ADD56C,0.0180*%
%ADD57R,0.0340X0.0120*%
%ADD58R,0.0120X0.0340*%
%ADD59R,0.1640X0.1640*%
G04:AMPARAMS|DCode=60|XSize=11.8mil|YSize=23.6mil|CornerRadius=1.9mil|HoleSize=0mil|Usage=FLASHONLY|Rotation=90.000|XOffset=0mil|YOffset=0mil|HoleType=Round|Shape=RoundedRectangle|*
%AMROUNDEDRECTD60*
21,1,0.0118,0.0197,0,0,90.0*
21,1,0.0079,0.0236,0,0,90.0*
1,1,0.0039,0.0099,0.0040*
1,1,0.0039,0.0099,-0.0040*
1,1,0.0039,-0.0099,-0.0040*
1,1,0.0039,-0.0099,0.0040*
%
%ADD60ROUNDEDRECTD60*%
G04:AMPARAMS|DCode=61|XSize=39.4mil|YSize=63mil|CornerRadius=3.9mil|HoleSize=0mil|Usage=FLASHONLY|Rotation=0.000|XOffset=0mil|YOffset=0mil|HoleType=Round|Shape=RoundedRectangle|*
%AMROUNDEDRECTD61*
21,1,0.0394,0.0551,0,0,0.0*
21,1,0.0315,0.0630,0,0,0.0*
1,1,0.0079,0.0157,-0.0276*
1,1,0.0079,-0.0157,-0.0276*
1,1,0.0079,-0.0157,0.0276*
1,1,0.0079,0.0157,0.0276*
%
%ADD61ROUNDEDRECTD61*%
%ADD62R,0.0236X0.0453*%
%ADD63R,0.0118X0.0453*%
%ADD64R,0.0197X0.0236*%
%ADD65R,0.0630X0.2680*%
%ADD66R,0.0512X0.0728*%
G04:AMPARAMS|DCode=67|XSize=47.6mil|YSize=22.8mil|CornerRadius=2.9mil|HoleSize=0mil|Usage=FLASHONLY|Rotation=0.000|XOffset=0mil|YOffset=0mil|HoleType=Round|Shape=RoundedRectangle|*
%AMROUNDEDRECTD67*
21,1,0.0476,0.0171,0,0,0.0*
21,1,0.0419,0.0228,0,0,0.0*
1,1,0.0057,0.0210,-0.0086*
1,1,0.0057,-0.0210,-0.0086*
1,1,0.0057,-0.0210,0.0086*
1,1,0.0057,0.0210,0.0086*
%
%ADD67ROUNDEDRECTD67*%
G04:AMPARAMS|DCode=68|XSize=9.8mil|YSize=23.6mil|CornerRadius=2.5mil|HoleSize=0mil|Usage=FLASHONLY|Rotation=0.000|XOffset=0mil|YOffset=0mil|HoleType=Round|Shape=RoundedRectangle|*
%AMROUNDEDRECTD68*
21,1,0.0098,0.0187,0,0,0.0*
21,1,0.0049,0.0236,0,0,0.0*
1,1,0.0049,0.0025,-0.0094*
1,1,0.0049,-0.0025,-0.0094*
1,1,0.0049,-0.0025,0.0094*
1,1,0.0049,0.0025,0.0094*
%
%ADD68ROUNDEDRECTD68*%
%ADD69R,0.0079X0.0394*%
%ADD70R,0.0250X0.0200*%
G04:AMPARAMS|DCode=71|XSize=27.6mil|YSize=11.8mil|CornerRadius=3mil|HoleSize=0mil|Usage=FLASHONLY|Rotation=0.000|XOffset=0mil|YOffset=0mil|HoleType=Round|Shape=RoundedRectangle|*
%AMROUNDEDRECTD71*
21,1,0.0276,0.0059,0,0,0.0*
21,1,0.0217,0.0118,0,0,0.0*
1,1,0.0059,0.0108,-0.0030*
1,1,0.0059,-0.0108,-0.0030*
1,1,0.0059,-0.0108,0.0030*
1,1,0.0059,0.0108,0.0030*
%
%ADD71ROUNDEDRECTD71*%
G04:AMPARAMS|DCode=72|XSize=27.6mil|YSize=9.8mil|CornerRadius=2.5mil|HoleSize=0mil|Usage=FLASHONLY|Rotation=90.000|XOffset=0mil|YOffset=0mil|HoleType=Round|Shape=RoundedRectangle|*
%AMROUNDEDRECTD72*
21,1,0.0276,0.0049,0,0,90.0*
21,1,0.0226,0.0098,0,0,90.0*
1,1,0.0049,0.0025,0.0113*
1,1,0.0049,0.0025,-0.0113*
1,1,0.0049,-0.0025,-0.0113*
1,1,0.0049,-0.0025,0.0113*
%
%ADD72ROUNDEDRECTD72*%
G04:AMPARAMS|DCode=73|XSize=27.6mil|YSize=9.8mil|CornerRadius=2.5mil|HoleSize=0mil|Usage=FLASHONLY|Rotation=0.000|XOffset=0mil|YOffset=0mil|HoleType=Round|Shape=RoundedRectangle|*
%AMROUNDEDRECTD73*
21,1,0.0276,0.0049,0,0,0.0*
21,1,0.0226,0.0098,0,0,0.0*
1,1,0.0049,0.0113,-0.0025*
1,1,0.0049,-0.0113,-0.0025*
1,1,0.0049,-0.0113,0.0025*
1,1,0.0049,0.0113,0.0025*
%
%ADD73ROUNDEDRECTD73*%
G04:AMPARAMS|DCode=74|XSize=39.4mil|YSize=15.7mil|CornerRadius=3.9mil|HoleSize=0mil|Usage=FLASHONLY|Rotation=90.000|XOffset=0mil|YOffset=0mil|HoleType=Round|Shape=RoundedRectangle|*
%AMROUNDEDRECTD74*
21,1,0.0394,0.0079,0,0,90.0*
21,1,0.0315,0.0157,0,0,90.0*
1,1,0.0079,0.0039,0.0157*
1,1,0.0079,0.0039,-0.0157*
1,1,0.0079,-0.0039,-0.0157*
1,1,0.0079,-0.0039,0.0157*
%
%ADD74ROUNDEDRECTD74*%
%ADD75R,0.0315X0.0315*%
%ADD76R,0.0197X0.0197*%
%ADD77R,0.0512X0.0354*%
%ADD78R,0.0137X0.0297*%
%ADD79R,0.0500X0.0350*%
%ADD80R,0.0394X0.0236*%
%ADD81R,0.0236X0.0394*%
%ADD82R,0.0118X0.1024*%
%ADD83C,0.0098*%
G04:AMPARAMS|DCode=84|XSize=33.1mil|YSize=10.6mil|CornerRadius=1.3mil|HoleSize=0mil|Usage=FLASHONLY|Rotation=90.000|XOffset=0mil|YOffset=0mil|HoleType=Round|Shape=RoundedRectangle|*
%AMROUNDEDRECTD84*
21,1,0.0331,0.0080,0,0,90.0*
21,1,0.0304,0.0106,0,0,90.0*
1,1,0.0027,0.0040,0.0152*
1,1,0.0027,0.0040,-0.0152*
1,1,0.0027,-0.0040,-0.0152*
1,1,0.0027,-0.0040,0.0152*
%
%ADD84ROUNDEDRECTD84*%
G04:AMPARAMS|DCode=85|XSize=33.1mil|YSize=10.6mil|CornerRadius=1.3mil|HoleSize=0mil|Usage=FLASHONLY|Rotation=0.000|XOffset=0mil|YOffset=0mil|HoleType=Round|Shape=RoundedRectangle|*
%AMROUNDEDRECTD85*
21,1,0.0331,0.0080,0,0,0.0*
21,1,0.0304,0.0106,0,0,0.0*
1,1,0.0027,0.0152,-0.0040*
1,1,0.0027,-0.0152,-0.0040*
1,1,0.0027,-0.0152,0.0040*
1,1,0.0027,0.0152,0.0040*
%
%ADD85ROUNDEDRECTD85*%
%ADD86R,0.0140X0.0200*%
G04:AMPARAMS|DCode=87|XSize=39.4mil|YSize=39.4mil|CornerRadius=7.9mil|HoleSize=0mil|Usage=FLASHONLY|Rotation=90.000|XOffset=0mil|YOffset=0mil|HoleType=Round|Shape=RoundedRectangle|*
%AMROUNDEDRECTD87*
21,1,0.0394,0.0236,0,0,90.0*
21,1,0.0236,0.0394,0,0,90.0*
1,1,0.0157,0.0118,0.0118*
1,1,0.0157,0.0118,-0.0118*
1,1,0.0157,-0.0118,-0.0118*
1,1,0.0157,-0.0118,0.0118*
%
%ADD87ROUNDEDRECTD87*%
G36*
X031104Y021437D02*
X031106Y021437D01*
X031109Y021437D01*
X031111Y021436D01*
X031113Y021436D01*
X031115Y021435D01*
X031116Y021434D01*
X031118Y021434D01*
X03112Y021433D01*
X031122Y021432D01*
X031124Y021431D01*
X031126Y021429D01*
X031127Y021428D01*
X031129Y021427D01*
X03113Y021425D01*
X031132Y021424D01*
X031133Y021422D01*
X031134Y021421D01*
X031135Y021419D01*
X031136Y021417D01*
X031137Y021416D01*
X031138Y021414D01*
X031139Y021412D01*
X03114Y02141D01*
X03114Y021408D01*
X031141Y021406D01*
X031141Y021404D01*
X031142Y021402D01*
X031142Y0214D01*
X031142Y021398D01*
Y021063D01*
X031142Y021062D01*
X031142Y021061D01*
X031141Y02106D01*
X031141Y021059D01*
X031141Y021058D01*
X031141Y021057D01*
X03114Y021056D01*
X03114Y021055D01*
X03114Y021054D01*
X031139Y021053D01*
X031139Y021052D01*
X031138Y021051D01*
X031137Y021051D01*
X031137Y02105D01*
X031136Y021049D01*
X031135Y021048D01*
X031134Y021048D01*
X031134Y021047D01*
X031133Y021046D01*
X031132Y021046D01*
X031131Y021045D01*
X03113Y021045D01*
X031129Y021045D01*
X031128Y021044D01*
X031127Y021044D01*
X031126Y021044D01*
X031125Y021044D01*
X031124Y021043D01*
X031123Y021043D01*
X031122Y021043D01*
X031043D01*
X031042Y021043D01*
X031041Y021043D01*
X03104Y021044D01*
X031039Y021044D01*
X031038Y021044D01*
X031037Y021044D01*
X031036Y021045D01*
X031035Y021045D01*
X031034Y021045D01*
X031033Y021046D01*
X031033Y021046D01*
X031032Y021047D01*
X031031Y021048D01*
X03103Y021048D01*
X031029Y021049D01*
X031029Y02105D01*
X031028Y021051D01*
X031027Y021051D01*
X031027Y021052D01*
X031026Y021053D01*
X031026Y021054D01*
X031025Y021055D01*
X031025Y021056D01*
X031025Y021057D01*
X031024Y021058D01*
X031024Y021059D01*
X031024Y02106D01*
X031024Y021061D01*
X031024Y021062D01*
X031024Y021063D01*
Y02124D01*
X031024Y021243D01*
X031023Y021246D01*
X031023Y021249D01*
X031022Y021252D01*
X031022Y021255D01*
X031021Y021258D01*
X03102Y021261D01*
X031019Y021264D01*
X031017Y021267D01*
X031016Y02127D01*
X031014Y021272D01*
X031012Y021275D01*
X03101Y021277D01*
X031008Y02128D01*
X031006Y021282D01*
X031004Y021284D01*
X031002Y021286D01*
X030999Y021288D01*
X030997Y02129D01*
X030994Y021291D01*
X030991Y021293D01*
X030989Y021294D01*
X030986Y021295D01*
X030983Y021296D01*
X03098Y021297D01*
X030977Y021298D01*
X030974Y021298D01*
X030971Y021299D01*
X030968Y021299D01*
X030965Y021299D01*
X030886D01*
X030885Y021299D01*
X030884Y021299D01*
X030883Y021299D01*
X030882Y0213D01*
X030881Y0213D01*
X03088Y0213D01*
X030879Y021301D01*
X030878Y021301D01*
X030877Y021301D01*
X030876Y021302D01*
X030875Y021302D01*
X030874Y021303D01*
X030873Y021304D01*
X030873Y021304D01*
X030872Y021305D01*
X030871Y021306D01*
X030871Y021307D01*
X03087Y021307D01*
X030869Y021308D01*
X030869Y021309D01*
X030868Y02131D01*
X030868Y021311D01*
X030867Y021312D01*
X030867Y021313D01*
X030867Y021314D01*
X030867Y021315D01*
X030866Y021316D01*
X030866Y021317D01*
X030866Y021318D01*
X030866Y021319D01*
Y021417D01*
X030866Y021418D01*
X030866Y021419D01*
X030866Y02142D01*
X030867Y021421D01*
X030867Y021422D01*
X030867Y021423D01*
X030867Y021424D01*
X030868Y021425D01*
X030868Y021426D01*
X030869Y021427D01*
X030869Y021428D01*
X03087Y021429D01*
X030871Y02143D01*
X030871Y02143D01*
X030872Y021431D01*
X030873Y021432D01*
X030873Y021433D01*
X030874Y021433D01*
X030875Y021434D01*
X030876Y021434D01*
X030877Y021435D01*
X030878Y021435D01*
X030879Y021436D01*
X03088Y021436D01*
X030881Y021436D01*
X030882Y021437D01*
X030883Y021437D01*
X030884Y021437D01*
X030885Y021437D01*
X030886Y021437D01*
X031102D01*
X031104Y021437D01*
D02*
G37*
G36*
X031123Y022579D02*
X031124Y022579D01*
X031125Y022578D01*
X031126Y022578D01*
X031127Y022578D01*
X031128Y022578D01*
X031129Y022577D01*
X03113Y022577D01*
X031131Y022577D01*
X031132Y022576D01*
X031133Y022576D01*
X031134Y022575D01*
X031134Y022574D01*
X031135Y022574D01*
X031136Y022573D01*
X031137Y022572D01*
X031137Y022571D01*
X031138Y022571D01*
X031139Y02257D01*
X031139Y022569D01*
X03114Y022568D01*
X03114Y022567D01*
X03114Y022566D01*
X031141Y022565D01*
X031141Y022564D01*
X031141Y022563D01*
X031141Y022562D01*
X031142Y022561D01*
X031142Y02256D01*
X031142Y022559D01*
Y022205D01*
X031142Y022204D01*
X031142Y022203D01*
X031141Y022202D01*
X031141Y022201D01*
X031141Y0222D01*
X031141Y022199D01*
X03114Y022198D01*
X03114Y022197D01*
X03114Y022196D01*
X031139Y022195D01*
X031139Y022194D01*
X031138Y022193D01*
X031137Y022192D01*
X031137Y022192D01*
X031136Y022191D01*
X031135Y02219D01*
X031134Y022189D01*
X031134Y022189D01*
X031133Y022188D01*
X031132Y022188D01*
X031131Y022187D01*
X03113Y022187D01*
X031129Y022186D01*
X031128Y022186D01*
X031127Y022186D01*
X031126Y022185D01*
X031125Y022185D01*
X031124Y022185D01*
X031123Y022185D01*
X031122Y022185D01*
X030886D01*
X030885Y022185D01*
X030884Y022185D01*
X030883Y022185D01*
X030882Y022185D01*
X030881Y022186D01*
X03088Y022186D01*
X030879Y022186D01*
X030878Y022187D01*
X030877Y022187D01*
X030876Y022188D01*
X030875Y022188D01*
X030874Y022189D01*
X030873Y022189D01*
X030873Y02219D01*
X030872Y022191D01*
X030871Y022192D01*
X030871Y022192D01*
X03087Y022193D01*
X030869Y022194D01*
X030869Y022195D01*
X030868Y022196D01*
X030868Y022197D01*
X030867Y022198D01*
X030867Y022199D01*
X030867Y0222D01*
X030867Y022201D01*
X030866Y022202D01*
X030866Y022203D01*
X030866Y022204D01*
X030866Y022205D01*
Y022303D01*
X030866Y022304D01*
X030866Y022305D01*
X030866Y022306D01*
X030867Y022307D01*
X030867Y022308D01*
X030867Y022309D01*
X030867Y02231D01*
X030868Y022311D01*
X030868Y022312D01*
X030869Y022313D01*
X030869Y022314D01*
X03087Y022315D01*
X030871Y022316D01*
X030871Y022316D01*
X030872Y022317D01*
X030873Y022318D01*
X030873Y022318D01*
X030874Y022319D01*
X030875Y02232D01*
X030876Y02232D01*
X030877Y022321D01*
X030878Y022321D01*
X030879Y022322D01*
X03088Y022322D01*
X030881Y022322D01*
X030882Y022322D01*
X030883Y022323D01*
X030884Y022323D01*
X030885Y022323D01*
X030886Y022323D01*
X030965D01*
X030968Y022323D01*
X030971Y022323D01*
X030974Y022324D01*
X030977Y022324D01*
X03098Y022325D01*
X030983Y022326D01*
X030986Y022327D01*
X030989Y022328D01*
X030991Y022329D01*
X030994Y022331D01*
X030997Y022332D01*
X030999Y022334D01*
X031002Y022336D01*
X031004Y022338D01*
X031006Y02234D01*
X031008Y022342D01*
X03101Y022345D01*
X031012Y022347D01*
X031014Y02235D01*
X031016Y022352D01*
X031017Y022355D01*
X031019Y022358D01*
X03102Y022361D01*
X031021Y022364D01*
X031022Y022367D01*
X031022Y02237D01*
X031023Y022373D01*
X031023Y022376D01*
X031024Y022379D01*
X031024Y022382D01*
Y022559D01*
X031024Y02256D01*
X031024Y022561D01*
X031024Y022562D01*
X031024Y022563D01*
X031024Y022564D01*
X031025Y022565D01*
X031025Y022566D01*
X031025Y022567D01*
X031026Y022568D01*
X031026Y022569D01*
X031027Y02257D01*
X031027Y022571D01*
X031028Y022571D01*
X031029Y022572D01*
X031029Y022573D01*
X03103Y022574D01*
X031031Y022574D01*
X031032Y022575D01*
X031033Y022576D01*
X031033Y022576D01*
X031034Y022577D01*
X031035Y022577D01*
X031036Y022577D01*
X031037Y022578D01*
X031038Y022578D01*
X031039Y022578D01*
X03104Y022578D01*
X031041Y022579D01*
X031042Y022579D01*
X031043Y022579D01*
X031122D01*
X031123Y022579D01*
D02*
G37*
G36*
X032049Y02189D02*
X032051Y02189D01*
X032053Y021889D01*
X032055Y021889D01*
X032057Y021888D01*
X032059Y021888D01*
X032061Y021887D01*
X032063Y021886D01*
X032065Y021885D01*
X032067Y021884D01*
X032069Y021883D01*
X03207Y021882D01*
X032072Y021881D01*
X032074Y02188D01*
X032075Y021878D01*
X032076Y021877D01*
X032078Y021875D01*
X032079Y021874D01*
X03208Y021872D01*
X032081Y02187D01*
X032082Y021868D01*
X032083Y021866D01*
X032084Y021865D01*
X032085Y021863D01*
X032085Y021861D01*
X032086Y021859D01*
X032086Y021857D01*
X032086Y021855D01*
X032087Y021852D01*
X032087Y02185D01*
Y021772D01*
X032087Y02177D01*
X032086Y021768D01*
X032086Y021765D01*
X032086Y021763D01*
X032085Y021761D01*
X032085Y021759D01*
X032084Y021758D01*
X032083Y021756D01*
X032082Y021754D01*
X032081Y021752D01*
X03208Y02175D01*
X032079Y021749D01*
X032078Y021747D01*
X032076Y021745D01*
X032075Y021744D01*
X032074Y021742D01*
X032072Y021741D01*
X03207Y02174D01*
X032069Y021739D01*
X032067Y021738D01*
X032065Y021737D01*
X032063Y021736D01*
X032061Y021735D01*
X032059Y021734D01*
X032057Y021734D01*
X032055Y021733D01*
X032053Y021733D01*
X032051Y021732D01*
X032049Y021732D01*
X032047Y021732D01*
X031693D01*
X031691Y021732D01*
X031689Y021732D01*
X031687Y021733D01*
X031685Y021733D01*
X031683Y021734D01*
X031681Y021734D01*
X031679Y021735D01*
X031677Y021736D01*
X031675Y021737D01*
X031673Y021738D01*
X031671Y021739D01*
X03167Y02174D01*
X031668Y021741D01*
X031667Y021742D01*
X031665Y021744D01*
X031664Y021745D01*
X031662Y021747D01*
X031661Y021749D01*
X03166Y02175D01*
X031659Y021752D01*
X031658Y021754D01*
X031657Y021756D01*
X031656Y021758D01*
X031655Y021759D01*
X031655Y021761D01*
X031654Y021763D01*
X031654Y021765D01*
X031654Y021768D01*
X031654Y02177D01*
X031654Y021772D01*
Y02185D01*
X031654Y021852D01*
X031654Y021855D01*
X031654Y021857D01*
X031654Y021859D01*
X031655Y021861D01*
X031655Y021863D01*
X031656Y021865D01*
X031657Y021866D01*
X031658Y021868D01*
X031659Y02187D01*
X03166Y021872D01*
X031661Y021874D01*
X031662Y021875D01*
X031664Y021877D01*
X031665Y021878D01*
X031667Y02188D01*
X031668Y021881D01*
X03167Y021882D01*
X031671Y021883D01*
X031673Y021884D01*
X031675Y021885D01*
X031677Y021886D01*
X031679Y021887D01*
X031681Y021888D01*
X031683Y021888D01*
X031685Y021889D01*
X031687Y021889D01*
X031689Y02189D01*
X031691Y02189D01*
X031693Y02189D01*
X032047D01*
X032049Y02189D01*
D02*
G37*
G36*
X03258Y021437D02*
X032581Y021437D01*
X032582Y021437D01*
X032583Y021437D01*
X032584Y021436D01*
X032585Y021436D01*
X032586Y021436D01*
X032587Y021435D01*
X032588Y021435D01*
X032589Y021434D01*
X032589Y021434D01*
X03259Y021433D01*
X032591Y021433D01*
X032592Y021432D01*
X032593Y021431D01*
X032593Y02143D01*
X032594Y02143D01*
X032595Y021429D01*
X032595Y021428D01*
X032596Y021427D01*
X032596Y021426D01*
X032597Y021425D01*
X032597Y021424D01*
X032597Y021423D01*
X032598Y021422D01*
X032598Y021421D01*
X032598Y02142D01*
X032598Y021419D01*
X032598Y021418D01*
X032598Y021417D01*
Y021319D01*
X032598Y021318D01*
X032598Y021317D01*
X032598Y021316D01*
X032598Y021315D01*
X032598Y021314D01*
X032597Y021313D01*
X032597Y021312D01*
X032597Y021311D01*
X032596Y02131D01*
X032596Y021309D01*
X032595Y021308D01*
X032595Y021307D01*
X032594Y021307D01*
X032593Y021306D01*
X032593Y021305D01*
X032592Y021304D01*
X032591Y021304D01*
X03259Y021303D01*
X032589Y021302D01*
X032589Y021302D01*
X032588Y021301D01*
X032587Y021301D01*
X032586Y021301D01*
X032585Y0213D01*
X032584Y0213D01*
X032583Y0213D01*
X032582Y021299D01*
X032581Y021299D01*
X03258Y021299D01*
X032579Y021299D01*
X03248D01*
X032477Y021299D01*
X032474Y021299D01*
X032471Y021298D01*
X032468Y021298D01*
X032465Y021297D01*
X032462Y021296D01*
X032459Y021295D01*
X032456Y021294D01*
X032453Y021293D01*
X032451Y021291D01*
X032448Y02129D01*
X032446Y021288D01*
X032443Y021286D01*
X032441Y021284D01*
X032439Y021282D01*
X032436Y02128D01*
X032434Y021277D01*
X032433Y021275D01*
X032431Y021272D01*
X032429Y02127D01*
X032428Y021267D01*
X032426Y021264D01*
X032425Y021261D01*
X032424Y021258D01*
X032423Y021255D01*
X032423Y021252D01*
X032422Y021249D01*
X032422Y021246D01*
X032421Y021243D01*
X032421Y02124D01*
Y021063D01*
X032421Y021062D01*
X032421Y021061D01*
X032421Y02106D01*
X032421Y021059D01*
X032421Y021058D01*
X03242Y021057D01*
X03242Y021056D01*
X03242Y021055D01*
X032419Y021054D01*
X032419Y021053D01*
X032418Y021052D01*
X032418Y021051D01*
X032417Y021051D01*
X032416Y02105D01*
X032415Y021049D01*
X032415Y021048D01*
X032414Y021048D01*
X032413Y021047D01*
X032412Y021046D01*
X032411Y021046D01*
X032411Y021045D01*
X03241Y021045D01*
X032409Y021045D01*
X032408Y021044D01*
X032407Y021044D01*
X032406Y021044D01*
X032405Y021044D01*
X032404Y021043D01*
X032403Y021043D01*
X032402Y021043D01*
X032303D01*
X032302Y021043D01*
X032301Y021043D01*
X0323Y021044D01*
X032299Y021044D01*
X032298Y021044D01*
X032297Y021044D01*
X032296Y021045D01*
X032295Y021045D01*
X032294Y021045D01*
X032293Y021046D01*
X032292Y021046D01*
X032292Y021047D01*
X032291Y021048D01*
X03229Y021048D01*
X032289Y021049D01*
X032289Y02105D01*
X032288Y021051D01*
X032287Y021051D01*
X032287Y021052D01*
X032286Y021053D01*
X032286Y021054D01*
X032285Y021055D01*
X032285Y021056D01*
X032284Y021057D01*
X032284Y021058D01*
X032284Y021059D01*
X032284Y02106D01*
X032284Y021061D01*
X032283Y021062D01*
X032283Y021063D01*
Y021417D01*
X032283Y021418D01*
X032284Y021419D01*
X032284Y02142D01*
X032284Y021421D01*
X032284Y021422D01*
X032284Y021423D01*
X032285Y021424D01*
X032285Y021425D01*
X032286Y021426D01*
X032286Y021427D01*
X032287Y021428D01*
X032287Y021429D01*
X032288Y02143D01*
X032289Y02143D01*
X032289Y021431D01*
X03229Y021432D01*
X032291Y021433D01*
X032292Y021433D01*
X032292Y021434D01*
X032293Y021434D01*
X032294Y021435D01*
X032295Y021435D01*
X032296Y021436D01*
X032297Y021436D01*
X032298Y021436D01*
X032299Y021437D01*
X0323Y021437D01*
X032301Y021437D01*
X032302Y021437D01*
X032303Y021437D01*
X032579D01*
X03258Y021437D01*
D02*
G37*
G36*
X032561Y02189D02*
X032563Y02189D01*
X032565Y021889D01*
X032567Y021889D01*
X032569Y021888D01*
X032571Y021888D01*
X032573Y021887D01*
X032575Y021886D01*
X032577Y021885D01*
X032579Y021884D01*
X03258Y021883D01*
X032582Y021882D01*
X032584Y021881D01*
X032585Y02188D01*
X032587Y021878D01*
X032588Y021877D01*
X03259Y021875D01*
X032591Y021874D01*
X032592Y021872D01*
X032593Y02187D01*
X032594Y021868D01*
X032595Y021866D01*
X032596Y021865D01*
X032596Y021863D01*
X032597Y021861D01*
X032598Y021859D01*
X032598Y021857D01*
X032598Y021855D01*
X032598Y021852D01*
X032598Y02185D01*
Y021772D01*
X032598Y02177D01*
X032598Y021768D01*
X032598Y021765D01*
X032598Y021763D01*
X032597Y021761D01*
X032596Y021759D01*
X032596Y021758D01*
X032595Y021756D01*
X032594Y021754D01*
X032593Y021752D01*
X032592Y02175D01*
X032591Y021749D01*
X03259Y021747D01*
X032588Y021745D01*
X032587Y021744D01*
X032585Y021742D01*
X032584Y021741D01*
X032582Y02174D01*
X03258Y021739D01*
X032579Y021738D01*
X032577Y021737D01*
X032575Y021736D01*
X032573Y021735D01*
X032571Y021734D01*
X032569Y021734D01*
X032567Y021733D01*
X032565Y021733D01*
X032563Y021732D01*
X032561Y021732D01*
X032559Y021732D01*
X032205D01*
X032203Y021732D01*
X032201Y021732D01*
X032199Y021733D01*
X032197Y021733D01*
X032195Y021734D01*
X032193Y021734D01*
X032191Y021735D01*
X032189Y021736D01*
X032187Y021737D01*
X032185Y021738D01*
X032183Y021739D01*
X032182Y02174D01*
X03218Y021741D01*
X032178Y021742D01*
X032177Y021744D01*
X032175Y021745D01*
X032174Y021747D01*
X032173Y021749D01*
X032172Y02175D01*
X032171Y021752D01*
X03217Y021754D01*
X032169Y021756D01*
X032168Y021758D01*
X032167Y021759D01*
X032167Y021761D01*
X032166Y021763D01*
X032166Y021765D01*
X032166Y021768D01*
X032165Y02177D01*
X032165Y021772D01*
Y02185D01*
X032165Y021852D01*
X032166Y021855D01*
X032166Y021857D01*
X032166Y021859D01*
X032167Y021861D01*
X032167Y021863D01*
X032168Y021865D01*
X032169Y021866D01*
X03217Y021868D01*
X032171Y02187D01*
X032172Y021872D01*
X032173Y021874D01*
X032174Y021875D01*
X032175Y021877D01*
X032177Y021878D01*
X032178Y02188D01*
X03218Y021881D01*
X032182Y021882D01*
X032183Y021883D01*
X032185Y021884D01*
X032187Y021885D01*
X032189Y021886D01*
X032191Y021887D01*
X032193Y021888D01*
X032195Y021888D01*
X032197Y021889D01*
X032199Y021889D01*
X032201Y02189D01*
X032203Y02189D01*
X032205Y02189D01*
X032559D01*
X032561Y02189D01*
D02*
G37*
G36*
X032403Y022579D02*
X032404Y022579D01*
X032405Y022578D01*
X032406Y022578D01*
X032407Y022578D01*
X032408Y022578D01*
X032409Y022577D01*
X03241Y022577D01*
X032411Y022577D01*
X032411Y022576D01*
X032412Y022576D01*
X032413Y022575D01*
X032414Y022574D01*
X032415Y022574D01*
X032415Y022573D01*
X032416Y022572D01*
X032417Y022571D01*
X032418Y022571D01*
X032418Y02257D01*
X032419Y022569D01*
X032419Y022568D01*
X03242Y022567D01*
X03242Y022566D01*
X03242Y022565D01*
X032421Y022564D01*
X032421Y022563D01*
X032421Y022562D01*
X032421Y022561D01*
X032421Y02256D01*
X032421Y022559D01*
Y022382D01*
X032421Y022379D01*
X032422Y022376D01*
X032422Y022373D01*
X032423Y02237D01*
X032423Y022367D01*
X032424Y022364D01*
X032425Y022361D01*
X032426Y022358D01*
X032428Y022355D01*
X032429Y022352D01*
X032431Y02235D01*
X032433Y022347D01*
X032434Y022345D01*
X032436Y022342D01*
X032439Y02234D01*
X032441Y022338D01*
X032443Y022336D01*
X032446Y022334D01*
X032448Y022332D01*
X032451Y022331D01*
X032453Y022329D01*
X032456Y022328D01*
X032459Y022327D01*
X032462Y022326D01*
X032465Y022325D01*
X032468Y022324D01*
X032471Y022324D01*
X032474Y022323D01*
X032477Y022323D01*
X03248Y022323D01*
X032579D01*
X03258Y022323D01*
X032581Y022323D01*
X032582Y022323D01*
X032583Y022322D01*
X032584Y022322D01*
X032585Y022322D01*
X032586Y022322D01*
X032587Y022321D01*
X032588Y022321D01*
X032589Y02232D01*
X032589Y02232D01*
X03259Y022319D01*
X032591Y022318D01*
X032592Y022318D01*
X032593Y022317D01*
X032593Y022316D01*
X032594Y022316D01*
X032595Y022315D01*
X032595Y022314D01*
X032596Y022313D01*
X032596Y022312D01*
X032597Y022311D01*
X032597Y02231D01*
X032597Y022309D01*
X032598Y022308D01*
X032598Y022307D01*
X032598Y022306D01*
X032598Y022305D01*
X032598Y022304D01*
X032598Y022303D01*
Y022205D01*
X032598Y022204D01*
X032598Y022203D01*
X032598Y022202D01*
X032598Y022201D01*
X032598Y0222D01*
X032597Y022199D01*
X032597Y022198D01*
X032597Y022197D01*
X032596Y022196D01*
X032596Y022195D01*
X032595Y022194D01*
X032595Y022193D01*
X032594Y022192D01*
X032593Y022192D01*
X032593Y022191D01*
X032592Y02219D01*
X032591Y022189D01*
X03259Y022189D01*
X032589Y022188D01*
X032589Y022188D01*
X032588Y022187D01*
X032587Y022187D01*
X032586Y022186D01*
X032585Y022186D01*
X032584Y022186D01*
X032583Y022185D01*
X032582Y022185D01*
X032581Y022185D01*
X03258Y022185D01*
X032579Y022185D01*
X032303D01*
X032302Y022185D01*
X032301Y022185D01*
X0323Y022185D01*
X032299Y022185D01*
X032298Y022186D01*
X032297Y022186D01*
X032296Y022186D01*
X032295Y022187D01*
X032294Y022187D01*
X032293Y022188D01*
X032292Y022188D01*
X032292Y022189D01*
X032291Y022189D01*
X03229Y02219D01*
X032289Y022191D01*
X032289Y022192D01*
X032288Y022192D01*
X032287Y022193D01*
X032287Y022194D01*
X032286Y022195D01*
X032286Y022196D01*
X032285Y022197D01*
X032285Y022198D01*
X032284Y022199D01*
X032284Y0222D01*
X032284Y022201D01*
X032284Y022202D01*
X032284Y022203D01*
X032283Y022204D01*
X032283Y022205D01*
Y022559D01*
X032283Y02256D01*
X032284Y022561D01*
X032284Y022562D01*
X032284Y022563D01*
X032284Y022564D01*
X032284Y022565D01*
X032285Y022566D01*
X032285Y022567D01*
X032286Y022568D01*
X032286Y022569D01*
X032287Y02257D01*
X032287Y022571D01*
X032288Y022571D01*
X032289Y022572D01*
X032289Y022573D01*
X03229Y022574D01*
X032291Y022574D01*
X032292Y022575D01*
X032292Y022576D01*
X032293Y022576D01*
X032294Y022577D01*
X032295Y022577D01*
X032296Y022577D01*
X032297Y022578D01*
X032298Y022578D01*
X032299Y022578D01*
X0323Y022578D01*
X032301Y022579D01*
X032302Y022579D01*
X032303Y022579D01*
X032402D01*
X032403Y022579D01*
D02*
G37*
G36*
X034278Y039427D02*
X033766D01*
Y039939D01*
X034278D01*
Y039427D01*
D02*
G37*
G36*
X033463D02*
X032951D01*
Y039939D01*
X033463D01*
Y039427D01*
D02*
G37*
G36*
X034278Y038612D02*
X033766D01*
Y039124D01*
X034278D01*
Y038612D01*
D02*
G37*
G36*
X033463D02*
X032951D01*
Y039124D01*
X033463D01*
Y038612D01*
D02*
G37*
G36*
X034278Y037798D02*
X033766D01*
Y038309D01*
X034278D01*
Y037798D01*
D02*
G37*
G36*
X033463D02*
X032951D01*
Y038309D01*
X033463D01*
Y037798D01*
D02*
G37*
G36*
X050189Y023474D02*
Y023473D01*
X050188Y023472D01*
Y023471D01*
X050188Y02347D01*
X050187Y023469D01*
X050187Y023468D01*
X050186Y023468D01*
X050186Y023467D01*
X050185Y023466D01*
X050185Y023465D01*
X050184Y023464D01*
X050183Y023464D01*
X050182Y023463D01*
X050181Y023462D01*
X050181Y023462D01*
X05018Y023461D01*
X050179Y02346D01*
X050178Y02346D01*
X050177Y023459D01*
X050176Y023459D01*
X050175Y023458D01*
X050174D01*
X050173Y023458D01*
X050172D01*
X050171Y023458D01*
X05017D01*
X050169D01*
X050067D01*
X050066D01*
X050065D01*
X050064Y023458D01*
X050063D01*
X050062Y023458D01*
X050061D01*
X05006Y023459D01*
X050059Y023459D01*
X050058Y02346D01*
X050057Y02346D01*
X050056Y023461D01*
X050056Y023462D01*
X050055Y023462D01*
X050054Y023463D01*
X050053Y023464D01*
X050052Y023464D01*
X050052Y023465D01*
X050051Y023466D01*
X05005Y023467D01*
X05005Y023468D01*
X050049Y023468D01*
X050049Y023469D01*
X050048Y02347D01*
X050048Y023471D01*
Y023472D01*
X050048Y023473D01*
Y023474D01*
X050047Y023475D01*
Y023662D01*
X050048Y023664D01*
Y023664D01*
X050048Y023666D01*
Y023666D01*
X050048Y023668D01*
X050049Y023668D01*
X050049Y023669D01*
X05005Y02367D01*
X05005Y023671D01*
X050051Y023672D01*
X050052Y023673D01*
X050052Y023673D01*
X050053Y023674D01*
X050054Y023675D01*
X050055Y023676D01*
X050056Y023676D01*
X050056Y023677D01*
X050057Y023677D01*
X050058Y023678D01*
X050059Y023679D01*
X05006Y023679D01*
X050061Y023679D01*
X050062D01*
X050063Y02368D01*
X050064D01*
X050065Y02368D01*
X050066D01*
X050067D01*
X050169D01*
X05017D01*
X050171D01*
X050172Y02368D01*
X050173D01*
X050174Y023679D01*
X050175D01*
X050176Y023679D01*
X050177Y023679D01*
X050178Y023678D01*
X050179Y023677D01*
X05018Y023677D01*
X050181Y023676D01*
X050181Y023676D01*
X050182Y023675D01*
X050183Y023674D01*
X050184Y023673D01*
X050185Y023673D01*
X050185Y023672D01*
X050186Y023671D01*
X050186Y02367D01*
X050187Y023669D01*
X050187Y023668D01*
X050188Y023668D01*
X050188Y023666D01*
Y023666D01*
X050189Y023664D01*
Y023664D01*
X050189Y023662D01*
Y023475D01*
X050189Y023474D01*
D02*
G37*
G36*
Y023803D02*
Y023802D01*
X050188Y023801D01*
Y0238D01*
X050188Y023799D01*
X050187Y023798D01*
X050187Y023797D01*
X050186Y023796D01*
X050186Y023795D01*
X050185Y023795D01*
X050185Y023794D01*
X050184Y023793D01*
X050183Y023792D01*
X050182Y023792D01*
X050181Y023791D01*
X050181Y02379D01*
X05018Y02379D01*
X050179Y023789D01*
X050178Y023788D01*
X050177Y023788D01*
X050176Y023788D01*
X050175Y023787D01*
X050174D01*
X050173Y023787D01*
X050172D01*
X050171Y023786D01*
X05017D01*
X050169D01*
X050067D01*
X050066D01*
X050065D01*
X050064Y023787D01*
X050063D01*
X050062Y023787D01*
X050061D01*
X05006Y023788D01*
X050059Y023788D01*
X050058Y023788D01*
X050057Y023789D01*
X050056Y02379D01*
X050056Y02379D01*
X050055Y023791D01*
X050054Y023792D01*
X050053Y023792D01*
X050052Y023793D01*
X050052Y023794D01*
X050051Y023795D01*
X05005Y023795D01*
X05005Y023796D01*
X050049Y023797D01*
X050049Y023798D01*
X050048Y023799D01*
X050048Y0238D01*
Y023801D01*
X050048Y023802D01*
Y023803D01*
X050047Y023804D01*
Y023991D01*
X050048Y023992D01*
Y023993D01*
X050048Y023994D01*
Y023995D01*
X050048Y023996D01*
X050049Y023997D01*
X050049Y023998D01*
X05005Y023999D01*
X05005Y024D01*
X050051Y024001D01*
X050052Y024001D01*
X050052Y024002D01*
X050053Y024003D01*
X050054Y024004D01*
X050055Y024005D01*
X050056Y024005D01*
X050056Y024006D01*
X050057Y024006D01*
X050058Y024007D01*
X050059Y024007D01*
X05006Y024008D01*
X050061Y024008D01*
X050062D01*
X050063Y024008D01*
X050064D01*
X050065Y024009D01*
X050066D01*
X050067D01*
X050169D01*
X05017D01*
X050171D01*
X050172Y024008D01*
X050173D01*
X050174Y024008D01*
X050175D01*
X050176Y024008D01*
X050177Y024007D01*
X050178Y024007D01*
X050179Y024006D01*
X05018Y024006D01*
X050181Y024005D01*
X050181Y024005D01*
X050182Y024004D01*
X050183Y024003D01*
X050184Y024002D01*
X050185Y024001D01*
X050185Y024001D01*
X050186Y024D01*
X050186Y023999D01*
X050187Y023998D01*
X050187Y023997D01*
X050188Y023996D01*
X050188Y023995D01*
Y023994D01*
X050189Y023993D01*
Y023992D01*
X050189Y023991D01*
Y023804D01*
X050189Y023803D01*
D02*
G37*
G36*
X035093Y037798D02*
X034581D01*
Y038309D01*
X035093D01*
Y037798D01*
D02*
G37*
G36*
Y038612D02*
X034581D01*
Y039124D01*
X035093D01*
Y038612D01*
D02*
G37*
G36*
Y039427D02*
X034581D01*
Y039939D01*
X035093D01*
Y039427D01*
D02*
G37*
G36*
X036193Y042692D02*
Y042693D01*
X036194Y042694D01*
Y042695D01*
X036194Y042696D01*
X036195Y042697D01*
X036195Y042698D01*
X036196Y042699D01*
X036196Y0427D01*
X036197Y042701D01*
X036197Y042701D01*
X036198Y042702D01*
X036199Y042703D01*
X0362Y042704D01*
X036201Y042705D01*
X036201Y042705D01*
X036202Y042706D01*
X036203Y042706D01*
X036204Y042707D01*
X036205Y042707D01*
X036206Y042708D01*
X036207Y042708D01*
X036208D01*
X036209Y042709D01*
X03621D01*
X036211Y042709D01*
X036212D01*
X036213D01*
X036315D01*
X036316D01*
X036317D01*
X036318Y042709D01*
X036319D01*
X03632Y042708D01*
X036321D01*
X036322Y042708D01*
X036323Y042707D01*
X036324Y042707D01*
X036325Y042706D01*
X036326Y042706D01*
X036327Y042705D01*
X036327Y042705D01*
X036328Y042704D01*
X036329Y042703D01*
X03633Y042702D01*
X036331Y042701D01*
X036331Y042701D01*
X036332Y0427D01*
X036332Y042699D01*
X036333Y042698D01*
X036333Y042697D01*
X036334Y042696D01*
X036334Y042695D01*
Y042694D01*
X036334Y042693D01*
Y042692D01*
X036335Y042691D01*
Y042504D01*
X036334Y042503D01*
Y042502D01*
X036334Y042501D01*
Y0425D01*
X036334Y042499D01*
X036333Y042498D01*
X036333Y042497D01*
X036332Y042496D01*
X036332Y042496D01*
X036331Y042495D01*
X036331Y042494D01*
X03633Y042493D01*
X036329Y042492D01*
X036328Y042492D01*
X036327Y042491D01*
X036327Y04249D01*
X036326Y04249D01*
X036325Y042489D01*
X036324Y042488D01*
X036323Y042488D01*
X036322Y042488D01*
X036321Y042487D01*
X03632D01*
X036319Y042487D01*
X036318D01*
X036317Y042487D01*
X036316D01*
X036315D01*
X036213D01*
X036212D01*
X036211D01*
X03621Y042487D01*
X036209D01*
X036208Y042487D01*
X036207D01*
X036206Y042488D01*
X036205Y042488D01*
X036204Y042488D01*
X036203Y042489D01*
X036202Y04249D01*
X036201Y04249D01*
X036201Y042491D01*
X0362Y042492D01*
X036199Y042492D01*
X036198Y042493D01*
X036197Y042494D01*
X036197Y042495D01*
X036196Y042496D01*
X036196Y042496D01*
X036195Y042497D01*
X036195Y042498D01*
X036194Y042499D01*
X036194Y0425D01*
Y042501D01*
X036193Y042502D01*
Y042503D01*
X036193Y042504D01*
Y042691D01*
X036193Y042692D01*
D02*
G37*
G36*
Y043021D02*
Y043022D01*
X036194Y043023D01*
Y043024D01*
X036194Y043025D01*
X036195Y043026D01*
X036195Y043027D01*
X036196Y043028D01*
X036196Y043029D01*
X036197Y043029D01*
X036197Y04303D01*
X036198Y043031D01*
X036199Y043032D01*
X0362Y043033D01*
X036201Y043033D01*
X036201Y043034D01*
X036202Y043035D01*
X036203Y043035D01*
X036204Y043036D01*
X036205Y043036D01*
X036206Y043036D01*
X036207Y043037D01*
X036208D01*
X036209Y043037D01*
X03621D01*
X036211Y043038D01*
X036212D01*
X036213D01*
X036315D01*
X036316D01*
X036317D01*
X036318Y043037D01*
X036319D01*
X03632Y043037D01*
X036321D01*
X036322Y043036D01*
X036323Y043036D01*
X036324Y043036D01*
X036325Y043035D01*
X036326Y043035D01*
X036327Y043034D01*
X036327Y043033D01*
X036328Y043033D01*
X036329Y043032D01*
X03633Y043031D01*
X036331Y04303D01*
X036331Y043029D01*
X036332Y043029D01*
X036332Y043028D01*
X036333Y043027D01*
X036333Y043026D01*
X036334Y043025D01*
X036334Y043024D01*
Y043023D01*
X036334Y043022D01*
Y043021D01*
X036335Y04302D01*
Y042833D01*
X036334Y042832D01*
Y042831D01*
X036334Y04283D01*
Y042829D01*
X036334Y042828D01*
X036333Y042827D01*
X036333Y042826D01*
X036332Y042825D01*
X036332Y042824D01*
X036331Y042824D01*
X036331Y042823D01*
X03633Y042822D01*
X036329Y042821D01*
X036328Y04282D01*
X036327Y04282D01*
X036327Y042819D01*
X036326Y042818D01*
X036325Y042818D01*
X036324Y042817D01*
X036323Y042817D01*
X036322Y042816D01*
X036321Y042816D01*
X03632D01*
X036319Y042816D01*
X036318D01*
X036317Y042815D01*
X036316D01*
X036315D01*
X036213D01*
X036212D01*
X036211D01*
X03621Y042816D01*
X036209D01*
X036208Y042816D01*
X036207D01*
X036206Y042816D01*
X036205Y042817D01*
X036204Y042817D01*
X036203Y042818D01*
X036202Y042818D01*
X036201Y042819D01*
X036201Y04282D01*
X0362Y04282D01*
X036199Y042821D01*
X036198Y042822D01*
X036197Y042823D01*
X036197Y042824D01*
X036196Y042824D01*
X036196Y042825D01*
X036195Y042826D01*
X036195Y042827D01*
X036194Y042828D01*
X036194Y042829D01*
Y04283D01*
X036193Y042831D01*
Y042832D01*
X036193Y042833D01*
Y04302D01*
X036193Y043021D01*
D02*
G37*
G36*
X051629Y024015D02*
X05163D01*
X051631Y024015D01*
X051632D01*
X051633Y024015D01*
X051634Y024014D01*
X051635Y024014D01*
X051636Y024013D01*
X051637Y024013D01*
X051637Y024012D01*
X051638Y024011D01*
X051639Y024011D01*
X05164Y02401D01*
X051641Y024009D01*
X051641Y024008D01*
X051642Y024007D01*
X051643Y024007D01*
X051643Y024006D01*
X051644Y024005D01*
X051644Y024004D01*
X051644Y024003D01*
X051645Y024002D01*
Y024001D01*
X051645Y024D01*
Y023999D01*
X051646Y023998D01*
Y023811D01*
X051645Y02381D01*
Y023809D01*
X051645Y023808D01*
Y023807D01*
X051644Y023806D01*
X051644Y023805D01*
X051644Y023804D01*
X051643Y023803D01*
X051643Y023802D01*
X051642Y023802D01*
X051641Y023801D01*
X051641Y0238D01*
X05164Y023799D01*
X051639Y023798D01*
X051638Y023798D01*
X051637Y023797D01*
X051637Y023796D01*
X051636Y023796D01*
X051635Y023795D01*
X051634Y023795D01*
X051633Y023794D01*
X051632Y023794D01*
X051631D01*
X05163Y023794D01*
X051629D01*
X051628Y023793D01*
X051522D01*
X05152Y023794D01*
X05152D01*
X051519Y023794D01*
X051518D01*
X051517Y023794D01*
X051516Y023795D01*
X051515Y023795D01*
X051514Y023796D01*
X051513Y023796D01*
X051512Y023797D01*
X051511Y023798D01*
X051511Y023798D01*
X05151Y023799D01*
X051509Y0238D01*
X051508Y023801D01*
X051508Y023802D01*
X051507Y023802D01*
X051507Y023803D01*
X051506Y023804D01*
X051506Y023805D01*
X051505Y023806D01*
X051505Y023807D01*
Y023808D01*
X051504Y023809D01*
Y02381D01*
X051504Y023811D01*
Y023998D01*
X051504Y023999D01*
Y024D01*
X051505Y024001D01*
Y024002D01*
X051505Y024003D01*
X051506Y024004D01*
X051506Y024005D01*
X051507Y024006D01*
X051507Y024007D01*
X051508Y024007D01*
X051508Y024008D01*
X051509Y024009D01*
X05151Y02401D01*
X051511Y024011D01*
X051511Y024011D01*
X051512Y024012D01*
X051513Y024013D01*
X051514Y024013D01*
X051515Y024014D01*
X051516Y024014D01*
X051517Y024015D01*
X051518Y024015D01*
X051519D01*
X05152Y024015D01*
X05152D01*
X051522Y024016D01*
X051628D01*
X051629Y024015D01*
D02*
G37*
G36*
X06092Y023937D02*
X060921D01*
X060922Y023936D01*
X060923D01*
X060924Y023936D01*
X060925Y023935D01*
X060926Y023935D01*
X060927Y023934D01*
X060928Y023934D01*
X060929Y023933D01*
X06093Y023933D01*
X06093Y023932D01*
X060931Y023931D01*
X060932Y02393D01*
X060933Y02393D01*
X060933Y023929D01*
X060934Y023928D01*
X060934Y023927D01*
X060935Y023926D01*
X060935Y023925D01*
X060936Y023924D01*
X060936Y023923D01*
Y023922D01*
X060937Y023921D01*
Y02392D01*
X060937Y023919D01*
Y023732D01*
X060937Y023731D01*
Y02373D01*
X060936Y023729D01*
Y023728D01*
X060936Y023727D01*
X060935Y023726D01*
X060935Y023725D01*
X060934Y023724D01*
X060934Y023724D01*
X060933Y023723D01*
X060933Y023722D01*
X060932Y023721D01*
X060931Y02372D01*
X06093Y02372D01*
X06093Y023719D01*
X060929Y023719D01*
X060928Y023718D01*
X060927Y023717D01*
X060926Y023717D01*
X060925Y023716D01*
X060924Y023716D01*
X060923Y023715D01*
X060922D01*
X060921Y023715D01*
X06092D01*
X060919Y023715D01*
X060813D01*
X060812Y023715D01*
X060811D01*
X06081Y023715D01*
X060809D01*
X060808Y023716D01*
X060807Y023716D01*
X060806Y023717D01*
X060805Y023717D01*
X060804Y023718D01*
X060804Y023719D01*
X060803Y023719D01*
X060802Y02372D01*
X060801Y02372D01*
X0608Y023721D01*
X0608Y023722D01*
X060799Y023723D01*
X060798Y023724D01*
X060798Y023724D01*
X060797Y023725D01*
X060797Y023726D01*
X060796Y023727D01*
X060796Y023728D01*
Y023729D01*
X060796Y02373D01*
Y023731D01*
X060795Y023732D01*
Y023919D01*
X060796Y02392D01*
Y023921D01*
X060796Y023922D01*
Y023923D01*
X060796Y023924D01*
X060797Y023925D01*
X060797Y023926D01*
X060798Y023927D01*
X060798Y023928D01*
X060799Y023929D01*
X0608Y02393D01*
X0608Y02393D01*
X060801Y023931D01*
X060802Y023932D01*
X060803Y023933D01*
X060804Y023933D01*
X060804Y023934D01*
X060805Y023934D01*
X060806Y023935D01*
X060807Y023935D01*
X060808Y023936D01*
X060809Y023936D01*
X06081D01*
X060811Y023937D01*
X060812D01*
X060813Y023937D01*
X060919D01*
X06092Y023937D01*
D02*
G37*
G36*
X059385D02*
X059386D01*
X059387Y023936D01*
X059388D01*
X059389Y023936D01*
X05939Y023935D01*
X059391Y023935D01*
X059392Y023934D01*
X059393Y023934D01*
X059393Y023933D01*
X059394Y023933D01*
X059395Y023932D01*
X059396Y023931D01*
X059396Y02393D01*
X059397Y02393D01*
X059398Y023929D01*
X059398Y023928D01*
X059399Y023927D01*
X0594Y023926D01*
X0594Y023925D01*
X0594Y023924D01*
X059401Y023923D01*
Y023922D01*
X059401Y023921D01*
Y02392D01*
X059402Y023919D01*
Y023732D01*
X059401Y023731D01*
Y02373D01*
X059401Y023729D01*
Y023728D01*
X0594Y023727D01*
X0594Y023726D01*
X0594Y023725D01*
X059399Y023724D01*
X059398Y023724D01*
X059398Y023723D01*
X059397Y023722D01*
X059396Y023721D01*
X059396Y02372D01*
X059395Y02372D01*
X059394Y023719D01*
X059393Y023719D01*
X059393Y023718D01*
X059392Y023717D01*
X059391Y023717D01*
X05939Y023716D01*
X059389Y023716D01*
X059388Y023715D01*
X059387D01*
X059386Y023715D01*
X059385D01*
X059384Y023715D01*
X059278D01*
X059276Y023715D01*
X059276D01*
X059274Y023715D01*
X059274D01*
X059272Y023716D01*
X059272Y023716D01*
X05927Y023717D01*
X05927Y023717D01*
X059269Y023718D01*
X059268Y023719D01*
X059267Y023719D01*
X059267Y02372D01*
X059266Y02372D01*
X059265Y023721D01*
X059264Y023722D01*
X059264Y023723D01*
X059263Y023724D01*
X059263Y023724D01*
X059262Y023725D01*
X059261Y023726D01*
X059261Y023727D01*
X059261Y023728D01*
Y023729D01*
X05926Y02373D01*
Y023731D01*
X05926Y023732D01*
Y023919D01*
X05926Y02392D01*
Y023921D01*
X059261Y023922D01*
Y023923D01*
X059261Y023924D01*
X059261Y023925D01*
X059262Y023926D01*
X059263Y023927D01*
X059263Y023928D01*
X059264Y023929D01*
X059264Y02393D01*
X059265Y02393D01*
X059266Y023931D01*
X059267Y023932D01*
X059267Y023933D01*
X059268Y023933D01*
X059269Y023934D01*
X05927Y023934D01*
X05927Y023935D01*
X059272Y023935D01*
X059272Y023936D01*
X059274Y023936D01*
X059274D01*
X059276Y023937D01*
X059276D01*
X059278Y023937D01*
X059384D01*
X059385Y023937D01*
D02*
G37*
G36*
X051629Y023687D02*
X05163D01*
X051631Y023686D01*
X051632D01*
X051633Y023686D01*
X051634Y023685D01*
X051635Y023685D01*
X051636Y023684D01*
X051637Y023684D01*
X051637Y023683D01*
X051638Y023683D01*
X051639Y023682D01*
X05164Y023681D01*
X051641Y02368D01*
X051641Y02368D01*
X051642Y023679D01*
X051643Y023678D01*
X051643Y023677D01*
X051644Y023676D01*
X051644Y023675D01*
X051644Y023674D01*
X051645Y023673D01*
Y023672D01*
X051645Y023671D01*
Y02367D01*
X051646Y023669D01*
Y023482D01*
X051645Y023481D01*
Y02348D01*
X051645Y023479D01*
Y023478D01*
X051644Y023477D01*
X051644Y023476D01*
X051644Y023475D01*
X051643Y023474D01*
X051643Y023474D01*
X051642Y023473D01*
X051641Y023472D01*
X051641Y023471D01*
X05164Y02347D01*
X051639Y02347D01*
X051638Y023469D01*
X051637Y023468D01*
X051637Y023468D01*
X051636Y023467D01*
X051635Y023467D01*
X051634Y023466D01*
X051633Y023466D01*
X051632Y023465D01*
X051631D01*
X05163Y023465D01*
X051629D01*
X051628Y023465D01*
X051522D01*
X05152Y023465D01*
X05152D01*
X051519Y023465D01*
X051518D01*
X051517Y023466D01*
X051516Y023466D01*
X051515Y023467D01*
X051514Y023467D01*
X051513Y023468D01*
X051512Y023468D01*
X051511Y023469D01*
X051511Y02347D01*
X05151Y02347D01*
X051509Y023471D01*
X051508Y023472D01*
X051508Y023473D01*
X051507Y023474D01*
X051507Y023474D01*
X051506Y023475D01*
X051506Y023476D01*
X051505Y023477D01*
X051505Y023478D01*
Y023479D01*
X051504Y02348D01*
Y023481D01*
X051504Y023482D01*
Y023669D01*
X051504Y02367D01*
Y023671D01*
X051505Y023672D01*
Y023673D01*
X051505Y023674D01*
X051506Y023675D01*
X051506Y023676D01*
X051507Y023677D01*
X051507Y023678D01*
X051508Y023679D01*
X051508Y02368D01*
X051509Y02368D01*
X05151Y023681D01*
X051511Y023682D01*
X051511Y023683D01*
X051512Y023683D01*
X051513Y023684D01*
X051514Y023684D01*
X051515Y023685D01*
X051516Y023685D01*
X051517Y023686D01*
X051518Y023686D01*
X051519D01*
X05152Y023687D01*
X05152D01*
X051522Y023687D01*
X051628D01*
X051629Y023687D01*
D02*
G37*
G36*
X06092Y023608D02*
X060921D01*
X060922Y023607D01*
X060923D01*
X060924Y023607D01*
X060925Y023607D01*
X060926Y023606D01*
X060927Y023606D01*
X060928Y023605D01*
X060929Y023604D01*
X06093Y023604D01*
X06093Y023603D01*
X060931Y023602D01*
X060932Y023602D01*
X060933Y023601D01*
X060933Y0236D01*
X060934Y023599D01*
X060934Y023598D01*
X060935Y023598D01*
X060935Y023596D01*
X060936Y023596D01*
X060936Y023594D01*
Y023594D01*
X060937Y023593D01*
Y023592D01*
X060937Y023591D01*
Y023404D01*
X060937Y023402D01*
Y023402D01*
X060936Y0234D01*
Y0234D01*
X060936Y023398D01*
X060935Y023398D01*
X060935Y023396D01*
X060934Y023396D01*
X060934Y023395D01*
X060933Y023394D01*
X060933Y023393D01*
X060932Y023393D01*
X060931Y023392D01*
X06093Y023391D01*
X06093Y02339D01*
X060929Y02339D01*
X060928Y023389D01*
X060927Y023389D01*
X060926Y023388D01*
X060925Y023387D01*
X060924Y023387D01*
X060923Y023387D01*
X060922D01*
X060921Y023386D01*
X06092D01*
X060919Y023386D01*
X060813D01*
X060812Y023386D01*
X060811D01*
X06081Y023387D01*
X060809D01*
X060808Y023387D01*
X060807Y023387D01*
X060806Y023388D01*
X060805Y023389D01*
X060804Y023389D01*
X060804Y02339D01*
X060803Y02339D01*
X060802Y023391D01*
X060801Y023392D01*
X0608Y023393D01*
X0608Y023393D01*
X060799Y023394D01*
X060798Y023395D01*
X060798Y023396D01*
X060797Y023396D01*
X060797Y023398D01*
X060796Y023398D01*
X060796Y0234D01*
Y0234D01*
X060796Y023402D01*
Y023402D01*
X060795Y023404D01*
Y023591D01*
X060796Y023592D01*
Y023593D01*
X060796Y023594D01*
Y023594D01*
X060796Y023596D01*
X060797Y023596D01*
X060797Y023598D01*
X060798Y023598D01*
X060798Y023599D01*
X060799Y0236D01*
X0608Y023601D01*
X0608Y023602D01*
X060801Y023602D01*
X060802Y023603D01*
X060803Y023604D01*
X060804Y023604D01*
X060804Y023605D01*
X060805Y023606D01*
X060806Y023606D01*
X060807Y023607D01*
X060808Y023607D01*
X060809Y023607D01*
X06081D01*
X060811Y023608D01*
X060812D01*
X060813Y023608D01*
X060919D01*
X06092Y023608D01*
D02*
G37*
G36*
X059385D02*
X059386D01*
X059387Y023607D01*
X059388D01*
X059389Y023607D01*
X05939Y023607D01*
X059391Y023606D01*
X059392Y023606D01*
X059393Y023605D01*
X059393Y023604D01*
X059394Y023604D01*
X059395Y023603D01*
X059396Y023602D01*
X059396Y023602D01*
X059397Y023601D01*
X059398Y0236D01*
X059398Y023599D01*
X059399Y023598D01*
X0594Y023598D01*
X0594Y023596D01*
X0594Y023596D01*
X059401Y023594D01*
Y023594D01*
X059401Y023593D01*
Y023592D01*
X059402Y023591D01*
Y023404D01*
X059401Y023402D01*
Y023402D01*
X059401Y0234D01*
Y0234D01*
X0594Y023398D01*
X0594Y023398D01*
X0594Y023396D01*
X059399Y023396D01*
X059398Y023395D01*
X059398Y023394D01*
X059397Y023393D01*
X059396Y023393D01*
X059396Y023392D01*
X059395Y023391D01*
X059394Y02339D01*
X059393Y02339D01*
X059393Y023389D01*
X059392Y023389D01*
X059391Y023388D01*
X05939Y023387D01*
X059389Y023387D01*
X059388Y023387D01*
X059387D01*
X059386Y023386D01*
X059385D01*
X059384Y023386D01*
X059278D01*
X059276Y023386D01*
X059276D01*
X059274Y023387D01*
X059274D01*
X059272Y023387D01*
X059272Y023387D01*
X05927Y023388D01*
X05927Y023389D01*
X059269Y023389D01*
X059268Y02339D01*
X059267Y02339D01*
X059267Y023391D01*
X059266Y023392D01*
X059265Y023393D01*
X059264Y023393D01*
X059264Y023394D01*
X059263Y023395D01*
X059263Y023396D01*
X059262Y023396D01*
X059261Y023398D01*
X059261Y023398D01*
X059261Y0234D01*
Y0234D01*
X05926Y023402D01*
Y023402D01*
X05926Y023404D01*
Y023591D01*
X05926Y023592D01*
Y023593D01*
X059261Y023594D01*
Y023594D01*
X059261Y023596D01*
X059261Y023596D01*
X059262Y023598D01*
X059263Y023598D01*
X059263Y023599D01*
X059264Y0236D01*
X059264Y023601D01*
X059265Y023602D01*
X059266Y023602D01*
X059267Y023603D01*
X059267Y023604D01*
X059268Y023604D01*
X059269Y023605D01*
X05927Y023606D01*
X05927Y023606D01*
X059272Y023607D01*
X059272Y023607D01*
X059274Y023607D01*
X059274D01*
X059276Y023608D01*
X059276D01*
X059278Y023608D01*
X059384D01*
X059385Y023608D01*
D02*
G37*
D23*
X058667Y03841D02*
X059127D01*
Y037949D02*
Y03841D01*
X058667Y037949D02*
X059127D01*
X058667D02*
Y03841D01*
X059206Y037949D02*
Y03841D01*
X058667Y037871D02*
X059127D01*
X059206Y036871D02*
Y037331D01*
X058667D02*
X059127D01*
Y036871D02*
Y037331D01*
X058667Y036871D02*
X059127D01*
X058667D02*
Y037331D01*
Y03741D02*
X059127D01*
X059667Y037949D02*
Y03841D01*
X059746D02*
X060206D01*
Y037949D02*
Y03841D01*
X059746Y037949D02*
X060206D01*
X059746D02*
Y03841D01*
Y037871D02*
X060206D01*
X059746Y03741D02*
X060206D01*
X059746Y037331D02*
X060206D01*
Y036871D02*
Y037331D01*
X059746Y036871D02*
X060206D01*
X059746D02*
Y037331D01*
X059667Y036871D02*
Y037331D01*
X059127Y03741D02*
Y037871D01*
X058667Y03741D02*
Y037871D01*
X059206Y03741D02*
Y037871D01*
X060206Y03741D02*
Y037871D01*
X059746Y03741D02*
Y037871D01*
X059667Y03741D02*
Y037871D01*
X059206Y03841D02*
X059667D01*
X059206Y037949D02*
X059667D01*
X059206Y037871D02*
X059667D01*
X059206Y037331D02*
X059667D01*
X059206Y036871D02*
X059667D01*
X059206Y03741D02*
X059667D01*
D24*
X044921Y044764D02*
D03*
X044528D02*
D03*
X034606Y033268D02*
D03*
X034213D02*
D03*
X055039Y030846D02*
D03*
X054646D02*
D03*
X055974D02*
D03*
X055581D02*
D03*
X055974Y031831D02*
D03*
X055581D02*
D03*
X055974Y033287D02*
D03*
X055581D02*
D03*
X055974Y03376D02*
D03*
X055581D02*
D03*
Y034232D02*
D03*
X055974D02*
D03*
Y034705D02*
D03*
X055581D02*
D03*
X055984Y031339D02*
D03*
X055591D02*
D03*
X03378Y027008D02*
D03*
X034173D02*
D03*
X038898Y02189D02*
D03*
X038504D02*
D03*
X036732Y029114D02*
D03*
X036339D02*
D03*
X036732Y029587D02*
D03*
X036339D02*
D03*
X059675Y033091D02*
D03*
X060069D02*
D03*
X044921Y044291D02*
D03*
X044528D02*
D03*
D25*
X059203Y030488D02*
D03*
Y03028D02*
D03*
X058967Y030488D02*
D03*
Y03028D02*
D03*
X058622Y030488D02*
D03*
Y03028D02*
D03*
X058356Y030482D02*
D03*
Y030274D02*
D03*
Y030693D02*
D03*
Y030902D02*
D03*
X057913Y025093D02*
D03*
Y025301D02*
D03*
X059724D02*
D03*
Y025093D02*
D03*
X05747Y026135D02*
D03*
Y026343D02*
D03*
X056693Y026392D02*
D03*
Y0266D02*
D03*
X058986Y027181D02*
D03*
Y026972D02*
D03*
X059213Y026971D02*
D03*
Y02718D02*
D03*
X057156Y026142D02*
D03*
Y02635D02*
D03*
X057785Y026135D02*
D03*
Y026343D02*
D03*
X058022Y031596D02*
D03*
Y031388D02*
D03*
X056841Y027236D02*
D03*
Y027028D02*
D03*
X044063Y020184D02*
D03*
Y019975D02*
D03*
X03622Y041628D02*
D03*
Y041837D02*
D03*
X036614Y041628D02*
D03*
Y041837D02*
D03*
X060157Y035339D02*
D03*
Y035547D02*
D03*
X060394Y035339D02*
D03*
Y035547D02*
D03*
X059144Y035616D02*
D03*
Y035407D02*
D03*
X044516Y018933D02*
D03*
Y019142D02*
D03*
X045106Y02422D02*
D03*
Y024012D02*
D03*
X044841Y024215D02*
D03*
Y024006D02*
D03*
X045579Y020813D02*
D03*
Y021022D02*
D03*
X045805Y02102D02*
D03*
Y020812D02*
D03*
X045707Y024006D02*
D03*
Y024215D02*
D03*
X046317Y019142D02*
D03*
Y018933D02*
D03*
X046829Y024815D02*
D03*
Y024606D02*
D03*
X04547Y024215D02*
D03*
Y024006D02*
D03*
X043433Y020868D02*
D03*
Y021077D02*
D03*
X043307Y020439D02*
D03*
Y02023D02*
D03*
X044378Y020184D02*
D03*
Y019975D02*
D03*
X043748Y020191D02*
D03*
Y019982D02*
D03*
X057087Y036352D02*
D03*
Y036561D02*
D03*
X057313Y039553D02*
D03*
Y039344D02*
D03*
X057933D02*
D03*
Y039553D02*
D03*
X057638Y036561D02*
D03*
Y036352D02*
D03*
X057648Y038736D02*
D03*
Y038528D02*
D03*
X057913Y035695D02*
D03*
Y035486D02*
D03*
X036654Y038175D02*
D03*
Y037967D02*
D03*
X031518Y039969D02*
D03*
Y03976D02*
D03*
X031427Y038222D02*
D03*
Y038431D02*
D03*
X036713Y039148D02*
D03*
Y039356D02*
D03*
X03154Y040171D02*
D03*
Y04038D02*
D03*
X04Y047179D02*
D03*
Y047388D02*
D03*
X044567Y047061D02*
D03*
Y04727D02*
D03*
X051378Y046957D02*
D03*
Y047165D02*
D03*
D26*
X058904Y030984D02*
D03*
X058695D02*
D03*
X031339Y031142D02*
D03*
X03113D02*
D03*
Y032165D02*
D03*
X031339D02*
D03*
X034896Y034528D02*
D03*
X035104D02*
D03*
X055236Y029203D02*
D03*
X055445D02*
D03*
X055236Y029478D02*
D03*
X055445D02*
D03*
X058756Y027185D02*
D03*
X058547D02*
D03*
X05977Y028297D02*
D03*
X059561D02*
D03*
X055236Y029754D02*
D03*
X055445D02*
D03*
X055236Y03003D02*
D03*
X055445D02*
D03*
X055236Y028927D02*
D03*
X055445D02*
D03*
X055236Y028642D02*
D03*
X055445D02*
D03*
X058757Y026959D02*
D03*
X058548D02*
D03*
X05977Y029075D02*
D03*
X059561D02*
D03*
X054868Y028031D02*
D03*
X054659D02*
D03*
X041301Y022059D02*
D03*
X04151D02*
D03*
X045141Y020789D02*
D03*
X04535D02*
D03*
Y021026D02*
D03*
X045141D02*
D03*
X042037Y023319D02*
D03*
X041829D02*
D03*
X042037Y022768D02*
D03*
X041829D02*
D03*
X042037Y023043D02*
D03*
X041829D02*
D03*
X042037Y022482D02*
D03*
X041829D02*
D03*
X036707Y040709D02*
D03*
X036915D02*
D03*
Y040157D02*
D03*
X036707D02*
D03*
X032681Y036388D02*
D03*
X03289D02*
D03*
X035693D02*
D03*
X035902D02*
D03*
X041829Y023594D02*
D03*
X042037D02*
D03*
X041829Y02387D02*
D03*
X042037D02*
D03*
X04587Y025837D02*
D03*
X046079D02*
D03*
X046154Y022128D02*
D03*
X046362D02*
D03*
X046154Y022915D02*
D03*
X046362D02*
D03*
X046016Y024205D02*
D03*
X046224D02*
D03*
X031758Y01874D02*
D03*
X031549D02*
D03*
X037809Y02189D02*
D03*
X038018D02*
D03*
X058569Y032933D02*
D03*
X05836D02*
D03*
X055772Y03747D02*
D03*
X05598D02*
D03*
X057907Y032933D02*
D03*
X058116D02*
D03*
X05974Y035787D02*
D03*
X059531D02*
D03*
X061285Y039291D02*
D03*
X061077D02*
D03*
X056177Y039035D02*
D03*
X055968D02*
D03*
X055718D02*
D03*
X05551D02*
D03*
X033795Y036388D02*
D03*
X033587D02*
D03*
X033321Y041388D02*
D03*
X03353D02*
D03*
X036915Y040433D02*
D03*
X036707D02*
D03*
X036915Y039882D02*
D03*
X036707D02*
D03*
X036915Y038937D02*
D03*
X036707D02*
D03*
X034917Y041388D02*
D03*
X034709D02*
D03*
D27*
X04076Y03996D02*
D03*
Y04016D02*
D03*
Y04036D02*
D03*
Y04055D02*
D03*
Y04075D02*
D03*
Y04095D02*
D03*
Y04114D02*
D03*
Y04134D02*
D03*
Y04154D02*
D03*
Y04173D02*
D03*
Y04193D02*
D03*
Y04213D02*
D03*
Y04232D02*
D03*
Y04252D02*
D03*
Y04272D02*
D03*
Y04292D02*
D03*
Y04311D02*
D03*
Y04331D02*
D03*
Y04351D02*
D03*
Y0437D02*
D03*
Y0439D02*
D03*
Y0441D02*
D03*
Y04429D02*
D03*
Y04449D02*
D03*
Y04469D02*
D03*
Y04488D02*
D03*
Y04508D02*
D03*
Y04528D02*
D03*
X04374D02*
D03*
Y04508D02*
D03*
Y04488D02*
D03*
Y04469D02*
D03*
Y04449D02*
D03*
Y04429D02*
D03*
Y0441D02*
D03*
Y0439D02*
D03*
Y0437D02*
D03*
Y04351D02*
D03*
Y04331D02*
D03*
Y04311D02*
D03*
Y04292D02*
D03*
Y04272D02*
D03*
Y04252D02*
D03*
Y04232D02*
D03*
Y04213D02*
D03*
Y04193D02*
D03*
Y04173D02*
D03*
Y04154D02*
D03*
Y04134D02*
D03*
Y04114D02*
D03*
Y04095D02*
D03*
Y04075D02*
D03*
Y04055D02*
D03*
Y04036D02*
D03*
Y04016D02*
D03*
Y03996D02*
D03*
D28*
X033386Y033622D02*
D03*
X032992D02*
D03*
X033386Y034252D02*
D03*
X032992D02*
D03*
D29*
X059272Y025561D02*
D03*
Y024833D02*
D03*
X058366Y025561D02*
D03*
Y024833D02*
D03*
X045864Y019402D02*
D03*
Y018673D02*
D03*
X044959Y019402D02*
D03*
Y018673D02*
D03*
D30*
X032037Y032165D02*
D03*
X031722D02*
D03*
X030866Y031142D02*
D03*
X030551D02*
D03*
X032037D02*
D03*
X031722D02*
D03*
X030551Y032165D02*
D03*
X030866D02*
D03*
X028701Y03215D02*
D03*
X029016D02*
D03*
X029016Y031142D02*
D03*
X028701D02*
D03*
X029705D02*
D03*
X03002D02*
D03*
X03002Y03215D02*
D03*
X029705D02*
D03*
X058839Y026526D02*
D03*
X058524D02*
D03*
X045431Y020376D02*
D03*
X045116D02*
D03*
X041968Y046102D02*
D03*
X042283D02*
D03*
X039331Y04622D02*
D03*
X039646D02*
D03*
D31*
X034843Y032835D02*
D03*
X034213D02*
D03*
X057057Y030906D02*
D03*
X057687Y03186D02*
D03*
X057057D02*
D03*
X057687Y031388D02*
D03*
X057057D02*
D03*
X057687Y030906D02*
D03*
X047813Y024224D02*
D03*
X047183D02*
D03*
X047815Y025157D02*
D03*
X047185D02*
D03*
X047815Y024695D02*
D03*
X047185D02*
D03*
D32*
X035109Y034232D02*
D03*
Y034035D02*
D03*
Y033839D02*
D03*
Y033642D02*
D03*
X033868D02*
D03*
Y033839D02*
D03*
Y034035D02*
D03*
Y034232D02*
D03*
D33*
X039646Y042224D02*
D03*
Y041634D02*
D03*
Y04065D02*
D03*
Y040059D02*
D03*
Y043799D02*
D03*
Y043209D02*
D03*
X030118Y022224D02*
D03*
Y021634D02*
D03*
X037795Y02124D02*
D03*
Y02065D02*
D03*
X030477Y04037D02*
D03*
Y03978D02*
D03*
X045098Y042069D02*
D03*
Y04266D02*
D03*
X030477Y041364D02*
D03*
Y041955D02*
D03*
X031471Y041374D02*
D03*
Y041965D02*
D03*
D34*
X054872Y021004D02*
D03*
Y019823D02*
D03*
X045195Y016734D02*
D03*
Y017915D02*
D03*
D35*
X055935Y020984D02*
D03*
Y019843D02*
D03*
X046258Y016754D02*
D03*
Y017896D02*
D03*
X058715Y040497D02*
D03*
Y041639D02*
D03*
X059975Y040497D02*
D03*
Y041639D02*
D03*
D36*
X059488Y027175D02*
D03*
Y02686D02*
D03*
X046081Y020701D02*
D03*
Y021016D02*
D03*
X030069Y035974D02*
D03*
Y036289D02*
D03*
X030988Y040036D02*
D03*
Y039721D02*
D03*
X045472Y043268D02*
D03*
Y043583D02*
D03*
X037087Y037677D02*
D03*
Y037992D02*
D03*
X030988Y041345D02*
D03*
Y04166D02*
D03*
X04126Y04748D02*
D03*
Y047165D02*
D03*
X040787D02*
D03*
Y04748D02*
D03*
X040315D02*
D03*
Y047165D02*
D03*
X039646D02*
D03*
Y04748D02*
D03*
X053898Y047283D02*
D03*
Y046968D02*
D03*
X046614Y047047D02*
D03*
Y047362D02*
D03*
X053465Y047283D02*
D03*
Y046968D02*
D03*
X046181Y047047D02*
D03*
Y047362D02*
D03*
X053032Y047283D02*
D03*
Y046968D02*
D03*
X045748Y047047D02*
D03*
Y047362D02*
D03*
X052598Y047283D02*
D03*
Y046968D02*
D03*
X045315Y047047D02*
D03*
Y047362D02*
D03*
X052165Y047283D02*
D03*
Y046968D02*
D03*
X044961Y047087D02*
D03*
Y047402D02*
D03*
X051752Y047274D02*
D03*
Y046959D02*
D03*
X044213Y047087D02*
D03*
Y047402D02*
D03*
X051024Y047283D02*
D03*
Y046968D02*
D03*
D37*
X056496Y025669D02*
D03*
X043Y036151D02*
D03*
Y034762D02*
D03*
Y033372D02*
D03*
X049579Y037541D02*
D03*
X043D02*
D03*
Y031983D02*
D03*
Y030594D02*
D03*
Y029204D02*
D03*
X044316Y027815D02*
D03*
X043D02*
D03*
X048263D02*
D03*
X045632D02*
D03*
X046948D02*
D03*
X044316Y037541D02*
D03*
X045632D02*
D03*
X048263D02*
D03*
X046948D02*
D03*
X052211Y033372D02*
D03*
X050895Y037541D02*
D03*
X052211D02*
D03*
Y036151D02*
D03*
Y034762D02*
D03*
Y031983D02*
D03*
Y030594D02*
D03*
Y029204D02*
D03*
X049579Y027815D02*
D03*
X052211D02*
D03*
X050895D02*
D03*
X042953Y019783D02*
D03*
D38*
X055866Y027933D02*
D03*
Y027303D02*
D03*
X042478Y021144D02*
D03*
Y021774D02*
D03*
X03561Y030689D02*
D03*
Y031319D02*
D03*
D39*
X059055Y02876D02*
D03*
Y028602D02*
D03*
X057126Y02876D02*
D03*
Y028602D02*
D03*
X059055Y02939D02*
D03*
Y027972D02*
D03*
X057126Y02939D02*
D03*
Y027972D02*
D03*
X059055Y029232D02*
D03*
Y02813D02*
D03*
X057126Y029232D02*
D03*
Y02813D02*
D03*
X059055Y029075D02*
D03*
Y028287D02*
D03*
X057126Y029075D02*
D03*
Y028287D02*
D03*
X059055Y028917D02*
D03*
Y028445D02*
D03*
X057126Y028917D02*
D03*
Y028445D02*
D03*
X043718Y022285D02*
D03*
Y022758D02*
D03*
X045648Y022285D02*
D03*
Y022758D02*
D03*
X043718Y022128D02*
D03*
Y022915D02*
D03*
X045648Y022128D02*
D03*
Y022915D02*
D03*
X043718Y02197D02*
D03*
Y023073D02*
D03*
X045648Y02197D02*
D03*
Y023073D02*
D03*
X043718Y021813D02*
D03*
Y02323D02*
D03*
X045648Y021813D02*
D03*
Y02323D02*
D03*
X043718Y022443D02*
D03*
Y0226D02*
D03*
X045648Y022443D02*
D03*
Y0226D02*
D03*
D40*
X058169Y029646D02*
D03*
Y027717D02*
D03*
X058012Y029646D02*
D03*
Y027717D02*
D03*
X058799Y029646D02*
D03*
Y027717D02*
D03*
X057382Y029646D02*
D03*
Y027717D02*
D03*
X058642Y029646D02*
D03*
Y027717D02*
D03*
X057539Y029646D02*
D03*
Y027717D02*
D03*
X058484Y029646D02*
D03*
Y027717D02*
D03*
X057697Y029646D02*
D03*
Y027717D02*
D03*
X058327Y029646D02*
D03*
Y027717D02*
D03*
X057854Y029646D02*
D03*
Y027717D02*
D03*
X044447Y021557D02*
D03*
Y023486D02*
D03*
X044919Y021557D02*
D03*
Y023486D02*
D03*
X044289Y021557D02*
D03*
Y023486D02*
D03*
X045077Y021557D02*
D03*
Y023486D02*
D03*
X044132Y021557D02*
D03*
Y023486D02*
D03*
X045234Y021557D02*
D03*
Y023486D02*
D03*
X043974Y021557D02*
D03*
Y023486D02*
D03*
X045392Y021557D02*
D03*
Y023486D02*
D03*
X044604Y021557D02*
D03*
Y023486D02*
D03*
X044762Y021557D02*
D03*
Y023486D02*
D03*
D41*
X058091Y028681D02*
D03*
X044683Y022522D02*
D03*
D42*
X058856Y031476D02*
D03*
X045994Y024717D02*
D03*
D43*
X058368Y031673D02*
D03*
Y031279D02*
D03*
X046482Y024913D02*
D03*
Y02452D02*
D03*
D44*
X054764Y027236D02*
D03*
X041406Y021264D02*
D03*
D45*
X054961Y027724D02*
D03*
X054567D02*
D03*
X041209Y021752D02*
D03*
X041602D02*
D03*
D46*
X059724Y023826D02*
D03*
X059528D02*
D03*
X059134D02*
D03*
X058937D02*
D03*
Y023497D02*
D03*
X059134D02*
D03*
X059528D02*
D03*
X059724D02*
D03*
X060472D02*
D03*
X060669D02*
D03*
X061063D02*
D03*
X06126D02*
D03*
Y023826D02*
D03*
X061063D02*
D03*
X060669D02*
D03*
X060472D02*
D03*
X050512Y023898D02*
D03*
X050315D02*
D03*
X049921D02*
D03*
X049724D02*
D03*
Y023569D02*
D03*
X049921D02*
D03*
X050315D02*
D03*
X050512D02*
D03*
X051181Y023576D02*
D03*
X051378D02*
D03*
X051772D02*
D03*
X051968D02*
D03*
Y023905D02*
D03*
X051772D02*
D03*
X051378D02*
D03*
X051181D02*
D03*
X03587Y042598D02*
D03*
X036067D02*
D03*
X036461D02*
D03*
X036658D02*
D03*
Y042926D02*
D03*
X036461D02*
D03*
X036067D02*
D03*
X03587D02*
D03*
D47*
X056555Y027421D02*
D03*
Y027028D02*
D03*
X043148Y020868D02*
D03*
Y021262D02*
D03*
X030157Y020472D02*
D03*
Y020079D02*
D03*
X057362Y036142D02*
D03*
Y036535D02*
D03*
X057313Y038573D02*
D03*
Y038967D02*
D03*
X057628Y039774D02*
D03*
Y03938D02*
D03*
X05685Y038465D02*
D03*
Y038071D02*
D03*
X029596Y03814D02*
D03*
Y037746D02*
D03*
X044547Y042601D02*
D03*
Y042207D02*
D03*
D48*
X055039Y031614D02*
D03*
Y03122D02*
D03*
X030118Y02122D02*
D03*
Y020827D02*
D03*
X030591Y020079D02*
D03*
Y020472D02*
D03*
X031024Y020472D02*
D03*
Y020079D02*
D03*
X031457Y020472D02*
D03*
Y020079D02*
D03*
X032362Y017205D02*
D03*
Y017598D02*
D03*
X035669Y028248D02*
D03*
Y028642D02*
D03*
X033563Y017205D02*
D03*
Y017598D02*
D03*
X035236Y028642D02*
D03*
Y028248D02*
D03*
X029646Y02122D02*
D03*
Y020827D02*
D03*
X029685Y020472D02*
D03*
Y020079D02*
D03*
X061575Y035699D02*
D03*
Y036093D02*
D03*
X062005Y035689D02*
D03*
Y036083D02*
D03*
X030935Y03625D02*
D03*
Y036644D02*
D03*
X030561Y038691D02*
D03*
Y039085D02*
D03*
X030128Y039085D02*
D03*
Y038691D02*
D03*
X035585Y041424D02*
D03*
Y041817D02*
D03*
X032323Y041437D02*
D03*
Y041831D02*
D03*
X037126Y035315D02*
D03*
Y035709D02*
D03*
D49*
X054488Y041913D02*
D03*
X054988D02*
D03*
X054488Y042413D02*
D03*
X054988D02*
D03*
X054488Y042913D02*
D03*
X054988D02*
D03*
X054488Y043413D02*
D03*
X054988D02*
D03*
X054488Y043913D02*
D03*
X054988D02*
D03*
D50*
X041614Y033546D02*
D03*
Y033979D02*
D03*
Y034412D02*
D03*
Y036577D02*
D03*
Y036144D02*
D03*
Y035711D02*
D03*
Y035278D02*
D03*
Y034845D02*
D03*
Y033113D02*
D03*
Y032246D02*
D03*
X053583Y038309D02*
D03*
Y037876D02*
D03*
X041614Y038309D02*
D03*
Y037443D02*
D03*
Y03701D02*
D03*
Y037876D02*
D03*
Y030514D02*
D03*
Y030081D02*
D03*
Y029648D02*
D03*
Y029215D02*
D03*
Y028782D02*
D03*
Y028349D02*
D03*
Y027916D02*
D03*
Y027483D02*
D03*
Y02705D02*
D03*
X053583Y033113D02*
D03*
Y037443D02*
D03*
Y03701D02*
D03*
Y036577D02*
D03*
Y036144D02*
D03*
Y035711D02*
D03*
Y035278D02*
D03*
Y034845D02*
D03*
Y034412D02*
D03*
Y033979D02*
D03*
Y033546D02*
D03*
Y032246D02*
D03*
Y031813D02*
D03*
Y032679D02*
D03*
Y03138D02*
D03*
Y030947D02*
D03*
Y030514D02*
D03*
Y030081D02*
D03*
Y029648D02*
D03*
Y029215D02*
D03*
X041614Y032679D02*
D03*
Y03138D02*
D03*
Y031813D02*
D03*
Y030947D02*
D03*
X053583Y02705D02*
D03*
Y028782D02*
D03*
Y028349D02*
D03*
Y027483D02*
D03*
Y027916D02*
D03*
D51*
X048473Y038917D02*
D03*
X052371D02*
D03*
X051937D02*
D03*
X051504D02*
D03*
X051071D02*
D03*
X049772D02*
D03*
X053237D02*
D03*
X050638D02*
D03*
X050205D02*
D03*
X052804D02*
D03*
X048906D02*
D03*
X049339D02*
D03*
X042843Y026437D02*
D03*
X043709D02*
D03*
X044142D02*
D03*
X044575D02*
D03*
X045008D02*
D03*
X045441D02*
D03*
X045874D02*
D03*
X041977D02*
D03*
X04241D02*
D03*
X043276D02*
D03*
X046741D02*
D03*
X04804D02*
D03*
X046308D02*
D03*
X047607D02*
D03*
X047174D02*
D03*
X047607Y038917D02*
D03*
X04804D02*
D03*
X04241D02*
D03*
X042843D02*
D03*
X041978D02*
D03*
X044142D02*
D03*
X044575D02*
D03*
X045008D02*
D03*
X045441D02*
D03*
X045874D02*
D03*
X046308D02*
D03*
X046741D02*
D03*
X043709D02*
D03*
X043276D02*
D03*
X047174D02*
D03*
X048473Y026437D02*
D03*
X050638D02*
D03*
X050205D02*
D03*
X049772D02*
D03*
X049339D02*
D03*
X051071D02*
D03*
X051504D02*
D03*
X048906D02*
D03*
X051937D02*
D03*
X052371D02*
D03*
X053237D02*
D03*
X052804D02*
D03*
D52*
X057402Y04338D02*
D03*
D53*
X060315Y046333D02*
D03*
X057402Y047081D02*
D03*
D54*
Y048183D02*
D03*
D55*
X058573Y034301D02*
D03*
X058002D02*
D03*
X058573Y033573D02*
D03*
X058002D02*
D03*
D56*
X059144Y034961D02*
D03*
X058809Y035541D02*
D03*
X058543Y034961D02*
D03*
X058268Y035551D02*
D03*
X060758Y035187D02*
D03*
X058898Y039754D02*
D03*
X056654Y036772D02*
D03*
X06127Y035187D02*
D03*
X056654Y037362D02*
D03*
X05937Y039754D02*
D03*
X061772Y037953D02*
D03*
Y038543D02*
D03*
D57*
X058059Y038723D02*
D03*
Y038329D02*
D03*
Y038132D02*
D03*
Y037936D02*
D03*
Y037345D02*
D03*
Y037148D02*
D03*
Y036951D02*
D03*
Y036558D02*
D03*
X060814Y038723D02*
D03*
Y038329D02*
D03*
Y038132D02*
D03*
Y037936D02*
D03*
Y037345D02*
D03*
Y037148D02*
D03*
Y036951D02*
D03*
Y036558D02*
D03*
X058059Y038526D02*
D03*
Y037739D02*
D03*
Y037542D02*
D03*
Y036755D02*
D03*
X060814Y038526D02*
D03*
Y037739D02*
D03*
Y037542D02*
D03*
Y036755D02*
D03*
D58*
X058354Y039018D02*
D03*
Y036262D02*
D03*
X058748Y039018D02*
D03*
X058944D02*
D03*
X059141D02*
D03*
X058748Y036262D02*
D03*
X058944D02*
D03*
X059141D02*
D03*
X059732Y039018D02*
D03*
X059929D02*
D03*
X060125D02*
D03*
X059732Y036262D02*
D03*
X059929D02*
D03*
X060125D02*
D03*
X060519Y039018D02*
D03*
Y036262D02*
D03*
X058551Y039018D02*
D03*
Y036262D02*
D03*
X059338Y039018D02*
D03*
X059535D02*
D03*
X060322D02*
D03*
X059338Y036262D02*
D03*
X059535D02*
D03*
X060322D02*
D03*
D59*
X059436Y03764D02*
D03*
D60*
X031024Y017264D02*
D03*
Y017776D02*
D03*
X031811Y017264D02*
D03*
Y017776D02*
D03*
X031024Y01752D02*
D03*
X031811D02*
D03*
D61*
X031417D02*
D03*
D62*
X031496Y0164D02*
D03*
X034016D02*
D03*
X031811D02*
D03*
X033701D02*
D03*
D63*
X032854D02*
D03*
X032657D02*
D03*
X033051D02*
D03*
X033248D02*
D03*
X033445D02*
D03*
X032461D02*
D03*
X032264D02*
D03*
X032067D02*
D03*
D64*
X032736Y017598D02*
D03*
Y017205D02*
D03*
X033169Y017598D02*
D03*
Y017205D02*
D03*
D65*
X034447Y02185D02*
D03*
X036497D02*
D03*
D66*
X036476Y025512D02*
D03*
X035335D02*
D03*
X036476Y026614D02*
D03*
X035335D02*
D03*
X036476Y02437D02*
D03*
X035335D02*
D03*
X038484Y019803D02*
D03*
X039626D02*
D03*
X033169Y019646D02*
D03*
X032028D02*
D03*
X033219Y023957D02*
D03*
X032077D02*
D03*
D67*
X03864Y021437D02*
D03*
Y021063D02*
D03*
Y020689D02*
D03*
X039628Y021437D02*
D03*
Y021063D02*
D03*
Y020689D02*
D03*
D68*
X035415Y029114D02*
D03*
X035612D02*
D03*
X035809D02*
D03*
D69*
X035415Y029547D02*
D03*
X035612Y029546D02*
D03*
X035809Y029547D02*
D03*
D70*
X034176Y026614D02*
D03*
X033776D02*
D03*
X059711Y033494D02*
D03*
X060111D02*
D03*
D71*
X031004Y021811D02*
D03*
D72*
X031289Y022441D02*
D03*
X031486D02*
D03*
X031289Y021181D02*
D03*
X031486D02*
D03*
D73*
X031004Y022018D02*
D03*
Y021604D02*
D03*
D74*
X031909Y022382D02*
D03*
Y02124D02*
D03*
D75*
X032461Y020551D02*
D03*
X03187D02*
D03*
X035807Y027421D02*
D03*
X036398D02*
D03*
X03128Y02311D02*
D03*
X030689D02*
D03*
X031919Y023071D02*
D03*
X03251D02*
D03*
X035906Y030098D02*
D03*
X035315D02*
D03*
X03128Y018307D02*
D03*
X03187D02*
D03*
X042697Y046102D02*
D03*
X043287D02*
D03*
X036821Y037185D02*
D03*
X037411D02*
D03*
X036831Y038504D02*
D03*
X037421D02*
D03*
X039587Y045354D02*
D03*
X038996D02*
D03*
D76*
X036339Y028681D02*
D03*
X036732D02*
D03*
X061949Y03686D02*
D03*
X061555D02*
D03*
X061949Y037431D02*
D03*
X061555D02*
D03*
X059439Y035512D02*
D03*
X059833D02*
D03*
X060906Y039567D02*
D03*
X061299D02*
D03*
X030089Y036644D02*
D03*
X030482D02*
D03*
X039252Y044882D02*
D03*
X039646D02*
D03*
X039252Y045827D02*
D03*
X039646D02*
D03*
X043032Y045669D02*
D03*
X042638D02*
D03*
D77*
X036575Y030945D02*
D03*
Y030197D02*
D03*
X037441Y030945D02*
D03*
Y030197D02*
D03*
D78*
X040827Y020365D02*
D03*
X040433D02*
D03*
Y019556D02*
D03*
X040827D02*
D03*
X032799Y042358D02*
D03*
X033193D02*
D03*
Y043167D02*
D03*
X032799D02*
D03*
X033547D02*
D03*
X033941D02*
D03*
Y042358D02*
D03*
X033547D02*
D03*
X035043Y043167D02*
D03*
X035437D02*
D03*
Y042358D02*
D03*
X035043D02*
D03*
X034295Y043167D02*
D03*
X034689D02*
D03*
Y042358D02*
D03*
X034295D02*
D03*
D79*
X029208Y024055D02*
D03*
Y022402D02*
D03*
Y026457D02*
D03*
Y02811D02*
D03*
D80*
X055374Y038622D02*
D03*
Y038248D02*
D03*
Y037874D02*
D03*
X056319Y038622D02*
D03*
Y037874D02*
D03*
D81*
X030856Y03814D02*
D03*
X030108D02*
D03*
X030856Y037195D02*
D03*
X030482D02*
D03*
X030108D02*
D03*
D82*
X033031Y04477D02*
D03*
X033228D02*
D03*
X033425D02*
D03*
X033622D02*
D03*
X033819D02*
D03*
X034016D02*
D03*
X034213D02*
D03*
X034409D02*
D03*
X034606D02*
D03*
X034803D02*
D03*
X035D02*
D03*
X035197D02*
D03*
X035394D02*
D03*
X035591D02*
D03*
X035787D02*
D03*
X035984D02*
D03*
X036181D02*
D03*
X036378D02*
D03*
X036575D02*
D03*
D83*
X046732Y044134D02*
D03*
X046929D02*
D03*
X047126D02*
D03*
X047323D02*
D03*
X04752D02*
D03*
X047717D02*
D03*
X047913D02*
D03*
X04811D02*
D03*
X048307D02*
D03*
X048504D02*
D03*
X048701D02*
D03*
X048898D02*
D03*
X049094D02*
D03*
X049291D02*
D03*
X046732Y043937D02*
D03*
X046929D02*
D03*
X047126D02*
D03*
X047323D02*
D03*
X04752D02*
D03*
X047717D02*
D03*
X047913D02*
D03*
X04811D02*
D03*
X048307D02*
D03*
X048504D02*
D03*
X048701D02*
D03*
X048898D02*
D03*
X049094D02*
D03*
X049291D02*
D03*
X046732Y04374D02*
D03*
X046929D02*
D03*
X047126D02*
D03*
X047323D02*
D03*
X04752D02*
D03*
X047717D02*
D03*
X047913D02*
D03*
X04811D02*
D03*
X048307D02*
D03*
X048504D02*
D03*
X048701D02*
D03*
X048898D02*
D03*
X049094D02*
D03*
X049291D02*
D03*
X046732Y043543D02*
D03*
X046929D02*
D03*
X047126D02*
D03*
X048898D02*
D03*
X049094D02*
D03*
X049291D02*
D03*
X046732Y043346D02*
D03*
X046929D02*
D03*
X047126D02*
D03*
X04752D02*
D03*
X047717D02*
D03*
X047913D02*
D03*
X04811D02*
D03*
X048307D02*
D03*
X048504D02*
D03*
X048898D02*
D03*
X049094D02*
D03*
X049291D02*
D03*
X046732Y04315D02*
D03*
X046929D02*
D03*
X047126D02*
D03*
X04752D02*
D03*
X048504D02*
D03*
X048898D02*
D03*
X049094D02*
D03*
X049291D02*
D03*
X046732Y042953D02*
D03*
X046929D02*
D03*
X047126D02*
D03*
X04752D02*
D03*
X048504D02*
D03*
X048898D02*
D03*
X049094D02*
D03*
X049291D02*
D03*
X046732Y042756D02*
D03*
X046929D02*
D03*
X047126D02*
D03*
X04752D02*
D03*
X048504D02*
D03*
X048898D02*
D03*
X049094D02*
D03*
X049291D02*
D03*
X046732Y042559D02*
D03*
X046929D02*
D03*
X047126D02*
D03*
X04752D02*
D03*
X048504D02*
D03*
X048898D02*
D03*
X049094D02*
D03*
X049291D02*
D03*
X046732Y042362D02*
D03*
X046929D02*
D03*
X047126D02*
D03*
X04752D02*
D03*
X047717D02*
D03*
X047913D02*
D03*
X04811D02*
D03*
X048307D02*
D03*
X048504D02*
D03*
X048898D02*
D03*
X049094D02*
D03*
X049291D02*
D03*
X046732Y042165D02*
D03*
X046929D02*
D03*
X047126D02*
D03*
X048701D02*
D03*
X048898D02*
D03*
X049094D02*
D03*
X049291D02*
D03*
X046732Y041968D02*
D03*
X046929D02*
D03*
X047126D02*
D03*
X047323D02*
D03*
X04752D02*
D03*
X047717D02*
D03*
X047913D02*
D03*
X04811D02*
D03*
X048307D02*
D03*
X048504D02*
D03*
X048701D02*
D03*
X048898D02*
D03*
X049094D02*
D03*
X049291D02*
D03*
X046732Y041772D02*
D03*
X046929D02*
D03*
X047126D02*
D03*
X047323D02*
D03*
X04752D02*
D03*
X047717D02*
D03*
X047913D02*
D03*
X04811D02*
D03*
X048307D02*
D03*
X048504D02*
D03*
X048701D02*
D03*
X048898D02*
D03*
X049094D02*
D03*
X049291D02*
D03*
X046732Y041575D02*
D03*
X046929D02*
D03*
X047126D02*
D03*
X047323D02*
D03*
X04752D02*
D03*
X047717D02*
D03*
X047913D02*
D03*
X04811D02*
D03*
X048307D02*
D03*
X048504D02*
D03*
X048701D02*
D03*
X048898D02*
D03*
X049094D02*
D03*
X049291D02*
D03*
D84*
X032347Y036927D02*
D03*
X032544D02*
D03*
X03274D02*
D03*
X032937D02*
D03*
X033134D02*
D03*
X033331D02*
D03*
X033528D02*
D03*
X033725D02*
D03*
X033921D02*
D03*
X034118D02*
D03*
X034315D02*
D03*
X034512D02*
D03*
X034709D02*
D03*
X034906D02*
D03*
X035103D02*
D03*
X035299D02*
D03*
X035496D02*
D03*
X035693D02*
D03*
Y040813D02*
D03*
X035496D02*
D03*
X035299D02*
D03*
X035103D02*
D03*
X034906D02*
D03*
X034709D02*
D03*
X034512D02*
D03*
X034315D02*
D03*
X034118D02*
D03*
X033921D02*
D03*
X033725D02*
D03*
X033528D02*
D03*
X033331D02*
D03*
X033134D02*
D03*
X032937D02*
D03*
X03274D02*
D03*
X032544D02*
D03*
X032347D02*
D03*
D85*
X032077Y040544D02*
D03*
Y040347D02*
D03*
Y04015D02*
D03*
Y039953D02*
D03*
Y039756D02*
D03*
Y039559D02*
D03*
Y039362D02*
D03*
Y039166D02*
D03*
Y038969D02*
D03*
Y038772D02*
D03*
Y038575D02*
D03*
Y038378D02*
D03*
Y038181D02*
D03*
Y037985D02*
D03*
Y037788D02*
D03*
Y037591D02*
D03*
Y037394D02*
D03*
Y037197D02*
D03*
X035963D02*
D03*
Y037394D02*
D03*
Y037591D02*
D03*
Y037788D02*
D03*
Y037985D02*
D03*
Y038181D02*
D03*
Y038378D02*
D03*
Y038575D02*
D03*
Y038772D02*
D03*
Y038969D02*
D03*
Y039166D02*
D03*
Y039362D02*
D03*
Y039559D02*
D03*
Y039756D02*
D03*
Y039953D02*
D03*
Y04015D02*
D03*
Y040347D02*
D03*
Y040544D02*
D03*
D86*
X038046Y034004D02*
D03*
Y034634D02*
D03*
X037101Y034004D02*
D03*
Y034634D02*
D03*
X037573D02*
D03*
Y034004D02*
D03*
X037382Y04127D02*
D03*
Y0419D02*
D03*
D87*
X037376Y042506D02*
D03*
Y043136D02*
D03*
M02*
